<svg width="656" height="594" viewBox="0 0 656 594" fill="none" xmlns="http://www.w3.org/2000/svg">
<path d="M80.1877 93.2016C77.8066 94.2537 74.9259 97.2942 74.9259 97.2942C74.9259 97.2942 68.6994 94.1831 65.5716 96.1248C62.3198 98.1433 62.6483 105.479 62.6483 105.479L59.725 108.402C59.725 108.402 55.8437 112.678 59.7251 115.418C63.6065 118.158 63.4441 116.186 67.3255 118.926C71.2069 121.666 72.2904 124.005 76.0951 124.773C80.6214 125.686 84.1861 125.908 87.7883 123.019C89.5694 121.59 89.3521 119.539 91.2961 118.341C92.8992 117.354 94.3849 118.183 95.9733 117.172C98.2197 115.743 99.5734 113.987 99.4812 111.326C99.3799 108.404 96.0918 108.104 94.804 105.479C93.3642 102.544 94.8101 100.049 93.0501 97.2942C91.1064 94.252 89.0484 92.3166 85.4496 92.0323C83.3511 91.8666 82.1131 92.3508 80.1877 93.2016Z" stroke="#005573" stroke-width="2.3386"/>
<path d="M635.188 85.2016C632.807 86.2537 629.926 89.2942 629.926 89.2942C629.926 89.2942 623.699 86.1831 620.572 88.1248C617.32 90.1433 617.648 97.4792 617.648 97.4792L614.725 100.402C614.725 100.402 610.844 104.678 614.725 107.418C618.606 110.158 618.444 108.186 622.325 110.926C626.207 113.666 627.29 116.005 631.095 116.773C635.621 117.686 639.186 117.908 642.788 115.019C644.569 113.59 644.352 111.539 646.296 110.341C647.899 109.354 649.385 110.183 650.973 109.172C653.22 107.743 654.573 105.987 654.481 103.326C654.38 100.404 651.092 100.104 649.804 97.4792C648.364 94.5443 649.81 92.0489 648.05 89.2942C646.106 86.252 644.048 84.3166 640.45 84.0323C638.351 83.8666 637.113 84.3508 635.188 85.2016Z" stroke="#005573" stroke-width="2.3386"/>
<path d="M184.533 105.987L233.5 105.987L233.5 92.0001L255.5 109L233.5 126L233.5 113.003L184 113.003" stroke="#005573" stroke-width="2.3386"/>
<line x1="171.179" y1="85.5237" x2="171.179" y2="92.5395" stroke="#005573" stroke-width="2.3386"/>
<rect x="154.3" y="76.1693" width="30.4017" height="8.18509" rx="1.1693" stroke="#005573" stroke-width="2.3386"/>
<circle cx="167.539" cy="108.539" r="16.5395" stroke="#005573" stroke-width="2"/>
<path d="M96.5 105.986H152" stroke="#005573" stroke-width="2.3386"/>
<path d="M98.5 113.002H152.226" stroke="#005573" stroke-width="2.3386"/>
<path d="M165.409 85.5237V92.5395" stroke="#005573" stroke-width="2.3386"/>
<path d="M521.5 97.9863L590.5 97.9863L590.5 83.9999L612.5 101L590.5 118L590.5 105.002L522.5 105.002" stroke="#005573" stroke-width="2.3386"/>
<path d="M510.169 77L510.169 85.5" stroke="#005573" stroke-width="2.3386"/>
<rect x="491.169" y="68.1693" width="30.4017" height="8.18509" rx="1.1693" stroke="#005573" stroke-width="2.3386"/>
<circle cx="505.539" cy="101.539" r="16.5395" stroke="#005573" stroke-width="2"/>
<circle cx="555.539" cy="290.539" r="16.5395" stroke="#005573" stroke-width="2"/>
<path d="M422 98H489" stroke="#005573" stroke-width="2.3386"/>
<path d="M422 105H488.807" stroke="#005573" stroke-width="2.3386"/>
<path d="M502 77V85.5" stroke="#005573" stroke-width="2.3386"/>
<path d="M309.28 7.96C309.26 9.9 300.72 13.22 300.72 13.22L300.86 10.68C300.9 9.88 301.02 8.2 301.02 8.2C301.68 8.16 302.36 8.1 302.9 7.98C303.32 7.88 305.84 7.54 307.6 7.54C308.56 7.54 309.28 7.64 309.28 7.96ZM310.72 7.74C310.72 7.52 310.64 7.3 310.5 7.1C310.2 6.7 309.12 6.56 307.8 6.56C305.3 6.56 301.94 7.04 301.36 7.04C300.84 6.98 300.88 6.68 300.38 6.68C299.98 6.68 299.62 7.16 299.62 7.56C299.62 7.62 299.64 7.7 299.66 7.76C299.74 7.98 299.78 8.48 299.78 9.06C299.78 9.64 299.74 10.32 299.72 10.84C299.66 11.9 299.46 14.3 299.46 14.3C299.34 14.46 299.34 14.6 299.34 14.7C299.34 14.82 299.46 15.08 299.46 15.08C299.32 17.5 299.36 18.7 299.26 19.84C299.24 20.04 299.22 20.24 299.22 20.42C299.22 20.82 299.42 21.12 299.8 21.12C300.12 21.12 300.5 20.9 300.5 20.22C300.5 20.08 300.48 19.9 300.44 19.7C300.4 19.52 300.38 19.18 300.38 18.74C300.38 17.18 300.58 14.5 300.58 14.5C303 13.48 310.72 10.06 310.72 7.74ZM310.104 14C311.204 14 311.684 15.28 311.684 16.16C311.684 16.86 311.444 17.56 311.104 18.22C310.724 18.94 309.464 20.04 308.544 20.04C307.624 20.04 307.244 18.74 307.244 18.02C307.244 17.74 307.284 17.46 307.364 17.24C308.384 14.22 309.944 14 310.104 14ZM312.684 16.4C312.684 16.18 312.664 15.98 312.644 15.74C312.424 13.56 310.744 12.86 309.944 12.86C308.784 12.86 307.624 13.92 306.504 16.46C306.264 17 306.164 17.52 306.164 18.04C306.164 19.36 306.904 21.08 308.324 21.08C310.004 21.08 312.684 19.26 312.684 16.4ZM318.525 16.08C318.525 16.16 318.525 16.2 318.505 16.3C318.025 18.48 314.925 20 314.925 20C314.925 20 315.225 17.5 315.405 16.32C315.585 15.16 315.905 13.6 315.905 13.6C317.065 13.68 318.525 15.1 318.525 16.08ZM319.605 16.24C319.605 13.9 316.885 12.52 315.485 12.5C315.185 12.5 314.065 12.78 314.065 13.38C314.065 13.84 314.565 13.98 314.565 13.98C314.085 17.6 313.825 19.02 313.645 23.18C313.625 23.82 313.605 24.4 313.605 24.92C313.605 26.74 313.725 27.86 313.725 28.3C313.725 28.42 313.725 28.48 313.705 28.5C313.645 28.6 313.625 28.72 313.625 28.86C313.625 29.26 313.905 29.7 314.325 29.7C314.585 29.7 314.805 29.46 314.805 29.12C314.805 29 314.765 28.88 314.705 28.74C314.665 28.64 314.605 27.74 314.605 26.3V24.98C314.605 22.24 314.885 20.46 314.885 20.46C314.945 20.68 315.265 20.98 315.565 20.98C315.965 20.98 319.605 18 319.605 16.24ZM326.148 13.9C326.148 13.9 326.108 13.1 325.588 13.1C324.968 13.1 324.948 13.54 324.948 13.82C324.928 14.34 324.588 17.58 323.588 19.34C323.448 19.58 323.308 19.68 323.188 19.68C322.508 19.68 321.808 17.14 321.808 13.94C321.808 13.68 321.828 13.42 321.828 13.14C321.828 12.88 321.668 12.38 321.228 12.38H321.128C320.908 12.38 320.728 12.54 320.728 13.02C320.748 13.76 320.808 20.92 323.168 20.92C323.348 20.92 323.568 20.86 323.788 20.76C324.988 20.2 326.148 14.28 326.148 13.9ZM330.123 7.28C330.123 7 330.063 6.86 329.963 6.74C329.763 6.52 329.603 6.44 329.463 6.44C329.283 6.44 329.163 6.56 329.023 6.68C328.763 6.9 328.703 8.62 328.463 11.22C328.223 13.66 327.803 17.96 327.803 20.34C327.803 21.24 327.883 21.88 328.043 21.98C328.223 22.12 328.383 22.16 328.523 22.16C328.923 22.16 329.003 21.58 329.003 21.14C329.003 20.46 328.943 19.74 328.943 19.1C328.943 17.5 329.043 15.58 329.283 13.7C329.783 9.5 330.123 7.98 330.123 7.28ZM334.979 19.3C334.979 19.3 333.639 20.42 332.659 20.42C332.159 20.42 331.979 20.14 331.979 19.7C331.979 18.7 332.819 17.62 333.819 17.62C334.479 17.62 334.979 19.3 334.979 19.3ZM336.979 16.66C336.979 15.1 336.579 13.5 335.199 12.64C334.879 12.44 334.499 12.36 334.079 12.36C332.919 12.36 331.619 13.04 331.619 13.72C331.639 14.08 331.979 14.22 332.199 14.22C332.299 14.22 332.359 14.2 332.359 14.12C332.399 13.84 333.179 13.3 333.979 13.3C335.559 13.3 335.979 15.54 335.979 16.7C335.979 17.78 335.659 18.52 335.659 18.52C335.359 17.6 334.859 16.62 333.759 16.62C332.219 16.62 331.039 18.44 331.039 19.78C331.039 20.74 331.619 21.36 332.619 21.36C333.859 21.36 335.279 20.36 335.279 20.36C335.279 20.36 335.339 20.7 335.459 20.82C335.559 20.94 335.739 20.98 335.879 20.98C335.979 20.98 336.079 20.96 336.119 20.9C336.219 20.84 336.979 18.78 336.979 16.66ZM348.052 6.94C348.052 6.62 347.832 6.38 347.552 6.38C347.032 6.38 347.192 6.84 346.772 7.7C346.532 8.22 346.432 8.68 346.432 9.04C346.432 9.32 346.492 9.72 346.792 9.72C346.932 9.72 347.052 9.62 347.152 9.52C347.352 9.32 347.212 9 347.512 8.26C347.772 7.62 348.032 7.28 348.052 7.02V6.94ZM346.752 12.88C346.312 13.14 346.372 14.14 346.312 15.1C346.212 17.02 346.112 18.46 346.112 19.42C346.112 20.14 346.172 20.58 346.352 20.72C346.512 20.84 346.692 20.9 346.832 20.9C347.232 20.9 347.372 20.58 347.372 20.24C347.372 19.88 347.132 19.84 347.132 18.94V18.56C347.132 17.78 347.612 14.26 347.612 13.58C347.612 13.16 347.372 12.86 347.072 12.82C347.172 12.78 347.232 12.68 347.232 12.52C347.192 12.02 346.552 12.02 346.052 11.98C345.872 11.96 345.332 11.94 345.152 11.94C343.732 11.94 342.532 12.2 342.532 12.2C342.712 10.9 342.832 10.58 342.952 9.38C342.992 8.96 343.012 8.6 343.012 8.3C343.012 7.24 342.772 6.86 342.392 6.86C342.012 6.86 341.932 7.22 341.932 7.64C341.932 7.92 341.972 8.2 341.972 8.42V8.54C341.772 10.74 341.492 12.38 341.492 12.38C340.292 12.7 340.032 12.8 338.892 13.24C337.792 13.66 337.752 13.82 337.652 14.12C337.632 14.16 337.632 14.2 337.632 14.24C337.632 14.52 337.912 14.74 338.252 14.82C338.612 14.82 339.292 14.2 339.632 14.04C340.352 13.7 341.332 13.48 341.332 13.48C341.232 14.34 341.152 14.74 341.012 16.16C340.792 18.2 340.792 19.44 340.792 20.34C340.792 20.66 340.892 21.4 341.492 21.44H341.572C341.952 21.44 342.052 21.22 342.052 20.96C342.052 20.72 341.952 20.44 341.952 20.36C341.932 20.06 341.932 19.72 341.932 19.38C341.932 16.72 342.352 13.5 342.372 13.26C343.092 13.1 344.472 12.82 346.072 12.82C346.232 12.82 346.512 12.88 346.752 12.88ZM352.962 14C354.062 14 354.542 15.28 354.542 16.16C354.542 16.86 354.302 17.56 353.962 18.22C353.582 18.94 352.322 20.04 351.402 20.04C350.482 20.04 350.102 18.74 350.102 18.02C350.102 17.74 350.142 17.46 350.222 17.24C351.242 14.22 352.802 14 352.962 14ZM355.542 16.4C355.542 16.18 355.522 15.98 355.502 15.74C355.282 13.56 353.602 12.86 352.802 12.86C351.642 12.86 350.482 13.92 349.362 16.46C349.122 17 349.022 17.52 349.022 18.04C349.022 19.36 349.762 21.08 351.182 21.08C352.862 21.08 355.542 19.26 355.542 16.4ZM363.117 21.5C363.117 21.18 362.917 20.8 362.777 20.52C362.737 20.38 362.717 20.02 362.717 19.22V16.92C362.717 14.32 362.617 12.46 361.677 12.26H361.597C360.357 12.26 358.237 16.86 358.237 16.86C358.217 16.7 358.217 16.58 358.217 16.48C358.217 16.22 358.257 15.98 358.257 15.4C358.257 14.24 358.457 13.48 358.457 13.04C358.457 12.88 358.437 12.78 358.377 12.7C358.257 12.54 357.997 12.38 357.737 12.38C357.537 12.38 357.357 12.5 357.297 12.84C357.257 13.12 357.077 14.56 357.037 16.44C356.997 18.6 356.877 19.76 356.877 20.4C356.877 20.72 356.917 20.92 356.997 21.06C357.137 21.24 357.297 21.3 357.437 21.3C357.577 21.3 357.717 21.24 357.817 21.2C358.057 21.02 358.037 20.5 358.637 18.88C359.537 16.44 361.017 13.68 361.377 13.68C361.617 13.68 361.637 15.3 361.637 15.54L361.617 17.48C361.617 19.28 361.817 20.22 361.817 20.64C361.817 20.84 361.757 20.96 361.757 21.1C361.757 21.64 362.257 22 362.657 22C362.957 22 363.117 21.74 363.117 21.5Z" fill="#005573"/>
<path d="M256.5 191.498L256.5 190.498L256.5 191.498ZM176 124L173.485 135.27L184.503 131.813L176 124ZM330 129C329.041 128.717 329.041 128.717 329.041 128.717C329.041 128.717 329.041 128.718 329.04 128.718C329.04 128.72 329.039 128.722 329.038 128.725C329.036 128.732 329.033 128.742 329.029 128.756C329.021 128.784 329.008 128.827 328.99 128.884C328.955 128.998 328.901 129.169 328.828 129.393C328.683 129.842 328.461 130.504 328.159 131.348C327.554 133.038 326.627 135.456 325.343 138.361C322.775 144.174 318.783 151.918 313.091 159.657C301.704 175.137 283.593 190.498 256.5 190.498L256.5 192.498C284.463 192.498 303.103 176.611 314.702 160.842C320.503 152.956 324.563 145.076 327.173 139.17C328.478 136.215 329.423 133.751 330.041 132.023C330.351 131.158 330.579 130.477 330.731 130.011C330.806 129.777 330.863 129.597 330.901 129.475C330.92 129.414 330.934 129.367 330.944 129.334C330.949 129.318 330.952 129.306 330.955 129.297C330.956 129.293 330.957 129.29 330.958 129.287C330.958 129.286 330.958 129.285 330.959 129.285C330.959 129.284 330.959 129.283 330 129ZM256.5 190.498C206.683 190.498 186.294 150.342 179.633 132.241L177.756 132.932C184.476 151.193 205.332 192.498 256.5 192.498L256.5 190.498Z" fill="#009696"/>
<circle cx="43.5" cy="228.5" r="17.5" stroke="#005573" stroke-width="2"/>
<path d="M154.5 121L143.309 123.843L151.367 132.114L154.5 121ZM57.6978 216.716L148.752 127.997L147.356 126.564L56.3021 215.284L57.6978 216.716Z" fill="#009696"/>
<path d="M59.5 238L66.3581 247.29L70.9742 236.706L59.5 238ZM333.9 356.583L68.1493 240.681L67.3498 242.515L333.1 358.417L333.9 356.583Z" fill="#009696"/>
<path d="M348 347L353.356 336.77L341.819 337.247L348 347ZM338.001 129.041L346.63 338.049L348.628 337.966L339.999 128.959L338.001 129.041Z" fill="#009696"/>
<path d="M304 448.999L303.059 448.66L304 448.999ZM339 378.499L329.021 384.307L339.041 390.046L339 378.499ZM286.5 519C287.483 519.181 287.483 519.181 287.483 519.181C287.484 519.181 287.484 519.18 287.484 519.18C287.484 519.178 287.484 519.176 287.485 519.174C287.486 519.169 287.487 519.161 287.489 519.15C287.493 519.129 287.499 519.098 287.507 519.056C287.522 518.973 287.545 518.849 287.576 518.685C287.638 518.359 287.729 517.876 287.849 517.251C288.088 516.003 288.441 514.189 288.894 511.931C289.799 507.414 291.104 501.12 292.702 494.011C295.901 479.781 300.265 462.332 304.941 449.337L303.059 448.66C298.339 461.778 293.953 479.33 290.751 493.572C289.149 500.7 287.84 507.009 286.933 511.538C286.479 513.802 286.125 515.621 285.884 516.875C285.764 517.501 285.672 517.987 285.611 518.316C285.58 518.48 285.556 518.606 285.54 518.69C285.533 518.732 285.527 518.764 285.523 518.786C285.521 518.796 285.519 518.804 285.518 518.81C285.518 518.813 285.517 518.815 285.517 518.816C285.517 518.817 285.517 518.817 285.517 518.818C285.517 518.818 285.517 518.818 286.5 519ZM304.941 449.337C312.392 428.629 327.771 400.338 335.4 386.798L333.658 385.816C326.035 399.344 310.575 427.773 303.059 448.66L304.941 449.337Z" fill="#009696"/>
<path d="M442.5 305L442.847 305.938L442.5 305ZM538 289L527.616 283.949L528.434 295.467L538 289ZM362 353C362.605 353.796 362.606 353.796 362.606 353.796C362.606 353.796 362.607 353.795 362.607 353.795C362.609 353.794 362.611 353.792 362.613 353.79C362.619 353.786 362.627 353.78 362.638 353.771C362.66 353.754 362.694 353.729 362.738 353.696C362.827 353.629 362.959 353.529 363.133 353.398C363.482 353.136 363.998 352.75 364.667 352.254C366.006 351.261 367.957 349.829 370.404 348.071C375.3 344.554 382.179 339.734 390.113 334.525C405.999 324.094 426.045 312.148 442.847 305.938L442.153 304.062C425.126 310.356 404.921 322.41 389.015 332.853C381.053 338.081 374.15 342.917 369.237 346.446C366.781 348.211 364.822 349.649 363.476 350.647C362.803 351.146 362.283 351.535 361.932 351.799C361.756 351.931 361.622 352.032 361.532 352.1C361.487 352.134 361.453 352.16 361.43 352.178C361.418 352.186 361.41 352.193 361.404 352.197C361.401 352.199 361.399 352.201 361.397 352.202C361.396 352.203 361.396 352.203 361.395 352.204C361.395 352.204 361.395 352.204 362 353ZM442.847 305.938C468.753 296.363 510.77 292.104 529.105 290.634L528.945 288.64C510.646 290.108 468.358 294.377 442.153 304.062L442.847 305.938Z" fill="#009696"/>
<path d="M512 118.5L508.765 129.585L519.982 126.844L512 118.5ZM550.971 273.763L515.108 127.005L513.165 127.48L549.029 274.237L550.971 273.763Z" fill="#009696"/>
<path d="M441.5 149.5L441.616 150.493L441.5 149.5ZM491.5 112.5L480.632 116.403L489.446 123.863L491.5 112.5ZM385 129C384.433 129.824 384.434 129.824 384.434 129.824C384.434 129.825 384.435 129.825 384.435 129.825C384.437 129.826 384.438 129.827 384.441 129.829C384.445 129.832 384.452 129.836 384.46 129.842C384.477 129.854 384.502 129.871 384.535 129.894C384.602 129.939 384.699 130.005 384.827 130.09C385.083 130.262 385.46 130.512 385.946 130.829C386.92 131.462 388.334 132.362 390.101 133.434C393.634 135.576 398.586 138.405 404.258 141.151C415.543 146.616 429.897 151.865 441.616 150.493L441.384 148.507C430.285 149.806 416.39 144.804 405.129 139.351C399.528 136.639 394.633 133.842 391.138 131.724C389.391 130.664 387.995 129.775 387.037 129.152C386.558 128.841 386.189 128.596 385.941 128.429C385.816 128.346 385.722 128.282 385.659 128.239C385.628 128.218 385.604 128.202 385.589 128.191C385.581 128.186 385.575 128.182 385.572 128.18C385.57 128.178 385.569 128.177 385.568 128.177C385.567 128.176 385.567 128.176 385.567 128.176C385.567 128.176 385.567 128.176 385 129ZM441.616 150.493C450.281 149.479 459.229 144.348 467.083 138.296C474.962 132.226 481.859 125.135 486.43 120.037L484.941 118.702C480.412 123.753 473.607 130.745 465.863 136.712C458.095 142.697 449.501 147.556 441.384 148.507L441.616 150.493Z" fill="#009696"/>
<rect x="257" y="28" width="164" height="101" stroke="#005573" stroke-width="2"/>
<path d="M9.42 255.08C9.42 255.48 8.42 256.54 5.92 258.2C4.64 259.04 2.48 260.14 2.48 260.14C2.48 260.14 2.44 259.54 2.44 258.8C2.44 257.96 2.5 256.92 2.72 256.58C3.14 255.94 7.22 254.84 8.8 254.84C9.04 254.84 9.42 254.84 9.42 255.08ZM12.5 262.82C12.5 260.04 7.76 259.7 5.8 259.7C5.66 259.7 5.58 259.7 5.58 259.7C6.72 258.9 7.68 258.4 9.6 256.56C9.96 256.22 10.58 255.38 10.58 254.68C10.58 253.86 9.44 253.86 8.92 253.86C6.52 253.86 2.66 255.1 2.66 255.1C2.62 254.94 2.54 254.66 2.18 254.66C1.66 254.66 1.4 255.16 1.4 255.56C1 255.86 0.72 256.06 0.72 256.58V256.66C0.74 257.2 1.46 257.22 1.46 257.22C1.44 257.7 1.4 260.36 1.4 261.46C1.4 262.5 1.46 263.56 1.46 264.58C1.46 264.86 1.46 265.08 1.44 265.16C1.4 265.4 1.4 265.6 1.4 265.78C1.4 266.32 1.52 266.64 1.58 266.92C1.62 267.14 2.1 267.3 2.48 267.3C2.72 267.3 2.9 267.24 2.94 267.12C3 266.88 3.04 266.72 3.04 266.56C3.04 266.3 2.96 266.08 2.82 265.52C2.66 264.84 2.58 264.88 2.56 262.64C2.56 262 2.56 261.46 2.56 261.46C3.4 261.06 5.14 260.76 5.94 260.76C9.3 260.76 11.36 261.74 11.36 262.72C11.36 264.74 8.66 266.9 7.24 267.36C6.96 267.46 5.84 267.56 5.6 267.6C5.26 267.66 4.8 268 4.8 268.44C4.8 268.88 5.12 269.16 5.56 269.16C5.74 269.16 5.9 269.12 5.98 269.06C6.22 268.9 7.28 268.68 9.06 267.58C10.32 266.82 12.48 264.58 12.5 262.82ZM15.7863 260.58C15.7863 260.12 15.5063 259.82 15.1663 259.82C14.4663 259.86 14.5463 261 14.4863 262.1C14.3863 264.02 14.2863 265.46 14.2863 266.42C14.2863 267.14 14.3463 267.58 14.5263 267.72C14.6863 267.84 14.8663 267.9 15.0063 267.9C15.4063 267.9 15.5463 267.58 15.5463 267.24C15.5463 266.88 15.3063 266.84 15.3063 265.94V265.56C15.3063 264.78 15.7863 261.26 15.7863 260.58ZM15.8263 253.94C15.8263 253.62 15.6063 253.38 15.3263 253.38C14.8063 253.38 14.9663 253.84 14.5463 254.7C14.3063 255.22 14.2063 255.68 14.2063 256.04C14.2063 256.32 14.2663 256.72 14.5663 256.72C14.7063 256.72 14.8263 256.64 14.9263 256.54C15.1263 256.34 14.9863 256 15.2863 255.26C15.5463 254.62 15.8063 254.28 15.8263 254.02V253.94ZM25.9341 260.04C25.9341 259.8 25.7741 259.56 25.6541 259.52C25.3141 259.4 25.0141 259.36 24.7341 259.36C23.5341 259.36 22.7141 260.28 21.9741 260.98C20.6941 262.16 19.3141 264 19.3141 264C19.3141 262.66 19.3141 262.28 19.2941 261.58C19.2541 260.36 19.1941 259.9 18.8941 259.62C18.7341 259.48 18.5941 259.42 18.4541 259.42C18.2541 259.42 17.8541 259.66 17.8541 259.88C17.8541 260.12 18.2941 260.54 18.2941 263.04C18.2941 263.44 18.2741 263.88 18.2541 264.4C18.1741 265.94 17.9341 266.96 17.9341 267.56C17.9341 267.82 17.9741 268 18.0941 268.12C18.2341 268.26 18.4341 268.36 18.6341 268.36C18.7941 268.36 18.9541 268.3 19.0741 268.14C19.3341 267.8 19.0741 266.26 19.8141 265.14C21.2541 262.96 22.7741 261.26 24.0341 260.52C24.2341 260.4 24.4141 260.36 24.5541 260.36C24.8741 260.36 25.0941 260.54 25.3541 260.54C25.6541 260.54 25.9341 260.3 25.9341 260.04ZM34.5811 259.52C34.5411 258.96 33.8211 258.98 33.4011 258.96C33.2211 258.96 33.0411 258.94 32.8611 258.94C31.4411 258.94 30.2411 259.2 30.2411 259.2C30.4211 257.9 30.5411 257.58 30.6611 256.38C30.7011 255.96 30.7211 255.6 30.7211 255.3C30.7211 254.24 30.4811 253.86 30.1011 253.86C29.7211 253.86 29.6411 254.22 29.6411 254.64C29.6411 254.92 29.6811 255.2 29.6811 255.54C29.6811 256.22 29.2011 259.38 29.2011 259.38C28.0011 259.7 27.7411 259.8 26.6011 260.24C25.5011 260.66 25.4611 260.8 25.3611 261.1C25.3411 261.16 25.3411 261.2 25.3411 261.24C25.3411 261.52 25.7411 261.82 25.9611 261.82C26.3211 261.82 27.0011 261.2 27.3411 261.04C28.0611 260.7 29.0411 260.48 29.0411 260.48C28.9411 261.34 28.8611 261.74 28.7211 263.16C28.5011 265.2 28.5011 266.44 28.5011 267.34C28.5011 267.66 28.6011 268.4 29.2011 268.44H29.2811C29.6611 268.44 29.7611 268.22 29.7611 267.96C29.7611 267.72 29.6611 267.44 29.6611 267.36C29.6411 267.06 29.6411 266.72 29.6411 266.38C29.6411 263.72 30.0611 260.5 30.0811 260.26C30.8011 260.1 32.1811 259.82 33.4211 259.82C33.5811 259.82 33.8611 259.88 34.1011 259.88C34.3611 259.88 34.5811 259.82 34.5811 259.52ZM42.2808 264.68C42.2808 262.66 42.0408 260.52 40.9608 260.14C40.7808 260.08 40.6008 260.06 40.4208 260.06C38.3408 260.06 35.6408 263.58 35.6408 263.58C35.7208 261.76 35.8608 260.1 36.0208 258.44C36.1608 256.88 36.4608 255.84 36.4608 255.22C36.4608 254.76 36.2808 254.5 35.7608 254.5C35.0608 254.5 35.2408 256.22 34.8808 259.52C34.3408 264.46 34.5808 266.9 34.3608 267.36C34.2408 267.62 34.1008 267.92 34.1008 268.2C34.1008 268.62 34.4208 268.86 34.7808 268.86C35.1408 268.86 35.5408 268.64 35.5408 267.9C35.5408 267.66 35.5008 267.44 35.5008 267.22C35.5008 266.68 35.5808 265.74 36.0208 264.8C36.5808 263.6 39.0808 261.16 40.2808 261.16C40.4008 261.16 40.5208 261.18 40.6008 261.24C41.0408 261.52 41.1808 263.28 41.1808 264.78C41.1808 265.86 41.1008 266.54 41.1008 267.1C41.1008 267.62 41.2408 268.04 41.7208 268.04C42.1808 268.04 42.2608 267.86 42.2608 267.58C42.2608 267.38 42.2208 267.1 42.2208 266.78C42.2208 266.2 42.2808 265.36 42.2808 264.68ZM60.3534 255.7C60.3534 257.04 56.7534 258.72 54.8734 259.5C54.0734 259.84 53.2534 260 53.2534 260C53.2534 260 53.4334 258.64 53.5934 257.88C53.7134 257.28 53.7734 256.7 53.7934 256.32C53.8534 256.5 53.9934 256.58 54.1134 256.58C54.1934 256.58 54.2534 256.54 54.3134 256.5C54.8534 256.02 57.6534 255.22 59.2534 255.22C59.8934 255.22 60.3534 255.36 60.3534 255.7ZM65.2134 267.46C65.2134 266.9 64.5934 266.64 64.2734 266.6C63.6934 266.52 60.3934 265.4 56.1134 262.6C55.1334 261.96 54.0734 260.94 54.0734 260.94C58.6134 259.16 61.5334 257.28 61.5334 255.66V255.56C61.4334 254.42 60.5534 254.04 59.4134 254.04C57.1134 254.04 53.7734 255.6 53.7734 255.6C53.6734 255.26 53.4934 254.98 53.1134 254.98C52.5134 254.98 52.2334 255.44 52.2334 255.92C52.2334 256.18 52.2734 256.44 52.3134 256.68V256.96C52.3134 257.9 52.0934 260.24 52.0934 260.24L51.8934 260.3L52.0734 260.66C51.9534 263.2 51.5934 266.4 51.5934 267.74C51.5934 268.06 51.6134 268.28 51.6734 268.34C51.8134 268.5 52.0134 268.58 52.2334 268.58C52.6734 268.58 53.0134 268.24 53.0134 267.84C53.0134 267.44 52.7534 267 52.7534 266.58C52.8134 264.48 53.0734 261.52 53.0734 261.52C54.0734 262.34 54.5134 262.82 56.1134 263.86C60.3134 266.6 63.5734 267.52 63.7334 267.72C63.8734 267.9 64.2734 268.04 64.5934 268.04C64.9934 268.04 65.2134 267.84 65.2134 267.46ZM68.0555 266.3C68.0555 266.3 66.7155 267.42 65.7355 267.42C65.2355 267.42 65.0555 267.14 65.0555 266.7C65.0555 265.7 65.8955 264.62 66.8955 264.62C67.5555 264.62 68.0555 266.3 68.0555 266.3ZM70.0555 263.66C70.0555 262.1 69.6555 260.5 68.2755 259.64C67.9555 259.44 67.5755 259.36 67.1555 259.36C65.9955 259.36 64.6955 260.04 64.6955 260.72C64.7155 261.08 65.0555 261.22 65.2755 261.22C65.3755 261.22 65.4355 261.2 65.4355 261.12C65.4755 260.84 66.2555 260.3 67.0555 260.3C68.6355 260.3 69.0555 262.54 69.0555 263.7C69.0555 264.78 68.7355 265.52 68.7355 265.52C68.4355 264.6 67.9355 263.62 66.8355 263.62C65.2955 263.62 64.1155 265.44 64.1155 266.78C64.1155 267.74 64.6955 268.36 65.6955 268.36C66.9355 268.36 68.3555 267.36 68.3555 267.36C68.3555 267.36 68.4155 267.7 68.5355 267.82C68.6355 267.94 68.8155 267.98 68.9555 267.98C69.0555 267.98 69.1555 267.96 69.1955 267.9C69.2955 267.84 70.0555 265.78 70.0555 263.66ZM79.9483 259.52C79.9083 258.96 79.1883 258.98 78.7683 258.96C78.5883 258.96 78.4083 258.94 78.2283 258.94C76.8083 258.94 75.6083 259.2 75.6083 259.2C75.7883 257.9 75.9083 257.58 76.0283 256.38C76.0683 255.96 76.0883 255.6 76.0883 255.3C76.0883 254.24 75.8483 253.86 75.4683 253.86C75.0883 253.86 75.0083 254.22 75.0083 254.64C75.0083 254.92 75.0483 255.2 75.0483 255.54C75.0483 256.22 74.5683 259.38 74.5683 259.38C73.3683 259.7 73.1083 259.8 71.9683 260.24C70.8683 260.66 70.8283 260.8 70.7283 261.1C70.7083 261.16 70.7083 261.2 70.7083 261.24C70.7083 261.52 71.1083 261.82 71.3283 261.82C71.6883 261.82 72.3683 261.2 72.7083 261.04C73.4283 260.7 74.4083 260.48 74.4083 260.48C74.3083 261.34 74.2283 261.74 74.0883 263.16C73.8683 265.2 73.8683 266.44 73.8683 267.34C73.8683 267.66 73.9683 268.4 74.5683 268.44H74.6483C75.0283 268.44 75.1283 268.22 75.1283 267.96C75.1283 267.72 75.0283 267.44 75.0283 267.36C75.0083 267.06 75.0083 266.72 75.0083 266.38C75.0083 263.72 75.4283 260.5 75.4483 260.26C76.1683 260.1 77.5483 259.82 78.7883 259.82C78.9483 259.82 79.2283 259.88 79.4683 259.88C79.7283 259.88 79.9483 259.82 79.9483 259.52ZM83.5766 260.7C82.9566 261.26 82.6166 261.48 82.0966 261.78C80.8566 262.54 79.7366 262.6 79.7366 262.6C79.7366 262.6 80.3566 261.78 81.3766 261.26C82.0966 260.88 82.8366 260.7 83.5766 260.7ZM87.5166 264.16C87.5166 263.82 87.2166 263.52 86.9166 263.52C86.5766 263.52 86.3566 264.04 86.2366 264.26C86.0366 264.54 82.9366 267.08 81.3566 267.08C80.4766 267.08 80.0966 266.6 79.7366 266.02C79.2966 265.34 79.1966 264.72 79.1966 264.3C79.1966 263.94 79.2566 263.72 79.2566 263.72C79.8166 263.68 81.0366 263.56 82.2766 262.8C83.4166 262.12 85.1166 260.84 85.1166 260.34C85.1166 260.28 85.0966 260.24 85.0366 260.2C84.5566 259.88 83.9766 259.74 83.3166 259.74C81.2166 259.74 78.6366 261.28 78.1166 263.54C78.0566 263.78 78.0366 264.02 78.0366 264.26C78.0366 265.74 78.9566 267.32 80.2566 267.92C80.5166 268.04 80.8166 268.1 81.1366 268.1C83.3966 268.1 86.6166 265.16 87.0566 264.92C87.3166 264.74 87.5166 264.44 87.5166 264.16Z" fill="#005573"/>
<path d="M143.42 145.08C143.42 145.48 142.42 146.54 139.92 148.2C138.64 149.04 136.48 150.14 136.48 150.14C136.48 150.14 136.44 149.54 136.44 148.8C136.44 147.96 136.5 146.92 136.72 146.58C137.14 145.94 141.22 144.84 142.8 144.84C143.04 144.84 143.42 144.84 143.42 145.08ZM146.5 152.82C146.5 150.04 141.76 149.7 139.8 149.7C139.66 149.7 139.58 149.7 139.58 149.7C140.72 148.9 141.68 148.4 143.6 146.56C143.96 146.22 144.58 145.38 144.58 144.68C144.58 143.86 143.44 143.86 142.92 143.86C140.52 143.86 136.66 145.1 136.66 145.1C136.62 144.94 136.54 144.66 136.18 144.66C135.66 144.66 135.4 145.16 135.4 145.56C135 145.86 134.72 146.06 134.72 146.58V146.66C134.74 147.2 135.46 147.22 135.46 147.22C135.44 147.7 135.4 150.36 135.4 151.46C135.4 152.5 135.46 153.56 135.46 154.58C135.46 154.86 135.46 155.08 135.44 155.16C135.4 155.4 135.4 155.6 135.4 155.78C135.4 156.32 135.52 156.64 135.58 156.92C135.62 157.14 136.1 157.3 136.48 157.3C136.72 157.3 136.9 157.24 136.94 157.12C137 156.88 137.04 156.72 137.04 156.56C137.04 156.3 136.96 156.08 136.82 155.52C136.66 154.84 136.58 154.88 136.56 152.64C136.56 152 136.56 151.46 136.56 151.46C137.4 151.06 139.14 150.76 139.94 150.76C143.3 150.76 145.36 151.74 145.36 152.72C145.36 154.74 142.66 156.9 141.24 157.36C140.96 157.46 139.84 157.56 139.6 157.6C139.26 157.66 138.8 158 138.8 158.44C138.8 158.88 139.12 159.16 139.56 159.16C139.74 159.16 139.9 159.12 139.98 159.06C140.22 158.9 141.28 158.68 143.06 157.58C144.32 156.82 146.48 154.58 146.5 152.82ZM149.786 150.58C149.786 150.12 149.506 149.82 149.166 149.82C148.466 149.86 148.546 151 148.486 152.1C148.386 154.02 148.286 155.46 148.286 156.42C148.286 157.14 148.346 157.58 148.526 157.72C148.686 157.84 148.866 157.9 149.006 157.9C149.406 157.9 149.546 157.58 149.546 157.24C149.546 156.88 149.306 156.84 149.306 155.94V155.56C149.306 154.78 149.786 151.26 149.786 150.58ZM149.826 143.94C149.826 143.62 149.606 143.38 149.326 143.38C148.806 143.38 148.966 143.84 148.546 144.7C148.306 145.22 148.206 145.68 148.206 146.04C148.206 146.32 148.266 146.72 148.566 146.72C148.706 146.72 148.826 146.64 148.926 146.54C149.126 146.34 148.986 146 149.286 145.26C149.546 144.62 149.806 144.28 149.826 144.02V143.94ZM159.934 150.04C159.934 149.8 159.774 149.56 159.654 149.52C159.314 149.4 159.014 149.36 158.734 149.36C157.534 149.36 156.714 150.28 155.974 150.98C154.694 152.16 153.314 154 153.314 154C153.314 152.66 153.314 152.28 153.294 151.58C153.254 150.36 153.194 149.9 152.894 149.62C152.734 149.48 152.594 149.42 152.454 149.42C152.254 149.42 151.854 149.66 151.854 149.88C151.854 150.12 152.294 150.54 152.294 153.04C152.294 153.44 152.274 153.88 152.254 154.4C152.174 155.94 151.934 156.96 151.934 157.56C151.934 157.82 151.974 158 152.094 158.12C152.234 158.26 152.434 158.36 152.634 158.36C152.794 158.36 152.954 158.3 153.074 158.14C153.334 157.8 153.074 156.26 153.814 155.14C155.254 152.96 156.774 151.26 158.034 150.52C158.234 150.4 158.414 150.36 158.554 150.36C158.874 150.36 159.094 150.54 159.354 150.54C159.654 150.54 159.934 150.3 159.934 150.04ZM168.581 149.52C168.541 148.96 167.821 148.98 167.401 148.96C167.221 148.96 167.041 148.94 166.861 148.94C165.441 148.94 164.241 149.2 164.241 149.2C164.421 147.9 164.541 147.58 164.661 146.38C164.701 145.96 164.721 145.6 164.721 145.3C164.721 144.24 164.481 143.86 164.101 143.86C163.721 143.86 163.641 144.22 163.641 144.64C163.641 144.92 163.681 145.2 163.681 145.54C163.681 146.22 163.201 149.38 163.201 149.38C162.001 149.7 161.741 149.8 160.601 150.24C159.501 150.66 159.461 150.8 159.361 151.1C159.341 151.16 159.341 151.2 159.341 151.24C159.341 151.52 159.741 151.82 159.961 151.82C160.321 151.82 161.001 151.2 161.341 151.04C162.061 150.7 163.041 150.48 163.041 150.48C162.941 151.34 162.861 151.74 162.721 153.16C162.501 155.2 162.501 156.44 162.501 157.34C162.501 157.66 162.601 158.4 163.201 158.44H163.281C163.661 158.44 163.761 158.22 163.761 157.96C163.761 157.72 163.661 157.44 163.661 157.36C163.641 157.06 163.641 156.72 163.641 156.38C163.641 153.72 164.061 150.5 164.081 150.26C164.801 150.1 166.181 149.82 167.421 149.82C167.581 149.82 167.861 149.88 168.101 149.88C168.361 149.88 168.581 149.82 168.581 149.52ZM176.281 154.68C176.281 152.66 176.041 150.52 174.961 150.14C174.781 150.08 174.601 150.06 174.421 150.06C172.341 150.06 169.641 153.58 169.641 153.58C169.721 151.76 169.861 150.1 170.021 148.44C170.161 146.88 170.461 145.84 170.461 145.22C170.461 144.76 170.281 144.5 169.761 144.5C169.061 144.5 169.241 146.22 168.881 149.52C168.341 154.46 168.581 156.9 168.361 157.36C168.241 157.62 168.101 157.92 168.101 158.2C168.101 158.62 168.421 158.86 168.781 158.86C169.141 158.86 169.541 158.64 169.541 157.9C169.541 157.66 169.501 157.44 169.501 157.22C169.501 156.68 169.581 155.74 170.021 154.8C170.581 153.6 173.081 151.16 174.281 151.16C174.401 151.16 174.521 151.18 174.601 151.24C175.041 151.52 175.181 153.28 175.181 154.78C175.181 155.86 175.101 156.54 175.101 157.1C175.101 157.62 175.241 158.04 175.721 158.04C176.181 158.04 176.261 157.86 176.261 157.58C176.261 157.38 176.221 157.1 176.221 156.78C176.221 156.2 176.281 155.36 176.281 154.68ZM183.483 148.56V148.48C183.463 148.24 182.763 147.88 182.503 147.76C182.383 147.7 182.223 147.66 182.043 147.66C181.783 147.66 181.463 147.74 181.223 147.94C179.903 149.04 177.383 150.92 177.383 153.12C177.383 156.12 181.983 155.92 182.263 156.9C182.263 157.62 179.363 158.6 179.243 158.8C179.163 158.9 179.123 159 179.123 159.1C179.123 159.38 179.423 159.62 179.843 159.64C180.143 159.64 183.423 157.92 183.423 157.1C183.423 155.86 182.283 155.66 181.063 155.18C179.743 154.68 178.423 154.28 178.423 153.12C178.423 152.5 178.923 151.34 179.823 150.54C181.403 149.12 181.623 148.7 182.303 148.68C182.463 148.68 182.683 148.92 183.063 148.92C183.363 148.92 183.483 148.76 183.483 148.56Z" fill="#005573"/>
<path d="M480.38 141.78C480.38 142.14 480.26 142.5 480.12 142.78C478.64 145.98 471.24 149.9 471.24 149.9C471.24 149.9 470.88 148.1 470.88 146.12C470.88 145.92 470.9 145.7 470.9 145.5C470.98 143.32 471.18 141 471.52 138.18C471.52 138.18 471.92 138 473.34 137.98H473.42C476.24 137.98 480.38 139.5 480.38 141.78ZM481.58 141.7C481.56 139.08 477.4 136.98 473.02 136.98H472.72C470.9 137.02 468.84 137.48 468.14 137.92C467.96 138.04 467.88 138.18 467.88 138.34C467.88 138.68 468.26 139.02 468.6 139.02H468.68L470.18 138.5C470.18 138.5 469.9 142.6 469.82 144.4C469.8 144.66 469.8 144.94 469.8 145.26C469.8 147.34 470.04 150.28 470.04 150.28C469.96 150.54 469.86 150.82 469.86 151.1C469.86 151.36 469.94 151.62 470.08 151.76C470.1 151.78 470.12 151.78 470.14 151.78C470.18 151.78 470.22 151.76 470.26 151.76C470.4 151.76 470.44 151.94 470.58 151.94C471.38 151.9 471.46 151.54 471.46 151.28C471.46 151.1 471.52 151.06 471.52 151.06C475.04 148.94 481.58 145.22 481.58 141.7ZM486.02 143.7C485.4 144.26 485.06 144.48 484.54 144.78C483.3 145.54 482.18 145.6 482.18 145.6C482.18 145.6 482.8 144.78 483.82 144.26C484.54 143.88 485.28 143.7 486.02 143.7ZM489.96 147.16C489.96 146.82 489.66 146.52 489.36 146.52C489.02 146.52 488.8 147.04 488.68 147.26C488.48 147.54 485.38 150.08 483.8 150.08C482.92 150.08 482.54 149.6 482.18 149.02C481.74 148.34 481.64 147.72 481.64 147.3C481.64 146.94 481.7 146.72 481.7 146.72C482.26 146.68 483.48 146.56 484.72 145.8C485.86 145.12 487.56 143.84 487.56 143.34C487.56 143.28 487.54 143.24 487.48 143.2C487 142.88 486.42 142.74 485.76 142.74C483.66 142.74 481.08 144.28 480.56 146.54C480.5 146.78 480.48 147.02 480.48 147.26C480.48 148.74 481.4 150.32 482.7 150.92C482.96 151.04 483.26 151.1 483.58 151.1C485.84 151.1 489.06 148.16 489.5 147.92C489.76 147.74 489.96 147.44 489.96 147.16ZM494.497 149.3C494.497 149.3 493.157 150.42 492.177 150.42C491.677 150.42 491.497 150.14 491.497 149.7C491.497 148.7 492.337 147.62 493.337 147.62C493.997 147.62 494.497 149.3 494.497 149.3ZM496.497 146.66C496.497 145.1 496.097 143.5 494.717 142.64C494.397 142.44 494.017 142.36 493.597 142.36C492.437 142.36 491.137 143.04 491.137 143.72C491.157 144.08 491.497 144.22 491.717 144.22C491.817 144.22 491.877 144.2 491.877 144.12C491.917 143.84 492.697 143.3 493.497 143.3C495.077 143.3 495.497 145.54 495.497 146.7C495.497 147.78 495.177 148.52 495.177 148.52C494.877 147.6 494.377 146.62 493.277 146.62C491.737 146.62 490.557 148.44 490.557 149.78C490.557 150.74 491.137 151.36 492.137 151.36C493.377 151.36 494.797 150.36 494.797 150.36C494.797 150.36 494.857 150.7 494.977 150.82C495.077 150.94 495.257 150.98 495.397 150.98C495.497 150.98 495.597 150.96 495.637 150.9C495.737 150.84 496.497 148.78 496.497 146.66ZM506.39 142.52C506.35 141.96 505.63 141.98 505.21 141.96C505.03 141.96 504.85 141.94 504.67 141.94C503.25 141.94 502.05 142.2 502.05 142.2C502.23 140.9 502.35 140.58 502.47 139.38C502.51 138.96 502.53 138.6 502.53 138.3C502.53 137.24 502.29 136.86 501.91 136.86C501.53 136.86 501.45 137.22 501.45 137.64C501.45 137.92 501.49 138.2 501.49 138.54C501.49 139.22 501.01 142.38 501.01 142.38C499.81 142.7 499.55 142.8 498.41 143.24C497.31 143.66 497.27 143.8 497.17 144.1C497.15 144.16 497.15 144.2 497.15 144.24C497.15 144.52 497.55 144.82 497.77 144.82C498.13 144.82 498.81 144.2 499.15 144.04C499.87 143.7 500.85 143.48 500.85 143.48C500.75 144.34 500.67 144.74 500.53 146.16C500.31 148.2 500.31 149.44 500.31 150.34C500.31 150.66 500.41 151.4 501.01 151.44H501.09C501.47 151.44 501.57 151.22 501.57 150.96C501.57 150.72 501.47 150.44 501.47 150.36C501.45 150.06 501.45 149.72 501.45 149.38C501.45 146.72 501.87 143.5 501.89 143.26C502.61 143.1 503.99 142.82 505.23 142.82C505.39 142.82 505.67 142.88 505.91 142.88C506.17 142.88 506.39 142.82 506.39 142.52ZM514.089 147.68C514.089 145.66 513.849 143.52 512.769 143.14C512.589 143.08 512.409 143.06 512.229 143.06C510.149 143.06 507.449 146.58 507.449 146.58C507.529 144.76 507.669 143.1 507.829 141.44C507.969 139.88 508.269 138.84 508.269 138.22C508.269 137.76 508.089 137.5 507.569 137.5C506.869 137.5 507.049 139.22 506.689 142.52C506.149 147.46 506.389 149.9 506.169 150.36C506.049 150.62 505.909 150.92 505.909 151.2C505.909 151.62 506.229 151.86 506.589 151.86C506.949 151.86 507.349 151.64 507.349 150.9C507.349 150.66 507.309 150.44 507.309 150.22C507.309 149.68 507.389 148.74 507.829 147.8C508.389 146.6 510.889 144.16 512.089 144.16C512.209 144.16 512.329 144.18 512.409 144.24C512.849 144.52 512.989 146.28 512.989 147.78C512.989 148.86 512.909 149.54 512.909 150.1C512.909 150.62 513.049 151.04 513.529 151.04C513.989 151.04 514.069 150.86 514.069 150.58C514.069 150.38 514.029 150.1 514.029 149.78C514.029 149.2 514.089 148.36 514.089 147.68ZM521.292 141.56V141.48C521.272 141.24 520.572 140.88 520.312 140.76C520.192 140.7 520.032 140.66 519.852 140.66C519.592 140.66 519.272 140.74 519.032 140.94C517.712 142.04 515.192 143.92 515.192 146.12C515.192 149.12 519.792 148.92 520.072 149.9C520.072 150.62 517.172 151.6 517.052 151.8C516.972 151.9 516.932 152 516.932 152.1C516.932 152.38 517.232 152.62 517.652 152.64C517.952 152.64 521.232 150.92 521.232 150.1C521.232 148.86 520.092 148.66 518.872 148.18C517.552 147.68 516.232 147.28 516.232 146.12C516.232 145.5 516.732 144.34 517.632 143.54C519.212 142.12 519.432 141.7 520.112 141.68C520.272 141.68 520.492 141.92 520.872 141.92C521.172 141.92 521.292 141.76 521.292 141.56Z" fill="#005573"/>
<path d="M523.38 324.78C523.38 325.14 523.26 325.5 523.12 325.78C521.64 328.98 514.24 332.9 514.24 332.9C514.24 332.9 513.88 331.1 513.88 329.12C513.88 328.92 513.9 328.7 513.9 328.5C513.98 326.32 514.18 324 514.52 321.18C514.52 321.18 514.92 321 516.34 320.98H516.42C519.24 320.98 523.38 322.5 523.38 324.78ZM524.58 324.7C524.56 322.08 520.4 319.98 516.02 319.98H515.72C513.9 320.02 511.84 320.48 511.14 320.92C510.96 321.04 510.88 321.18 510.88 321.34C510.88 321.68 511.26 322.02 511.6 322.02H511.68L513.18 321.5C513.18 321.5 512.9 325.6 512.82 327.4C512.8 327.66 512.8 327.94 512.8 328.26C512.8 330.34 513.04 333.28 513.04 333.28C512.96 333.54 512.86 333.82 512.86 334.1C512.86 334.36 512.94 334.62 513.08 334.76C513.1 334.78 513.12 334.78 513.14 334.78C513.18 334.78 513.22 334.76 513.26 334.76C513.4 334.76 513.44 334.94 513.58 334.94C514.38 334.9 514.46 334.54 514.46 334.28C514.46 334.1 514.52 334.06 514.52 334.06C518.04 331.94 524.58 328.22 524.58 324.7ZM529.02 326.7C528.4 327.26 528.06 327.48 527.54 327.78C526.3 328.54 525.18 328.6 525.18 328.6C525.18 328.6 525.8 327.78 526.82 327.26C527.54 326.88 528.28 326.7 529.02 326.7ZM532.96 330.16C532.96 329.82 532.66 329.52 532.36 329.52C532.02 329.52 531.8 330.04 531.68 330.26C531.48 330.54 528.38 333.08 526.8 333.08C525.92 333.08 525.54 332.6 525.18 332.02C524.74 331.34 524.64 330.72 524.64 330.3C524.64 329.94 524.7 329.72 524.7 329.72C525.26 329.68 526.48 329.56 527.72 328.8C528.86 328.12 530.56 326.84 530.56 326.34C530.56 326.28 530.54 326.24 530.48 326.2C530 325.88 529.42 325.74 528.76 325.74C526.66 325.74 524.08 327.28 523.56 329.54C523.5 329.78 523.48 330.02 523.48 330.26C523.48 331.74 524.4 333.32 525.7 333.92C525.96 334.04 526.26 334.1 526.58 334.1C528.84 334.1 532.06 331.16 532.5 330.92C532.76 330.74 532.96 330.44 532.96 330.16ZM537.497 332.3C537.497 332.3 536.157 333.42 535.177 333.42C534.677 333.42 534.497 333.14 534.497 332.7C534.497 331.7 535.337 330.62 536.337 330.62C536.997 330.62 537.497 332.3 537.497 332.3ZM539.497 329.66C539.497 328.1 539.097 326.5 537.717 325.64C537.397 325.44 537.017 325.36 536.597 325.36C535.437 325.36 534.137 326.04 534.137 326.72C534.157 327.08 534.497 327.22 534.717 327.22C534.817 327.22 534.877 327.2 534.877 327.12C534.917 326.84 535.697 326.3 536.497 326.3C538.077 326.3 538.497 328.54 538.497 329.7C538.497 330.78 538.177 331.52 538.177 331.52C537.877 330.6 537.377 329.62 536.277 329.62C534.737 329.62 533.557 331.44 533.557 332.78C533.557 333.74 534.137 334.36 535.137 334.36C536.377 334.36 537.797 333.36 537.797 333.36C537.797 333.36 537.857 333.7 537.977 333.82C538.077 333.94 538.257 333.98 538.397 333.98C538.497 333.98 538.597 333.96 538.637 333.9C538.737 333.84 539.497 331.78 539.497 329.66ZM549.39 325.52C549.35 324.96 548.63 324.98 548.21 324.96C548.03 324.96 547.85 324.94 547.67 324.94C546.25 324.94 545.05 325.2 545.05 325.2C545.23 323.9 545.35 323.58 545.47 322.38C545.51 321.96 545.53 321.6 545.53 321.3C545.53 320.24 545.29 319.86 544.91 319.86C544.53 319.86 544.45 320.22 544.45 320.64C544.45 320.92 544.49 321.2 544.49 321.54C544.49 322.22 544.01 325.38 544.01 325.38C542.81 325.7 542.55 325.8 541.41 326.24C540.31 326.66 540.27 326.8 540.17 327.1C540.15 327.16 540.15 327.2 540.15 327.24C540.15 327.52 540.55 327.82 540.77 327.82C541.13 327.82 541.81 327.2 542.15 327.04C542.87 326.7 543.85 326.48 543.85 326.48C543.75 327.34 543.67 327.74 543.53 329.16C543.31 331.2 543.31 332.44 543.31 333.34C543.31 333.66 543.41 334.4 544.01 334.44H544.09C544.47 334.44 544.57 334.22 544.57 333.96C544.57 333.72 544.47 333.44 544.47 333.36C544.45 333.06 544.45 332.72 544.45 332.38C544.45 329.72 544.87 326.5 544.89 326.26C545.61 326.1 546.99 325.82 548.23 325.82C548.39 325.82 548.67 325.88 548.91 325.88C549.17 325.88 549.39 325.82 549.39 325.52ZM557.089 330.68C557.089 328.66 556.849 326.52 555.769 326.14C555.589 326.08 555.409 326.06 555.229 326.06C553.149 326.06 550.449 329.58 550.449 329.58C550.529 327.76 550.669 326.1 550.829 324.44C550.969 322.88 551.269 321.84 551.269 321.22C551.269 320.76 551.089 320.5 550.569 320.5C549.869 320.5 550.049 322.22 549.689 325.52C549.149 330.46 549.389 332.9 549.169 333.36C549.049 333.62 548.909 333.92 548.909 334.2C548.909 334.62 549.229 334.86 549.589 334.86C549.949 334.86 550.349 334.64 550.349 333.9C550.349 333.66 550.309 333.44 550.309 333.22C550.309 332.68 550.389 331.74 550.829 330.8C551.389 329.6 553.889 327.16 555.089 327.16C555.209 327.16 555.329 327.18 555.409 327.24C555.849 327.52 555.989 329.28 555.989 330.78C555.989 331.86 555.909 332.54 555.909 333.1C555.909 333.62 556.049 334.04 556.529 334.04C556.989 334.04 557.069 333.86 557.069 333.58C557.069 333.38 557.029 333.1 557.029 332.78C557.029 332.2 557.089 331.36 557.089 330.68ZM575.162 321.7C575.162 323.04 571.562 324.72 569.682 325.5C568.882 325.84 568.062 326 568.062 326C568.062 326 568.242 324.64 568.402 323.88C568.522 323.28 568.582 322.7 568.602 322.32C568.662 322.5 568.802 322.58 568.922 322.58C569.002 322.58 569.062 322.54 569.122 322.5C569.662 322.02 572.462 321.22 574.062 321.22C574.702 321.22 575.162 321.36 575.162 321.7ZM580.022 333.46C580.022 332.9 579.402 332.64 579.082 332.6C578.502 332.52 575.202 331.4 570.922 328.6C569.942 327.96 568.882 326.94 568.882 326.94C573.422 325.16 576.342 323.28 576.342 321.66V321.56C576.242 320.42 575.362 320.04 574.222 320.04C571.922 320.04 568.582 321.6 568.582 321.6C568.482 321.26 568.302 320.98 567.922 320.98C567.322 320.98 567.042 321.44 567.042 321.92C567.042 322.18 567.082 322.44 567.122 322.68V322.96C567.122 323.9 566.902 326.24 566.902 326.24L566.702 326.3L566.882 326.66C566.762 329.2 566.402 332.4 566.402 333.74C566.402 334.06 566.422 334.28 566.482 334.34C566.622 334.5 566.822 334.58 567.042 334.58C567.482 334.58 567.822 334.24 567.822 333.84C567.822 333.44 567.562 333 567.562 332.58C567.622 330.48 567.882 327.52 567.882 327.52C568.882 328.34 569.322 328.82 570.922 329.86C575.122 332.6 578.382 333.52 578.542 333.72C578.682 333.9 579.082 334.04 579.402 334.04C579.802 334.04 580.022 333.84 580.022 333.46ZM582.864 332.3C582.864 332.3 581.524 333.42 580.544 333.42C580.044 333.42 579.864 333.14 579.864 332.7C579.864 331.7 580.704 330.62 581.704 330.62C582.364 330.62 582.864 332.3 582.864 332.3ZM584.864 329.66C584.864 328.1 584.464 326.5 583.084 325.64C582.764 325.44 582.384 325.36 581.964 325.36C580.804 325.36 579.504 326.04 579.504 326.72C579.524 327.08 579.864 327.22 580.084 327.22C580.184 327.22 580.244 327.2 580.244 327.12C580.284 326.84 581.064 326.3 581.864 326.3C583.444 326.3 583.864 328.54 583.864 329.7C583.864 330.78 583.544 331.52 583.544 331.52C583.244 330.6 582.744 329.62 581.644 329.62C580.104 329.62 578.924 331.44 578.924 332.78C578.924 333.74 579.504 334.36 580.504 334.36C581.744 334.36 583.164 333.36 583.164 333.36C583.164 333.36 583.224 333.7 583.344 333.82C583.444 333.94 583.624 333.98 583.764 333.98C583.864 333.98 583.964 333.96 584.004 333.9C584.104 333.84 584.864 331.78 584.864 329.66ZM594.757 325.52C594.717 324.96 593.997 324.98 593.577 324.96C593.397 324.96 593.217 324.94 593.037 324.94C591.617 324.94 590.417 325.2 590.417 325.2C590.597 323.9 590.717 323.58 590.837 322.38C590.877 321.96 590.897 321.6 590.897 321.3C590.897 320.24 590.657 319.86 590.277 319.86C589.897 319.86 589.817 320.22 589.817 320.64C589.817 320.92 589.857 321.2 589.857 321.54C589.857 322.22 589.377 325.38 589.377 325.38C588.177 325.7 587.917 325.8 586.777 326.24C585.677 326.66 585.637 326.8 585.537 327.1C585.517 327.16 585.517 327.2 585.517 327.24C585.517 327.52 585.917 327.82 586.137 327.82C586.497 327.82 587.177 327.2 587.517 327.04C588.237 326.7 589.217 326.48 589.217 326.48C589.117 327.34 589.037 327.74 588.897 329.16C588.677 331.2 588.677 332.44 588.677 333.34C588.677 333.66 588.777 334.4 589.377 334.44H589.457C589.837 334.44 589.937 334.22 589.937 333.96C589.937 333.72 589.837 333.44 589.837 333.36C589.817 333.06 589.817 332.72 589.817 332.38C589.817 329.72 590.237 326.5 590.257 326.26C590.977 326.1 592.357 325.82 593.597 325.82C593.757 325.82 594.037 325.88 594.277 325.88C594.537 325.88 594.757 325.82 594.757 325.52ZM598.385 326.7C597.765 327.26 597.425 327.48 596.905 327.78C595.665 328.54 594.545 328.6 594.545 328.6C594.545 328.6 595.165 327.78 596.185 327.26C596.905 326.88 597.645 326.7 598.385 326.7ZM602.325 330.16C602.325 329.82 602.025 329.52 601.725 329.52C601.385 329.52 601.165 330.04 601.045 330.26C600.845 330.54 597.745 333.08 596.165 333.08C595.285 333.08 594.905 332.6 594.545 332.02C594.105 331.34 594.005 330.72 594.005 330.3C594.005 329.94 594.065 329.72 594.065 329.72C594.625 329.68 595.845 329.56 597.085 328.8C598.225 328.12 599.925 326.84 599.925 326.34C599.925 326.28 599.905 326.24 599.845 326.2C599.365 325.88 598.785 325.74 598.125 325.74C596.025 325.74 593.445 327.28 592.925 329.54C592.865 329.78 592.845 330.02 592.845 330.26C592.845 331.74 593.765 333.32 595.065 333.92C595.325 334.04 595.625 334.1 595.945 334.1C598.205 334.1 601.425 331.16 601.865 330.92C602.125 330.74 602.325 330.44 602.325 330.16Z" fill="#005573"/>
<path d="M389.04 371.58C389.04 371.26 388.78 371.06 388.46 371.06C387.8 371.06 386.36 371.46 385.46 371.7C384.44 371.98 379.04 373.94 379.04 373.94C379 373.6 378.76 373.22 378.38 373.22C377.82 373.22 377.76 373.96 377.76 374.32C377.76 374.38 377.76 374.42 377.76 374.42C376.78 374.84 375 375.14 374.82 375.38C374.74 375.5 374.7 375.64 374.7 375.8C374.7 376.06 374.86 376.32 375.22 376.4C375.62 376.4 377.74 375.6 377.74 375.6L377.58 377.66C377.52 378.36 377.38 379.82 377.38 379.82C376.96 380.2 376.82 380.26 376.82 380.66C376.82 381.06 377.26 381.26 377.26 381.26C377.26 382.54 377.1 384.52 377.1 385.5C377.1 385.82 377.12 386.04 377.16 386.08C377.28 386.2 377.46 386.26 377.64 386.26C377.98 386.26 378.3 386.02 378.3 385.7C378.3 385.48 378.2 385.22 378.16 384.94C378.14 384.76 378.14 384.52 378.14 384.26C378.14 382.9 378.36 380.82 378.36 380.82C380.22 379.56 382.26 378.8 383.38 378.52C384.52 378.24 384.98 378.32 385.42 378.16C385.76 378.04 385.96 377.72 385.96 377.48C385.96 377.16 385.66 377.12 385.44 377.12C384.76 377.12 383.42 377.42 382.28 377.74C380.62 378.2 378.52 379.28 378.52 379.28L378.74 377.8C378.94 376.5 379.08 375.06 379.08 375.06C382.66 373.44 384.6 372.92 386.08 372.44C387.38 372.02 388.14 372.26 388.62 372.08C388.9 371.98 389.04 371.78 389.04 371.58ZM388.588 379C389.688 379 390.168 380.28 390.168 381.16C390.168 381.86 389.928 382.56 389.588 383.22C389.208 383.94 387.948 385.04 387.028 385.04C386.108 385.04 385.728 383.74 385.728 383.02C385.728 382.74 385.768 382.46 385.848 382.24C386.868 379.22 388.428 379 388.588 379ZM391.168 381.4C391.168 381.18 391.148 380.98 391.128 380.74C390.908 378.56 389.228 377.86 388.428 377.86C387.268 377.86 386.108 378.92 384.988 381.46C384.748 382 384.648 382.52 384.648 383.04C384.648 384.36 385.388 386.08 386.808 386.08C388.488 386.08 391.168 384.26 391.168 381.4ZM395.963 379C397.063 379 397.543 380.28 397.543 381.16C397.543 381.86 397.303 382.56 396.963 383.22C396.583 383.94 395.323 385.04 394.403 385.04C393.483 385.04 393.103 383.74 393.103 383.02C393.103 382.74 393.143 382.46 393.223 382.24C394.243 379.22 395.803 379 395.963 379ZM398.543 381.4C398.543 381.18 398.523 380.98 398.503 380.74C398.283 378.56 396.603 377.86 395.803 377.86C394.643 377.86 393.483 378.92 392.363 381.46C392.123 382 392.023 382.52 392.023 383.04C392.023 384.36 392.763 386.08 394.183 386.08C395.863 386.08 398.543 384.26 398.543 381.4ZM405.964 383.08C404.364 384 402.484 385.24 401.224 385.24C400.524 385.24 400.024 384.8 400.024 384.14C400.024 382.56 402.284 379.9 403.904 379.9C404.084 379.9 404.264 379.92 404.424 380C405.664 380.54 405.964 383.08 405.964 383.08ZM408.684 372.92C408.684 372.4 408.264 371.92 407.664 371.92C407.424 371.92 407.324 372.12 407.324 372.44C407.324 372.68 407.344 372.92 407.444 373.24C407.464 373.3 407.464 373.34 407.464 373.4C407.464 374.46 406.644 381.14 406.644 381.14C406.124 380.2 405.784 379.26 404.184 378.92C404.104 378.9 403.984 378.9 403.884 378.9C402.044 378.9 398.984 381.66 398.984 384.06C398.984 385.32 399.764 386.28 401.084 386.28C403.184 386.28 406.104 384.28 406.104 384.28C406.264 384.86 406.044 385.5 407.004 385.64C407.344 385.64 407.424 385.22 407.424 384.76C407.424 384.2 407.304 383.58 407.304 383.58C407.984 383.3 408.524 383.32 408.524 382.78C408.524 382.7 408.524 382.62 408.484 382.5C408.384 382.08 407.644 382.02 407.644 382.02C407.784 379.12 408.464 373.68 408.604 373.3C408.664 373.18 408.684 373.04 408.684 372.92ZM421.315 384.3C421.315 384.3 419.975 385.42 418.995 385.42C418.495 385.42 418.315 385.14 418.315 384.7C418.315 383.7 419.155 382.62 420.155 382.62C420.815 382.62 421.315 384.3 421.315 384.3ZM423.315 381.66C423.315 380.1 422.915 378.5 421.535 377.64C421.215 377.44 420.835 377.36 420.415 377.36C419.255 377.36 417.955 378.04 417.955 378.72C417.975 379.08 418.315 379.22 418.535 379.22C418.635 379.22 418.695 379.2 418.695 379.12C418.735 378.84 419.515 378.3 420.315 378.3C421.895 378.3 422.315 380.54 422.315 381.7C422.315 382.78 421.995 383.52 421.995 383.52C421.695 382.6 421.195 381.62 420.095 381.62C418.555 381.62 417.375 383.44 417.375 384.78C417.375 385.74 417.955 386.36 418.955 386.36C420.195 386.36 421.615 385.36 421.615 385.36C421.615 385.36 421.675 385.7 421.795 385.82C421.895 385.94 422.075 385.98 422.215 385.98C422.315 385.98 422.415 385.96 422.455 385.9C422.555 385.84 423.315 383.78 423.315 381.66ZM433.695 376.66C433.695 376.36 433.495 375.94 433.175 375.94C432.755 375.94 432.395 376.74 432.315 376.94C432.255 377.14 430.655 379.22 429.415 380.88C428.175 382.58 426.995 384.34 426.995 384.34C426.795 383.7 426.715 383.28 426.615 382.9C426.275 381.56 426.355 381.3 426.075 380.3C425.815 379.38 425.315 378.7 424.895 378.7C424.655 378.7 424.515 378.88 424.515 379.08C424.515 379.5 424.855 380.24 424.995 380.66C425.195 381.18 425.535 382.94 426.035 384.72C426.155 385.14 426.255 385.86 426.675 386.08C426.775 386.12 426.875 386.16 426.955 386.16C427.435 386.16 427.815 385.5 427.995 385.08C428.315 384.36 431.715 379.24 432.595 378.48C433.155 378.02 433.695 377.28 433.695 376.66ZM436.981 384.3C436.981 384.3 435.641 385.42 434.661 385.42C434.161 385.42 433.981 385.14 433.981 384.7C433.981 383.7 434.821 382.62 435.821 382.62C436.481 382.62 436.981 384.3 436.981 384.3ZM438.981 381.66C438.981 380.1 438.581 378.5 437.201 377.64C436.881 377.44 436.501 377.36 436.081 377.36C434.921 377.36 433.621 378.04 433.621 378.72C433.641 379.08 433.981 379.22 434.201 379.22C434.301 379.22 434.361 379.2 434.361 379.12C434.401 378.84 435.181 378.3 435.981 378.3C437.561 378.3 437.981 380.54 437.981 381.7C437.981 382.78 437.661 383.52 437.661 383.52C437.361 382.6 436.861 381.62 435.761 381.62C434.221 381.62 433.041 383.44 433.041 384.78C433.041 385.74 433.621 386.36 434.621 386.36C435.861 386.36 437.281 385.36 437.281 385.36C437.281 385.36 437.341 385.7 437.461 385.82C437.561 385.94 437.741 385.98 437.881 385.98C437.981 385.98 438.081 385.96 438.121 385.9C438.221 385.84 438.981 383.78 438.981 381.66ZM442.601 378.58C442.601 378.12 442.321 377.82 441.981 377.82C441.281 377.86 441.361 379 441.301 380.1C441.201 382.02 441.101 383.46 441.101 384.42C441.101 385.14 441.161 385.58 441.341 385.72C441.501 385.84 441.681 385.9 441.821 385.9C442.221 385.9 442.361 385.58 442.361 385.24C442.361 384.88 442.121 384.84 442.121 383.94V383.56C442.121 382.78 442.601 379.26 442.601 378.58ZM442.641 371.94C442.641 371.62 442.421 371.38 442.141 371.38C441.621 371.38 441.781 371.84 441.361 372.7C441.121 373.22 441.021 373.68 441.021 374.04C441.021 374.32 441.081 374.72 441.381 374.72C441.521 374.72 441.641 374.64 441.741 374.54C441.941 374.34 441.801 374 442.101 373.26C442.361 372.62 442.621 372.28 442.641 372.02V371.94ZM447.959 372.28C447.959 372 447.899 371.86 447.799 371.74C447.599 371.52 447.439 371.44 447.299 371.44C447.119 371.44 446.999 371.56 446.859 371.68C446.599 371.9 446.539 373.62 446.299 376.22C446.059 378.66 445.639 382.96 445.639 385.34C445.639 386.24 445.719 386.88 445.879 386.98C446.059 387.12 446.219 387.16 446.359 387.16C446.759 387.16 446.839 386.58 446.839 386.14C446.839 385.46 446.779 384.74 446.779 384.1C446.779 382.5 446.879 380.58 447.119 378.7C447.619 374.5 447.959 372.98 447.959 372.28ZM452.815 384.3C452.815 384.3 451.475 385.42 450.495 385.42C449.995 385.42 449.815 385.14 449.815 384.7C449.815 383.7 450.655 382.62 451.655 382.62C452.315 382.62 452.815 384.3 452.815 384.3ZM454.815 381.66C454.815 380.1 454.415 378.5 453.035 377.64C452.715 377.44 452.335 377.36 451.915 377.36C450.755 377.36 449.455 378.04 449.455 378.72C449.475 379.08 449.815 379.22 450.035 379.22C450.135 379.22 450.195 379.2 450.195 379.12C450.235 378.84 451.015 378.3 451.815 378.3C453.395 378.3 453.815 380.54 453.815 381.7C453.815 382.78 453.495 383.52 453.495 383.52C453.195 382.6 452.695 381.62 451.595 381.62C450.055 381.62 448.875 383.44 448.875 384.78C448.875 385.74 449.455 386.36 450.455 386.36C451.695 386.36 453.115 385.36 453.115 385.36C453.115 385.36 453.175 385.7 453.295 385.82C453.395 385.94 453.575 385.98 453.715 385.98C453.815 385.98 453.915 385.96 453.955 385.9C454.055 385.84 454.815 383.78 454.815 381.66ZM462.048 380.6C462.048 382.42 457.848 385.28 457.848 385.28C457.848 385.28 457.668 384.3 457.668 382.7C457.668 382.4 457.668 382.06 457.688 381.72C457.748 380.38 458.088 379.02 458.088 379.02C458.288 379 458.508 378.98 458.728 378.98C460.028 378.98 461.568 379.4 461.948 380.18C462.008 380.32 462.048 380.46 462.048 380.6ZM463.188 380.5C463.188 380.34 463.148 380.16 463.088 380.02C462.208 378.06 459.388 377.92 458.548 377.92C458.388 377.92 458.288 377.92 458.288 377.92C458.668 375.84 458.988 375.3 458.988 374.06C458.988 373.12 458.568 372.46 458.208 372.46C457.828 372.46 457.708 372.72 457.708 372.96C457.708 373.3 457.868 373.7 457.868 373.94C457.868 375.68 457.188 378.14 457.188 378.14C456.888 378.28 456.608 378.54 456.608 378.76C456.668 379.24 456.928 379.32 456.928 379.32C456.708 380.9 456.648 383.04 456.648 384.3C456.648 384.9 456.648 385.3 456.668 385.34C456.808 385.62 457.228 385.64 457.368 385.64C457.408 385.64 457.428 385.64 457.428 385.64C457.428 385.64 457.408 385.74 457.408 385.86C457.408 386.26 457.788 386.52 458.108 386.52C458.368 386.52 458.348 386.32 458.648 386.02C459.028 385.66 463.188 382.48 463.188 380.5ZM467.015 372.28C467.015 372 466.955 371.86 466.855 371.74C466.655 371.52 466.495 371.44 466.355 371.44C466.175 371.44 466.055 371.56 465.915 371.68C465.655 371.9 465.595 373.62 465.355 376.22C465.115 378.66 464.695 382.96 464.695 385.34C464.695 386.24 464.775 386.88 464.935 386.98C465.115 387.12 465.275 387.16 465.415 387.16C465.815 387.16 465.895 386.58 465.895 386.14C465.895 385.46 465.835 384.74 465.835 384.1C465.835 382.5 465.935 380.58 466.175 378.7C466.675 374.5 467.015 372.98 467.015 372.28ZM473.23 378.7C472.61 379.26 472.27 379.48 471.75 379.78C470.51 380.54 469.39 380.6 469.39 380.6C469.39 380.6 470.01 379.78 471.03 379.26C471.75 378.88 472.49 378.7 473.23 378.7ZM477.17 382.16C477.17 381.82 476.87 381.52 476.57 381.52C476.23 381.52 476.01 382.04 475.89 382.26C475.69 382.54 472.59 385.08 471.01 385.08C470.13 385.08 469.75 384.6 469.39 384.02C468.95 383.34 468.85 382.72 468.85 382.3C468.85 381.94 468.91 381.72 468.91 381.72C469.47 381.68 470.69 381.56 471.93 380.8C473.07 380.12 474.77 378.84 474.77 378.34C474.77 378.28 474.75 378.24 474.69 378.2C474.21 377.88 473.63 377.74 472.97 377.74C470.87 377.74 468.29 379.28 467.77 381.54C467.71 381.78 467.69 382.02 467.69 382.26C467.69 383.74 468.61 385.32 469.91 385.92C470.17 386.04 470.47 386.1 470.79 386.1C473.05 386.1 476.27 383.16 476.71 382.92C476.97 382.74 477.17 382.44 477.17 382.16ZM490.296 381.08C490.296 381.16 490.296 381.2 490.276 381.3C489.796 383.48 486.696 385 486.696 385C486.696 385 486.996 382.5 487.176 381.32C487.356 380.16 487.676 378.6 487.676 378.6C488.836 378.68 490.296 380.1 490.296 381.08ZM491.376 381.24C491.376 378.9 488.656 377.52 487.256 377.5C486.956 377.5 485.836 377.78 485.836 378.38C485.836 378.84 486.336 378.98 486.336 378.98C485.856 382.6 485.596 384.02 485.416 388.18C485.396 388.82 485.376 389.4 485.376 389.92C485.376 391.74 485.496 392.86 485.496 393.3C485.496 393.42 485.496 393.48 485.476 393.5C485.416 393.6 485.396 393.72 485.396 393.86C485.396 394.26 485.676 394.7 486.096 394.7C486.356 394.7 486.576 394.46 486.576 394.12C486.576 394 486.536 393.88 486.476 393.74C486.436 393.64 486.376 392.74 486.376 391.3V389.98C486.376 387.24 486.656 385.46 486.656 385.46C486.716 385.68 487.036 385.98 487.336 385.98C487.736 385.98 491.376 383 491.376 381.24ZM497.852 378.7C497.232 379.26 496.892 379.48 496.372 379.78C495.132 380.54 494.012 380.6 494.012 380.6C494.012 380.6 494.632 379.78 495.652 379.26C496.372 378.88 497.112 378.7 497.852 378.7ZM501.792 382.16C501.792 381.82 501.492 381.52 501.192 381.52C500.852 381.52 500.632 382.04 500.512 382.26C500.312 382.54 497.212 385.08 495.632 385.08C494.752 385.08 494.372 384.6 494.012 384.02C493.572 383.34 493.472 382.72 493.472 382.3C493.472 381.94 493.532 381.72 493.532 381.72C494.092 381.68 495.312 381.56 496.552 380.8C497.692 380.12 499.392 378.84 499.392 378.34C499.392 378.28 499.372 378.24 499.312 378.2C498.832 377.88 498.252 377.74 497.592 377.74C495.492 377.74 492.912 379.28 492.392 381.54C492.332 381.78 492.312 382.02 492.312 382.26C492.312 383.74 493.232 385.32 494.532 385.92C494.792 386.04 495.092 386.1 495.412 386.1C497.672 386.1 500.892 383.16 501.332 382.92C501.592 382.74 501.792 382.44 501.792 382.16ZM510.649 378.04C510.649 377.8 510.489 377.56 510.369 377.52C510.029 377.4 509.729 377.36 509.449 377.36C508.249 377.36 507.429 378.28 506.689 378.98C505.409 380.16 504.029 382 504.029 382C504.029 380.66 504.029 380.28 504.009 379.58C503.969 378.36 503.909 377.9 503.609 377.62C503.449 377.48 503.309 377.42 503.169 377.42C502.969 377.42 502.569 377.66 502.569 377.88C502.569 378.12 503.009 378.54 503.009 381.04C503.009 381.44 502.989 381.88 502.969 382.4C502.889 383.94 502.649 384.96 502.649 385.56C502.649 385.82 502.689 386 502.809 386.12C502.949 386.26 503.149 386.36 503.349 386.36C503.509 386.36 503.669 386.3 503.789 386.14C504.049 385.8 503.789 384.26 504.529 383.14C505.969 380.96 507.489 379.26 508.749 378.52C508.949 378.4 509.129 378.36 509.269 378.36C509.589 378.36 509.809 378.54 510.069 378.54C510.369 378.54 510.649 378.3 510.649 378.04ZM523.133 381.08C523.133 381.16 523.133 381.2 523.113 381.3C522.633 383.48 519.533 385 519.533 385C519.533 385 519.833 382.5 520.013 381.32C520.193 380.16 520.513 378.6 520.513 378.6C521.673 378.68 523.133 380.1 523.133 381.08ZM524.213 381.24C524.213 378.9 521.493 377.52 520.093 377.5C519.793 377.5 518.673 377.78 518.673 378.38C518.673 378.84 519.173 378.98 519.173 378.98C518.693 382.6 518.433 384.02 518.253 388.18C518.233 388.82 518.213 389.4 518.213 389.92C518.213 391.74 518.333 392.86 518.333 393.3C518.333 393.42 518.333 393.48 518.313 393.5C518.253 393.6 518.233 393.72 518.233 393.86C518.233 394.26 518.513 394.7 518.933 394.7C519.193 394.7 519.413 394.46 519.413 394.12C519.413 394 519.373 393.88 519.313 393.74C519.273 393.64 519.213 392.74 519.213 391.3V389.98C519.213 387.24 519.493 385.46 519.493 385.46C519.553 385.68 519.873 385.98 520.173 385.98C520.573 385.98 524.213 383 524.213 381.24ZM530.689 378.7C530.069 379.26 529.729 379.48 529.209 379.78C527.969 380.54 526.849 380.6 526.849 380.6C526.849 380.6 527.469 379.78 528.489 379.26C529.209 378.88 529.949 378.7 530.689 378.7ZM534.629 382.16C534.629 381.82 534.329 381.52 534.029 381.52C533.689 381.52 533.469 382.04 533.349 382.26C533.149 382.54 530.049 385.08 528.469 385.08C527.589 385.08 527.209 384.6 526.849 384.02C526.409 383.34 526.309 382.72 526.309 382.3C526.309 381.94 526.369 381.72 526.369 381.72C526.929 381.68 528.149 381.56 529.389 380.8C530.529 380.12 532.229 378.84 532.229 378.34C532.229 378.28 532.209 378.24 532.149 378.2C531.669 377.88 531.089 377.74 530.429 377.74C528.329 377.74 525.749 379.28 525.229 381.54C525.169 381.78 525.149 382.02 525.149 382.26C525.149 383.74 526.069 385.32 527.369 385.92C527.629 386.04 527.929 386.1 528.249 386.1C530.509 386.1 533.729 383.16 534.169 382.92C534.429 382.74 534.629 382.44 534.629 382.16ZM543.486 378.04C543.486 377.8 543.326 377.56 543.206 377.52C542.866 377.4 542.566 377.36 542.286 377.36C541.086 377.36 540.266 378.28 539.526 378.98C538.246 380.16 536.866 382 536.866 382C536.866 380.66 536.866 380.28 536.846 379.58C536.806 378.36 536.746 377.9 536.446 377.62C536.286 377.48 536.146 377.42 536.006 377.42C535.806 377.42 535.406 377.66 535.406 377.88C535.406 378.12 535.846 378.54 535.846 381.04C535.846 381.44 535.826 381.88 535.806 382.4C535.726 383.94 535.486 384.96 535.486 385.56C535.486 385.82 535.526 386 535.646 386.12C535.786 386.26 535.986 386.36 536.186 386.36C536.346 386.36 536.506 386.3 536.626 386.14C536.886 385.8 536.626 384.26 537.366 383.14C538.806 380.96 540.326 379.26 541.586 378.52C541.786 378.4 541.966 378.36 542.106 378.36C542.426 378.36 542.646 378.54 542.906 378.54C543.206 378.54 543.486 378.3 543.486 378.04ZM549.24 376.56V376.48C549.22 376.24 548.52 375.88 548.26 375.76C548.14 375.7 547.98 375.66 547.8 375.66C547.54 375.66 547.22 375.74 546.98 375.94C545.66 377.04 543.14 378.92 543.14 381.12C543.14 384.12 547.74 383.92 548.02 384.9C548.02 385.62 545.12 386.6 545 386.8C544.92 386.9 544.88 387 544.88 387.1C544.88 387.38 545.18 387.62 545.6 387.64C545.9 387.64 549.18 385.92 549.18 385.1C549.18 383.86 548.04 383.66 546.82 383.18C545.5 382.68 544.18 382.28 544.18 381.12C544.18 380.5 544.68 379.34 545.58 378.54C547.16 377.12 547.38 376.7 548.06 376.68C548.22 376.68 548.44 376.92 548.82 376.92C549.12 376.92 549.24 376.76 549.24 376.56ZM553.966 379C555.066 379 555.546 380.28 555.546 381.16C555.546 381.86 555.306 382.56 554.966 383.22C554.586 383.94 553.326 385.04 552.406 385.04C551.486 385.04 551.106 383.74 551.106 383.02C551.106 382.74 551.146 382.46 551.226 382.24C552.246 379.22 553.806 379 553.966 379ZM556.546 381.4C556.546 381.18 556.526 380.98 556.506 380.74C556.286 378.56 554.606 377.86 553.806 377.86C552.646 377.86 551.486 378.92 550.366 381.46C550.126 382 550.026 382.52 550.026 383.04C550.026 384.36 550.766 386.08 552.186 386.08C553.866 386.08 556.546 384.26 556.546 381.4ZM564.12 386.5C564.12 386.18 563.92 385.8 563.78 385.52C563.74 385.38 563.72 385.02 563.72 384.22V381.92C563.72 379.32 563.62 377.46 562.68 377.26H562.6C561.36 377.26 559.24 381.86 559.24 381.86C559.22 381.7 559.22 381.58 559.22 381.48C559.22 381.22 559.26 380.98 559.26 380.4C559.26 379.24 559.46 378.48 559.46 378.04C559.46 377.88 559.44 377.78 559.38 377.7C559.26 377.54 559 377.38 558.74 377.38C558.54 377.38 558.36 377.5 558.3 377.84C558.26 378.12 558.08 379.56 558.04 381.44C558 383.6 557.88 384.76 557.88 385.4C557.88 385.72 557.92 385.92 558 386.06C558.14 386.24 558.3 386.3 558.44 386.3C558.58 386.3 558.72 386.24 558.82 386.2C559.06 386.02 559.04 385.5 559.64 383.88C560.54 381.44 562.02 378.68 562.38 378.68C562.62 378.68 562.64 380.3 562.64 380.54L562.62 382.48C562.62 384.28 562.82 385.22 562.82 385.64C562.82 385.84 562.76 385.96 562.76 386.1C562.76 386.64 563.26 387 563.66 387C563.96 387 564.12 386.74 564.12 386.5Z" fill="#005573"/>
<path d="M250.04 562.58C250.04 562.26 249.78 562.06 249.46 562.06C248.8 562.06 247.36 562.46 246.46 562.7C245.44 562.98 240.04 564.94 240.04 564.94C240 564.6 239.76 564.22 239.38 564.22C238.82 564.22 238.76 564.96 238.76 565.32C238.76 565.38 238.76 565.42 238.76 565.42C237.78 565.84 236 566.14 235.82 566.38C235.74 566.5 235.7 566.64 235.7 566.8C235.7 567.06 235.86 567.32 236.22 567.4C236.62 567.4 238.74 566.6 238.74 566.6L238.58 568.66C238.52 569.36 238.38 570.82 238.38 570.82C237.96 571.2 237.82 571.26 237.82 571.66C237.82 572.06 238.26 572.26 238.26 572.26C238.26 573.54 238.1 575.52 238.1 576.5C238.1 576.82 238.12 577.04 238.16 577.08C238.28 577.2 238.46 577.26 238.64 577.26C238.98 577.26 239.3 577.02 239.3 576.7C239.3 576.48 239.2 576.22 239.16 575.94C239.14 575.76 239.14 575.52 239.14 575.26C239.14 573.9 239.36 571.82 239.36 571.82C241.22 570.56 243.26 569.8 244.38 569.52C245.52 569.24 245.98 569.32 246.42 569.16C246.76 569.04 246.96 568.72 246.96 568.48C246.96 568.16 246.66 568.12 246.44 568.12C245.76 568.12 244.42 568.42 243.28 568.74C241.62 569.2 239.52 570.28 239.52 570.28L239.74 568.8C239.94 567.5 240.08 566.06 240.08 566.06C243.66 564.44 245.6 563.92 247.08 563.44C248.38 563.02 249.14 563.26 249.62 563.08C249.9 562.98 250.04 562.78 250.04 562.58ZM249.588 570C250.688 570 251.168 571.28 251.168 572.16C251.168 572.86 250.928 573.56 250.588 574.22C250.208 574.94 248.948 576.04 248.028 576.04C247.108 576.04 246.728 574.74 246.728 574.02C246.728 573.74 246.768 573.46 246.848 573.24C247.868 570.22 249.428 570 249.588 570ZM252.168 572.4C252.168 572.18 252.148 571.98 252.128 571.74C251.908 569.56 250.228 568.86 249.428 568.86C248.268 568.86 247.108 569.92 245.988 572.46C245.748 573 245.648 573.52 245.648 574.04C245.648 575.36 246.388 577.08 247.808 577.08C249.488 577.08 252.168 575.26 252.168 572.4ZM256.963 570C258.063 570 258.543 571.28 258.543 572.16C258.543 572.86 258.303 573.56 257.963 574.22C257.583 574.94 256.323 576.04 255.403 576.04C254.483 576.04 254.103 574.74 254.103 574.02C254.103 573.74 254.143 573.46 254.223 573.24C255.243 570.22 256.803 570 256.963 570ZM259.543 572.4C259.543 572.18 259.523 571.98 259.503 571.74C259.283 569.56 257.603 568.86 256.803 568.86C255.643 568.86 254.483 569.92 253.363 572.46C253.123 573 253.023 573.52 253.023 574.04C253.023 575.36 253.763 577.08 255.183 577.08C256.863 577.08 259.543 575.26 259.543 572.4ZM266.964 574.08C265.364 575 263.484 576.24 262.224 576.24C261.524 576.24 261.024 575.8 261.024 575.14C261.024 573.56 263.284 570.9 264.904 570.9C265.084 570.9 265.264 570.92 265.424 571C266.664 571.54 266.964 574.08 266.964 574.08ZM269.684 563.92C269.684 563.4 269.264 562.92 268.664 562.92C268.424 562.92 268.324 563.12 268.324 563.44C268.324 563.68 268.344 563.92 268.444 564.24C268.464 564.3 268.464 564.34 268.464 564.4C268.464 565.46 267.644 572.14 267.644 572.14C267.124 571.2 266.784 570.26 265.184 569.92C265.104 569.9 264.984 569.9 264.884 569.9C263.044 569.9 259.984 572.66 259.984 575.06C259.984 576.32 260.764 577.28 262.084 577.28C264.184 577.28 267.104 575.28 267.104 575.28C267.264 575.86 267.044 576.5 268.004 576.64C268.344 576.64 268.424 576.22 268.424 575.76C268.424 575.2 268.304 574.58 268.304 574.58C268.984 574.3 269.524 574.32 269.524 573.78C269.524 573.7 269.524 573.62 269.484 573.5C269.384 573.08 268.644 573.02 268.644 573.02C268.784 570.12 269.464 564.68 269.604 564.3C269.664 564.18 269.684 564.04 269.684 563.92ZM282.315 575.3C282.315 575.3 280.975 576.42 279.995 576.42C279.495 576.42 279.315 576.14 279.315 575.7C279.315 574.7 280.155 573.62 281.155 573.62C281.815 573.62 282.315 575.3 282.315 575.3ZM284.315 572.66C284.315 571.1 283.915 569.5 282.535 568.64C282.215 568.44 281.835 568.36 281.415 568.36C280.255 568.36 278.955 569.04 278.955 569.72C278.975 570.08 279.315 570.22 279.535 570.22C279.635 570.22 279.695 570.2 279.695 570.12C279.735 569.84 280.515 569.3 281.315 569.3C282.895 569.3 283.315 571.54 283.315 572.7C283.315 573.78 282.995 574.52 282.995 574.52C282.695 573.6 282.195 572.62 281.095 572.62C279.555 572.62 278.375 574.44 278.375 575.78C278.375 576.74 278.955 577.36 279.955 577.36C281.195 577.36 282.615 576.36 282.615 576.36C282.615 576.36 282.675 576.7 282.795 576.82C282.895 576.94 283.075 576.98 283.215 576.98C283.315 576.98 283.415 576.96 283.455 576.9C283.555 576.84 284.315 574.78 284.315 572.66ZM294.695 567.66C294.695 567.36 294.495 566.94 294.175 566.94C293.755 566.94 293.395 567.74 293.315 567.94C293.255 568.14 291.655 570.22 290.415 571.88C289.175 573.58 287.995 575.34 287.995 575.34C287.795 574.7 287.715 574.28 287.615 573.9C287.275 572.56 287.355 572.3 287.075 571.3C286.815 570.38 286.315 569.7 285.895 569.7C285.655 569.7 285.515 569.88 285.515 570.08C285.515 570.5 285.855 571.24 285.995 571.66C286.195 572.18 286.535 573.94 287.035 575.72C287.155 576.14 287.255 576.86 287.675 577.08C287.775 577.12 287.875 577.16 287.955 577.16C288.435 577.16 288.815 576.5 288.995 576.08C289.315 575.36 292.715 570.24 293.595 569.48C294.155 569.02 294.695 568.28 294.695 567.66ZM297.981 575.3C297.981 575.3 296.641 576.42 295.661 576.42C295.161 576.42 294.981 576.14 294.981 575.7C294.981 574.7 295.821 573.62 296.821 573.62C297.481 573.62 297.981 575.3 297.981 575.3ZM299.981 572.66C299.981 571.1 299.581 569.5 298.201 568.64C297.881 568.44 297.501 568.36 297.081 568.36C295.921 568.36 294.621 569.04 294.621 569.72C294.641 570.08 294.981 570.22 295.201 570.22C295.301 570.22 295.361 570.2 295.361 570.12C295.401 569.84 296.181 569.3 296.981 569.3C298.561 569.3 298.981 571.54 298.981 572.7C298.981 573.78 298.661 574.52 298.661 574.52C298.361 573.6 297.861 572.62 296.761 572.62C295.221 572.62 294.041 574.44 294.041 575.78C294.041 576.74 294.621 577.36 295.621 577.36C296.861 577.36 298.281 576.36 298.281 576.36C298.281 576.36 298.341 576.7 298.461 576.82C298.561 576.94 298.741 576.98 298.881 576.98C298.981 576.98 299.081 576.96 299.121 576.9C299.221 576.84 299.981 574.78 299.981 572.66ZM303.601 569.58C303.601 569.12 303.321 568.82 302.981 568.82C302.281 568.86 302.361 570 302.301 571.1C302.201 573.02 302.101 574.46 302.101 575.42C302.101 576.14 302.161 576.58 302.341 576.72C302.501 576.84 302.681 576.9 302.821 576.9C303.221 576.9 303.361 576.58 303.361 576.24C303.361 575.88 303.121 575.84 303.121 574.94V574.56C303.121 573.78 303.601 570.26 303.601 569.58ZM303.641 562.94C303.641 562.62 303.421 562.38 303.141 562.38C302.621 562.38 302.781 562.84 302.361 563.7C302.121 564.22 302.021 564.68 302.021 565.04C302.021 565.32 302.081 565.72 302.381 565.72C302.521 565.72 302.641 565.64 302.741 565.54C302.941 565.34 302.801 565 303.101 564.26C303.361 563.62 303.621 563.28 303.641 563.02V562.94ZM308.959 563.28C308.959 563 308.899 562.86 308.799 562.74C308.599 562.52 308.439 562.44 308.299 562.44C308.119 562.44 307.999 562.56 307.859 562.68C307.599 562.9 307.539 564.62 307.299 567.22C307.059 569.66 306.639 573.96 306.639 576.34C306.639 577.24 306.719 577.88 306.879 577.98C307.059 578.12 307.219 578.16 307.359 578.16C307.759 578.16 307.839 577.58 307.839 577.14C307.839 576.46 307.779 575.74 307.779 575.1C307.779 573.5 307.879 571.58 308.119 569.7C308.619 565.5 308.959 563.98 308.959 563.28ZM313.815 575.3C313.815 575.3 312.475 576.42 311.495 576.42C310.995 576.42 310.815 576.14 310.815 575.7C310.815 574.7 311.655 573.62 312.655 573.62C313.315 573.62 313.815 575.3 313.815 575.3ZM315.815 572.66C315.815 571.1 315.415 569.5 314.035 568.64C313.715 568.44 313.335 568.36 312.915 568.36C311.755 568.36 310.455 569.04 310.455 569.72C310.475 570.08 310.815 570.22 311.035 570.22C311.135 570.22 311.195 570.2 311.195 570.12C311.235 569.84 312.015 569.3 312.815 569.3C314.395 569.3 314.815 571.54 314.815 572.7C314.815 573.78 314.495 574.52 314.495 574.52C314.195 573.6 313.695 572.62 312.595 572.62C311.055 572.62 309.875 574.44 309.875 575.78C309.875 576.74 310.455 577.36 311.455 577.36C312.695 577.36 314.115 576.36 314.115 576.36C314.115 576.36 314.175 576.7 314.295 576.82C314.395 576.94 314.575 576.98 314.715 576.98C314.815 576.98 314.915 576.96 314.955 576.9C315.055 576.84 315.815 574.78 315.815 572.66ZM323.048 571.6C323.048 573.42 318.848 576.28 318.848 576.28C318.848 576.28 318.668 575.3 318.668 573.7C318.668 573.4 318.668 573.06 318.688 572.72C318.748 571.38 319.088 570.02 319.088 570.02C319.288 570 319.508 569.98 319.728 569.98C321.028 569.98 322.568 570.4 322.948 571.18C323.008 571.32 323.048 571.46 323.048 571.6ZM324.188 571.5C324.188 571.34 324.148 571.16 324.088 571.02C323.208 569.06 320.388 568.92 319.548 568.92C319.388 568.92 319.288 568.92 319.288 568.92C319.668 566.84 319.988 566.3 319.988 565.06C319.988 564.12 319.568 563.46 319.208 563.46C318.828 563.46 318.708 563.72 318.708 563.96C318.708 564.3 318.868 564.7 318.868 564.94C318.868 566.68 318.188 569.14 318.188 569.14C317.888 569.28 317.608 569.54 317.608 569.76C317.668 570.24 317.928 570.32 317.928 570.32C317.708 571.9 317.648 574.04 317.648 575.3C317.648 575.9 317.648 576.3 317.668 576.34C317.808 576.62 318.228 576.64 318.368 576.64C318.408 576.64 318.428 576.64 318.428 576.64C318.428 576.64 318.408 576.74 318.408 576.86C318.408 577.26 318.788 577.52 319.108 577.52C319.368 577.52 319.348 577.32 319.648 577.02C320.028 576.66 324.188 573.48 324.188 571.5ZM328.015 563.28C328.015 563 327.955 562.86 327.855 562.74C327.655 562.52 327.495 562.44 327.355 562.44C327.175 562.44 327.055 562.56 326.915 562.68C326.655 562.9 326.595 564.62 326.355 567.22C326.115 569.66 325.695 573.96 325.695 576.34C325.695 577.24 325.775 577.88 325.935 577.98C326.115 578.12 326.275 578.16 326.415 578.16C326.815 578.16 326.895 577.58 326.895 577.14C326.895 576.46 326.835 575.74 326.835 575.1C326.835 573.5 326.935 571.58 327.175 569.7C327.675 565.5 328.015 563.98 328.015 563.28ZM334.23 569.7C333.61 570.26 333.27 570.48 332.75 570.78C331.51 571.54 330.39 571.6 330.39 571.6C330.39 571.6 331.01 570.78 332.03 570.26C332.75 569.88 333.49 569.7 334.23 569.7ZM338.17 573.16C338.17 572.82 337.87 572.52 337.57 572.52C337.23 572.52 337.01 573.04 336.89 573.26C336.69 573.54 333.59 576.08 332.01 576.08C331.13 576.08 330.75 575.6 330.39 575.02C329.95 574.34 329.85 573.72 329.85 573.3C329.85 572.94 329.91 572.72 329.91 572.72C330.47 572.68 331.69 572.56 332.93 571.8C334.07 571.12 335.77 569.84 335.77 569.34C335.77 569.28 335.75 569.24 335.69 569.2C335.21 568.88 334.63 568.74 333.97 568.74C331.87 568.74 329.29 570.28 328.77 572.54C328.71 572.78 328.69 573.02 328.69 573.26C328.69 574.74 329.61 576.32 330.91 576.92C331.17 577.04 331.47 577.1 331.79 577.1C334.05 577.1 337.27 574.16 337.71 573.92C337.97 573.74 338.17 573.44 338.17 573.16Z" fill="#005573"/>
<path d="M546.118 297.369C546.118 297.369 549.488 294.18 552 294.5C554.633 294.836 554.513 299.571 557 300.5C559.802 301.546 563.193 298.34 563.193 298.34" stroke="#005573" stroke-width="2"/>
<circle cx="349.539" cy="364.539" r="16.5395" stroke="#005573" stroke-width="2"/>
<circle cx="282.539" cy="535.539" r="16.5395" stroke="#005573" stroke-width="2"/>
<path d="M395.8 104.96V107H401.71V113.15H403.9V107H409.81V104.96H403.9V98.81H401.71V104.96H395.8Z" fill="#005573"/>
<path d="M396 118.5H410" stroke="#005573" stroke-width="2"/>
</svg>
