<svg width="519" height="91" viewBox="0 0 519 91" fill="none" xmlns="http://www.w3.org/2000/svg">
<path d="M23.761 22.3489C21.4257 23.3808 18.6004 26.3628 18.6004 26.3628C18.6004 26.3628 12.4937 23.3115 9.42595 25.2158C6.2367 27.1956 6.5589 34.3904 6.5589 34.3904L3.69188 37.2574C3.69188 37.2574 -0.114859 41.4511 3.6919 44.1383C7.49865 46.8255 7.33941 44.8915 11.1462 47.5787C14.9529 50.2659 16.0156 52.5596 19.7471 53.3128C24.1864 54.2089 27.6825 54.4259 31.2154 51.5926C32.9623 50.1916 32.7491 48.1796 34.6558 47.0053C36.2281 46.037 37.6852 46.8499 39.2431 45.8585C41.4462 44.4565 42.774 42.7343 42.6835 40.1245C42.5841 37.2585 39.3592 36.965 38.0962 34.3904C36.6842 31.512 38.1022 29.0645 36.376 26.3628C34.4697 23.3791 32.4514 21.4809 28.9217 21.2021C26.8636 21.0395 25.6494 21.5145 23.761 22.3489Z" stroke="#005573" stroke-width="2.29362"/>
<path d="M134.734 34.3905L191.446 34.3905L191.446 21.0266L210.804 37.0205L191.354 54.2818L191.391 41.0945L134.542 41.2715" stroke="#005573" stroke-width="2.29362"/>
<path d="M122.694 11.3215L122.694 20" stroke="#005573" stroke-width="2.29362"/>
<rect x="104.199" y="2.14681" width="29.8171" height="8.02768" rx="1.14681" stroke="#005573" stroke-width="2.29362"/>
<circle cx="117.702" cy="36.7022" r="17.4554" stroke="#005573" stroke-width="2.49362"/>
<path d="M38.0963 34.3906H99" stroke="#005573" stroke-width="2.29362"/>
<path d="M42.6835 41.2712H99.5001" stroke="#005573" stroke-width="2.29362"/>
<path d="M114.093 11.3215L114.093 19.5" stroke="#005573" stroke-width="2.29362"/>
<path d="M498.761 21.1785C496.426 22.2104 493.6 25.1923 493.6 25.1923C493.6 25.1923 487.494 22.1411 484.426 24.0454C481.237 26.0252 481.559 33.22 481.559 33.22L478.692 36.087C478.692 36.087 474.885 40.2807 478.692 42.9679C482.499 45.6551 482.339 43.7211 486.146 46.4083C489.953 49.0955 491.016 51.3892 494.747 52.1424C499.186 53.0384 502.682 53.2555 506.215 50.4221C507.962 49.0212 507.749 47.0092 509.656 45.8349C511.228 44.8666 512.685 45.6795 514.243 44.6881C516.446 43.2861 517.774 41.5639 517.684 38.9541C517.584 36.0881 514.359 35.7946 513.096 33.22C511.684 30.3415 513.102 27.8941 511.376 25.1923C509.47 22.2087 507.451 20.3105 503.922 20.0317C501.864 19.8691 500.649 20.3441 498.761 21.1785Z" stroke="#005573" stroke-width="2.29362"/>
<path d="M375.739 33.3906L448.317 33.3906L448.2 20.4254L473.078 36.5591L448.317 53.6859L448.317 40.2715L375.542 40.2715" stroke="#005573" stroke-width="2.29362"/>
<path d="M363.694 10.3215L363.694 19" stroke="#005573" stroke-width="2.29362"/>
<rect x="345.199" y="1.14681" width="29.8171" height="8.02768" rx="1.14681" stroke="#005573" stroke-width="2.29362"/>
<circle cx="358.702" cy="35.7022" r="17.4554" stroke="#005573" stroke-width="2.49362"/>
<path d="M279.096 33.3906H341.5" stroke="#005573" stroke-width="2.29362"/>
<path d="M279 40.2712H342" stroke="#005573" stroke-width="2.29362"/>
<path d="M355.093 10.3215L355.093 18.5" stroke="#005573" stroke-width="2.29362"/>
<path d="M339.38 71.78C339.38 72.14 339.26 72.5 339.12 72.78C337.64 75.98 330.24 79.9 330.24 79.9C330.24 79.9 329.88 78.1 329.88 76.12C329.88 75.92 329.9 75.7 329.9 75.5C329.98 73.32 330.18 71 330.52 68.18C330.52 68.18 330.92 68 332.34 67.98H332.42C335.24 67.98 339.38 69.5 339.38 71.78ZM340.58 71.7C340.56 69.08 336.4 66.98 332.02 66.98H331.72C329.9 67.02 327.84 67.48 327.14 67.92C326.96 68.04 326.88 68.18 326.88 68.34C326.88 68.68 327.26 69.02 327.6 69.02H327.68L329.18 68.5C329.18 68.5 328.9 72.6 328.82 74.4C328.8 74.66 328.8 74.94 328.8 75.26C328.8 77.34 329.04 80.28 329.04 80.28C328.96 80.54 328.86 80.82 328.86 81.1C328.86 81.36 328.94 81.62 329.08 81.76C329.1 81.78 329.12 81.78 329.14 81.78C329.18 81.78 329.22 81.76 329.26 81.76C329.4 81.76 329.44 81.94 329.58 81.94C330.38 81.9 330.46 81.54 330.46 81.28C330.46 81.1 330.52 81.06 330.52 81.06C334.04 78.94 340.58 75.22 340.58 71.7ZM345.02 73.7C344.4 74.26 344.06 74.48 343.54 74.78C342.3 75.54 341.18 75.6 341.18 75.6C341.18 75.6 341.8 74.78 342.82 74.26C343.54 73.88 344.28 73.7 345.02 73.7ZM348.96 77.16C348.96 76.82 348.66 76.52 348.36 76.52C348.02 76.52 347.8 77.04 347.68 77.26C347.48 77.54 344.38 80.08 342.8 80.08C341.92 80.08 341.54 79.6 341.18 79.02C340.74 78.34 340.64 77.72 340.64 77.3C340.64 76.94 340.7 76.72 340.7 76.72C341.26 76.68 342.48 76.56 343.72 75.8C344.86 75.12 346.56 73.84 346.56 73.34C346.56 73.28 346.54 73.24 346.48 73.2C346 72.88 345.42 72.74 344.76 72.74C342.66 72.74 340.08 74.28 339.56 76.54C339.5 76.78 339.48 77.02 339.48 77.26C339.48 78.74 340.4 80.32 341.7 80.92C341.96 81.04 342.26 81.1 342.58 81.1C344.84 81.1 348.06 78.16 348.5 77.92C348.76 77.74 348.96 77.44 348.96 77.16ZM353.497 79.3C353.497 79.3 352.157 80.42 351.177 80.42C350.677 80.42 350.497 80.14 350.497 79.7C350.497 78.7 351.337 77.62 352.337 77.62C352.997 77.62 353.497 79.3 353.497 79.3ZM355.497 76.66C355.497 75.1 355.097 73.5 353.717 72.64C353.397 72.44 353.017 72.36 352.597 72.36C351.437 72.36 350.137 73.04 350.137 73.72C350.157 74.08 350.497 74.22 350.717 74.22C350.817 74.22 350.877 74.2 350.877 74.12C350.917 73.84 351.697 73.3 352.497 73.3C354.077 73.3 354.497 75.54 354.497 76.7C354.497 77.78 354.177 78.52 354.177 78.52C353.877 77.6 353.377 76.62 352.277 76.62C350.737 76.62 349.557 78.44 349.557 79.78C349.557 80.74 350.137 81.36 351.137 81.36C352.377 81.36 353.797 80.36 353.797 80.36C353.797 80.36 353.857 80.7 353.977 80.82C354.077 80.94 354.257 80.98 354.397 80.98C354.497 80.98 354.597 80.96 354.637 80.9C354.737 80.84 355.497 78.78 355.497 76.66ZM365.39 72.52C365.35 71.96 364.63 71.98 364.21 71.96C364.03 71.96 363.85 71.94 363.67 71.94C362.25 71.94 361.05 72.2 361.05 72.2C361.23 70.9 361.35 70.58 361.47 69.38C361.51 68.96 361.53 68.6 361.53 68.3C361.53 67.24 361.29 66.86 360.91 66.86C360.53 66.86 360.45 67.22 360.45 67.64C360.45 67.92 360.49 68.2 360.49 68.54C360.49 69.22 360.01 72.38 360.01 72.38C358.81 72.7 358.55 72.8 357.41 73.24C356.31 73.66 356.27 73.8 356.17 74.1C356.15 74.16 356.15 74.2 356.15 74.24C356.15 74.52 356.55 74.82 356.77 74.82C357.13 74.82 357.81 74.2 358.15 74.04C358.87 73.7 359.85 73.48 359.85 73.48C359.75 74.34 359.67 74.74 359.53 76.16C359.31 78.2 359.31 79.44 359.31 80.34C359.31 80.66 359.41 81.4 360.01 81.44H360.09C360.47 81.44 360.57 81.22 360.57 80.96C360.57 80.72 360.47 80.44 360.47 80.36C360.45 80.06 360.45 79.72 360.45 79.38C360.45 76.72 360.87 73.5 360.89 73.26C361.61 73.1 362.99 72.82 364.23 72.82C364.39 72.82 364.67 72.88 364.91 72.88C365.17 72.88 365.39 72.82 365.39 72.52ZM373.089 77.68C373.089 75.66 372.849 73.52 371.769 73.14C371.589 73.08 371.409 73.06 371.229 73.06C369.149 73.06 366.449 76.58 366.449 76.58C366.529 74.76 366.669 73.1 366.829 71.44C366.969 69.88 367.269 68.84 367.269 68.22C367.269 67.76 367.089 67.5 366.569 67.5C365.869 67.5 366.049 69.22 365.689 72.52C365.149 77.46 365.389 79.9 365.169 80.36C365.049 80.62 364.909 80.92 364.909 81.2C364.909 81.62 365.229 81.86 365.589 81.86C365.949 81.86 366.349 81.64 366.349 80.9C366.349 80.66 366.309 80.44 366.309 80.22C366.309 79.68 366.389 78.74 366.829 77.8C367.389 76.6 369.889 74.16 371.089 74.16C371.209 74.16 371.329 74.18 371.409 74.24C371.849 74.52 371.989 76.28 371.989 77.78C371.989 78.86 371.909 79.54 371.909 80.1C371.909 80.62 372.049 81.04 372.529 81.04C372.989 81.04 373.069 80.86 373.069 80.58C373.069 80.38 373.029 80.1 373.029 79.78C373.029 79.2 373.089 78.36 373.089 77.68ZM380.292 71.56V71.48C380.272 71.24 379.572 70.88 379.312 70.76C379.192 70.7 379.032 70.66 378.852 70.66C378.592 70.66 378.272 70.74 378.032 70.94C376.712 72.04 374.192 73.92 374.192 76.12C374.192 79.12 378.792 78.92 379.072 79.9C379.072 80.62 376.172 81.6 376.052 81.8C375.972 81.9 375.932 82 375.932 82.1C375.932 82.38 376.232 82.62 376.652 82.64C376.952 82.64 380.232 80.92 380.232 80.1C380.232 78.86 379.092 78.66 377.872 78.18C376.552 77.68 375.232 77.28 375.232 76.12C375.232 75.5 375.732 74.34 376.632 73.54C378.212 72.12 378.432 71.7 379.112 71.68C379.272 71.68 379.492 71.92 379.872 71.92C380.172 71.92 380.292 71.76 380.292 71.56Z" fill="#005573"/>
<path d="M102.42 68.08C102.42 68.48 101.42 69.54 98.92 71.2C97.64 72.04 95.48 73.14 95.48 73.14C95.48 73.14 95.44 72.54 95.44 71.8C95.44 70.96 95.5 69.92 95.72 69.58C96.14 68.94 100.22 67.84 101.8 67.84C102.04 67.84 102.42 67.84 102.42 68.08ZM105.5 75.82C105.5 73.04 100.76 72.7 98.8 72.7C98.66 72.7 98.58 72.7 98.58 72.7C99.72 71.9 100.68 71.4 102.6 69.56C102.96 69.22 103.58 68.38 103.58 67.68C103.58 66.86 102.44 66.86 101.92 66.86C99.52 66.86 95.66 68.1 95.66 68.1C95.62 67.94 95.54 67.66 95.18 67.66C94.66 67.66 94.4 68.16 94.4 68.56C94 68.86 93.72 69.06 93.72 69.58V69.66C93.74 70.2 94.46 70.22 94.46 70.22C94.44 70.7 94.4 73.36 94.4 74.46C94.4 75.5 94.46 76.56 94.46 77.58C94.46 77.86 94.46 78.08 94.44 78.16C94.4 78.4 94.4 78.6 94.4 78.78C94.4 79.32 94.52 79.64 94.58 79.92C94.62 80.14 95.1 80.3 95.48 80.3C95.72 80.3 95.9 80.24 95.94 80.12C96 79.88 96.04 79.72 96.04 79.56C96.04 79.3 95.96 79.08 95.82 78.52C95.66 77.84 95.58 77.88 95.56 75.64C95.56 75 95.56 74.46 95.56 74.46C96.4 74.06 98.14 73.76 98.94 73.76C102.3 73.76 104.36 74.74 104.36 75.72C104.36 77.74 101.66 79.9 100.24 80.36C99.96 80.46 98.84 80.56 98.6 80.6C98.26 80.66 97.8 81 97.8 81.44C97.8 81.88 98.12 82.16 98.56 82.16C98.74 82.16 98.9 82.12 98.98 82.06C99.22 81.9 100.28 81.68 102.06 80.58C103.32 79.82 105.48 77.58 105.5 75.82ZM108.086 73.58C108.086 73.12 107.806 72.82 107.466 72.82C106.766 72.86 106.846 74 106.786 75.1C106.686 77.02 106.586 78.46 106.586 79.42C106.586 80.14 106.646 80.58 106.826 80.72C106.986 80.84 107.166 80.9 107.306 80.9C107.706 80.9 107.846 80.58 107.846 80.24C107.846 79.88 107.606 79.84 107.606 78.94V78.56C107.606 77.78 108.086 74.26 108.086 73.58ZM108.126 66.94C108.126 66.62 107.906 66.38 107.626 66.38C107.106 66.38 107.266 66.84 106.846 67.7C106.606 68.22 106.506 68.68 106.506 69.04C106.506 69.32 106.566 69.72 106.866 69.72C107.006 69.72 107.126 69.64 107.226 69.54C107.426 69.34 107.286 69 107.586 68.26C107.846 67.62 108.106 67.28 108.126 67.02V66.94ZM117.534 73.04C117.534 72.8 117.374 72.56 117.254 72.52C116.914 72.4 116.614 72.36 116.334 72.36C115.134 72.36 114.314 73.28 113.574 73.98C112.294 75.16 110.914 77 110.914 77C110.914 75.66 110.914 75.28 110.894 74.58C110.854 73.36 110.794 72.9 110.494 72.62C110.334 72.48 110.194 72.42 110.054 72.42C109.854 72.42 109.454 72.66 109.454 72.88C109.454 73.12 109.894 73.54 109.894 76.04C109.894 76.44 109.874 76.88 109.854 77.4C109.774 78.94 109.534 79.96 109.534 80.56C109.534 80.82 109.574 81 109.694 81.12C109.834 81.26 110.034 81.36 110.234 81.36C110.394 81.36 110.554 81.3 110.674 81.14C110.934 80.8 110.674 79.26 111.414 78.14C112.854 75.96 114.374 74.26 115.634 73.52C115.834 73.4 116.014 73.36 116.154 73.36C116.474 73.36 116.694 73.54 116.954 73.54C117.254 73.54 117.534 73.3 117.534 73.04ZM125.481 72.52C125.441 71.96 124.721 71.98 124.301 71.96C124.121 71.96 123.941 71.94 123.761 71.94C122.341 71.94 121.141 72.2 121.141 72.2C121.321 70.9 121.441 70.58 121.561 69.38C121.601 68.96 121.621 68.6 121.621 68.3C121.621 67.24 121.381 66.86 121.001 66.86C120.621 66.86 120.541 67.22 120.541 67.64C120.541 67.92 120.581 68.2 120.581 68.54C120.581 69.22 120.101 72.38 120.101 72.38C118.901 72.7 118.641 72.8 117.501 73.24C116.401 73.66 116.361 73.8 116.261 74.1C116.241 74.16 116.241 74.2 116.241 74.24C116.241 74.52 116.641 74.82 116.861 74.82C117.221 74.82 117.901 74.2 118.241 74.04C118.961 73.7 119.941 73.48 119.941 73.48C119.841 74.34 119.761 74.74 119.621 76.16C119.401 78.2 119.401 79.44 119.401 80.34C119.401 80.66 119.501 81.4 120.101 81.44H120.181C120.561 81.44 120.661 81.22 120.661 80.96C120.661 80.72 120.561 80.44 120.561 80.36C120.541 80.06 120.541 79.72 120.541 79.38C120.541 76.72 120.961 73.5 120.981 73.26C121.701 73.1 123.081 72.82 124.321 72.82C124.481 72.82 124.761 72.88 125.001 72.88C125.261 72.88 125.481 72.82 125.481 72.52ZM132.481 77.68C132.481 75.66 132.241 73.52 131.161 73.14C130.981 73.08 130.801 73.06 130.621 73.06C128.541 73.06 125.841 76.58 125.841 76.58C125.921 74.76 126.061 73.1 126.221 71.44C126.361 69.88 126.661 68.84 126.661 68.22C126.661 67.76 126.481 67.5 125.961 67.5C125.261 67.5 125.441 69.22 125.081 72.52C124.541 77.46 124.781 79.9 124.561 80.36C124.441 80.62 124.301 80.92 124.301 81.2C124.301 81.62 124.621 81.86 124.981 81.86C125.341 81.86 125.741 81.64 125.741 80.9C125.741 80.66 125.701 80.44 125.701 80.22C125.701 79.68 125.781 78.74 126.221 77.8C126.781 76.6 129.281 74.16 130.481 74.16C130.601 74.16 130.721 74.18 130.801 74.24C131.241 74.52 131.381 76.28 131.381 77.78C131.381 78.86 131.301 79.54 131.301 80.1C131.301 80.62 131.441 81.04 131.921 81.04C132.381 81.04 132.461 80.86 132.461 80.58C132.461 80.38 132.421 80.1 132.421 79.78C132.421 79.2 132.481 78.36 132.481 77.68ZM138.983 71.56V71.48C138.963 71.24 138.263 70.88 138.003 70.76C137.883 70.7 137.723 70.66 137.543 70.66C137.283 70.66 136.963 70.74 136.723 70.94C135.403 72.04 132.883 73.92 132.883 76.12C132.883 79.12 137.483 78.92 137.763 79.9C137.763 80.62 134.863 81.6 134.743 81.8C134.663 81.9 134.623 82 134.623 82.1C134.623 82.38 134.923 82.62 135.343 82.64C135.643 82.64 138.923 80.92 138.923 80.1C138.923 78.86 137.783 78.66 136.563 78.18C135.243 77.68 133.923 77.28 133.923 76.12C133.923 75.5 134.423 74.34 135.323 73.54C136.903 72.12 137.123 71.7 137.803 71.68C137.963 71.68 138.183 71.92 138.563 71.92C138.863 71.92 138.983 71.76 138.983 71.56Z" fill="#005573"/>
</svg>
