<svg width="178" height="138" viewBox="0 0 178 138" fill="none" xmlns="http://www.w3.org/2000/svg">
<rect x="1" y="29" width="175.017" height="108" stroke="#005573" stroke-width="2"/>
<path d="M65.28 7.96C65.26 9.9 56.72 13.22 56.72 13.22L56.86 10.68C56.9 9.88 57.02 8.2 57.02 8.2C57.68 8.16 58.36 8.1 58.9 7.98C59.32 7.88 61.84 7.54 63.6 7.54C64.56 7.54 65.28 7.64 65.28 7.96ZM66.72 7.74C66.72 7.52 66.64 7.3 66.5 7.1C66.2 6.7 65.12 6.56 63.8 6.56C61.3 6.56 57.94 7.04 57.36 7.04C56.84 6.98 56.88 6.68 56.38 6.68C55.98 6.68 55.62 7.16 55.62 7.56C55.62 7.62 55.64 7.7 55.66 7.76C55.74 7.98 55.78 8.48 55.78 9.06C55.78 9.64 55.74 10.32 55.72 10.84C55.66 11.9 55.46 14.3 55.46 14.3C55.34 14.46 55.34 14.6 55.34 14.7C55.34 14.82 55.46 15.08 55.46 15.08C55.32 17.5 55.36 18.7 55.26 19.84C55.24 20.04 55.22 20.24 55.22 20.42C55.22 20.82 55.42 21.12 55.8 21.12C56.12 21.12 56.5 20.9 56.5 20.22C56.5 20.08 56.48 19.9 56.44 19.7C56.4 19.52 56.38 19.18 56.38 18.74C56.38 17.18 56.58 14.5 56.58 14.5C59 13.48 66.72 10.06 66.72 7.74ZM65.8039 14C66.9039 14 67.3839 15.28 67.3839 16.16C67.3839 16.86 67.1439 17.56 66.8039 18.22C66.4239 18.94 65.1639 20.04 64.2439 20.04C63.3239 20.04 62.9439 18.74 62.9439 18.02C62.9439 17.74 62.9839 17.46 63.0639 17.24C64.0839 14.22 65.6439 14 65.8039 14ZM68.3839 16.4C68.3839 16.18 68.3639 15.98 68.3439 15.74C68.1239 13.56 66.4439 12.86 65.6439 12.86C64.4839 12.86 63.3239 13.92 62.2039 16.46C61.9639 17 61.8639 17.52 61.8639 18.04C61.8639 19.36 62.6039 21.08 64.0239 21.08C65.7039 21.08 68.3839 19.26 68.3839 16.4ZM73.9252 16.08C73.9252 16.16 73.9252 16.2 73.9052 16.3C73.4252 18.48 70.3252 20 70.3252 20C70.3252 20 70.6252 17.5 70.8052 16.32C70.9852 15.16 71.3052 13.6 71.3052 13.6C72.4652 13.68 73.9252 15.1 73.9252 16.08ZM75.0052 16.24C75.0052 13.9 72.2852 12.52 70.8852 12.5C70.5852 12.5 69.4652 12.78 69.4652 13.38C69.4652 13.84 69.9652 13.98 69.9652 13.98C69.4852 17.6 69.2252 19.02 69.0452 23.18C69.0252 23.82 69.0052 24.4 69.0052 24.92C69.0052 26.74 69.1252 27.86 69.1252 28.3C69.1252 28.42 69.1252 28.48 69.1052 28.5C69.0452 28.6 69.0252 28.72 69.0252 28.86C69.0252 29.26 69.3052 29.7 69.7252 29.7C69.9852 29.7 70.2052 29.46 70.2052 29.12C70.2052 29 70.1652 28.88 70.1052 28.74C70.0652 28.64 70.0052 27.74 70.0052 26.3V24.98C70.0052 22.24 70.2852 20.46 70.2852 20.46C70.3452 20.68 70.6652 20.98 70.9652 20.98C71.3652 20.98 75.0052 18 75.0052 16.24ZM81.2483 13.9C81.2483 13.9 81.2083 13.1 80.6883 13.1C80.0683 13.1 80.0483 13.54 80.0483 13.82C80.0283 14.34 79.6883 17.58 78.6883 19.34C78.5483 19.58 78.4083 19.68 78.2883 19.68C77.6083 19.68 76.9083 17.14 76.9083 13.94C76.9083 13.68 76.9283 13.42 76.9283 13.14C76.9283 12.88 76.7683 12.38 76.3283 12.38H76.2283C76.0083 12.38 75.8283 12.54 75.8283 13.02C75.8483 13.76 75.9083 20.92 78.2683 20.92C78.4483 20.92 78.6683 20.86 78.8883 20.76C80.0883 20.2 81.2483 14.28 81.2483 13.9ZM84.9227 7.28C84.9227 7 84.8627 6.86 84.7627 6.74C84.5627 6.52 84.4027 6.44 84.2627 6.44C84.0827 6.44 83.9627 6.56 83.8227 6.68C83.5627 6.9 83.5027 8.62 83.2627 11.22C83.0227 13.66 82.6027 17.96 82.6027 20.34C82.6027 21.24 82.6827 21.88 82.8427 21.98C83.0227 22.12 83.1827 22.16 83.3227 22.16C83.7227 22.16 83.8027 21.58 83.8027 21.14C83.8027 20.46 83.7427 19.74 83.7427 19.1C83.7427 17.5 83.8427 15.58 84.0827 13.7C84.5827 9.5 84.9227 7.98 84.9227 7.28ZM89.4789 19.3C89.4789 19.3 88.1389 20.42 87.1589 20.42C86.6589 20.42 86.4789 20.14 86.4789 19.7C86.4789 18.7 87.3189 17.62 88.3189 17.62C88.9789 17.62 89.4789 19.3 89.4789 19.3ZM91.4789 16.66C91.4789 15.1 91.0789 13.5 89.6989 12.64C89.3789 12.44 88.9989 12.36 88.5789 12.36C87.4189 12.36 86.1189 13.04 86.1189 13.72C86.1389 14.08 86.4789 14.22 86.6989 14.22C86.7989 14.22 86.8589 14.2 86.8589 14.12C86.8989 13.84 87.6789 13.3 88.4789 13.3C90.0589 13.3 90.4789 15.54 90.4789 16.7C90.4789 17.78 90.1589 18.52 90.1589 18.52C89.8589 17.6 89.3589 16.62 88.2589 16.62C86.7189 16.62 85.5389 18.44 85.5389 19.78C85.5389 20.74 86.1189 21.36 87.1189 21.36C88.3589 21.36 89.7789 20.36 89.7789 20.36C89.7789 20.36 89.8389 20.7 89.9589 20.82C90.0589 20.94 90.2389 20.98 90.3789 20.98C90.4789 20.98 90.5789 20.96 90.6189 20.9C90.7189 20.84 91.4789 18.78 91.4789 16.66ZM102.252 6.94C102.252 6.62 102.032 6.38 101.752 6.38C101.232 6.38 101.392 6.84 100.972 7.7C100.732 8.22 100.632 8.68 100.632 9.04C100.632 9.32 100.692 9.72 100.992 9.72C101.132 9.72 101.252 9.62 101.352 9.52C101.552 9.32 101.412 9 101.712 8.26C101.972 7.62 102.232 7.28 102.252 7.02V6.94ZM100.952 12.88C100.512 13.14 100.572 14.14 100.512 15.1C100.412 17.02 100.312 18.46 100.312 19.42C100.312 20.14 100.372 20.58 100.552 20.72C100.712 20.84 100.892 20.9 101.032 20.9C101.432 20.9 101.572 20.58 101.572 20.24C101.572 19.88 101.332 19.84 101.332 18.94V18.56C101.332 17.78 101.812 14.26 101.812 13.58C101.812 13.16 101.572 12.86 101.272 12.82C101.372 12.78 101.432 12.68 101.432 12.52C101.392 12.02 100.752 12.02 100.252 11.98C100.072 11.96 99.5317 11.94 99.3517 11.94C97.9317 11.94 96.7317 12.2 96.7317 12.2C96.9117 10.9 97.0317 10.58 97.1517 9.38C97.1917 8.96 97.2117 8.6 97.2117 8.3C97.2117 7.24 96.9717 6.86 96.5917 6.86C96.2117 6.86 96.1317 7.22 96.1317 7.64C96.1317 7.92 96.1717 8.2 96.1717 8.42V8.54C95.9717 10.74 95.6917 12.38 95.6917 12.38C94.4917 12.7 94.2317 12.8 93.0917 13.24C91.9917 13.66 91.9517 13.82 91.8517 14.12C91.8317 14.16 91.8317 14.2 91.8317 14.24C91.8317 14.52 92.1117 14.74 92.4517 14.82C92.8117 14.82 93.4917 14.2 93.8317 14.04C94.5517 13.7 95.5317 13.48 95.5317 13.48C95.4317 14.34 95.3517 14.74 95.2117 16.16C94.9917 18.2 94.9917 19.44 94.9917 20.34C94.9917 20.66 95.0917 21.4 95.6917 21.44H95.7717C96.1517 21.44 96.2517 21.22 96.2517 20.96C96.2517 20.72 96.1517 20.44 96.1517 20.36C96.1317 20.06 96.1317 19.72 96.1317 19.38C96.1317 16.72 96.5517 13.5 96.5717 13.26C97.2917 13.1 98.6717 12.82 100.272 12.82C100.432 12.82 100.712 12.88 100.952 12.88ZM106.863 14C107.963 14 108.442 15.28 108.442 16.16C108.442 16.86 108.203 17.56 107.863 18.22C107.483 18.94 106.223 20.04 105.303 20.04C104.383 20.04 104.003 18.74 104.003 18.02C104.003 17.74 104.043 17.46 104.123 17.24C105.143 14.22 106.703 14 106.863 14ZM109.443 16.4C109.443 16.18 109.423 15.98 109.403 15.74C109.183 13.56 107.503 12.86 106.703 12.86C105.543 12.86 104.383 13.92 103.263 16.46C103.023 17 102.923 17.52 102.923 18.04C102.923 19.36 103.663 21.08 105.083 21.08C106.763 21.08 109.443 19.26 109.443 16.4ZM116.717 21.5C116.717 21.18 116.517 20.8 116.377 20.52C116.337 20.38 116.317 20.02 116.317 19.22V16.92C116.317 14.32 116.217 12.46 115.277 12.26H115.197C113.957 12.26 111.837 16.86 111.837 16.86C111.817 16.7 111.817 16.58 111.817 16.48C111.817 16.22 111.857 15.98 111.857 15.4C111.857 14.24 112.057 13.48 112.057 13.04C112.057 12.88 112.037 12.78 111.977 12.7C111.857 12.54 111.597 12.38 111.337 12.38C111.137 12.38 110.957 12.5 110.897 12.84C110.857 13.12 110.677 14.56 110.637 16.44C110.597 18.6 110.477 19.76 110.477 20.4C110.477 20.72 110.517 20.92 110.597 21.06C110.737 21.24 110.897 21.3 111.037 21.3C111.177 21.3 111.317 21.24 111.417 21.2C111.657 21.02 111.637 20.5 112.237 18.88C113.137 16.44 114.617 13.68 114.977 13.68C115.217 13.68 115.237 15.3 115.237 15.54L115.217 17.48C115.217 19.28 115.417 20.22 115.417 20.64C115.417 20.84 115.357 20.96 115.357 21.1C115.357 21.64 115.857 22 116.257 22C116.557 22 116.717 21.74 116.717 21.5Z" fill="#005573"/>
</svg>
