<svg width="645" height="210" viewBox="0 0 645 210" fill="none" xmlns="http://www.w3.org/2000/svg">
<path d="M23.761 102.349C21.4257 103.381 18.6004 106.363 18.6004 106.363C18.6004 106.363 12.4937 103.312 9.42595 105.216C6.2367 107.196 6.5589 114.39 6.5589 114.39L3.69188 117.257C3.69188 117.257 -0.114859 121.451 3.6919 124.138C7.49865 126.825 7.33941 124.892 11.1462 127.579C14.9529 130.266 16.0156 132.56 19.7471 133.313C24.1864 134.209 27.6825 134.426 31.2154 131.593C32.9623 130.192 32.7491 128.18 34.6558 127.005C36.2281 126.037 37.6852 126.85 39.2431 125.859C41.4462 124.457 42.774 122.734 42.6835 120.124C42.5841 117.259 39.3592 116.965 38.0962 114.39C36.6842 111.512 38.1022 109.065 36.376 106.363C34.4697 103.379 32.4514 101.481 28.9217 101.202C26.8636 101.04 25.6494 101.514 23.761 102.349Z" stroke="#005573" stroke-width="2.29362"/>
<path d="M134.734 114.39L191.446 114.39L191.446 101.027L210.804 117.021L191.354 134.282L191.391 121.094L134.542 121.272" stroke="#005573" stroke-width="2.29362"/>
<path d="M122.694 91.3215L122.694 100" stroke="#005573" stroke-width="2.29362"/>
<rect x="104.199" y="82.1468" width="29.8171" height="8.02768" rx="1.14681" stroke="#005573" stroke-width="2.29362"/>
<circle cx="117.702" cy="116.702" r="17.4554" stroke="#005573" stroke-width="2.49362"/>
<path d="M38.0963 114.391H99" stroke="#005573" stroke-width="2.29362"/>
<path d="M42.6835 121.271H99.5" stroke="#005573" stroke-width="2.29362"/>
<path d="M114.093 91.3215L114.093 99.5" stroke="#005573" stroke-width="2.29362"/>
<path d="M624.761 93.1785C622.426 94.2104 619.6 97.1923 619.6 97.1923C619.6 97.1923 613.494 94.1411 610.426 96.0454C607.237 98.0252 607.559 105.22 607.559 105.22L604.692 108.087C604.692 108.087 600.885 112.281 604.692 114.968C608.499 117.655 608.339 115.721 612.146 118.408C615.953 121.095 617.016 123.389 620.747 124.142C625.186 125.038 628.682 125.255 632.215 122.422C633.962 121.021 633.749 119.009 635.656 117.835C637.228 116.867 638.685 117.679 640.243 116.688C642.446 115.286 643.774 113.564 643.684 110.954C643.584 108.088 640.359 107.795 639.096 105.22C637.684 102.342 639.102 99.8941 637.376 97.1923C635.47 94.2087 633.451 92.3105 629.922 92.0317C627.864 91.8691 626.649 92.3441 624.761 93.1785Z" stroke="#005573" stroke-width="2.29362"/>
<path d="M499.5 105.391L574.317 105.391L574.2 92.4253L599.078 108.559L574.317 125.686L574.317 112.271L499.5 112.271" stroke="#005573" stroke-width="2.29362"/>
<path d="M486.694 82.3215L486.694 93" stroke="#005573" stroke-width="2.29362"/>
<rect x="467.199" y="73.1468" width="29.8171" height="8.02768" rx="1.14681" stroke="#005573" stroke-width="2.29362"/>
<circle cx="482.702" cy="109.702" r="17.4554" stroke="#005573" stroke-width="2.49362"/>
<path d="M393 105.391H466" stroke="#005573" stroke-width="2.29362"/>
<path d="M393 112.271H465" stroke="#005573" stroke-width="2.29362"/>
<path d="M478.093 82.3215V92.5" stroke="#005573" stroke-width="2.29362"/>
<path d="M464.38 153.78C464.38 154.14 464.26 154.5 464.12 154.78C462.64 157.98 455.24 161.9 455.24 161.9C455.24 161.9 454.88 160.1 454.88 158.12C454.88 157.92 454.9 157.7 454.9 157.5C454.98 155.32 455.18 153 455.52 150.18C455.52 150.18 455.92 150 457.34 149.98H457.42C460.24 149.98 464.38 151.5 464.38 153.78ZM465.58 153.7C465.56 151.08 461.4 148.98 457.02 148.98H456.72C454.9 149.02 452.84 149.48 452.14 149.92C451.96 150.04 451.88 150.18 451.88 150.34C451.88 150.68 452.26 151.02 452.6 151.02H452.68L454.18 150.5C454.18 150.5 453.9 154.6 453.82 156.4C453.8 156.66 453.8 156.94 453.8 157.26C453.8 159.34 454.04 162.28 454.04 162.28C453.96 162.54 453.86 162.82 453.86 163.1C453.86 163.36 453.94 163.62 454.08 163.76C454.1 163.78 454.12 163.78 454.14 163.78C454.18 163.78 454.22 163.76 454.26 163.76C454.4 163.76 454.44 163.94 454.58 163.94C455.38 163.9 455.46 163.54 455.46 163.28C455.46 163.1 455.52 163.06 455.52 163.06C459.04 160.94 465.58 157.22 465.58 153.7ZM470.02 155.7C469.4 156.26 469.06 156.48 468.54 156.78C467.3 157.54 466.18 157.6 466.18 157.6C466.18 157.6 466.8 156.78 467.82 156.26C468.54 155.88 469.28 155.7 470.02 155.7ZM473.96 159.16C473.96 158.82 473.66 158.52 473.36 158.52C473.02 158.52 472.8 159.04 472.68 159.26C472.48 159.54 469.38 162.08 467.8 162.08C466.92 162.08 466.54 161.6 466.18 161.02C465.74 160.34 465.64 159.72 465.64 159.3C465.64 158.94 465.7 158.72 465.7 158.72C466.26 158.68 467.48 158.56 468.72 157.8C469.86 157.12 471.56 155.84 471.56 155.34C471.56 155.28 471.54 155.24 471.48 155.2C471 154.88 470.42 154.74 469.76 154.74C467.66 154.74 465.08 156.28 464.56 158.54C464.5 158.78 464.48 159.02 464.48 159.26C464.48 160.74 465.4 162.32 466.7 162.92C466.96 163.04 467.26 163.1 467.58 163.1C469.84 163.1 473.06 160.16 473.5 159.92C473.76 159.74 473.96 159.44 473.96 159.16ZM478.497 161.3C478.497 161.3 477.157 162.42 476.177 162.42C475.677 162.42 475.497 162.14 475.497 161.7C475.497 160.7 476.337 159.62 477.337 159.62C477.997 159.62 478.497 161.3 478.497 161.3ZM480.497 158.66C480.497 157.1 480.097 155.5 478.717 154.64C478.397 154.44 478.017 154.36 477.597 154.36C476.437 154.36 475.137 155.04 475.137 155.72C475.157 156.08 475.497 156.22 475.717 156.22C475.817 156.22 475.877 156.2 475.877 156.12C475.917 155.84 476.697 155.3 477.497 155.3C479.077 155.3 479.497 157.54 479.497 158.7C479.497 159.78 479.177 160.52 479.177 160.52C478.877 159.6 478.377 158.62 477.277 158.62C475.737 158.62 474.557 160.44 474.557 161.78C474.557 162.74 475.137 163.36 476.137 163.36C477.377 163.36 478.797 162.36 478.797 162.36C478.797 162.36 478.857 162.7 478.977 162.82C479.077 162.94 479.257 162.98 479.397 162.98C479.497 162.98 479.597 162.96 479.637 162.9C479.737 162.84 480.497 160.78 480.497 158.66ZM490.39 154.52C490.35 153.96 489.63 153.98 489.21 153.96C489.03 153.96 488.85 153.94 488.67 153.94C487.25 153.94 486.05 154.2 486.05 154.2C486.23 152.9 486.35 152.58 486.47 151.38C486.51 150.96 486.53 150.6 486.53 150.3C486.53 149.24 486.29 148.86 485.91 148.86C485.53 148.86 485.45 149.22 485.45 149.64C485.45 149.92 485.49 150.2 485.49 150.54C485.49 151.22 485.01 154.38 485.01 154.38C483.81 154.7 483.55 154.8 482.41 155.24C481.31 155.66 481.27 155.8 481.17 156.1C481.15 156.16 481.15 156.2 481.15 156.24C481.15 156.52 481.55 156.82 481.77 156.82C482.13 156.82 482.81 156.2 483.15 156.04C483.87 155.7 484.85 155.48 484.85 155.48C484.75 156.34 484.67 156.74 484.53 158.16C484.31 160.2 484.31 161.44 484.31 162.34C484.31 162.66 484.41 163.4 485.01 163.44H485.09C485.47 163.44 485.57 163.22 485.57 162.96C485.57 162.72 485.47 162.44 485.47 162.36C485.45 162.06 485.45 161.72 485.45 161.38C485.45 158.72 485.87 155.5 485.89 155.26C486.61 155.1 487.99 154.82 489.23 154.82C489.39 154.82 489.67 154.88 489.91 154.88C490.17 154.88 490.39 154.82 490.39 154.52ZM498.089 159.68C498.089 157.66 497.849 155.52 496.769 155.14C496.589 155.08 496.409 155.06 496.229 155.06C494.149 155.06 491.449 158.58 491.449 158.58C491.529 156.76 491.669 155.1 491.829 153.44C491.969 151.88 492.269 150.84 492.269 150.22C492.269 149.76 492.089 149.5 491.569 149.5C490.869 149.5 491.049 151.22 490.689 154.52C490.149 159.46 490.389 161.9 490.169 162.36C490.049 162.62 489.909 162.92 489.909 163.2C489.909 163.62 490.229 163.86 490.589 163.86C490.949 163.86 491.349 163.64 491.349 162.9C491.349 162.66 491.309 162.44 491.309 162.22C491.309 161.68 491.389 160.74 491.829 159.8C492.389 158.6 494.889 156.16 496.089 156.16C496.209 156.16 496.329 156.18 496.409 156.24C496.849 156.52 496.989 158.28 496.989 159.78C496.989 160.86 496.909 161.54 496.909 162.1C496.909 162.62 497.049 163.04 497.529 163.04C497.989 163.04 498.069 162.86 498.069 162.58C498.069 162.38 498.029 162.1 498.029 161.78C498.029 161.2 498.089 160.36 498.089 159.68ZM505.292 153.56V153.48C505.272 153.24 504.572 152.88 504.312 152.76C504.192 152.7 504.032 152.66 503.852 152.66C503.592 152.66 503.272 152.74 503.032 152.94C501.712 154.04 499.192 155.92 499.192 158.12C499.192 161.12 503.792 160.92 504.072 161.9C504.072 162.62 501.172 163.6 501.052 163.8C500.972 163.9 500.932 164 500.932 164.1C500.932 164.38 501.232 164.62 501.652 164.64C501.952 164.64 505.232 162.92 505.232 162.1C505.232 160.86 504.092 160.66 502.872 160.18C501.552 159.68 500.232 159.28 500.232 158.12C500.232 157.5 500.732 156.34 501.632 155.54C503.212 154.12 503.432 153.7 504.112 153.68C504.272 153.68 504.492 153.92 504.872 153.92C505.172 153.92 505.292 153.76 505.292 153.56Z" fill="#005573"/>
<path d="M211 207.5L210.986 209L211 207.5ZM154.5 183L155.516 181.896L154.5 183ZM126.5 133.5L124.068 150.649L140.135 144.181L126.5 133.5ZM269 183L270.038 184.083L269 183ZM211.014 206C199.165 205.888 189.676 203.868 180.989 199.908C172.284 195.94 164.305 189.988 155.516 181.896L153.484 184.103C162.388 192.301 170.634 198.485 179.744 202.638C188.871 206.799 198.786 208.884 210.986 209L211.014 206ZM155.516 181.896C150.915 177.66 146.527 171.453 142.639 164.8C138.761 158.164 135.429 151.17 132.917 145.425L130.168 146.627C132.708 152.436 136.092 159.543 140.049 166.314C143.995 173.066 148.56 179.57 153.484 184.103L155.516 181.896ZM294 139C292.586 138.5 292.586 138.5 292.586 138.5C292.586 138.5 292.586 138.5 292.586 138.5C292.585 138.501 292.585 138.502 292.584 138.504C292.583 138.507 292.581 138.512 292.579 138.519C292.574 138.532 292.567 138.553 292.557 138.581C292.537 138.637 292.507 138.721 292.466 138.831C292.386 139.052 292.266 139.38 292.107 139.803C291.789 140.649 291.319 141.877 290.709 143.393C289.489 146.428 287.716 150.615 285.5 155.224C281.047 164.49 274.892 175.28 267.962 181.917L270.038 184.083C277.381 177.05 283.726 165.84 288.204 156.524C290.455 151.842 292.255 147.592 293.493 144.512C294.112 142.972 294.591 141.723 294.916 140.857C295.078 140.424 295.202 140.087 295.286 139.857C295.327 139.742 295.359 139.654 295.381 139.594C295.391 139.564 295.4 139.541 295.405 139.525C295.408 139.517 295.41 139.511 295.412 139.507C295.412 139.505 295.413 139.503 295.413 139.502C295.414 139.502 295.414 139.501 295.414 139.501C295.414 139.5 295.414 139.5 294 139ZM267.962 181.917C259.158 190.349 250.949 196.407 241.96 200.341C232.982 204.269 223.138 206.115 211.014 206L210.986 209C223.449 209.118 233.726 207.218 243.162 203.089C252.586 198.966 261.084 192.658 270.038 184.083L267.962 181.917Z" fill="#009696"/>
<path d="M92.42 152.08C92.42 152.48 91.42 153.54 88.92 155.2C87.64 156.04 85.48 157.14 85.48 157.14C85.48 157.14 85.44 156.54 85.44 155.8C85.44 154.96 85.5 153.92 85.72 153.58C86.14 152.94 90.22 151.84 91.8 151.84C92.04 151.84 92.42 151.84 92.42 152.08ZM95.5 159.82C95.5 157.04 90.76 156.7 88.8 156.7C88.66 156.7 88.58 156.7 88.58 156.7C89.72 155.9 90.68 155.4 92.6 153.56C92.96 153.22 93.58 152.38 93.58 151.68C93.58 150.86 92.44 150.86 91.92 150.86C89.52 150.86 85.66 152.1 85.66 152.1C85.62 151.94 85.54 151.66 85.18 151.66C84.66 151.66 84.4 152.16 84.4 152.56C84 152.86 83.72 153.06 83.72 153.58V153.66C83.74 154.2 84.46 154.22 84.46 154.22C84.44 154.7 84.4 157.36 84.4 158.46C84.4 159.5 84.46 160.56 84.46 161.58C84.46 161.86 84.46 162.08 84.44 162.16C84.4 162.4 84.4 162.6 84.4 162.78C84.4 163.32 84.52 163.64 84.58 163.92C84.62 164.14 85.1 164.3 85.48 164.3C85.72 164.3 85.9 164.24 85.94 164.12C86 163.88 86.04 163.72 86.04 163.56C86.04 163.3 85.96 163.08 85.82 162.52C85.66 161.84 85.58 161.88 85.56 159.64C85.56 159 85.56 158.46 85.56 158.46C86.4 158.06 88.14 157.76 88.94 157.76C92.3 157.76 94.36 158.74 94.36 159.72C94.36 161.74 91.66 163.9 90.24 164.36C89.96 164.46 88.84 164.56 88.6 164.6C88.26 164.66 87.8 165 87.8 165.44C87.8 165.88 88.12 166.16 88.56 166.16C88.74 166.16 88.9 166.12 88.98 166.06C89.22 165.9 90.28 165.68 92.06 164.58C93.32 163.82 95.48 161.58 95.5 159.82ZM98.0863 157.58C98.0863 157.12 97.8063 156.82 97.4663 156.82C96.7663 156.86 96.8463 158 96.7863 159.1C96.6863 161.02 96.5863 162.46 96.5863 163.42C96.5863 164.14 96.6463 164.58 96.8263 164.72C96.9863 164.84 97.1663 164.9 97.3063 164.9C97.7063 164.9 97.8463 164.58 97.8463 164.24C97.8463 163.88 97.6063 163.84 97.6063 162.94V162.56C97.6063 161.78 98.0863 158.26 98.0863 157.58ZM98.1263 150.94C98.1263 150.62 97.9063 150.38 97.6263 150.38C97.1063 150.38 97.2663 150.84 96.8463 151.7C96.6063 152.22 96.5063 152.68 96.5063 153.04C96.5063 153.32 96.5663 153.72 96.8663 153.72C97.0063 153.72 97.1263 153.64 97.2263 153.54C97.4263 153.34 97.2863 153 97.5863 152.26C97.8463 151.62 98.1063 151.28 98.1263 151.02V150.94ZM107.534 157.04C107.534 156.8 107.374 156.56 107.254 156.52C106.914 156.4 106.614 156.36 106.334 156.36C105.134 156.36 104.314 157.28 103.574 157.98C102.294 159.16 100.914 161 100.914 161C100.914 159.66 100.914 159.28 100.894 158.58C100.854 157.36 100.794 156.9 100.494 156.62C100.334 156.48 100.194 156.42 100.054 156.42C99.8541 156.42 99.4541 156.66 99.4541 156.88C99.4541 157.12 99.8941 157.54 99.8941 160.04C99.8941 160.44 99.8741 160.88 99.8541 161.4C99.7741 162.94 99.5341 163.96 99.5341 164.56C99.5341 164.82 99.5741 165 99.6941 165.12C99.8341 165.26 100.034 165.36 100.234 165.36C100.394 165.36 100.554 165.3 100.674 165.14C100.934 164.8 100.674 163.26 101.414 162.14C102.854 159.96 104.374 158.26 105.634 157.52C105.834 157.4 106.014 157.36 106.154 157.36C106.474 157.36 106.694 157.54 106.954 157.54C107.254 157.54 107.534 157.3 107.534 157.04ZM115.481 156.52C115.441 155.96 114.721 155.98 114.301 155.96C114.121 155.96 113.941 155.94 113.761 155.94C112.341 155.94 111.141 156.2 111.141 156.2C111.321 154.9 111.441 154.58 111.561 153.38C111.601 152.96 111.621 152.6 111.621 152.3C111.621 151.24 111.381 150.86 111.001 150.86C110.621 150.86 110.541 151.22 110.541 151.64C110.541 151.92 110.581 152.2 110.581 152.54C110.581 153.22 110.101 156.38 110.101 156.38C108.901 156.7 108.641 156.8 107.501 157.24C106.401 157.66 106.361 157.8 106.261 158.1C106.241 158.16 106.241 158.2 106.241 158.24C106.241 158.52 106.641 158.82 106.861 158.82C107.221 158.82 107.901 158.2 108.241 158.04C108.961 157.7 109.941 157.48 109.941 157.48C109.841 158.34 109.761 158.74 109.621 160.16C109.401 162.2 109.401 163.44 109.401 164.34C109.401 164.66 109.501 165.4 110.101 165.44H110.181C110.561 165.44 110.661 165.22 110.661 164.96C110.661 164.72 110.561 164.44 110.561 164.36C110.541 164.06 110.541 163.72 110.541 163.38C110.541 160.72 110.961 157.5 110.981 157.26C111.701 157.1 113.081 156.82 114.321 156.82C114.481 156.82 114.761 156.88 115.001 156.88C115.261 156.88 115.481 156.82 115.481 156.52ZM122.481 161.68C122.481 159.66 122.241 157.52 121.161 157.14C120.981 157.08 120.801 157.06 120.621 157.06C118.541 157.06 115.841 160.58 115.841 160.58C115.921 158.76 116.061 157.1 116.221 155.44C116.361 153.88 116.661 152.84 116.661 152.22C116.661 151.76 116.481 151.5 115.961 151.5C115.261 151.5 115.441 153.22 115.081 156.52C114.541 161.46 114.781 163.9 114.561 164.36C114.441 164.62 114.301 164.92 114.301 165.2C114.301 165.62 114.621 165.86 114.981 165.86C115.341 165.86 115.741 165.64 115.741 164.9C115.741 164.66 115.701 164.44 115.701 164.22C115.701 163.68 115.781 162.74 116.221 161.8C116.781 160.6 119.281 158.16 120.481 158.16C120.601 158.16 120.721 158.18 120.801 158.24C121.241 158.52 121.381 160.28 121.381 161.78C121.381 162.86 121.301 163.54 121.301 164.1C121.301 164.62 121.441 165.04 121.921 165.04C122.381 165.04 122.461 164.86 122.461 164.58C122.461 164.38 122.421 164.1 122.421 163.78C122.421 163.2 122.481 162.36 122.481 161.68ZM128.983 155.56V155.48C128.963 155.24 128.263 154.88 128.003 154.76C127.883 154.7 127.723 154.66 127.543 154.66C127.283 154.66 126.963 154.74 126.723 154.94C125.403 156.04 122.883 157.92 122.883 160.12C122.883 163.12 127.483 162.92 127.763 163.9C127.763 164.62 124.863 165.6 124.743 165.8C124.663 165.9 124.623 166 124.623 166.1C124.623 166.38 124.923 166.62 125.343 166.64C125.643 166.64 128.923 164.92 128.923 164.1C128.923 162.86 127.783 162.66 126.563 162.18C125.243 161.68 123.923 161.28 123.923 160.12C123.923 159.5 124.423 158.34 125.323 157.54C126.903 156.12 127.123 155.7 127.803 155.68C127.963 155.68 128.183 155.92 128.563 155.92C128.863 155.92 128.983 155.76 128.983 155.56Z" fill="#005573"/>
<path d="M378.5 157.5L378.879 156.575L378.5 157.5ZM415 162.5L414.833 161.514L415 162.5ZM446 147.5L446.633 148.274L446 147.5ZM465.5 123L455.197 128.215L464.864 134.53L465.5 123ZM352 139C351.321 139.734 351.321 139.734 351.321 139.734C351.321 139.735 351.321 139.735 351.322 139.735C351.322 139.736 351.323 139.736 351.324 139.737C351.326 139.739 351.329 139.742 351.333 139.745C351.34 139.752 351.351 139.763 351.366 139.776C351.395 139.803 351.439 139.843 351.495 139.894C351.608 139.998 351.775 140.149 351.991 140.343C352.423 140.731 353.053 141.29 353.844 141.975C355.425 143.344 357.656 145.219 360.255 147.246C365.432 151.282 372.147 155.98 378.121 158.426L378.879 156.575C373.173 154.239 366.638 149.686 361.485 145.669C358.919 143.668 356.715 141.815 355.153 140.462C354.372 139.786 353.752 139.236 353.328 138.855C353.116 138.665 352.953 138.517 352.843 138.417C352.789 138.367 352.747 138.329 352.72 138.304C352.706 138.291 352.696 138.281 352.689 138.275C352.685 138.272 352.683 138.27 352.681 138.268C352.681 138.268 352.68 138.267 352.68 138.267C352.679 138.267 352.679 138.267 352.679 138.266C352.679 138.266 352.679 138.266 352 139ZM378.121 158.426C384.808 161.163 390.471 163.046 396.272 163.932C402.084 164.819 407.989 164.699 415.167 163.486L414.833 161.514C407.825 162.699 402.137 162.804 396.574 161.955C391.001 161.104 385.506 159.288 378.879 156.575L378.121 158.426ZM415.167 163.486C428.648 161.208 436.132 156.861 446.633 148.274L445.367 146.726C435.045 155.166 427.874 159.31 414.833 161.514L415.167 163.486ZM446.633 148.274C452.052 143.844 457.599 136.577 461.399 131.105L459.756 129.965C455.966 135.422 450.553 142.486 445.367 146.726L446.633 148.274Z" fill="#009696"/>
<path d="M368.8 116.96V119H374.71V125.15H376.9V119H382.81V116.96H376.9V110.81H374.71V116.96H368.8Z" fill="black"/>
<line x1="369" y1="130" x2="382" y2="130" stroke="black" stroke-width="2"/>
<rect x="216" y="32" width="175" height="106" stroke="#005573" stroke-width="2"/>
<path d="M271.28 7.96C271.26 9.9 262.72 13.22 262.72 13.22L262.86 10.68C262.9 9.88 263.02 8.2 263.02 8.2C263.68 8.16 264.36 8.1 264.9 7.98C265.32 7.88 267.84 7.54 269.6 7.54C270.56 7.54 271.28 7.64 271.28 7.96ZM272.72 7.74C272.72 7.52 272.64 7.3 272.5 7.1C272.2 6.7 271.12 6.56 269.8 6.56C267.3 6.56 263.94 7.04 263.36 7.04C262.84 6.98 262.88 6.68 262.38 6.68C261.98 6.68 261.62 7.16 261.62 7.56C261.62 7.62 261.64 7.7 261.66 7.76C261.74 7.98 261.78 8.48 261.78 9.06C261.78 9.64 261.74 10.32 261.72 10.84C261.66 11.9 261.46 14.3 261.46 14.3C261.34 14.46 261.34 14.6 261.34 14.7C261.34 14.82 261.46 15.08 261.46 15.08C261.32 17.5 261.36 18.7 261.26 19.84C261.24 20.04 261.22 20.24 261.22 20.42C261.22 20.82 261.42 21.12 261.8 21.12C262.12 21.12 262.5 20.9 262.5 20.22C262.5 20.08 262.48 19.9 262.44 19.7C262.4 19.52 262.38 19.18 262.38 18.74C262.38 17.18 262.58 14.5 262.58 14.5C265 13.48 272.72 10.06 272.72 7.74ZM271.004 14C272.104 14 272.584 15.28 272.584 16.16C272.584 16.86 272.344 17.56 272.004 18.22C271.624 18.94 270.364 20.04 269.444 20.04C268.524 20.04 268.144 18.74 268.144 18.02C268.144 17.74 268.184 17.46 268.264 17.24C269.284 14.22 270.844 14 271.004 14ZM273.584 16.4C273.584 16.18 273.564 15.98 273.544 15.74C273.324 13.56 271.644 12.86 270.844 12.86C269.684 12.86 268.524 13.92 267.404 16.46C267.164 17 267.064 17.52 267.064 18.04C267.064 19.36 267.804 21.08 269.224 21.08C270.904 21.08 273.584 19.26 273.584 16.4ZM278.325 16.08C278.325 16.16 278.325 16.2 278.305 16.3C277.825 18.48 274.725 20 274.725 20C274.725 20 275.025 17.5 275.205 16.32C275.385 15.16 275.705 13.6 275.705 13.6C276.865 13.68 278.325 15.1 278.325 16.08ZM279.405 16.24C279.405 13.9 276.685 12.52 275.285 12.5C274.985 12.5 273.865 12.78 273.865 13.38C273.865 13.84 274.365 13.98 274.365 13.98C273.885 17.6 273.625 19.02 273.445 23.18C273.425 23.82 273.405 24.4 273.405 24.92C273.405 26.74 273.525 27.86 273.525 28.3C273.525 28.42 273.525 28.48 273.505 28.5C273.445 28.6 273.425 28.72 273.425 28.86C273.425 29.26 273.705 29.7 274.125 29.7C274.385 29.7 274.605 29.46 274.605 29.12C274.605 29 274.565 28.88 274.505 28.74C274.465 28.64 274.405 27.74 274.405 26.3V24.98C274.405 22.24 274.685 20.46 274.685 20.46C274.745 20.68 275.065 20.98 275.365 20.98C275.765 20.98 279.405 18 279.405 16.24ZM284.848 13.9C284.848 13.9 284.808 13.1 284.288 13.1C283.668 13.1 283.648 13.54 283.648 13.82C283.628 14.34 283.288 17.58 282.288 19.34C282.148 19.58 282.008 19.68 281.888 19.68C281.208 19.68 280.508 17.14 280.508 13.94C280.508 13.68 280.528 13.42 280.528 13.14C280.528 12.88 280.368 12.38 279.928 12.38H279.828C279.608 12.38 279.428 12.54 279.428 13.02C279.448 13.76 279.508 20.92 281.868 20.92C282.048 20.92 282.268 20.86 282.488 20.76C283.688 20.2 284.848 14.28 284.848 13.9ZM287.723 7.28C287.723 7 287.663 6.86 287.563 6.74C287.363 6.52 287.203 6.44 287.063 6.44C286.883 6.44 286.763 6.56 286.623 6.68C286.363 6.9 286.303 8.62 286.063 11.22C285.823 13.66 285.403 17.96 285.403 20.34C285.403 21.24 285.483 21.88 285.643 21.98C285.823 22.12 285.983 22.16 286.123 22.16C286.523 22.16 286.603 21.58 286.603 21.14C286.603 20.46 286.543 19.74 286.543 19.1C286.543 17.5 286.643 15.58 286.883 13.7C287.383 9.5 287.723 7.98 287.723 7.28ZM291.479 19.3C291.479 19.3 290.139 20.42 289.159 20.42C288.659 20.42 288.479 20.14 288.479 19.7C288.479 18.7 289.319 17.62 290.319 17.62C290.979 17.62 291.479 19.3 291.479 19.3ZM293.479 16.66C293.479 15.1 293.079 13.5 291.699 12.64C291.379 12.44 290.999 12.36 290.579 12.36C289.419 12.36 288.119 13.04 288.119 13.72C288.139 14.08 288.479 14.22 288.699 14.22C288.799 14.22 288.859 14.2 288.859 14.12C288.899 13.84 289.679 13.3 290.479 13.3C292.059 13.3 292.479 15.54 292.479 16.7C292.479 17.78 292.159 18.52 292.159 18.52C291.859 17.6 291.359 16.62 290.259 16.62C288.719 16.62 287.539 18.44 287.539 19.78C287.539 20.74 288.119 21.36 289.119 21.36C290.359 21.36 291.779 20.36 291.779 20.36C291.779 20.36 291.839 20.7 291.959 20.82C292.059 20.94 292.239 20.98 292.379 20.98C292.479 20.98 292.579 20.96 292.619 20.9C292.719 20.84 293.479 18.78 293.479 16.66ZM303.452 6.94C303.452 6.62 303.232 6.38 302.952 6.38C302.432 6.38 302.592 6.84 302.172 7.7C301.932 8.22 301.832 8.68 301.832 9.04C301.832 9.32 301.892 9.72 302.192 9.72C302.332 9.72 302.452 9.62 302.552 9.52C302.752 9.32 302.612 9 302.912 8.26C303.172 7.62 303.432 7.28 303.452 7.02V6.94ZM302.152 12.88C301.712 13.14 301.772 14.14 301.712 15.1C301.612 17.02 301.512 18.46 301.512 19.42C301.512 20.14 301.572 20.58 301.752 20.72C301.912 20.84 302.092 20.9 302.232 20.9C302.632 20.9 302.772 20.58 302.772 20.24C302.772 19.88 302.532 19.84 302.532 18.94V18.56C302.532 17.78 303.012 14.26 303.012 13.58C303.012 13.16 302.772 12.86 302.472 12.82C302.572 12.78 302.632 12.68 302.632 12.52C302.592 12.02 301.952 12.02 301.452 11.98C301.272 11.96 300.732 11.94 300.552 11.94C299.132 11.94 297.932 12.2 297.932 12.2C298.112 10.9 298.232 10.58 298.352 9.38C298.392 8.96 298.412 8.6 298.412 8.3C298.412 7.24 298.172 6.86 297.792 6.86C297.412 6.86 297.332 7.22 297.332 7.64C297.332 7.92 297.372 8.2 297.372 8.42V8.54C297.172 10.74 296.892 12.38 296.892 12.38C295.692 12.7 295.432 12.8 294.292 13.24C293.192 13.66 293.152 13.82 293.052 14.12C293.032 14.16 293.032 14.2 293.032 14.24C293.032 14.52 293.312 14.74 293.652 14.82C294.012 14.82 294.692 14.2 295.032 14.04C295.752 13.7 296.732 13.48 296.732 13.48C296.632 14.34 296.552 14.74 296.412 16.16C296.192 18.2 296.192 19.44 296.192 20.34C296.192 20.66 296.292 21.4 296.892 21.44H296.972C297.352 21.44 297.452 21.22 297.452 20.96C297.452 20.72 297.352 20.44 297.352 20.36C297.332 20.06 297.332 19.72 297.332 19.38C297.332 16.72 297.752 13.5 297.772 13.26C298.492 13.1 299.872 12.82 301.472 12.82C301.632 12.82 301.912 12.88 302.152 12.88ZM307.263 14C308.363 14 308.843 15.28 308.843 16.16C308.843 16.86 308.603 17.56 308.263 18.22C307.883 18.94 306.623 20.04 305.703 20.04C304.783 20.04 304.403 18.74 304.403 18.02C304.403 17.74 304.443 17.46 304.523 17.24C305.543 14.22 307.103 14 307.263 14ZM309.843 16.4C309.843 16.18 309.823 15.98 309.803 15.74C309.583 13.56 307.903 12.86 307.103 12.86C305.943 12.86 304.783 13.92 303.663 16.46C303.423 17 303.323 17.52 303.323 18.04C303.323 19.36 304.063 21.08 305.483 21.08C307.163 21.08 309.843 19.26 309.843 16.4ZM316.317 21.5C316.317 21.18 316.117 20.8 315.977 20.52C315.937 20.38 315.917 20.02 315.917 19.22V16.92C315.917 14.32 315.817 12.46 314.877 12.26H314.797C313.557 12.26 311.437 16.86 311.437 16.86C311.417 16.7 311.417 16.58 311.417 16.48C311.417 16.22 311.457 15.98 311.457 15.4C311.457 14.24 311.657 13.48 311.657 13.04C311.657 12.88 311.637 12.78 311.577 12.7C311.457 12.54 311.197 12.38 310.937 12.38C310.737 12.38 310.557 12.5 310.497 12.84C310.457 13.12 310.277 14.56 310.237 16.44C310.197 18.6 310.077 19.76 310.077 20.4C310.077 20.72 310.117 20.92 310.197 21.06C310.337 21.24 310.497 21.3 310.637 21.3C310.777 21.3 310.917 21.24 311.017 21.2C311.257 21.02 311.237 20.5 311.837 18.88C312.737 16.44 314.217 13.68 314.577 13.68C314.817 13.68 314.837 15.3 314.837 15.54L314.817 17.48C314.817 19.28 315.017 20.22 315.017 20.64C315.017 20.84 314.957 20.96 314.957 21.1C314.957 21.64 315.457 22 315.857 22C316.157 22 316.317 21.74 316.317 21.5Z" fill="#005573"/>
</svg>
