<svg width="978" height="284" viewBox="0 0 978 284" fill="none" xmlns="http://www.w3.org/2000/svg">
<path d="M263.09 59.446C263.024 55.266 252.024 56.146 252.024 53.638C252.024 51.702 257.106 49.766 259.218 49.766C259.812 49.766 260.054 50.47 260.538 50.47C260.956 50.47 261.286 50.206 261.286 49.986C261.286 49.92 261.286 49.876 261.242 49.832C260.758 49.15 260.626 48.49 258.954 48.49C256.82 48.49 250.594 50.668 250.594 53.99C250.594 57.29 261.814 56.058 261.814 59.71C261.814 61.25 257.282 63.736 255.566 63.978C255.17 64.044 254.576 64.352 254.576 64.946C254.576 65.54 255.148 65.694 255.61 65.694C256.072 65.694 256.534 65.518 256.622 64.99C256.688 64.616 263.09 62.57 263.09 59.446ZM273.663 54.672C273.619 54.056 272.827 54.078 272.365 54.056C272.167 54.056 271.969 54.034 271.771 54.034C270.209 54.034 268.889 54.32 268.889 54.32C269.087 52.89 269.219 52.538 269.351 51.218C269.395 50.756 269.417 50.36 269.417 50.03C269.417 48.864 269.153 48.446 268.735 48.446C268.317 48.446 268.229 48.842 268.229 49.304C268.229 49.612 268.273 49.92 268.273 50.294C268.273 51.042 267.745 54.518 267.745 54.518C266.425 54.87 266.139 54.98 264.885 55.464C263.675 55.926 263.631 56.08 263.521 56.41C263.499 56.476 263.499 56.52 263.499 56.564C263.499 56.872 263.939 57.202 264.181 57.202C264.577 57.202 265.325 56.52 265.699 56.344C266.491 55.97 267.569 55.728 267.569 55.728C267.459 56.674 267.371 57.114 267.217 58.676C266.975 60.92 266.975 62.284 266.975 63.274C266.975 63.626 267.085 64.44 267.745 64.484H267.833C268.251 64.484 268.361 64.242 268.361 63.956C268.361 63.692 268.251 63.384 268.251 63.296C268.229 62.966 268.229 62.592 268.229 62.218C268.229 59.292 268.691 55.75 268.713 55.486C269.505 55.31 271.023 55.002 272.387 55.002C272.563 55.002 272.871 55.068 273.135 55.068C273.421 55.068 273.663 55.002 273.663 54.672ZM276.847 62.13C276.847 62.13 275.373 63.362 274.295 63.362C273.745 63.362 273.547 63.054 273.547 62.57C273.547 61.47 274.471 60.282 275.571 60.282C276.297 60.282 276.847 62.13 276.847 62.13ZM279.047 59.226C279.047 57.51 278.607 55.75 277.089 54.804C276.737 54.584 276.319 54.496 275.857 54.496C274.581 54.496 273.151 55.244 273.151 55.992C273.173 56.388 273.547 56.542 273.789 56.542C273.899 56.542 273.965 56.52 273.965 56.432C274.009 56.124 274.867 55.53 275.747 55.53C277.485 55.53 277.947 57.994 277.947 59.27C277.947 60.458 277.595 61.272 277.595 61.272C277.265 60.26 276.715 59.182 275.505 59.182C273.811 59.182 272.513 61.184 272.513 62.658C272.513 63.714 273.151 64.396 274.251 64.396C275.615 64.396 277.177 63.296 277.177 63.296C277.177 63.296 277.243 63.67 277.375 63.802C277.485 63.934 277.683 63.978 277.837 63.978C277.947 63.978 278.057 63.956 278.101 63.89C278.211 63.824 279.047 61.558 279.047 59.226ZM289.907 54.672C289.863 54.056 289.071 54.078 288.609 54.056C288.411 54.056 288.213 54.034 288.015 54.034C286.453 54.034 285.133 54.32 285.133 54.32C285.331 52.89 285.463 52.538 285.595 51.218C285.639 50.756 285.661 50.36 285.661 50.03C285.661 48.864 285.397 48.446 284.979 48.446C284.561 48.446 284.473 48.842 284.473 49.304C284.473 49.612 284.517 49.92 284.517 50.294C284.517 51.042 283.989 54.518 283.989 54.518C282.669 54.87 282.383 54.98 281.129 55.464C279.919 55.926 279.875 56.08 279.765 56.41C279.743 56.476 279.743 56.52 279.743 56.564C279.743 56.872 280.183 57.202 280.425 57.202C280.821 57.202 281.569 56.52 281.943 56.344C282.735 55.97 283.813 55.728 283.813 55.728C283.703 56.674 283.615 57.114 283.461 58.676C283.219 60.92 283.219 62.284 283.219 63.274C283.219 63.626 283.329 64.44 283.989 64.484H284.077C284.495 64.484 284.605 64.242 284.605 63.956C284.605 63.692 284.495 63.384 284.495 63.296C284.473 62.966 284.473 62.592 284.473 62.218C284.473 59.292 284.935 55.75 284.957 55.486C285.749 55.31 287.267 55.002 288.631 55.002C288.807 55.002 289.115 55.068 289.379 55.068C289.665 55.068 289.907 55.002 289.907 54.672ZM293.876 55.97C293.194 56.586 292.82 56.828 292.248 57.158C290.884 57.994 289.652 58.06 289.652 58.06C289.652 58.06 290.334 57.158 291.456 56.586C292.248 56.168 293.062 55.97 293.876 55.97ZM298.21 59.776C298.21 59.402 297.88 59.072 297.55 59.072C297.176 59.072 296.934 59.644 296.802 59.886C296.582 60.194 293.172 62.988 291.434 62.988C290.466 62.988 290.048 62.46 289.652 61.822C289.168 61.074 289.058 60.392 289.058 59.93C289.058 59.534 289.124 59.292 289.124 59.292C289.74 59.248 291.082 59.116 292.446 58.28C293.7 57.532 295.57 56.124 295.57 55.574C295.57 55.508 295.548 55.464 295.482 55.42C294.954 55.068 294.316 54.914 293.59 54.914C291.28 54.914 288.442 56.608 287.87 59.094C287.804 59.358 287.782 59.622 287.782 59.886C287.782 61.514 288.794 63.252 290.224 63.912C290.51 64.044 290.84 64.11 291.192 64.11C293.678 64.11 297.22 60.876 297.704 60.612C297.99 60.414 298.21 60.084 298.21 59.776Z" fill="#005573"/>
<path d="M259.87 8.926C259.87 8.618 259.54 8.42 259.276 8.42C258.638 8.42 256.482 8.904 255.25 9.212C254.436 9.41 253.336 9.762 252.17 10.158C252.148 8.926 252.148 7.87 252.148 7.54C252.126 6.792 251.972 6.418 251.576 6.418C251.488 6.418 251.378 6.44 251.268 6.484C251.092 6.55 250.916 7.144 250.916 7.518C250.938 7.716 250.96 9.036 251.004 10.532C248.958 11.236 247 11.962 246.934 12.116C246.868 12.204 246.846 12.314 246.846 12.402C246.846 12.754 247.198 13.062 247.396 13.062C247.418 13.062 247.462 13.062 247.484 13.04C247.594 12.93 249.244 12.314 251.026 11.698C251.07 12.908 251.092 14.118 251.092 14.822V15.46C251.092 15.922 251.268 16.34 251.774 16.34C252.214 16.34 252.28 15.79 252.28 15.526V15.438C252.28 15.284 252.236 13.26 252.214 11.302C253.512 10.862 254.766 10.444 255.602 10.224C257.208 9.784 258.352 9.542 258.792 9.542C258.968 9.542 259.078 9.586 259.188 9.586C259.672 9.586 259.87 9.234 259.87 9.058V8.926Z" fill="#009696"/>
<path d="M66.87 108.926C66.87 108.618 66.54 108.42 66.276 108.42C65.638 108.42 63.482 108.904 62.25 109.212C61.436 109.41 60.336 109.762 59.17 110.158C59.148 108.926 59.148 107.87 59.148 107.54C59.126 106.792 58.972 106.418 58.576 106.418C58.488 106.418 58.378 106.44 58.268 106.484C58.092 106.55 57.916 107.144 57.916 107.518C57.938 107.716 57.96 109.036 58.004 110.532C55.958 111.236 54 111.962 53.934 112.116C53.868 112.204 53.846 112.314 53.846 112.402C53.846 112.754 54.198 113.062 54.396 113.062C54.418 113.062 54.462 113.062 54.484 113.04C54.594 112.93 56.244 112.314 58.026 111.698C58.07 112.908 58.092 114.118 58.092 114.822V115.46C58.092 115.922 58.268 116.34 58.774 116.34C59.214 116.34 59.28 115.79 59.28 115.526V115.438C59.28 115.284 59.236 113.26 59.214 111.302C60.512 110.862 61.766 110.444 62.602 110.224C64.208 109.784 65.352 109.542 65.792 109.542C65.968 109.542 66.078 109.586 66.188 109.586C66.672 109.586 66.87 109.234 66.87 109.058V108.926Z" fill="#009696"/>
<path d="M13.87 91.926C13.87 91.618 13.54 91.42 13.276 91.42C12.638 91.42 10.482 91.904 9.25 92.212C8.436 92.41 7.336 92.762 6.17 93.158C6.148 91.926 6.148 90.87 6.148 90.54C6.126 89.792 5.972 89.418 5.576 89.418C5.488 89.418 5.378 89.44 5.268 89.484C5.092 89.55 4.916 90.144 4.916 90.518C4.938 90.716 4.96 92.036 5.004 93.532C2.958 94.236 1 94.962 0.934 95.116C0.868 95.204 0.846 95.314 0.846 95.402C0.846 95.754 1.198 96.062 1.396 96.062C1.418 96.062 1.462 96.062 1.484 96.04C1.594 95.93 3.244 95.314 5.026 94.698C5.07 95.908 5.092 97.118 5.092 97.822V98.46C5.092 98.922 5.268 99.34 5.774 99.34C6.214 99.34 6.28 98.79 6.28 98.526V98.438C6.28 98.284 6.236 96.26 6.214 94.302C7.512 93.862 8.766 93.444 9.602 93.224C11.208 92.784 12.352 92.542 12.792 92.542C12.968 92.542 13.078 92.586 13.188 92.586C13.672 92.586 13.87 92.234 13.87 92.058V91.926Z" fill="#009696"/>
<path d="M85.87 265.926C85.87 265.618 85.54 265.42 85.276 265.42C84.638 265.42 82.482 265.904 81.25 266.212C80.436 266.41 79.336 266.762 78.17 267.158C78.148 265.926 78.148 264.87 78.148 264.54C78.126 263.792 77.972 263.418 77.576 263.418C77.488 263.418 77.378 263.44 77.268 263.484C77.092 263.55 76.916 264.144 76.916 264.518C76.938 264.716 76.96 266.036 77.004 267.532C74.958 268.236 73 268.962 72.934 269.116C72.868 269.204 72.846 269.314 72.846 269.402C72.846 269.754 73.198 270.062 73.396 270.062C73.418 270.062 73.462 270.062 73.484 270.04C73.594 269.93 75.244 269.314 77.026 268.698C77.07 269.908 77.092 271.118 77.092 271.822V272.46C77.092 272.922 77.268 273.34 77.774 273.34C78.214 273.34 78.28 272.79 78.28 272.526V272.438C78.28 272.284 78.236 270.26 78.214 268.302C79.512 267.862 80.766 267.444 81.602 267.224C83.208 266.784 84.352 266.542 84.792 266.542C84.968 266.542 85.078 266.586 85.188 266.586C85.672 266.586 85.87 266.234 85.87 266.058V265.926Z" fill="#009696"/>
<path d="M311.87 268.926C311.87 268.618 311.54 268.42 311.276 268.42C310.638 268.42 308.482 268.904 307.25 269.212C306.436 269.41 305.336 269.762 304.17 270.158C304.148 268.926 304.148 267.87 304.148 267.54C304.126 266.792 303.972 266.418 303.576 266.418C303.488 266.418 303.378 266.44 303.268 266.484C303.092 266.55 302.916 267.144 302.916 267.518C302.938 267.716 302.96 269.036 303.004 270.532C300.958 271.236 299 271.962 298.934 272.116C298.868 272.204 298.846 272.314 298.846 272.402C298.846 272.754 299.198 273.062 299.396 273.062C299.418 273.062 299.462 273.062 299.484 273.04C299.594 272.93 301.244 272.314 303.026 271.698C303.07 272.908 303.092 274.118 303.092 274.822V275.46C303.092 275.922 303.268 276.34 303.774 276.34C304.214 276.34 304.28 275.79 304.28 275.526V275.438C304.28 275.284 304.236 273.26 304.214 271.302C305.512 270.862 306.766 270.444 307.602 270.224C309.208 269.784 310.352 269.542 310.792 269.542C310.968 269.542 311.078 269.586 311.188 269.586C311.672 269.586 311.87 269.234 311.87 269.058V268.926Z" fill="#009696"/>
<path d="M304.01 160.95C304.01 160.818 303.944 160.664 303.746 160.51C303.614 160.4 303.13 160.378 302.47 160.378C301.414 160.378 299.896 160.466 298.466 160.576C296.244 160.752 294.55 160.884 294.55 161.83C294.55 162.248 294.968 162.314 295.254 162.314C295.87 162.314 296.794 162.094 297.718 161.896C299.5 161.522 301.128 161.478 301.942 161.478C302.624 161.478 302.778 161.5 302.954 161.5C303.152 161.5 303.372 161.478 303.636 161.39C303.812 161.324 304.01 161.17 304.01 160.95Z" fill="#009696"/>
<path d="M25.896 59.116C25.896 58.698 25.522 58.39 25.148 58.39C24.708 58.39 24.224 58.676 24.026 58.764C23.542 58.984 17.25 62.614 13.51 62.614C12.806 62.614 12.19 62.482 11.706 62.174C10.848 61.624 10.496 60.832 10.496 59.93C10.496 56.3 16.282 50.8 19.098 50.206C19.582 50.096 20.264 49.964 20.264 49.436C20.264 48.908 19.956 48.71 19.538 48.71C19.076 48.71 18.548 48.93 18.372 48.996C14.698 50.47 9.264 55.75 9.264 59.864C9.264 61.074 9.748 62.196 10.87 63.076C11.486 63.56 12.322 63.758 13.268 63.758C17.36 63.758 23.652 60.04 24.62 59.908C24.62 59.908 25.896 59.776 25.896 59.116ZM34.0523 60.348C34.0523 58.126 33.7883 55.772 32.6003 55.354C32.4023 55.288 32.2043 55.266 32.0063 55.266C29.7183 55.266 26.7483 59.138 26.7483 59.138C26.8363 57.136 26.9903 55.31 27.1663 53.484C27.3203 51.768 27.6503 50.624 27.6503 49.942C27.6503 49.436 27.4523 49.15 26.8803 49.15C26.1103 49.15 26.3083 51.042 25.9123 54.672C25.3183 60.106 25.5823 62.79 25.3403 63.296C25.2083 63.582 25.0543 63.912 25.0543 64.22C25.0543 64.682 25.4063 64.946 25.8023 64.946C26.1983 64.946 26.6383 64.704 26.6383 63.89C26.6383 63.626 26.5943 63.384 26.5943 63.142C26.5943 62.548 26.6823 61.514 27.1663 60.48C27.7823 59.16 30.5323 56.476 31.8523 56.476C31.9843 56.476 32.1163 56.498 32.2043 56.564C32.6883 56.872 32.8423 58.808 32.8423 60.458C32.8423 61.646 32.7543 62.394 32.7543 63.01C32.7543 63.582 32.9083 64.044 33.4363 64.044C33.9423 64.044 34.0303 63.846 34.0303 63.538C34.0303 63.318 33.9863 63.01 33.9863 62.658C33.9863 62.02 34.0523 61.096 34.0523 60.348ZM39.585 62.13C39.585 62.13 38.111 63.362 37.033 63.362C36.483 63.362 36.285 63.054 36.285 62.57C36.285 61.47 37.209 60.282 38.309 60.282C39.035 60.282 39.585 62.13 39.585 62.13ZM41.785 59.226C41.785 57.51 41.345 55.75 39.827 54.804C39.475 54.584 39.057 54.496 38.595 54.496C37.319 54.496 35.889 55.244 35.889 55.992C35.911 56.388 36.285 56.542 36.527 56.542C36.637 56.542 36.703 56.52 36.703 56.432C36.747 56.124 37.605 55.53 38.485 55.53C40.223 55.53 40.685 57.994 40.685 59.27C40.685 60.458 40.333 61.272 40.333 61.272C40.003 60.26 39.453 59.182 38.243 59.182C36.549 59.182 35.251 61.184 35.251 62.658C35.251 63.714 35.889 64.396 36.989 64.396C38.353 64.396 39.915 63.296 39.915 63.296C39.915 63.296 39.981 63.67 40.113 63.802C40.223 63.934 40.421 63.978 40.575 63.978C40.685 63.978 40.795 63.956 40.839 63.89C40.949 63.824 41.785 61.558 41.785 59.226ZM50.4671 64.55C50.4671 64.198 50.2471 63.78 50.0931 63.472C50.0491 63.318 50.0271 62.922 50.0271 62.042V59.512C50.0271 56.652 49.9171 54.606 48.8831 54.386H48.7951C47.4311 54.386 45.0991 59.446 45.0991 59.446C45.0771 59.27 45.0771 59.138 45.0771 59.028C45.0771 58.742 45.1211 58.478 45.1211 57.84C45.1211 56.564 45.3411 55.728 45.3411 55.244C45.3411 55.068 45.3191 54.958 45.2531 54.87C45.1211 54.694 44.8351 54.518 44.5491 54.518C44.3291 54.518 44.1311 54.65 44.0651 55.024C44.0211 55.332 43.8231 56.916 43.7791 58.984C43.7351 61.36 43.6031 62.636 43.6031 63.34C43.6031 63.692 43.6471 63.912 43.7351 64.066C43.8891 64.264 44.0651 64.33 44.2191 64.33C44.3731 64.33 44.5271 64.264 44.6371 64.22C44.9011 64.022 44.8791 63.45 45.5391 61.668C46.5291 58.984 48.1571 55.948 48.5531 55.948C48.8171 55.948 48.8391 57.73 48.8391 57.994L48.8171 60.128C48.8171 62.108 49.0371 63.142 49.0371 63.604C49.0371 63.824 48.9711 63.956 48.9711 64.11C48.9711 64.704 49.5211 65.1 49.9611 65.1C50.2911 65.1 50.4671 64.814 50.4671 64.55ZM59.6162 67.696C59.6162 69.148 59.0442 70.732 57.9002 72.558C57.0642 73.878 55.4142 75.11 53.7862 75.11C52.3122 75.11 50.7282 73.878 50.7282 72.382C50.7282 71.568 51.1462 70.666 51.9822 69.654C54.6662 66.376 59.2642 65.716 59.2642 65.716C59.4842 66.354 59.6162 67.014 59.6162 67.696ZM57.8782 59.204C57.8782 60.304 56.1402 61.316 55.1942 61.712C54.5562 61.976 53.6542 62.152 53.6542 62.152C53.6542 62.152 53.4782 61.69 53.4782 61.272C53.4782 60.744 54.1602 59.204 56.2062 57.378C57.0642 57.532 57.8782 58.28 57.8782 59.204ZM67.0522 65.342C67.0522 65.298 67.0302 65.232 67.0082 65.188C66.6122 64.374 64.9182 64.286 63.4882 64.286C61.9702 64.286 59.9462 64.506 59.9462 64.506C59.4622 63.802 59.2642 63.428 58.3842 62.812C57.6142 62.262 56.8662 62.086 56.8662 62.086C58.0102 61.184 58.9342 60.392 58.9342 59.16C58.9342 58.302 58.3622 57.598 57.7902 57.07C58.9122 56.938 59.8802 56.652 60.8042 56.652C61.2222 56.652 61.4862 56.696 61.6402 56.696C61.8822 56.696 62.0582 56.432 62.0582 56.256C62.0582 56.058 61.8162 55.904 61.5302 55.816C61.4422 55.794 61.2882 55.772 61.0902 55.772C59.8362 55.772 56.7782 56.3 55.5462 56.3C55.3042 56.3 55.1282 56.278 55.0622 56.234C54.8862 56.102 54.7542 56.036 54.6222 56.036C54.3142 56.036 54.1602 56.366 54.1382 56.608C54.1382 56.938 54.7542 57.29 54.7542 57.29C53.2582 59.094 52.2902 60.018 52.2902 61.184C52.2902 61.844 52.5542 62.438 52.5542 62.438C52.1362 62.57 51.5642 62.746 51.5642 63.23C51.5642 63.56 51.9822 63.78 52.2682 63.78C52.8622 63.78 53.6102 63.054 55.5022 63.054C55.7002 63.054 55.8982 63.054 56.1402 63.076C57.9882 63.23 58.8242 64.726 58.8242 64.726C55.6782 65.474 53.6542 66.134 51.0362 68.994C50.0022 70.116 49.5622 71.304 49.5622 72.382C49.5622 74.736 51.8282 76.298 53.8302 76.298C56.3822 76.298 58.4942 74.054 59.3522 72.36C60.4522 70.182 60.7382 68.51 60.7382 67.366C60.7382 66.112 60.4082 65.474 60.4082 65.474C61.5742 65.298 62.9602 65.188 64.1042 65.188C64.6102 65.188 64.9402 65.21 64.9402 65.21C65.1822 65.518 65.0502 65.804 65.9302 65.804C66.4582 65.804 67.0522 65.672 67.0522 65.342ZM68.0124 55.97C67.3304 56.586 66.9564 56.828 66.3844 57.158C65.0204 57.994 63.7884 58.06 63.7884 58.06C63.7884 58.06 64.4704 57.158 65.5924 56.586C66.3844 56.168 67.1984 55.97 68.0124 55.97ZM72.3464 59.776C72.3464 59.402 72.0164 59.072 71.6864 59.072C71.3124 59.072 71.0704 59.644 70.9384 59.886C70.7184 60.194 67.3084 62.988 65.5704 62.988C64.6024 62.988 64.1844 62.46 63.7884 61.822C63.3044 61.074 63.1944 60.392 63.1944 59.93C63.1944 59.534 63.2604 59.292 63.2604 59.292C63.8764 59.248 65.2184 59.116 66.5824 58.28C67.8364 57.532 69.7064 56.124 69.7064 55.574C69.7064 55.508 69.6844 55.464 69.6184 55.42C69.0904 55.068 68.4524 54.914 67.7264 54.914C65.4164 54.914 62.5784 56.608 62.0064 59.094C61.9404 59.358 61.9184 59.622 61.9184 59.886C61.9184 61.514 62.9304 63.252 64.3604 63.912C64.6464 64.044 64.9764 64.11 65.3284 64.11C67.8144 64.11 71.3564 60.876 71.8404 60.612C72.1264 60.414 72.3464 60.084 72.3464 59.776Z" fill="#005573"/>
<path d="M257.758 196.47C257.758 197.944 253.798 199.792 251.73 200.65C250.85 201.024 249.948 201.2 249.948 201.2C249.948 201.2 250.146 199.704 250.322 198.868C250.454 198.208 250.52 197.57 250.542 197.152C250.608 197.35 250.762 197.438 250.894 197.438C250.982 197.438 251.048 197.394 251.114 197.35C251.708 196.822 254.788 195.942 256.548 195.942C257.252 195.942 257.758 196.096 257.758 196.47ZM263.104 209.406C263.104 208.79 262.422 208.504 262.07 208.46C261.432 208.372 257.802 207.14 253.094 204.06C252.016 203.356 250.85 202.234 250.85 202.234C255.844 200.276 259.056 198.208 259.056 196.426V196.316C258.946 195.062 257.978 194.644 256.724 194.644C254.194 194.644 250.52 196.36 250.52 196.36C250.41 195.986 250.212 195.678 249.794 195.678C249.134 195.678 248.826 196.184 248.826 196.712C248.826 196.998 248.87 197.284 248.914 197.548V197.856C248.914 198.89 248.672 201.464 248.672 201.464L248.452 201.53L248.65 201.926C248.518 204.72 248.122 208.24 248.122 209.714C248.122 210.066 248.144 210.308 248.21 210.374C248.364 210.55 248.584 210.638 248.826 210.638C249.31 210.638 249.684 210.264 249.684 209.824C249.684 209.384 249.398 208.9 249.398 208.438C249.464 206.128 249.75 202.872 249.75 202.872C250.85 203.774 251.334 204.302 253.094 205.446C257.714 208.46 261.3 209.472 261.476 209.692C261.63 209.89 262.07 210.044 262.422 210.044C262.862 210.044 263.104 209.824 263.104 209.406ZM266.843 201.97C266.161 202.586 265.787 202.828 265.215 203.158C263.851 203.994 262.619 204.06 262.619 204.06C262.619 204.06 263.301 203.158 264.423 202.586C265.215 202.168 266.029 201.97 266.843 201.97ZM271.177 205.776C271.177 205.402 270.847 205.072 270.517 205.072C270.143 205.072 269.901 205.644 269.769 205.886C269.549 206.194 266.139 208.988 264.401 208.988C263.433 208.988 263.015 208.46 262.619 207.822C262.135 207.074 262.025 206.392 262.025 205.93C262.025 205.534 262.091 205.292 262.091 205.292C262.707 205.248 264.049 205.116 265.413 204.28C266.667 203.532 268.537 202.124 268.537 201.574C268.537 201.508 268.515 201.464 268.449 201.42C267.921 201.068 267.283 200.914 266.557 200.914C264.247 200.914 261.409 202.608 260.837 205.094C260.771 205.358 260.749 205.622 260.749 205.886C260.749 207.514 261.761 209.252 263.191 209.912C263.477 210.044 263.807 210.11 264.159 210.11C266.645 210.11 270.187 206.876 270.671 206.612C270.957 206.414 271.177 206.084 271.177 205.776ZM278.192 199.616V199.528C278.17 199.264 277.4 198.868 277.114 198.736C276.982 198.67 276.806 198.626 276.608 198.626C276.322 198.626 275.97 198.714 275.706 198.934C274.254 200.144 271.482 202.212 271.482 204.632C271.482 207.932 276.542 207.712 276.85 208.79C276.85 209.582 273.66 210.66 273.528 210.88C273.44 210.99 273.396 211.1 273.396 211.21C273.396 211.518 273.726 211.782 274.188 211.804C274.518 211.804 278.126 209.912 278.126 209.01C278.126 207.646 276.872 207.426 275.53 206.898C274.078 206.348 272.626 205.908 272.626 204.632C272.626 203.95 273.176 202.674 274.166 201.794C275.904 200.232 276.146 199.77 276.894 199.748C277.07 199.748 277.312 200.012 277.73 200.012C278.06 200.012 278.192 199.836 278.192 199.616ZM283.368 202.3C284.578 202.3 285.106 203.708 285.106 204.676C285.106 205.446 284.842 206.216 284.468 206.942C284.05 207.734 282.664 208.944 281.652 208.944C280.64 208.944 280.222 207.514 280.222 206.722C280.222 206.414 280.266 206.106 280.354 205.864C281.476 202.542 283.192 202.3 283.368 202.3ZM286.206 204.94C286.206 204.698 286.184 204.478 286.162 204.214C285.92 201.816 284.072 201.046 283.192 201.046C281.916 201.046 280.64 202.212 279.408 205.006C279.144 205.6 279.034 206.172 279.034 206.744C279.034 208.196 279.848 210.088 281.41 210.088C283.258 210.088 286.206 208.086 286.206 204.94ZM293.614 202.19C293.614 202.19 293.57 201.31 292.998 201.31C292.316 201.31 292.294 201.794 292.294 202.102C292.272 202.674 291.898 206.238 290.798 208.174C290.644 208.438 290.49 208.548 290.358 208.548C289.61 208.548 288.84 205.754 288.84 202.234C288.84 201.948 288.862 201.662 288.862 201.354C288.862 201.068 288.686 200.518 288.202 200.518H288.092C287.85 200.518 287.652 200.694 287.652 201.222C287.674 202.036 287.74 209.912 290.336 209.912C290.534 209.912 290.776 209.846 291.018 209.736C292.338 209.12 293.614 202.608 293.614 202.19ZM304.092 201.244C304.092 200.98 303.916 200.716 303.784 200.672C303.41 200.54 303.08 200.496 302.772 200.496C301.452 200.496 300.55 201.508 299.736 202.278C298.328 203.576 296.81 205.6 296.81 205.6C296.81 204.126 296.81 203.708 296.788 202.938C296.744 201.596 296.678 201.09 296.348 200.782C296.172 200.628 296.018 200.562 295.864 200.562C295.644 200.562 295.204 200.826 295.204 201.068C295.204 201.332 295.688 201.794 295.688 204.544C295.688 204.984 295.666 205.468 295.644 206.04C295.556 207.734 295.292 208.856 295.292 209.516C295.292 209.802 295.336 210 295.468 210.132C295.622 210.286 295.842 210.396 296.062 210.396C296.238 210.396 296.414 210.33 296.546 210.154C296.832 209.78 296.546 208.086 297.36 206.854C298.944 204.456 300.616 202.586 302.002 201.772C302.222 201.64 302.42 201.596 302.574 201.596C302.926 201.596 303.168 201.794 303.454 201.794C303.784 201.794 304.092 201.53 304.092 201.244ZM314.275 205.886C314.275 205.644 314.077 205.402 313.813 205.402C313.747 205.402 313.681 205.424 313.615 205.446C313.373 205.534 308.115 208.988 305.343 208.988C304.397 208.988 303.649 208.46 303.649 207.536C303.649 205.622 306.509 202.696 307.015 202.542C307.059 202.52 307.125 202.52 307.191 202.52C307.455 202.52 307.697 202.63 307.917 202.63C308.335 202.63 308.797 201.97 308.797 201.574C308.797 201.266 308.577 201.046 308.049 201.046C307.939 201.046 307.807 201.046 307.675 201.068C305.761 201.354 302.439 205.182 302.439 207.734C302.439 209.274 303.891 210 305.189 210C308.775 210 314.253 206.172 314.275 205.974V205.886ZM319.592 201.97C318.91 202.586 318.536 202.828 317.964 203.158C316.6 203.994 315.368 204.06 315.368 204.06C315.368 204.06 316.05 203.158 317.172 202.586C317.964 202.168 318.778 201.97 319.592 201.97ZM323.926 205.776C323.926 205.402 323.596 205.072 323.266 205.072C322.892 205.072 322.65 205.644 322.518 205.886C322.298 206.194 318.888 208.988 317.15 208.988C316.182 208.988 315.764 208.46 315.368 207.822C314.884 207.074 314.774 206.392 314.774 205.93C314.774 205.534 314.84 205.292 314.84 205.292C315.456 205.248 316.798 205.116 318.162 204.28C319.416 203.532 321.286 202.124 321.286 201.574C321.286 201.508 321.264 201.464 321.198 201.42C320.67 201.068 320.032 200.914 319.306 200.914C316.996 200.914 314.158 202.608 313.586 205.094C313.52 205.358 313.498 205.622 313.498 205.886C313.498 207.514 314.51 209.252 315.94 209.912C316.226 210.044 316.556 210.11 316.908 210.11C319.394 210.11 322.936 206.876 323.42 206.612C323.706 206.414 323.926 206.084 323.926 205.776ZM255.646 229.356C254.986 229.576 254.37 229.73 253.578 229.928C252.17 230.28 250.432 230.61 250.432 230.61C250.432 230.61 251.422 228.256 252.082 226.936C252.764 225.55 253.952 223.328 253.952 223.328C254.282 224.186 254.524 225.176 254.832 226.21C255.316 227.948 255.646 229.356 255.646 229.356ZM260.97 228.498C260.926 228.036 260.684 227.926 260.442 227.926C260.156 227.926 259.87 228.058 259.87 228.058L256.79 228.982C256.372 227.266 255.778 224.802 255.492 223.768C255.118 222.426 255.03 221.392 254.986 221.106C254.942 220.776 254.832 220.27 254.414 220.27C253.908 220.27 253.732 220.622 253.578 220.974L249.068 230.83C248.826 230.896 247.88 231.05 247.77 231.49C247.726 231.622 247.726 231.732 247.726 231.82C247.726 232.48 248.386 232.546 248.386 232.546C247.99 233.514 247.528 234.79 247.528 235.318C247.528 235.362 247.528 235.406 247.55 235.45C247.638 235.67 247.858 235.824 248.122 235.824C248.232 235.824 248.342 235.78 248.474 235.736C248.804 235.582 248.76 235.296 248.87 234.614C248.98 233.932 249.772 232.37 249.772 232.37C250.63 232.062 251.4 231.732 252.17 231.49C253.754 230.962 255.888 230.346 255.888 230.346L257.45 236.858C257.428 236.946 257.428 236.968 257.428 236.99C257.428 237.342 257.934 237.672 258.33 237.672C258.682 237.672 258.99 237.32 258.99 237.034C258.99 236.616 258.484 236.242 258.484 236.242L257.01 229.972L259.848 229.136C259.936 229.18 260.046 229.202 260.178 229.202C260.552 229.202 260.97 229.004 260.97 228.498ZM267.457 232.788C265.697 233.8 263.629 235.164 262.243 235.164C261.473 235.164 260.923 234.68 260.923 233.954C260.923 232.216 263.409 229.29 265.191 229.29C265.389 229.29 265.587 229.312 265.763 229.4C267.127 229.994 267.457 232.788 267.457 232.788ZM270.449 221.612C270.449 221.04 269.987 220.512 269.327 220.512C269.063 220.512 268.953 220.732 268.953 221.084C268.953 221.348 268.975 221.612 269.085 221.964C269.107 222.03 269.107 222.074 269.107 222.14C269.107 223.306 268.205 230.654 268.205 230.654C267.633 229.62 267.259 228.586 265.499 228.212C265.411 228.19 265.279 228.19 265.169 228.19C263.145 228.19 259.779 231.226 259.779 233.866C259.779 235.252 260.637 236.308 262.089 236.308C264.399 236.308 267.611 234.108 267.611 234.108C267.787 234.746 267.545 235.45 268.601 235.604C268.975 235.604 269.063 235.142 269.063 234.636C269.063 234.02 268.931 233.338 268.931 233.338C269.679 233.03 270.273 233.052 270.273 232.458C270.273 232.37 270.273 232.282 270.229 232.15C270.119 231.688 269.305 231.622 269.305 231.622C269.459 228.432 270.207 222.448 270.361 222.03C270.427 221.898 270.449 221.744 270.449 221.612ZM277.447 227.97C276.765 228.586 276.391 228.828 275.819 229.158C274.455 229.994 273.223 230.06 273.223 230.06C273.223 230.06 273.905 229.158 275.027 228.586C275.819 228.168 276.633 227.97 277.447 227.97ZM281.781 231.776C281.781 231.402 281.451 231.072 281.121 231.072C280.747 231.072 280.505 231.644 280.373 231.886C280.153 232.194 276.743 234.988 275.005 234.988C274.037 234.988 273.619 234.46 273.223 233.822C272.739 233.074 272.629 232.392 272.629 231.93C272.629 231.534 272.695 231.292 272.695 231.292C273.311 231.248 274.653 231.116 276.017 230.28C277.271 229.532 279.141 228.124 279.141 227.574C279.141 227.508 279.119 227.464 279.053 227.42C278.525 227.068 277.887 226.914 277.161 226.914C274.851 226.914 272.013 228.608 271.441 231.094C271.375 231.358 271.353 231.622 271.353 231.886C271.353 233.514 272.365 235.252 273.795 235.912C274.081 236.044 274.411 236.11 274.763 236.11C277.249 236.11 280.791 232.876 281.275 232.612C281.561 232.414 281.781 232.084 281.781 231.776ZM293.195 240.752C293.195 240.664 293.173 240.62 293.019 240.62C292.931 240.62 292.777 240.642 292.557 240.664C292.073 240.708 288.575 245.548 287.717 245.548C287.673 245.548 287.629 245.548 287.585 245.504C286.837 244.624 286.617 241.456 286.617 239.278C286.617 236.594 287.277 232.766 287.497 231.952C287.717 231.226 287.739 231.314 288.003 230.39C288.223 229.686 288.377 229.29 288.377 229.026C288.377 228.63 287.959 228.454 287.651 228.454C287.321 228.454 287.013 228.542 287.013 228.872C287.013 229.026 287.057 229.202 287.057 229.422C287.057 229.576 287.035 229.752 286.925 229.95C286.309 231.226 284.241 234.218 283.757 234.218C283.581 234.218 283.581 233.558 283.581 233.448C283.581 231.71 284.945 228.542 286.243 227.64C286.375 227.552 286.573 227.53 286.903 227.53C287.101 227.53 287.255 227.486 287.299 227.068C287.299 226.694 286.639 226.276 286.221 226.276C285.275 226.276 283.669 228.454 282.987 231.028C282.767 231.886 282.547 233.052 282.547 234.02C282.547 234.834 282.701 235.494 283.163 235.692C283.229 235.714 283.295 235.736 283.383 235.736C284.417 235.736 286.243 233.162 286.243 233.162C285.847 235.428 285.605 237.188 285.605 239.322C285.605 241.874 285.891 246.758 287.497 246.868C288.905 246.868 293.173 241.082 293.195 240.752ZM295.676 228.19C295.676 228.19 295.632 227.31 295.06 227.31C294.378 227.31 294.356 227.794 294.356 228.102C294.334 228.674 293.96 232.238 292.86 234.174C292.706 234.438 292.552 234.548 292.42 234.548C291.672 234.548 290.902 231.754 290.902 228.234C290.902 227.948 290.924 227.662 290.924 227.354C290.924 227.068 290.748 226.518 290.264 226.518H290.154C289.912 226.518 289.714 226.694 289.714 227.222C289.736 228.036 289.802 235.912 292.398 235.912C292.596 235.912 292.838 235.846 293.08 235.736C294.4 235.12 295.676 228.608 295.676 228.19ZM300.93 234.13C300.93 234.13 299.456 235.362 298.378 235.362C297.828 235.362 297.63 235.054 297.63 234.57C297.63 233.47 298.554 232.282 299.654 232.282C300.38 232.282 300.93 234.13 300.93 234.13ZM303.13 231.226C303.13 229.51 302.69 227.75 301.172 226.804C300.82 226.584 300.402 226.496 299.94 226.496C298.664 226.496 297.234 227.244 297.234 227.992C297.256 228.388 297.63 228.542 297.872 228.542C297.982 228.542 298.048 228.52 298.048 228.432C298.092 228.124 298.95 227.53 299.83 227.53C301.568 227.53 302.03 229.994 302.03 231.27C302.03 232.458 301.678 233.272 301.678 233.272C301.348 232.26 300.798 231.182 299.588 231.182C297.894 231.182 296.596 233.184 296.596 234.658C296.596 235.714 297.234 236.396 298.334 236.396C299.698 236.396 301.26 235.296 301.26 235.296C301.26 235.296 301.326 235.67 301.458 235.802C301.568 235.934 301.766 235.978 301.92 235.978C302.03 235.978 302.14 235.956 302.184 235.89C302.294 235.824 303.13 233.558 303.13 231.226ZM316.058 231.886C316.058 231.644 315.86 231.402 315.596 231.402C315.53 231.402 315.464 231.424 315.398 231.446C315.156 231.534 309.898 234.988 307.126 234.988C306.18 234.988 305.432 234.46 305.432 233.536C305.432 231.622 308.292 228.696 308.798 228.542C308.842 228.52 308.908 228.52 308.974 228.52C309.238 228.52 309.48 228.63 309.7 228.63C310.118 228.63 310.58 227.97 310.58 227.574C310.58 227.266 310.36 227.046 309.832 227.046C309.722 227.046 309.59 227.046 309.458 227.068C307.544 227.354 304.222 231.182 304.222 233.734C304.222 235.274 305.674 236 306.972 236C310.558 236 316.036 232.172 316.058 231.974V231.886ZM323.324 229.422C323.324 228.586 323.148 227.706 322.796 227.574C322.708 227.53 322.62 227.53 322.554 227.53C322.092 227.53 322.004 228.212 321.718 228.564C319.936 230.654 318.132 232.81 317.582 232.81C317.428 232.81 317.406 232.568 317.406 232.436C317.406 230.544 318.198 228.806 318.286 227.002C318.264 226.65 317.78 226.32 317.538 226.32C316.878 226.32 316.834 228.124 316.79 228.388C316.504 230.192 316.196 232.062 316.196 233.294C316.196 234.152 316.35 234.724 316.834 234.724C318.154 234.746 321.982 229.906 321.982 229.906C321.916 233.206 321.762 234.812 321.454 237.826C321.014 242.248 320.75 244.778 320.596 244.822C320.508 244.844 320.332 245.196 320.332 245.526C320.332 245.878 320.53 246.23 321.212 246.23C321.784 246.23 322.004 245.966 322.004 245.636C322.004 245.284 321.784 244.866 321.696 244.756C321.674 244.734 321.674 244.69 321.674 244.602C321.674 244.14 321.938 242.732 322.246 240.048C322.664 236.396 323.126 231.358 323.28 230.126C323.302 229.906 323.324 229.664 323.324 229.422Z" fill="#005573"/>
<path d="M411.896 205.116C411.896 204.698 411.522 204.39 411.148 204.39C410.708 204.39 410.224 204.676 410.026 204.764C409.542 204.984 403.25 208.614 399.51 208.614C398.806 208.614 398.19 208.482 397.706 208.174C396.848 207.624 396.496 206.832 396.496 205.93C396.496 202.3 402.282 196.8 405.098 196.206C405.582 196.096 406.264 195.964 406.264 195.436C406.264 194.908 405.956 194.71 405.538 194.71C405.076 194.71 404.548 194.93 404.372 194.996C400.698 196.47 395.264 201.75 395.264 205.864C395.264 207.074 395.748 208.196 396.87 209.076C397.486 209.56 398.322 209.758 399.268 209.758C403.36 209.758 409.652 206.04 410.62 205.908C410.62 205.908 411.896 205.776 411.896 205.116ZM416.12 208.13C416.12 208.13 414.646 209.362 413.568 209.362C413.018 209.362 412.82 209.054 412.82 208.57C412.82 207.47 413.744 206.282 414.844 206.282C415.57 206.282 416.12 208.13 416.12 208.13ZM418.32 205.226C418.32 203.51 417.88 201.75 416.362 200.804C416.01 200.584 415.592 200.496 415.13 200.496C413.854 200.496 412.424 201.244 412.424 201.992C412.446 202.388 412.82 202.542 413.062 202.542C413.172 202.542 413.238 202.52 413.238 202.432C413.282 202.124 414.14 201.53 415.02 201.53C416.758 201.53 417.22 203.994 417.22 205.27C417.22 206.458 416.868 207.272 416.868 207.272C416.538 206.26 415.988 205.182 414.778 205.182C413.084 205.182 411.786 207.184 411.786 208.658C411.786 209.714 412.424 210.396 413.524 210.396C414.888 210.396 416.45 209.296 416.45 209.296C416.45 209.296 416.516 209.67 416.648 209.802C416.758 209.934 416.956 209.978 417.11 209.978C417.22 209.978 417.33 209.956 417.374 209.89C417.484 209.824 418.32 207.558 418.32 205.226ZM429.026 201.244C429.026 200.98 428.85 200.716 428.718 200.672C428.344 200.54 428.014 200.496 427.706 200.496C426.386 200.496 425.484 201.508 424.67 202.278C423.262 203.576 421.744 205.6 421.744 205.6C421.744 204.126 421.744 203.708 421.722 202.938C421.678 201.596 421.612 201.09 421.282 200.782C421.106 200.628 420.952 200.562 420.798 200.562C420.578 200.562 420.138 200.826 420.138 201.068C420.138 201.332 420.622 201.794 420.622 204.544C420.622 204.984 420.6 205.468 420.578 206.04C420.49 207.734 420.226 208.856 420.226 209.516C420.226 209.802 420.27 210 420.402 210.132C420.556 210.286 420.776 210.396 420.996 210.396C421.172 210.396 421.348 210.33 421.48 210.154C421.766 209.78 421.48 208.086 422.294 206.854C423.878 204.456 425.55 202.586 426.936 201.772C427.156 201.64 427.354 201.596 427.508 201.596C427.86 201.596 428.102 201.794 428.388 201.794C428.718 201.794 429.026 201.53 429.026 201.244ZM438.04 201.244C438.04 200.98 437.864 200.716 437.732 200.672C437.358 200.54 437.028 200.496 436.72 200.496C435.4 200.496 434.498 201.508 433.684 202.278C432.276 203.576 430.758 205.6 430.758 205.6C430.758 204.126 430.758 203.708 430.736 202.938C430.692 201.596 430.626 201.09 430.296 200.782C430.12 200.628 429.966 200.562 429.812 200.562C429.592 200.562 429.152 200.826 429.152 201.068C429.152 201.332 429.636 201.794 429.636 204.544C429.636 204.984 429.614 205.468 429.592 206.04C429.504 207.734 429.24 208.856 429.24 209.516C429.24 209.802 429.284 210 429.416 210.132C429.57 210.286 429.79 210.396 430.01 210.396C430.186 210.396 430.362 210.33 430.494 210.154C430.78 209.78 430.494 208.086 431.308 206.854C432.892 204.456 434.564 202.586 435.95 201.772C436.17 201.64 436.368 201.596 436.522 201.596C436.874 201.596 437.116 201.794 437.402 201.794C437.732 201.794 438.04 201.53 438.04 201.244ZM445.293 203.422C445.293 202.586 445.117 201.706 444.765 201.574C444.677 201.53 444.589 201.53 444.523 201.53C444.061 201.53 443.973 202.212 443.687 202.564C441.905 204.654 440.101 206.81 439.551 206.81C439.397 206.81 439.375 206.568 439.375 206.436C439.375 204.544 440.167 202.806 440.255 201.002C440.233 200.65 439.749 200.32 439.507 200.32C438.847 200.32 438.803 202.124 438.759 202.388C438.473 204.192 438.165 206.062 438.165 207.294C438.165 208.152 438.319 208.724 438.803 208.724C440.123 208.746 443.951 203.906 443.951 203.906C443.885 207.206 443.731 208.812 443.423 211.826C442.983 216.248 442.719 218.778 442.565 218.822C442.477 218.844 442.301 219.196 442.301 219.526C442.301 219.878 442.499 220.23 443.181 220.23C443.753 220.23 443.973 219.966 443.973 219.636C443.973 219.284 443.753 218.866 443.665 218.756C443.643 218.734 443.643 218.69 443.643 218.602C443.643 218.14 443.907 216.732 444.215 214.048C444.633 210.396 445.095 205.358 445.249 204.126C445.271 203.906 445.293 203.664 445.293 203.422ZM449.299 201.838C449.299 201.332 448.991 201.002 448.617 201.002C447.847 201.046 447.935 202.3 447.869 203.51C447.759 205.622 447.649 207.206 447.649 208.262C447.649 209.054 447.715 209.538 447.913 209.692C448.089 209.824 448.287 209.89 448.441 209.89C448.881 209.89 449.035 209.538 449.035 209.164C449.035 208.768 448.771 208.724 448.771 207.734V207.316C448.771 206.458 449.299 202.586 449.299 201.838ZM449.343 194.534C449.343 194.182 449.101 193.918 448.793 193.918C448.221 193.918 448.397 194.424 447.935 195.37C447.671 195.942 447.561 196.448 447.561 196.844C447.561 197.152 447.627 197.592 447.957 197.592C448.111 197.592 448.243 197.504 448.353 197.394C448.573 197.174 448.419 196.8 448.749 195.986C449.035 195.282 449.321 194.908 449.343 194.622V194.534ZM458.888 210.55C458.888 210.198 458.668 209.78 458.514 209.472C458.47 209.318 458.448 208.922 458.448 208.042V205.512C458.448 202.652 458.338 200.606 457.304 200.386H457.216C455.852 200.386 453.52 205.446 453.52 205.446C453.498 205.27 453.498 205.138 453.498 205.028C453.498 204.742 453.542 204.478 453.542 203.84C453.542 202.564 453.762 201.728 453.762 201.244C453.762 201.068 453.74 200.958 453.674 200.87C453.542 200.694 453.256 200.518 452.97 200.518C452.75 200.518 452.552 200.65 452.486 201.024C452.442 201.332 452.244 202.916 452.2 204.984C452.156 207.36 452.024 208.636 452.024 209.34C452.024 209.692 452.068 209.912 452.156 210.066C452.31 210.264 452.486 210.33 452.64 210.33C452.794 210.33 452.948 210.264 453.058 210.22C453.322 210.022 453.3 209.45 453.96 207.668C454.95 204.984 456.578 201.948 456.974 201.948C457.238 201.948 457.26 203.73 457.26 203.994L457.238 206.128C457.238 208.108 457.458 209.142 457.458 209.604C457.458 209.824 457.392 209.956 457.392 210.11C457.392 210.704 457.942 211.1 458.382 211.1C458.712 211.1 458.888 210.814 458.888 210.55ZM468.037 213.696C468.037 215.148 467.465 216.732 466.321 218.558C465.485 219.878 463.835 221.11 462.207 221.11C460.733 221.11 459.149 219.878 459.149 218.382C459.149 217.568 459.567 216.666 460.403 215.654C463.087 212.376 467.685 211.716 467.685 211.716C467.905 212.354 468.037 213.014 468.037 213.696ZM466.299 205.204C466.299 206.304 464.561 207.316 463.615 207.712C462.977 207.976 462.075 208.152 462.075 208.152C462.075 208.152 461.899 207.69 461.899 207.272C461.899 206.744 462.581 205.204 464.627 203.378C465.485 203.532 466.299 204.28 466.299 205.204ZM475.473 211.342C475.473 211.298 475.451 211.232 475.429 211.188C475.033 210.374 473.339 210.286 471.909 210.286C470.391 210.286 468.367 210.506 468.367 210.506C467.883 209.802 467.685 209.428 466.805 208.812C466.035 208.262 465.287 208.086 465.287 208.086C466.431 207.184 467.355 206.392 467.355 205.16C467.355 204.302 466.783 203.598 466.211 203.07C467.333 202.938 468.301 202.652 469.225 202.652C469.643 202.652 469.907 202.696 470.061 202.696C470.303 202.696 470.479 202.432 470.479 202.256C470.479 202.058 470.237 201.904 469.951 201.816C469.863 201.794 469.709 201.772 469.511 201.772C468.257 201.772 465.199 202.3 463.967 202.3C463.725 202.3 463.549 202.278 463.483 202.234C463.307 202.102 463.175 202.036 463.043 202.036C462.735 202.036 462.581 202.366 462.559 202.608C462.559 202.938 463.175 203.29 463.175 203.29C461.679 205.094 460.711 206.018 460.711 207.184C460.711 207.844 460.975 208.438 460.975 208.438C460.557 208.57 459.985 208.746 459.985 209.23C459.985 209.56 460.403 209.78 460.689 209.78C461.283 209.78 462.031 209.054 463.923 209.054C464.121 209.054 464.319 209.054 464.561 209.076C466.409 209.23 467.245 210.726 467.245 210.726C464.099 211.474 462.075 212.134 459.457 214.994C458.423 216.116 457.983 217.304 457.983 218.382C457.983 220.736 460.249 222.298 462.251 222.298C464.803 222.298 466.915 220.054 467.773 218.36C468.873 216.182 469.159 214.51 469.159 213.366C469.159 212.112 468.829 211.474 468.829 211.474C469.995 211.298 471.381 211.188 472.525 211.188C473.031 211.188 473.361 211.21 473.361 211.21C473.603 211.518 473.471 211.804 474.351 211.804C474.879 211.804 475.473 211.672 475.473 211.342ZM411.896 231.116C411.896 230.698 411.522 230.39 411.148 230.39C410.708 230.39 410.224 230.676 410.026 230.764C409.542 230.984 403.25 234.614 399.51 234.614C398.806 234.614 398.19 234.482 397.706 234.174C396.848 233.624 396.496 232.832 396.496 231.93C396.496 228.3 402.282 222.8 405.098 222.206C405.582 222.096 406.264 221.964 406.264 221.436C406.264 220.908 405.956 220.71 405.538 220.71C405.076 220.71 404.548 220.93 404.372 220.996C400.698 222.47 395.264 227.75 395.264 231.864C395.264 233.074 395.748 234.196 396.87 235.076C397.486 235.56 398.322 235.758 399.268 235.758C403.36 235.758 409.652 232.04 410.62 231.908C410.62 231.908 411.896 231.776 411.896 231.116ZM416.12 234.13C416.12 234.13 414.646 235.362 413.568 235.362C413.018 235.362 412.82 235.054 412.82 234.57C412.82 233.47 413.744 232.282 414.844 232.282C415.57 232.282 416.12 234.13 416.12 234.13ZM418.32 231.226C418.32 229.51 417.88 227.75 416.362 226.804C416.01 226.584 415.592 226.496 415.13 226.496C413.854 226.496 412.424 227.244 412.424 227.992C412.446 228.388 412.82 228.542 413.062 228.542C413.172 228.542 413.238 228.52 413.238 228.432C413.282 228.124 414.14 227.53 415.02 227.53C416.758 227.53 417.22 229.994 417.22 231.27C417.22 232.458 416.868 233.272 416.868 233.272C416.538 232.26 415.988 231.182 414.778 231.182C413.084 231.182 411.786 233.184 411.786 234.658C411.786 235.714 412.424 236.396 413.524 236.396C414.888 236.396 416.45 235.296 416.45 235.296C416.45 235.296 416.516 235.67 416.648 235.802C416.758 235.934 416.956 235.978 417.11 235.978C417.22 235.978 417.33 235.956 417.374 235.89C417.484 235.824 418.32 233.558 418.32 231.226ZM425.096 230.588C425.096 230.676 425.096 230.72 425.074 230.83C424.546 233.228 421.136 234.9 421.136 234.9C421.136 234.9 421.466 232.15 421.664 230.852C421.862 229.576 422.214 227.86 422.214 227.86C423.49 227.948 425.096 229.51 425.096 230.588ZM426.284 230.764C426.284 228.19 423.292 226.672 421.752 226.65C421.422 226.65 420.19 226.958 420.19 227.618C420.19 228.124 420.74 228.278 420.74 228.278C420.212 232.26 419.926 233.822 419.728 238.398C419.706 239.102 419.684 239.74 419.684 240.312C419.684 242.314 419.816 243.546 419.816 244.03C419.816 244.162 419.816 244.228 419.794 244.25C419.728 244.36 419.706 244.492 419.706 244.646C419.706 245.086 420.014 245.57 420.476 245.57C420.762 245.57 421.004 245.306 421.004 244.932C421.004 244.8 420.96 244.668 420.894 244.514C420.85 244.404 420.784 243.414 420.784 241.83V240.378C420.784 237.364 421.092 235.406 421.092 235.406C421.158 235.648 421.51 235.978 421.84 235.978C422.28 235.978 426.284 232.7 426.284 230.764ZM431.311 234.13C431.311 234.13 429.837 235.362 428.759 235.362C428.209 235.362 428.011 235.054 428.011 234.57C428.011 233.47 428.935 232.282 430.035 232.282C430.761 232.282 431.311 234.13 431.311 234.13ZM433.511 231.226C433.511 229.51 433.071 227.75 431.553 226.804C431.201 226.584 430.783 226.496 430.321 226.496C429.045 226.496 427.615 227.244 427.615 227.992C427.637 228.388 428.011 228.542 428.253 228.542C428.363 228.542 428.429 228.52 428.429 228.432C428.473 228.124 429.331 227.53 430.211 227.53C431.949 227.53 432.411 229.994 432.411 231.27C432.411 232.458 432.059 233.272 432.059 233.272C431.729 232.26 431.179 231.182 429.969 231.182C428.275 231.182 426.977 233.184 426.977 234.658C426.977 235.714 427.615 236.396 428.715 236.396C430.079 236.396 431.641 235.296 431.641 235.296C431.641 235.296 431.707 235.67 431.839 235.802C431.949 235.934 432.147 235.978 432.301 235.978C432.411 235.978 432.521 235.956 432.565 235.89C432.675 235.824 433.511 233.558 433.511 231.226ZM446.439 231.886C446.439 231.644 446.241 231.402 445.977 231.402C445.911 231.402 445.845 231.424 445.779 231.446C445.537 231.534 440.279 234.988 437.507 234.988C436.561 234.988 435.813 234.46 435.813 233.536C435.813 231.622 438.673 228.696 439.179 228.542C439.223 228.52 439.289 228.52 439.355 228.52C439.619 228.52 439.861 228.63 440.081 228.63C440.499 228.63 440.961 227.97 440.961 227.574C440.961 227.266 440.741 227.046 440.213 227.046C440.103 227.046 439.971 227.046 439.839 227.068C437.925 227.354 434.603 231.182 434.603 233.734C434.603 235.274 436.055 236 437.353 236C440.939 236 446.417 232.172 446.439 231.974V231.886ZM447.645 227.838C447.645 227.332 447.337 227.002 446.963 227.002C446.193 227.046 446.281 228.3 446.215 229.51C446.105 231.622 445.995 233.206 445.995 234.262C445.995 235.054 446.061 235.538 446.259 235.692C446.435 235.824 446.633 235.89 446.787 235.89C447.227 235.89 447.381 235.538 447.381 235.164C447.381 234.768 447.117 234.724 447.117 233.734V233.316C447.117 232.458 447.645 228.586 447.645 227.838ZM447.689 220.534C447.689 220.182 447.447 219.918 447.139 219.918C446.567 219.918 446.743 220.424 446.281 221.37C446.017 221.942 445.907 222.448 445.907 222.844C445.907 223.152 445.973 223.592 446.303 223.592C446.457 223.592 446.589 223.504 446.699 223.394C446.919 223.174 446.765 222.8 447.095 221.986C447.381 221.282 447.667 220.908 447.689 220.622V220.534ZM465.198 229.422C465.198 228.586 465.022 227.706 464.67 227.574C464.582 227.53 464.494 227.53 464.428 227.53C463.966 227.53 463.878 228.212 463.592 228.564C461.81 230.654 460.006 232.81 459.456 232.81C459.412 232.81 459.39 232.81 459.368 232.788C459.302 232.744 459.28 232.59 459.28 232.37C459.28 231.116 460.16 227.53 460.16 227.002C460.138 226.21 458.642 226.078 458.224 226.056C458.026 226.056 457.828 226.034 457.63 226.034C456.068 226.034 454.638 226.32 454.638 226.32C454.836 224.89 454.968 224.538 455.1 223.218C455.144 222.756 455.166 222.36 455.166 222.03C455.166 220.864 454.902 220.446 454.484 220.446C454.066 220.446 453.978 220.842 453.978 221.304C453.978 221.612 454.022 221.92 454.022 222.162V222.294C453.802 224.714 453.494 226.518 453.494 226.518C452.174 226.87 451.888 226.98 450.634 227.464C449.424 227.926 449.38 228.102 449.27 228.432C449.248 228.476 449.248 228.52 449.248 228.564C449.248 228.872 449.556 229.114 449.93 229.202C450.326 229.202 451.074 228.52 451.448 228.344C452.24 227.97 453.318 227.728 453.318 227.728C453.208 228.674 453.12 229.114 452.966 230.676C452.724 232.92 452.724 234.284 452.724 235.274C452.724 235.626 452.834 236.44 453.494 236.484H453.582C454 236.484 454.11 236.242 454.11 235.956C454.11 235.692 454 235.384 454 235.296C453.978 234.966 453.978 234.592 453.978 234.218C453.978 231.292 454.44 227.75 454.462 227.486C455.254 227.31 456.772 227.002 458.136 227.002C458.554 227.002 458.84 227.068 458.84 227.068C458.774 227.42 458.73 227.86 458.664 228.388C458.4 230.192 458.07 232.062 458.07 233.294C458.07 234.152 458.224 234.724 458.708 234.724C460.028 234.746 463.856 229.906 463.856 229.906C463.79 233.206 463.636 234.812 463.328 237.826C462.888 242.248 462.624 244.778 462.47 244.822C462.382 244.844 462.206 245.196 462.206 245.526C462.206 245.878 462.404 246.23 463.086 246.23C463.658 246.23 463.878 245.966 463.878 245.636C463.878 245.284 463.658 244.866 463.57 244.756C463.548 244.734 463.548 244.69 463.548 244.602C463.548 244.14 463.812 242.732 464.12 240.048C464.538 236.396 465 231.358 465.154 230.126C465.176 229.906 465.198 229.664 465.198 229.422Z" fill="#005573"/>
<path d="M675.288 91.448C675.288 91.144 675.016 90.92 674.744 90.92C674.424 90.92 674.072 91.128 673.928 91.192C673.576 91.352 669 93.992 666.28 93.992C665.768 93.992 665.32 93.896 664.968 93.672C664.344 93.272 664.088 92.696 664.088 92.04C664.088 89.4 668.296 85.4 670.344 84.968C670.696 84.888 671.192 84.792 671.192 84.408C671.192 84.024 670.968 83.88 670.664 83.88C670.328 83.88 669.944 84.04 669.816 84.088C667.144 85.16 663.192 89 663.192 91.992C663.192 92.872 663.544 93.688 664.36 94.328C664.808 94.68 665.416 94.824 666.104 94.824C669.08 94.824 673.656 92.12 674.36 92.024C674.36 92.024 675.288 91.928 675.288 91.448ZM678.36 93.64C678.36 93.64 677.288 94.536 676.504 94.536C676.104 94.536 675.96 94.312 675.96 93.96C675.96 93.16 676.632 92.296 677.432 92.296C677.96 92.296 678.36 93.64 678.36 93.64ZM679.96 91.528C679.96 90.28 679.64 89 678.536 88.312C678.28 88.152 677.976 88.088 677.64 88.088C676.712 88.088 675.672 88.632 675.672 89.176C675.688 89.464 675.96 89.576 676.136 89.576C676.216 89.576 676.264 89.56 676.264 89.496C676.296 89.272 676.92 88.84 677.56 88.84C678.824 88.84 679.16 90.632 679.16 91.56C679.16 92.424 678.904 93.016 678.904 93.016C678.664 92.28 678.264 91.496 677.384 91.496C676.152 91.496 675.208 92.952 675.208 94.024C675.208 94.792 675.672 95.288 676.472 95.288C677.464 95.288 678.6 94.488 678.6 94.488C678.6 94.488 678.648 94.76 678.744 94.856C678.824 94.952 678.968 94.984 679.08 94.984C679.16 94.984 679.24 94.968 679.272 94.92C679.352 94.872 679.96 93.224 679.96 91.528ZM687.747 88.632C687.747 88.44 687.619 88.248 687.523 88.216C687.251 88.12 687.011 88.088 686.787 88.088C685.827 88.088 685.171 88.824 684.579 89.384C683.555 90.328 682.451 91.8 682.451 91.8C682.451 90.728 682.451 90.424 682.435 89.864C682.403 88.888 682.355 88.52 682.115 88.296C681.987 88.184 681.875 88.136 681.763 88.136C681.603 88.136 681.283 88.328 681.283 88.504C681.283 88.696 681.635 89.032 681.635 91.032C681.635 91.352 681.619 91.704 681.603 92.12C681.539 93.352 681.347 94.168 681.347 94.648C681.347 94.856 681.379 95 681.475 95.096C681.587 95.208 681.747 95.288 681.907 95.288C682.035 95.288 682.163 95.24 682.259 95.112C682.467 94.84 682.259 93.608 682.851 92.712C684.003 90.968 685.219 89.608 686.227 89.016C686.387 88.92 686.531 88.888 686.643 88.888C686.899 88.888 687.075 89.032 687.283 89.032C687.523 89.032 687.747 88.84 687.747 88.632ZM694.302 88.632C694.302 88.44 694.174 88.248 694.078 88.216C693.806 88.12 693.566 88.088 693.342 88.088C692.382 88.088 691.726 88.824 691.134 89.384C690.11 90.328 689.006 91.8 689.006 91.8C689.006 90.728 689.006 90.424 688.99 89.864C688.958 88.888 688.91 88.52 688.67 88.296C688.542 88.184 688.43 88.136 688.318 88.136C688.158 88.136 687.838 88.328 687.838 88.504C687.838 88.696 688.19 89.032 688.19 91.032C688.19 91.352 688.174 91.704 688.158 92.12C688.094 93.352 687.902 94.168 687.902 94.648C687.902 94.856 687.934 95 688.03 95.096C688.142 95.208 688.302 95.288 688.462 95.288C688.59 95.288 688.718 95.24 688.814 95.112C689.022 94.84 688.814 93.608 689.406 92.712C690.558 90.968 691.774 89.608 692.782 89.016C692.942 88.92 693.086 88.888 693.198 88.888C693.454 88.888 693.63 89.032 693.838 89.032C694.078 89.032 694.302 88.84 694.302 88.632ZM699.577 90.216C699.577 89.608 699.449 88.968 699.193 88.872C699.129 88.84 699.065 88.84 699.017 88.84C698.681 88.84 698.617 89.336 698.409 89.592C697.113 91.112 695.801 92.68 695.401 92.68C695.289 92.68 695.273 92.504 695.273 92.408C695.273 91.032 695.849 89.768 695.913 88.456C695.897 88.2 695.545 87.96 695.369 87.96C694.889 87.96 694.857 89.272 694.825 89.464C694.617 90.776 694.393 92.136 694.393 93.032C694.393 93.656 694.505 94.072 694.857 94.072C695.817 94.088 698.601 90.568 698.601 90.568C698.553 92.968 698.441 94.136 698.217 96.328C697.897 99.544 697.705 101.384 697.593 101.416C697.529 101.432 697.401 101.688 697.401 101.928C697.401 102.184 697.545 102.44 698.041 102.44C698.457 102.44 698.617 102.248 698.617 102.008C698.617 101.752 698.457 101.448 698.393 101.368C698.377 101.352 698.377 101.32 698.377 101.256C698.377 100.92 698.569 99.896 698.793 97.944C699.097 95.288 699.433 91.624 699.545 90.728C699.561 90.568 699.577 90.392 699.577 90.216ZM702.49 89.064C702.49 88.696 702.266 88.456 701.994 88.456C701.434 88.488 701.498 89.4 701.45 90.28C701.37 91.816 701.29 92.968 701.29 93.736C701.29 94.312 701.338 94.664 701.482 94.776C701.61 94.872 701.754 94.92 701.866 94.92C702.186 94.92 702.298 94.664 702.298 94.392C702.298 94.104 702.106 94.072 702.106 93.352V93.048C702.106 92.424 702.49 89.608 702.49 89.064ZM702.522 83.752C702.522 83.496 702.346 83.304 702.122 83.304C701.706 83.304 701.834 83.672 701.498 84.36C701.306 84.776 701.226 85.144 701.226 85.432C701.226 85.656 701.274 85.976 701.514 85.976C701.626 85.976 701.722 85.912 701.802 85.832C701.962 85.672 701.85 85.4 702.09 84.808C702.298 84.296 702.506 84.024 702.522 83.816V83.752ZM709.464 95.4C709.464 95.144 709.304 94.84 709.192 94.616C709.16 94.504 709.144 94.216 709.144 93.576V91.736C709.144 89.656 709.064 88.168 708.312 88.008H708.248C707.256 88.008 705.56 91.688 705.56 91.688C705.544 91.56 705.544 91.464 705.544 91.384C705.544 91.176 705.576 90.984 705.576 90.52C705.576 89.592 705.736 88.984 705.736 88.632C705.736 88.504 705.72 88.424 705.672 88.36C705.576 88.232 705.368 88.104 705.16 88.104C705 88.104 704.856 88.2 704.808 88.472C704.776 88.696 704.632 89.848 704.6 91.352C704.568 93.08 704.472 94.008 704.472 94.52C704.472 94.776 704.504 94.936 704.568 95.048C704.68 95.192 704.808 95.24 704.92 95.24C705.032 95.24 705.144 95.192 705.224 95.16C705.416 95.016 705.4 94.6 705.88 93.304C706.6 91.352 707.784 89.144 708.072 89.144C708.264 89.144 708.28 90.44 708.28 90.632L708.264 92.184C708.264 93.624 708.424 94.376 708.424 94.712C708.424 94.872 708.376 94.968 708.376 95.08C708.376 95.512 708.776 95.8 709.096 95.8C709.336 95.8 709.464 95.592 709.464 95.4ZM716.118 97.688C716.118 98.744 715.702 99.896 714.87 101.224C714.262 102.184 713.062 103.08 711.878 103.08C710.806 103.08 709.654 102.184 709.654 101.096C709.654 100.504 709.958 99.848 710.566 99.112C712.518 96.728 715.862 96.248 715.862 96.248C716.022 96.712 716.118 97.192 716.118 97.688ZM714.854 91.512C714.854 92.312 713.59 93.048 712.902 93.336C712.438 93.528 711.782 93.656 711.782 93.656C711.782 93.656 711.654 93.32 711.654 93.016C711.654 92.632 712.15 91.512 713.638 90.184C714.262 90.296 714.854 90.84 714.854 91.512ZM721.526 95.976C721.526 95.944 721.51 95.896 721.494 95.864C721.206 95.272 719.974 95.208 718.934 95.208C717.83 95.208 716.358 95.368 716.358 95.368C716.006 94.856 715.862 94.584 715.222 94.136C714.662 93.736 714.118 93.608 714.118 93.608C714.95 92.952 715.622 92.376 715.622 91.48C715.622 90.856 715.206 90.344 714.79 89.96C715.606 89.864 716.31 89.656 716.982 89.656C717.286 89.656 717.478 89.688 717.59 89.688C717.766 89.688 717.894 89.496 717.894 89.368C717.894 89.224 717.718 89.112 717.51 89.048C717.446 89.032 717.334 89.016 717.19 89.016C716.278 89.016 714.054 89.4 713.158 89.4C712.982 89.4 712.854 89.384 712.806 89.352C712.678 89.256 712.582 89.208 712.486 89.208C712.262 89.208 712.15 89.448 712.134 89.624C712.134 89.864 712.582 90.12 712.582 90.12C711.494 91.432 710.79 92.104 710.79 92.952C710.79 93.432 710.982 93.864 710.982 93.864C710.678 93.96 710.262 94.088 710.262 94.44C710.262 94.68 710.566 94.84 710.774 94.84C711.206 94.84 711.75 94.312 713.126 94.312C713.27 94.312 713.414 94.312 713.59 94.328C714.934 94.44 715.542 95.528 715.542 95.528C713.254 96.072 711.782 96.552 709.878 98.632C709.126 99.448 708.806 100.312 708.806 101.096C708.806 102.808 710.454 103.944 711.91 103.944C713.766 103.944 715.302 102.312 715.926 101.08C716.726 99.496 716.934 98.28 716.934 97.448C716.934 96.536 716.694 96.072 716.694 96.072C717.542 95.944 718.55 95.864 719.382 95.864C719.75 95.864 719.99 95.88 719.99 95.88C720.166 96.104 720.07 96.312 720.71 96.312C721.094 96.312 721.526 96.216 721.526 95.976ZM737.113 91.448C737.113 91.144 736.841 90.92 736.569 90.92C736.249 90.92 735.897 91.128 735.753 91.192C735.401 91.352 730.825 93.992 728.105 93.992C727.593 93.992 727.145 93.896 726.793 93.672C726.169 93.272 725.913 92.696 725.913 92.04C725.913 89.4 730.121 85.4 732.169 84.968C732.521 84.888 733.017 84.792 733.017 84.408C733.017 84.024 732.793 83.88 732.489 83.88C732.153 83.88 731.769 84.04 731.641 84.088C728.969 85.16 725.017 89 725.017 91.992C725.017 92.872 725.369 93.688 726.185 94.328C726.633 94.68 727.241 94.824 727.929 94.824C730.905 94.824 735.481 92.12 736.185 92.024C736.185 92.024 737.113 91.928 737.113 91.448ZM740.186 93.64C740.186 93.64 739.114 94.536 738.33 94.536C737.93 94.536 737.786 94.312 737.786 93.96C737.786 93.16 738.458 92.296 739.258 92.296C739.786 92.296 740.186 93.64 740.186 93.64ZM741.786 91.528C741.786 90.28 741.466 89 740.362 88.312C740.106 88.152 739.802 88.088 739.466 88.088C738.538 88.088 737.498 88.632 737.498 89.176C737.514 89.464 737.786 89.576 737.962 89.576C738.042 89.576 738.09 89.56 738.09 89.496C738.122 89.272 738.746 88.84 739.386 88.84C740.65 88.84 740.986 90.632 740.986 91.56C740.986 92.424 740.73 93.016 740.73 93.016C740.49 92.28 740.09 91.496 739.21 91.496C737.978 91.496 737.034 92.952 737.034 94.024C737.034 94.792 737.498 95.288 738.298 95.288C739.29 95.288 740.426 94.488 740.426 94.488C740.426 94.488 740.474 94.76 740.57 94.856C740.65 94.952 740.794 94.984 740.906 94.984C740.986 94.984 741.066 94.968 741.098 94.92C741.178 94.872 741.786 93.224 741.786 91.528ZM746.714 91.064C746.714 91.128 746.714 91.16 746.698 91.24C746.313 92.984 743.834 94.2 743.834 94.2C743.834 94.2 744.074 92.2 744.217 91.256C744.362 90.328 744.618 89.08 744.618 89.08C745.546 89.144 746.714 90.28 746.714 91.064ZM747.578 91.192C747.578 89.32 745.401 88.216 744.282 88.2C744.041 88.2 743.146 88.424 743.146 88.904C743.146 89.272 743.546 89.384 743.546 89.384C743.161 92.28 742.953 93.416 742.809 96.744C742.793 97.256 742.777 97.72 742.777 98.136C742.777 99.592 742.873 100.488 742.873 100.84C742.873 100.936 742.873 100.984 742.857 101C742.809 101.08 742.793 101.176 742.793 101.288C742.793 101.608 743.017 101.96 743.354 101.96C743.561 101.96 743.737 101.768 743.737 101.496C743.737 101.4 743.706 101.304 743.658 101.192C743.625 101.112 743.577 100.392 743.577 99.24V98.184C743.577 95.992 743.801 94.568 743.801 94.568C743.85 94.744 744.105 94.984 744.345 94.984C744.666 94.984 747.578 92.6 747.578 91.192ZM751.234 93.64C751.234 93.64 750.162 94.536 749.378 94.536C748.978 94.536 748.834 94.312 748.834 93.96C748.834 93.16 749.506 92.296 750.306 92.296C750.834 92.296 751.234 93.64 751.234 93.64ZM752.834 91.528C752.834 90.28 752.514 89 751.41 88.312C751.154 88.152 750.85 88.088 750.514 88.088C749.586 88.088 748.546 88.632 748.546 89.176C748.562 89.464 748.834 89.576 749.01 89.576C749.09 89.576 749.138 89.56 749.138 89.496C749.17 89.272 749.794 88.84 750.434 88.84C751.698 88.84 752.034 90.632 752.034 91.56C752.034 92.424 751.778 93.016 751.778 93.016C751.538 92.28 751.138 91.496 750.258 91.496C749.026 91.496 748.082 92.952 748.082 94.024C748.082 94.792 748.546 95.288 749.346 95.288C750.338 95.288 751.474 94.488 751.474 94.488C751.474 94.488 751.522 94.76 751.618 94.856C751.698 94.952 751.842 94.984 751.954 94.984C752.034 94.984 752.114 94.968 752.146 94.92C752.226 94.872 752.834 93.224 752.834 91.528ZM762.236 92.008C762.236 91.832 762.092 91.656 761.9 91.656C761.852 91.656 761.804 91.672 761.756 91.688C761.58 91.752 757.756 94.264 755.74 94.264C755.052 94.264 754.508 93.88 754.508 93.208C754.508 91.816 756.588 89.688 756.956 89.576C756.988 89.56 757.036 89.56 757.084 89.56C757.276 89.56 757.452 89.64 757.612 89.64C757.916 89.64 758.252 89.16 758.252 88.872C758.252 88.648 758.092 88.488 757.708 88.488C757.628 88.488 757.532 88.488 757.436 88.504C756.044 88.712 753.628 91.496 753.628 93.352C753.628 94.472 754.684 95 755.628 95C758.236 95 762.22 92.216 762.236 92.072V92.008ZM763.112 89.064C763.112 88.696 762.888 88.456 762.616 88.456C762.056 88.488 762.12 89.4 762.072 90.28C761.992 91.816 761.912 92.968 761.912 93.736C761.912 94.312 761.96 94.664 762.104 94.776C762.232 94.872 762.376 94.92 762.488 94.92C762.808 94.92 762.92 94.664 762.92 94.392C762.92 94.104 762.728 94.072 762.728 93.352V93.048C762.728 92.424 763.112 89.608 763.112 89.064ZM763.144 83.752C763.144 83.496 762.968 83.304 762.744 83.304C762.328 83.304 762.456 83.672 762.12 84.36C761.928 84.776 761.848 85.144 761.848 85.432C761.848 85.656 761.896 85.976 762.136 85.976C762.248 85.976 762.344 85.912 762.424 85.832C762.584 85.672 762.472 85.4 762.712 84.808C762.92 84.296 763.128 84.024 763.144 83.816V83.752ZM775.879 90.216C775.879 89.608 775.751 88.968 775.495 88.872C775.431 88.84 775.367 88.84 775.319 88.84C774.983 88.84 774.919 89.336 774.711 89.592C773.415 91.112 772.103 92.68 771.703 92.68C771.671 92.68 771.655 92.68 771.639 92.664C771.591 92.632 771.575 92.52 771.575 92.36C771.575 91.448 772.215 88.84 772.215 88.456C772.199 87.88 771.111 87.784 770.807 87.768C770.663 87.768 770.519 87.752 770.375 87.752C769.239 87.752 768.199 87.96 768.199 87.96C768.343 86.92 768.439 86.664 768.535 85.704C768.567 85.368 768.583 85.08 768.583 84.84C768.583 83.992 768.391 83.688 768.087 83.688C767.783 83.688 767.719 83.976 767.719 84.312C767.719 84.536 767.751 84.76 767.751 84.936V85.032C767.591 86.792 767.367 88.104 767.367 88.104C766.407 88.36 766.199 88.44 765.287 88.792C764.407 89.128 764.375 89.256 764.295 89.496C764.279 89.528 764.279 89.56 764.279 89.592C764.279 89.816 764.503 89.992 764.775 90.056C765.063 90.056 765.607 89.56 765.879 89.432C766.455 89.16 767.239 88.984 767.239 88.984C767.159 89.672 767.095 89.992 766.983 91.128C766.807 92.76 766.807 93.752 766.807 94.472C766.807 94.728 766.887 95.32 767.367 95.352H767.431C767.735 95.352 767.815 95.176 767.815 94.968C767.815 94.776 767.735 94.552 767.735 94.488C767.719 94.248 767.719 93.976 767.719 93.704C767.719 91.576 768.055 89 768.071 88.808C768.647 88.68 769.751 88.456 770.743 88.456C771.047 88.456 771.255 88.504 771.255 88.504C771.207 88.76 771.175 89.08 771.127 89.464C770.935 90.776 770.695 92.136 770.695 93.032C770.695 93.656 770.807 94.072 771.159 94.072C772.119 94.088 774.903 90.568 774.903 90.568C774.855 92.968 774.743 94.136 774.519 96.328C774.199 99.544 774.007 101.384 773.895 101.416C773.831 101.432 773.703 101.688 773.703 101.928C773.703 102.184 773.847 102.44 774.343 102.44C774.759 102.44 774.919 102.248 774.919 102.008C774.919 101.752 774.759 101.448 774.695 101.368C774.679 101.352 774.679 101.32 774.679 101.256C774.679 100.92 774.871 99.896 775.095 97.944C775.399 95.288 775.735 91.624 775.847 90.728C775.863 90.568 775.879 90.392 775.879 90.216Z" fill="#009696"/>
<path d="M789.52 150.688C789.472 147.648 781.472 148.288 781.472 146.464C781.472 145.056 785.168 143.648 786.704 143.648C787.136 143.648 787.312 144.16 787.664 144.16C787.968 144.16 788.208 143.968 788.208 143.808C788.208 143.76 788.208 143.728 788.176 143.696C787.824 143.2 787.728 142.72 786.512 142.72C784.96 142.72 780.432 144.304 780.432 146.72C780.432 149.12 788.592 148.224 788.592 150.88C788.592 152 785.296 153.808 784.048 153.984C783.76 154.032 783.328 154.256 783.328 154.688C783.328 155.12 783.744 155.232 784.08 155.232C784.416 155.232 784.752 155.104 784.816 154.72C784.864 154.448 789.52 152.96 789.52 150.688ZM797.21 147.216C797.178 146.768 796.602 146.784 796.266 146.768C796.122 146.768 795.978 146.752 795.834 146.752C794.698 146.752 793.738 146.96 793.738 146.96C793.882 145.92 793.978 145.664 794.074 144.704C794.106 144.368 794.122 144.08 794.122 143.84C794.122 142.992 793.93 142.688 793.626 142.688C793.322 142.688 793.258 142.976 793.258 143.312C793.258 143.536 793.29 143.76 793.29 144.032C793.29 144.576 792.906 147.104 792.906 147.104C791.946 147.36 791.738 147.44 790.826 147.792C789.946 148.128 789.914 148.24 789.834 148.48C789.818 148.528 789.818 148.56 789.818 148.592C789.818 148.816 790.138 149.056 790.314 149.056C790.602 149.056 791.146 148.56 791.418 148.432C791.994 148.16 792.778 147.984 792.778 147.984C792.698 148.672 792.634 148.992 792.522 150.128C792.346 151.76 792.346 152.752 792.346 153.472C792.346 153.728 792.426 154.32 792.906 154.352H792.97C793.274 154.352 793.354 154.176 793.354 153.968C793.354 153.776 793.274 153.552 793.274 153.488C793.258 153.248 793.258 152.976 793.258 152.704C793.258 150.576 793.594 148 793.61 147.808C794.186 147.68 795.29 147.456 796.282 147.456C796.41 147.456 796.634 147.504 796.826 147.504C797.034 147.504 797.21 147.456 797.21 147.216ZM799.525 152.64C799.525 152.64 798.453 153.536 797.669 153.536C797.269 153.536 797.125 153.312 797.125 152.96C797.125 152.16 797.797 151.296 798.597 151.296C799.125 151.296 799.525 152.64 799.525 152.64ZM801.125 150.528C801.125 149.28 800.805 148 799.701 147.312C799.445 147.152 799.141 147.088 798.805 147.088C797.877 147.088 796.837 147.632 796.837 148.176C796.853 148.464 797.125 148.576 797.301 148.576C797.381 148.576 797.429 148.56 797.429 148.496C797.461 148.272 798.085 147.84 798.725 147.84C799.989 147.84 800.325 149.632 800.325 150.56C800.325 151.424 800.069 152.016 800.069 152.016C799.829 151.28 799.429 150.496 798.549 150.496C797.317 150.496 796.373 151.952 796.373 153.024C796.373 153.792 796.837 154.288 797.637 154.288C798.629 154.288 799.765 153.488 799.765 153.488C799.765 153.488 799.813 153.76 799.909 153.856C799.989 153.952 800.133 153.984 800.245 153.984C800.325 153.984 800.405 153.968 800.437 153.92C800.517 153.872 801.125 152.224 801.125 150.528ZM809.023 147.216C808.991 146.768 808.415 146.784 808.079 146.768C807.935 146.768 807.791 146.752 807.647 146.752C806.511 146.752 805.551 146.96 805.551 146.96C805.695 145.92 805.791 145.664 805.887 144.704C805.919 144.368 805.935 144.08 805.935 143.84C805.935 142.992 805.743 142.688 805.439 142.688C805.135 142.688 805.071 142.976 805.071 143.312C805.071 143.536 805.103 143.76 805.103 144.032C805.103 144.576 804.719 147.104 804.719 147.104C803.759 147.36 803.551 147.44 802.639 147.792C801.759 148.128 801.727 148.24 801.647 148.48C801.631 148.528 801.631 148.56 801.631 148.592C801.631 148.816 801.951 149.056 802.127 149.056C802.415 149.056 802.959 148.56 803.231 148.432C803.807 148.16 804.591 147.984 804.591 147.984C804.511 148.672 804.447 148.992 804.335 150.128C804.159 151.76 804.159 152.752 804.159 153.472C804.159 153.728 804.239 154.32 804.719 154.352H804.783C805.087 154.352 805.167 154.176 805.167 153.968C805.167 153.776 805.087 153.552 805.087 153.488C805.071 153.248 805.071 152.976 805.071 152.704C805.071 150.576 805.407 148 805.423 147.808C805.999 147.68 807.103 147.456 808.095 147.456C808.223 147.456 808.447 147.504 808.639 147.504C808.847 147.504 809.023 147.456 809.023 147.216ZM811.91 148.16C811.414 148.608 811.142 148.784 810.726 149.024C809.734 149.632 808.838 149.68 808.838 149.68C808.838 149.68 809.334 149.024 810.15 148.608C810.726 148.304 811.318 148.16 811.91 148.16ZM815.062 150.928C815.062 150.656 814.822 150.416 814.582 150.416C814.31 150.416 814.134 150.832 814.038 151.008C813.878 151.232 811.398 153.264 810.134 153.264C809.43 153.264 809.126 152.88 808.838 152.416C808.486 151.872 808.406 151.376 808.406 151.04C808.406 150.752 808.454 150.576 808.454 150.576C808.902 150.544 809.878 150.448 810.87 149.84C811.782 149.296 813.142 148.272 813.142 147.872C813.142 147.824 813.126 147.792 813.078 147.76C812.694 147.504 812.23 147.392 811.702 147.392C810.022 147.392 807.958 148.624 807.542 150.432C807.494 150.624 807.478 150.816 807.478 151.008C807.478 152.192 808.214 153.456 809.254 153.936C809.462 154.032 809.702 154.08 809.958 154.08C811.766 154.08 814.342 151.728 814.694 151.536C814.902 151.392 815.062 151.152 815.062 150.928Z" fill="#005573"/>
<path d="M951.576 240.68C951.576 240.312 951.336 240.12 951.048 240.008C951.032 239.992 950.92 239.992 950.76 239.992C949.464 239.992 944.408 240.36 943.896 240.552C943.816 240.552 943.656 240.344 943.416 240.344C943.384 240.344 943.352 240.36 943.32 240.36C942.904 240.456 942.952 240.792 942.76 240.84C940.12 241.624 939.464 241.128 939.016 241.448C938.872 241.56 938.808 241.704 938.808 241.832C938.808 242.136 939.064 242.408 939.352 242.408C940.04 242.408 942.824 241.784 942.824 241.784C942.84 242.248 942.856 242.616 942.856 242.984C942.856 243.432 942.84 243.864 942.792 244.44C942.744 244.872 942.664 247.192 942.664 249C942.664 250.2 942.696 251.176 942.792 251.24C942.92 251.32 943.032 251.352 943.144 251.352C943.512 251.352 943.784 250.952 943.784 250.6C943.784 250.52 943.768 250.44 943.72 250.36C943.608 250.152 943.576 249.864 943.576 249.416C943.576 249.08 943.592 248.648 943.592 248.104C943.592 247.928 943.576 247.736 943.576 247.192C943.576 245.224 943.896 241.544 943.896 241.544C946.184 240.68 949.576 240.744 950.136 240.712C950.392 240.744 950.216 241.224 950.456 241.224C950.76 241.224 951.576 240.872 951.576 240.68ZM950.504 245.064C950.504 244.696 950.28 244.456 950.008 244.456C949.448 244.488 949.512 245.4 949.464 246.28C949.384 247.816 949.304 248.968 949.304 249.736C949.304 250.312 949.352 250.664 949.496 250.776C949.624 250.872 949.768 250.92 949.88 250.92C950.2 250.92 950.312 250.664 950.312 250.392C950.312 250.104 950.12 250.072 950.12 249.352V249.048C950.12 248.424 950.504 245.608 950.504 245.064ZM950.536 239.752C950.536 239.496 950.36 239.304 950.136 239.304C949.72 239.304 949.848 239.672 949.512 240.36C949.32 240.776 949.24 241.144 949.24 241.432C949.24 241.656 949.288 241.976 949.528 241.976C949.64 241.976 949.736 241.912 949.816 241.832C949.976 241.672 949.864 241.4 950.104 240.808C950.312 240.296 950.52 240.024 950.536 239.816V239.752ZM961.052 250.28C961.052 250.04 960.892 249.72 960.892 249.496C960.892 249.368 960.908 248.872 960.908 248.232C960.908 247 960.876 245.24 960.732 244.712C960.636 244.344 960.14 243.752 959.788 243.752C958.62 243.912 956.652 248.488 956.652 248.488C956.54 245.816 956.396 244.552 956.236 244.312C956.092 244.04 955.724 243.736 955.468 243.736C954.876 243.736 953.804 246.072 953.804 246.072C953.708 245.368 953.628 245.272 953.42 245.048C953.34 244.968 953.228 244.92 953.116 244.92C952.78 244.92 952.62 245.176 952.62 245.448C952.62 245.736 952.684 246.168 952.684 246.728C952.684 246.904 952.668 247.112 952.652 247.336C952.62 247.72 952.396 249.544 952.396 250.568C952.396 250.904 952.412 251.144 952.476 251.24C952.54 251.352 952.716 251.4 952.892 251.4C953.1 251.4 953.404 251.304 953.404 251.096C953.404 250.984 953.356 250.84 953.356 250.536C953.356 250.392 953.372 250.216 953.404 249.992C953.756 247.832 955.004 245.128 955.452 245.128C955.468 245.128 955.484 245.128 955.5 245.144C955.708 245.272 955.772 246.904 955.852 249.256C955.916 250.936 955.772 251.272 956.428 251.432C956.46 251.432 956.476 251.448 956.492 251.448C956.908 251.448 956.828 250.328 957.724 248.152C958.492 246.28 959.548 244.744 959.708 244.744C960.044 244.744 960.108 246.456 960.108 246.536V246.6C960.108 247.064 960.06 247.944 960.06 248.744C960.06 249.496 960.108 250.2 960.236 250.456C960.316 250.6 960.46 250.664 960.588 250.664C960.828 250.664 961.052 250.536 961.052 250.28ZM966.355 245.16C965.859 245.608 965.587 245.784 965.171 246.024C964.179 246.632 963.283 246.68 963.283 246.68C963.283 246.68 963.779 246.024 964.595 245.608C965.171 245.304 965.763 245.16 966.355 245.16ZM969.507 247.928C969.507 247.656 969.267 247.416 969.027 247.416C968.755 247.416 968.579 247.832 968.483 248.008C968.323 248.232 965.843 250.264 964.579 250.264C963.875 250.264 963.571 249.88 963.283 249.416C962.931 248.872 962.851 248.376 962.851 248.04C962.851 247.752 962.899 247.576 962.899 247.576C963.347 247.544 964.323 247.448 965.315 246.84C966.227 246.296 967.587 245.272 967.587 244.872C967.587 244.824 967.571 244.792 967.523 244.76C967.139 244.504 966.675 244.392 966.147 244.392C964.467 244.392 962.403 245.624 961.987 247.432C961.939 247.624 961.923 247.816 961.923 248.008C961.923 249.192 962.659 250.456 963.699 250.936C963.907 251.032 964.147 251.08 964.403 251.08C966.211 251.08 968.787 248.728 969.139 248.536C969.347 248.392 969.507 248.152 969.507 247.928Z" fill="#575457"/>
<path d="M17.444 186.138C17.444 185.786 17.158 185.566 16.806 185.566C16.08 185.566 14.496 186.006 13.506 186.27C12.384 186.578 6.444 188.734 6.444 188.734C6.4 188.36 6.136 187.942 5.718 187.942C5.102 187.942 5.036 188.756 5.036 189.152C5.036 189.218 5.036 189.262 5.036 189.262C3.958 189.724 2 190.054 1.802 190.318C1.714 190.45 1.67 190.604 1.67 190.78C1.67 191.066 1.846 191.352 2.242 191.44C2.682 191.44 5.014 190.56 5.014 190.56L4.838 192.826C4.772 193.596 4.618 195.202 4.618 195.202C4.156 195.62 4.002 195.686 4.002 196.126C4.002 196.566 4.486 196.786 4.486 196.786C4.486 198.194 4.31 200.372 4.31 201.45C4.31 201.802 4.332 202.044 4.376 202.088C4.508 202.22 4.706 202.286 4.904 202.286C5.278 202.286 5.63 202.022 5.63 201.67C5.63 201.428 5.52 201.142 5.476 200.834C5.454 200.636 5.454 200.372 5.454 200.086C5.454 198.59 5.696 196.302 5.696 196.302C7.742 194.916 9.986 194.08 11.218 193.772C12.472 193.464 12.978 193.552 13.462 193.376C13.836 193.244 14.056 192.892 14.056 192.628C14.056 192.276 13.726 192.232 13.484 192.232C12.736 192.232 11.262 192.562 10.008 192.914C8.182 193.42 5.872 194.608 5.872 194.608L6.114 192.98C6.334 191.55 6.488 189.966 6.488 189.966C10.426 188.184 12.56 187.612 14.188 187.084C15.618 186.622 16.454 186.886 16.982 186.688C17.29 186.578 17.444 186.358 17.444 186.138ZM21.8782 193.244C21.8782 192.98 21.7022 192.716 21.5702 192.672C21.1962 192.54 20.8662 192.496 20.5582 192.496C19.2382 192.496 18.3362 193.508 17.5222 194.278C16.1142 195.576 14.5962 197.6 14.5962 197.6C14.5962 196.126 14.5962 195.708 14.5742 194.938C14.5302 193.596 14.4642 193.09 14.1342 192.782C13.9582 192.628 13.8042 192.562 13.6502 192.562C13.4302 192.562 12.9902 192.826 12.9902 193.068C12.9902 193.332 13.4742 193.794 13.4742 196.544C13.4742 196.984 13.4522 197.468 13.4302 198.04C13.3422 199.734 13.0782 200.856 13.0782 201.516C13.0782 201.802 13.1222 202 13.2542 202.132C13.4082 202.286 13.6282 202.396 13.8482 202.396C14.0242 202.396 14.2002 202.33 14.3322 202.154C14.6182 201.78 14.3322 200.086 15.1462 198.854C16.7302 196.456 18.4022 194.586 19.7882 193.772C20.0082 193.64 20.2062 193.596 20.3602 193.596C20.7122 193.596 20.9542 193.794 21.2402 193.794C21.5702 193.794 21.8782 193.53 21.8782 193.244ZM25.753 200.13C25.753 200.13 24.279 201.362 23.201 201.362C22.651 201.362 22.453 201.054 22.453 200.57C22.453 199.47 23.377 198.282 24.477 198.282C25.203 198.282 25.753 200.13 25.753 200.13ZM27.953 197.226C27.953 195.51 27.513 193.75 25.995 192.804C25.643 192.584 25.225 192.496 24.763 192.496C23.487 192.496 22.057 193.244 22.057 193.992C22.079 194.388 22.453 194.542 22.695 194.542C22.805 194.542 22.871 194.52 22.871 194.432C22.915 194.124 23.773 193.53 24.653 193.53C26.391 193.53 26.853 195.994 26.853 197.27C26.853 198.458 26.501 199.272 26.501 199.272C26.171 198.26 25.621 197.182 24.411 197.182C22.717 197.182 21.419 199.184 21.419 200.658C21.419 201.714 22.057 202.396 23.157 202.396C24.521 202.396 26.083 201.296 26.083 201.296C26.083 201.296 26.149 201.67 26.281 201.802C26.391 201.934 26.589 201.978 26.743 201.978C26.853 201.978 26.963 201.956 27.007 201.89C27.117 201.824 27.953 199.558 27.953 197.226ZM40.881 197.886C40.881 197.644 40.683 197.402 40.419 197.402C40.353 197.402 40.287 197.424 40.221 197.446C39.979 197.534 34.721 200.988 31.949 200.988C31.003 200.988 30.255 200.46 30.255 199.536C30.255 197.622 33.115 194.696 33.621 194.542C33.665 194.52 33.731 194.52 33.797 194.52C34.061 194.52 34.303 194.63 34.523 194.63C34.941 194.63 35.403 193.97 35.403 193.574C35.403 193.266 35.183 193.046 34.655 193.046C34.545 193.046 34.413 193.046 34.281 193.068C32.367 193.354 29.045 197.182 29.045 199.734C29.045 201.274 30.497 202 31.795 202C35.381 202 40.859 198.172 40.881 197.974V197.886ZM50.8862 186.534C50.8862 186.182 50.6442 185.918 50.3362 185.918C49.7642 185.918 49.9402 186.424 49.4782 187.37C49.2142 187.942 49.1042 188.448 49.1042 188.844C49.1042 189.152 49.1702 189.592 49.5002 189.592C49.6542 189.592 49.7862 189.482 49.8962 189.372C50.1162 189.152 49.9622 188.8 50.2922 187.986C50.5782 187.282 50.8642 186.908 50.8862 186.622V186.534ZM49.4562 193.068C48.9722 193.354 49.0382 194.454 48.9722 195.51C48.8622 197.622 48.7522 199.206 48.7522 200.262C48.7522 201.054 48.8182 201.538 49.0162 201.692C49.1922 201.824 49.3902 201.89 49.5442 201.89C49.9842 201.89 50.1382 201.538 50.1382 201.164C50.1382 200.768 49.8742 200.724 49.8742 199.734V199.316C49.8742 198.458 50.4022 194.586 50.4022 193.838C50.4022 193.376 50.1382 193.046 49.8082 193.002C49.9182 192.958 49.9842 192.848 49.9842 192.672C49.9402 192.122 49.2362 192.122 48.6862 192.078C48.4882 192.056 47.8942 192.034 47.6962 192.034C46.1342 192.034 44.8142 192.32 44.8142 192.32C45.0122 190.89 45.1442 190.538 45.2762 189.218C45.3202 188.756 45.3422 188.36 45.3422 188.03C45.3422 186.864 45.0782 186.446 44.6602 186.446C44.2422 186.446 44.1542 186.842 44.1542 187.304C44.1542 187.612 44.1982 187.92 44.1982 188.162V188.294C43.9782 190.714 43.6702 192.518 43.6702 192.518C42.3502 192.87 42.0642 192.98 40.8102 193.464C39.6002 193.926 39.5562 194.102 39.4462 194.432C39.4242 194.476 39.4242 194.52 39.4242 194.564C39.4242 194.872 39.7322 195.114 40.1062 195.202C40.5022 195.202 41.2502 194.52 41.6242 194.344C42.4162 193.97 43.4942 193.728 43.4942 193.728C43.3842 194.674 43.2962 195.114 43.1422 196.676C42.9002 198.92 42.9002 200.284 42.9002 201.274C42.9002 201.626 43.0102 202.44 43.6702 202.484H43.7582C44.1762 202.484 44.2862 202.242 44.2862 201.956C44.2862 201.692 44.1762 201.384 44.1762 201.296C44.1542 200.966 44.1542 200.592 44.1542 200.218C44.1542 197.292 44.6162 193.75 44.6382 193.486C45.4302 193.31 46.9482 193.002 48.7082 193.002C48.8842 193.002 49.1922 193.068 49.4562 193.068ZM56.2661 194.3C57.4761 194.3 58.0041 195.708 58.0041 196.676C58.0041 197.446 57.7401 198.216 57.3661 198.942C56.9481 199.734 55.5621 200.944 54.5501 200.944C53.5381 200.944 53.1201 199.514 53.1201 198.722C53.1201 198.414 53.1641 198.106 53.2521 197.864C54.3741 194.542 56.0901 194.3 56.2661 194.3ZM59.1041 196.94C59.1041 196.698 59.0821 196.478 59.0601 196.214C58.8181 193.816 56.9701 193.046 56.0901 193.046C54.8141 193.046 53.5381 194.212 52.3061 197.006C52.0421 197.6 51.9321 198.172 51.9321 198.744C51.9321 200.196 52.7461 202.088 54.3081 202.088C56.1561 202.088 59.1041 200.086 59.1041 196.94ZM67.4137 202.55C67.4137 202.198 67.1937 201.78 67.0397 201.472C66.9957 201.318 66.9737 200.922 66.9737 200.042V197.512C66.9737 194.652 66.8637 192.606 65.8297 192.386H65.7417C64.3777 192.386 62.0457 197.446 62.0457 197.446C62.0237 197.27 62.0237 197.138 62.0237 197.028C62.0237 196.742 62.0677 196.478 62.0677 195.84C62.0677 194.564 62.2877 193.728 62.2877 193.244C62.2877 193.068 62.2657 192.958 62.1997 192.87C62.0677 192.694 61.7817 192.518 61.4957 192.518C61.2757 192.518 61.0777 192.65 61.0117 193.024C60.9677 193.332 60.7697 194.916 60.7257 196.984C60.6817 199.36 60.5497 200.636 60.5497 201.34C60.5497 201.692 60.5937 201.912 60.6817 202.066C60.8357 202.264 61.0117 202.33 61.1657 202.33C61.3197 202.33 61.4737 202.264 61.5837 202.22C61.8477 202.022 61.8257 201.45 62.4857 199.668C63.4757 196.984 65.1037 193.948 65.4997 193.948C65.7637 193.948 65.7857 195.73 65.7857 195.994L65.7637 198.128C65.7637 200.108 65.9837 201.142 65.9837 201.604C65.9837 201.824 65.9177 201.956 65.9177 202.11C65.9177 202.704 66.4677 203.1 66.9077 203.1C67.2377 203.1 67.4137 202.814 67.4137 202.55ZM73.1621 200.13C73.1621 200.13 71.6881 201.362 70.6101 201.362C70.0601 201.362 69.8621 201.054 69.8621 200.57C69.8621 199.47 70.7861 198.282 71.8861 198.282C72.6121 198.282 73.1621 200.13 73.1621 200.13ZM75.3621 197.226C75.3621 195.51 74.9221 193.75 73.4041 192.804C73.0521 192.584 72.6341 192.496 72.1721 192.496C70.8961 192.496 69.4661 193.244 69.4661 193.992C69.4881 194.388 69.8621 194.542 70.1041 194.542C70.2141 194.542 70.2801 194.52 70.2801 194.432C70.3241 194.124 71.1821 193.53 72.0621 193.53C73.8001 193.53 74.2621 195.994 74.2621 197.27C74.2621 198.458 73.9101 199.272 73.9101 199.272C73.5801 198.26 73.0301 197.182 71.8201 197.182C70.1261 197.182 68.8281 199.184 68.8281 200.658C68.8281 201.714 69.4661 202.396 70.5661 202.396C71.9301 202.396 73.4921 201.296 73.4921 201.296C73.4921 201.296 73.5581 201.67 73.6901 201.802C73.8001 201.934 73.9981 201.978 74.1521 201.978C74.2621 201.978 74.3721 201.956 74.4161 201.89C74.5261 201.824 75.3621 199.558 75.3621 197.226ZM80.1328 186.908C80.1328 186.6 80.0668 186.446 79.9568 186.314C79.7368 186.072 79.5608 185.984 79.4068 185.984C79.2088 185.984 79.0768 186.116 78.9228 186.248C78.6368 186.49 78.5708 188.382 78.3068 191.242C78.0428 193.926 77.5808 198.656 77.5808 201.274C77.5808 202.264 77.6688 202.968 77.8448 203.078C78.0428 203.232 78.2188 203.276 78.3728 203.276C78.8128 203.276 78.9008 202.638 78.9008 202.154C78.9008 201.406 78.8348 200.614 78.8348 199.91C78.8348 198.15 78.9448 196.038 79.2088 193.97C79.7588 189.35 80.1328 187.678 80.1328 186.908ZM18.896 223.116C18.896 222.698 18.522 222.39 18.148 222.39C17.708 222.39 17.224 222.676 17.026 222.764C16.542 222.984 10.25 226.614 6.51 226.614C5.806 226.614 5.19 226.482 4.706 226.174C3.848 225.624 3.496 224.832 3.496 223.93C3.496 220.3 9.282 214.8 12.098 214.206C12.582 214.096 13.264 213.964 13.264 213.436C13.264 212.908 12.956 212.71 12.538 212.71C12.076 212.71 11.548 212.93 11.372 212.996C7.698 214.47 2.264 219.75 2.264 223.864C2.264 225.074 2.748 226.196 3.87 227.076C4.486 227.56 5.322 227.758 6.268 227.758C10.36 227.758 16.652 224.04 17.62 223.908C17.62 223.908 18.896 223.776 18.896 223.116ZM27.0523 224.348C27.0523 222.126 26.7883 219.772 25.6003 219.354C25.4023 219.288 25.2043 219.266 25.0063 219.266C22.7183 219.266 19.7483 223.138 19.7483 223.138C19.8363 221.136 19.9903 219.31 20.1663 217.484C20.3203 215.768 20.6503 214.624 20.6503 213.942C20.6503 213.436 20.4523 213.15 19.8803 213.15C19.1103 213.15 19.3083 215.042 18.9123 218.672C18.3183 224.106 18.5823 226.79 18.3403 227.296C18.2083 227.582 18.0543 227.912 18.0543 228.22C18.0543 228.682 18.4063 228.946 18.8023 228.946C19.1983 228.946 19.6383 228.704 19.6383 227.89C19.6383 227.626 19.5943 227.384 19.5943 227.142C19.5943 226.548 19.6823 225.514 20.1663 224.48C20.7823 223.16 23.5323 220.476 24.8523 220.476C24.9843 220.476 25.1163 220.498 25.2043 220.564C25.6883 220.872 25.8423 222.808 25.8423 224.458C25.8423 225.646 25.7543 226.394 25.7543 227.01C25.7543 227.582 25.9083 228.044 26.4363 228.044C26.9423 228.044 27.0303 227.846 27.0303 227.538C27.0303 227.318 26.9863 227.01 26.9863 226.658C26.9863 226.02 27.0523 225.096 27.0523 224.348ZM32.585 226.13C32.585 226.13 31.111 227.362 30.033 227.362C29.483 227.362 29.285 227.054 29.285 226.57C29.285 225.47 30.209 224.282 31.309 224.282C32.035 224.282 32.585 226.13 32.585 226.13ZM34.785 223.226C34.785 221.51 34.345 219.75 32.827 218.804C32.475 218.584 32.057 218.496 31.595 218.496C30.319 218.496 28.889 219.244 28.889 219.992C28.911 220.388 29.285 220.542 29.527 220.542C29.637 220.542 29.703 220.52 29.703 220.432C29.747 220.124 30.605 219.53 31.485 219.53C33.223 219.53 33.685 221.994 33.685 223.27C33.685 224.458 33.333 225.272 33.333 225.272C33.003 224.26 32.453 223.182 31.243 223.182C29.549 223.182 28.251 225.184 28.251 226.658C28.251 227.714 28.889 228.396 29.989 228.396C31.353 228.396 32.915 227.296 32.915 227.296C32.915 227.296 32.981 227.67 33.113 227.802C33.223 227.934 33.421 227.978 33.575 227.978C33.685 227.978 33.795 227.956 33.839 227.89C33.949 227.824 34.785 225.558 34.785 223.226ZM43.4671 228.55C43.4671 228.198 43.2471 227.78 43.0931 227.472C43.0491 227.318 43.0271 226.922 43.0271 226.042V223.512C43.0271 220.652 42.9171 218.606 41.8831 218.386H41.7951C40.4311 218.386 38.0991 223.446 38.0991 223.446C38.0771 223.27 38.0771 223.138 38.0771 223.028C38.0771 222.742 38.1211 222.478 38.1211 221.84C38.1211 220.564 38.3411 219.728 38.3411 219.244C38.3411 219.068 38.3191 218.958 38.2531 218.87C38.1211 218.694 37.8351 218.518 37.5491 218.518C37.3291 218.518 37.1311 218.65 37.0651 219.024C37.0211 219.332 36.8231 220.916 36.7791 222.984C36.7351 225.36 36.6031 226.636 36.6031 227.34C36.6031 227.692 36.6471 227.912 36.7351 228.066C36.8891 228.264 37.0651 228.33 37.2191 228.33C37.3731 228.33 37.5271 228.264 37.6371 228.22C37.9011 228.022 37.8791 227.45 38.5391 225.668C39.5291 222.984 41.1571 219.948 41.5531 219.948C41.8171 219.948 41.8391 221.73 41.8391 221.994L41.8171 224.128C41.8171 226.108 42.0371 227.142 42.0371 227.604C42.0371 227.824 41.9711 227.956 41.9711 228.11C41.9711 228.704 42.5211 229.1 42.9611 229.1C43.2911 229.1 43.4671 228.814 43.4671 228.55ZM52.6162 231.696C52.6162 233.148 52.0442 234.732 50.9002 236.558C50.0642 237.878 48.4142 239.11 46.7862 239.11C45.3122 239.11 43.7282 237.878 43.7282 236.382C43.7282 235.568 44.1462 234.666 44.9822 233.654C47.6662 230.376 52.2642 229.716 52.2642 229.716C52.4842 230.354 52.6162 231.014 52.6162 231.696ZM50.8782 223.204C50.8782 224.304 49.1402 225.316 48.1942 225.712C47.5562 225.976 46.6542 226.152 46.6542 226.152C46.6542 226.152 46.4782 225.69 46.4782 225.272C46.4782 224.744 47.1602 223.204 49.2062 221.378C50.0642 221.532 50.8782 222.28 50.8782 223.204ZM60.0522 229.342C60.0522 229.298 60.0302 229.232 60.0082 229.188C59.6122 228.374 57.9182 228.286 56.4882 228.286C54.9702 228.286 52.9462 228.506 52.9462 228.506C52.4622 227.802 52.2642 227.428 51.3842 226.812C50.6142 226.262 49.8662 226.086 49.8662 226.086C51.0102 225.184 51.9342 224.392 51.9342 223.16C51.9342 222.302 51.3622 221.598 50.7902 221.07C51.9122 220.938 52.8802 220.652 53.8042 220.652C54.2222 220.652 54.4862 220.696 54.6402 220.696C54.8822 220.696 55.0582 220.432 55.0582 220.256C55.0582 220.058 54.8162 219.904 54.5302 219.816C54.4422 219.794 54.2882 219.772 54.0902 219.772C52.8362 219.772 49.7782 220.3 48.5462 220.3C48.3042 220.3 48.1282 220.278 48.0622 220.234C47.8862 220.102 47.7542 220.036 47.6222 220.036C47.3142 220.036 47.1602 220.366 47.1382 220.608C47.1382 220.938 47.7542 221.29 47.7542 221.29C46.2582 223.094 45.2902 224.018 45.2902 225.184C45.2902 225.844 45.5542 226.438 45.5542 226.438C45.1362 226.57 44.5642 226.746 44.5642 227.23C44.5642 227.56 44.9822 227.78 45.2682 227.78C45.8622 227.78 46.6102 227.054 48.5022 227.054C48.7002 227.054 48.8982 227.054 49.1402 227.076C50.9882 227.23 51.8242 228.726 51.8242 228.726C48.6782 229.474 46.6542 230.134 44.0362 232.994C43.0022 234.116 42.5622 235.304 42.5622 236.382C42.5622 238.736 44.8282 240.298 46.8302 240.298C49.3822 240.298 51.4942 238.054 52.3522 236.36C53.4522 234.182 53.7382 232.51 53.7382 231.366C53.7382 230.112 53.4082 229.474 53.4082 229.474C54.5742 229.298 55.9602 229.188 57.1042 229.188C57.6102 229.188 57.9402 229.21 57.9402 229.21C58.1822 229.518 58.0502 229.804 58.9302 229.804C59.4582 229.804 60.0522 229.672 60.0522 229.342ZM61.0124 219.97C60.3304 220.586 59.9564 220.828 59.3844 221.158C58.0204 221.994 56.7884 222.06 56.7884 222.06C56.7884 222.06 57.4704 221.158 58.5924 220.586C59.3844 220.168 60.1984 219.97 61.0124 219.97ZM65.3464 223.776C65.3464 223.402 65.0164 223.072 64.6864 223.072C64.3124 223.072 64.0704 223.644 63.9384 223.886C63.7184 224.194 60.3084 226.988 58.5704 226.988C57.6024 226.988 57.1844 226.46 56.7884 225.822C56.3044 225.074 56.1944 224.392 56.1944 223.93C56.1944 223.534 56.2604 223.292 56.2604 223.292C56.8764 223.248 58.2184 223.116 59.5824 222.28C60.8364 221.532 62.7064 220.124 62.7064 219.574C62.7064 219.508 62.6844 219.464 62.6184 219.42C62.0904 219.068 61.4524 218.914 60.7264 218.914C58.4164 218.914 55.5784 220.608 55.0064 223.094C54.9404 223.358 54.9184 223.622 54.9184 223.886C54.9184 225.514 55.9304 227.252 57.3604 227.912C57.6464 228.044 57.9764 228.11 58.3284 228.11C60.8144 228.11 64.3564 224.876 64.8404 224.612C65.1264 224.414 65.3464 224.084 65.3464 223.776Z" fill="#005573"/>
<path d="M157.85 81.8462L157.85 82.7396L157.85 81.8462ZM173.067 58.5698C173.552 58.6615 174.02 58.3428 174.111 57.8579L175.605 49.9565C175.697 49.4717 175.378 49.0043 174.894 48.9126C174.409 48.8209 173.941 49.1396 173.85 49.6245L172.521 56.6479L165.498 55.3198C165.013 55.2281 164.546 55.5468 164.454 56.0317C164.362 56.5165 164.681 56.9839 165.166 57.0756L173.067 58.5698ZM173.284 65.304C172.742 68.6566 171.862 72.5735 169.639 75.6489C167.461 78.6613 163.93 80.9527 157.85 80.9527L157.85 82.7396C164.471 82.7396 168.554 80.1993 171.087 76.6959C173.574 73.2555 174.501 68.9725 175.048 65.5889L173.284 65.304ZM157.85 80.9527C152.904 80.9527 149.196 79.1251 146.713 76.2362C144.214 73.3299 142.893 69.2752 142.893 64.7415H141.107C141.107 69.6072 142.524 74.1049 145.358 77.4011C148.206 80.7146 152.424 82.7396 157.85 82.7396L157.85 80.9527ZM142.893 64.7415C142.893 60.3248 145.007 56.1027 148.059 52.9694C151.122 49.8247 155.013 47.8935 158.432 47.8935V46.1065C154.393 46.1065 150.068 48.3463 146.779 51.7225C143.48 55.11 141.107 59.7587 141.107 64.7415H142.893ZM158.432 47.8935C166.812 47.8935 170.666 55.5136 172.495 58.1953L173.972 57.1885C172.382 54.8572 167.969 46.1065 158.432 46.1065V47.8935Z" fill="#009696"/>
<path d="M161.887 62.7611C161.887 62.5371 161.647 62.3931 161.455 62.3931C160.991 62.3931 159.423 62.7451 158.527 62.9691C157.935 63.1131 157.135 63.3691 156.287 63.6571C156.271 62.7611 156.271 61.9931 156.271 61.7531C156.255 61.2091 156.143 60.9371 155.855 60.9371C155.791 60.9371 155.711 60.9531 155.631 60.9851C155.503 61.0331 155.375 61.4651 155.375 61.7371C155.391 61.8811 155.407 62.8411 155.439 63.9291C153.951 64.4411 152.527 64.9691 152.479 65.0811C152.431 65.1451 152.415 65.2251 152.415 65.2891C152.415 65.5451 152.671 65.7691 152.815 65.7691C152.831 65.7691 152.863 65.7691 152.879 65.7531C152.959 65.6731 154.159 65.2251 155.455 64.7771C155.487 65.6571 155.503 66.5371 155.503 67.0491V67.5131C155.503 67.8491 155.631 68.1531 155.999 68.1531C156.319 68.1531 156.367 67.7531 156.367 67.5611V67.4971C156.367 67.3851 156.335 65.9131 156.319 64.4891C157.263 64.1691 158.175 63.8651 158.783 63.7051C159.951 63.3851 160.783 63.2091 161.103 63.2091C161.231 63.2091 161.311 63.2411 161.391 63.2411C161.743 63.2411 161.887 62.9851 161.887 62.8571V62.7611Z" fill="#009696"/>
<path d="M157.85 181.846L157.85 182.74L157.85 181.846ZM173.067 158.57C173.552 158.662 174.02 158.343 174.111 157.858L175.605 149.957C175.697 149.472 175.378 149.004 174.894 148.913C174.409 148.821 173.941 149.14 173.85 149.624L172.521 156.648L165.498 155.32C165.013 155.228 164.546 155.547 164.454 156.032C164.362 156.517 164.681 156.984 165.166 157.076L173.067 158.57ZM173.284 165.304C172.742 168.657 171.862 172.574 169.639 175.649C167.461 178.661 163.93 180.953 157.85 180.953L157.85 182.74C164.471 182.74 168.554 180.199 171.087 176.696C173.574 173.255 174.501 168.973 175.048 165.589L173.284 165.304ZM157.85 180.953C152.904 180.953 149.196 179.125 146.713 176.236C144.214 173.33 142.893 169.275 142.893 164.741H141.107C141.107 169.607 142.524 174.105 145.358 177.401C148.206 180.715 152.424 182.74 157.85 182.74L157.85 180.953ZM142.893 164.741C142.893 160.325 145.007 156.103 148.059 152.969C151.122 149.825 155.013 147.893 158.432 147.893V146.107C154.393 146.107 150.068 148.346 146.779 151.723C143.48 155.11 141.107 159.759 141.107 164.741H142.893ZM158.432 147.893C166.812 147.893 170.666 155.514 172.495 158.195L173.972 157.188C172.382 154.857 167.969 146.107 158.432 146.107V147.893Z" fill="#009696"/>
<path d="M160.674 164.233C160.674 164.137 160.626 164.025 160.482 163.913C160.386 163.833 160.034 163.817 159.554 163.817C158.786 163.817 157.682 163.881 156.642 163.961C155.026 164.089 153.794 164.185 153.794 164.873C153.794 165.177 154.098 165.225 154.306 165.225C154.754 165.225 155.426 165.065 156.098 164.921C157.394 164.649 158.578 164.617 159.17 164.617C159.666 164.617 159.778 164.633 159.906 164.633C160.05 164.633 160.21 164.617 160.402 164.553C160.53 164.505 160.674 164.393 160.674 164.233Z" fill="#009696"/>
<line x1="658" y1="23" x2="658" y2="257" stroke="#575457" stroke-width="2"/>
<line x1="977.997" y1="231" x2="633.997" y2="230" stroke="#575457" stroke-width="2"/>
<line x1="977.996" y1="106.5" x2="633.996" y2="105.5" stroke="#009696" stroke-width="3"/>
<path d="M662 227C748 227 787.5 67.5 808.5 67.5C842.515 67.5 821.447 122 859 122C896 122 883 86 903.5 86C924 86 910 114.5 935.5 114C961 113.5 965 98 977 98" stroke="#005573" stroke-width="3"/>
<path d="M256.493 36C257.045 36.0041 257.496 35.5597 257.5 35.0074L257.567 26.0077C257.571 25.4554 257.126 25.0044 256.574 25.0003C256.022 24.9962 255.571 25.4406 255.567 25.9928L255.507 33.9926L247.508 33.9334C246.955 33.9293 246.504 34.3737 246.5 34.9259C246.496 35.4782 246.941 35.9292 247.493 35.9333L256.493 36ZM50.2147 41.1995C61.5508 29.6169 77.9651 21.3404 96.812 15.9933C115.65 10.6488 136.85 8.25043 157.682 8.37498C178.513 8.49953 198.941 11.1468 216.229 15.8709C233.545 20.6027 247.595 27.3866 255.788 35.7018L257.212 34.2982C248.655 25.6134 234.205 18.7098 216.756 13.9416C199.278 9.16571 178.675 6.50047 157.693 6.37502C136.712 6.24957 115.319 8.66366 96.2661 14.0692C77.2224 19.4721 60.4492 27.8831 48.7853 39.8005L50.2147 41.1995Z" fill="#009696"/>
<path d="M48.9438 86.5016C48.3923 86.5326 47.9705 87.0048 48.0016 87.5562L48.5078 96.542C48.5389 97.0934 49.0111 97.5152 49.5625 97.4842C50.1139 97.4531 50.5357 96.9809 50.5047 96.4295L50.0547 88.4422L58.042 87.9922C58.5934 87.9611 59.0152 87.4889 58.9842 86.9375C58.9531 86.3861 58.4809 85.9643 57.9295 85.9953L48.9438 86.5016ZM256.344 77.2456C231.6 98.7728 189.253 109.503 148.285 110.625C127.826 111.186 107.773 109.348 90.5179 105.292C73.2424 101.232 58.8641 94.971 49.6662 86.7542L48.3338 88.2458C57.8859 96.779 72.6326 103.143 90.0603 107.239C107.508 111.34 127.736 113.189 148.34 112.625C189.497 111.497 232.4 100.727 257.656 78.7544L256.344 77.2456Z" fill="#009696"/>
<path d="M281.03 178.243C281.164 178.778 281.707 179.104 282.243 178.97L290.974 176.787C291.51 176.653 291.835 176.11 291.701 175.575C291.567 175.039 291.025 174.713 290.489 174.847L282.728 176.787L280.787 169.026C280.653 168.49 280.11 168.165 279.575 168.299C279.039 168.433 278.713 168.975 278.847 169.511L281.03 178.243ZM285.056 80.8285C289.059 92.3379 291.296 103.35 292.277 113.595L294.268 113.405C293.272 103.007 291.002 91.8375 286.944 80.1715L285.056 80.8285ZM292.276 131.918C291.493 141.448 289.772 151.082 287.706 159.23C285.634 167.406 283.238 173.993 281.143 177.486L282.857 178.514C285.109 174.762 287.562 167.94 289.645 159.722C291.735 151.476 293.477 141.732 294.269 132.082L292.276 131.918Z" fill="#009696"/>
<path d="M28.5299 77.4855C28.2457 77.0119 27.6315 76.8584 27.1579 77.1425L19.4404 81.773C18.9669 82.0571 18.8133 82.6714 19.0975 83.145C19.3816 83.6185 19.9959 83.7721 20.4694 83.488L27.3294 79.372L31.4453 86.2319C31.7295 86.7055 32.3438 86.8591 32.8173 86.5749C33.2909 86.2908 33.4445 85.6765 33.1603 85.2029L28.5299 77.4855ZM35.3645 170.997C22.9235 149.599 19.174 134.908 19.5234 121.401C19.8752 107.797 24.3603 95.3716 28.6425 78.2425L26.7022 77.7575C22.4845 94.6284 17.8834 107.453 17.524 121.349C17.1621 135.342 21.0765 150.401 33.6355 172.003L35.3645 170.997Z" fill="#009696"/>
<path d="M66.9566 242.001C66.4048 242.025 65.977 242.492 66.0009 243.043L66.3919 252.035C66.4159 252.587 66.8826 253.015 67.4344 252.991C67.9861 252.967 68.414 252.5 68.39 251.948L68.0425 243.956L76.0349 243.608C76.5867 243.584 77.0146 243.117 76.9906 242.566C76.9666 242.014 76.4998 241.586 75.9481 241.61L66.9566 242.001ZM249.564 242.1C225.018 254.001 185.45 259.5 148.944 259.25C130.71 259.125 113.292 257.567 98.9555 254.676C84.5662 251.775 73.4601 247.565 67.6757 242.263L66.3243 243.737C72.5399 249.435 84.1213 253.725 98.5602 256.637C113.052 259.558 130.603 261.125 148.931 261.25C185.55 261.5 225.482 255.999 250.436 243.9L249.564 242.1Z" fill="#009696"/>
<path d="M293.764 253.028C293.227 253.159 292.898 253.7 293.028 254.236L295.155 262.981C295.286 263.518 295.827 263.847 296.364 263.717C296.9 263.586 297.229 263.045 297.099 262.509L295.208 254.735L302.981 252.845C303.518 252.714 303.847 252.173 303.717 251.636C303.586 251.1 303.045 250.771 302.509 250.901L293.764 253.028ZM420.659 253.06C398.042 261.262 372.165 264.749 349.076 264.438C325.947 264.126 305.789 260.005 294.52 253.146L293.48 254.854C305.211 261.995 325.803 266.124 349.049 266.437C372.335 266.751 398.458 263.238 421.341 254.94L420.659 253.06Z" fill="#009696"/>
<line x1="281.871" y1="114.008" x2="304.871" y2="111.008" stroke="#009696" stroke-width="2"/>
<line x1="281.871" y1="131.008" x2="304.871" y2="128.008" stroke="#009696" stroke-width="2"/>
</svg>
