<svg width="490" height="326" viewBox="0 0 490 326" fill="none" xmlns="http://www.w3.org/2000/svg">
<path d="M24.2629 54.812C21.8818 55.8641 19.0011 58.9045 19.0011 58.9045C19.0011 58.9045 12.7746 55.7934 9.64675 57.7351C6.39497 59.7537 6.72349 67.0896 6.72349 67.0896L3.80024 70.0127C3.80024 70.0127 -0.0811311 74.2887 3.80027 77.0286C7.68167 79.7684 7.5193 77.7966 11.4007 80.5365C15.2821 83.2763 16.3656 85.615 20.1703 86.383C24.6966 87.2966 28.2613 87.5179 31.8635 84.629C33.6446 83.2006 33.4273 81.1492 35.3713 79.9518C36.9744 78.9645 38.4601 79.7934 40.0485 78.7825C42.2949 77.353 43.6486 75.5971 43.5564 72.9361C43.4551 70.0139 40.167 69.7146 38.8792 67.0896C37.4394 64.1547 38.8853 61.6593 37.1253 58.9045C35.1816 55.8624 33.1236 53.9269 29.5248 53.6427C27.4263 53.4769 26.1883 53.9612 24.2629 54.812Z" stroke="#005573" stroke-width="2.3386"/>
<line x1="149.244" y1="47.6104" x2="149.244" y2="54.6261" stroke="#005573" stroke-width="2.3386"/>
<rect x="130.244" y="37.7796" width="30.4017" height="8.18509" rx="1.1693" stroke="#005573" stroke-width="2.3386"/>
<circle cx="145.615" cy="70.1498" r="16.5395" stroke="#005573" stroke-width="2"/>
<path d="M66.0752 67.5967L128.075 67.6099" stroke="#005573" stroke-width="2.3386"/>
<path d="M66.0752 74.6125H129.075" stroke="#005573" stroke-width="2.3386"/>
<path d="M142.075 47.6104V54.6261" stroke="#005573" stroke-width="2.3386"/>
<path d="M162.575 67.9983L225.292 67.9982L225.292 54.0118L247.292 71.0117L225.292 88.0117L225.292 75.0142L160.575 75.0143" stroke="#005573" stroke-width="2.3386"/>
<path d="M65.0752 73.4533L65.0752 87.1104L44.0752 70.1104L65.0752 53.6104L65.0752 68.7775" stroke="#005573" stroke-width="2" stroke-dasharray="4 4"/>
<path d="M131.36 104.56C131.36 104.18 131.02 103.9 130.68 103.9C130.28 103.9 129.84 104.16 129.66 104.24C129.22 104.44 123.5 107.74 120.1 107.74C119.46 107.74 118.9 107.62 118.46 107.34C117.68 106.84 117.36 106.12 117.36 105.3C117.36 102 122.62 97 125.18 96.46C125.62 96.36 126.24 96.24 126.24 95.76C126.24 95.28 125.96 95.1 125.58 95.1C125.16 95.1 124.68 95.3 124.52 95.36C121.18 96.7 116.24 101.5 116.24 105.24C116.24 106.34 116.68 107.36 117.7 108.16C118.26 108.6 119.02 108.78 119.88 108.78C123.6 108.78 129.32 105.4 130.2 105.28C130.2 105.28 131.36 105.16 131.36 104.56ZM138.745 105.68C138.745 103.66 138.505 101.52 137.425 101.14C137.245 101.08 137.065 101.06 136.885 101.06C134.805 101.06 132.105 104.58 132.105 104.58C132.185 102.76 132.325 101.1 132.485 99.44C132.625 97.88 132.925 96.84 132.925 96.22C132.925 95.76 132.745 95.5 132.225 95.5C131.525 95.5 131.705 97.22 131.345 100.52C130.805 105.46 131.045 107.9 130.825 108.36C130.705 108.62 130.565 108.92 130.565 109.2C130.565 109.62 130.885 109.86 131.245 109.86C131.605 109.86 132.005 109.64 132.005 108.9C132.005 108.66 131.965 108.44 131.965 108.22C131.965 107.68 132.045 106.74 132.485 105.8C133.045 104.6 135.545 102.16 136.745 102.16C136.865 102.16 136.985 102.18 137.065 102.24C137.505 102.52 137.645 104.28 137.645 105.78C137.645 106.86 137.565 107.54 137.565 108.1C137.565 108.62 137.705 109.04 138.185 109.04C138.645 109.04 138.725 108.86 138.725 108.58C138.725 108.38 138.685 108.1 138.685 107.78C138.685 107.2 138.745 106.36 138.745 105.68ZM143.745 107.3C143.745 107.3 142.405 108.42 141.425 108.42C140.925 108.42 140.745 108.14 140.745 107.7C140.745 106.7 141.585 105.62 142.585 105.62C143.245 105.62 143.745 107.3 143.745 107.3ZM145.745 104.66C145.745 103.1 145.345 101.5 143.965 100.64C143.645 100.44 143.265 100.36 142.845 100.36C141.685 100.36 140.385 101.04 140.385 101.72C140.405 102.08 140.745 102.22 140.965 102.22C141.065 102.22 141.125 102.2 141.125 102.12C141.165 101.84 141.945 101.3 142.745 101.3C144.325 101.3 144.745 103.54 144.745 104.7C144.745 105.78 144.425 106.52 144.425 106.52C144.125 105.6 143.625 104.62 142.525 104.62C140.985 104.62 139.805 106.44 139.805 107.78C139.805 108.74 140.385 109.36 141.385 109.36C142.625 109.36 144.045 108.36 144.045 108.36C144.045 108.36 144.105 108.7 144.225 108.82C144.325 108.94 144.505 108.98 144.645 108.98C144.745 108.98 144.845 108.96 144.885 108.9C144.985 108.84 145.745 106.78 145.745 104.66ZM153.607 109.5C153.607 109.18 153.407 108.8 153.267 108.52C153.227 108.38 153.207 108.02 153.207 107.22V104.92C153.207 102.32 153.107 100.46 152.167 100.26H152.087C150.847 100.26 148.727 104.86 148.727 104.86C148.707 104.7 148.707 104.58 148.707 104.48C148.707 104.22 148.747 103.98 148.747 103.4C148.747 102.24 148.947 101.48 148.947 101.04C148.947 100.88 148.927 100.78 148.867 100.7C148.747 100.54 148.487 100.38 148.227 100.38C148.027 100.38 147.847 100.5 147.787 100.84C147.747 101.12 147.567 102.56 147.527 104.44C147.487 106.6 147.367 107.76 147.367 108.4C147.367 108.72 147.407 108.92 147.487 109.06C147.627 109.24 147.787 109.3 147.927 109.3C148.067 109.3 148.207 109.24 148.307 109.2C148.547 109.02 148.527 108.5 149.127 106.88C150.027 104.44 151.507 101.68 151.867 101.68C152.107 101.68 152.127 103.3 152.127 103.54L152.107 105.48C152.107 107.28 152.307 108.22 152.307 108.64C152.307 108.84 152.247 108.96 152.247 109.1C152.247 109.64 152.747 110 153.147 110C153.447 110 153.607 109.74 153.607 109.5ZM161.895 112.36C161.895 113.68 161.375 115.12 160.335 116.78C159.575 117.98 158.075 119.1 156.595 119.1C155.255 119.1 153.815 117.98 153.815 116.62C153.815 115.88 154.195 115.06 154.955 114.14C157.395 111.16 161.575 110.56 161.575 110.56C161.775 111.14 161.895 111.74 161.895 112.36ZM160.315 104.64C160.315 105.64 158.735 106.56 157.875 106.92C157.295 107.16 156.475 107.32 156.475 107.32C156.475 107.32 156.315 106.9 156.315 106.52C156.315 106.04 156.935 104.64 158.795 102.98C159.575 103.12 160.315 103.8 160.315 104.64ZM168.655 110.22C168.655 110.18 168.635 110.12 168.615 110.08C168.255 109.34 166.715 109.26 165.415 109.26C164.035 109.26 162.195 109.46 162.195 109.46C161.755 108.82 161.575 108.48 160.775 107.92C160.075 107.42 159.395 107.26 159.395 107.26C160.435 106.44 161.275 105.72 161.275 104.6C161.275 103.82 160.755 103.18 160.235 102.7C161.255 102.58 162.135 102.32 162.975 102.32C163.355 102.32 163.595 102.36 163.735 102.36C163.955 102.36 164.115 102.12 164.115 101.96C164.115 101.78 163.895 101.64 163.635 101.56C163.555 101.54 163.415 101.52 163.235 101.52C162.095 101.52 159.315 102 158.195 102C157.975 102 157.815 101.98 157.755 101.94C157.595 101.82 157.475 101.76 157.355 101.76C157.075 101.76 156.935 102.06 156.915 102.28C156.915 102.58 157.475 102.9 157.475 102.9C156.115 104.54 155.235 105.38 155.235 106.44C155.235 107.04 155.475 107.58 155.475 107.58C155.095 107.7 154.575 107.86 154.575 108.3C154.575 108.6 154.955 108.8 155.215 108.8C155.755 108.8 156.435 108.14 158.155 108.14C158.335 108.14 158.515 108.14 158.735 108.16C160.415 108.3 161.175 109.66 161.175 109.66C158.315 110.34 156.475 110.94 154.095 113.54C153.155 114.56 152.755 115.64 152.755 116.62C152.755 118.76 154.815 120.18 156.635 120.18C158.955 120.18 160.875 118.14 161.655 116.6C162.655 114.62 162.915 113.1 162.915 112.06C162.915 110.92 162.615 110.34 162.615 110.34C163.675 110.18 164.935 110.08 165.975 110.08C166.435 110.08 166.735 110.1 166.735 110.1C166.955 110.38 166.835 110.64 167.635 110.64C168.115 110.64 168.655 110.52 168.655 110.22ZM169.498 101.7C168.878 102.26 168.538 102.48 168.018 102.78C166.778 103.54 165.658 103.6 165.658 103.6C165.658 103.6 166.278 102.78 167.298 102.26C168.018 101.88 168.758 101.7 169.498 101.7ZM173.438 105.16C173.438 104.82 173.138 104.52 172.838 104.52C172.498 104.52 172.278 105.04 172.158 105.26C171.958 105.54 168.858 108.08 167.278 108.08C166.398 108.08 166.018 107.6 165.658 107.02C165.218 106.34 165.118 105.72 165.118 105.3C165.118 104.94 165.178 104.72 165.178 104.72C165.738 104.68 166.958 104.56 168.198 103.8C169.338 103.12 171.038 101.84 171.038 101.34C171.038 101.28 171.018 101.24 170.958 101.2C170.478 100.88 169.898 100.74 169.238 100.74C167.138 100.74 164.558 102.28 164.038 104.54C163.978 104.78 163.958 105.02 163.958 105.26C163.958 106.74 164.878 108.32 166.178 108.92C166.438 109.04 166.738 109.1 167.058 109.1C169.318 109.1 172.538 106.16 172.978 105.92C173.238 105.74 173.438 105.44 173.438 105.16Z" fill="#005573"/>
<path d="M267.78 205.7C267.78 207.04 264.18 208.72 262.3 209.5C261.5 209.84 260.68 210 260.68 210C260.68 210 260.86 208.64 261.02 207.88C261.14 207.28 261.2 206.7 261.22 206.32C261.28 206.5 261.42 206.58 261.54 206.58C261.62 206.58 261.68 206.54 261.74 206.5C262.28 206.02 265.08 205.22 266.68 205.22C267.32 205.22 267.78 205.36 267.78 205.7ZM272.64 217.46C272.64 216.9 272.02 216.64 271.7 216.6C271.12 216.52 267.82 215.4 263.54 212.6C262.56 211.96 261.5 210.94 261.5 210.94C266.04 209.16 268.96 207.28 268.96 205.66V205.56C268.86 204.42 267.98 204.04 266.84 204.04C264.54 204.04 261.2 205.6 261.2 205.6C261.1 205.26 260.92 204.98 260.54 204.98C259.94 204.98 259.66 205.44 259.66 205.92C259.66 206.18 259.7 206.44 259.74 206.68V206.96C259.74 207.9 259.52 210.24 259.52 210.24L259.32 210.3L259.5 210.66C259.38 213.2 259.02 216.4 259.02 217.74C259.02 218.06 259.04 218.28 259.1 218.34C259.24 218.5 259.44 218.58 259.66 218.58C260.1 218.58 260.44 218.24 260.44 217.84C260.44 217.44 260.18 217 260.18 216.58C260.24 214.48 260.5 211.52 260.5 211.52C261.5 212.34 261.94 212.82 263.54 213.86C267.74 216.6 271 217.52 271.16 217.72C271.3 217.9 271.7 218.04 272.02 218.04C272.42 218.04 272.64 217.84 272.64 217.46ZM276.009 210.7C275.389 211.26 275.049 211.48 274.529 211.78C273.289 212.54 272.169 212.6 272.169 212.6C272.169 212.6 272.789 211.78 273.809 211.26C274.529 210.88 275.269 210.7 276.009 210.7ZM279.949 214.16C279.949 213.82 279.649 213.52 279.349 213.52C279.009 213.52 278.789 214.04 278.669 214.26C278.469 214.54 275.369 217.08 273.789 217.08C272.909 217.08 272.529 216.6 272.169 216.02C271.729 215.34 271.629 214.72 271.629 214.3C271.629 213.94 271.689 213.72 271.689 213.72C272.249 213.68 273.469 213.56 274.709 212.8C275.849 212.12 277.549 210.84 277.549 210.34C277.549 210.28 277.529 210.24 277.469 210.2C276.989 209.88 276.409 209.74 275.749 209.74C273.649 209.74 271.069 211.28 270.549 213.54C270.489 213.78 270.469 214.02 270.469 214.26C270.469 215.74 271.389 217.32 272.689 217.92C272.949 218.04 273.249 218.1 273.569 218.1C275.829 218.1 279.049 215.16 279.489 214.92C279.749 214.74 279.949 214.44 279.949 214.16ZM286.296 208.56V208.48C286.276 208.24 285.576 207.88 285.316 207.76C285.196 207.7 285.036 207.66 284.856 207.66C284.596 207.66 284.276 207.74 284.036 207.94C282.716 209.04 280.196 210.92 280.196 213.12C280.196 216.12 284.796 215.92 285.076 216.9C285.076 217.62 282.176 218.6 282.056 218.8C281.976 218.9 281.936 219 281.936 219.1C281.936 219.38 282.236 219.62 282.656 219.64C282.956 219.64 286.236 217.92 286.236 217.1C286.236 215.86 285.096 215.66 283.876 215.18C282.556 214.68 281.236 214.28 281.236 213.12C281.236 212.5 281.736 211.34 282.636 210.54C284.216 209.12 284.436 208.7 285.116 208.68C285.276 208.68 285.496 208.92 285.876 208.92C286.176 208.92 286.296 208.76 286.296 208.56ZM290.972 211C292.072 211 292.552 212.28 292.552 213.16C292.552 213.86 292.312 214.56 291.972 215.22C291.592 215.94 290.332 217.04 289.412 217.04C288.492 217.04 288.112 215.74 288.112 215.02C288.112 214.74 288.152 214.46 288.232 214.24C289.252 211.22 290.812 211 290.972 211ZM293.552 213.4C293.552 213.18 293.532 212.98 293.512 212.74C293.292 210.56 291.612 209.86 290.812 209.86C289.652 209.86 288.492 210.92 287.372 213.46C287.132 214 287.032 214.52 287.032 215.04C287.032 216.36 287.772 218.08 289.192 218.08C290.872 218.08 293.552 216.26 293.552 213.4ZM300.256 210.9C300.256 210.9 300.216 210.1 299.696 210.1C299.076 210.1 299.056 210.54 299.056 210.82C299.036 211.34 298.696 214.58 297.696 216.34C297.556 216.58 297.416 216.68 297.296 216.68C296.616 216.68 295.916 214.14 295.916 210.94C295.916 210.68 295.936 210.42 295.936 210.14C295.936 209.88 295.776 209.38 295.336 209.38H295.236C295.016 209.38 294.836 209.54 294.836 210.02C294.856 210.76 294.916 217.92 297.276 217.92C297.456 217.92 297.676 217.86 297.896 217.76C299.096 217.2 300.256 211.28 300.256 210.9ZM309.752 210.04C309.752 209.8 309.592 209.56 309.472 209.52C309.132 209.4 308.832 209.36 308.552 209.36C307.352 209.36 306.532 210.28 305.792 210.98C304.512 212.16 303.132 214 303.132 214C303.132 212.66 303.132 212.28 303.112 211.58C303.072 210.36 303.012 209.9 302.712 209.62C302.552 209.48 302.412 209.42 302.272 209.42C302.072 209.42 301.672 209.66 301.672 209.88C301.672 210.12 302.112 210.54 302.112 213.04C302.112 213.44 302.092 213.88 302.072 214.4C301.992 215.94 301.752 216.96 301.752 217.56C301.752 217.82 301.792 218 301.912 218.12C302.052 218.26 302.252 218.36 302.452 218.36C302.612 218.36 302.772 218.3 302.892 218.14C303.152 217.8 302.892 216.26 303.632 215.14C305.072 212.96 306.592 211.26 307.852 210.52C308.052 210.4 308.232 210.36 308.372 210.36C308.692 210.36 308.912 210.54 309.172 210.54C309.472 210.54 309.752 210.3 309.752 210.04ZM318.979 214.26C318.979 214.04 318.799 213.82 318.559 213.82C318.499 213.82 318.439 213.84 318.379 213.86C318.159 213.94 313.379 217.08 310.859 217.08C309.999 217.08 309.319 216.6 309.319 215.76C309.319 214.02 311.919 211.36 312.379 211.22C312.419 211.2 312.479 211.2 312.539 211.2C312.779 211.2 312.999 211.3 313.199 211.3C313.579 211.3 313.999 210.7 313.999 210.34C313.999 210.06 313.799 209.86 313.319 209.86C313.219 209.86 313.099 209.86 312.979 209.88C311.239 210.14 308.219 213.62 308.219 215.94C308.219 217.34 309.539 218 310.719 218C313.979 218 318.959 214.52 318.979 214.34V214.26ZM323.783 210.7C323.163 211.26 322.823 211.48 322.303 211.78C321.063 212.54 319.943 212.6 319.943 212.6C319.943 212.6 320.563 211.78 321.583 211.26C322.303 210.88 323.043 210.7 323.783 210.7ZM327.723 214.16C327.723 213.82 327.423 213.52 327.123 213.52C326.783 213.52 326.563 214.04 326.443 214.26C326.243 214.54 323.143 217.08 321.563 217.08C320.683 217.08 320.303 216.6 319.943 216.02C319.503 215.34 319.403 214.72 319.403 214.3C319.403 213.94 319.463 213.72 319.463 213.72C320.023 213.68 321.243 213.56 322.483 212.8C323.623 212.12 325.323 210.84 325.323 210.34C325.323 210.28 325.303 210.24 325.243 210.2C324.763 209.88 324.183 209.74 323.523 209.74C321.423 209.74 318.843 211.28 318.323 213.54C318.263 213.78 318.243 214.02 318.243 214.26C318.243 215.74 319.163 217.32 320.463 217.92C320.723 218.04 321.023 218.1 321.343 218.1C323.603 218.1 326.823 215.16 327.263 214.92C327.523 214.74 327.723 214.44 327.723 214.16ZM265.86 243.96C265.26 244.16 264.7 244.3 263.98 244.48C262.7 244.8 261.12 245.1 261.12 245.1C261.12 245.1 262.02 242.96 262.62 241.76C263.24 240.5 264.32 238.48 264.32 238.48C264.62 239.26 264.84 240.16 265.12 241.1C265.56 242.68 265.86 243.96 265.86 243.96ZM270.7 243.18C270.66 242.76 270.44 242.66 270.22 242.66C269.96 242.66 269.7 242.78 269.7 242.78L266.9 243.62C266.52 242.06 265.98 239.82 265.72 238.88C265.38 237.66 265.3 236.72 265.26 236.46C265.22 236.16 265.12 235.7 264.74 235.7C264.28 235.7 264.12 236.02 263.98 236.34L259.88 245.3C259.66 245.36 258.8 245.5 258.7 245.9C258.66 246.02 258.66 246.12 258.66 246.2C258.66 246.8 259.26 246.86 259.26 246.86C258.9 247.74 258.48 248.9 258.48 249.38C258.48 249.42 258.48 249.46 258.5 249.5C258.58 249.7 258.78 249.84 259.02 249.84C259.12 249.84 259.22 249.8 259.34 249.76C259.64 249.62 259.6 249.36 259.7 248.74C259.8 248.12 260.52 246.7 260.52 246.7C261.3 246.42 262 246.12 262.7 245.9C264.14 245.42 266.08 244.86 266.08 244.86L267.5 250.78C267.48 250.86 267.48 250.88 267.48 250.9C267.48 251.22 267.94 251.52 268.3 251.52C268.62 251.52 268.9 251.2 268.9 250.94C268.9 250.56 268.44 250.22 268.44 250.22L267.1 244.52L269.68 243.76C269.76 243.8 269.86 243.82 269.98 243.82C270.32 243.82 270.7 243.64 270.7 243.18ZM276.568 247.08C274.968 248 273.088 249.24 271.828 249.24C271.128 249.24 270.628 248.8 270.628 248.14C270.628 246.56 272.888 243.9 274.508 243.9C274.688 243.9 274.868 243.92 275.028 244C276.268 244.54 276.568 247.08 276.568 247.08ZM279.288 236.92C279.288 236.4 278.868 235.92 278.268 235.92C278.028 235.92 277.928 236.12 277.928 236.44C277.928 236.68 277.948 236.92 278.048 237.24C278.068 237.3 278.068 237.34 278.068 237.4C278.068 238.46 277.248 245.14 277.248 245.14C276.728 244.2 276.388 243.26 274.788 242.92C274.708 242.9 274.588 242.9 274.488 242.9C272.648 242.9 269.588 245.66 269.588 248.06C269.588 249.32 270.368 250.28 271.688 250.28C273.788 250.28 276.708 248.28 276.708 248.28C276.868 248.86 276.648 249.5 277.608 249.64C277.948 249.64 278.028 249.22 278.028 248.76C278.028 248.2 277.908 247.58 277.908 247.58C278.588 247.3 279.128 247.32 279.128 246.78C279.128 246.7 279.128 246.62 279.088 246.5C278.988 246.08 278.248 246.02 278.248 246.02C278.388 243.12 279.068 237.68 279.208 237.3C279.268 237.18 279.288 237.04 279.288 236.92ZM285.619 242.7C284.999 243.26 284.659 243.48 284.139 243.78C282.899 244.54 281.779 244.6 281.779 244.6C281.779 244.6 282.399 243.78 283.419 243.26C284.139 242.88 284.879 242.7 285.619 242.7ZM289.559 246.16C289.559 245.82 289.259 245.52 288.959 245.52C288.619 245.52 288.399 246.04 288.279 246.26C288.079 246.54 284.979 249.08 283.399 249.08C282.519 249.08 282.139 248.6 281.779 248.02C281.339 247.34 281.239 246.72 281.239 246.3C281.239 245.94 281.299 245.72 281.299 245.72C281.859 245.68 283.079 245.56 284.319 244.8C285.459 244.12 287.159 242.84 287.159 242.34C287.159 242.28 287.139 242.24 287.079 242.2C286.599 241.88 286.019 241.74 285.359 241.74C283.259 241.74 280.679 243.28 280.159 245.54C280.099 245.78 280.079 246.02 280.079 246.26C280.079 247.74 280.999 249.32 282.299 249.92C282.559 250.04 282.859 250.1 283.179 250.1C285.439 250.1 288.659 247.16 289.099 246.92C289.359 246.74 289.559 246.44 289.559 246.16ZM299.905 254.32C299.905 254.24 299.885 254.2 299.745 254.2C299.665 254.2 299.525 254.22 299.325 254.24C298.885 254.28 295.705 258.68 294.925 258.68C294.885 258.68 294.845 258.68 294.805 258.64C294.125 257.84 293.925 254.96 293.925 252.98C293.925 250.54 294.525 247.06 294.725 246.32C294.925 245.66 294.945 245.74 295.185 244.9C295.385 244.26 295.525 243.9 295.525 243.66C295.525 243.3 295.145 243.14 294.865 243.14C294.565 243.14 294.285 243.22 294.285 243.52C294.285 243.66 294.325 243.82 294.325 244.02C294.325 244.16 294.305 244.32 294.205 244.5C293.645 245.66 291.765 248.38 291.325 248.38C291.165 248.38 291.165 247.78 291.165 247.68C291.165 246.1 292.405 243.22 293.585 242.4C293.705 242.32 293.885 242.3 294.185 242.3C294.365 242.3 294.505 242.26 294.545 241.88C294.545 241.54 293.945 241.16 293.565 241.16C292.705 241.16 291.245 243.14 290.625 245.48C290.425 246.26 290.225 247.32 290.225 248.2C290.225 248.94 290.365 249.54 290.785 249.72C290.845 249.74 290.905 249.76 290.985 249.76C291.925 249.76 293.585 247.42 293.585 247.42C293.225 249.48 293.005 251.08 293.005 253.02C293.005 255.34 293.265 259.78 294.725 259.88C296.005 259.88 299.885 254.62 299.905 254.32ZM302.131 242.9C302.131 242.9 302.091 242.1 301.571 242.1C300.951 242.1 300.931 242.54 300.931 242.82C300.911 243.34 300.571 246.58 299.571 248.34C299.431 248.58 299.291 248.68 299.171 248.68C298.491 248.68 297.791 246.14 297.791 242.94C297.791 242.68 297.811 242.42 297.811 242.14C297.811 241.88 297.651 241.38 297.211 241.38H297.111C296.891 241.38 296.711 241.54 296.711 242.02C296.731 242.76 296.791 249.92 299.151 249.92C299.331 249.92 299.551 249.86 299.771 249.76C300.971 249.2 302.131 243.28 302.131 242.9ZM306.877 248.3C306.877 248.3 305.537 249.42 304.557 249.42C304.057 249.42 303.877 249.14 303.877 248.7C303.877 247.7 304.717 246.62 305.717 246.62C306.377 246.62 306.877 248.3 306.877 248.3ZM308.877 245.66C308.877 244.1 308.477 242.5 307.097 241.64C306.777 241.44 306.397 241.36 305.977 241.36C304.817 241.36 303.517 242.04 303.517 242.72C303.537 243.08 303.877 243.22 304.097 243.22C304.197 243.22 304.257 243.2 304.257 243.12C304.297 242.84 305.077 242.3 305.877 242.3C307.457 242.3 307.877 244.54 307.877 245.7C307.877 246.78 307.557 247.52 307.557 247.52C307.257 246.6 306.757 245.62 305.657 245.62C304.117 245.62 302.937 247.44 302.937 248.78C302.937 249.74 303.517 250.36 304.517 250.36C305.757 250.36 307.177 249.36 307.177 249.36C307.177 249.36 307.237 249.7 307.357 249.82C307.457 249.94 307.637 249.98 307.777 249.98C307.877 249.98 307.977 249.96 308.017 249.9C308.117 249.84 308.877 247.78 308.877 245.66ZM320.6 246.26C320.6 246.04 320.42 245.82 320.18 245.82C320.12 245.82 320.06 245.84 320 245.86C319.78 245.94 315 249.08 312.48 249.08C311.62 249.08 310.94 248.6 310.94 247.76C310.94 246.02 313.54 243.36 314 243.22C314.04 243.2 314.1 243.2 314.16 243.2C314.4 243.2 314.62 243.3 314.82 243.3C315.2 243.3 315.62 242.7 315.62 242.34C315.62 242.06 315.42 241.86 314.94 241.86C314.84 241.86 314.72 241.86 314.6 241.88C312.86 242.14 309.84 245.62 309.84 247.94C309.84 249.34 311.16 250 312.34 250C315.6 250 320.58 246.52 320.6 246.34V246.26ZM327.175 244.02C327.175 243.26 327.015 242.46 326.695 242.34C326.615 242.3 326.535 242.3 326.475 242.3C326.055 242.3 325.975 242.92 325.715 243.24C324.095 245.14 322.455 247.1 321.955 247.1C321.815 247.1 321.795 246.88 321.795 246.76C321.795 245.04 322.515 243.46 322.595 241.82C322.575 241.5 322.135 241.2 321.915 241.2C321.315 241.2 321.275 242.84 321.235 243.08C320.975 244.72 320.695 246.42 320.695 247.54C320.695 248.32 320.835 248.84 321.275 248.84C322.475 248.86 325.955 244.46 325.955 244.46C325.895 247.46 325.755 248.92 325.475 251.66C325.075 255.68 324.835 257.98 324.695 258.02C324.615 258.04 324.455 258.36 324.455 258.66C324.455 258.98 324.635 259.3 325.255 259.3C325.775 259.3 325.975 259.06 325.975 258.76C325.975 258.44 325.775 258.06 325.695 257.96C325.675 257.94 325.675 257.9 325.675 257.82C325.675 257.4 325.915 256.12 326.195 253.68C326.575 250.36 326.995 245.78 327.135 244.66C327.155 244.46 327.175 244.24 327.175 244.02Z" fill="#005573"/>
<path d="M122.86 202.96C122.26 203.16 121.7 203.3 120.98 203.48C119.7 203.8 118.12 204.1 118.12 204.1C118.12 204.1 119.02 201.96 119.62 200.76C120.24 199.5 121.32 197.48 121.32 197.48C121.62 198.26 121.84 199.16 122.12 200.1C122.56 201.68 122.86 202.96 122.86 202.96ZM127.7 202.18C127.66 201.76 127.44 201.66 127.22 201.66C126.96 201.66 126.7 201.78 126.7 201.78L123.9 202.62C123.52 201.06 122.98 198.82 122.72 197.88C122.38 196.66 122.3 195.72 122.26 195.46C122.22 195.16 122.12 194.7 121.74 194.7C121.28 194.7 121.12 195.02 120.98 195.34L116.88 204.3C116.66 204.36 115.8 204.5 115.7 204.9C115.66 205.02 115.66 205.12 115.66 205.2C115.66 205.8 116.26 205.86 116.26 205.86C115.9 206.74 115.48 207.9 115.48 208.38C115.48 208.42 115.48 208.46 115.5 208.5C115.58 208.7 115.78 208.84 116.02 208.84C116.12 208.84 116.22 208.8 116.34 208.76C116.64 208.62 116.6 208.36 116.7 207.74C116.8 207.12 117.52 205.7 117.52 205.7C118.3 205.42 119 205.12 119.7 204.9C121.14 204.42 123.08 203.86 123.08 203.86L124.5 209.78C124.48 209.86 124.48 209.88 124.48 209.9C124.48 210.22 124.94 210.52 125.3 210.52C125.62 210.52 125.9 210.2 125.9 209.94C125.9 209.56 125.44 209.22 125.44 209.22L124.1 203.52L126.68 202.76C126.76 202.8 126.86 202.82 126.98 202.82C127.32 202.82 127.7 202.64 127.7 202.18ZM133.568 206.08C131.968 207 130.088 208.24 128.828 208.24C128.128 208.24 127.628 207.8 127.628 207.14C127.628 205.56 129.888 202.9 131.508 202.9C131.688 202.9 131.868 202.92 132.028 203C133.268 203.54 133.568 206.08 133.568 206.08ZM136.288 195.92C136.288 195.4 135.868 194.92 135.268 194.92C135.028 194.92 134.928 195.12 134.928 195.44C134.928 195.68 134.948 195.92 135.048 196.24C135.068 196.3 135.068 196.34 135.068 196.4C135.068 197.46 134.248 204.14 134.248 204.14C133.728 203.2 133.388 202.26 131.788 201.92C131.708 201.9 131.588 201.9 131.488 201.9C129.648 201.9 126.588 204.66 126.588 207.06C126.588 208.32 127.368 209.28 128.688 209.28C130.788 209.28 133.708 207.28 133.708 207.28C133.868 207.86 133.648 208.5 134.608 208.64C134.948 208.64 135.028 208.22 135.028 207.76C135.028 207.2 134.908 206.58 134.908 206.58C135.588 206.3 136.128 206.32 136.128 205.78C136.128 205.7 136.128 205.62 136.088 205.5C135.988 205.08 135.248 205.02 135.248 205.02C135.388 202.12 136.068 196.68 136.208 196.3C136.268 196.18 136.288 196.04 136.288 195.92ZM141.039 210.14C141.039 206.44 140.199 201.96 139.859 201.64C139.719 201.48 139.539 201.42 139.359 201.42C139.079 201.42 138.839 201.6 138.819 201.8V201.88C138.819 202.18 139.019 202.2 139.039 202.5C139.079 202.82 139.799 206.64 139.799 210.08C139.799 210.96 139.739 211.82 139.619 212.58C139.139 215.7 136.659 218.36 134.019 218.36C133.819 218.36 133.679 218.36 133.419 218.32C130.779 217.92 130.399 216.06 130.399 214.86C130.399 214.4 130.459 214.04 130.459 213.9C130.459 213.8 130.419 213.62 130.299 213.62C130.239 213.62 130.179 213.66 130.139 213.72C129.959 213.96 129.759 214.58 129.759 215.34C129.759 216.34 130.119 217.6 131.379 218.56C131.999 219.02 132.959 219.34 134.059 219.34C136.419 219.34 139.359 217.9 140.659 213.56C140.939 212.66 141.039 211.46 141.039 210.14ZM140.659 195.7C140.659 195.26 140.479 194.9 140.079 194.9C139.739 194.9 139.559 195.04 139.559 195.36V195.5C139.559 196.08 139.879 196.38 140.239 196.38C140.519 196.38 140.659 196.14 140.659 195.7ZM147.705 201.9C147.705 201.9 147.665 201.1 147.145 201.1C146.525 201.1 146.505 201.54 146.505 201.82C146.485 202.34 146.145 205.58 145.145 207.34C145.005 207.58 144.865 207.68 144.745 207.68C144.065 207.68 143.365 205.14 143.365 201.94C143.365 201.68 143.385 201.42 143.385 201.14C143.385 200.88 143.225 200.38 142.785 200.38H142.685C142.465 200.38 142.285 200.54 142.285 201.02C142.305 201.76 142.365 208.92 144.725 208.92C144.905 208.92 145.125 208.86 145.345 208.76C146.545 208.2 147.705 202.28 147.705 201.9ZM154.741 199.56V199.48C154.721 199.24 154.021 198.88 153.761 198.76C153.641 198.7 153.481 198.66 153.301 198.66C153.041 198.66 152.721 198.74 152.481 198.94C151.161 200.04 148.641 201.92 148.641 204.12C148.641 207.12 153.241 206.92 153.521 207.9C153.521 208.62 150.621 209.6 150.501 209.8C150.421 209.9 150.381 210 150.381 210.1C150.381 210.38 150.681 210.62 151.101 210.64C151.401 210.64 154.681 208.92 154.681 208.1C154.681 206.86 153.541 206.66 152.321 206.18C151.001 205.68 149.681 205.28 149.681 204.12C149.681 203.5 150.181 202.34 151.081 201.54C152.661 200.12 152.881 199.7 153.561 199.68C153.721 199.68 153.941 199.92 154.321 199.92C154.621 199.92 154.741 199.76 154.741 199.56ZM164.177 200.52C164.137 199.96 163.417 199.98 162.997 199.96C162.817 199.96 162.637 199.94 162.457 199.94C161.037 199.94 159.837 200.2 159.837 200.2C160.017 198.9 160.137 198.58 160.257 197.38C160.297 196.96 160.317 196.6 160.317 196.3C160.317 195.24 160.077 194.86 159.697 194.86C159.317 194.86 159.237 195.22 159.237 195.64C159.237 195.92 159.277 196.2 159.277 196.54C159.277 197.22 158.797 200.38 158.797 200.38C157.597 200.7 157.337 200.8 156.197 201.24C155.097 201.66 155.057 201.8 154.957 202.1C154.937 202.16 154.937 202.2 154.937 202.24C154.937 202.52 155.337 202.82 155.557 202.82C155.917 202.82 156.597 202.2 156.937 202.04C157.657 201.7 158.637 201.48 158.637 201.48C158.537 202.34 158.457 202.74 158.317 204.16C158.097 206.2 158.097 207.44 158.097 208.34C158.097 208.66 158.197 209.4 158.797 209.44H158.877C159.257 209.44 159.357 209.22 159.357 208.96C159.357 208.72 159.257 208.44 159.257 208.36C159.237 208.06 159.237 207.72 159.237 207.38C159.237 204.72 159.657 201.5 159.677 201.26C160.397 201.1 161.777 200.82 163.017 200.82C163.177 200.82 163.457 200.88 163.697 200.88C163.957 200.88 164.177 200.82 164.177 200.52ZM167.755 201.7C167.135 202.26 166.795 202.48 166.275 202.78C165.035 203.54 163.915 203.6 163.915 203.6C163.915 203.6 164.535 202.78 165.555 202.26C166.275 201.88 167.015 201.7 167.755 201.7ZM171.695 205.16C171.695 204.82 171.395 204.52 171.095 204.52C170.755 204.52 170.535 205.04 170.415 205.26C170.215 205.54 167.115 208.08 165.535 208.08C164.655 208.08 164.275 207.6 163.915 207.02C163.475 206.34 163.375 205.72 163.375 205.3C163.375 204.94 163.435 204.72 163.435 204.72C163.995 204.68 165.215 204.56 166.455 203.8C167.595 203.12 169.295 201.84 169.295 201.34C169.295 201.28 169.275 201.24 169.215 201.2C168.735 200.88 168.155 200.74 167.495 200.74C165.395 200.74 162.815 202.28 162.295 204.54C162.235 204.78 162.215 205.02 162.215 205.26C162.215 206.74 163.135 208.32 164.435 208.92C164.695 209.04 164.995 209.1 165.315 209.1C167.575 209.1 170.795 206.16 171.235 205.92C171.495 205.74 171.695 205.44 171.695 205.16ZM178.509 206.08C176.909 207 175.029 208.24 173.769 208.24C173.069 208.24 172.569 207.8 172.569 207.14C172.569 205.56 174.829 202.9 176.449 202.9C176.629 202.9 176.809 202.92 176.969 203C178.209 203.54 178.509 206.08 178.509 206.08ZM181.229 195.92C181.229 195.4 180.809 194.92 180.209 194.92C179.969 194.92 179.869 195.12 179.869 195.44C179.869 195.68 179.889 195.92 179.989 196.24C180.009 196.3 180.009 196.34 180.009 196.4C180.009 197.46 179.189 204.14 179.189 204.14C178.669 203.2 178.329 202.26 176.729 201.92C176.649 201.9 176.529 201.9 176.429 201.9C174.589 201.9 171.529 204.66 171.529 207.06C171.529 208.32 172.309 209.28 173.629 209.28C175.729 209.28 178.649 207.28 178.649 207.28C178.809 207.86 178.589 208.5 179.549 208.64C179.889 208.64 179.969 208.22 179.969 207.76C179.969 207.2 179.849 206.58 179.849 206.58C180.529 206.3 181.069 206.32 181.069 205.78C181.069 205.7 181.069 205.62 181.029 205.5C180.929 205.08 180.189 205.02 180.189 205.02C180.329 202.12 181.009 196.68 181.149 196.3C181.209 196.18 181.229 196.04 181.229 195.92ZM129.04 226.58C129.04 226.26 128.78 226.06 128.46 226.06C127.8 226.06 126.36 226.46 125.46 226.7C124.44 226.98 119.04 228.94 119.04 228.94C119 228.6 118.76 228.22 118.38 228.22C117.82 228.22 117.76 228.96 117.76 229.32C117.76 229.38 117.76 229.42 117.76 229.42C116.78 229.84 115 230.14 114.82 230.38C114.74 230.5 114.7 230.64 114.7 230.8C114.7 231.06 114.86 231.32 115.22 231.4C115.62 231.4 117.74 230.6 117.74 230.6L117.58 232.66C117.52 233.36 117.38 234.82 117.38 234.82C116.96 235.2 116.82 235.26 116.82 235.66C116.82 236.06 117.26 236.26 117.26 236.26C117.26 237.54 117.1 239.52 117.1 240.5C117.1 240.82 117.12 241.04 117.16 241.08C117.28 241.2 117.46 241.26 117.64 241.26C117.98 241.26 118.3 241.02 118.3 240.7C118.3 240.48 118.2 240.22 118.16 239.94C118.14 239.76 118.14 239.52 118.14 239.26C118.14 237.9 118.36 235.82 118.36 235.82C120.22 234.56 122.26 233.8 123.38 233.52C124.52 233.24 124.98 233.32 125.42 233.16C125.76 233.04 125.96 232.72 125.96 232.48C125.96 232.16 125.66 232.12 125.44 232.12C124.76 232.12 123.42 232.42 122.28 232.74C120.62 233.2 118.52 234.28 118.52 234.28L118.74 232.8C118.94 231.5 119.08 230.06 119.08 230.06C122.66 228.44 124.6 227.92 126.08 227.44C127.38 227.02 128.14 227.26 128.62 227.08C128.9 226.98 129.04 226.78 129.04 226.58ZM133.041 233.04C133.041 232.8 132.881 232.56 132.761 232.52C132.421 232.4 132.121 232.36 131.841 232.36C130.641 232.36 129.821 233.28 129.081 233.98C127.801 235.16 126.421 237 126.421 237C126.421 235.66 126.421 235.28 126.401 234.58C126.361 233.36 126.301 232.9 126.001 232.62C125.841 232.48 125.701 232.42 125.561 232.42C125.361 232.42 124.961 232.66 124.961 232.88C124.961 233.12 125.401 233.54 125.401 236.04C125.401 236.44 125.381 236.88 125.361 237.4C125.281 238.94 125.041 239.96 125.041 240.56C125.041 240.82 125.081 241 125.201 241.12C125.341 241.26 125.541 241.36 125.741 241.36C125.901 241.36 126.061 241.3 126.181 241.14C126.441 240.8 126.181 239.26 126.921 238.14C128.361 235.96 129.881 234.26 131.141 233.52C131.341 233.4 131.521 233.36 131.661 233.36C131.981 233.36 132.201 233.54 132.461 233.54C132.761 233.54 133.041 233.3 133.041 233.04ZM136.534 239.3C136.534 239.3 135.194 240.42 134.214 240.42C133.714 240.42 133.534 240.14 133.534 239.7C133.534 238.7 134.374 237.62 135.374 237.62C136.034 237.62 136.534 239.3 136.534 239.3ZM138.534 236.66C138.534 235.1 138.134 233.5 136.754 232.64C136.434 232.44 136.054 232.36 135.634 232.36C134.474 232.36 133.174 233.04 133.174 233.72C133.194 234.08 133.534 234.22 133.754 234.22C133.854 234.22 133.914 234.2 133.914 234.12C133.954 233.84 134.734 233.3 135.534 233.3C137.114 233.3 137.534 235.54 137.534 236.7C137.534 237.78 137.214 238.52 137.214 238.52C136.914 237.6 136.414 236.62 135.314 236.62C133.774 236.62 132.594 238.44 132.594 239.78C132.594 240.74 133.174 241.36 134.174 241.36C135.414 241.36 136.834 240.36 136.834 240.36C136.834 240.36 136.894 240.7 137.014 240.82C137.114 240.94 137.294 240.98 137.434 240.98C137.534 240.98 137.634 240.96 137.674 240.9C137.774 240.84 138.534 238.78 138.534 236.66ZM150.256 237.26C150.256 237.04 150.076 236.82 149.836 236.82C149.776 236.82 149.716 236.84 149.656 236.86C149.436 236.94 144.656 240.08 142.136 240.08C141.276 240.08 140.596 239.6 140.596 238.76C140.596 237.02 143.196 234.36 143.656 234.22C143.696 234.2 143.756 234.2 143.816 234.2C144.056 234.2 144.276 234.3 144.476 234.3C144.856 234.3 145.276 233.7 145.276 233.34C145.276 233.06 145.076 232.86 144.596 232.86C144.496 232.86 144.376 232.86 144.256 232.88C142.516 233.14 139.496 236.62 139.496 238.94C139.496 240.34 140.816 241 141.996 241C145.256 241 150.236 237.52 150.256 237.34V237.26ZM159.322 226.94C159.322 226.62 159.102 226.38 158.822 226.38C158.302 226.38 158.462 226.84 158.042 227.7C157.802 228.22 157.702 228.68 157.702 229.04C157.702 229.32 157.762 229.72 158.062 229.72C158.202 229.72 158.322 229.62 158.422 229.52C158.622 229.32 158.482 229 158.782 228.26C159.042 227.62 159.302 227.28 159.322 227.02V226.94ZM158.022 232.88C157.582 233.14 157.642 234.14 157.582 235.1C157.482 237.02 157.382 238.46 157.382 239.42C157.382 240.14 157.442 240.58 157.622 240.72C157.782 240.84 157.962 240.9 158.102 240.9C158.502 240.9 158.642 240.58 158.642 240.24C158.642 239.88 158.402 239.84 158.402 238.94V238.56C158.402 237.78 158.882 234.26 158.882 233.58C158.882 233.16 158.642 232.86 158.342 232.82C158.442 232.78 158.502 232.68 158.502 232.52C158.462 232.02 157.822 232.02 157.322 231.98C157.142 231.96 156.602 231.94 156.422 231.94C155.002 231.94 153.802 232.2 153.802 232.2C153.982 230.9 154.102 230.58 154.222 229.38C154.262 228.96 154.282 228.6 154.282 228.3C154.282 227.24 154.042 226.86 153.662 226.86C153.282 226.86 153.202 227.22 153.202 227.64C153.202 227.92 153.242 228.2 153.242 228.42V228.54C153.042 230.74 152.762 232.38 152.762 232.38C151.562 232.7 151.302 232.8 150.162 233.24C149.062 233.66 149.022 233.82 148.922 234.12C148.902 234.16 148.902 234.2 148.902 234.24C148.902 234.52 149.182 234.74 149.522 234.82C149.882 234.82 150.562 234.2 150.902 234.04C151.622 233.7 152.602 233.48 152.602 233.48C152.502 234.34 152.422 234.74 152.282 236.16C152.062 238.2 152.062 239.44 152.062 240.34C152.062 240.66 152.162 241.4 152.762 241.44H152.842C153.222 241.44 153.322 241.22 153.322 240.96C153.322 240.72 153.222 240.44 153.222 240.36C153.202 240.06 153.202 239.72 153.202 239.38C153.202 236.72 153.622 233.5 153.642 233.26C154.362 233.1 155.742 232.82 157.342 232.82C157.502 232.82 157.782 232.88 158.022 232.88ZM164.183 234C165.283 234 165.763 235.28 165.763 236.16C165.763 236.86 165.523 237.56 165.183 238.22C164.803 238.94 163.543 240.04 162.623 240.04C161.703 240.04 161.323 238.74 161.323 238.02C161.323 237.74 161.363 237.46 161.443 237.24C162.463 234.22 164.023 234 164.183 234ZM166.763 236.4C166.763 236.18 166.743 235.98 166.723 235.74C166.503 233.56 164.823 232.86 164.023 232.86C162.863 232.86 161.703 233.92 160.583 236.46C160.343 237 160.243 237.52 160.243 238.04C160.243 239.36 160.983 241.08 162.403 241.08C164.083 241.08 166.763 239.26 166.763 236.4ZM174.287 241.5C174.287 241.18 174.087 240.8 173.947 240.52C173.907 240.38 173.887 240.02 173.887 239.22V236.92C173.887 234.32 173.787 232.46 172.847 232.26H172.767C171.527 232.26 169.407 236.86 169.407 236.86C169.387 236.7 169.387 236.58 169.387 236.48C169.387 236.22 169.427 235.98 169.427 235.4C169.427 234.24 169.627 233.48 169.627 233.04C169.627 232.88 169.607 232.78 169.547 232.7C169.427 232.54 169.167 232.38 168.907 232.38C168.707 232.38 168.527 232.5 168.467 232.84C168.427 233.12 168.247 234.56 168.207 236.44C168.167 238.6 168.047 239.76 168.047 240.4C168.047 240.72 168.087 240.92 168.167 241.06C168.307 241.24 168.467 241.3 168.607 241.3C168.747 241.3 168.887 241.24 168.987 241.2C169.227 241.02 169.207 240.5 169.807 238.88C170.707 236.44 172.187 233.68 172.547 233.68C172.787 233.68 172.807 235.3 172.807 235.54L172.787 237.48C172.787 239.28 172.987 240.22 172.987 240.64C172.987 240.84 172.927 240.96 172.927 241.1C172.927 241.64 173.427 242 173.827 242C174.127 242 174.287 241.74 174.287 241.5ZM179.483 239.3C179.483 239.3 178.143 240.42 177.163 240.42C176.663 240.42 176.483 240.14 176.483 239.7C176.483 238.7 177.323 237.62 178.323 237.62C178.983 237.62 179.483 239.3 179.483 239.3ZM181.483 236.66C181.483 235.1 181.083 233.5 179.703 232.64C179.383 232.44 179.003 232.36 178.583 232.36C177.423 232.36 176.123 233.04 176.123 233.72C176.143 234.08 176.483 234.22 176.703 234.22C176.803 234.22 176.863 234.2 176.863 234.12C176.903 233.84 177.683 233.3 178.483 233.3C180.063 233.3 180.483 235.54 180.483 236.7C180.483 237.78 180.163 238.52 180.163 238.52C179.863 237.6 179.363 236.62 178.263 236.62C176.723 236.62 175.543 238.44 175.543 239.78C175.543 240.74 176.123 241.36 177.123 241.36C178.363 241.36 179.783 240.36 179.783 240.36C179.783 240.36 179.843 240.7 179.963 240.82C180.063 240.94 180.243 240.98 180.383 240.98C180.483 240.98 180.583 240.96 180.623 240.9C180.723 240.84 181.483 238.78 181.483 236.66ZM185.79 227.28C185.79 227 185.73 226.86 185.63 226.74C185.43 226.52 185.27 226.44 185.13 226.44C184.95 226.44 184.83 226.56 184.69 226.68C184.43 226.9 184.37 228.62 184.13 231.22C183.89 233.66 183.47 237.96 183.47 240.34C183.47 241.24 183.55 241.88 183.71 241.98C183.89 242.12 184.05 242.16 184.19 242.16C184.59 242.16 184.67 241.58 184.67 241.14C184.67 240.46 184.61 239.74 184.61 239.1C184.61 237.5 184.71 235.58 184.95 233.7C185.45 229.5 185.79 227.98 185.79 227.28ZM130.36 268.56C130.36 268.18 130.02 267.9 129.68 267.9C129.28 267.9 128.84 268.16 128.66 268.24C128.22 268.44 122.5 271.74 119.1 271.74C118.46 271.74 117.9 271.62 117.46 271.34C116.68 270.84 116.36 270.12 116.36 269.3C116.36 266 121.62 261 124.18 260.46C124.62 260.36 125.24 260.24 125.24 259.76C125.24 259.28 124.96 259.1 124.58 259.1C124.16 259.1 123.68 259.3 123.52 259.36C120.18 260.7 115.24 265.5 115.24 269.24C115.24 270.34 115.68 271.36 116.7 272.16C117.26 272.6 118.02 272.78 118.88 272.78C122.6 272.78 128.32 269.4 129.2 269.28C129.2 269.28 130.36 269.16 130.36 268.56ZM137.745 269.68C137.745 267.66 137.505 265.52 136.425 265.14C136.245 265.08 136.065 265.06 135.885 265.06C133.805 265.06 131.105 268.58 131.105 268.58C131.185 266.76 131.325 265.1 131.485 263.44C131.625 261.88 131.925 260.84 131.925 260.22C131.925 259.76 131.745 259.5 131.225 259.5C130.525 259.5 130.705 261.22 130.345 264.52C129.805 269.46 130.045 271.9 129.825 272.36C129.705 272.62 129.565 272.92 129.565 273.2C129.565 273.62 129.885 273.86 130.245 273.86C130.605 273.86 131.005 273.64 131.005 272.9C131.005 272.66 130.965 272.44 130.965 272.22C130.965 271.68 131.045 270.74 131.485 269.8C132.045 268.6 134.545 266.16 135.745 266.16C135.865 266.16 135.985 266.18 136.065 266.24C136.505 266.52 136.645 268.28 136.645 269.78C136.645 270.86 136.565 271.54 136.565 272.1C136.565 272.62 136.705 273.04 137.185 273.04C137.645 273.04 137.725 272.86 137.725 272.58C137.725 272.38 137.685 272.1 137.685 271.78C137.685 271.2 137.745 270.36 137.745 269.68ZM142.745 271.3C142.745 271.3 141.405 272.42 140.425 272.42C139.925 272.42 139.745 272.14 139.745 271.7C139.745 270.7 140.585 269.62 141.585 269.62C142.245 269.62 142.745 271.3 142.745 271.3ZM144.745 268.66C144.745 267.1 144.345 265.5 142.965 264.64C142.645 264.44 142.265 264.36 141.845 264.36C140.685 264.36 139.385 265.04 139.385 265.72C139.405 266.08 139.745 266.22 139.965 266.22C140.065 266.22 140.125 266.2 140.125 266.12C140.165 265.84 140.945 265.3 141.745 265.3C143.325 265.3 143.745 267.54 143.745 268.7C143.745 269.78 143.425 270.52 143.425 270.52C143.125 269.6 142.625 268.62 141.525 268.62C139.985 268.62 138.805 270.44 138.805 271.78C138.805 272.74 139.385 273.36 140.385 273.36C141.625 273.36 143.045 272.36 143.045 272.36C143.045 272.36 143.105 272.7 143.225 272.82C143.325 272.94 143.505 272.98 143.645 272.98C143.745 272.98 143.845 272.96 143.885 272.9C143.985 272.84 144.745 270.78 144.745 268.66ZM152.607 273.5C152.607 273.18 152.407 272.8 152.267 272.52C152.227 272.38 152.207 272.02 152.207 271.22V268.92C152.207 266.32 152.107 264.46 151.167 264.26H151.087C149.847 264.26 147.727 268.86 147.727 268.86C147.707 268.7 147.707 268.58 147.707 268.48C147.707 268.22 147.747 267.98 147.747 267.4C147.747 266.24 147.947 265.48 147.947 265.04C147.947 264.88 147.927 264.78 147.867 264.7C147.747 264.54 147.487 264.38 147.227 264.38C147.027 264.38 146.847 264.5 146.787 264.84C146.747 265.12 146.567 266.56 146.527 268.44C146.487 270.6 146.367 271.76 146.367 272.4C146.367 272.72 146.407 272.92 146.487 273.06C146.627 273.24 146.787 273.3 146.927 273.3C147.067 273.3 147.207 273.24 147.307 273.2C147.547 273.02 147.527 272.5 148.127 270.88C149.027 268.44 150.507 265.68 150.867 265.68C151.107 265.68 151.127 267.3 151.127 267.54L151.107 269.48C151.107 271.28 151.307 272.22 151.307 272.64C151.307 272.84 151.247 272.96 151.247 273.1C151.247 273.64 151.747 274 152.147 274C152.447 274 152.607 273.74 152.607 273.5ZM160.895 276.36C160.895 277.68 160.375 279.12 159.335 280.78C158.575 281.98 157.075 283.1 155.595 283.1C154.255 283.1 152.815 281.98 152.815 280.62C152.815 279.88 153.195 279.06 153.955 278.14C156.395 275.16 160.575 274.56 160.575 274.56C160.775 275.14 160.895 275.74 160.895 276.36ZM159.315 268.64C159.315 269.64 157.735 270.56 156.875 270.92C156.295 271.16 155.475 271.32 155.475 271.32C155.475 271.32 155.315 270.9 155.315 270.52C155.315 270.04 155.935 268.64 157.795 266.98C158.575 267.12 159.315 267.8 159.315 268.64ZM167.655 274.22C167.655 274.18 167.635 274.12 167.615 274.08C167.255 273.34 165.715 273.26 164.415 273.26C163.035 273.26 161.195 273.46 161.195 273.46C160.755 272.82 160.575 272.48 159.775 271.92C159.075 271.42 158.395 271.26 158.395 271.26C159.435 270.44 160.275 269.72 160.275 268.6C160.275 267.82 159.755 267.18 159.235 266.7C160.255 266.58 161.135 266.32 161.975 266.32C162.355 266.32 162.595 266.36 162.735 266.36C162.955 266.36 163.115 266.12 163.115 265.96C163.115 265.78 162.895 265.64 162.635 265.56C162.555 265.54 162.415 265.52 162.235 265.52C161.095 265.52 158.315 266 157.195 266C156.975 266 156.815 265.98 156.755 265.94C156.595 265.82 156.475 265.76 156.355 265.76C156.075 265.76 155.935 266.06 155.915 266.28C155.915 266.58 156.475 266.9 156.475 266.9C155.115 268.54 154.235 269.38 154.235 270.44C154.235 271.04 154.475 271.58 154.475 271.58C154.095 271.7 153.575 271.86 153.575 272.3C153.575 272.6 153.955 272.8 154.215 272.8C154.755 272.8 155.435 272.14 157.155 272.14C157.335 272.14 157.515 272.14 157.735 272.16C159.415 272.3 160.175 273.66 160.175 273.66C157.315 274.34 155.475 274.94 153.095 277.54C152.155 278.56 151.755 279.64 151.755 280.62C151.755 282.76 153.815 284.18 155.635 284.18C157.955 284.18 159.875 282.14 160.655 280.6C161.655 278.62 161.915 277.1 161.915 276.06C161.915 274.92 161.615 274.34 161.615 274.34C162.675 274.18 163.935 274.08 164.975 274.08C165.435 274.08 165.735 274.1 165.735 274.1C165.955 274.38 165.835 274.64 166.635 274.64C167.115 274.64 167.655 274.52 167.655 274.22ZM168.498 265.7C167.878 266.26 167.538 266.48 167.018 266.78C165.778 267.54 164.658 267.6 164.658 267.6C164.658 267.6 165.278 266.78 166.298 266.26C167.018 265.88 167.758 265.7 168.498 265.7ZM172.438 269.16C172.438 268.82 172.138 268.52 171.838 268.52C171.498 268.52 171.278 269.04 171.158 269.26C170.958 269.54 167.858 272.08 166.278 272.08C165.398 272.08 165.018 271.6 164.658 271.02C164.218 270.34 164.118 269.72 164.118 269.3C164.118 268.94 164.178 268.72 164.178 268.72C164.738 268.68 165.958 268.56 167.198 267.8C168.338 267.12 170.038 265.84 170.038 265.34C170.038 265.28 170.018 265.24 169.958 265.2C169.478 264.88 168.898 264.74 168.238 264.74C166.138 264.74 163.558 266.28 163.038 268.54C162.978 268.78 162.958 269.02 162.958 269.26C162.958 270.74 163.878 272.32 165.178 272.92C165.438 273.04 165.738 273.1 166.058 273.1C168.318 273.1 171.538 270.16 171.978 269.92C172.238 269.74 172.438 269.44 172.438 269.16Z" fill="#005573"/>
<path d="M21.04 240.58C21.04 240.26 20.78 240.06 20.46 240.06C19.8 240.06 18.36 240.46 17.46 240.7C16.44 240.98 11.04 242.94 11.04 242.94C11 242.6 10.76 242.22 10.38 242.22C9.82 242.22 9.76 242.96 9.76 243.32C9.76 243.38 9.76 243.42 9.76 243.42C8.78 243.84 7 244.14 6.82 244.38C6.74 244.5 6.7 244.64 6.7 244.8C6.7 245.06 6.86 245.32 7.22 245.4C7.62 245.4 9.74 244.6 9.74 244.6L9.58 246.66C9.52 247.36 9.38 248.82 9.38 248.82C8.96 249.2 8.82 249.26 8.82 249.66C8.82 250.06 9.26 250.26 9.26 250.26C9.26 251.54 9.1 253.52 9.1 254.5C9.1 254.82 9.12 255.04 9.16 255.08C9.28 255.2 9.46 255.26 9.64 255.26C9.98 255.26 10.3 255.02 10.3 254.7C10.3 254.48 10.2 254.22 10.16 253.94C10.14 253.76 10.14 253.52 10.14 253.26C10.14 251.9 10.36 249.82 10.36 249.82C12.22 248.56 14.26 247.8 15.38 247.52C16.52 247.24 16.98 247.32 17.42 247.16C17.76 247.04 17.96 246.72 17.96 246.48C17.96 246.16 17.66 246.12 17.44 246.12C16.76 246.12 15.42 246.42 14.28 246.74C12.62 247.2 10.52 248.28 10.52 248.28L10.74 246.8C10.94 245.5 11.08 244.06 11.08 244.06C14.66 242.44 16.6 241.92 18.08 241.44C19.38 241.02 20.14 241.26 20.62 241.08C20.9 240.98 21.04 240.78 21.04 240.58ZM25.0411 247.04C25.0411 246.8 24.8811 246.56 24.7611 246.52C24.4211 246.4 24.1211 246.36 23.8411 246.36C22.6411 246.36 21.8211 247.28 21.0811 247.98C19.8011 249.16 18.4211 251 18.4211 251C18.4211 249.66 18.4211 249.28 18.4011 248.58C18.3611 247.36 18.3011 246.9 18.0011 246.62C17.8411 246.48 17.7011 246.42 17.5611 246.42C17.3611 246.42 16.9611 246.66 16.9611 246.88C16.9611 247.12 17.4011 247.54 17.4011 250.04C17.4011 250.44 17.3811 250.88 17.3611 251.4C17.2811 252.94 17.0411 253.96 17.0411 254.56C17.0411 254.82 17.0811 255 17.2011 255.12C17.3411 255.26 17.5411 255.36 17.7411 255.36C17.9011 255.36 18.0611 255.3 18.1811 255.14C18.4411 254.8 18.1811 253.26 18.9211 252.14C20.3611 249.96 21.8811 248.26 23.1411 247.52C23.3411 247.4 23.5211 247.36 23.6611 247.36C23.9811 247.36 24.2011 247.54 24.4611 247.54C24.7611 247.54 25.0411 247.3 25.0411 247.04ZM28.5336 253.3C28.5336 253.3 27.1936 254.42 26.2136 254.42C25.7136 254.42 25.5336 254.14 25.5336 253.7C25.5336 252.7 26.3736 251.62 27.3736 251.62C28.0336 251.62 28.5336 253.3 28.5336 253.3ZM30.5336 250.66C30.5336 249.1 30.1336 247.5 28.7536 246.64C28.4336 246.44 28.0536 246.36 27.6336 246.36C26.4736 246.36 25.1736 247.04 25.1736 247.72C25.1936 248.08 25.5336 248.22 25.7536 248.22C25.8536 248.22 25.9136 248.2 25.9136 248.12C25.9536 247.84 26.7336 247.3 27.5336 247.3C29.1136 247.3 29.5336 249.54 29.5336 250.7C29.5336 251.78 29.2136 252.52 29.2136 252.52C28.9136 251.6 28.4136 250.62 27.3136 250.62C25.7736 250.62 24.5936 252.44 24.5936 253.78C24.5936 254.74 25.1736 255.36 26.1736 255.36C27.4136 255.36 28.8336 254.36 28.8336 254.36C28.8336 254.36 28.8936 254.7 29.0136 254.82C29.1136 254.94 29.2936 254.98 29.4336 254.98C29.5336 254.98 29.6336 254.96 29.6736 254.9C29.7736 254.84 30.5336 252.78 30.5336 250.66ZM42.2564 251.26C42.2564 251.04 42.0764 250.82 41.8364 250.82C41.7764 250.82 41.7164 250.84 41.6564 250.86C41.4364 250.94 36.6564 254.08 34.1364 254.08C33.2764 254.08 32.5964 253.6 32.5964 252.76C32.5964 251.02 35.1964 248.36 35.6564 248.22C35.6964 248.2 35.7564 248.2 35.8164 248.2C36.0564 248.2 36.2764 248.3 36.4764 248.3C36.8564 248.3 37.2764 247.7 37.2764 247.34C37.2764 247.06 37.0764 246.86 36.5964 246.86C36.4964 246.86 36.3764 246.86 36.2564 246.88C34.5164 247.14 31.4964 250.62 31.4964 252.94C31.4964 254.34 32.8164 255 33.9964 255C37.2564 255 42.2364 251.52 42.2564 251.34V251.26ZM51.322 240.94C51.322 240.62 51.102 240.38 50.822 240.38C50.302 240.38 50.462 240.84 50.042 241.7C49.802 242.22 49.702 242.68 49.702 243.04C49.702 243.32 49.762 243.72 50.062 243.72C50.202 243.72 50.322 243.62 50.422 243.52C50.622 243.32 50.482 243 50.782 242.26C51.042 241.62 51.302 241.28 51.322 241.02V240.94ZM50.022 246.88C49.582 247.14 49.642 248.14 49.582 249.1C49.482 251.02 49.382 252.46 49.382 253.42C49.382 254.14 49.442 254.58 49.622 254.72C49.782 254.84 49.962 254.9 50.102 254.9C50.502 254.9 50.642 254.58 50.642 254.24C50.642 253.88 50.402 253.84 50.402 252.94V252.56C50.402 251.78 50.882 248.26 50.882 247.58C50.882 247.16 50.642 246.86 50.342 246.82C50.442 246.78 50.502 246.68 50.502 246.52C50.462 246.02 49.822 246.02 49.322 245.98C49.142 245.96 48.602 245.94 48.422 245.94C47.002 245.94 45.802 246.2 45.802 246.2C45.982 244.9 46.102 244.58 46.222 243.38C46.262 242.96 46.282 242.6 46.282 242.3C46.282 241.24 46.042 240.86 45.662 240.86C45.282 240.86 45.202 241.22 45.202 241.64C45.202 241.92 45.242 242.2 45.242 242.42V242.54C45.042 244.74 44.762 246.38 44.762 246.38C43.562 246.7 43.302 246.8 42.162 247.24C41.062 247.66 41.022 247.82 40.922 248.12C40.902 248.16 40.902 248.2 40.902 248.24C40.902 248.52 41.182 248.74 41.522 248.82C41.882 248.82 42.562 248.2 42.902 248.04C43.622 247.7 44.602 247.48 44.602 247.48C44.502 248.34 44.422 248.74 44.282 250.16C44.062 252.2 44.062 253.44 44.062 254.34C44.062 254.66 44.162 255.4 44.762 255.44H44.842C45.222 255.44 45.322 255.22 45.322 254.96C45.322 254.72 45.222 254.44 45.222 254.36C45.202 254.06 45.202 253.72 45.202 253.38C45.202 250.72 45.622 247.5 45.642 247.26C46.362 247.1 47.742 246.82 49.342 246.82C49.502 246.82 49.782 246.88 50.022 246.88ZM56.1828 248C57.2828 248 57.7628 249.28 57.7628 250.16C57.7628 250.86 57.5228 251.56 57.1828 252.22C56.8028 252.94 55.5428 254.04 54.6228 254.04C53.7028 254.04 53.3228 252.74 53.3228 252.02C53.3228 251.74 53.3628 251.46 53.4428 251.24C54.4628 248.22 56.0228 248 56.1828 248ZM58.7628 250.4C58.7628 250.18 58.7428 249.98 58.7228 249.74C58.5028 247.56 56.8228 246.86 56.0228 246.86C54.8628 246.86 53.7028 247.92 52.5828 250.46C52.3428 251 52.2428 251.52 52.2428 252.04C52.2428 253.36 52.9828 255.08 54.4028 255.08C56.0828 255.08 58.7628 253.26 58.7628 250.4ZM66.287 255.5C66.287 255.18 66.087 254.8 65.947 254.52C65.907 254.38 65.887 254.02 65.887 253.22V250.92C65.887 248.32 65.787 246.46 64.847 246.26H64.767C63.527 246.26 61.407 250.86 61.407 250.86C61.387 250.7 61.387 250.58 61.387 250.48C61.387 250.22 61.427 249.98 61.427 249.4C61.427 248.24 61.627 247.48 61.627 247.04C61.627 246.88 61.607 246.78 61.547 246.7C61.427 246.54 61.167 246.38 60.907 246.38C60.707 246.38 60.527 246.5 60.467 246.84C60.427 247.12 60.247 248.56 60.207 250.44C60.167 252.6 60.047 253.76 60.047 254.4C60.047 254.72 60.087 254.92 60.167 255.06C60.307 255.24 60.467 255.3 60.607 255.3C60.747 255.3 60.887 255.24 60.987 255.2C61.227 255.02 61.207 254.5 61.807 252.88C62.707 250.44 64.187 247.68 64.547 247.68C64.787 247.68 64.807 249.3 64.807 249.54L64.787 251.48C64.787 253.28 64.987 254.22 64.987 254.64C64.987 254.84 64.927 254.96 64.927 255.1C64.927 255.64 65.427 256 65.827 256C66.127 256 66.287 255.74 66.287 255.5ZM71.4828 253.3C71.4828 253.3 70.1428 254.42 69.1628 254.42C68.6628 254.42 68.4828 254.14 68.4828 253.7C68.4828 252.7 69.3228 251.62 70.3228 251.62C70.9828 251.62 71.4828 253.3 71.4828 253.3ZM73.4828 250.66C73.4828 249.1 73.0828 247.5 71.7028 246.64C71.3828 246.44 71.0028 246.36 70.5828 246.36C69.4228 246.36 68.1228 247.04 68.1228 247.72C68.1428 248.08 68.4828 248.22 68.7028 248.22C68.8028 248.22 68.8628 248.2 68.8628 248.12C68.9028 247.84 69.6828 247.3 70.4828 247.3C72.0628 247.3 72.4828 249.54 72.4828 250.7C72.4828 251.78 72.1628 252.52 72.1628 252.52C71.8628 251.6 71.3628 250.62 70.2628 250.62C68.7228 250.62 67.5428 252.44 67.5428 253.78C67.5428 254.74 68.1228 255.36 69.1228 255.36C70.3628 255.36 71.7828 254.36 71.7828 254.36C71.7828 254.36 71.8428 254.7 71.9628 254.82C72.0628 254.94 72.2428 254.98 72.3828 254.98C72.4828 254.98 72.5828 254.96 72.6228 254.9C72.7228 254.84 73.4828 252.78 73.4828 250.66ZM77.7898 241.28C77.7898 241 77.7298 240.86 77.6298 240.74C77.4298 240.52 77.2698 240.44 77.1298 240.44C76.9498 240.44 76.8298 240.56 76.6898 240.68C76.4298 240.9 76.3698 242.62 76.1298 245.22C75.8898 247.66 75.4698 251.96 75.4698 254.34C75.4698 255.24 75.5498 255.88 75.7098 255.98C75.8898 256.12 76.0498 256.16 76.1898 256.16C76.5898 256.16 76.6698 255.58 76.6698 255.14C76.6698 254.46 76.6098 253.74 76.6098 253.1C76.6098 251.5 76.7098 249.58 76.9498 247.7C77.4498 243.5 77.7898 241.98 77.7898 241.28ZM22.36 282.56C22.36 282.18 22.02 281.9 21.68 281.9C21.28 281.9 20.84 282.16 20.66 282.24C20.22 282.44 14.5 285.74 11.1 285.74C10.46 285.74 9.9 285.62 9.46 285.34C8.68 284.84 8.36 284.12 8.36 283.3C8.36 280 13.62 275 16.18 274.46C16.62 274.36 17.24 274.24 17.24 273.76C17.24 273.28 16.96 273.1 16.58 273.1C16.16 273.1 15.68 273.3 15.52 273.36C12.18 274.7 7.24 279.5 7.24 283.24C7.24 284.34 7.68 285.36 8.7 286.16C9.26 286.6 10.02 286.78 10.88 286.78C14.6 286.78 20.32 283.4 21.2 283.28C21.2 283.28 22.36 283.16 22.36 282.56ZM29.7448 283.68C29.7448 281.66 29.5048 279.52 28.4248 279.14C28.2448 279.08 28.0648 279.06 27.8848 279.06C25.8048 279.06 23.1048 282.58 23.1048 282.58C23.1848 280.76 23.3248 279.1 23.4848 277.44C23.6248 275.88 23.9248 274.84 23.9248 274.22C23.9248 273.76 23.7448 273.5 23.2248 273.5C22.5248 273.5 22.7048 275.22 22.3448 278.52C21.8048 283.46 22.0448 285.9 21.8248 286.36C21.7048 286.62 21.5648 286.92 21.5648 287.2C21.5648 287.62 21.8848 287.86 22.2448 287.86C22.6048 287.86 23.0048 287.64 23.0048 286.9C23.0048 286.66 22.9648 286.44 22.9648 286.22C22.9648 285.68 23.0448 284.74 23.4848 283.8C24.0448 282.6 26.5448 280.16 27.7448 280.16C27.8648 280.16 27.9848 280.18 28.0648 280.24C28.5048 280.52 28.6448 282.28 28.6448 283.78C28.6448 284.86 28.5648 285.54 28.5648 286.1C28.5648 286.62 28.7048 287.04 29.1848 287.04C29.6448 287.04 29.7248 286.86 29.7248 286.58C29.7248 286.38 29.6848 286.1 29.6848 285.78C29.6848 285.2 29.7448 284.36 29.7448 283.68ZM34.7445 285.3C34.7445 285.3 33.4045 286.42 32.4245 286.42C31.9245 286.42 31.7445 286.14 31.7445 285.7C31.7445 284.7 32.5845 283.62 33.5845 283.62C34.2445 283.62 34.7445 285.3 34.7445 285.3ZM36.7445 282.66C36.7445 281.1 36.3445 279.5 34.9645 278.64C34.6445 278.44 34.2645 278.36 33.8445 278.36C32.6845 278.36 31.3845 279.04 31.3845 279.72C31.4045 280.08 31.7445 280.22 31.9645 280.22C32.0645 280.22 32.1245 280.2 32.1245 280.12C32.1645 279.84 32.9445 279.3 33.7445 279.3C35.3245 279.3 35.7445 281.54 35.7445 282.7C35.7445 283.78 35.4245 284.52 35.4245 284.52C35.1245 283.6 34.6245 282.62 33.5245 282.62C31.9845 282.62 30.8045 284.44 30.8045 285.78C30.8045 286.74 31.3845 287.36 32.3845 287.36C33.6245 287.36 35.0445 286.36 35.0445 286.36C35.0445 286.36 35.1045 286.7 35.2245 286.82C35.3245 286.94 35.5045 286.98 35.6445 286.98C35.7445 286.98 35.8445 286.96 35.8845 286.9C35.9845 286.84 36.7445 284.78 36.7445 282.66ZM44.6073 287.5C44.6073 287.18 44.4073 286.8 44.2673 286.52C44.2273 286.38 44.2073 286.02 44.2073 285.22V282.92C44.2073 280.32 44.1073 278.46 43.1673 278.26H43.0873C41.8473 278.26 39.7273 282.86 39.7273 282.86C39.7073 282.7 39.7073 282.58 39.7073 282.48C39.7073 282.22 39.7473 281.98 39.7473 281.4C39.7473 280.24 39.9473 279.48 39.9473 279.04C39.9473 278.88 39.9273 278.78 39.8673 278.7C39.7473 278.54 39.4873 278.38 39.2273 278.38C39.0273 278.38 38.8473 278.5 38.7873 278.84C38.7473 279.12 38.5673 280.56 38.5273 282.44C38.4873 284.6 38.3673 285.76 38.3673 286.4C38.3673 286.72 38.4073 286.92 38.4873 287.06C38.6273 287.24 38.7873 287.3 38.9273 287.3C39.0673 287.3 39.2073 287.24 39.3073 287.2C39.5473 287.02 39.5273 286.5 40.1273 284.88C41.0273 282.44 42.5073 279.68 42.8673 279.68C43.1073 279.68 43.1273 281.3 43.1273 281.54L43.1073 283.48C43.1073 285.28 43.3073 286.22 43.3073 286.64C43.3073 286.84 43.2473 286.96 43.2473 287.1C43.2473 287.64 43.7473 288 44.1473 288C44.4473 288 44.6073 287.74 44.6073 287.5ZM52.8947 290.36C52.8947 291.68 52.3747 293.12 51.3347 294.78C50.5747 295.98 49.0747 297.1 47.5947 297.1C46.2547 297.1 44.8147 295.98 44.8147 294.62C44.8147 293.88 45.1947 293.06 45.9547 292.14C48.3947 289.16 52.5747 288.56 52.5747 288.56C52.7747 289.14 52.8947 289.74 52.8947 290.36ZM51.3147 282.64C51.3147 283.64 49.7347 284.56 48.8747 284.92C48.2947 285.16 47.4747 285.32 47.4747 285.32C47.4747 285.32 47.3147 284.9 47.3147 284.52C47.3147 284.04 47.9347 282.64 49.7947 280.98C50.5747 281.12 51.3147 281.8 51.3147 282.64ZM59.6547 288.22C59.6547 288.18 59.6347 288.12 59.6147 288.08C59.2547 287.34 57.7147 287.26 56.4147 287.26C55.0347 287.26 53.1947 287.46 53.1947 287.46C52.7547 286.82 52.5747 286.48 51.7747 285.92C51.0747 285.42 50.3947 285.26 50.3947 285.26C51.4347 284.44 52.2747 283.72 52.2747 282.6C52.2747 281.82 51.7547 281.18 51.2347 280.7C52.2547 280.58 53.1347 280.32 53.9747 280.32C54.3547 280.32 54.5947 280.36 54.7347 280.36C54.9547 280.36 55.1147 280.12 55.1147 279.96C55.1147 279.78 54.8947 279.64 54.6347 279.56C54.5547 279.54 54.4147 279.52 54.2347 279.52C53.0947 279.52 50.3147 280 49.1947 280C48.9747 280 48.8147 279.98 48.7547 279.94C48.5947 279.82 48.4747 279.76 48.3547 279.76C48.0747 279.76 47.9347 280.06 47.9147 280.28C47.9147 280.58 48.4747 280.9 48.4747 280.9C47.1147 282.54 46.2347 283.38 46.2347 284.44C46.2347 285.04 46.4747 285.58 46.4747 285.58C46.0947 285.7 45.5747 285.86 45.5747 286.3C45.5747 286.6 45.9547 286.8 46.2147 286.8C46.7547 286.8 47.4347 286.14 49.1547 286.14C49.3347 286.14 49.5147 286.14 49.7347 286.16C51.4147 286.3 52.1747 287.66 52.1747 287.66C49.3147 288.34 47.4747 288.94 45.0947 291.54C44.1547 292.56 43.7547 293.64 43.7547 294.62C43.7547 296.76 45.8147 298.18 47.6347 298.18C49.9547 298.18 51.8747 296.14 52.6547 294.6C53.6547 292.62 53.9147 291.1 53.9147 290.06C53.9147 288.92 53.6147 288.34 53.6147 288.34C54.6747 288.18 55.9347 288.08 56.9747 288.08C57.4347 288.08 57.7347 288.1 57.7347 288.1C57.9547 288.38 57.8347 288.64 58.6347 288.64C59.1147 288.64 59.6547 288.52 59.6547 288.22ZM60.4977 279.7C59.8777 280.26 59.5377 280.48 59.0177 280.78C57.7777 281.54 56.6577 281.6 56.6577 281.6C56.6577 281.6 57.2777 280.78 58.2977 280.26C59.0177 279.88 59.7577 279.7 60.4977 279.7ZM64.4377 283.16C64.4377 282.82 64.1377 282.52 63.8377 282.52C63.4977 282.52 63.2777 283.04 63.1577 283.26C62.9577 283.54 59.8577 286.08 58.2777 286.08C57.3977 286.08 57.0177 285.6 56.6577 285.02C56.2177 284.34 56.1177 283.72 56.1177 283.3C56.1177 282.94 56.1777 282.72 56.1777 282.72C56.7377 282.68 57.9577 282.56 59.1977 281.8C60.3377 281.12 62.0377 279.84 62.0377 279.34C62.0377 279.28 62.0177 279.24 61.9577 279.2C61.4777 278.88 60.8977 278.74 60.2377 278.74C58.1377 278.74 55.5577 280.28 55.0377 282.54C54.9777 282.78 54.9577 283.02 54.9577 283.26C54.9577 284.74 55.8777 286.32 57.1777 286.92C57.4377 287.04 57.7377 287.1 58.0577 287.1C60.3177 287.1 63.5377 284.16 63.9777 283.92C64.2377 283.74 64.4377 283.44 64.4377 283.16Z" fill="#005573"/>
<path d="M289.9 16.86C289.84 13.06 279.84 13.86 279.84 11.58C279.84 9.82 284.46 8.06 286.38 8.06C286.92 8.06 287.14 8.7 287.58 8.7C287.96 8.7 288.26 8.46 288.26 8.26C288.26 8.2 288.26 8.16 288.22 8.12C287.78 7.5 287.66 6.9 286.14 6.9C284.2 6.9 278.54 8.88 278.54 11.9C278.54 14.9 288.74 13.78 288.74 17.1C288.74 18.5 284.62 20.76 283.06 20.98C282.7 21.04 282.16 21.32 282.16 21.86C282.16 22.4 282.68 22.54 283.1 22.54C283.52 22.54 283.94 22.38 284.02 21.9C284.08 21.56 289.9 19.7 289.9 16.86ZM299.482 12.52C299.442 11.96 298.722 11.98 298.302 11.96C298.122 11.96 297.942 11.94 297.762 11.94C296.342 11.94 295.142 12.2 295.142 12.2C295.322 10.9 295.442 10.58 295.562 9.38C295.602 8.96 295.622 8.6 295.622 8.3C295.622 7.24 295.382 6.86 295.002 6.86C294.622 6.86 294.542 7.22 294.542 7.64C294.542 7.92 294.582 8.2 294.582 8.54C294.582 9.22 294.102 12.38 294.102 12.38C292.902 12.7 292.642 12.8 291.502 13.24C290.402 13.66 290.362 13.8 290.262 14.1C290.242 14.16 290.242 14.2 290.242 14.24C290.242 14.52 290.642 14.82 290.862 14.82C291.222 14.82 291.902 14.2 292.242 14.04C292.962 13.7 293.942 13.48 293.942 13.48C293.842 14.34 293.762 14.74 293.622 16.16C293.402 18.2 293.402 19.44 293.402 20.34C293.402 20.66 293.502 21.4 294.102 21.44H294.182C294.562 21.44 294.662 21.22 294.662 20.96C294.662 20.72 294.562 20.44 294.562 20.36C294.542 20.06 294.542 19.72 294.542 19.38C294.542 16.72 294.962 13.5 294.982 13.26C295.702 13.1 297.082 12.82 298.322 12.82C298.482 12.82 298.762 12.88 299.002 12.88C299.262 12.88 299.482 12.82 299.482 12.52ZM302.346 19.3C302.346 19.3 301.006 20.42 300.026 20.42C299.526 20.42 299.346 20.14 299.346 19.7C299.346 18.7 300.186 17.62 301.186 17.62C301.846 17.62 302.346 19.3 302.346 19.3ZM304.346 16.66C304.346 15.1 303.946 13.5 302.566 12.64C302.246 12.44 301.866 12.36 301.446 12.36C300.286 12.36 298.986 13.04 298.986 13.72C299.006 14.08 299.346 14.22 299.566 14.22C299.666 14.22 299.726 14.2 299.726 14.12C299.766 13.84 300.546 13.3 301.346 13.3C302.926 13.3 303.346 15.54 303.346 16.7C303.346 17.78 303.026 18.52 303.026 18.52C302.726 17.6 302.226 16.62 301.126 16.62C299.586 16.62 298.406 18.44 298.406 19.78C298.406 20.74 298.986 21.36 299.986 21.36C301.226 21.36 302.646 20.36 302.646 20.36C302.646 20.36 302.706 20.7 302.826 20.82C302.926 20.94 303.106 20.98 303.246 20.98C303.346 20.98 303.446 20.96 303.486 20.9C303.586 20.84 304.346 18.78 304.346 16.66ZM314.189 12.52C314.149 11.96 313.429 11.98 313.009 11.96C312.829 11.96 312.649 11.94 312.469 11.94C311.049 11.94 309.849 12.2 309.849 12.2C310.029 10.9 310.149 10.58 310.269 9.38C310.309 8.96 310.329 8.6 310.329 8.3C310.329 7.24 310.089 6.86 309.709 6.86C309.329 6.86 309.249 7.22 309.249 7.64C309.249 7.92 309.289 8.2 309.289 8.54C309.289 9.22 308.809 12.38 308.809 12.38C307.609 12.7 307.349 12.8 306.209 13.24C305.109 13.66 305.069 13.8 304.969 14.1C304.949 14.16 304.949 14.2 304.949 14.24C304.949 14.52 305.349 14.82 305.569 14.82C305.929 14.82 306.609 14.2 306.949 14.04C307.669 13.7 308.649 13.48 308.649 13.48C308.549 14.34 308.469 14.74 308.329 16.16C308.109 18.2 308.109 19.44 308.109 20.34C308.109 20.66 308.209 21.4 308.809 21.44H308.889C309.269 21.44 309.369 21.22 309.369 20.96C309.369 20.72 309.269 20.44 309.269 20.36C309.249 20.06 309.249 19.72 309.249 19.38C309.249 16.72 309.669 13.5 309.689 13.26C310.409 13.1 311.789 12.82 313.029 12.82C313.189 12.82 313.469 12.88 313.709 12.88C313.969 12.88 314.189 12.82 314.189 12.52ZM317.767 13.7C317.147 14.26 316.807 14.48 316.287 14.78C315.047 15.54 313.927 15.6 313.927 15.6C313.927 15.6 314.547 14.78 315.567 14.26C316.287 13.88 317.027 13.7 317.767 13.7ZM321.707 17.16C321.707 16.82 321.407 16.52 321.107 16.52C320.767 16.52 320.547 17.04 320.427 17.26C320.227 17.54 317.127 20.08 315.547 20.08C314.667 20.08 314.287 19.6 313.927 19.02C313.487 18.34 313.387 17.72 313.387 17.3C313.387 16.94 313.447 16.72 313.447 16.72C314.007 16.68 315.227 16.56 316.467 15.8C317.607 15.12 319.307 13.84 319.307 13.34C319.307 13.28 319.287 13.24 319.227 13.2C318.747 12.88 318.167 12.74 317.507 12.74C315.407 12.74 312.827 14.28 312.307 16.54C312.247 16.78 312.227 17.02 312.227 17.26C312.227 18.74 313.147 20.32 314.447 20.92C314.707 21.04 315.007 21.1 315.327 21.1C317.587 21.1 320.807 18.16 321.247 17.92C321.507 17.74 321.707 17.44 321.707 17.16Z" fill="#005573"/>
<rect x="250" y="35" width="115" height="69" stroke="#005573" stroke-width="2"/>
<path d="M342.023 235.786C341.905 236.325 342.246 236.858 342.786 236.977L351.576 238.906C352.116 239.025 352.649 238.684 352.767 238.144C352.886 237.605 352.545 237.071 352.005 236.953L344.191 235.238L345.906 227.424C346.025 226.884 345.684 226.351 345.144 226.233C344.605 226.114 344.071 226.455 343.953 226.995L342.023 235.786ZM402.365 208.009C393.393 209.233 381.519 214.048 370.397 219.502C359.246 224.971 348.738 231.14 342.461 235.158L343.539 236.842C349.762 232.86 360.204 226.729 371.278 221.298C382.381 215.852 394.007 211.167 402.635 209.991L402.365 208.009Z" fill="#575457"/>
<path d="M425.285 200.085C425.285 200.355 425.195 200.625 425.09 200.835C423.98 203.235 418.43 206.175 418.43 206.175C418.43 206.175 418.16 204.825 418.16 203.34C418.16 203.19 418.175 203.025 418.175 202.875C418.235 201.24 418.385 199.5 418.64 197.385C418.64 197.385 418.94 197.25 420.005 197.235H420.065C422.18 197.235 425.285 198.375 425.285 200.085ZM426.185 200.025C426.17 198.06 423.05 196.485 419.765 196.485H419.54C418.175 196.515 416.63 196.86 416.105 197.19C415.97 197.28 415.91 197.385 415.91 197.505C415.91 197.76 416.195 198.015 416.45 198.015H416.51L417.635 197.625C417.635 197.625 417.425 200.7 417.365 202.05C417.35 202.245 417.35 202.455 417.35 202.695C417.35 204.255 417.53 206.46 417.53 206.46C417.47 206.655 417.395 206.865 417.395 207.075C417.395 207.27 417.455 207.465 417.56 207.57C417.575 207.585 417.59 207.585 417.605 207.585C417.635 207.585 417.665 207.57 417.695 207.57C417.8 207.57 417.83 207.705 417.935 207.705C418.535 207.675 418.595 207.405 418.595 207.21C418.595 207.075 418.64 207.045 418.64 207.045C421.28 205.455 426.185 202.665 426.185 200.025ZM429.478 201.525C429.013 201.945 428.758 202.11 428.368 202.335C427.438 202.905 426.598 202.95 426.598 202.95C426.598 202.95 427.063 202.335 427.828 201.945C428.368 201.66 428.923 201.525 429.478 201.525ZM432.433 204.12C432.433 203.865 432.208 203.64 431.983 203.64C431.728 203.64 431.563 204.03 431.473 204.195C431.323 204.405 428.998 206.31 427.813 206.31C427.153 206.31 426.868 205.95 426.598 205.515C426.268 205.005 426.193 204.54 426.193 204.225C426.193 203.955 426.238 203.79 426.238 203.79C426.658 203.76 427.573 203.67 428.503 203.1C429.358 202.59 430.633 201.63 430.633 201.255C430.633 201.21 430.618 201.18 430.573 201.15C430.213 200.91 429.778 200.805 429.283 200.805C427.708 200.805 425.773 201.96 425.383 203.655C425.338 203.835 425.323 204.015 425.323 204.195C425.323 205.305 426.013 206.49 426.988 206.94C427.183 207.03 427.408 207.075 427.648 207.075C429.343 207.075 431.758 204.87 432.088 204.69C432.283 204.555 432.433 204.33 432.433 204.12ZM435.123 196.71C435.123 196.5 435.078 196.395 435.003 196.305C434.853 196.14 434.733 196.08 434.628 196.08C434.493 196.08 434.403 196.17 434.298 196.26C434.103 196.425 434.058 197.715 433.878 199.665C433.698 201.495 433.383 204.72 433.383 206.505C433.383 207.18 433.443 207.66 433.563 207.735C433.698 207.84 433.818 207.87 433.923 207.87C434.223 207.87 434.283 207.435 434.283 207.105C434.283 206.595 434.238 206.055 434.238 205.575C434.238 204.375 434.313 202.935 434.493 201.525C434.868 198.375 435.123 197.235 435.123 196.71ZM438.727 205.725C438.727 205.725 437.722 206.565 436.987 206.565C436.612 206.565 436.477 206.355 436.477 206.025C436.477 205.275 437.107 204.465 437.857 204.465C438.352 204.465 438.727 205.725 438.727 205.725ZM440.227 203.745C440.227 202.575 439.927 201.375 438.892 200.73C438.652 200.58 438.367 200.52 438.052 200.52C437.182 200.52 436.207 201.03 436.207 201.54C436.222 201.81 436.477 201.915 436.642 201.915C436.717 201.915 436.762 201.9 436.762 201.84C436.792 201.63 437.377 201.225 437.977 201.225C439.162 201.225 439.477 202.905 439.477 203.775C439.477 204.585 439.237 205.14 439.237 205.14C439.012 204.45 438.637 203.715 437.812 203.715C436.657 203.715 435.772 205.08 435.772 206.085C435.772 206.805 436.207 207.27 436.957 207.27C437.887 207.27 438.952 206.52 438.952 206.52C438.952 206.52 438.997 206.775 439.087 206.865C439.162 206.955 439.297 206.985 439.402 206.985C439.477 206.985 439.552 206.97 439.582 206.925C439.657 206.88 440.227 205.335 440.227 203.745ZM446.304 202.515C446.304 201.945 446.184 201.345 445.944 201.255C445.884 201.225 445.824 201.225 445.779 201.225C445.464 201.225 445.404 201.69 445.209 201.93C443.994 203.355 442.764 204.825 442.389 204.825C442.284 204.825 442.269 204.66 442.269 204.57C442.269 203.28 442.809 202.095 442.869 200.865C442.854 200.625 442.524 200.4 442.359 200.4C441.909 200.4 441.879 201.63 441.849 201.81C441.654 203.04 441.444 204.315 441.444 205.155C441.444 205.74 441.549 206.13 441.879 206.13C442.779 206.145 445.389 202.845 445.389 202.845C445.344 205.095 445.239 206.19 445.029 208.245C444.729 211.26 444.549 212.985 444.444 213.015C444.384 213.03 444.264 213.27 444.264 213.495C444.264 213.735 444.399 213.975 444.864 213.975C445.254 213.975 445.404 213.795 445.404 213.57C445.404 213.33 445.254 213.045 445.194 212.97C445.179 212.955 445.179 212.925 445.179 212.865C445.179 212.55 445.359 211.59 445.569 209.76C445.854 207.27 446.169 203.835 446.274 202.995C446.289 202.845 446.304 202.68 446.304 202.515Z" fill="#575457"/>
<path d="M96.154 209.846C96.5718 209.485 96.6177 208.853 96.2565 208.435L90.371 201.627C90.0098 201.209 89.3783 201.163 88.9605 201.524C88.5426 201.885 88.4967 202.517 88.8579 202.934L94.0895 208.987L88.0372 214.218C87.6194 214.58 87.5735 215.211 87.9347 215.629C88.2958 216.047 88.9273 216.093 89.3451 215.731L96.154 209.846ZM55.8445 228.125C60.8895 220.169 68.5058 215.492 76.0396 212.884C83.5812 210.274 90.9693 209.762 95.4275 210.087L95.5725 208.092C90.864 207.75 83.2022 208.288 75.3854 210.994C67.5608 213.703 59.5105 218.609 54.1555 227.054L55.8445 228.125Z" fill="#009696"/>
<path d="M132.946 119.177C132.768 118.654 132.199 118.375 131.677 118.554L123.16 121.464C122.638 121.643 122.359 122.211 122.537 122.734C122.716 123.257 123.284 123.536 123.807 123.357L131.377 120.77L133.964 128.34C134.143 128.862 134.711 129.141 135.234 128.963C135.757 128.784 136.036 128.216 135.857 127.693L132.946 119.177ZM145.743 182.331C135.011 170.407 120.183 145.86 132.898 119.94L131.102 119.06C117.817 146.14 133.389 171.593 144.257 183.669L145.743 182.331Z" fill="#009696"/>
<path d="M164.579 120.184C164.128 119.865 163.504 119.971 163.184 120.421L157.976 127.761C157.656 128.211 157.762 128.835 158.213 129.155C158.663 129.475 159.287 129.369 159.607 128.918L164.237 122.394L170.761 127.024C171.211 127.344 171.835 127.238 172.155 126.787C172.475 126.337 172.369 125.713 171.918 125.393L164.579 120.184ZM289.005 111.9C287.667 125.284 279.886 135.791 268.704 143.23C257.51 150.677 242.952 155.011 228.245 156.002C213.537 156.993 198.771 154.634 187.16 148.794C175.568 142.963 167.17 133.698 164.986 120.833L163.014 121.167C165.33 134.802 174.245 144.537 186.262 150.581C198.261 156.616 213.401 159.007 228.38 157.998C243.36 156.989 258.271 152.573 269.812 144.895C281.364 137.209 289.583 126.216 290.995 112.1L289.005 111.9Z" fill="#009696"/>
<path d="M299.034 191.76C299.178 192.293 299.727 192.609 300.26 192.466L308.951 190.126C309.484 189.982 309.8 189.434 309.656 188.9C309.513 188.367 308.964 188.051 308.431 188.195L300.706 190.274L298.626 182.549C298.482 182.016 297.934 181.7 297.4 181.844C296.867 181.987 296.551 182.536 296.695 183.069L299.034 191.76ZM311.614 111.965C317.844 123.84 317.159 139.419 313.64 154.231C310.128 169.01 303.844 182.82 299.133 191.001L300.867 191.999C305.656 183.68 312.022 169.69 315.585 154.694C319.141 139.731 319.956 123.56 313.386 111.035L311.614 111.965Z" fill="#009696"/>
<path d="M174.513 255C173.961 254.993 173.507 255.434 173.5 255.987L173.38 264.986C173.373 265.538 173.814 265.992 174.367 265.999C174.919 266.006 175.373 265.565 175.38 265.013L175.487 257.013L183.486 257.12C184.038 257.127 184.492 256.686 184.499 256.133C184.506 255.581 184.065 255.127 183.513 255.12L174.513 255ZM271.623 255.519C268.294 261.582 261.847 265.839 253.579 268.477C245.322 271.112 235.367 272.091 225.227 271.688C215.093 271.285 204.823 269.503 195.955 266.65C187.064 263.79 179.678 259.885 175.216 255.302L173.784 256.698C178.572 261.615 186.311 265.648 195.342 268.554C204.395 271.466 214.845 273.277 225.148 273.687C235.446 274.096 245.647 273.107 254.187 270.382C262.715 267.661 269.706 263.168 273.377 256.481L271.623 255.519Z" fill="#009696"/>
<path d="M317.676 264.516C317.132 264.418 316.613 264.781 316.516 265.324L314.933 274.184C314.836 274.728 315.198 275.247 315.742 275.344C316.286 275.441 316.805 275.079 316.902 274.536L318.309 266.66L326.184 268.067C326.728 268.164 327.247 267.802 327.344 267.258C327.441 266.714 327.079 266.195 326.536 266.098L317.676 264.516ZM404.449 286.501C385.02 287.498 366.244 286.125 350.92 282.465C335.544 278.792 323.853 272.866 318.32 264.928L316.68 266.072C322.647 274.634 334.956 280.708 350.455 284.41C366.006 288.125 384.98 289.502 404.551 288.499L404.449 286.501Z" fill="#009696"/>
<path d="M427.36 276.56C427.36 276.18 427.02 275.9 426.68 275.9C426.28 275.9 425.84 276.16 425.66 276.24C425.22 276.44 419.5 279.74 416.1 279.74C415.46 279.74 414.9 279.62 414.46 279.34C413.68 278.84 413.36 278.12 413.36 277.3C413.36 274 418.62 269 421.18 268.46C421.62 268.36 422.24 268.24 422.24 267.76C422.24 267.28 421.96 267.1 421.58 267.1C421.16 267.1 420.68 267.3 420.52 267.36C417.18 268.7 412.24 273.5 412.24 277.24C412.24 278.34 412.68 279.36 413.7 280.16C414.26 280.6 415.02 280.78 415.88 280.78C419.6 280.78 425.32 277.4 426.2 277.28C426.2 277.28 427.36 277.16 427.36 276.56ZM431.17 279.3C431.17 279.3 429.83 280.42 428.85 280.42C428.35 280.42 428.17 280.14 428.17 279.7C428.17 278.7 429.01 277.62 430.01 277.62C430.67 277.62 431.17 279.3 431.17 279.3ZM433.17 276.66C433.17 275.1 432.77 273.5 431.39 272.64C431.07 272.44 430.69 272.36 430.27 272.36C429.11 272.36 427.81 273.04 427.81 273.72C427.83 274.08 428.17 274.22 428.39 274.22C428.49 274.22 428.55 274.2 428.55 274.12C428.59 273.84 429.37 273.3 430.17 273.3C431.75 273.3 432.17 275.54 432.17 276.7C432.17 277.78 431.85 278.52 431.85 278.52C431.55 277.6 431.05 276.62 429.95 276.62C428.41 276.62 427.23 278.44 427.23 279.78C427.23 280.74 427.81 281.36 428.81 281.36C430.05 281.36 431.47 280.36 431.47 280.36C431.47 280.36 431.53 280.7 431.65 280.82C431.75 280.94 431.93 280.98 432.07 280.98C432.17 280.98 432.27 280.96 432.31 280.9C432.41 280.84 433.17 278.78 433.17 276.66ZM442.873 273.04C442.873 272.8 442.713 272.56 442.593 272.52C442.253 272.4 441.953 272.36 441.673 272.36C440.473 272.36 439.653 273.28 438.913 273.98C437.633 275.16 436.253 277 436.253 277C436.253 275.66 436.253 275.28 436.233 274.58C436.193 273.36 436.133 272.9 435.833 272.62C435.673 272.48 435.533 272.42 435.393 272.42C435.193 272.42 434.793 272.66 434.793 272.88C434.793 273.12 435.233 273.54 435.233 276.04C435.233 276.44 435.213 276.88 435.193 277.4C435.113 278.94 434.873 279.96 434.873 280.56C434.873 280.82 434.913 281 435.033 281.12C435.173 281.26 435.373 281.36 435.573 281.36C435.733 281.36 435.893 281.3 436.013 281.14C436.273 280.8 436.013 279.26 436.753 278.14C438.193 275.96 439.713 274.26 440.973 273.52C441.173 273.4 441.353 273.36 441.493 273.36C441.813 273.36 442.033 273.54 442.293 273.54C442.593 273.54 442.873 273.3 442.873 273.04ZM451.037 273.04C451.037 272.8 450.877 272.56 450.757 272.52C450.417 272.4 450.117 272.36 449.837 272.36C448.637 272.36 447.817 273.28 447.077 273.98C445.797 275.16 444.417 277 444.417 277C444.417 275.66 444.417 275.28 444.397 274.58C444.357 273.36 444.297 272.9 443.997 272.62C443.837 272.48 443.697 272.42 443.557 272.42C443.357 272.42 442.957 272.66 442.957 272.88C442.957 273.12 443.397 273.54 443.397 276.04C443.397 276.44 443.377 276.88 443.357 277.4C443.277 278.94 443.037 279.96 443.037 280.56C443.037 280.82 443.077 281 443.197 281.12C443.337 281.26 443.537 281.36 443.737 281.36C443.897 281.36 444.057 281.3 444.177 281.14C444.437 280.8 444.177 279.26 444.917 278.14C446.357 275.96 447.877 274.26 449.137 273.52C449.337 273.4 449.517 273.36 449.657 273.36C449.977 273.36 450.197 273.54 450.457 273.54C450.757 273.54 451.037 273.3 451.037 273.04ZM457.601 275.02C457.601 274.26 457.441 273.46 457.121 273.34C457.041 273.3 456.961 273.3 456.901 273.3C456.481 273.3 456.401 273.92 456.141 274.24C454.521 276.14 452.881 278.1 452.381 278.1C452.241 278.1 452.221 277.88 452.221 277.76C452.221 276.04 452.941 274.46 453.021 272.82C453.001 272.5 452.561 272.2 452.341 272.2C451.741 272.2 451.701 273.84 451.661 274.08C451.401 275.72 451.121 277.42 451.121 278.54C451.121 279.32 451.261 279.84 451.701 279.84C452.901 279.86 456.381 275.46 456.381 275.46C456.321 278.46 456.181 279.92 455.901 282.66C455.501 286.68 455.261 288.98 455.121 289.02C455.041 289.04 454.881 289.36 454.881 289.66C454.881 289.98 455.061 290.3 455.681 290.3C456.201 290.3 456.401 290.06 456.401 289.76C456.401 289.44 456.201 289.06 456.121 288.96C456.101 288.94 456.101 288.9 456.101 288.82C456.101 288.4 456.341 287.12 456.621 284.68C457.001 281.36 457.421 276.78 457.561 275.66C457.581 275.46 457.601 275.24 457.601 275.02ZM461.213 273.58C461.213 273.12 460.933 272.82 460.593 272.82C459.893 272.86 459.973 274 459.913 275.1C459.813 277.02 459.713 278.46 459.713 279.42C459.713 280.14 459.773 280.58 459.953 280.72C460.113 280.84 460.293 280.9 460.433 280.9C460.833 280.9 460.973 280.58 460.973 280.24C460.973 279.88 460.733 279.84 460.733 278.94V278.56C460.733 277.78 461.213 274.26 461.213 273.58ZM461.253 266.94C461.253 266.62 461.033 266.38 460.753 266.38C460.233 266.38 460.393 266.84 459.973 267.7C459.733 268.22 459.633 268.68 459.633 269.04C459.633 269.32 459.693 269.72 459.993 269.72C460.133 269.72 460.253 269.64 460.353 269.54C460.553 269.34 460.413 269 460.713 268.26C460.973 267.62 461.233 267.28 461.253 267.02V266.94ZM469.9 281.5C469.9 281.18 469.7 280.8 469.56 280.52C469.52 280.38 469.5 280.02 469.5 279.22V276.92C469.5 274.32 469.4 272.46 468.46 272.26H468.38C467.14 272.26 465.02 276.86 465.02 276.86C465 276.7 465 276.58 465 276.48C465 276.22 465.04 275.98 465.04 275.4C465.04 274.24 465.24 273.48 465.24 273.04C465.24 272.88 465.22 272.78 465.16 272.7C465.04 272.54 464.78 272.38 464.52 272.38C464.32 272.38 464.14 272.5 464.08 272.84C464.04 273.12 463.86 274.56 463.82 276.44C463.78 278.6 463.66 279.76 463.66 280.4C463.66 280.72 463.7 280.92 463.78 281.06C463.92 281.24 464.08 281.3 464.22 281.3C464.36 281.3 464.5 281.24 464.6 281.2C464.84 281.02 464.82 280.5 465.42 278.88C466.32 276.44 467.8 273.68 468.16 273.68C468.4 273.68 468.42 275.3 468.42 275.54L468.4 277.48C468.4 279.28 468.6 280.22 468.6 280.64C468.6 280.84 468.54 280.96 468.54 281.1C468.54 281.64 469.04 282 469.44 282C469.74 282 469.9 281.74 469.9 281.5ZM478.188 284.36C478.188 285.68 477.668 287.12 476.628 288.78C475.868 289.98 474.368 291.1 472.888 291.1C471.548 291.1 470.108 289.98 470.108 288.62C470.108 287.88 470.488 287.06 471.248 286.14C473.688 283.16 477.868 282.56 477.868 282.56C478.068 283.14 478.188 283.74 478.188 284.36ZM476.608 276.64C476.608 277.64 475.028 278.56 474.168 278.92C473.588 279.16 472.768 279.32 472.768 279.32C472.768 279.32 472.608 278.9 472.608 278.52C472.608 278.04 473.228 276.64 475.088 274.98C475.868 275.12 476.608 275.8 476.608 276.64ZM484.948 282.22C484.948 282.18 484.928 282.12 484.908 282.08C484.548 281.34 483.008 281.26 481.708 281.26C480.328 281.26 478.488 281.46 478.488 281.46C478.048 280.82 477.868 280.48 477.068 279.92C476.368 279.42 475.688 279.26 475.688 279.26C476.728 278.44 477.568 277.72 477.568 276.6C477.568 275.82 477.048 275.18 476.528 274.7C477.548 274.58 478.428 274.32 479.268 274.32C479.648 274.32 479.888 274.36 480.028 274.36C480.248 274.36 480.408 274.12 480.408 273.96C480.408 273.78 480.188 273.64 479.928 273.56C479.848 273.54 479.708 273.52 479.528 273.52C478.388 273.52 475.608 274 474.488 274C474.268 274 474.108 273.98 474.048 273.94C473.888 273.82 473.768 273.76 473.648 273.76C473.368 273.76 473.228 274.06 473.208 274.28C473.208 274.58 473.768 274.9 473.768 274.9C472.408 276.54 471.528 277.38 471.528 278.44C471.528 279.04 471.768 279.58 471.768 279.58C471.388 279.7 470.868 279.86 470.868 280.3C470.868 280.6 471.248 280.8 471.508 280.8C472.048 280.8 472.728 280.14 474.448 280.14C474.628 280.14 474.808 280.14 475.028 280.16C476.708 280.3 477.468 281.66 477.468 281.66C474.608 282.34 472.768 282.94 470.388 285.54C469.448 286.56 469.048 287.64 469.048 288.62C469.048 290.76 471.108 292.18 472.928 292.18C475.248 292.18 477.168 290.14 477.948 288.6C478.948 286.62 479.208 285.1 479.208 284.06C479.208 282.92 478.908 282.34 478.908 282.34C479.968 282.18 481.228 282.08 482.268 282.08C482.728 282.08 483.028 282.1 483.028 282.1C483.248 282.38 483.128 282.64 483.928 282.64C484.408 282.64 484.948 282.52 484.948 282.22ZM427.36 308.56C427.36 308.18 427.02 307.9 426.68 307.9C426.28 307.9 425.84 308.16 425.66 308.24C425.22 308.44 419.5 311.74 416.1 311.74C415.46 311.74 414.9 311.62 414.46 311.34C413.68 310.84 413.36 310.12 413.36 309.3C413.36 306 418.62 301 421.18 300.46C421.62 300.36 422.24 300.24 422.24 299.76C422.24 299.28 421.96 299.1 421.58 299.1C421.16 299.1 420.68 299.3 420.52 299.36C417.18 300.7 412.24 305.5 412.24 309.24C412.24 310.34 412.68 311.36 413.7 312.16C414.26 312.6 415.02 312.78 415.88 312.78C419.6 312.78 425.32 309.4 426.2 309.28C426.2 309.28 427.36 309.16 427.36 308.56ZM431.17 311.3C431.17 311.3 429.83 312.42 428.85 312.42C428.35 312.42 428.17 312.14 428.17 311.7C428.17 310.7 429.01 309.62 430.01 309.62C430.67 309.62 431.17 311.3 431.17 311.3ZM433.17 308.66C433.17 307.1 432.77 305.5 431.39 304.64C431.07 304.44 430.69 304.36 430.27 304.36C429.11 304.36 427.81 305.04 427.81 305.72C427.83 306.08 428.17 306.22 428.39 306.22C428.49 306.22 428.55 306.2 428.55 306.12C428.59 305.84 429.37 305.3 430.17 305.3C431.75 305.3 432.17 307.54 432.17 308.7C432.17 309.78 431.85 310.52 431.85 310.52C431.55 309.6 431.05 308.62 429.95 308.62C428.41 308.62 427.23 310.44 427.23 311.78C427.23 312.74 427.81 313.36 428.81 313.36C430.05 313.36 431.47 312.36 431.47 312.36C431.47 312.36 431.53 312.7 431.65 312.82C431.75 312.94 431.93 312.98 432.07 312.98C432.17 312.98 432.27 312.96 432.31 312.9C432.41 312.84 433.17 310.78 433.17 308.66ZM439.3 308.08C439.3 308.16 439.3 308.2 439.28 308.3C438.8 310.48 435.7 312 435.7 312C435.7 312 436 309.5 436.18 308.32C436.36 307.16 436.68 305.6 436.68 305.6C437.84 305.68 439.3 307.1 439.3 308.08ZM440.38 308.24C440.38 305.9 437.66 304.52 436.26 304.5C435.96 304.5 434.84 304.78 434.84 305.38C434.84 305.84 435.34 305.98 435.34 305.98C434.86 309.6 434.6 311.02 434.42 315.18C434.4 315.82 434.38 316.4 434.38 316.92C434.38 318.74 434.5 319.86 434.5 320.3C434.5 320.42 434.5 320.48 434.48 320.5C434.42 320.6 434.4 320.72 434.4 320.86C434.4 321.26 434.68 321.7 435.1 321.7C435.36 321.7 435.58 321.46 435.58 321.12C435.58 321 435.54 320.88 435.48 320.74C435.44 320.64 435.38 319.74 435.38 318.3V316.98C435.38 314.24 435.66 312.46 435.66 312.46C435.72 312.68 436.04 312.98 436.34 312.98C436.74 312.98 440.38 310 440.38 308.24ZM444.92 311.3C444.92 311.3 443.58 312.42 442.6 312.42C442.1 312.42 441.92 312.14 441.92 311.7C441.92 310.7 442.76 309.62 443.76 309.62C444.42 309.62 444.92 311.3 444.92 311.3ZM446.92 308.66C446.92 307.1 446.52 305.5 445.14 304.64C444.82 304.44 444.44 304.36 444.02 304.36C442.86 304.36 441.56 305.04 441.56 305.72C441.58 306.08 441.92 306.22 442.14 306.22C442.24 306.22 442.3 306.2 442.3 306.12C442.34 305.84 443.12 305.3 443.92 305.3C445.5 305.3 445.92 307.54 445.92 308.7C445.92 309.78 445.6 310.52 445.6 310.52C445.3 309.6 444.8 308.62 443.7 308.62C442.16 308.62 440.98 310.44 440.98 311.78C440.98 312.74 441.56 313.36 442.56 313.36C443.8 313.36 445.22 312.36 445.22 312.36C445.22 312.36 445.28 312.7 445.4 312.82C445.5 312.94 445.68 312.98 445.82 312.98C445.92 312.98 446.02 312.96 446.06 312.9C446.16 312.84 446.92 310.78 446.92 308.66ZM458.643 309.26C458.643 309.04 458.463 308.82 458.223 308.82C458.163 308.82 458.103 308.84 458.043 308.86C457.823 308.94 453.043 312.08 450.523 312.08C449.663 312.08 448.983 311.6 448.983 310.76C448.983 309.02 451.583 306.36 452.043 306.22C452.083 306.2 452.143 306.2 452.203 306.2C452.443 306.2 452.663 306.3 452.863 306.3C453.243 306.3 453.663 305.7 453.663 305.34C453.663 305.06 453.463 304.86 452.983 304.86C452.883 304.86 452.763 304.86 452.643 304.88C450.903 305.14 447.883 308.62 447.883 310.94C447.883 312.34 449.203 313 450.383 313C453.643 313 458.623 309.52 458.643 309.34V309.26ZM459.709 305.58C459.709 305.12 459.429 304.82 459.089 304.82C458.389 304.86 458.469 306 458.409 307.1C458.309 309.02 458.209 310.46 458.209 311.42C458.209 312.14 458.269 312.58 458.449 312.72C458.609 312.84 458.789 312.9 458.929 312.9C459.329 312.9 459.469 312.58 459.469 312.24C459.469 311.88 459.229 311.84 459.229 310.94V310.56C459.229 309.78 459.709 306.26 459.709 305.58ZM459.749 298.94C459.749 298.62 459.529 298.38 459.249 298.38C458.729 298.38 458.889 298.84 458.469 299.7C458.229 300.22 458.129 300.68 458.129 301.04C458.129 301.32 458.189 301.72 458.489 301.72C458.629 301.72 458.749 301.64 458.849 301.54C459.049 301.34 458.909 301 459.209 300.26C459.469 299.62 459.729 299.28 459.749 299.02V298.94ZM475.636 307.02C475.636 306.26 475.476 305.46 475.156 305.34C475.076 305.3 474.996 305.3 474.936 305.3C474.516 305.3 474.436 305.92 474.176 306.24C472.556 308.14 470.916 310.1 470.416 310.1C470.376 310.1 470.356 310.1 470.336 310.08C470.276 310.04 470.256 309.9 470.256 309.7C470.256 308.56 471.056 305.3 471.056 304.82C471.036 304.1 469.676 303.98 469.296 303.96C469.116 303.96 468.936 303.94 468.756 303.94C467.336 303.94 466.036 304.2 466.036 304.2C466.216 302.9 466.336 302.58 466.456 301.38C466.496 300.96 466.516 300.6 466.516 300.3C466.516 299.24 466.276 298.86 465.896 298.86C465.516 298.86 465.436 299.22 465.436 299.64C465.436 299.92 465.476 300.2 465.476 300.42V300.54C465.276 302.74 464.996 304.38 464.996 304.38C463.796 304.7 463.536 304.8 462.396 305.24C461.296 305.66 461.256 305.82 461.156 306.12C461.136 306.16 461.136 306.2 461.136 306.24C461.136 306.52 461.416 306.74 461.756 306.82C462.116 306.82 462.796 306.2 463.136 306.04C463.856 305.7 464.836 305.48 464.836 305.48C464.736 306.34 464.656 306.74 464.516 308.16C464.296 310.2 464.296 311.44 464.296 312.34C464.296 312.66 464.396 313.4 464.996 313.44H465.076C465.456 313.44 465.556 313.22 465.556 312.96C465.556 312.72 465.456 312.44 465.456 312.36C465.436 312.06 465.436 311.72 465.436 311.38C465.436 308.72 465.856 305.5 465.876 305.26C466.596 305.1 467.976 304.82 469.216 304.82C469.596 304.82 469.856 304.88 469.856 304.88C469.796 305.2 469.756 305.6 469.696 306.08C469.456 307.72 469.156 309.42 469.156 310.54C469.156 311.32 469.296 311.84 469.736 311.84C470.936 311.86 474.416 307.46 474.416 307.46C474.356 310.46 474.216 311.92 473.936 314.66C473.536 318.68 473.296 320.98 473.156 321.02C473.076 321.04 472.916 321.36 472.916 321.66C472.916 321.98 473.096 322.3 473.716 322.3C474.236 322.3 474.436 322.06 474.436 321.76C474.436 321.44 474.236 321.06 474.156 320.96C474.136 320.94 474.136 320.9 474.136 320.82C474.136 320.4 474.376 319.12 474.656 316.68C475.036 313.36 475.456 308.78 475.596 307.66C475.616 307.46 475.636 307.24 475.636 307.02Z" fill="#005573"/>
</svg>
