<svg width="708" height="547" viewBox="0 0 708 547" fill="none" xmlns="http://www.w3.org/2000/svg">
<path d="M203.188 47.2016C200.807 48.2537 197.926 51.2942 197.926 51.2942C197.926 51.2942 191.699 48.1831 188.572 50.1248C185.32 52.1433 185.648 59.4792 185.648 59.4792L182.725 62.4024C182.725 62.4024 178.844 66.6784 182.725 69.4182C186.606 72.1581 186.444 70.1862 190.325 72.9261C194.207 75.666 195.29 78.0047 199.095 78.7726C203.621 79.6863 207.186 79.9076 210.788 77.0187C212.569 75.5902 212.352 73.5388 214.296 72.3415C215.899 71.3541 217.385 72.183 218.973 71.1722C221.22 69.7427 222.573 67.9867 222.481 65.3257C222.38 62.4035 219.092 62.1043 217.804 59.4792C216.364 56.5443 217.81 54.0489 216.05 51.2942C214.106 48.252 212.048 46.3166 208.45 46.0323C206.351 45.8666 205.113 46.3508 203.188 47.2016Z" stroke="#005573" stroke-width="2.3386"/>
<path d="M412 60.2253L546.797 60.2252L546.797 46.2388L568.797 63.2388L546.797 80.2388L546.797 67.2412L412 67.2412" stroke="#005573" stroke-width="2.3386"/>
<path d="M241.5 233.388L304.217 233.388L304.217 219.401L326.217 236.401L304.217 253.401L304.217 240.404L239.5 240.404" stroke="#005573" stroke-width="2.3386"/>
<path d="M400.169 39L400.169 48.5" stroke="#005573" stroke-width="2.3386"/>
<rect x="381.169" y="30.1693" width="30.4017" height="8.18509" rx="1.1693" stroke="#005573" stroke-width="2.3386"/>
<circle cx="395.539" cy="64.5395" r="16.5395" stroke="#005573" stroke-width="2"/>
<path d="M245 59.9863H379" stroke="#005573" stroke-width="2.3386"/>
<path d="M245 67.002H379" stroke="#005573" stroke-width="2.3386"/>
<path d="M392 39V48" stroke="#005573" stroke-width="2.3386"/>
<path d="M103.188 220.202C100.807 221.254 97.9259 224.294 97.9259 224.294C97.9259 224.294 91.6994 221.183 88.5716 223.125C85.3198 225.143 85.6483 232.479 85.6483 232.479L82.725 235.402C82.725 235.402 78.8437 239.678 82.7251 242.418C86.6065 245.158 86.4441 243.186 90.3255 245.926C94.2069 248.666 95.2904 251.005 99.0951 251.773C103.621 252.686 107.186 252.908 110.788 250.019C112.569 248.59 112.352 246.539 114.296 245.341C115.899 244.354 117.385 245.183 118.973 244.172C121.22 242.743 122.573 240.987 122.481 238.326C122.38 235.404 119.092 235.104 117.804 232.479C116.364 229.544 117.81 227.049 116.05 224.294C114.106 221.252 112.048 219.317 108.45 219.032C106.351 218.867 105.113 219.351 103.188 220.202Z" stroke="#005573" stroke-width="2.3386"/>
<line x1="228.169" y1="213" x2="228.169" y2="220.016" stroke="#005573" stroke-width="2.3386"/>
<rect x="209.169" y="203.169" width="30.4017" height="8.18509" rx="1.1693" stroke="#005573" stroke-width="2.3386"/>
<circle cx="224.539" cy="235.539" r="16.5395" stroke="#005573" stroke-width="2"/>
<path d="M145 232.986L207 233" stroke="#005573" stroke-width="2.3386"/>
<path d="M145 240.002H208" stroke="#005573" stroke-width="2.3386"/>
<path d="M221 213V220.016" stroke="#005573" stroke-width="2.3386"/>
<path d="M244.5 65.8358L244.5 80L223.5 63L244.5 46.5L244.5 61.1426" stroke="#005573" stroke-width="2" stroke-dasharray="4 4"/>
<path d="M144 238.843L144 252.5L123 235.5L144 219L144 234.167" stroke="#005573" stroke-width="2" stroke-dasharray="4 4"/>
<path d="M617 101.501L568.5 101.501L568.5 39.6013L650 39.6019L650 101.501L630 101.501" stroke="#005573" stroke-width="2"/>
<path d="M634.693 90.5085V76.446H637.08V90.5085H634.693ZM628.855 84.6705V82.2841H642.918V84.6705H628.855Z" fill="#005573"/>
<path d="M391.693 267.509V253.446H394.08V267.509H391.693ZM385.855 261.67V259.284H399.918V261.67H385.855Z" fill="#005573"/>
<line x1="629" y1="95" x2="643" y2="95" stroke="#005573" stroke-width="2"/>
<line x1="386" y1="271" x2="400" y2="271" stroke="#005573" stroke-width="2"/>
<path d="M365 214.999L325.5 214.999L326.5 278L407 278L407 214.999L378.5 214.999" stroke="#005573" stroke-width="2"/>
<path d="M75 481.5C69.5425 480.964 67 482.669 64 485C57.9002 489.74 56.0858 496.346 59 503.5C60.0184 506 61.9645 509.948 66.5 512C72.7265 514.818 78.1016 514.691 83.5 510.5C87.5 507.395 89 505 89.5 500C89.9618 495.382 89.0395 492.385 86.5 488.5" stroke="#005573" stroke-width="2"/>
<path d="M35.4443 359.529C31.7798 355.45 28.7531 354.991 24.9664 354.685C17.2669 354.063 11.5256 357.991 8.78797 364.956C7.59163 368 7 371.5 8.58169 376.29C10.7244 382.78 15.3235 386.108 22.1353 386.661C27.2735 387.078 29.9059 386.317 33.6502 382.966C37.1089 379.871 38.4518 377.038 39.2013 372.457" stroke="#005573" stroke-width="2"/>
<path d="M188.08 322.045C182.727 323.235 180.841 325.647 178.716 328.796C174.394 335.198 175.115 342.5 179.722 347.933C182.942 351.73 184.546 353.138 189.495 353.676C196.289 354.416 201.358 352.622 205.184 346.959C208.07 342.688 208.474 339 207.618 335.114C206.619 330.581 204.81 328.02 201.188 325.119" stroke="#005573" stroke-width="2"/>
<circle cx="81.5" cy="483.5" r="6.75" stroke="#9B9B0F" stroke-width="1.5"/>
<circle cx="38.5" cy="365.5" r="6.75" stroke="#9B9B0F" stroke-width="1.5"/>
<circle cx="194.5" cy="322.5" r="6.75" stroke="#9B9B0F" stroke-width="1.5"/>
<circle cx="372.5" cy="215.5" r="6.75" stroke="#9B9B0F" stroke-width="1.5"/>
<circle cx="623.5" cy="102.5" r="6.75" stroke="#9B9B0F" stroke-width="1.5"/>
<path d="M85.5 478L160.601 375.699" stroke="#9B9B0F" stroke-width="2"/>
<path d="M179 352L168.199 356.084L177.136 363.396L179 352ZM170.774 363.634L174.075 359.599L172.527 358.332L169.226 362.367L170.774 363.634Z" fill="#9B9B0F"/>
<path d="M173.5 340L162.607 336.168L164.735 347.518L173.5 340ZM45.6843 364.983L164.838 342.641L164.47 340.676L45.3157 363.017L45.6843 364.983Z" fill="#9B9B0F"/>
<line x1="196.054" y1="315.677" x2="210.054" y2="274.677" stroke="#9B9B0F" stroke-width="2"/>
<path d="M216 251L207.597 258.919L218.657 262.237L216 251ZM213.958 261.287L214.372 259.908L212.456 259.333L212.042 260.713L213.958 261.287Z" fill="#9B9B0F"/>
<path d="M394 81L386.195 89.5094L397.467 92.0143L394 81ZM392.976 90.2169L393.024 90.0026L391.071 89.5688L391.024 89.7831L392.976 90.2169Z" fill="#9B9B0F"/>
<path d="M231 252L229.444 263.442L240.131 259.069L231 252ZM235.88 261.284L235.334 259.951L233.483 260.708L234.029 262.041L235.88 261.284Z" fill="#9B9B0F"/>
<path d="M626.198 110.459C626.198 110.459 694.5 276.459 529.5 372.999C364.5 469.539 241.198 276.459 241.198 276.459" stroke="#9B9B0F" stroke-width="2"/>
<path d="M373 208.5L373.5 205" stroke="#9B9B0F" stroke-width="2"/>
<line x1="375.012" y1="191.843" x2="388.012" y2="109.843" stroke="#9B9B0F" stroke-width="2"/>
<path d="M47.9 535.86C47.84 532.06 37.84 532.86 37.84 530.58C37.84 528.82 42.46 527.06 44.38 527.06C44.92 527.06 45.14 527.7 45.58 527.7C45.96 527.7 46.26 527.46 46.26 527.26C46.26 527.2 46.26 527.16 46.22 527.12C45.78 526.5 45.66 525.9 44.14 525.9C42.2 525.9 36.54 527.88 36.54 530.9C36.54 533.9 46.74 532.78 46.74 536.1C46.74 537.5 42.62 539.76 41.06 539.98C40.7 540.04 40.16 540.32 40.16 540.86C40.16 541.4 40.68 541.54 41.1 541.54C41.52 541.54 41.94 541.38 42.02 540.9C42.08 540.56 47.9 538.7 47.9 535.86ZM58.6619 525.94C58.6619 525.62 58.4419 525.38 58.1619 525.38C57.6419 525.38 57.8019 525.84 57.3819 526.7C57.1419 527.22 57.0419 527.68 57.0419 528.04C57.0419 528.32 57.1019 528.72 57.4019 528.72C57.5419 528.72 57.6619 528.62 57.7619 528.52C57.9619 528.32 57.8219 528 58.1219 527.26C58.3819 526.62 58.6419 526.28 58.6619 526.02V525.94ZM57.3619 531.88C56.9219 532.14 56.9819 533.14 56.9219 534.1C56.8219 536.02 56.7219 537.46 56.7219 538.42C56.7219 539.14 56.7819 539.58 56.9619 539.72C57.1219 539.84 57.3019 539.9 57.4419 539.9C57.8419 539.9 57.9819 539.58 57.9819 539.24C57.9819 538.88 57.7419 538.84 57.7419 537.94V537.56C57.7419 536.78 58.2219 533.26 58.2219 532.58C58.2219 532.16 57.9819 531.86 57.6819 531.82C57.7819 531.78 57.8419 531.68 57.8419 531.52C57.8019 531.02 57.1619 531.02 56.6619 530.98C56.4819 530.96 55.9419 530.94 55.7619 530.94C54.3419 530.94 53.1419 531.2 53.1419 531.2C53.3219 529.9 53.4419 529.58 53.5619 528.38C53.6019 527.96 53.6219 527.6 53.6219 527.3C53.6219 526.24 53.3819 525.86 53.0019 525.86C52.6219 525.86 52.5419 526.22 52.5419 526.64C52.5419 526.92 52.5819 527.2 52.5819 527.42V527.54C52.3819 529.74 52.1019 531.38 52.1019 531.38C50.9019 531.7 50.6419 531.8 49.5019 532.24C48.4019 532.66 48.3619 532.82 48.2619 533.12C48.2419 533.16 48.2419 533.2 48.2419 533.24C48.2419 533.52 48.5219 533.74 48.8619 533.82C49.2219 533.82 49.9019 533.2 50.2419 533.04C50.9619 532.7 51.9419 532.48 51.9419 532.48C51.8419 533.34 51.7619 533.74 51.6219 535.16C51.4019 537.2 51.4019 538.44 51.4019 539.34C51.4019 539.66 51.5019 540.4 52.1019 540.44H52.1819C52.5619 540.44 52.6619 540.22 52.6619 539.96C52.6619 539.72 52.5619 539.44 52.5619 539.36C52.5419 539.06 52.5419 538.72 52.5419 538.38C52.5419 535.72 52.9619 532.5 52.9819 532.26C53.7019 532.1 55.0819 531.82 56.6819 531.82C56.8419 531.82 57.1219 531.88 57.3619 531.88ZM65.9627 532.64C65.9627 533.06 65.9427 533.4 65.9427 533.74C65.9427 533.74 64.8427 533.86 62.4027 534.28C62.4027 533.94 62.3827 533.64 62.3827 533.22C62.3827 530.52 63.4227 526.84 66.5427 526.84C66.9427 526.84 67.3227 526.92 67.5427 527.12C66.6427 528.16 65.9627 529.9 65.9627 532.64ZM70.1027 526.7C70.3427 526.7 70.6027 526.76 70.9027 526.86C71.0227 526.9 71.3427 527.14 71.6227 527.14C71.8027 527.14 72.0427 527.08 72.0427 526.68C72.0427 525.9 70.7227 525.74 70.2027 525.74C69.5027 525.74 68.8427 526.06 68.3227 526.4C67.8027 526.04 67.1427 525.88 66.5427 525.88C65.5627 525.88 64.5227 526.14 63.6227 526.92C62.3627 528.02 61.3227 529.84 61.3227 533.06V534.56C60.2227 534.9 59.5427 535.26 59.2227 535.58C59.1027 535.72 59.0427 535.86 59.0427 536C59.0427 536.36 59.3827 536.7 59.7427 536.7C59.9227 536.7 60.1027 536.6 60.2427 536.4C60.6227 535.84 60.8027 535.78 61.3827 535.56C61.4027 536.44 61.4427 537.36 61.4427 538.28C61.4427 539.06 61.4227 539.82 61.3627 540.6C61.2427 542.56 60.6627 545.36 60.5227 545.54C60.4027 545.68 60.3627 545.88 60.3627 546.06C60.3627 546.54 60.7227 546.76 61.1227 546.76C61.5827 546.76 61.8027 546.4 61.8027 546.12C61.8027 546.06 61.8027 546 61.7827 545.86C61.7827 545.32 62.3627 543.42 62.4427 540.54C62.4627 540 62.4627 539.46 62.4627 538.92C62.4627 537.76 62.4427 536.6 62.4227 535.28C63.6627 535.06 66.0627 534.74 65.9627 534.74C65.9627 536.62 65.8827 538.3 65.6027 540.6C65.2827 543.3 64.7227 545.36 64.5827 545.54C64.4427 545.7 64.3627 545.92 64.3627 546.12C64.3627 546.58 64.7227 546.76 65.1027 546.76C65.5427 546.76 65.7627 546.38 65.7627 546.1C65.7427 545.94 65.7427 545.9 65.7427 545.86C65.7427 545.34 66.3227 543.22 66.7227 540.54C66.9627 538.82 67.0427 536.42 67.0427 534.6C67.5227 534.54 67.8227 534.5 68.5227 534.5C68.8827 534.5 69.3027 534.5 69.8427 534.48C70.2227 534.46 70.7427 534.42 70.7627 533.88C70.7627 533.48 70.4227 533.22 70.0827 533.22C69.9627 533.22 69.8627 533.24 69.7627 533.32C69.4227 533.56 67.9427 533.48 67.0427 533.6C67.0427 533.14 67.0227 532.74 67.0227 532.4C67.0227 530.52 67.4227 528.82 68.2227 527.78H68.3027C68.6227 527.78 68.8627 527.58 68.8627 527.3C68.8627 527.24 68.8427 527.16 68.8427 527.16C68.8427 527.16 69.3227 526.7 70.1027 526.7ZM78.373 540.5C78.373 540.18 78.173 539.8 78.033 539.52C77.993 539.38 77.973 539.02 77.973 538.22V535.92C77.973 533.32 77.873 531.46 76.933 531.26H76.853C75.613 531.26 73.493 535.86 73.493 535.86C73.473 535.7 73.473 535.58 73.473 535.48C73.473 535.22 73.513 534.98 73.513 534.4C73.513 533.24 73.713 532.48 73.713 532.04C73.713 531.88 73.693 531.78 73.633 531.7C73.513 531.54 73.253 531.38 72.993 531.38C72.793 531.38 72.613 531.5 72.553 531.84C72.513 532.12 72.333 533.56 72.293 535.44C72.253 537.6 72.133 538.76 72.133 539.4C72.133 539.72 72.173 539.92 72.253 540.06C72.393 540.24 72.553 540.3 72.693 540.3C72.833 540.3 72.973 540.24 73.073 540.2C73.313 540.02 73.293 539.5 73.893 537.88C74.793 535.44 76.273 532.68 76.633 532.68C76.873 532.68 76.893 534.3 76.893 534.54L76.873 536.48C76.873 538.28 77.073 539.22 77.073 539.64C77.073 539.84 77.013 539.96 77.013 540.1C77.013 540.64 77.513 541 77.913 541C78.213 541 78.373 540.74 78.373 540.5ZM84.8688 532.7C84.2487 533.26 83.9088 533.48 83.3888 533.78C82.1488 534.54 81.0288 534.6 81.0288 534.6C81.0288 534.6 81.6488 533.78 82.6688 533.26C83.3888 532.88 84.1288 532.7 84.8688 532.7ZM88.8088 536.16C88.8088 535.82 88.5088 535.52 88.2088 535.52C87.8688 535.52 87.6488 536.04 87.5288 536.26C87.3288 536.54 84.2288 539.08 82.6488 539.08C81.7688 539.08 81.3888 538.6 81.0288 538.02C80.5888 537.34 80.4888 536.72 80.4888 536.3C80.4888 535.94 80.5488 535.72 80.5488 535.72C81.1088 535.68 82.3288 535.56 83.5688 534.8C84.7088 534.12 86.4088 532.84 86.4088 532.34C86.4088 532.28 86.3888 532.24 86.3288 532.2C85.8488 531.88 85.2688 531.74 84.6088 531.74C82.5088 531.74 79.9288 533.28 79.4088 535.54C79.3488 535.78 79.3288 536.02 79.3288 536.26C79.3288 537.74 80.2488 539.32 81.5488 539.92C81.8088 540.04 82.1088 540.1 82.4288 540.1C84.6888 540.1 87.9088 537.16 88.3488 536.92C88.6088 536.74 88.8088 536.44 88.8088 536.16ZM95.1553 530.56V530.48C95.1353 530.24 94.4353 529.88 94.1753 529.76C94.0553 529.7 93.8953 529.66 93.7153 529.66C93.4553 529.66 93.1353 529.74 92.8953 529.94C91.5753 531.04 89.0553 532.92 89.0553 535.12C89.0553 538.12 93.6553 537.92 93.9353 538.9C93.9353 539.62 91.0353 540.6 90.9153 540.8C90.8353 540.9 90.7953 541 90.7953 541.1C90.7953 541.38 91.0953 541.62 91.5153 541.64C91.8153 541.64 95.0953 539.92 95.0953 539.1C95.0953 537.86 93.9553 537.66 92.7353 537.18C91.4153 536.68 90.0953 536.28 90.0953 535.12C90.0953 534.5 90.5953 533.34 91.4953 532.54C93.0753 531.12 93.2953 530.7 93.9753 530.68C94.1353 530.68 94.3553 530.92 94.7353 530.92C95.0353 530.92 95.1553 530.76 95.1553 530.56ZM101.991 530.56V530.48C101.971 530.24 101.271 529.88 101.011 529.76C100.891 529.7 100.731 529.66 100.551 529.66C100.291 529.66 99.9713 529.74 99.7313 529.94C98.4113 531.04 95.8913 532.92 95.8913 535.12C95.8913 538.12 100.491 537.92 100.771 538.9C100.771 539.62 97.8713 540.6 97.7513 540.8C97.6713 540.9 97.6313 541 97.6313 541.1C97.6313 541.38 97.9313 541.62 98.3513 541.64C98.6513 541.64 101.931 539.92 101.931 539.1C101.931 537.86 100.791 537.66 99.5713 537.18C98.2513 536.68 96.9313 536.28 96.9313 535.12C96.9313 534.5 97.4313 533.34 98.3313 532.54C99.9113 531.12 100.131 530.7 100.811 530.68C100.971 530.68 101.191 530.92 101.571 530.92C101.871 530.92 101.991 530.76 101.991 530.56Z" fill="#005573"/>
<path d="M143.86 370.96C143.26 371.16 142.7 371.3 141.98 371.48C140.7 371.8 139.12 372.1 139.12 372.1C139.12 372.1 140.02 369.96 140.62 368.76C141.24 367.5 142.32 365.48 142.32 365.48C142.62 366.26 142.84 367.16 143.12 368.1C143.56 369.68 143.86 370.96 143.86 370.96ZM148.7 370.18C148.66 369.76 148.44 369.66 148.22 369.66C147.96 369.66 147.7 369.78 147.7 369.78L144.9 370.62C144.52 369.06 143.98 366.82 143.72 365.88C143.38 364.66 143.3 363.72 143.26 363.46C143.22 363.16 143.12 362.7 142.74 362.7C142.28 362.7 142.12 363.02 141.98 363.34L137.88 372.3C137.66 372.36 136.8 372.5 136.7 372.9C136.66 373.02 136.66 373.12 136.66 373.2C136.66 373.8 137.26 373.86 137.26 373.86C136.9 374.74 136.48 375.9 136.48 376.38C136.48 376.42 136.48 376.46 136.5 376.5C136.58 376.7 136.78 376.84 137.02 376.84C137.12 376.84 137.22 376.8 137.34 376.76C137.64 376.62 137.6 376.36 137.7 375.74C137.8 375.12 138.52 373.7 138.52 373.7C139.3 373.42 140 373.12 140.7 372.9C142.14 372.42 144.08 371.86 144.08 371.86L145.5 377.78C145.48 377.86 145.48 377.88 145.48 377.9C145.48 378.22 145.94 378.52 146.3 378.52C146.62 378.52 146.9 378.2 146.9 377.94C146.9 377.56 146.44 377.22 146.44 377.22L145.1 371.52L147.68 370.76C147.76 370.8 147.86 370.82 147.98 370.82C148.32 370.82 148.7 370.64 148.7 370.18ZM158.522 373.26C158.522 373.04 158.342 372.82 158.102 372.82C158.042 372.82 157.982 372.84 157.922 372.86C157.702 372.94 152.922 376.08 150.402 376.08C149.542 376.08 148.862 375.6 148.862 374.76C148.862 373.02 151.462 370.36 151.922 370.22C151.962 370.2 152.022 370.2 152.082 370.2C152.322 370.2 152.542 370.3 152.742 370.3C153.122 370.3 153.542 369.7 153.542 369.34C153.542 369.06 153.342 368.86 152.862 368.86C152.762 368.86 152.642 368.86 152.522 368.88C150.782 369.14 147.762 372.62 147.762 374.94C147.762 376.34 149.082 377 150.262 377C153.522 377 158.502 373.52 158.522 373.34V373.26ZM167.76 373.26C167.76 373.04 167.58 372.82 167.34 372.82C167.28 372.82 167.22 372.84 167.16 372.86C166.94 372.94 162.16 376.08 159.64 376.08C158.78 376.08 158.1 375.6 158.1 374.76C158.1 373.02 160.7 370.36 161.16 370.22C161.2 370.2 161.26 370.2 161.32 370.2C161.56 370.2 161.78 370.3 161.98 370.3C162.36 370.3 162.78 369.7 162.78 369.34C162.78 369.06 162.58 368.86 162.1 368.86C162 368.86 161.88 368.86 161.76 368.88C160.02 369.14 157 372.62 157 374.94C157 376.34 158.32 377 159.5 377C162.76 377 167.74 373.52 167.76 373.34V373.26ZM172.564 369.7C171.944 370.26 171.604 370.48 171.084 370.78C169.844 371.54 168.724 371.6 168.724 371.6C168.724 371.6 169.344 370.78 170.364 370.26C171.084 369.88 171.824 369.7 172.564 369.7ZM176.504 373.16C176.504 372.82 176.204 372.52 175.904 372.52C175.564 372.52 175.344 373.04 175.224 373.26C175.024 373.54 171.924 376.08 170.344 376.08C169.464 376.08 169.084 375.6 168.724 375.02C168.284 374.34 168.184 373.72 168.184 373.3C168.184 372.94 168.244 372.72 168.244 372.72C168.804 372.68 170.024 372.56 171.264 371.8C172.404 371.12 174.104 369.84 174.104 369.34C174.104 369.28 174.084 369.24 174.024 369.2C173.544 368.88 172.964 368.74 172.304 368.74C170.204 368.74 167.624 370.28 167.104 372.54C167.044 372.78 167.024 373.02 167.024 373.26C167.024 374.74 167.944 376.32 169.244 376.92C169.504 377.04 169.804 377.1 170.124 377.1C172.384 377.1 175.604 374.16 176.044 373.92C176.304 373.74 176.504 373.44 176.504 373.16ZM180.091 363.28C180.091 363 180.031 362.86 179.931 362.74C179.731 362.52 179.571 362.44 179.431 362.44C179.251 362.44 179.131 362.56 178.991 362.68C178.731 362.9 178.671 364.62 178.431 367.22C178.191 369.66 177.771 373.96 177.771 376.34C177.771 377.24 177.851 377.88 178.011 377.98C178.191 378.12 178.351 378.16 178.491 378.16C178.891 378.16 178.971 377.58 178.971 377.14C178.971 376.46 178.911 375.74 178.911 375.1C178.911 373.5 179.011 371.58 179.251 369.7C179.751 365.5 180.091 363.98 180.091 363.28ZM186.255 369.7C185.635 370.26 185.295 370.48 184.775 370.78C183.535 371.54 182.415 371.6 182.415 371.6C182.415 371.6 183.035 370.78 184.055 370.26C184.775 369.88 185.515 369.7 186.255 369.7ZM190.195 373.16C190.195 372.82 189.895 372.52 189.595 372.52C189.255 372.52 189.035 373.04 188.915 373.26C188.715 373.54 185.615 376.08 184.035 376.08C183.155 376.08 182.775 375.6 182.415 375.02C181.975 374.34 181.875 373.72 181.875 373.3C181.875 372.94 181.935 372.72 181.935 372.72C182.495 372.68 183.715 372.56 184.955 371.8C186.095 371.12 187.795 369.84 187.795 369.34C187.795 369.28 187.775 369.24 187.715 369.2C187.235 368.88 186.655 368.74 185.995 368.74C183.895 368.74 181.315 370.28 180.795 372.54C180.735 372.78 180.715 373.02 180.715 373.26C180.715 374.74 181.635 376.32 182.935 376.92C183.195 377.04 183.495 377.1 183.815 377.1C186.075 377.1 189.295 374.16 189.735 373.92C189.995 373.74 190.195 373.44 190.195 373.16ZM199.002 369.04C199.002 368.8 198.842 368.56 198.722 368.52C198.382 368.4 198.082 368.36 197.802 368.36C196.602 368.36 195.782 369.28 195.042 369.98C193.762 371.16 192.382 373 192.382 373C192.382 371.66 192.382 371.28 192.362 370.58C192.322 369.36 192.262 368.9 191.962 368.62C191.802 368.48 191.662 368.42 191.522 368.42C191.322 368.42 190.922 368.66 190.922 368.88C190.922 369.12 191.362 369.54 191.362 372.04C191.362 372.44 191.342 372.88 191.322 373.4C191.242 374.94 191.002 375.96 191.002 376.56C191.002 376.82 191.042 377 191.162 377.12C191.302 377.26 191.502 377.36 191.702 377.36C191.862 377.36 192.022 377.3 192.142 377.14C192.402 376.8 192.142 375.26 192.882 374.14C194.322 371.96 195.842 370.26 197.102 369.52C197.302 369.4 197.482 369.36 197.622 369.36C197.942 369.36 198.162 369.54 198.422 369.54C198.722 369.54 199.002 369.3 199.002 369.04ZM202.495 375.3C202.495 375.3 201.155 376.42 200.175 376.42C199.675 376.42 199.495 376.14 199.495 375.7C199.495 374.7 200.335 373.62 201.335 373.62C201.995 373.62 202.495 375.3 202.495 375.3ZM204.495 372.66C204.495 371.1 204.095 369.5 202.715 368.64C202.395 368.44 202.015 368.36 201.595 368.36C200.435 368.36 199.135 369.04 199.135 369.72C199.155 370.08 199.495 370.22 199.715 370.22C199.815 370.22 199.875 370.2 199.875 370.12C199.915 369.84 200.695 369.3 201.495 369.3C203.075 369.3 203.495 371.54 203.495 372.7C203.495 373.78 203.175 374.52 203.175 374.52C202.875 373.6 202.375 372.62 201.275 372.62C199.735 372.62 198.555 374.44 198.555 375.78C198.555 376.74 199.135 377.36 200.135 377.36C201.375 377.36 202.795 376.36 202.795 376.36C202.795 376.36 202.855 376.7 202.975 376.82C203.075 376.94 203.255 376.98 203.395 376.98C203.495 376.98 203.595 376.96 203.635 376.9C203.735 376.84 204.495 374.78 204.495 372.66ZM215.517 362.94C215.517 362.62 215.297 362.38 215.017 362.38C214.497 362.38 214.657 362.84 214.237 363.7C213.997 364.22 213.897 364.68 213.897 365.04C213.897 365.32 213.957 365.72 214.257 365.72C214.397 365.72 214.517 365.62 214.617 365.52C214.817 365.32 214.677 365 214.977 364.26C215.237 363.62 215.497 363.28 215.517 363.02V362.94ZM214.217 368.88C213.777 369.14 213.837 370.14 213.777 371.1C213.677 373.02 213.577 374.46 213.577 375.42C213.577 376.14 213.637 376.58 213.817 376.72C213.977 376.84 214.157 376.9 214.297 376.9C214.697 376.9 214.837 376.58 214.837 376.24C214.837 375.88 214.597 375.84 214.597 374.94V374.56C214.597 373.78 215.077 370.26 215.077 369.58C215.077 369.16 214.837 368.86 214.537 368.82C214.637 368.78 214.697 368.68 214.697 368.52C214.657 368.02 214.017 368.02 213.517 367.98C213.337 367.96 212.797 367.94 212.617 367.94C211.197 367.94 209.997 368.2 209.997 368.2C210.177 366.9 210.297 366.58 210.417 365.38C210.457 364.96 210.477 364.6 210.477 364.3C210.477 363.24 210.237 362.86 209.857 362.86C209.477 362.86 209.397 363.22 209.397 363.64C209.397 363.92 209.437 364.2 209.437 364.42V364.54C209.237 366.74 208.957 368.38 208.957 368.38C207.757 368.7 207.497 368.8 206.357 369.24C205.257 369.66 205.217 369.82 205.117 370.12C205.097 370.16 205.097 370.2 205.097 370.24C205.097 370.52 205.377 370.74 205.717 370.82C206.077 370.82 206.757 370.2 207.097 370.04C207.817 369.7 208.797 369.48 208.797 369.48C208.697 370.34 208.617 370.74 208.477 372.16C208.257 374.2 208.257 375.44 208.257 376.34C208.257 376.66 208.357 377.4 208.957 377.44H209.037C209.417 377.44 209.517 377.22 209.517 376.96C209.517 376.72 209.417 376.44 209.417 376.36C209.397 376.06 209.397 375.72 209.397 375.38C209.397 372.72 209.817 369.5 209.837 369.26C210.557 369.1 211.937 368.82 213.537 368.82C213.697 368.82 213.977 368.88 214.217 368.88ZM220.378 370C221.478 370 221.958 371.28 221.958 372.16C221.958 372.86 221.718 373.56 221.378 374.22C220.998 374.94 219.738 376.04 218.818 376.04C217.898 376.04 217.518 374.74 217.518 374.02C217.518 373.74 217.558 373.46 217.638 373.24C218.658 370.22 220.218 370 220.378 370ZM222.958 372.4C222.958 372.18 222.938 371.98 222.918 371.74C222.698 369.56 221.018 368.86 220.218 368.86C219.058 368.86 217.898 369.92 216.778 372.46C216.538 373 216.438 373.52 216.438 374.04C216.438 375.36 217.178 377.08 218.598 377.08C220.278 377.08 222.958 375.26 222.958 372.4ZM230.482 377.5C230.482 377.18 230.282 376.8 230.142 376.52C230.102 376.38 230.082 376.02 230.082 375.22V372.92C230.082 370.32 229.982 368.46 229.042 368.26H228.962C227.722 368.26 225.602 372.86 225.602 372.86C225.582 372.7 225.582 372.58 225.582 372.48C225.582 372.22 225.622 371.98 225.622 371.4C225.622 370.24 225.822 369.48 225.822 369.04C225.822 368.88 225.802 368.78 225.742 368.7C225.622 368.54 225.362 368.38 225.102 368.38C224.902 368.38 224.722 368.5 224.662 368.84C224.622 369.12 224.442 370.56 224.402 372.44C224.362 374.6 224.242 375.76 224.242 376.4C224.242 376.72 224.282 376.92 224.362 377.06C224.502 377.24 224.662 377.3 224.802 377.3C224.942 377.3 225.082 377.24 225.182 377.2C225.422 377.02 225.402 376.5 226.002 374.88C226.902 372.44 228.382 369.68 228.742 369.68C228.982 369.68 229.002 371.3 229.002 371.54L228.982 373.48C228.982 375.28 229.182 376.22 229.182 376.64C229.182 376.84 229.122 376.96 229.122 377.1C229.122 377.64 229.622 378 230.022 378C230.322 378 230.482 377.74 230.482 377.5Z" fill="#005573"/>
<path d="M25.62 409.8C25.62 408.62 25.22 406.88 25.1 406.18C23.94 399.26 24.86 396.78 23.62 396.78H23.54C22.94 396.78 22.82 397.18 22.58 397.58C22.12 398.36 16.86 408.3 16.86 408.3C16.48 406.88 15.82 404.7 15.02 402.62C13.7 399.12 12.76 396.16 12.46 396.04C12.44 396.04 12.42 396.02 12.4 396.02C12.08 396.02 11.64 396.78 11.32 397.02C11.16 397.16 11.16 397.4 11.16 397.74V397.94C11.16 398.3 11.14 398.76 10.98 399.3C10.76 400 9.68 408.5 9.4 408.88C9.22 409.16 9 409.56 9 409.9C9 410.18 9.14 410.4 9.52 410.52C9.6 410.54 9.66 410.54 9.72 410.54C10.26 410.54 10.58 409.88 10.58 409.4C10.58 409.38 10.58 409.36 10.56 409.34C10.56 408.28 12.26 398.22 12.26 398.22C12.5 398.8 13.22 400.9 13.52 401.64C14.74 404.5 15.7 408.28 15.84 408.92C16 409.72 16.4 410.02 16.8 410.02C17.26 410.02 17.72 409.62 17.74 409.14C17.78 408.72 23.16 398.78 23.16 398.78C23.16 400.3 23.28 400.7 24.32 408.9C24.32 408.98 24.34 409.04 24.34 409.12C24.34 409.52 24.24 409.92 24.24 410.26C24.24 410.68 24.38 410.96 25 410.96H25.12C25.5 410.94 25.62 410.46 25.62 409.8ZM30.768 408.3C30.768 408.3 29.428 409.42 28.448 409.42C27.948 409.42 27.768 409.14 27.768 408.7C27.768 407.7 28.608 406.62 29.608 406.62C30.268 406.62 30.768 408.3 30.768 408.3ZM32.768 405.66C32.768 404.1 32.368 402.5 30.988 401.64C30.668 401.44 30.288 401.36 29.868 401.36C28.708 401.36 27.408 402.04 27.408 402.72C27.428 403.08 27.768 403.22 27.988 403.22C28.088 403.22 28.148 403.2 28.148 403.12C28.188 402.84 28.968 402.3 29.768 402.3C31.348 402.3 31.768 404.54 31.768 405.7C31.768 406.78 31.448 407.52 31.448 407.52C31.148 406.6 30.648 405.62 29.548 405.62C28.008 405.62 26.828 407.44 26.828 408.78C26.828 409.74 27.408 410.36 28.408 410.36C29.648 410.36 31.068 409.36 31.068 409.36C31.068 409.36 31.128 409.7 31.248 409.82C31.348 409.94 31.528 409.98 31.668 409.98C31.768 409.98 31.868 409.96 31.908 409.9C32.008 409.84 32.768 407.78 32.768 405.66ZM40.0108 400.56V400.48C39.9908 400.24 39.2908 399.88 39.0308 399.76C38.9108 399.7 38.7508 399.66 38.5708 399.66C38.3108 399.66 37.9908 399.74 37.7508 399.94C36.4308 401.04 33.9108 402.92 33.9108 405.12C33.9108 408.12 38.5108 407.92 38.7908 408.9C38.7908 409.62 35.8908 410.6 35.7708 410.8C35.6908 410.9 35.6508 411 35.6508 411.1C35.6508 411.38 35.9508 411.62 36.3708 411.64C36.6708 411.64 39.9508 409.92 39.9508 409.1C39.9508 407.86 38.8108 407.66 37.5908 407.18C36.2708 406.68 34.9508 406.28 34.9508 405.12C34.9508 404.5 35.4508 403.34 36.3508 402.54C37.9308 401.12 38.1508 400.7 38.8308 400.68C38.9908 400.68 39.2108 400.92 39.5908 400.92C39.8908 400.92 40.0108 400.76 40.0108 400.56ZM46.8467 400.56V400.48C46.8267 400.24 46.1267 399.88 45.8667 399.76C45.7467 399.7 45.5867 399.66 45.4067 399.66C45.1467 399.66 44.8267 399.74 44.5867 399.94C43.2667 401.04 40.7467 402.92 40.7467 405.12C40.7467 408.12 45.3467 407.92 45.6267 408.9C45.6267 409.62 42.7267 410.6 42.6067 410.8C42.5267 410.9 42.4867 411 42.4867 411.1C42.4867 411.38 42.7867 411.62 43.2067 411.64C43.5067 411.64 46.7867 409.92 46.7867 409.1C46.7867 407.86 45.6467 407.66 44.4267 407.18C43.1067 406.68 41.7867 406.28 41.7867 405.12C41.7867 404.5 42.2867 403.34 43.1867 402.54C44.7667 401.12 44.9867 400.7 45.6667 400.68C45.8267 400.68 46.0467 400.92 46.4267 400.92C46.7267 400.92 46.8467 400.76 46.8467 400.56Z" fill="#005573"/>
<path d="M165.36 272.56C165.36 272.18 165.02 271.9 164.68 271.9C164.28 271.9 163.84 272.16 163.66 272.24C163.22 272.44 157.5 275.74 154.1 275.74C153.46 275.74 152.9 275.62 152.46 275.34C151.68 274.84 151.36 274.12 151.36 273.3C151.36 270 156.62 265 159.18 264.46C159.62 264.36 160.24 264.24 160.24 263.76C160.24 263.28 159.96 263.1 159.58 263.1C159.16 263.1 158.68 263.3 158.52 263.36C155.18 264.7 150.24 269.5 150.24 273.24C150.24 274.34 150.68 275.36 151.7 276.16C152.26 276.6 153.02 276.78 153.88 276.78C157.6 276.78 163.32 273.4 164.2 273.28C164.2 273.28 165.36 273.16 165.36 272.56ZM172.745 273.68C172.745 271.66 172.505 269.52 171.425 269.14C171.245 269.08 171.065 269.06 170.885 269.06C168.805 269.06 166.105 272.58 166.105 272.58C166.185 270.76 166.325 269.1 166.485 267.44C166.625 265.88 166.925 264.84 166.925 264.22C166.925 263.76 166.745 263.5 166.225 263.5C165.525 263.5 165.705 265.22 165.345 268.52C164.805 273.46 165.045 275.9 164.825 276.36C164.705 276.62 164.565 276.92 164.565 277.2C164.565 277.62 164.885 277.86 165.245 277.86C165.605 277.86 166.005 277.64 166.005 276.9C166.005 276.66 165.965 276.44 165.965 276.22C165.965 275.68 166.045 274.74 166.485 273.8C167.045 272.6 169.545 270.16 170.745 270.16C170.865 270.16 170.985 270.18 171.065 270.24C171.505 270.52 171.645 272.28 171.645 273.78C171.645 274.86 171.565 275.54 171.565 276.1C171.565 276.62 171.705 277.04 172.185 277.04C172.645 277.04 172.725 276.86 172.725 276.58C172.725 276.38 172.685 276.1 172.685 275.78C172.685 275.2 172.745 274.36 172.745 273.68ZM177.745 275.3C177.745 275.3 176.405 276.42 175.425 276.42C174.925 276.42 174.745 276.14 174.745 275.7C174.745 274.7 175.585 273.62 176.585 273.62C177.245 273.62 177.745 275.3 177.745 275.3ZM179.745 272.66C179.745 271.1 179.345 269.5 177.965 268.64C177.645 268.44 177.265 268.36 176.845 268.36C175.685 268.36 174.385 269.04 174.385 269.72C174.405 270.08 174.745 270.22 174.965 270.22C175.065 270.22 175.125 270.2 175.125 270.12C175.165 269.84 175.945 269.3 176.745 269.3C178.325 269.3 178.745 271.54 178.745 272.7C178.745 273.78 178.425 274.52 178.425 274.52C178.125 273.6 177.625 272.62 176.525 272.62C174.985 272.62 173.805 274.44 173.805 275.78C173.805 276.74 174.385 277.36 175.385 277.36C176.625 277.36 178.045 276.36 178.045 276.36C178.045 276.36 178.105 276.7 178.225 276.82C178.325 276.94 178.505 276.98 178.645 276.98C178.745 276.98 178.845 276.96 178.885 276.9C178.985 276.84 179.745 274.78 179.745 272.66ZM187.607 277.5C187.607 277.18 187.407 276.8 187.267 276.52C187.227 276.38 187.207 276.02 187.207 275.22V272.92C187.207 270.32 187.107 268.46 186.167 268.26H186.087C184.847 268.26 182.727 272.86 182.727 272.86C182.707 272.7 182.707 272.58 182.707 272.48C182.707 272.22 182.747 271.98 182.747 271.4C182.747 270.24 182.947 269.48 182.947 269.04C182.947 268.88 182.927 268.78 182.867 268.7C182.747 268.54 182.487 268.38 182.227 268.38C182.027 268.38 181.847 268.5 181.787 268.84C181.747 269.12 181.567 270.56 181.527 272.44C181.487 274.6 181.367 275.76 181.367 276.4C181.367 276.72 181.407 276.92 181.487 277.06C181.627 277.24 181.787 277.3 181.927 277.3C182.067 277.3 182.207 277.24 182.307 277.2C182.547 277.02 182.527 276.5 183.127 274.88C184.027 272.44 185.507 269.68 185.867 269.68C186.107 269.68 186.127 271.3 186.127 271.54L186.107 273.48C186.107 275.28 186.307 276.22 186.307 276.64C186.307 276.84 186.247 276.96 186.247 277.1C186.247 277.64 186.747 278 187.147 278C187.447 278 187.607 277.74 187.607 277.5ZM195.895 280.36C195.895 281.68 195.375 283.12 194.335 284.78C193.575 285.98 192.075 287.1 190.595 287.1C189.255 287.1 187.815 285.98 187.815 284.62C187.815 283.88 188.195 283.06 188.955 282.14C191.395 279.16 195.575 278.56 195.575 278.56C195.775 279.14 195.895 279.74 195.895 280.36ZM194.315 272.64C194.315 273.64 192.735 274.56 191.875 274.92C191.295 275.16 190.475 275.32 190.475 275.32C190.475 275.32 190.315 274.9 190.315 274.52C190.315 274.04 190.935 272.64 192.795 270.98C193.575 271.12 194.315 271.8 194.315 272.64ZM202.655 278.22C202.655 278.18 202.635 278.12 202.615 278.08C202.255 277.34 200.715 277.26 199.415 277.26C198.035 277.26 196.195 277.46 196.195 277.46C195.755 276.82 195.575 276.48 194.775 275.92C194.075 275.42 193.395 275.26 193.395 275.26C194.435 274.44 195.275 273.72 195.275 272.6C195.275 271.82 194.755 271.18 194.235 270.7C195.255 270.58 196.135 270.32 196.975 270.32C197.355 270.32 197.595 270.36 197.735 270.36C197.955 270.36 198.115 270.12 198.115 269.96C198.115 269.78 197.895 269.64 197.635 269.56C197.555 269.54 197.415 269.52 197.235 269.52C196.095 269.52 193.315 270 192.195 270C191.975 270 191.815 269.98 191.755 269.94C191.595 269.82 191.475 269.76 191.355 269.76C191.075 269.76 190.935 270.06 190.915 270.28C190.915 270.58 191.475 270.9 191.475 270.9C190.115 272.54 189.235 273.38 189.235 274.44C189.235 275.04 189.475 275.58 189.475 275.58C189.095 275.7 188.575 275.86 188.575 276.3C188.575 276.6 188.955 276.8 189.215 276.8C189.755 276.8 190.435 276.14 192.155 276.14C192.335 276.14 192.515 276.14 192.735 276.16C194.415 276.3 195.175 277.66 195.175 277.66C192.315 278.34 190.475 278.94 188.095 281.54C187.155 282.56 186.755 283.64 186.755 284.62C186.755 286.76 188.815 288.18 190.635 288.18C192.955 288.18 194.875 286.14 195.655 284.6C196.655 282.62 196.915 281.1 196.915 280.06C196.915 278.92 196.615 278.34 196.615 278.34C197.675 278.18 198.935 278.08 199.975 278.08C200.435 278.08 200.735 278.1 200.735 278.1C200.955 278.38 200.835 278.64 201.635 278.64C202.115 278.64 202.655 278.52 202.655 278.22ZM203.498 269.7C202.878 270.26 202.538 270.48 202.018 270.78C200.778 271.54 199.658 271.6 199.658 271.6C199.658 271.6 200.278 270.78 201.298 270.26C202.018 269.88 202.758 269.7 203.498 269.7ZM207.438 273.16C207.438 272.82 207.138 272.52 206.838 272.52C206.498 272.52 206.278 273.04 206.158 273.26C205.958 273.54 202.858 276.08 201.278 276.08C200.398 276.08 200.018 275.6 199.658 275.02C199.218 274.34 199.118 273.72 199.118 273.3C199.118 272.94 199.178 272.72 199.178 272.72C199.738 272.68 200.958 272.56 202.198 271.8C203.338 271.12 205.038 269.84 205.038 269.34C205.038 269.28 205.018 269.24 204.958 269.2C204.478 268.88 203.898 268.74 203.238 268.74C201.138 268.74 198.558 270.28 198.038 272.54C197.978 272.78 197.958 273.02 197.958 273.26C197.958 274.74 198.878 276.32 200.178 276.92C200.438 277.04 200.738 277.1 201.058 277.1C203.318 277.1 206.538 274.16 206.978 273.92C207.238 273.74 207.438 273.44 207.438 273.16ZM217.904 269.58C217.904 269.12 217.624 268.82 217.284 268.82C216.584 268.86 216.664 270 216.604 271.1C216.504 273.02 216.404 274.46 216.404 275.42C216.404 276.14 216.464 276.58 216.644 276.72C216.804 276.84 216.984 276.9 217.124 276.9C217.524 276.9 217.664 276.58 217.664 276.24C217.664 275.88 217.424 275.84 217.424 274.94V274.56C217.424 273.78 217.904 270.26 217.904 269.58ZM217.944 262.94C217.944 262.62 217.724 262.38 217.444 262.38C216.924 262.38 217.084 262.84 216.664 263.7C216.424 264.22 216.324 264.68 216.324 265.04C216.324 265.32 216.384 265.72 216.684 265.72C216.824 265.72 216.944 265.64 217.044 265.54C217.244 265.34 217.104 265 217.404 264.26C217.664 263.62 217.924 263.28 217.944 263.02V262.94ZM226.592 277.5C226.592 277.18 226.392 276.8 226.252 276.52C226.212 276.38 226.192 276.02 226.192 275.22V272.92C226.192 270.32 226.092 268.46 225.152 268.26H225.072C223.832 268.26 221.712 272.86 221.712 272.86C221.692 272.7 221.692 272.58 221.692 272.48C221.692 272.22 221.732 271.98 221.732 271.4C221.732 270.24 221.932 269.48 221.932 269.04C221.932 268.88 221.912 268.78 221.852 268.7C221.732 268.54 221.472 268.38 221.212 268.38C221.012 268.38 220.832 268.5 220.772 268.84C220.732 269.12 220.552 270.56 220.512 272.44C220.472 274.6 220.352 275.76 220.352 276.4C220.352 276.72 220.392 276.92 220.472 277.06C220.612 277.24 220.772 277.3 220.912 277.3C221.052 277.3 221.192 277.24 221.292 277.2C221.532 277.02 221.512 276.5 222.112 274.88C223.012 272.44 224.492 269.68 224.852 269.68C225.092 269.68 225.112 271.3 225.112 271.54L225.092 273.48C225.092 275.28 225.292 276.22 225.292 276.64C225.292 276.84 225.232 276.96 225.232 277.1C225.232 277.64 225.732 278 226.132 278C226.432 278 226.592 277.74 226.592 277.5ZM247.668 263.1C247.668 262.74 247.348 262.46 247.028 262.46C246.428 262.46 246.028 263.4 246.028 263.78C246.028 263.9 245.707 265.36 245.108 266.74C243.788 269.74 240.968 275.18 240.968 275.18C240.408 273.84 240.188 273.1 239.508 271.52C238.228 268.52 237.368 263.94 236.188 263.94C235.768 263.94 235.408 264.44 235.408 264.8C235.408 265.38 236.108 265.94 236.348 266.5C238.628 271.72 240.088 276.9 240.308 277.04C240.428 277.12 240.588 277.14 240.768 277.14C241.048 277.14 241.348 277.06 241.468 276.92C241.608 276.78 244.188 271.14 245.728 267.92C246.948 265.42 246.828 264.36 247.308 263.92C247.468 263.78 247.668 263.42 247.668 263.1ZM251.232 269.7C250.612 270.26 250.272 270.48 249.752 270.78C248.512 271.54 247.392 271.6 247.392 271.6C247.392 271.6 248.012 270.78 249.032 270.26C249.752 269.88 250.492 269.7 251.232 269.7ZM255.172 273.16C255.172 272.82 254.872 272.52 254.572 272.52C254.232 272.52 254.012 273.04 253.892 273.26C253.692 273.54 250.592 276.08 249.012 276.08C248.132 276.08 247.752 275.6 247.392 275.02C246.952 274.34 246.852 273.72 246.852 273.3C246.852 272.94 246.912 272.72 246.912 272.72C247.472 272.68 248.692 272.56 249.932 271.8C251.072 271.12 252.772 269.84 252.772 269.34C252.772 269.28 252.752 269.24 252.692 269.2C252.212 268.88 251.632 268.74 250.972 268.74C248.872 268.74 246.292 270.28 245.772 272.54C245.712 272.78 245.692 273.02 245.692 273.26C245.692 274.74 246.612 276.32 247.912 276.92C248.172 277.04 248.472 277.1 248.792 277.1C251.052 277.1 254.272 274.16 254.712 273.92C254.972 273.74 255.172 273.44 255.172 273.16ZM258.759 263.28C258.759 263 258.699 262.86 258.599 262.74C258.399 262.52 258.239 262.44 258.099 262.44C257.919 262.44 257.799 262.56 257.659 262.68C257.399 262.9 257.339 264.62 257.099 267.22C256.859 269.66 256.439 273.96 256.439 276.34C256.439 277.24 256.519 277.88 256.679 277.98C256.859 278.12 257.019 278.16 257.159 278.16C257.559 278.16 257.639 277.58 257.639 277.14C257.639 276.46 257.579 275.74 257.579 275.1C257.579 273.5 257.679 271.58 257.919 269.7C258.419 265.5 258.759 263.98 258.759 263.28ZM263.187 270C264.287 270 264.767 271.28 264.767 272.16C264.767 272.86 264.527 273.56 264.187 274.22C263.807 274.94 262.547 276.04 261.627 276.04C260.707 276.04 260.327 274.74 260.327 274.02C260.327 273.74 260.367 273.46 260.447 273.24C261.467 270.22 263.027 270 263.187 270ZM265.767 272.4C265.767 272.18 265.747 271.98 265.727 271.74C265.507 269.56 263.827 268.86 263.027 268.86C261.867 268.86 260.707 269.92 259.587 272.46C259.347 273 259.247 273.52 259.247 274.04C259.247 275.36 259.987 277.08 261.407 277.08C263.087 277.08 265.767 275.26 265.767 272.4ZM277.151 273.26C277.151 273.04 276.971 272.82 276.731 272.82C276.671 272.82 276.611 272.84 276.551 272.86C276.331 272.94 271.551 276.08 269.031 276.08C268.171 276.08 267.491 275.6 267.491 274.76C267.491 273.02 270.091 270.36 270.551 270.22C270.591 270.2 270.651 270.2 270.711 270.2C270.951 270.2 271.171 270.3 271.371 270.3C271.751 270.3 272.171 269.7 272.171 269.34C272.171 269.06 271.971 268.86 271.491 268.86C271.391 268.86 271.271 268.86 271.151 268.88C269.411 269.14 266.391 272.62 266.391 274.94C266.391 276.34 267.711 277 268.891 277C272.151 277 277.131 273.52 277.151 273.34V273.26ZM278.217 269.58C278.217 269.12 277.937 268.82 277.597 268.82C276.897 268.86 276.977 270 276.917 271.1C276.817 273.02 276.717 274.46 276.717 275.42C276.717 276.14 276.777 276.58 276.957 276.72C277.117 276.84 277.297 276.9 277.437 276.9C277.837 276.9 277.977 276.58 277.977 276.24C277.977 275.88 277.737 275.84 277.737 274.94V274.56C277.737 273.78 278.217 270.26 278.217 269.58ZM278.257 262.94C278.257 262.62 278.037 262.38 277.757 262.38C277.237 262.38 277.397 262.84 276.977 263.7C276.737 264.22 276.637 264.68 276.637 265.04C276.637 265.32 276.697 265.72 276.997 265.72C277.137 265.72 277.257 265.64 277.357 265.54C277.557 265.34 277.417 265 277.717 264.26C277.977 263.62 278.237 263.28 278.257 263.02V262.94ZM294.144 271.02C294.144 270.26 293.984 269.46 293.664 269.34C293.584 269.3 293.504 269.3 293.444 269.3C293.024 269.3 292.944 269.92 292.684 270.24C291.064 272.14 289.424 274.1 288.924 274.1C288.884 274.1 288.864 274.1 288.844 274.08C288.784 274.04 288.764 273.9 288.764 273.7C288.764 272.56 289.564 269.3 289.564 268.82C289.544 268.1 288.184 267.98 287.804 267.96C287.624 267.96 287.444 267.94 287.264 267.94C285.844 267.94 284.544 268.2 284.544 268.2C284.724 266.9 284.844 266.58 284.964 265.38C285.004 264.96 285.024 264.6 285.024 264.3C285.024 263.24 284.784 262.86 284.404 262.86C284.024 262.86 283.944 263.22 283.944 263.64C283.944 263.92 283.984 264.2 283.984 264.42V264.54C283.784 266.74 283.504 268.38 283.504 268.38C282.304 268.7 282.044 268.8 280.904 269.24C279.804 269.66 279.764 269.82 279.664 270.12C279.644 270.16 279.644 270.2 279.644 270.24C279.644 270.52 279.924 270.74 280.264 270.82C280.624 270.82 281.304 270.2 281.644 270.04C282.364 269.7 283.344 269.48 283.344 269.48C283.244 270.34 283.164 270.74 283.024 272.16C282.804 274.2 282.804 275.44 282.804 276.34C282.804 276.66 282.904 277.4 283.504 277.44H283.584C283.964 277.44 284.064 277.22 284.064 276.96C284.064 276.72 283.964 276.44 283.964 276.36C283.944 276.06 283.944 275.72 283.944 275.38C283.944 272.72 284.364 269.5 284.384 269.26C285.104 269.1 286.484 268.82 287.724 268.82C288.104 268.82 288.364 268.88 288.364 268.88C288.304 269.2 288.264 269.6 288.204 270.08C287.964 271.72 287.664 273.42 287.664 274.54C287.664 275.32 287.804 275.84 288.244 275.84C289.444 275.86 292.924 271.46 292.924 271.46C292.864 274.46 292.724 275.92 292.444 278.66C292.044 282.68 291.804 284.98 291.664 285.02C291.584 285.04 291.424 285.36 291.424 285.66C291.424 285.98 291.604 286.3 292.224 286.3C292.744 286.3 292.944 286.06 292.944 285.76C292.944 285.44 292.744 285.06 292.664 284.96C292.644 284.94 292.644 284.9 292.644 284.82C292.644 284.4 292.884 283.12 293.164 280.68C293.544 277.36 293.964 272.78 294.104 271.66C294.124 271.46 294.144 271.24 294.144 271.02Z" fill="#005573"/>
<path d="M352.98 189.1C352.98 188.74 352.66 188.46 352.34 188.46C351.74 188.46 351.34 189.4 351.34 189.78C351.34 189.9 351.02 191.36 350.42 192.74C349.1 195.74 346.28 201.18 346.28 201.18C345.72 199.84 345.5 199.1 344.82 197.52C343.54 194.52 342.68 189.94 341.5 189.94C341.08 189.94 340.72 190.44 340.72 190.8C340.72 191.38 341.42 191.94 341.66 192.5C343.94 197.72 345.4 202.9 345.62 203.04C345.74 203.12 345.9 203.14 346.08 203.14C346.36 203.14 346.66 203.06 346.78 202.92C346.92 202.78 349.5 197.14 351.04 193.92C352.26 191.42 352.14 190.36 352.62 189.92C352.78 189.78 352.98 189.42 352.98 189.1ZM356.545 195.7C355.925 196.26 355.585 196.48 355.065 196.78C353.825 197.54 352.705 197.6 352.705 197.6C352.705 197.6 353.325 196.78 354.345 196.26C355.065 195.88 355.805 195.7 356.545 195.7ZM360.485 199.16C360.485 198.82 360.185 198.52 359.885 198.52C359.545 198.52 359.325 199.04 359.205 199.26C359.005 199.54 355.905 202.08 354.325 202.08C353.445 202.08 353.065 201.6 352.705 201.02C352.265 200.34 352.165 199.72 352.165 199.3C352.165 198.94 352.225 198.72 352.225 198.72C352.785 198.68 354.005 198.56 355.245 197.8C356.385 197.12 358.085 195.84 358.085 195.34C358.085 195.28 358.065 195.24 358.005 195.2C357.525 194.88 356.945 194.74 356.285 194.74C354.185 194.74 351.605 196.28 351.085 198.54C351.025 198.78 351.005 199.02 351.005 199.26C351.005 200.74 351.925 202.32 353.225 202.92C353.485 203.04 353.785 203.1 354.105 203.1C356.365 203.1 359.585 200.16 360.025 199.92C360.285 199.74 360.485 199.44 360.485 199.16ZM364.071 189.28C364.071 189 364.011 188.86 363.911 188.74C363.711 188.52 363.551 188.44 363.411 188.44C363.231 188.44 363.111 188.56 362.971 188.68C362.711 188.9 362.651 190.62 362.411 193.22C362.171 195.66 361.751 199.96 361.751 202.34C361.751 203.24 361.831 203.88 361.991 203.98C362.171 204.12 362.331 204.16 362.471 204.16C362.871 204.16 362.951 203.58 362.951 203.14C362.951 202.46 362.891 201.74 362.891 201.1C362.891 199.5 362.991 197.58 363.231 195.7C363.731 191.5 364.071 189.98 364.071 189.28ZM368.499 196C369.599 196 370.079 197.28 370.079 198.16C370.079 198.86 369.839 199.56 369.499 200.22C369.119 200.94 367.859 202.04 366.939 202.04C366.019 202.04 365.639 200.74 365.639 200.02C365.639 199.74 365.679 199.46 365.759 199.24C366.779 196.22 368.339 196 368.499 196ZM371.079 198.4C371.079 198.18 371.059 197.98 371.039 197.74C370.819 195.56 369.139 194.86 368.339 194.86C367.179 194.86 366.019 195.92 364.899 198.46C364.659 199 364.559 199.52 364.559 200.04C364.559 201.36 365.299 203.08 366.719 203.08C368.399 203.08 371.079 201.26 371.079 198.4ZM382.463 199.26C382.463 199.04 382.283 198.82 382.043 198.82C381.983 198.82 381.923 198.84 381.863 198.86C381.643 198.94 376.863 202.08 374.343 202.08C373.483 202.08 372.803 201.6 372.803 200.76C372.803 199.02 375.403 196.36 375.863 196.22C375.903 196.2 375.963 196.2 376.023 196.2C376.263 196.2 376.483 196.3 376.683 196.3C377.063 196.3 377.483 195.7 377.483 195.34C377.483 195.06 377.283 194.86 376.803 194.86C376.703 194.86 376.583 194.86 376.463 194.88C374.723 195.14 371.703 198.62 371.703 200.94C371.703 202.34 373.023 203 374.203 203C377.463 203 382.443 199.52 382.463 199.34V199.26ZM383.529 195.58C383.529 195.12 383.249 194.82 382.909 194.82C382.209 194.86 382.289 196 382.229 197.1C382.129 199.02 382.029 200.46 382.029 201.42C382.029 202.14 382.089 202.58 382.269 202.72C382.429 202.84 382.609 202.9 382.749 202.9C383.149 202.9 383.289 202.58 383.289 202.24C383.289 201.88 383.049 201.84 383.049 200.94V200.56C383.049 199.78 383.529 196.26 383.529 195.58ZM383.569 188.94C383.569 188.62 383.349 188.38 383.069 188.38C382.549 188.38 382.709 188.84 382.289 189.7C382.049 190.22 381.949 190.68 381.949 191.04C381.949 191.32 382.009 191.72 382.309 191.72C382.449 191.72 382.569 191.64 382.669 191.54C382.869 191.34 382.729 191 383.029 190.26C383.289 189.62 383.549 189.28 383.569 189.02V188.94ZM399.457 197.02C399.457 196.26 399.297 195.46 398.977 195.34C398.897 195.3 398.817 195.3 398.757 195.3C398.337 195.3 398.257 195.92 397.997 196.24C396.377 198.14 394.737 200.1 394.237 200.1C394.197 200.1 394.177 200.1 394.157 200.08C394.097 200.04 394.077 199.9 394.077 199.7C394.077 198.56 394.877 195.3 394.877 194.82C394.857 194.1 393.497 193.98 393.117 193.96C392.937 193.96 392.757 193.94 392.577 193.94C391.157 193.94 389.857 194.2 389.857 194.2C390.037 192.9 390.157 192.58 390.277 191.38C390.317 190.96 390.337 190.6 390.337 190.3C390.337 189.24 390.097 188.86 389.717 188.86C389.337 188.86 389.257 189.22 389.257 189.64C389.257 189.92 389.297 190.2 389.297 190.42V190.54C389.097 192.74 388.817 194.38 388.817 194.38C387.617 194.7 387.357 194.8 386.217 195.24C385.117 195.66 385.077 195.82 384.977 196.12C384.957 196.16 384.957 196.2 384.957 196.24C384.957 196.52 385.237 196.74 385.577 196.82C385.937 196.82 386.617 196.2 386.957 196.04C387.677 195.7 388.657 195.48 388.657 195.48C388.557 196.34 388.477 196.74 388.337 198.16C388.117 200.2 388.117 201.44 388.117 202.34C388.117 202.66 388.217 203.4 388.817 203.44H388.897C389.277 203.44 389.377 203.22 389.377 202.96C389.377 202.72 389.277 202.44 389.277 202.36C389.257 202.06 389.257 201.72 389.257 201.38C389.257 198.72 389.677 195.5 389.697 195.26C390.417 195.1 391.797 194.82 393.037 194.82C393.417 194.82 393.677 194.88 393.677 194.88C393.617 195.2 393.577 195.6 393.517 196.08C393.277 197.72 392.977 199.42 392.977 200.54C392.977 201.32 393.117 201.84 393.557 201.84C394.757 201.86 398.237 197.46 398.237 197.46C398.177 200.46 398.037 201.92 397.757 204.66C397.357 208.68 397.117 210.98 396.977 211.02C396.897 211.04 396.737 211.36 396.737 211.66C396.737 211.98 396.917 212.3 397.537 212.3C398.057 212.3 398.257 212.06 398.257 211.76C398.257 211.44 398.057 211.06 397.977 210.96C397.957 210.94 397.957 210.9 397.957 210.82C397.957 210.4 398.197 209.12 398.477 206.68C398.857 203.36 399.277 198.78 399.417 197.66C399.437 197.46 399.457 197.24 399.457 197.02Z" fill="#005573"/>
<path d="M342.36 102.56C342.36 102.18 342.02 101.9 341.68 101.9C341.28 101.9 340.84 102.16 340.66 102.24C340.22 102.44 334.5 105.74 331.1 105.74C330.46 105.74 329.9 105.62 329.46 105.34C328.68 104.84 328.36 104.12 328.36 103.3C328.36 100 333.62 95 336.18 94.46C336.62 94.36 337.24 94.24 337.24 93.76C337.24 93.28 336.96 93.1 336.58 93.1C336.16 93.1 335.68 93.3 335.52 93.36C332.18 94.7 327.24 99.5 327.24 103.24C327.24 104.34 327.68 105.36 328.7 106.16C329.26 106.6 330.02 106.78 330.88 106.78C334.6 106.78 340.32 103.4 341.2 103.28C341.2 103.28 342.36 103.16 342.36 102.56ZM349.745 103.68C349.745 101.66 349.505 99.52 348.425 99.14C348.245 99.08 348.065 99.06 347.885 99.06C345.805 99.06 343.105 102.58 343.105 102.58C343.185 100.76 343.325 99.1 343.485 97.44C343.625 95.88 343.925 94.84 343.925 94.22C343.925 93.76 343.745 93.5 343.225 93.5C342.525 93.5 342.705 95.22 342.345 98.52C341.805 103.46 342.045 105.9 341.825 106.36C341.705 106.62 341.565 106.92 341.565 107.2C341.565 107.62 341.885 107.86 342.245 107.86C342.605 107.86 343.005 107.64 343.005 106.9C343.005 106.66 342.965 106.44 342.965 106.22C342.965 105.68 343.045 104.74 343.485 103.8C344.045 102.6 346.545 100.16 347.745 100.16C347.865 100.16 347.985 100.18 348.065 100.24C348.505 100.52 348.645 102.28 348.645 103.78C348.645 104.86 348.565 105.54 348.565 106.1C348.565 106.62 348.705 107.04 349.185 107.04C349.645 107.04 349.725 106.86 349.725 106.58C349.725 106.38 349.685 106.1 349.685 105.78C349.685 105.2 349.745 104.36 349.745 103.68ZM354.745 105.3C354.745 105.3 353.405 106.42 352.425 106.42C351.925 106.42 351.745 106.14 351.745 105.7C351.745 104.7 352.585 103.62 353.585 103.62C354.245 103.62 354.745 105.3 354.745 105.3ZM356.745 102.66C356.745 101.1 356.345 99.5 354.965 98.64C354.645 98.44 354.265 98.36 353.845 98.36C352.685 98.36 351.385 99.04 351.385 99.72C351.405 100.08 351.745 100.22 351.965 100.22C352.065 100.22 352.125 100.2 352.125 100.12C352.165 99.84 352.945 99.3 353.745 99.3C355.325 99.3 355.745 101.54 355.745 102.7C355.745 103.78 355.425 104.52 355.425 104.52C355.125 103.6 354.625 102.62 353.525 102.62C351.985 102.62 350.805 104.44 350.805 105.78C350.805 106.74 351.385 107.36 352.385 107.36C353.625 107.36 355.045 106.36 355.045 106.36C355.045 106.36 355.105 106.7 355.225 106.82C355.325 106.94 355.505 106.98 355.645 106.98C355.745 106.98 355.845 106.96 355.885 106.9C355.985 106.84 356.745 104.78 356.745 102.66ZM364.607 107.5C364.607 107.18 364.407 106.8 364.267 106.52C364.227 106.38 364.207 106.02 364.207 105.22V102.92C364.207 100.32 364.107 98.46 363.167 98.26H363.087C361.847 98.26 359.727 102.86 359.727 102.86C359.707 102.7 359.707 102.58 359.707 102.48C359.707 102.22 359.747 101.98 359.747 101.4C359.747 100.24 359.947 99.48 359.947 99.04C359.947 98.88 359.927 98.78 359.867 98.7C359.747 98.54 359.487 98.38 359.227 98.38C359.027 98.38 358.847 98.5 358.787 98.84C358.747 99.12 358.567 100.56 358.527 102.44C358.487 104.6 358.367 105.76 358.367 106.4C358.367 106.72 358.407 106.92 358.487 107.06C358.627 107.24 358.787 107.3 358.927 107.3C359.067 107.3 359.207 107.24 359.307 107.2C359.547 107.02 359.527 106.5 360.127 104.88C361.027 102.44 362.507 99.68 362.867 99.68C363.107 99.68 363.127 101.3 363.127 101.54L363.107 103.48C363.107 105.28 363.307 106.22 363.307 106.64C363.307 106.84 363.247 106.96 363.247 107.1C363.247 107.64 363.747 108 364.147 108C364.447 108 364.607 107.74 364.607 107.5ZM372.895 110.36C372.895 111.68 372.375 113.12 371.335 114.78C370.575 115.98 369.075 117.1 367.595 117.1C366.255 117.1 364.815 115.98 364.815 114.62C364.815 113.88 365.195 113.06 365.955 112.14C368.395 109.16 372.575 108.56 372.575 108.56C372.775 109.14 372.895 109.74 372.895 110.36ZM371.315 102.64C371.315 103.64 369.735 104.56 368.875 104.92C368.295 105.16 367.475 105.32 367.475 105.32C367.475 105.32 367.315 104.9 367.315 104.52C367.315 104.04 367.935 102.64 369.795 100.98C370.575 101.12 371.315 101.8 371.315 102.64ZM379.655 108.22C379.655 108.18 379.635 108.12 379.615 108.08C379.255 107.34 377.715 107.26 376.415 107.26C375.035 107.26 373.195 107.46 373.195 107.46C372.755 106.82 372.575 106.48 371.775 105.92C371.075 105.42 370.395 105.26 370.395 105.26C371.435 104.44 372.275 103.72 372.275 102.6C372.275 101.82 371.755 101.18 371.235 100.7C372.255 100.58 373.135 100.32 373.975 100.32C374.355 100.32 374.595 100.36 374.735 100.36C374.955 100.36 375.115 100.12 375.115 99.96C375.115 99.78 374.895 99.64 374.635 99.56C374.555 99.54 374.415 99.52 374.235 99.52C373.095 99.52 370.315 100 369.195 100C368.975 100 368.815 99.98 368.755 99.94C368.595 99.82 368.475 99.76 368.355 99.76C368.075 99.76 367.935 100.06 367.915 100.28C367.915 100.58 368.475 100.9 368.475 100.9C367.115 102.54 366.235 103.38 366.235 104.44C366.235 105.04 366.475 105.58 366.475 105.58C366.095 105.7 365.575 105.86 365.575 106.3C365.575 106.6 365.955 106.8 366.215 106.8C366.755 106.8 367.435 106.14 369.155 106.14C369.335 106.14 369.515 106.14 369.735 106.16C371.415 106.3 372.175 107.66 372.175 107.66C369.315 108.34 367.475 108.94 365.095 111.54C364.155 112.56 363.755 113.64 363.755 114.62C363.755 116.76 365.815 118.18 367.635 118.18C369.955 118.18 371.875 116.14 372.655 114.6C373.655 112.62 373.915 111.1 373.915 110.06C373.915 108.92 373.615 108.34 373.615 108.34C374.675 108.18 375.935 108.08 376.975 108.08C377.435 108.08 377.735 108.1 377.735 108.1C377.955 108.38 377.835 108.64 378.635 108.64C379.115 108.64 379.655 108.52 379.655 108.22ZM380.498 99.7C379.878 100.26 379.538 100.48 379.018 100.78C377.778 101.54 376.658 101.6 376.658 101.6C376.658 101.6 377.278 100.78 378.298 100.26C379.018 99.88 379.758 99.7 380.498 99.7ZM384.438 103.16C384.438 102.82 384.138 102.52 383.838 102.52C383.498 102.52 383.278 103.04 383.158 103.26C382.958 103.54 379.858 106.08 378.278 106.08C377.398 106.08 377.018 105.6 376.658 105.02C376.218 104.34 376.118 103.72 376.118 103.3C376.118 102.94 376.178 102.72 376.178 102.72C376.738 102.68 377.958 102.56 379.198 101.8C380.338 101.12 382.038 99.84 382.038 99.34C382.038 99.28 382.018 99.24 381.958 99.2C381.478 98.88 380.898 98.74 380.238 98.74C378.138 98.74 375.558 100.28 375.038 102.54C374.978 102.78 374.958 103.02 374.958 103.26C374.958 104.74 375.878 106.32 377.178 106.92C377.438 107.04 377.738 107.1 378.058 107.1C380.318 107.1 383.538 104.16 383.978 103.92C384.238 103.74 384.438 103.44 384.438 103.16ZM394.904 99.58C394.904 99.12 394.624 98.82 394.284 98.82C393.584 98.86 393.664 100 393.604 101.1C393.504 103.02 393.404 104.46 393.404 105.42C393.404 106.14 393.464 106.58 393.644 106.72C393.804 106.84 393.984 106.9 394.124 106.9C394.524 106.9 394.664 106.58 394.664 106.24C394.664 105.88 394.424 105.84 394.424 104.94V104.56C394.424 103.78 394.904 100.26 394.904 99.58ZM394.944 92.94C394.944 92.62 394.724 92.38 394.444 92.38C393.924 92.38 394.084 92.84 393.664 93.7C393.424 94.22 393.324 94.68 393.324 95.04C393.324 95.32 393.384 95.72 393.684 95.72C393.824 95.72 393.944 95.64 394.044 95.54C394.244 95.34 394.104 95 394.404 94.26C394.664 93.62 394.924 93.28 394.944 93.02V92.94ZM403.592 107.5C403.592 107.18 403.392 106.8 403.252 106.52C403.212 106.38 403.192 106.02 403.192 105.22V102.92C403.192 100.32 403.092 98.46 402.152 98.26H402.072C400.832 98.26 398.712 102.86 398.712 102.86C398.692 102.7 398.692 102.58 398.692 102.48C398.692 102.22 398.732 101.98 398.732 101.4C398.732 100.24 398.932 99.48 398.932 99.04C398.932 98.88 398.912 98.78 398.852 98.7C398.732 98.54 398.472 98.38 398.212 98.38C398.012 98.38 397.832 98.5 397.772 98.84C397.732 99.12 397.552 100.56 397.512 102.44C397.472 104.6 397.352 105.76 397.352 106.4C397.352 106.72 397.392 106.92 397.472 107.06C397.612 107.24 397.772 107.3 397.912 107.3C398.052 107.3 398.192 107.24 398.292 107.2C398.532 107.02 398.512 106.5 399.112 104.88C400.012 102.44 401.492 99.68 401.852 99.68C402.092 99.68 402.112 101.3 402.112 101.54L402.092 103.48C402.092 105.28 402.292 106.22 402.292 106.64C402.292 106.84 402.232 106.96 402.232 107.1C402.232 107.64 402.732 108 403.132 108C403.432 108 403.592 107.74 403.592 107.5ZM422.968 93.96C422.948 95.9 414.408 99.22 414.408 99.22L414.548 96.68C414.588 95.88 414.708 94.2 414.708 94.2C415.368 94.16 416.048 94.1 416.588 93.98C417.008 93.88 419.528 93.54 421.288 93.54C422.247 93.54 422.968 93.64 422.968 93.96ZM424.408 93.74C424.408 93.52 424.328 93.3 424.188 93.1C423.888 92.7 422.808 92.56 421.488 92.56C418.988 92.56 415.628 93.04 415.048 93.04C414.528 92.98 414.568 92.68 414.068 92.68C413.668 92.68 413.308 93.16 413.308 93.56C413.308 93.62 413.328 93.7 413.348 93.76C413.428 93.98 413.468 94.48 413.468 95.06C413.468 95.64 413.428 96.32 413.408 96.84C413.348 97.9 413.148 100.3 413.148 100.3C413.028 100.46 413.028 100.6 413.028 100.7C413.028 100.82 413.148 101.08 413.148 101.08C413.007 103.5 413.048 104.7 412.948 105.84C412.928 106.04 412.908 106.24 412.908 106.42C412.908 106.82 413.108 107.12 413.488 107.12C413.808 107.12 414.188 106.9 414.188 106.22C414.188 106.08 414.168 105.9 414.128 105.7C414.088 105.52 414.068 105.18 414.068 104.74C414.068 103.18 414.268 100.5 414.268 100.5C416.688 99.48 424.408 96.06 424.408 93.74ZM423.741 100C424.841 100 425.321 101.28 425.321 102.16C425.321 102.86 425.081 103.56 424.741 104.22C424.361 104.94 423.101 106.04 422.181 106.04C421.261 106.04 420.881 104.74 420.881 104.02C420.881 103.74 420.921 103.46 421.001 103.24C422.021 100.22 423.581 100 423.741 100ZM426.321 102.4C426.321 102.18 426.301 101.98 426.281 101.74C426.061 99.56 424.381 98.86 423.581 98.86C422.421 98.86 421.261 99.92 420.141 102.46C419.901 103 419.801 103.52 419.801 104.04C419.801 105.36 420.541 107.08 421.961 107.08C423.641 107.08 426.321 105.26 426.321 102.4ZM433.226 97.56V97.48C433.206 97.24 432.506 96.88 432.246 96.76C432.126 96.7 431.966 96.66 431.786 96.66C431.526 96.66 431.206 96.74 430.966 96.94C429.646 98.04 427.126 99.92 427.126 102.12C427.126 105.12 431.726 104.92 432.006 105.9C432.006 106.62 429.106 107.6 428.986 107.8C428.906 107.9 428.866 108 428.866 108.1C428.866 108.38 429.166 108.62 429.586 108.64C429.886 108.64 433.166 106.92 433.166 106.1C433.166 104.86 432.026 104.66 430.806 104.18C429.486 103.68 428.166 103.28 428.166 102.12C428.166 101.5 428.666 100.34 429.566 99.54C431.146 98.12 431.366 97.7 432.046 97.68C432.206 97.68 432.426 97.92 432.806 97.92C433.106 97.92 433.226 97.76 433.226 97.56ZM436.682 99.58C436.682 99.12 436.402 98.82 436.062 98.82C435.362 98.86 435.442 100 435.382 101.1C435.282 103.02 435.182 104.46 435.182 105.42C435.182 106.14 435.242 106.58 435.422 106.72C435.582 106.84 435.762 106.9 435.902 106.9C436.302 106.9 436.442 106.58 436.442 106.24C436.442 105.88 436.202 105.84 436.202 104.94V104.56C436.202 103.78 436.682 100.26 436.682 99.58ZM436.722 92.94C436.722 92.62 436.502 92.38 436.222 92.38C435.702 92.38 435.862 92.84 435.442 93.7C435.202 94.22 435.102 94.68 435.102 95.04C435.102 95.32 435.162 95.72 435.462 95.72C435.602 95.72 435.722 95.64 435.822 95.54C436.022 95.34 435.882 95 436.182 94.26C436.442 93.62 436.702 93.28 436.722 93.02V92.94ZM448.529 92.94C448.529 92.62 448.309 92.38 448.029 92.38C447.509 92.38 447.669 92.84 447.249 93.7C447.009 94.22 446.909 94.68 446.909 95.04C446.909 95.32 446.969 95.72 447.269 95.72C447.409 95.72 447.529 95.62 447.629 95.52C447.829 95.32 447.689 95 447.989 94.26C448.249 93.62 448.509 93.28 448.529 93.02V92.94ZM447.229 98.88C446.789 99.14 446.849 100.14 446.789 101.1C446.689 103.02 446.589 104.46 446.589 105.42C446.589 106.14 446.649 106.58 446.829 106.72C446.989 106.84 447.169 106.9 447.309 106.9C447.709 106.9 447.849 106.58 447.849 106.24C447.849 105.88 447.609 105.84 447.609 104.94V104.56C447.609 103.78 448.089 100.26 448.089 99.58C448.089 99.16 447.849 98.86 447.549 98.82C447.649 98.78 447.709 98.68 447.709 98.52C447.669 98.02 447.029 98.02 446.529 97.98C446.349 97.96 445.809 97.94 445.629 97.94C444.209 97.94 443.009 98.2 443.009 98.2C443.189 96.9 443.309 96.58 443.429 95.38C443.469 94.96 443.489 94.6 443.489 94.3C443.489 93.24 443.249 92.86 442.869 92.86C442.489 92.86 442.409 93.22 442.409 93.64C442.409 93.92 442.449 94.2 442.449 94.42V94.54C442.249 96.74 441.969 98.38 441.969 98.38C440.769 98.7 440.509 98.8 439.369 99.24C438.269 99.66 438.229 99.82 438.129 100.12C438.109 100.16 438.109 100.2 438.109 100.24C438.109 100.52 438.389 100.74 438.729 100.82C439.089 100.82 439.769 100.2 440.109 100.04C440.829 99.7 441.809 99.48 441.809 99.48C441.709 100.34 441.629 100.74 441.489 102.16C441.269 104.2 441.269 105.44 441.269 106.34C441.269 106.66 441.369 107.4 441.969 107.44H442.049C442.429 107.44 442.529 107.22 442.529 106.96C442.529 106.72 442.429 106.44 442.429 106.36C442.409 106.06 442.409 105.72 442.409 105.38C442.409 102.72 442.829 99.5 442.849 99.26C443.569 99.1 444.949 98.82 446.549 98.82C446.709 98.82 446.989 98.88 447.229 98.88ZM453.39 100C454.49 100 454.97 101.28 454.97 102.16C454.97 102.86 454.73 103.56 454.39 104.22C454.01 104.94 452.75 106.04 451.83 106.04C450.91 106.04 450.53 104.74 450.53 104.02C450.53 103.74 450.57 103.46 450.65 103.24C451.67 100.22 453.23 100 453.39 100ZM455.97 102.4C455.97 102.18 455.95 101.98 455.93 101.74C455.71 99.56 454.03 98.86 453.23 98.86C452.07 98.86 450.91 99.92 449.79 102.46C449.55 103 449.45 103.52 449.45 104.04C449.45 105.36 450.19 107.08 451.61 107.08C453.29 107.08 455.97 105.26 455.97 102.4ZM463.494 107.5C463.494 107.18 463.294 106.8 463.154 106.52C463.114 106.38 463.094 106.02 463.094 105.22V102.92C463.094 100.32 462.994 98.46 462.054 98.26H461.974C460.734 98.26 458.614 102.86 458.614 102.86C458.594 102.7 458.594 102.58 458.594 102.48C458.594 102.22 458.634 101.98 458.634 101.4C458.634 100.24 458.834 99.48 458.834 99.04C458.834 98.88 458.814 98.78 458.754 98.7C458.634 98.54 458.374 98.38 458.114 98.38C457.914 98.38 457.734 98.5 457.674 98.84C457.634 99.12 457.454 100.56 457.414 102.44C457.374 104.6 457.254 105.76 457.254 106.4C457.254 106.72 457.294 106.92 457.374 107.06C457.514 107.24 457.674 107.3 457.814 107.3C457.954 107.3 458.094 107.24 458.194 107.2C458.434 107.02 458.414 106.5 459.014 104.88C459.914 102.44 461.394 99.68 461.754 99.68C461.994 99.68 462.014 101.3 462.014 101.54L461.994 103.48C461.994 105.28 462.194 106.22 462.194 106.64C462.194 106.84 462.134 106.96 462.134 107.1C462.134 107.64 462.634 108 463.034 108C463.334 108 463.494 107.74 463.494 107.5Z" fill="#005573"/>
<path d="M594.28 20.96C594.26 22.9 585.72 26.22 585.72 26.22L585.86 23.68C585.9 22.88 586.02 21.2 586.02 21.2C586.68 21.16 587.36 21.1 587.9 20.98C588.32 20.88 590.84 20.54 592.6 20.54C593.56 20.54 594.28 20.64 594.28 20.96ZM595.72 20.74C595.72 20.52 595.64 20.3 595.5 20.1C595.2 19.7 594.12 19.56 592.8 19.56C590.3 19.56 586.94 20.04 586.36 20.04C585.84 19.98 585.88 19.68 585.38 19.68C584.98 19.68 584.62 20.16 584.62 20.56C584.62 20.62 584.64 20.7 584.66 20.76C584.74 20.98 584.78 21.48 584.78 22.06C584.78 22.64 584.74 23.32 584.72 23.84C584.66 24.9 584.46 27.3 584.46 27.3C584.34 27.46 584.34 27.6 584.34 27.7C584.34 27.82 584.46 28.08 584.46 28.08C584.32 30.5 584.36 31.7 584.26 32.84C584.24 33.04 584.22 33.24 584.22 33.42C584.22 33.82 584.42 34.12 584.8 34.12C585.12 34.12 585.5 33.9 585.5 33.22C585.5 33.08 585.48 32.9 585.44 32.7C585.4 32.52 585.38 32.18 585.38 31.74C585.38 30.18 585.58 27.5 585.58 27.5C588 26.48 595.72 23.06 595.72 20.74ZM595.054 27C596.154 27 596.634 28.28 596.634 29.16C596.634 29.86 596.394 30.56 596.054 31.22C595.674 31.94 594.414 33.04 593.494 33.04C592.574 33.04 592.194 31.74 592.194 31.02C592.194 30.74 592.234 30.46 592.314 30.24C593.334 27.22 594.894 27 595.054 27ZM597.634 29.4C597.634 29.18 597.614 28.98 597.594 28.74C597.374 26.56 595.694 25.86 594.894 25.86C593.734 25.86 592.574 26.92 591.454 29.46C591.214 30 591.114 30.52 591.114 31.04C591.114 32.36 591.854 34.08 593.274 34.08C594.954 34.08 597.634 32.26 597.634 29.4ZM604.538 24.56V24.48C604.518 24.24 603.818 23.88 603.558 23.76C603.438 23.7 603.278 23.66 603.098 23.66C602.838 23.66 602.518 23.74 602.278 23.94C600.958 25.04 598.438 26.92 598.438 29.12C598.438 32.12 603.038 31.92 603.318 32.9C603.318 33.62 600.418 34.6 600.298 34.8C600.218 34.9 600.178 35 600.178 35.1C600.178 35.38 600.478 35.62 600.898 35.64C601.198 35.64 604.478 33.92 604.478 33.1C604.478 31.86 603.338 31.66 602.118 31.18C600.798 30.68 599.478 30.28 599.478 29.12C599.478 28.5 599.978 27.34 600.878 26.54C602.458 25.12 602.678 24.7 603.358 24.68C603.518 24.68 603.738 24.92 604.118 24.92C604.418 24.92 604.538 24.76 604.538 24.56ZM607.994 26.58C607.994 26.12 607.714 25.82 607.374 25.82C606.674 25.86 606.754 27 606.694 28.1C606.594 30.02 606.494 31.46 606.494 32.42C606.494 33.14 606.554 33.58 606.734 33.72C606.894 33.84 607.074 33.9 607.214 33.9C607.614 33.9 607.754 33.58 607.754 33.24C607.754 32.88 607.514 32.84 607.514 31.94V31.56C607.514 30.78 607.994 27.26 607.994 26.58ZM608.034 19.94C608.034 19.62 607.814 19.38 607.534 19.38C607.014 19.38 607.174 19.84 606.754 20.7C606.514 21.22 606.414 21.68 606.414 22.04C606.414 22.32 606.474 22.72 606.774 22.72C606.914 22.72 607.034 22.64 607.134 22.54C607.334 22.34 607.194 22 607.494 21.26C607.754 20.62 608.014 20.28 608.034 20.02V19.94ZM619.842 19.94C619.842 19.62 619.622 19.38 619.342 19.38C618.822 19.38 618.982 19.84 618.562 20.7C618.322 21.22 618.222 21.68 618.222 22.04C618.222 22.32 618.282 22.72 618.582 22.72C618.722 22.72 618.842 22.62 618.942 22.52C619.142 22.32 619.002 22 619.302 21.26C619.562 20.62 619.822 20.28 619.842 20.02V19.94ZM618.542 25.88C618.102 26.14 618.162 27.14 618.102 28.1C618.002 30.02 617.902 31.46 617.902 32.42C617.902 33.14 617.962 33.58 618.142 33.72C618.302 33.84 618.482 33.9 618.622 33.9C619.022 33.9 619.162 33.58 619.162 33.24C619.162 32.88 618.922 32.84 618.922 31.94V31.56C618.922 30.78 619.402 27.26 619.402 26.58C619.402 26.16 619.162 25.86 618.862 25.82C618.962 25.78 619.022 25.68 619.022 25.52C618.982 25.02 618.342 25.02 617.842 24.98C617.662 24.96 617.122 24.94 616.942 24.94C615.522 24.94 614.322 25.2 614.322 25.2C614.502 23.9 614.622 23.58 614.742 22.38C614.782 21.96 614.802 21.6 614.802 21.3C614.802 20.24 614.562 19.86 614.182 19.86C613.802 19.86 613.722 20.22 613.722 20.64C613.722 20.92 613.762 21.2 613.762 21.42V21.54C613.562 23.74 613.282 25.38 613.282 25.38C612.082 25.7 611.822 25.8 610.682 26.24C609.582 26.66 609.542 26.82 609.442 27.12C609.422 27.16 609.422 27.2 609.422 27.24C609.422 27.52 609.702 27.74 610.042 27.82C610.402 27.82 611.082 27.2 611.422 27.04C612.142 26.7 613.122 26.48 613.122 26.48C613.022 27.34 612.942 27.74 612.802 29.16C612.582 31.2 612.582 32.44 612.582 33.34C612.582 33.66 612.682 34.4 613.282 34.44H613.362C613.742 34.44 613.842 34.22 613.842 33.96C613.842 33.72 613.742 33.44 613.742 33.36C613.722 33.06 613.722 32.72 613.722 32.38C613.722 29.72 614.142 26.5 614.162 26.26C614.882 26.1 616.262 25.82 617.862 25.82C618.022 25.82 618.302 25.88 618.542 25.88ZM624.702 27C625.802 27 626.282 28.28 626.282 29.16C626.282 29.86 626.042 30.56 625.702 31.22C625.322 31.94 624.062 33.04 623.142 33.04C622.222 33.04 621.842 31.74 621.842 31.02C621.842 30.74 621.882 30.46 621.962 30.24C622.982 27.22 624.542 27 624.702 27ZM627.282 29.4C627.282 29.18 627.262 28.98 627.242 28.74C627.022 26.56 625.342 25.86 624.542 25.86C623.382 25.86 622.222 26.92 621.102 29.46C620.862 30 620.762 30.52 620.762 31.04C620.762 32.36 621.502 34.08 622.922 34.08C624.602 34.08 627.282 32.26 627.282 29.4ZM634.807 34.5C634.807 34.18 634.607 33.8 634.467 33.52C634.427 33.38 634.407 33.02 634.407 32.22V29.92C634.407 27.32 634.307 25.46 633.367 25.26H633.287C632.047 25.26 629.927 29.86 629.927 29.86C629.907 29.7 629.907 29.58 629.907 29.48C629.907 29.22 629.947 28.98 629.947 28.4C629.947 27.24 630.147 26.48 630.147 26.04C630.147 25.88 630.127 25.78 630.067 25.7C629.947 25.54 629.687 25.38 629.427 25.38C629.227 25.38 629.047 25.5 628.987 25.84C628.947 26.12 628.767 27.56 628.727 29.44C628.687 31.6 628.567 32.76 628.567 33.4C628.567 33.72 628.607 33.92 628.687 34.06C628.827 34.24 628.987 34.3 629.127 34.3C629.267 34.3 629.407 34.24 629.507 34.2C629.747 34.02 629.727 33.5 630.327 31.88C631.227 29.44 632.707 26.68 633.067 26.68C633.307 26.68 633.327 28.3 633.327 28.54L633.307 30.48C633.307 32.28 633.507 33.22 633.507 33.64C633.507 33.84 633.447 33.96 633.447 34.1C633.447 34.64 633.947 35 634.347 35C634.647 35 634.807 34.74 634.807 34.5Z" fill="#005573"/>
</svg>
