<svg width="69" height="261" viewBox="0 0 69 261" fill="none" xmlns="http://www.w3.org/2000/svg">
<path d="M1.00002 256.005L1 222.005C1 222.005 2.27383 215.45 33.2738 215.45C65.278 215.45 67.2738 223.45 67.2738 223.45V256.005C67.2738 256.005 47.2529 259.938 34.2738 259.951C21.1885 259.964 1.00002 256.005 1.00002 256.005Z" fill="#D7D79F"/>
<path d="M22.2738 23.4498L6.99324 1.00061L60.7738 1L45.7738 23.4498H22.2738Z" fill="#D7D79F"/>
<path d="M31.7738 203.45V215.45M1.27384 221.95C1.27384 221.95 16.7738 225.45 34.2738 225.45C49.7738 225.45 66.7738 222.949 66.7738 222.949M31.9327 37.4499C31.9327 37.4499 59.9327 36.4496 59.9327 45.4496C59.9327 56.8663 32.7006 43.3606 31.9327 54.7508C31.1471 66.4026 60.719 53.5991 59.9327 65.2509C59.164 76.6409 33.1914 62.3025 31.9327 73.6488C30.6227 85.4576 61.2419 73.7399 59.9327 85.5488C58.6747 96.8954 33.8887 82.7014 31.9327 93.9487C29.838 105.993 62.3049 95.9558 59.9327 107.949C57.7321 119.074 33.4422 104.409 31.9327 115.649C30.3512 127.424 59.6834 115.67 59.9327 127.549C60.1843 139.537 31.425 128.169 31.9327 140.149C32.4313 151.915 60.4487 139.583 59.9327 151.349C59.425 162.923 32.9298 149.607 31.9327 161.149C30.9006 173.095 61.5037 161.861 59.9327 173.749C58.4369 185.066 31.7738 172.95 31.9327 184.45C32.124 198.298 59.9327 187.95 59.9327 198.45C59.9327 208.95 39.2738 203.95 31.7738 204.45M33.2738 23.9496V38.4496M1 222.005L1.00002 256.005C1.00002 256.005 21.1885 259.964 34.2738 259.951C47.2529 259.938 67.2738 256.005 67.2738 256.005V223.45C67.2738 223.45 65.278 215.45 33.2738 215.45C2.27383 215.45 1 222.005 1 222.005ZM6.99324 1.00061L22.2738 23.4498H45.7738L60.7738 1L6.99324 1.00061Z" stroke="#AFAF3F" stroke-width="2"/>
</svg>
