<svg width="803" height="338" viewBox="0 0 803 338" fill="none" xmlns="http://www.w3.org/2000/svg">
<path d="M23.0908 93.1814C21.0544 94.0861 18.5908 96.7006 18.5908 96.7006C18.5908 96.7006 13.2659 94.0253 10.5908 95.695C7.80987 97.4308 8.09083 103.739 8.09083 103.739L5.59083 106.253C5.59083 106.253 2.27142 109.93 5.59085 112.286C8.91027 114.642 8.77141 112.946 12.0908 115.302C15.4103 117.658 16.3369 119.669 19.5907 120.33C23.4617 121.115 26.5102 121.306 29.5909 118.821C31.1141 117.593 30.9283 115.829 32.5908 114.799C33.9618 113.95 35.2324 114.663 36.5908 113.794C38.512 112.565 39.6697 111.055 39.5908 108.767C39.5042 106.254 36.6922 105.996 35.5908 103.739C34.3595 101.215 35.5961 99.0695 34.0908 96.7006C32.4286 94.0846 30.6686 92.4203 27.5908 92.1759C25.7962 92.0333 24.7374 92.4498 23.0908 93.1814Z" stroke="#005573" stroke-width="2"/>
<rect x="200.591" y="81.1099" width="72" height="55.3132" stroke="#005573" stroke-width="2"/>
<path d="M59.5908 215.852C59.5908 223.634 53.3176 229.934 45.5908 229.934C37.864 229.934 31.5908 223.634 31.5908 215.852C31.5908 208.069 37.864 201.769 45.5908 201.769C53.3176 201.769 59.5908 208.069 59.5908 215.852Z" stroke="#005573" stroke-width="2"/>
<path d="M62.0907 145.467L62.8579 146.109L62.0907 145.467ZM96.5908 113.291L85.2384 115.231L92.603 124.144L96.5908 113.291ZM45.5 199.5C46.4975 199.502 46.4975 199.502 46.4975 199.502C46.4975 199.502 46.4975 199.501 46.4975 199.501C46.4975 199.5 46.4975 199.499 46.4975 199.497C46.4975 199.494 46.4976 199.488 46.4976 199.481C46.4976 199.466 46.4978 199.443 46.498 199.411C46.4985 199.349 46.4995 199.255 46.5015 199.131C46.5054 198.883 46.5134 198.514 46.5294 198.035C46.5614 197.079 46.6255 195.686 46.754 193.951C47.0111 190.479 47.5255 185.641 48.554 180.184C50.616 169.242 54.7227 155.932 62.8579 146.109L61.3236 144.825C52.868 155.035 48.6793 168.741 46.5937 179.808C45.5483 185.355 45.0258 190.269 44.7644 193.798C44.6337 195.564 44.5682 196.984 44.5354 197.965C44.519 198.455 44.5108 198.836 44.5066 199.096C44.5046 199.225 44.5035 199.325 44.503 199.392C44.5027 199.426 44.5026 199.452 44.5025 199.47C44.5025 199.479 44.5025 199.485 44.5025 199.49C44.5025 199.493 44.5025 199.494 44.5025 199.496C44.5025 199.496 44.5025 199.497 44.5025 199.497C44.5025 199.498 44.5025 199.498 45.5 199.5ZM62.8579 146.109C69.8261 137.695 82.4506 126.52 90.3314 119.815L89.0407 118.284C81.1733 124.978 68.4188 136.258 61.3236 144.825L62.8579 146.109Z" fill="#B4003C"/>
<path d="M230.925 72.895C230.88 70.045 223.38 70.645 223.38 68.935C223.38 67.615 226.845 66.295 228.285 66.295C228.69 66.295 228.855 66.775 229.185 66.775C229.47 66.775 229.695 66.595 229.695 66.445C229.695 66.4 229.695 66.37 229.665 66.34C229.335 65.875 229.245 65.425 228.105 65.425C226.65 65.425 222.405 66.91 222.405 69.175C222.405 71.425 230.055 70.585 230.055 73.075C230.055 74.125 226.965 75.82 225.795 75.985C225.525 76.03 225.12 76.24 225.12 76.645C225.12 77.05 225.51 77.155 225.825 77.155C226.14 77.155 226.455 77.035 226.515 76.675C226.56 76.42 230.925 75.025 230.925 72.895ZM238.149 69.64C238.119 69.22 237.579 69.235 237.264 69.22C237.129 69.22 236.994 69.205 236.859 69.205C235.794 69.205 234.894 69.4 234.894 69.4C235.029 68.425 235.119 68.185 235.209 67.285C235.239 66.97 235.254 66.7 235.254 66.475C235.254 65.68 235.074 65.395 234.789 65.395C234.504 65.395 234.444 65.665 234.444 65.98C234.444 66.19 234.474 66.4 234.474 66.655C234.474 67.165 234.114 69.535 234.114 69.535C233.214 69.775 233.019 69.85 232.164 70.18C231.339 70.495 231.309 70.6 231.234 70.825C231.219 70.87 231.219 70.9 231.219 70.93C231.219 71.14 231.519 71.365 231.684 71.365C231.954 71.365 232.464 70.9 232.719 70.78C233.259 70.525 233.994 70.36 233.994 70.36C233.919 71.005 233.859 71.305 233.754 72.37C233.589 73.9 233.589 74.83 233.589 75.505C233.589 75.745 233.664 76.3 234.114 76.33H234.174C234.459 76.33 234.534 76.165 234.534 75.97C234.534 75.79 234.459 75.58 234.459 75.52C234.444 75.295 234.444 75.04 234.444 74.785C234.444 72.79 234.759 70.375 234.774 70.195C235.314 70.075 236.349 69.865 237.279 69.865C237.399 69.865 237.609 69.91 237.789 69.91C237.984 69.91 238.149 69.865 238.149 69.64ZM239.612 70.75C240.437 70.75 240.797 71.71 240.797 72.37C240.797 72.895 240.617 73.42 240.362 73.915C240.077 74.455 239.132 75.28 238.442 75.28C237.752 75.28 237.467 74.305 237.467 73.765C237.467 73.555 237.497 73.345 237.557 73.18C238.322 70.915 239.492 70.75 239.612 70.75ZM241.547 72.55C241.547 72.385 241.532 72.235 241.517 72.055C241.352 70.42 240.092 69.895 239.492 69.895C238.622 69.895 237.752 70.69 236.912 72.595C236.732 73 236.657 73.39 236.657 73.78C236.657 74.77 237.212 76.06 238.277 76.06C239.537 76.06 241.547 74.695 241.547 72.55ZM250.122 73.195C250.122 73.03 249.987 72.865 249.807 72.865C249.762 72.865 249.717 72.88 249.672 72.895C249.507 72.955 245.922 75.31 244.032 75.31C243.387 75.31 242.877 74.95 242.877 74.32C242.877 73.015 244.827 71.02 245.172 70.915C245.202 70.9 245.247 70.9 245.292 70.9C245.472 70.9 245.637 70.975 245.787 70.975C246.072 70.975 246.387 70.525 246.387 70.255C246.387 70.045 246.237 69.895 245.877 69.895C245.802 69.895 245.712 69.895 245.622 69.91C244.317 70.105 242.052 72.715 242.052 74.455C242.052 75.505 243.042 76 243.927 76C246.372 76 250.107 73.39 250.122 73.255V73.195ZM258.633 74.905C258.603 74.575 258.393 74.455 258.183 74.455C258.018 74.455 257.838 74.545 257.763 74.665C257.688 74.8 257.208 75.22 256.263 75.22C255.753 75.22 255.093 75.1 254.298 74.74C251.793 73.615 250.638 72.28 250.638 72.28C254.133 70.825 256.203 70.705 256.488 70.525C256.623 70.435 256.683 70.3 256.683 70.18C256.683 70.015 256.563 69.865 256.413 69.865C255.063 70 250.608 71.395 250.608 71.395C250.698 70.705 250.803 70.21 250.953 69.37C251.298 67.465 251.643 67.27 251.643 66.94C251.643 66.895 251.643 66.85 251.628 66.805C251.553 66.505 251.388 66.355 251.178 66.355C251.103 66.355 251.013 66.385 250.938 66.415C250.698 66.52 249.648 70.495 249.513 74.845C249.498 75.1 249.498 75.34 249.498 75.565C249.498 76.57 249.603 77.11 249.918 77.11C250.368 77.11 250.488 76.96 250.488 76.72C250.488 76.42 250.308 75.985 250.293 75.52V75.235C250.293 73.945 250.458 73.195 250.458 73.195C252.543 74.98 254.523 75.94 256.083 75.94H256.173C257.268 75.91 257.703 75.58 257.988 75.475C258.303 75.355 258.633 75.19 258.633 74.905Z" fill="#005573"/>
<path d="M112.53 131.185C112.53 130.945 112.335 130.795 112.095 130.795C111.6 130.795 110.52 131.095 109.845 131.275C109.08 131.485 105.03 132.955 105.03 132.955C105 132.7 104.82 132.415 104.535 132.415C104.115 132.415 104.07 132.97 104.07 133.24C104.07 133.285 104.07 133.315 104.07 133.315C103.335 133.63 102 133.855 101.865 134.035C101.805 134.125 101.775 134.23 101.775 134.35C101.775 134.545 101.895 134.74 102.165 134.8C102.465 134.8 104.055 134.2 104.055 134.2L103.935 135.745C103.89 136.27 103.785 137.365 103.785 137.365C103.47 137.65 103.365 137.695 103.365 137.995C103.365 138.295 103.695 138.445 103.695 138.445C103.695 139.405 103.575 140.89 103.575 141.625C103.575 141.865 103.59 142.03 103.62 142.06C103.71 142.15 103.845 142.195 103.98 142.195C104.235 142.195 104.475 142.015 104.475 141.775C104.475 141.61 104.4 141.415 104.37 141.205C104.355 141.07 104.355 140.89 104.355 140.695C104.355 139.675 104.52 138.115 104.52 138.115C105.915 137.17 107.445 136.6 108.285 136.39C109.14 136.18 109.485 136.24 109.815 136.12C110.07 136.03 110.22 135.79 110.22 135.61C110.22 135.37 109.995 135.34 109.83 135.34C109.32 135.34 108.315 135.565 107.46 135.805C106.215 136.15 104.64 136.96 104.64 136.96L104.805 135.85C104.955 134.875 105.06 133.795 105.06 133.795C107.745 132.58 109.2 132.19 110.31 131.83C111.285 131.515 111.855 131.695 112.215 131.56C112.425 131.485 112.53 131.335 112.53 131.185ZM113.089 131.71C113.089 131.5 113.044 131.395 112.969 131.305C112.819 131.14 112.699 131.08 112.594 131.08C112.459 131.08 112.369 131.17 112.264 131.26C112.069 131.425 112.024 132.715 111.844 134.665C111.664 136.495 111.349 139.72 111.349 141.505C111.349 142.18 111.409 142.66 111.529 142.735C111.664 142.84 111.784 142.87 111.889 142.87C112.189 142.87 112.249 142.435 112.249 142.105C112.249 141.595 112.204 141.055 112.204 140.575C112.204 139.375 112.279 137.935 112.459 136.525C112.834 133.375 113.089 132.235 113.089 131.71ZM116.447 136.75C117.272 136.75 117.632 137.71 117.632 138.37C117.632 138.895 117.452 139.42 117.197 139.915C116.912 140.455 115.967 141.28 115.277 141.28C114.587 141.28 114.302 140.305 114.302 139.765C114.302 139.555 114.332 139.345 114.392 139.18C115.157 136.915 116.327 136.75 116.447 136.75ZM118.382 138.55C118.382 138.385 118.367 138.235 118.352 138.055C118.187 136.42 116.927 135.895 116.327 135.895C115.457 135.895 114.587 136.69 113.747 138.595C113.567 139 113.492 139.39 113.492 139.78C113.492 140.77 114.047 142.06 115.112 142.06C116.372 142.06 118.382 140.695 118.382 138.55ZM129.783 136.045C129.783 135.76 129.483 135.58 129.243 135.58C128.868 135.58 128.733 136.105 128.673 136.3C128.643 136.48 125.148 140.89 125.148 140.89C124.743 139.6 124.608 139.075 124.443 138.34C124.248 137.485 124.053 136.285 123.918 136.18C123.813 136.105 123.663 136.075 123.513 136.075C123.303 136.075 123.093 136.135 123.018 136.255C122.898 136.465 122.343 137.05 121.773 137.725C120.978 138.64 120.333 140.095 120.333 140.095C120.273 139.66 120.258 139.36 120.258 139.09C120.258 138.82 120.273 138.58 120.273 138.295C120.273 138.07 120.273 137.815 120.243 137.485C120.198 136.87 120.303 136.66 120.003 136.42C119.928 136.36 119.808 136.315 119.688 136.315C119.403 136.315 119.283 136.555 119.283 136.78C119.283 137.095 119.388 137.725 119.433 138.91C119.523 140.95 119.373 142.12 119.958 142.12C120.678 142.12 121.128 140.395 121.488 139.66C122.013 138.58 123.363 137.125 123.363 137.125C123.513 137.68 123.633 138.31 123.753 138.82C123.993 139.855 124.563 141.85 124.653 142.015C124.713 142.12 124.908 142.165 125.073 142.165C125.163 142.165 125.238 142.15 125.283 142.135C125.463 142.09 126.438 140.71 126.948 140.005C128.223 138.235 129.288 136.855 129.408 136.735C129.618 136.54 129.783 136.285 129.783 136.045Z" fill="#005573"/>
<path d="M37.335 237.775C37.335 238.78 34.635 240.04 33.225 240.625C32.625 240.88 32.01 241 32.01 241C32.01 241 32.145 239.98 32.265 239.41C32.355 238.96 32.4 238.525 32.415 238.24C32.46 238.375 32.565 238.435 32.655 238.435C32.715 238.435 32.76 238.405 32.805 238.375C33.21 238.015 35.31 237.415 36.51 237.415C36.99 237.415 37.335 237.52 37.335 237.775ZM40.98 246.595C40.98 246.175 40.515 245.98 40.275 245.95C39.84 245.89 37.365 245.05 34.155 242.95C33.42 242.47 32.625 241.705 32.625 241.705C36.03 240.37 38.22 238.96 38.22 237.745V237.67C38.145 236.815 37.485 236.53 36.63 236.53C34.905 236.53 32.4 237.7 32.4 237.7C32.325 237.445 32.19 237.235 31.905 237.235C31.455 237.235 31.245 237.58 31.245 237.94C31.245 238.135 31.275 238.33 31.305 238.51V238.72C31.305 239.425 31.14 241.18 31.14 241.18L30.99 241.225L31.125 241.495C31.035 243.4 30.765 245.8 30.765 246.805C30.765 247.045 30.78 247.21 30.825 247.255C30.93 247.375 31.08 247.435 31.245 247.435C31.575 247.435 31.83 247.18 31.83 246.88C31.83 246.58 31.635 246.25 31.635 245.935C31.68 244.36 31.875 242.14 31.875 242.14C32.625 242.755 32.955 243.115 34.155 243.895C37.305 245.95 39.75 246.64 39.87 246.79C39.975 246.925 40.275 247.03 40.515 247.03C40.815 247.03 40.98 246.88 40.98 246.595ZM43.574 245.725C43.574 245.725 42.569 246.565 41.834 246.565C41.459 246.565 41.324 246.355 41.324 246.025C41.324 245.275 41.954 244.465 42.704 244.465C43.199 244.465 43.574 245.725 43.574 245.725ZM45.074 243.745C45.074 242.575 44.774 241.375 43.739 240.73C43.499 240.58 43.214 240.52 42.899 240.52C42.029 240.52 41.054 241.03 41.054 241.54C41.069 241.81 41.324 241.915 41.489 241.915C41.564 241.915 41.609 241.9 41.609 241.84C41.639 241.63 42.224 241.225 42.824 241.225C44.009 241.225 44.324 242.905 44.324 243.775C44.324 244.585 44.084 245.14 44.084 245.14C43.859 244.45 43.484 243.715 42.659 243.715C41.504 243.715 40.619 245.08 40.619 246.085C40.619 246.805 41.054 247.27 41.804 247.27C42.734 247.27 43.799 246.52 43.799 246.52C43.799 246.52 43.844 246.775 43.934 246.865C44.009 246.955 44.144 246.985 44.249 246.985C44.324 246.985 44.399 246.97 44.429 246.925C44.504 246.88 45.074 245.335 45.074 243.745ZM52.9561 240.64C52.9261 240.22 52.3861 240.235 52.0711 240.22C51.9361 240.22 51.8011 240.205 51.6661 240.205C50.6011 240.205 49.7011 240.4 49.7011 240.4C49.8361 239.425 49.9261 239.185 50.0161 238.285C50.0461 237.97 50.0611 237.7 50.0611 237.475C50.0611 236.68 49.8811 236.395 49.5961 236.395C49.3111 236.395 49.2511 236.665 49.2511 236.98C49.2511 237.19 49.2811 237.4 49.2811 237.655C49.2811 238.165 48.9211 240.535 48.9211 240.535C48.0211 240.775 47.8261 240.85 46.9711 241.18C46.1461 241.495 46.1161 241.6 46.0411 241.825C46.0261 241.87 46.0261 241.9 46.0261 241.93C46.0261 242.14 46.3261 242.365 46.4911 242.365C46.7611 242.365 47.2711 241.9 47.5261 241.78C48.0661 241.525 48.8011 241.36 48.8011 241.36C48.7261 242.005 48.6661 242.305 48.5611 243.37C48.3961 244.9 48.3961 245.83 48.3961 246.505C48.3961 246.745 48.4711 247.3 48.9211 247.33H48.9811C49.2661 247.33 49.3411 247.165 49.3411 246.97C49.3411 246.79 49.2661 246.58 49.2661 246.52C49.2511 246.295 49.2511 246.04 49.2511 245.785C49.2511 243.79 49.5661 241.375 49.5811 241.195C50.1211 241.075 51.1561 240.865 52.0861 240.865C52.2061 240.865 52.4161 240.91 52.5961 240.91C52.7911 240.91 52.9561 240.865 52.9561 240.64ZM56.1398 241.525C55.6748 241.945 55.4198 242.11 55.0298 242.335C54.0998 242.905 53.2598 242.95 53.2598 242.95C53.2598 242.95 53.7248 242.335 54.4898 241.945C55.0298 241.66 55.5848 241.525 56.1398 241.525ZM59.0948 244.12C59.0948 243.865 58.8698 243.64 58.6448 243.64C58.3898 243.64 58.2248 244.03 58.1348 244.195C57.9848 244.405 55.6598 246.31 54.4748 246.31C53.8148 246.31 53.5298 245.95 53.2598 245.515C52.9298 245.005 52.8548 244.54 52.8548 244.225C52.8548 243.955 52.8998 243.79 52.8998 243.79C53.3198 243.76 54.2348 243.67 55.1648 243.1C56.0198 242.59 57.2948 241.63 57.2948 241.255C57.2948 241.21 57.2798 241.18 57.2348 241.15C56.8748 240.91 56.4398 240.805 55.9448 240.805C54.3698 240.805 52.4348 241.96 52.0448 243.655C51.9998 243.835 51.9848 244.015 51.9848 244.195C51.9848 245.305 52.6748 246.49 53.6498 246.94C53.8448 247.03 54.0698 247.075 54.3098 247.075C56.0048 247.075 58.4198 244.87 58.7498 244.69C58.9448 244.555 59.0948 244.33 59.0948 244.12Z" fill="#005573"/>
<path d="M230.595 139.937C230.595 139.937 218.633 185.687 175.591 185.687C125.591 185.687 115.595 140.942 115.595 140.942" stroke="#B4003C" stroke-width="2"/>
<path d="M114.091 121.335L118.854 130.385H109.328L114.091 121.335Z" fill="#B4003C"/>
<path d="M125.091 103.739L180.591 103.236L180.591 92.1758L199.591 106.253L180.591 121.335L180.591 109.772L124.922 109.772" stroke="#005573" stroke-width="2"/>
<line x1="114.591" y1="86.1429" x2="114.591" y2="92.1758" stroke="#005573" stroke-width="2"/>
<rect x="97.5908" y="78.0934" width="26" height="7.04945" rx="1" stroke="#005573" stroke-width="2"/>
<path d="M124.591 106.253C124.591 114.035 118.318 120.335 110.591 120.335C102.864 120.335 96.5908 114.035 96.5908 106.253C96.5908 98.4701 102.864 92.1703 110.591 92.1703C118.318 92.1703 124.591 98.4701 124.591 106.253Z" stroke="#005573" stroke-width="2"/>
<path d="M35.5908 103.739H96.5908" stroke="#005573" stroke-width="2"/>
<path d="M39.5908 109.772H96.5908" stroke="#005573" stroke-width="2"/>
<path d="M107.091 86.1429V92.1758" stroke="#005573" stroke-width="2"/>
<rect x="361.591" y="1" width="440" height="336" stroke="#575457" stroke-width="2"/>
<path d="M433.85 44.5726L433.85 234.573L746.85 234.573" stroke="#575457" stroke-width="2"/>
<path d="M434.591 233C434.591 233 575.332 235.161 647.591 230C725.091 224.464 742.591 118.5 742.591 118.5" stroke="#005573" stroke-width="2"/>
<path d="M572.211 284.8C572.211 283.62 571.811 281.88 571.691 281.18C570.531 274.26 571.451 271.78 570.211 271.78H570.131C569.531 271.78 569.411 272.18 569.171 272.58C568.711 273.36 563.451 283.3 563.451 283.3C563.071 281.88 562.411 279.7 561.611 277.62C560.291 274.12 559.351 271.16 559.051 271.04C559.031 271.04 559.011 271.02 558.991 271.02C558.671 271.02 558.231 271.78 557.911 272.02C557.751 272.16 557.751 272.4 557.751 272.74V272.94C557.751 273.3 557.731 273.76 557.571 274.3C557.351 275 556.271 283.5 555.991 283.88C555.811 284.16 555.591 284.56 555.591 284.9C555.591 285.18 555.731 285.4 556.111 285.52C556.191 285.54 556.251 285.54 556.311 285.54C556.851 285.54 557.171 284.88 557.171 284.4C557.171 284.38 557.171 284.36 557.151 284.34C557.151 283.28 558.851 273.22 558.851 273.22C559.091 273.8 559.811 275.9 560.111 276.64C561.331 279.5 562.291 283.28 562.431 283.92C562.591 284.72 562.991 285.02 563.391 285.02C563.851 285.02 564.311 284.62 564.331 284.14C564.371 283.72 569.751 273.78 569.751 273.78C569.751 275.3 569.871 275.7 570.911 283.9C570.911 283.98 570.931 284.04 570.931 284.12C570.931 284.52 570.831 284.92 570.831 285.26C570.831 285.68 570.971 285.96 571.591 285.96H571.711C572.091 285.94 572.211 285.46 572.211 284.8ZM577.109 278C578.209 278 578.689 279.28 578.689 280.16C578.689 280.86 578.449 281.56 578.109 282.22C577.729 282.94 576.469 284.04 575.549 284.04C574.629 284.04 574.249 282.74 574.249 282.02C574.249 281.74 574.289 281.46 574.369 281.24C575.389 278.22 576.949 278 577.109 278ZM579.689 280.4C579.689 280.18 579.669 279.98 579.649 279.74C579.429 277.56 577.749 276.86 576.949 276.86C575.789 276.86 574.629 277.92 573.509 280.46C573.269 281 573.169 281.52 573.169 282.04C573.169 283.36 573.909 285.08 575.329 285.08C577.009 285.08 579.689 283.26 579.689 280.4ZM587.263 285.5C587.263 285.18 587.063 284.8 586.923 284.52C586.883 284.38 586.863 284.02 586.863 283.22V280.92C586.863 278.32 586.763 276.46 585.823 276.26H585.743C584.503 276.26 582.383 280.86 582.383 280.86C582.363 280.7 582.363 280.58 582.363 280.48C582.363 280.22 582.403 279.98 582.403 279.4C582.403 278.24 582.603 277.48 582.603 277.04C582.603 276.88 582.583 276.78 582.523 276.7C582.403 276.54 582.143 276.38 581.883 276.38C581.683 276.38 581.503 276.5 581.443 276.84C581.403 277.12 581.223 278.56 581.183 280.44C581.143 282.6 581.023 283.76 581.023 284.4C581.023 284.72 581.063 284.92 581.143 285.06C581.283 285.24 581.443 285.3 581.583 285.3C581.723 285.3 581.863 285.24 581.963 285.2C582.203 285.02 582.183 284.5 582.783 282.88C583.683 280.44 585.163 277.68 585.523 277.68C585.763 277.68 585.783 279.3 585.783 279.54L585.763 281.48C585.763 283.28 585.963 284.22 585.963 284.64C585.963 284.84 585.903 284.96 585.903 285.1C585.903 285.64 586.403 286 586.803 286C587.103 286 587.263 285.74 587.263 285.5ZM596.969 276.52C596.929 275.96 596.209 275.98 595.789 275.96C595.609 275.96 595.429 275.94 595.249 275.94C593.829 275.94 592.629 276.2 592.629 276.2C592.809 274.9 592.929 274.58 593.049 273.38C593.089 272.96 593.109 272.6 593.109 272.3C593.109 271.24 592.869 270.86 592.489 270.86C592.109 270.86 592.029 271.22 592.029 271.64C592.029 271.92 592.069 272.2 592.069 272.54C592.069 273.22 591.589 276.38 591.589 276.38C590.389 276.7 590.129 276.8 588.989 277.24C587.889 277.66 587.849 277.8 587.749 278.1C587.729 278.16 587.729 278.2 587.729 278.24C587.729 278.52 588.129 278.82 588.349 278.82C588.709 278.82 589.389 278.2 589.729 278.04C590.449 277.7 591.429 277.48 591.429 277.48C591.329 278.34 591.249 278.74 591.109 280.16C590.889 282.2 590.889 283.44 590.889 284.34C590.889 284.66 590.989 285.4 591.589 285.44H591.669C592.049 285.44 592.149 285.22 592.149 284.96C592.149 284.72 592.049 284.44 592.049 284.36C592.029 284.06 592.029 283.72 592.029 283.38C592.029 280.72 592.449 277.5 592.469 277.26C593.189 277.1 594.569 276.82 595.809 276.82C595.969 276.82 596.249 276.88 596.489 276.88C596.749 276.88 596.969 276.82 596.969 276.52ZM604.668 281.68C604.668 279.66 604.428 277.52 603.348 277.14C603.168 277.08 602.988 277.06 602.808 277.06C600.728 277.06 598.028 280.58 598.028 280.58C598.108 278.76 598.248 277.1 598.408 275.44C598.548 273.88 598.848 272.84 598.848 272.22C598.848 271.76 598.668 271.5 598.148 271.5C597.448 271.5 597.628 273.22 597.268 276.52C596.728 281.46 596.968 283.9 596.748 284.36C596.628 284.62 596.488 284.92 596.488 285.2C596.488 285.62 596.808 285.86 597.168 285.86C597.528 285.86 597.928 285.64 597.928 284.9C597.928 284.66 597.888 284.44 597.888 284.22C597.888 283.68 597.968 282.74 598.408 281.8C598.968 280.6 601.468 278.16 602.668 278.16C602.788 278.16 602.908 278.18 602.988 278.24C603.428 278.52 603.568 280.28 603.568 281.78C603.568 282.86 603.488 283.54 603.488 284.1C603.488 284.62 603.628 285.04 604.108 285.04C604.568 285.04 604.648 284.86 604.648 284.58C604.648 284.38 604.608 284.1 604.608 283.78C604.608 283.2 604.668 282.36 604.668 281.68ZM611.871 275.56V275.48C611.851 275.24 611.151 274.88 610.891 274.76C610.771 274.7 610.611 274.66 610.431 274.66C610.171 274.66 609.851 274.74 609.611 274.94C608.291 276.04 605.771 277.92 605.771 280.12C605.771 283.12 610.371 282.92 610.651 283.9C610.651 284.62 607.751 285.6 607.631 285.8C607.551 285.9 607.511 286 607.511 286.1C607.511 286.38 607.811 286.62 608.231 286.64C608.531 286.64 611.811 284.92 611.811 284.1C611.811 282.86 610.671 282.66 609.451 282.18C608.131 281.68 606.811 281.28 606.811 280.12C606.811 279.5 607.311 278.34 608.211 277.54C609.791 276.12 610.011 275.7 610.691 275.68C610.851 275.68 611.071 275.92 611.451 275.92C611.751 275.92 611.871 275.76 611.871 275.56Z" fill="black"/>
<path d="M406.271 61.635C406.271 61.53 406.241 61.425 406.211 61.35C406.121 61.14 405.896 61.08 405.686 61.08C405.536 61.08 405.416 61.11 405.326 61.125C405.131 61.155 403.271 61.5 402.521 61.725C401.936 61.89 400.661 62.325 400.661 62.325C401.531 61.095 401.666 61.05 402.971 59.22C404.171 57.525 404.861 56.295 404.861 55.335C404.861 54.045 403.586 53.43 402.491 53.43C401.831 53.43 401.126 53.595 400.586 53.865C399.821 54.24 399.116 55.02 399.116 55.47C399.116 55.725 399.371 55.83 399.566 55.83C399.836 55.83 399.866 55.515 400.076 55.245C400.526 54.675 401.501 54.21 402.431 54.21C403.136 54.21 404.066 54.555 404.066 55.35C404.066 56.235 403.166 57.69 401.696 59.67C400.241 61.62 399.311 62.64 399.251 62.85C399.236 62.91 399.221 62.955 399.221 63.015C399.221 63.24 399.386 63.525 399.611 63.525C399.896 63.525 400.511 63.27 401.786 62.775C402.701 62.415 404.741 61.995 405.191 61.995H405.266C405.401 62.025 405.551 62.16 405.761 62.16C406.061 62.16 406.271 61.92 406.271 61.635ZM415.041 56.7C415.041 57.855 414.261 59.115 413.166 60.03C412.071 60.93 410.316 62.19 408.996 62.19C408.636 62.19 408.291 62.1 408.021 61.875C407.631 61.56 407.481 61.095 407.481 60.555C407.481 59.115 408.546 57.285 408.546 57.285C408.801 57.51 409.056 57.66 409.311 57.66C409.566 57.66 409.881 57.48 409.881 57.42C409.881 57.375 409.656 57.405 409.221 57.09C409.086 56.985 409.011 56.85 409.011 56.7C409.011 56.355 409.311 55.92 409.731 55.53C410.271 55.02 411.546 54.465 412.701 54.465C414.006 54.465 415.041 55.41 415.041 56.7ZM415.896 56.73C415.896 55.395 415.056 54.45 414.336 54.045C413.901 53.805 413.361 53.715 412.836 53.715C411.786 53.715 410.796 54.03 410.796 54.03C410.601 53.985 410.496 53.895 410.331 53.895C410.196 53.895 410.031 53.97 409.746 54.195C409.086 54.72 408.501 55.545 407.796 56.865C407.256 57.855 406.641 59.265 406.641 60.54C406.641 61.35 406.896 62.085 407.586 62.625C407.931 62.895 408.366 63.015 408.876 63.015C410.436 63.015 412.551 61.8 414.171 60.165C415.446 58.875 415.896 57.705 415.896 56.73ZM425.877 61.905C425.847 61.575 425.637 61.455 425.427 61.455C425.262 61.455 425.082 61.545 425.007 61.665C424.932 61.8 424.452 62.22 423.507 62.22C422.997 62.22 422.337 62.1 421.542 61.74C419.037 60.615 417.882 59.28 417.882 59.28C421.377 57.825 423.447 57.705 423.732 57.525C423.867 57.435 423.927 57.3 423.927 57.18C423.927 57.015 423.807 56.865 423.657 56.865C422.307 57 417.852 58.395 417.852 58.395C417.942 57.705 418.047 57.21 418.197 56.37C418.542 54.465 418.887 54.27 418.887 53.94C418.887 53.895 418.887 53.85 418.872 53.805C418.797 53.505 418.632 53.355 418.422 53.355C418.347 53.355 418.257 53.385 418.182 53.415C417.942 53.52 416.892 57.495 416.757 61.845C416.742 62.1 416.742 62.34 416.742 62.565C416.742 63.57 416.847 64.11 417.162 64.11C417.612 64.11 417.732 63.96 417.732 63.72C417.732 63.42 417.552 62.985 417.537 62.52V62.235C417.537 60.945 417.702 60.195 417.702 60.195C419.787 61.98 421.767 62.94 423.327 62.94H423.417C424.512 62.91 424.947 62.58 425.232 62.475C425.547 62.355 425.877 62.19 425.877 61.905Z" fill="black"/>
<path d="M403.241 139.46C403.211 139.25 402.926 139.16 402.746 139.16H402.686C402.491 139.175 401.531 140.495 400.736 141.32C400.091 141.965 399.326 142.685 399.071 143.075C399.011 143.15 398.996 143.24 398.996 143.345C398.996 143.585 399.086 143.825 399.236 143.825C399.536 143.825 402.371 140.615 402.371 140.615C402.311 141.095 402.056 142.73 401.906 143.93C401.636 146.045 401.411 147.995 401.411 148.19C401.411 148.31 401.321 148.37 401.321 148.64C401.336 149.03 401.546 149.255 401.966 149.255C402.206 149.255 402.401 149.06 402.401 148.79C402.401 148.325 402.236 148.295 402.236 148.04C402.236 146.72 403.241 140.105 403.241 139.46ZM412.917 142.7C412.917 143.855 412.137 145.115 411.042 146.03C409.947 146.93 408.192 148.19 406.872 148.19C406.512 148.19 406.167 148.1 405.897 147.875C405.507 147.56 405.357 147.095 405.357 146.555C405.357 145.115 406.422 143.285 406.422 143.285C406.677 143.51 406.932 143.66 407.187 143.66C407.442 143.66 407.757 143.48 407.757 143.42C407.757 143.375 407.532 143.405 407.097 143.09C406.962 142.985 406.887 142.85 406.887 142.7C406.887 142.355 407.187 141.92 407.607 141.53C408.147 141.02 409.422 140.465 410.577 140.465C411.882 140.465 412.917 141.41 412.917 142.7ZM413.772 142.73C413.772 141.395 412.932 140.45 412.212 140.045C411.777 139.805 411.237 139.715 410.712 139.715C409.662 139.715 408.672 140.03 408.672 140.03C408.477 139.985 408.372 139.895 408.207 139.895C408.072 139.895 407.907 139.97 407.622 140.195C406.962 140.72 406.377 141.545 405.672 142.865C405.132 143.855 404.517 145.265 404.517 146.54C404.517 147.35 404.772 148.085 405.462 148.625C405.807 148.895 406.242 149.015 406.752 149.015C408.312 149.015 410.427 147.8 412.047 146.165C413.322 144.875 413.772 143.705 413.772 142.73ZM423.753 147.905C423.723 147.575 423.513 147.455 423.303 147.455C423.138 147.455 422.958 147.545 422.883 147.665C422.808 147.8 422.328 148.22 421.383 148.22C420.873 148.22 420.213 148.1 419.418 147.74C416.913 146.615 415.758 145.28 415.758 145.28C419.253 143.825 421.323 143.705 421.608 143.525C421.743 143.435 421.803 143.3 421.803 143.18C421.803 143.015 421.683 142.865 421.533 142.865C420.183 143 415.728 144.395 415.728 144.395C415.818 143.705 415.923 143.21 416.073 142.37C416.418 140.465 416.763 140.27 416.763 139.94C416.763 139.895 416.763 139.85 416.748 139.805C416.673 139.505 416.508 139.355 416.298 139.355C416.223 139.355 416.133 139.385 416.058 139.415C415.818 139.52 414.768 143.495 414.633 147.845C414.618 148.1 414.618 148.34 414.618 148.565C414.618 149.57 414.723 150.11 415.038 150.11C415.488 150.11 415.608 149.96 415.608 149.72C415.608 149.42 415.428 148.985 415.413 148.52V148.235C415.413 146.945 415.578 146.195 415.578 146.195C417.663 147.98 419.643 148.94 421.203 148.94H421.293C422.388 148.91 422.823 148.58 423.108 148.475C423.423 148.355 423.753 148.19 423.753 147.905Z" fill="black"/>
<path d="M423.991 227.7C423.991 228.855 423.211 230.115 422.116 231.03C421.021 231.93 419.266 233.19 417.946 233.19C417.586 233.19 417.241 233.1 416.971 232.875C416.581 232.56 416.431 232.095 416.431 231.555C416.431 230.115 417.496 228.285 417.496 228.285C417.751 228.51 418.006 228.66 418.261 228.66C418.516 228.66 418.831 228.48 418.831 228.42C418.831 228.375 418.606 228.405 418.171 228.09C418.036 227.985 417.961 227.85 417.961 227.7C417.961 227.355 418.261 226.92 418.681 226.53C419.221 226.02 420.496 225.465 421.651 225.465C422.956 225.465 423.991 226.41 423.991 227.7ZM424.846 227.73C424.846 226.395 424.006 225.45 423.286 225.045C422.851 224.805 422.311 224.715 421.786 224.715C420.736 224.715 419.746 225.03 419.746 225.03C419.551 224.985 419.446 224.895 419.281 224.895C419.146 224.895 418.981 224.97 418.696 225.195C418.036 225.72 417.451 226.545 416.746 227.865C416.206 228.855 415.591 230.265 415.591 231.54C415.591 232.35 415.846 233.085 416.536 233.625C416.881 233.895 417.316 234.015 417.826 234.015C419.386 234.015 421.501 232.8 423.121 231.165C424.396 229.875 424.846 228.705 424.846 227.73Z" fill="black"/>
<path d="M736.241 247.46C736.211 247.25 735.926 247.16 735.746 247.16H735.686C735.491 247.175 734.531 248.495 733.736 249.32C733.091 249.965 732.326 250.685 732.071 251.075C732.011 251.15 731.996 251.24 731.996 251.345C731.996 251.585 732.086 251.825 732.236 251.825C732.536 251.825 735.371 248.615 735.371 248.615C735.311 249.095 735.056 250.73 734.906 251.93C734.636 254.045 734.411 255.995 734.411 256.19C734.411 256.31 734.321 256.37 734.321 256.64C734.336 257.03 734.546 257.255 734.966 257.255C735.206 257.255 735.401 257.06 735.401 256.79C735.401 256.325 735.236 256.295 735.236 256.04C735.236 254.72 736.241 248.105 736.241 247.46ZM745.917 250.7C745.917 251.855 745.137 253.115 744.042 254.03C742.947 254.93 741.192 256.19 739.872 256.19C739.512 256.19 739.167 256.1 738.897 255.875C738.507 255.56 738.357 255.095 738.357 254.555C738.357 253.115 739.422 251.285 739.422 251.285C739.677 251.51 739.932 251.66 740.187 251.66C740.442 251.66 740.757 251.48 740.757 251.42C740.757 251.375 740.532 251.405 740.097 251.09C739.962 250.985 739.887 250.85 739.887 250.7C739.887 250.355 740.187 249.92 740.607 249.53C741.147 249.02 742.422 248.465 743.577 248.465C744.882 248.465 745.917 249.41 745.917 250.7ZM746.772 250.73C746.772 249.395 745.932 248.45 745.212 248.045C744.777 247.805 744.237 247.715 743.712 247.715C742.662 247.715 741.672 248.03 741.672 248.03C741.477 247.985 741.372 247.895 741.207 247.895C741.072 247.895 740.907 247.97 740.622 248.195C739.962 248.72 739.377 249.545 738.672 250.865C738.132 251.855 737.517 253.265 737.517 254.54C737.517 255.35 737.772 256.085 738.462 256.625C738.807 256.895 739.242 257.015 739.752 257.015C741.312 257.015 743.427 255.8 745.047 254.165C746.322 252.875 746.772 251.705 746.772 250.73ZM755.183 250.7C755.183 251.855 754.403 253.115 753.308 254.03C752.213 254.93 750.458 256.19 749.138 256.19C748.778 256.19 748.433 256.1 748.163 255.875C747.773 255.56 747.623 255.095 747.623 254.555C747.623 253.115 748.688 251.285 748.688 251.285C748.943 251.51 749.198 251.66 749.453 251.66C749.708 251.66 750.023 251.48 750.023 251.42C750.023 251.375 749.798 251.405 749.363 251.09C749.228 250.985 749.153 250.85 749.153 250.7C749.153 250.355 749.453 249.92 749.873 249.53C750.413 249.02 751.688 248.465 752.843 248.465C754.148 248.465 755.183 249.41 755.183 250.7ZM756.038 250.73C756.038 249.395 755.198 248.45 754.478 248.045C754.043 247.805 753.503 247.715 752.978 247.715C751.928 247.715 750.938 248.03 750.938 248.03C750.743 247.985 750.638 247.895 750.473 247.895C750.338 247.895 750.173 247.97 749.888 248.195C749.228 248.72 748.643 249.545 747.938 250.865C747.398 251.855 746.783 253.265 746.783 254.54C746.783 255.35 747.038 256.085 747.728 256.625C748.073 256.895 748.508 257.015 749.018 257.015C750.578 257.015 752.693 255.8 754.313 254.165C755.588 252.875 756.038 251.705 756.038 250.73Z" fill="black"/>
<path d="M664.496 247.94C664.496 247.82 664.451 247.745 664.451 247.745C664.346 247.625 663.746 247.58 662.906 247.58C662.036 247.58 660.926 247.625 659.846 247.685C658.091 247.775 656.846 247.91 656.576 248.06C656.516 248.105 656.486 248.18 656.486 248.285C656.486 248.615 656.696 248.81 656.996 248.81C657.356 248.81 658.061 248.66 659.591 248.525C661.301 248.375 662.621 248.36 662.621 248.36C662.291 248.72 662.036 249.08 661.421 250.085C660.941 250.895 660.716 251.405 660.716 251.405C659.666 251.495 659.411 251.48 659.111 251.645C658.976 251.72 658.916 251.825 658.916 251.93C658.916 252.17 659.171 252.29 659.366 252.29C659.726 252.29 660.386 252.14 660.386 252.14C660.116 252.935 660.056 252.92 659.651 254.69C659.201 256.67 659.171 257.315 659.171 257.465C659.171 257.66 659.351 258.005 659.621 258.005H659.696C659.996 258.005 660.086 257.84 660.086 257.615C660.086 257.45 660.041 257.225 660.041 257.06C660.041 256.745 660.116 256.13 660.446 254.87C660.941 253.055 661.331 252.11 661.331 252.11C661.916 252.035 662.006 252.035 662.621 252.005C662.846 251.99 662.996 251.99 663.701 251.99C663.956 251.99 664.076 251.87 664.076 251.72C664.076 251.6 664.001 251.45 663.836 251.33C663.806 251.3 663.626 251.285 663.386 251.285C662.726 251.285 661.616 251.375 661.616 251.375C662.051 250.475 661.916 250.805 662.396 250.04C663.536 248.21 664.001 248.63 664.256 248.405C664.466 248.225 664.496 248.075 664.496 247.94ZM671.749 252.89C671.749 250.43 668.239 250.205 666.949 250.205C666.649 250.205 666.469 250.22 666.469 250.22C666.829 249.74 667.399 249.155 667.399 248.96C667.399 248.615 667.069 248.375 666.874 248.375C666.619 248.375 665.239 250.25 665.164 250.475C665.149 250.505 665.149 250.55 665.149 250.58C665.149 250.805 665.374 251.09 665.659 251.09C666.064 251.045 666.574 251.015 667.129 251.015C668.779 251.015 670.894 251.345 670.894 252.845C670.894 254.405 669.139 256.31 667.609 256.31C667.354 256.31 667.114 256.25 666.889 256.145C666.604 255.995 666.769 255.38 666.289 255.38C666.034 255.38 665.764 255.515 665.764 255.77C665.764 255.98 665.914 256.22 665.989 256.34C666.334 256.82 666.889 257.045 667.534 257.045C669.679 257.045 671.749 254.9 671.749 252.89ZM674.944 248.165C674.944 248.12 674.944 248.09 674.929 248.045C674.899 247.67 674.539 247.58 674.209 247.58C674.014 247.58 673.834 247.61 673.729 247.625C673.444 247.685 671.584 247.625 669.844 247.895C669.364 247.97 668.899 247.97 668.509 247.97H668.179C667.744 247.97 667.459 247.985 667.384 248.12C667.369 248.165 667.354 248.21 667.354 248.255C667.354 248.45 667.534 248.6 667.699 248.675C667.819 248.72 668.104 248.735 668.449 248.735C669.004 248.735 669.709 248.69 670.219 248.6C671.659 248.345 673.594 248.345 673.894 248.345C674.194 248.345 674.104 248.465 674.494 248.465C674.764 248.465 674.944 248.465 674.944 248.165Z" fill="black"/>
<path d="M585.611 252.89C585.611 250.43 582.101 250.205 580.811 250.205C580.511 250.205 580.331 250.22 580.331 250.22C580.691 249.74 581.261 249.155 581.261 248.96C581.261 248.615 580.931 248.375 580.736 248.375C580.481 248.375 579.101 250.25 579.026 250.475C579.011 250.505 579.011 250.55 579.011 250.58C579.011 250.805 579.236 251.09 579.521 251.09C579.926 251.045 580.436 251.015 580.991 251.015C582.641 251.015 584.756 251.345 584.756 252.845C584.756 254.405 583.001 256.31 581.471 256.31C581.216 256.31 580.976 256.25 580.751 256.145C580.466 255.995 580.631 255.38 580.151 255.38C579.896 255.38 579.626 255.515 579.626 255.77C579.626 255.98 579.776 256.22 579.851 256.34C580.196 256.82 580.751 257.045 581.396 257.045C583.541 257.045 585.611 254.9 585.611 252.89ZM588.806 248.165C588.806 248.12 588.806 248.09 588.791 248.045C588.761 247.67 588.401 247.58 588.071 247.58C587.876 247.58 587.696 247.61 587.591 247.625C587.306 247.685 585.446 247.625 583.706 247.895C583.226 247.97 582.761 247.97 582.371 247.97H582.041C581.606 247.97 581.321 247.985 581.246 248.12C581.231 248.165 581.216 248.21 581.216 248.255C581.216 248.45 581.396 248.6 581.561 248.675C581.681 248.72 581.966 248.735 582.311 248.735C582.866 248.735 583.571 248.69 584.081 248.6C585.521 248.345 587.456 248.345 587.756 248.345C588.056 248.345 587.966 248.465 588.356 248.465C588.626 248.465 588.806 248.465 588.806 248.165ZM592.507 247.46C592.477 247.25 592.192 247.16 592.012 247.16H591.952C591.757 247.175 590.797 248.495 590.002 249.32C589.357 249.965 588.592 250.685 588.337 251.075C588.277 251.15 588.262 251.24 588.262 251.345C588.262 251.585 588.352 251.825 588.502 251.825C588.802 251.825 591.637 248.615 591.637 248.615C591.577 249.095 591.322 250.73 591.172 251.93C590.902 254.045 590.677 255.995 590.677 256.19C590.677 256.31 590.587 256.37 590.587 256.64C590.602 257.03 590.812 257.255 591.232 257.255C591.472 257.255 591.667 257.06 591.667 256.79C591.667 256.325 591.502 256.295 591.502 256.04C591.502 254.72 592.507 248.105 592.507 247.46Z" fill="black"/>
<path d="M508.271 253.635C508.271 253.53 508.241 253.425 508.211 253.35C508.121 253.14 507.896 253.08 507.686 253.08C507.536 253.08 507.416 253.11 507.326 253.125C507.131 253.155 505.271 253.5 504.521 253.725C503.936 253.89 502.661 254.325 502.661 254.325C503.531 253.095 503.666 253.05 504.971 251.22C506.171 249.525 506.861 248.295 506.861 247.335C506.861 246.045 505.586 245.43 504.491 245.43C503.831 245.43 503.126 245.595 502.586 245.865C501.821 246.24 501.116 247.02 501.116 247.47C501.116 247.725 501.371 247.83 501.566 247.83C501.836 247.83 501.866 247.515 502.076 247.245C502.526 246.675 503.501 246.21 504.431 246.21C505.136 246.21 506.066 246.555 506.066 247.35C506.066 248.235 505.166 249.69 503.696 251.67C502.241 253.62 501.311 254.64 501.251 254.85C501.236 254.91 501.221 254.955 501.221 255.015C501.221 255.24 501.386 255.525 501.611 255.525C501.896 255.525 502.511 255.27 503.786 254.775C504.701 254.415 506.741 253.995 507.191 253.995H507.266C507.401 254.025 507.551 254.16 507.761 254.16C508.061 254.16 508.271 253.92 508.271 253.635ZM514.596 250.95C514.596 251.535 514.131 252.435 513.591 252.96C512.856 253.68 511.806 254.34 511.311 254.34C511.011 254.34 510.966 254.13 510.966 253.92C510.966 253.41 511.371 252.585 511.866 251.985C512.751 250.89 513.681 250.455 514.131 250.455C514.461 250.455 514.596 250.71 514.596 250.95ZM515.421 251.07C515.421 250.185 514.941 249.645 514.146 249.645C513.321 249.645 512.256 250.23 511.251 251.4C510.216 252.615 510.186 253.635 510.186 253.8C510.096 253.53 510.036 252.99 510.036 252.585C510.036 251.565 510.216 250.53 510.441 249.975C511.491 247.41 512.691 245.85 513.066 245.55C513.141 245.49 513.201 245.475 513.276 245.475C513.441 245.445 513.576 245.28 513.576 245.115C513.576 244.845 513.246 244.575 512.961 244.575C512.931 244.575 512.886 244.575 512.856 244.59C512.331 244.74 510.876 246.855 510.036 248.805C509.601 249.825 509.286 251.34 509.286 252.54C509.286 253.605 509.541 254.565 510.081 254.955C510.366 255.135 510.711 255.225 511.011 255.225C512.166 255.225 513.471 254.25 514.341 253.35C515.121 252.555 515.421 251.715 515.421 251.07Z" fill="black"/>
<path d="M431.241 244.46C431.211 244.25 430.926 244.16 430.746 244.16H430.686C430.491 244.175 429.531 245.495 428.736 246.32C428.091 246.965 427.326 247.685 427.071 248.075C427.011 248.15 426.996 248.24 426.996 248.345C426.996 248.585 427.086 248.825 427.236 248.825C427.536 248.825 430.371 245.615 430.371 245.615C430.311 246.095 430.056 247.73 429.906 248.93C429.636 251.045 429.411 252.995 429.411 253.19C429.411 253.31 429.321 253.37 429.321 253.64C429.336 254.03 429.546 254.255 429.966 254.255C430.206 254.255 430.401 254.06 430.401 253.79C430.401 253.325 430.236 253.295 430.236 253.04C430.236 251.72 431.241 245.105 431.241 244.46Z" fill="black"/>
<path d="M579.399 31.046C579.399 30.794 579.399 30.584 579.336 30.5C579.315 30.479 579.294 30.458 579.273 30.458C573.141 31.718 568.269 34.259 567.786 34.637C567.807 34.616 567.681 34.742 567.681 34.826C567.681 35.12 568.08 35.477 568.458 35.519C568.815 35.519 573.687 33.062 575.052 33.062C575.472 33.062 575.64 33.44 575.64 33.755C575.64 35.813 570.075 40.79 566.715 40.79C564.216 40.79 563.523 38.291 563.523 36.569C563.523 36.17 563.565 35.813 563.628 35.519C564.888 29.681 572.007 27.392 572.07 27.119C572.091 27.035 572.091 26.951 572.091 26.867C572.091 26.51 571.86 26.321 571.335 26.3C570.894 26.279 562.872 29.597 562.368 36.212C562.347 36.485 562.347 36.548 562.347 36.737C562.347 39.383 563.775 41.987 566.526 41.987C570.432 41.987 576.564 37.031 577.026 33.566C577.026 33.566 577.047 33.44 577.047 33.293C577.047 32.663 576.753 32.348 576.753 32.348L578.076 31.844C578.034 33.314 577.908 33.881 577.614 35.75C577.467 36.674 577.404 37.64 577.404 38.396C577.404 38.858 577.446 40.139 577.992 40.139C578.034 40.139 578.076 40.118 578.139 40.118C578.37 40.055 579.168 38.585 579.21 38.291C579.21 37.934 578.832 37.955 578.685 37.724C578.601 37.598 578.58 37.43 578.58 37.178C578.58 36.506 578.811 35.393 579.063 34.049C579.21 33.251 579.399 31.844 579.399 31.046ZM589.179 32.642C589.179 32.39 589.011 32.138 588.885 32.096C588.528 31.97 588.213 31.928 587.919 31.928C586.659 31.928 585.798 32.894 585.021 33.629C583.677 34.868 582.228 36.8 582.228 36.8C582.228 35.393 582.228 34.994 582.207 34.259C582.165 32.978 582.102 32.495 581.787 32.201C581.619 32.054 581.472 31.991 581.325 31.991C581.115 31.991 580.695 32.243 580.695 32.474C580.695 32.726 581.157 33.167 581.157 35.792C581.157 36.212 581.136 36.674 581.115 37.22C581.031 38.837 580.779 39.908 580.779 40.538C580.779 40.811 580.821 41 580.947 41.126C581.094 41.273 581.304 41.378 581.514 41.378C581.682 41.378 581.85 41.315 581.976 41.147C582.249 40.79 581.976 39.173 582.753 37.997C584.265 35.708 585.861 33.923 587.184 33.146C587.394 33.02 587.583 32.978 587.73 32.978C588.066 32.978 588.297 33.167 588.57 33.167C588.885 33.167 589.179 32.915 589.179 32.642ZM592.899 39.215C592.899 39.215 591.492 40.391 590.463 40.391C589.938 40.391 589.749 40.097 589.749 39.635C589.749 38.585 590.631 37.451 591.681 37.451C592.374 37.451 592.899 39.215 592.899 39.215ZM594.999 36.443C594.999 34.805 594.579 33.125 593.13 32.222C592.794 32.012 592.395 31.928 591.954 31.928C590.736 31.928 589.371 32.642 589.371 33.356C589.392 33.734 589.749 33.881 589.98 33.881C590.085 33.881 590.148 33.86 590.148 33.776C590.19 33.482 591.009 32.915 591.849 32.915C593.508 32.915 593.949 35.267 593.949 36.485C593.949 37.619 593.613 38.396 593.613 38.396C593.298 37.43 592.773 36.401 591.618 36.401C590.001 36.401 588.762 38.312 588.762 39.719C588.762 40.727 589.371 41.378 590.421 41.378C591.723 41.378 593.214 40.328 593.214 40.328C593.214 40.328 593.277 40.685 593.403 40.811C593.508 40.937 593.697 40.979 593.844 40.979C593.949 40.979 594.054 40.958 594.096 40.895C594.201 40.832 594.999 38.669 594.999 36.443ZM601.488 35.834C601.488 35.918 601.488 35.96 601.467 36.065C600.963 38.354 597.708 39.95 597.708 39.95C597.708 39.95 598.023 37.325 598.212 36.086C598.401 34.868 598.737 33.23 598.737 33.23C599.955 33.314 601.488 34.805 601.488 35.834ZM602.622 36.002C602.622 33.545 599.766 32.096 598.296 32.075C597.981 32.075 596.805 32.369 596.805 32.999C596.805 33.482 597.33 33.629 597.33 33.629C596.826 37.43 596.553 38.921 596.364 43.289C596.343 43.961 596.322 44.57 596.322 45.116C596.322 47.027 596.448 48.203 596.448 48.665C596.448 48.791 596.448 48.854 596.427 48.875C596.364 48.98 596.343 49.106 596.343 49.253C596.343 49.673 596.637 50.135 597.078 50.135C597.351 50.135 597.582 49.883 597.582 49.526C597.582 49.4 597.54 49.274 597.477 49.127C597.435 49.022 597.372 48.077 597.372 46.565V45.179C597.372 42.302 597.666 40.433 597.666 40.433C597.729 40.664 598.065 40.979 598.38 40.979C598.8 40.979 602.622 37.85 602.622 36.002ZM612.138 37.514C612.138 35.393 611.886 33.146 610.752 32.747C610.563 32.684 610.374 32.663 610.185 32.663C608.001 32.663 605.166 36.359 605.166 36.359C605.25 34.448 605.397 32.705 605.565 30.962C605.712 29.324 606.027 28.232 606.027 27.581C606.027 27.098 605.838 26.825 605.292 26.825C604.557 26.825 604.746 28.631 604.368 32.096C603.801 37.283 604.053 39.845 603.822 40.328C603.696 40.601 603.549 40.916 603.549 41.21C603.549 41.651 603.885 41.903 604.263 41.903C604.641 41.903 605.061 41.672 605.061 40.895C605.061 40.643 605.019 40.412 605.019 40.181C605.019 39.614 605.103 38.627 605.565 37.64C606.153 36.38 608.778 33.818 610.038 33.818C610.164 33.818 610.29 33.839 610.374 33.902C610.836 34.196 610.983 36.044 610.983 37.619C610.983 38.753 610.899 39.467 610.899 40.055C610.899 40.601 611.046 41.042 611.55 41.042C612.033 41.042 612.117 40.853 612.117 40.559C612.117 40.349 612.075 40.055 612.075 39.719C612.075 39.11 612.138 38.228 612.138 37.514Z" fill="black"/>
<path d="M590.491 308.86C590.431 305.06 580.431 305.86 580.431 303.58C580.431 301.82 585.051 300.06 586.971 300.06C587.511 300.06 587.731 300.7 588.171 300.7C588.551 300.7 588.851 300.46 588.851 300.26C588.851 300.2 588.851 300.16 588.811 300.12C588.371 299.5 588.251 298.9 586.731 298.9C584.791 298.9 579.131 300.88 579.131 303.9C579.131 306.9 589.331 305.78 589.331 309.1C589.331 310.5 585.211 312.76 583.651 312.98C583.291 313.04 582.751 313.32 582.751 313.86C582.751 314.4 583.271 314.54 583.691 314.54C584.111 314.54 584.531 314.38 584.611 313.9C584.671 313.56 590.491 311.7 590.491 308.86ZM600.123 304.52C600.083 303.96 599.363 303.98 598.943 303.96C598.763 303.96 598.583 303.94 598.403 303.94C596.983 303.94 595.783 304.2 595.783 304.2C595.963 302.9 596.083 302.58 596.203 301.38C596.243 300.96 596.263 300.6 596.263 300.3C596.263 299.24 596.023 298.86 595.643 298.86C595.263 298.86 595.183 299.22 595.183 299.64C595.183 299.92 595.223 300.2 595.223 300.54C595.223 301.22 594.743 304.38 594.743 304.38C593.543 304.7 593.283 304.8 592.143 305.24C591.043 305.66 591.003 305.8 590.903 306.1C590.883 306.16 590.883 306.2 590.883 306.24C590.883 306.52 591.283 306.82 591.503 306.82C591.863 306.82 592.543 306.2 592.883 306.04C593.603 305.7 594.583 305.48 594.583 305.48C594.483 306.34 594.403 306.74 594.263 308.16C594.043 310.2 594.043 311.44 594.043 312.34C594.043 312.66 594.143 313.4 594.743 313.44H594.823C595.203 313.44 595.303 313.22 595.303 312.96C595.303 312.72 595.203 312.44 595.203 312.36C595.183 312.06 595.183 311.72 595.183 311.38C595.183 308.72 595.603 305.5 595.623 305.26C596.343 305.1 597.723 304.82 598.963 304.82C599.123 304.82 599.403 304.88 599.643 304.88C599.903 304.88 600.123 304.82 600.123 304.52ZM602.073 306C603.173 306 603.653 307.28 603.653 308.16C603.653 308.86 603.413 309.56 603.073 310.22C602.693 310.94 601.433 312.04 600.513 312.04C599.593 312.04 599.213 310.74 599.213 310.02C599.213 309.74 599.253 309.46 599.333 309.24C600.353 306.22 601.913 306 602.073 306ZM604.653 308.4C604.653 308.18 604.633 307.98 604.613 307.74C604.393 305.56 602.713 304.86 601.913 304.86C600.753 304.86 599.593 305.92 598.473 308.46C598.233 309 598.133 309.52 598.133 310.04C598.133 311.36 598.873 313.08 600.293 313.08C601.973 313.08 604.653 311.26 604.653 308.4ZM616.087 309.26C616.087 309.04 615.907 308.82 615.667 308.82C615.607 308.82 615.547 308.84 615.487 308.86C615.267 308.94 610.487 312.08 607.967 312.08C607.107 312.08 606.427 311.6 606.427 310.76C606.427 309.02 609.027 306.36 609.487 306.22C609.527 306.2 609.587 306.2 609.647 306.2C609.887 306.2 610.107 306.3 610.307 306.3C610.687 306.3 611.107 305.7 611.107 305.34C611.107 305.06 610.907 304.86 610.427 304.86C610.327 304.86 610.207 304.86 610.087 304.88C608.347 305.14 605.327 308.62 605.327 310.94C605.327 312.34 606.647 313 607.827 313C611.087 313 616.067 309.52 616.087 309.34V309.26ZM627.435 311.54C627.395 311.1 627.115 310.94 626.835 310.94C626.615 310.94 626.375 311.06 626.275 311.22C626.175 311.4 625.535 311.96 624.275 311.96C623.595 311.96 622.715 311.8 621.655 311.32C618.315 309.82 616.775 308.04 616.775 308.04C621.435 306.1 624.195 305.94 624.575 305.7C624.755 305.58 624.835 305.4 624.835 305.24C624.835 305.02 624.675 304.82 624.475 304.82C622.675 305 616.735 306.86 616.735 306.86C616.855 305.94 616.995 305.28 617.195 304.16C617.655 301.62 618.115 301.36 618.115 300.92C618.115 300.86 618.115 300.8 618.095 300.74C617.995 300.34 617.775 300.14 617.495 300.14C617.395 300.14 617.275 300.18 617.175 300.22C616.855 300.36 615.455 305.66 615.275 311.46C615.255 311.8 615.255 312.12 615.255 312.42C615.255 313.76 615.395 314.48 615.815 314.48C616.415 314.48 616.575 314.28 616.575 313.96C616.575 313.56 616.335 312.98 616.315 312.36V311.98C616.315 310.26 616.535 309.26 616.535 309.26C619.315 311.64 621.955 312.92 624.035 312.92H624.155C625.615 312.88 626.195 312.44 626.575 312.3C626.995 312.14 627.435 311.92 627.435 311.54Z" fill="black"/>
<line x1="535.591" y1="308" x2="572.591" y2="308" stroke="#005573" stroke-width="2"/>
</svg>
