<svg width="700" height="480" viewBox="0 0 700 480" fill="none" xmlns="http://www.w3.org/2000/svg">
<rect width="700" height="480" fill="white"/>
<path d="M338.848 58.452C338.848 57.806 338.27 57.33 337.692 57.33C337.012 57.33 336.264 57.772 335.958 57.908C335.21 58.248 325.486 63.858 319.706 63.858C318.618 63.858 317.666 63.654 316.918 63.178C315.592 62.328 315.048 61.104 315.048 59.71C315.048 54.1 323.99 45.6 328.342 44.682C329.09 44.512 330.144 44.308 330.144 43.492C330.144 42.676 329.668 42.37 329.022 42.37C328.308 42.37 327.492 42.71 327.22 42.812C321.542 45.09 313.144 53.25 313.144 59.608C313.144 61.478 313.892 63.212 315.626 64.572C316.578 65.32 317.87 65.626 319.332 65.626C325.656 65.626 335.38 59.88 336.876 59.676C336.876 59.676 338.848 59.472 338.848 58.452ZM348.147 53.93C348.147 53.93 348.079 52.57 347.195 52.57C346.141 52.57 346.107 53.318 346.107 53.794C346.073 54.678 345.495 60.186 343.795 63.178C343.557 63.586 343.319 63.756 343.115 63.756C341.959 63.756 340.769 59.438 340.769 53.998C340.769 53.556 340.803 53.114 340.803 52.638C340.803 52.196 340.531 51.346 339.783 51.346H339.613C339.239 51.346 338.933 51.618 338.933 52.434C338.967 53.692 339.069 65.864 343.081 65.864C343.387 65.864 343.761 65.762 344.135 65.592C346.175 64.64 348.147 54.576 348.147 53.93ZM360.108 49.952V49.816C360.074 49.408 358.884 48.796 358.442 48.592C358.238 48.49 357.966 48.422 357.66 48.422C357.218 48.422 356.674 48.558 356.266 48.898C354.022 50.768 349.738 53.964 349.738 57.704C349.738 62.804 357.558 62.464 358.034 64.13C358.034 65.354 353.104 67.02 352.9 67.36C352.764 67.53 352.696 67.7 352.696 67.87C352.696 68.346 353.206 68.754 353.92 68.788C354.43 68.788 360.006 65.864 360.006 64.47C360.006 62.362 358.068 62.022 355.994 61.206C353.75 60.356 351.506 59.676 351.506 57.704C351.506 56.65 352.356 54.678 353.886 53.318C356.572 50.904 356.946 50.19 358.102 50.156C358.374 50.156 358.748 50.564 359.394 50.564C359.904 50.564 360.108 50.292 360.108 49.952ZM376.149 51.584C376.081 50.632 374.857 50.666 374.143 50.632C373.837 50.632 373.531 50.598 373.225 50.598C370.811 50.598 368.771 51.04 368.771 51.04C369.077 48.83 369.281 48.286 369.485 46.246C369.553 45.532 369.587 44.92 369.587 44.41C369.587 42.608 369.179 41.962 368.533 41.962C367.887 41.962 367.751 42.574 367.751 43.288C367.751 43.764 367.819 44.24 367.819 44.818C367.819 45.974 367.003 51.346 367.003 51.346C364.963 51.89 364.521 52.06 362.583 52.808C360.713 53.522 360.645 53.76 360.475 54.27C360.441 54.372 360.441 54.44 360.441 54.508C360.441 54.984 361.121 55.494 361.495 55.494C362.107 55.494 363.263 54.44 363.841 54.168C365.065 53.59 366.731 53.216 366.731 53.216C366.561 54.678 366.425 55.358 366.187 57.772C365.813 61.24 365.813 63.348 365.813 64.878C365.813 65.422 365.983 66.68 367.003 66.748H367.139C367.785 66.748 367.955 66.374 367.955 65.932C367.955 65.524 367.785 65.048 367.785 64.912C367.751 64.402 367.751 63.824 367.751 63.246C367.751 58.724 368.465 53.25 368.499 52.842C369.723 52.57 372.069 52.094 374.177 52.094C374.449 52.094 374.925 52.196 375.333 52.196C375.775 52.196 376.149 52.094 376.149 51.584ZM379.38 54.1C381.25 54.1 382.066 56.276 382.066 57.772C382.066 58.962 381.658 60.152 381.08 61.274C380.434 62.498 378.292 64.368 376.728 64.368C375.164 64.368 374.518 62.158 374.518 60.934C374.518 60.458 374.586 59.982 374.722 59.608C376.456 54.474 379.108 54.1 379.38 54.1ZM383.766 58.18C383.766 57.806 383.732 57.466 383.698 57.058C383.324 53.352 380.468 52.162 379.108 52.162C377.136 52.162 375.164 53.964 373.26 58.282C372.852 59.2 372.682 60.084 372.682 60.968C372.682 63.212 373.94 66.136 376.354 66.136C379.21 66.136 383.766 63.042 383.766 58.18ZM404.751 64.47C404.751 63.96 404.411 63.28 404.411 62.804C404.411 62.532 404.445 61.478 404.445 60.118C404.445 57.5 404.377 53.76 404.071 52.638C403.867 51.856 402.813 50.598 402.065 50.598C399.583 50.938 395.401 60.662 395.401 60.662C395.163 54.984 394.857 52.298 394.517 51.788C394.211 51.21 393.429 50.564 392.885 50.564C391.627 50.564 389.349 55.528 389.349 55.528C389.145 54.032 388.975 53.828 388.533 53.352C388.363 53.182 388.125 53.08 387.887 53.08C387.173 53.08 386.833 53.624 386.833 54.202C386.833 54.814 386.969 55.732 386.969 56.922C386.969 57.296 386.935 57.738 386.901 58.214C386.833 59.03 386.357 62.906 386.357 65.082C386.357 65.796 386.391 66.306 386.527 66.51C386.663 66.748 387.037 66.85 387.411 66.85C387.853 66.85 388.499 66.646 388.499 66.204C388.499 65.966 388.397 65.66 388.397 65.014C388.397 64.708 388.431 64.334 388.499 63.858C389.247 59.268 391.899 53.522 392.851 53.522C392.885 53.522 392.919 53.522 392.953 53.556C393.395 53.828 393.531 57.296 393.701 62.294C393.837 65.864 393.531 66.578 394.925 66.918C394.993 66.918 395.027 66.952 395.061 66.952C395.945 66.952 395.775 64.572 397.679 59.948C399.311 55.97 401.555 52.706 401.895 52.706C402.609 52.706 402.745 56.344 402.745 56.514V56.65C402.745 57.636 402.643 59.506 402.643 61.206C402.643 62.804 402.745 64.3 403.017 64.844C403.187 65.15 403.493 65.286 403.765 65.286C404.275 65.286 404.751 65.014 404.751 64.47ZM415.967 53.59C414.913 54.542 414.335 54.916 413.451 55.426C411.343 56.718 409.439 56.82 409.439 56.82C409.439 56.82 410.493 55.426 412.227 54.542C413.451 53.896 414.709 53.59 415.967 53.59ZM422.665 59.472C422.665 58.894 422.155 58.384 421.645 58.384C421.067 58.384 420.693 59.268 420.489 59.642C420.149 60.118 414.879 64.436 412.193 64.436C410.697 64.436 410.051 63.62 409.439 62.634C408.691 61.478 408.521 60.424 408.521 59.71C408.521 59.098 408.623 58.724 408.623 58.724C409.575 58.656 411.649 58.452 413.757 57.16C415.695 56.004 418.585 53.828 418.585 52.978C418.585 52.876 418.551 52.808 418.449 52.74C417.633 52.196 416.647 51.958 415.525 51.958C411.955 51.958 407.569 54.576 406.685 58.418C406.583 58.826 406.549 59.234 406.549 59.642C406.549 62.158 408.113 64.844 410.323 65.864C410.765 66.068 411.275 66.17 411.819 66.17C415.661 66.17 421.135 61.172 421.883 60.764C422.325 60.458 422.665 59.948 422.665 59.472ZM437.636 52.468C437.636 52.06 437.364 51.652 437.16 51.584C436.582 51.38 436.072 51.312 435.596 51.312C433.556 51.312 432.162 52.876 430.904 54.066C428.728 56.072 426.382 59.2 426.382 59.2C426.382 56.922 426.382 56.276 426.348 55.086C426.28 53.012 426.178 52.23 425.668 51.754C425.396 51.516 425.158 51.414 424.92 51.414C424.58 51.414 423.9 51.822 423.9 52.196C423.9 52.604 424.648 53.318 424.648 57.568C424.648 58.248 424.614 58.996 424.58 59.88C424.444 62.498 424.036 64.232 424.036 65.252C424.036 65.694 424.104 66 424.308 66.204C424.546 66.442 424.886 66.612 425.226 66.612C425.498 66.612 425.77 66.51 425.974 66.238C426.416 65.66 425.974 63.042 427.232 61.138C429.68 57.432 432.264 54.542 434.406 53.284C434.746 53.08 435.052 53.012 435.29 53.012C435.834 53.012 436.208 53.318 436.65 53.318C437.16 53.318 437.636 52.91 437.636 52.468ZM447.333 49.952V49.816C447.299 49.408 446.109 48.796 445.667 48.592C445.463 48.49 445.191 48.422 444.885 48.422C444.443 48.422 443.899 48.558 443.491 48.898C441.247 50.768 436.963 53.964 436.963 57.704C436.963 62.804 444.783 62.464 445.259 64.13C445.259 65.354 440.329 67.02 440.125 67.36C439.989 67.53 439.921 67.7 439.921 67.87C439.921 68.346 440.431 68.754 441.145 68.788C441.655 68.788 447.231 65.864 447.231 64.47C447.231 62.362 445.293 62.022 443.219 61.206C440.975 60.356 438.731 59.676 438.731 57.704C438.731 56.65 439.581 54.678 441.111 53.318C443.797 50.904 444.171 50.19 445.327 50.156C445.599 50.156 445.973 50.564 446.619 50.564C447.129 50.564 447.333 50.292 447.333 49.952Z" fill="#33778F"/>
<path d="M489.625 132.279C489.591 135.577 475.073 141.221 475.073 141.221L475.311 136.903C475.379 135.543 475.583 132.687 475.583 132.687C476.705 132.619 477.861 132.517 478.779 132.313C479.493 132.143 483.777 131.565 486.769 131.565C488.401 131.565 489.625 131.735 489.625 132.279ZM492.073 131.905C492.073 131.531 491.937 131.157 491.699 130.817C491.189 130.137 489.353 129.899 487.109 129.899C482.859 129.899 477.147 130.715 476.161 130.715C475.277 130.613 475.345 130.103 474.495 130.103C473.815 130.103 473.203 130.919 473.203 131.599C473.203 131.701 473.237 131.837 473.271 131.939C473.407 132.313 473.475 133.163 473.475 134.149C473.475 135.135 473.407 136.291 473.373 137.175C473.271 138.977 472.931 143.057 472.931 143.057C472.727 143.329 472.727 143.567 472.727 143.737C472.727 143.941 472.931 144.383 472.931 144.383C472.693 148.497 472.761 150.537 472.591 152.475C472.557 152.815 472.523 153.155 472.523 153.461C472.523 154.141 472.863 154.651 473.509 154.651C474.053 154.651 474.699 154.277 474.699 153.121C474.699 152.883 474.665 152.577 474.597 152.237C474.529 151.931 474.495 151.353 474.495 150.605C474.495 147.953 474.835 143.397 474.835 143.397C478.949 141.663 492.073 135.849 492.073 131.905ZM500.82 140.915C500.82 140.507 500.548 140.099 500.344 140.031C499.766 139.827 499.256 139.759 498.78 139.759C496.74 139.759 495.346 141.323 494.088 142.513C491.912 144.519 489.566 147.647 489.566 147.647C489.566 145.369 489.566 144.723 489.532 143.533C489.464 141.459 489.362 140.677 488.852 140.201C488.58 139.963 488.342 139.861 488.104 139.861C487.764 139.861 487.084 140.269 487.084 140.643C487.084 141.051 487.832 141.765 487.832 146.015C487.832 146.695 487.798 147.443 487.764 148.327C487.628 150.945 487.22 152.679 487.22 153.699C487.22 154.141 487.288 154.447 487.492 154.651C487.73 154.889 488.07 155.059 488.41 155.059C488.682 155.059 488.954 154.957 489.158 154.685C489.6 154.107 489.158 151.489 490.416 149.585C492.864 145.879 495.448 142.989 497.59 141.731C497.93 141.527 498.236 141.459 498.474 141.459C499.018 141.459 499.392 141.765 499.834 141.765C500.344 141.765 500.82 141.357 500.82 140.915ZM505.218 142.547C507.088 142.547 507.904 144.723 507.904 146.219C507.904 147.409 507.496 148.599 506.918 149.721C506.272 150.945 504.13 152.815 502.566 152.815C501.002 152.815 500.356 150.605 500.356 149.381C500.356 148.905 500.424 148.429 500.56 148.055C502.294 142.921 504.946 142.547 505.218 142.547ZM509.604 146.627C509.604 146.253 509.57 145.913 509.536 145.505C509.162 141.799 506.306 140.609 504.946 140.609C502.974 140.609 501.002 142.411 499.098 146.729C498.69 147.647 498.52 148.531 498.52 149.415C498.52 151.659 499.778 154.583 502.192 154.583C505.048 154.583 509.604 151.489 509.604 146.627ZM522.135 149.483C519.415 151.047 516.219 153.155 514.077 153.155C512.887 153.155 512.037 152.407 512.037 151.285C512.037 148.599 515.879 144.077 518.633 144.077C518.939 144.077 519.245 144.111 519.517 144.247C521.625 145.165 522.135 149.483 522.135 149.483ZM526.759 132.211C526.759 131.327 526.045 130.511 525.025 130.511C524.617 130.511 524.447 130.851 524.447 131.395C524.447 131.803 524.481 132.211 524.651 132.755C524.685 132.857 524.685 132.925 524.685 133.027C524.685 134.829 523.291 146.185 523.291 146.185C522.407 144.587 521.829 142.989 519.109 142.411C518.973 142.377 518.769 142.377 518.599 142.377C515.471 142.377 510.269 147.069 510.269 151.149C510.269 153.291 511.595 154.923 513.839 154.923C517.409 154.923 522.373 151.523 522.373 151.523C522.645 152.509 522.271 153.597 523.903 153.835C524.481 153.835 524.617 153.121 524.617 152.339C524.617 151.387 524.413 150.333 524.413 150.333C525.569 149.857 526.487 149.891 526.487 148.973C526.487 148.837 526.487 148.701 526.419 148.497C526.249 147.783 524.991 147.681 524.991 147.681C525.229 142.751 526.385 133.503 526.623 132.857C526.725 132.653 526.759 132.415 526.759 132.211ZM538.134 142.377C538.134 142.377 538.066 141.017 537.182 141.017C536.128 141.017 536.094 141.765 536.094 142.241C536.06 143.125 535.482 148.633 533.782 151.625C533.544 152.033 533.306 152.203 533.102 152.203C531.946 152.203 530.756 147.885 530.756 142.445C530.756 142.003 530.79 141.561 530.79 141.085C530.79 140.643 530.518 139.793 529.77 139.793H529.6C529.226 139.793 528.92 140.065 528.92 140.881C528.954 142.139 529.056 154.311 533.068 154.311C533.374 154.311 533.748 154.209 534.122 154.039C536.162 153.087 538.134 143.023 538.134 142.377ZM556.981 148.089C556.981 147.715 556.675 147.341 556.267 147.341C556.165 147.341 556.063 147.375 555.961 147.409C555.587 147.545 547.461 152.883 543.177 152.883C541.715 152.883 540.559 152.067 540.559 150.639C540.559 147.681 544.979 143.159 545.761 142.921C545.829 142.887 545.931 142.887 546.033 142.887C546.441 142.887 546.815 143.057 547.155 143.057C547.801 143.057 548.515 142.037 548.515 141.425C548.515 140.949 548.175 140.609 547.359 140.609C547.189 140.609 546.985 140.609 546.781 140.643C543.823 141.085 538.689 147.001 538.689 150.945C538.689 153.325 540.933 154.447 542.939 154.447C548.481 154.447 556.947 148.531 556.981 148.225V148.089ZM570.386 140.031C570.318 139.079 569.094 139.113 568.38 139.079C568.074 139.079 567.768 139.045 567.462 139.045C565.048 139.045 563.008 139.487 563.008 139.487C563.314 137.277 563.518 136.733 563.722 134.693C563.79 133.979 563.824 133.367 563.824 132.857C563.824 131.055 563.416 130.409 562.77 130.409C562.124 130.409 561.988 131.021 561.988 131.735C561.988 132.211 562.056 132.687 562.056 133.265C562.056 134.421 561.24 139.793 561.24 139.793C559.2 140.337 558.758 140.507 556.82 141.255C554.95 141.969 554.882 142.207 554.712 142.717C554.678 142.819 554.678 142.887 554.678 142.955C554.678 143.431 555.358 143.941 555.732 143.941C556.344 143.941 557.5 142.887 558.078 142.615C559.302 142.037 560.968 141.663 560.968 141.663C560.798 143.125 560.662 143.805 560.424 146.219C560.05 149.687 560.05 151.795 560.05 153.325C560.05 153.869 560.22 155.127 561.24 155.195H561.376C562.022 155.195 562.192 154.821 562.192 154.379C562.192 153.971 562.022 153.495 562.022 153.359C561.988 152.849 561.988 152.271 561.988 151.693C561.988 147.171 562.702 141.697 562.736 141.289C563.96 141.017 566.306 140.541 568.414 140.541C568.686 140.541 569.162 140.643 569.57 140.643C570.012 140.643 570.386 140.541 570.386 140.031ZM579.447 138.399V138.263C579.413 137.855 578.223 137.243 577.781 137.039C577.577 136.937 577.305 136.869 576.999 136.869C576.557 136.869 576.013 137.005 575.605 137.345C573.361 139.215 569.077 142.411 569.077 146.151C569.077 151.251 576.897 150.911 577.373 152.577C577.373 153.801 572.443 155.467 572.239 155.807C572.103 155.977 572.035 156.147 572.035 156.317C572.035 156.793 572.545 157.201 573.259 157.235C573.769 157.235 579.345 154.311 579.345 152.917C579.345 150.809 577.407 150.469 575.333 149.653C573.089 148.803 570.845 148.123 570.845 146.151C570.845 145.097 571.695 143.125 573.225 141.765C575.911 139.351 576.285 138.637 577.441 138.603C577.713 138.603 578.087 139.011 578.733 139.011C579.243 139.011 579.447 138.739 579.447 138.399ZM603.818 138.399V138.263C603.784 137.855 602.594 137.243 602.152 137.039C601.948 136.937 601.676 136.869 601.37 136.869C600.928 136.869 600.384 137.005 599.976 137.345C597.732 139.215 593.448 142.411 593.448 146.151C593.448 151.251 601.268 150.911 601.744 152.577C601.744 153.801 596.814 155.467 596.61 155.807C596.474 155.977 596.406 156.147 596.406 156.317C596.406 156.793 596.916 157.201 597.63 157.235C598.14 157.235 603.716 154.311 603.716 152.917C603.716 150.809 601.778 150.469 599.704 149.653C597.46 148.803 595.216 148.123 595.216 146.151C595.216 145.097 596.066 143.125 597.596 141.765C600.282 139.351 600.656 138.637 601.812 138.603C602.084 138.603 602.458 139.011 603.104 139.011C603.614 139.011 603.818 138.739 603.818 138.399ZM611.767 142.547C613.637 142.547 614.453 144.723 614.453 146.219C614.453 147.409 614.045 148.599 613.467 149.721C612.821 150.945 610.679 152.815 609.115 152.815C607.551 152.815 606.905 150.605 606.905 149.381C606.905 148.905 606.973 148.429 607.109 148.055C608.843 142.921 611.495 142.547 611.767 142.547ZM616.153 146.627C616.153 146.253 616.119 145.913 616.085 145.505C615.711 141.799 612.855 140.609 611.495 140.609C609.523 140.609 607.551 142.411 605.647 146.729C605.239 147.647 605.069 148.531 605.069 149.415C605.069 151.659 606.327 154.583 608.741 154.583C611.597 154.583 616.153 151.489 616.153 146.627ZM622.468 131.123C622.468 130.647 622.366 130.409 622.196 130.205C621.856 129.831 621.584 129.695 621.346 129.695C621.04 129.695 620.836 129.899 620.598 130.103C620.156 130.477 620.054 133.401 619.646 137.821C619.238 141.969 618.524 149.279 618.524 153.325C618.524 154.855 618.66 155.943 618.932 156.113C619.238 156.351 619.51 156.419 619.748 156.419C620.428 156.419 620.564 155.433 620.564 154.685C620.564 153.529 620.462 152.305 620.462 151.217C620.462 148.497 620.632 145.233 621.04 142.037C621.89 134.897 622.468 132.313 622.468 131.123ZM635.69 149.483C632.97 151.047 629.774 153.155 627.632 153.155C626.442 153.155 625.592 152.407 625.592 151.285C625.592 148.599 629.434 144.077 632.188 144.077C632.494 144.077 632.8 144.111 633.072 144.247C635.18 145.165 635.69 149.483 635.69 149.483ZM640.314 132.211C640.314 131.327 639.6 130.511 638.58 130.511C638.172 130.511 638.002 130.851 638.002 131.395C638.002 131.803 638.036 132.211 638.206 132.755C638.24 132.857 638.24 132.925 638.24 133.027C638.24 134.829 636.846 146.185 636.846 146.185C635.962 144.587 635.384 142.989 632.664 142.411C632.528 142.377 632.324 142.377 632.154 142.377C629.026 142.377 623.824 147.069 623.824 151.149C623.824 153.291 625.15 154.923 627.394 154.923C630.964 154.923 635.928 151.523 635.928 151.523C636.2 152.509 635.826 153.597 637.458 153.835C638.036 153.835 638.172 153.121 638.172 152.339C638.172 151.387 637.968 150.333 637.968 150.333C639.124 149.857 640.042 149.891 640.042 148.973C640.042 148.837 640.042 148.701 639.974 148.497C639.804 147.783 638.546 147.681 638.546 147.681C638.784 142.751 639.94 133.503 640.178 132.857C640.28 132.653 640.314 132.415 640.314 132.211Z" fill="#33778F"/>
<path d="M546.615 111.79C546.615 111.268 546.056 110.933 545.608 110.933C544.526 110.933 540.871 111.753 538.783 112.275C537.403 112.611 535.538 113.208 533.561 113.879C533.524 111.79 533.524 110 533.524 109.441C533.486 108.173 533.225 107.539 532.554 107.539C532.405 107.539 532.218 107.576 532.032 107.65C531.733 107.762 531.435 108.769 531.435 109.403C531.472 109.739 531.51 111.977 531.584 114.513C528.116 115.707 524.796 116.937 524.684 117.199C524.572 117.348 524.535 117.534 524.535 117.683C524.535 118.28 525.132 118.802 525.468 118.802C525.505 118.802 525.579 118.802 525.617 118.765C525.803 118.578 528.601 117.534 531.622 116.49C531.696 118.541 531.733 120.593 531.733 121.786V122.868C531.733 123.651 532.032 124.36 532.89 124.36C533.636 124.36 533.747 123.427 533.747 122.98V122.83C533.747 122.569 533.673 119.138 533.636 115.819C535.836 115.073 537.962 114.364 539.379 113.991C542.102 113.245 544.041 112.835 544.787 112.835C545.086 112.835 545.272 112.909 545.459 112.909C546.279 112.909 546.615 112.313 546.615 112.014V111.79Z" fill="#AFAF3F"/>
<path d="M57.626 278.463C57.626 280.741 51.506 283.597 48.31 284.923C46.95 285.501 45.556 285.773 45.556 285.773C45.556 285.773 45.862 283.461 46.134 282.169C46.338 281.149 46.44 280.163 46.474 279.517C46.576 279.823 46.814 279.959 47.018 279.959C47.154 279.959 47.256 279.891 47.358 279.823C48.276 279.007 53.036 277.647 55.756 277.647C56.844 277.647 57.626 277.885 57.626 278.463ZM65.888 298.455C65.888 297.503 64.834 297.061 64.29 296.993C63.304 296.857 57.694 294.953 50.418 290.193C48.752 289.105 46.95 287.371 46.95 287.371C54.668 284.345 59.632 281.149 59.632 278.395V278.225C59.462 276.287 57.966 275.641 56.028 275.641C52.118 275.641 46.44 278.293 46.44 278.293C46.27 277.715 45.964 277.239 45.318 277.239C44.298 277.239 43.822 278.021 43.822 278.837C43.822 279.279 43.89 279.721 43.958 280.129V280.605C43.958 282.203 43.584 286.181 43.584 286.181L43.244 286.283L43.55 286.895C43.346 291.213 42.734 296.653 42.734 298.931C42.734 299.475 42.768 299.849 42.87 299.951C43.108 300.223 43.448 300.359 43.822 300.359C44.57 300.359 45.148 299.781 45.148 299.101C45.148 298.421 44.706 297.673 44.706 296.959C44.808 293.389 45.25 288.357 45.25 288.357C46.95 289.751 47.698 290.567 50.418 292.335C57.558 296.993 63.1 298.557 63.372 298.897C63.61 299.203 64.29 299.441 64.834 299.441C65.514 299.441 65.888 299.101 65.888 298.455ZM71.6159 286.963C70.5619 287.915 69.9839 288.289 69.0999 288.799C66.9919 290.091 65.0879 290.193 65.0879 290.193C65.0879 290.193 66.1419 288.799 67.8759 287.915C69.0999 287.269 70.3579 286.963 71.6159 286.963ZM78.3139 292.845C78.3139 292.267 77.8039 291.757 77.2939 291.757C76.7159 291.757 76.3419 292.641 76.1379 293.015C75.7979 293.491 70.5279 297.809 67.8419 297.809C66.3459 297.809 65.6999 296.993 65.0879 296.007C64.3399 294.851 64.1699 293.797 64.1699 293.083C64.1699 292.471 64.2719 292.097 64.2719 292.097C65.2239 292.029 67.2979 291.825 69.4059 290.533C71.3439 289.377 74.2339 287.201 74.2339 286.351C74.2339 286.249 74.1999 286.181 74.0979 286.113C73.2819 285.569 72.2959 285.331 71.1739 285.331C67.6039 285.331 63.2179 287.949 62.3339 291.791C62.2319 292.199 62.1979 292.607 62.1979 293.015C62.1979 295.531 63.7619 298.217 65.9719 299.237C66.4139 299.441 66.9239 299.543 67.4679 299.543C71.3099 299.543 76.7839 294.545 77.5319 294.137C77.9739 293.831 78.3139 293.321 78.3139 292.845ZM89.1031 283.325V283.189C89.0691 282.781 87.8791 282.169 87.4371 281.965C87.2331 281.863 86.9611 281.795 86.6551 281.795C86.2131 281.795 85.6691 281.931 85.2611 282.271C83.0171 284.141 78.7331 287.337 78.7331 291.077C78.7331 296.177 86.5531 295.837 87.0291 297.503C87.0291 298.727 82.0991 300.393 81.8951 300.733C81.7591 300.903 81.6911 301.073 81.6911 301.243C81.6911 301.719 82.2011 302.127 82.9151 302.161C83.4251 302.161 89.0011 299.237 89.0011 297.843C89.0011 295.735 87.0631 295.395 84.9891 294.579C82.7451 293.729 80.5011 293.049 80.5011 291.077C80.5011 290.023 81.3511 288.051 82.8811 286.691C85.5671 284.277 85.9411 283.563 87.0971 283.529C87.3691 283.529 87.7431 283.937 88.3891 283.937C88.8991 283.937 89.1031 283.665 89.1031 283.325ZM97.0522 287.473C98.9222 287.473 99.7382 289.649 99.7382 291.145C99.7382 292.335 99.3302 293.525 98.7522 294.647C98.1062 295.871 95.9642 297.741 94.4002 297.741C92.8362 297.741 92.1902 295.531 92.1902 294.307C92.1902 293.831 92.2582 293.355 92.3942 292.981C94.1282 287.847 96.7802 287.473 97.0522 287.473ZM101.438 291.553C101.438 291.179 101.404 290.839 101.37 290.431C100.996 286.725 98.1402 285.535 96.7802 285.535C94.8082 285.535 92.8362 287.337 90.9322 291.655C90.5242 292.573 90.3542 293.457 90.3542 294.341C90.3542 296.585 91.6122 299.509 94.0262 299.509C96.8822 299.509 101.438 296.415 101.438 291.553ZM112.835 287.303C112.835 287.303 112.767 285.943 111.883 285.943C110.829 285.943 110.795 286.691 110.795 287.167C110.761 288.051 110.183 293.559 108.483 296.551C108.245 296.959 108.007 297.129 107.803 297.129C106.647 297.129 105.457 292.811 105.457 287.371C105.457 286.929 105.491 286.487 105.491 286.011C105.491 285.569 105.219 284.719 104.471 284.719H104.301C103.927 284.719 103.621 284.991 103.621 285.807C103.655 287.065 103.757 299.237 107.769 299.237C108.075 299.237 108.449 299.135 108.823 298.965C110.863 298.013 112.835 287.949 112.835 287.303ZM128.978 285.841C128.978 285.433 128.706 285.025 128.502 284.957C127.924 284.753 127.414 284.685 126.938 284.685C124.898 284.685 123.504 286.249 122.246 287.439C120.07 289.445 117.724 292.573 117.724 292.573C117.724 290.295 117.724 289.649 117.69 288.459C117.622 286.385 117.52 285.603 117.01 285.127C116.738 284.889 116.5 284.787 116.262 284.787C115.922 284.787 115.242 285.195 115.242 285.569C115.242 285.977 115.99 286.691 115.99 290.941C115.99 291.621 115.956 292.369 115.922 293.253C115.786 295.871 115.378 297.605 115.378 298.625C115.378 299.067 115.446 299.373 115.65 299.577C115.888 299.815 116.228 299.985 116.568 299.985C116.84 299.985 117.112 299.883 117.316 299.611C117.758 299.033 117.316 296.415 118.574 294.511C121.022 290.805 123.606 287.915 125.748 286.657C126.088 286.453 126.394 286.385 126.632 286.385C127.176 286.385 127.55 286.691 127.992 286.691C128.502 286.691 128.978 286.283 128.978 285.841ZM144.664 293.015C144.664 292.641 144.358 292.267 143.95 292.267C143.848 292.267 143.746 292.301 143.644 292.335C143.27 292.471 135.144 297.809 130.86 297.809C129.398 297.809 128.242 296.993 128.242 295.565C128.242 292.607 132.662 288.085 133.444 287.847C133.512 287.813 133.614 287.813 133.716 287.813C134.124 287.813 134.498 287.983 134.838 287.983C135.484 287.983 136.198 286.963 136.198 286.351C136.198 285.875 135.858 285.535 135.042 285.535C134.872 285.535 134.668 285.535 134.464 285.569C131.506 286.011 126.372 291.927 126.372 295.871C126.372 298.251 128.616 299.373 130.622 299.373C136.164 299.373 144.63 293.457 144.664 293.151V293.015ZM152.831 286.963C151.777 287.915 151.199 288.289 150.315 288.799C148.207 290.091 146.303 290.193 146.303 290.193C146.303 290.193 147.357 288.799 149.091 287.915C150.315 287.269 151.573 286.963 152.831 286.963ZM159.529 292.845C159.529 292.267 159.019 291.757 158.509 291.757C157.931 291.757 157.557 292.641 157.353 293.015C157.013 293.491 151.743 297.809 149.057 297.809C147.561 297.809 146.915 296.993 146.303 296.007C145.555 294.851 145.385 293.797 145.385 293.083C145.385 292.471 145.487 292.097 145.487 292.097C146.439 292.029 148.513 291.825 150.621 290.533C152.559 289.377 155.449 287.201 155.449 286.351C155.449 286.249 155.415 286.181 155.313 286.113C154.497 285.569 153.511 285.331 152.389 285.331C148.819 285.331 144.433 287.949 143.549 291.791C143.447 292.199 143.413 292.607 143.413 293.015C143.413 295.531 144.977 298.217 147.187 299.237C147.629 299.441 148.139 299.543 148.683 299.543C152.525 299.543 157.999 294.545 158.747 294.137C159.189 293.831 159.529 293.321 159.529 292.845ZM170.318 283.325V283.189C170.284 282.781 169.094 282.169 168.652 281.965C168.448 281.863 168.176 281.795 167.87 281.795C167.428 281.795 166.884 281.931 166.476 282.271C164.232 284.141 159.948 287.337 159.948 291.077C159.948 296.177 167.768 295.837 168.244 297.503C168.244 298.727 163.314 300.393 163.11 300.733C162.974 300.903 162.906 301.073 162.906 301.243C162.906 301.719 163.416 302.127 164.13 302.161C164.64 302.161 170.216 299.237 170.216 297.843C170.216 295.735 168.278 295.395 166.204 294.579C163.96 293.729 161.716 293.049 161.716 291.077C161.716 290.023 162.566 288.051 164.096 286.691C166.782 284.277 167.156 283.563 168.312 283.529C168.584 283.529 168.958 283.937 169.604 283.937C170.114 283.937 170.318 283.665 170.318 283.325Z" fill="#33778F"/>
<path d="M281.112 287.452C281.112 286.806 280.534 286.33 279.956 286.33C279.276 286.33 278.528 286.772 278.222 286.908C277.474 287.248 267.75 292.858 261.97 292.858C260.882 292.858 259.93 292.654 259.182 292.178C257.856 291.328 257.312 290.104 257.312 288.71C257.312 283.1 266.254 274.6 270.606 273.682C271.354 273.512 272.408 273.308 272.408 272.492C272.408 271.676 271.932 271.37 271.286 271.37C270.572 271.37 269.756 271.71 269.484 271.812C263.806 274.09 255.408 282.25 255.408 288.608C255.408 290.478 256.156 292.212 257.89 293.572C258.842 294.32 260.134 294.626 261.596 294.626C267.92 294.626 277.644 288.88 279.14 288.676C279.14 288.676 281.112 288.472 281.112 287.452ZM287.59 292.11C287.59 292.11 285.312 294.014 283.646 294.014C282.796 294.014 282.49 293.538 282.49 292.79C282.49 291.09 283.918 289.254 285.618 289.254C286.74 289.254 287.59 292.11 287.59 292.11ZM290.99 287.622C290.99 284.97 290.31 282.25 287.964 280.788C287.42 280.448 286.774 280.312 286.06 280.312C284.088 280.312 281.878 281.468 281.878 282.624C281.912 283.236 282.49 283.474 282.864 283.474C283.034 283.474 283.136 283.44 283.136 283.304C283.204 282.828 284.53 281.91 285.89 281.91C288.576 281.91 289.29 285.718 289.29 287.69C289.29 289.526 288.746 290.784 288.746 290.784C288.236 289.22 287.386 287.554 285.516 287.554C282.898 287.554 280.892 290.648 280.892 292.926C280.892 294.558 281.878 295.612 283.578 295.612C285.686 295.612 288.1 293.912 288.1 293.912C288.1 293.912 288.202 294.49 288.406 294.694C288.576 294.898 288.882 294.966 289.12 294.966C289.29 294.966 289.46 294.932 289.528 294.83C289.698 294.728 290.99 291.226 290.99 287.622ZM301.41 286.636C301.41 286.772 301.41 286.84 301.376 287.01C300.56 290.716 295.29 293.3 295.29 293.3C295.29 293.3 295.8 289.05 296.106 287.044C296.412 285.072 296.956 282.42 296.956 282.42C298.928 282.556 301.41 284.97 301.41 286.636ZM303.246 286.908C303.246 282.93 298.622 280.584 296.242 280.55C295.732 280.55 293.828 281.026 293.828 282.046C293.828 282.828 294.678 283.066 294.678 283.066C293.862 289.22 293.42 291.634 293.114 298.706C293.08 299.794 293.046 300.78 293.046 301.664C293.046 304.758 293.25 306.662 293.25 307.41C293.25 307.614 293.25 307.716 293.216 307.75C293.114 307.92 293.08 308.124 293.08 308.362C293.08 309.042 293.556 309.79 294.27 309.79C294.712 309.79 295.086 309.382 295.086 308.804C295.086 308.6 295.018 308.396 294.916 308.158C294.848 307.988 294.746 306.458 294.746 304.01V301.766C294.746 297.108 295.222 294.082 295.222 294.082C295.324 294.456 295.868 294.966 296.378 294.966C297.058 294.966 303.246 289.9 303.246 286.908ZM310.965 292.11C310.965 292.11 308.687 294.014 307.021 294.014C306.171 294.014 305.865 293.538 305.865 292.79C305.865 291.09 307.293 289.254 308.993 289.254C310.115 289.254 310.965 292.11 310.965 292.11ZM314.365 287.622C314.365 284.97 313.685 282.25 311.339 280.788C310.795 280.448 310.149 280.312 309.435 280.312C307.463 280.312 305.253 281.468 305.253 282.624C305.287 283.236 305.865 283.474 306.239 283.474C306.409 283.474 306.511 283.44 306.511 283.304C306.579 282.828 307.905 281.91 309.265 281.91C311.951 281.91 312.665 285.718 312.665 287.69C312.665 289.526 312.121 290.784 312.121 290.784C311.611 289.22 310.761 287.554 308.891 287.554C306.273 287.554 304.267 290.648 304.267 292.926C304.267 294.558 305.253 295.612 306.953 295.612C309.061 295.612 311.475 293.912 311.475 293.912C311.475 293.912 311.577 294.49 311.781 294.694C311.951 294.898 312.257 294.966 312.495 294.966C312.665 294.966 312.835 294.932 312.903 294.83C313.073 294.728 314.365 291.226 314.365 287.622ZM326.575 285.82C326.575 288.914 319.435 293.776 319.435 293.776C319.435 293.776 319.129 292.11 319.129 289.39C319.129 288.88 319.129 288.302 319.163 287.724C319.265 285.446 319.843 283.134 319.843 283.134C320.183 283.1 320.557 283.066 320.931 283.066C323.141 283.066 325.759 283.78 326.405 285.106C326.507 285.344 326.575 285.582 326.575 285.82ZM328.513 285.65C328.513 285.378 328.445 285.072 328.343 284.834C326.847 281.502 322.053 281.264 320.625 281.264C320.353 281.264 320.183 281.264 320.183 281.264C320.829 277.728 321.373 276.81 321.373 274.702C321.373 273.104 320.659 271.982 320.047 271.982C319.401 271.982 319.197 272.424 319.197 272.832C319.197 273.41 319.469 274.09 319.469 274.498C319.469 277.456 318.313 281.638 318.313 281.638C317.803 281.876 317.327 282.318 317.327 282.692C317.429 283.508 317.871 283.644 317.871 283.644C317.497 286.33 317.395 289.968 317.395 292.11C317.395 293.13 317.395 293.81 317.429 293.878C317.667 294.354 318.381 294.388 318.619 294.388C318.687 294.388 318.721 294.388 318.721 294.388C318.721 294.388 318.687 294.558 318.687 294.762C318.687 295.442 319.333 295.884 319.877 295.884C320.319 295.884 320.285 295.544 320.795 295.034C321.441 294.422 328.513 289.016 328.513 285.65ZM333.881 282.386C333.881 281.604 333.405 281.094 332.827 281.094C331.637 281.162 331.773 283.1 331.671 284.97C331.501 288.234 331.331 290.682 331.331 292.314C331.331 293.538 331.433 294.286 331.739 294.524C332.011 294.728 332.317 294.83 332.555 294.83C333.235 294.83 333.473 294.286 333.473 293.708C333.473 293.096 333.065 293.028 333.065 291.498V290.852C333.065 289.526 333.881 283.542 333.881 282.386ZM333.949 271.098C333.949 270.554 333.575 270.146 333.099 270.146C332.215 270.146 332.487 270.928 331.773 272.39C331.365 273.274 331.195 274.056 331.195 274.668C331.195 275.144 331.297 275.824 331.807 275.824C332.045 275.824 332.249 275.688 332.419 275.518C332.759 275.178 332.521 274.6 333.031 273.342C333.473 272.254 333.915 271.676 333.949 271.234V271.098ZM342.903 271.676C342.903 271.2 342.801 270.962 342.631 270.758C342.291 270.384 342.019 270.248 341.781 270.248C341.475 270.248 341.271 270.452 341.033 270.656C340.591 271.03 340.489 273.954 340.081 278.374C339.673 282.522 338.959 289.832 338.959 293.878C338.959 295.408 339.095 296.496 339.367 296.666C339.673 296.904 339.945 296.972 340.183 296.972C340.863 296.972 340.999 295.986 340.999 295.238C340.999 294.082 340.897 292.858 340.897 291.77C340.897 289.05 341.067 285.786 341.475 282.59C342.325 275.45 342.903 272.866 342.903 271.676ZM349.088 282.386C349.088 281.604 348.612 281.094 348.034 281.094C346.844 281.162 346.98 283.1 346.878 284.97C346.708 288.234 346.538 290.682 346.538 292.314C346.538 293.538 346.64 294.286 346.946 294.524C347.218 294.728 347.524 294.83 347.762 294.83C348.442 294.83 348.68 294.286 348.68 293.708C348.68 293.096 348.272 293.028 348.272 291.498V290.852C348.272 289.526 349.088 283.542 349.088 282.386ZM349.156 271.098C349.156 270.554 348.782 270.146 348.306 270.146C347.422 270.146 347.694 270.928 346.98 272.39C346.572 273.274 346.402 274.056 346.402 274.668C346.402 275.144 346.504 275.824 347.014 275.824C347.252 275.824 347.456 275.688 347.626 275.518C347.966 275.178 347.728 274.6 348.238 273.342C348.68 272.254 349.122 271.676 349.156 271.234V271.098ZM369.228 271.098C369.228 270.554 368.854 270.146 368.378 270.146C367.494 270.146 367.766 270.928 367.052 272.39C366.644 273.274 366.474 274.056 366.474 274.668C366.474 275.144 366.576 275.824 367.086 275.824C367.324 275.824 367.528 275.654 367.698 275.484C368.038 275.144 367.8 274.6 368.31 273.342C368.752 272.254 369.194 271.676 369.228 271.234V271.098ZM367.018 281.196C366.27 281.638 366.372 283.338 366.27 284.97C366.1 288.234 365.93 290.682 365.93 292.314C365.93 293.538 366.032 294.286 366.338 294.524C366.61 294.728 366.916 294.83 367.154 294.83C367.834 294.83 368.072 294.286 368.072 293.708C368.072 293.096 367.664 293.028 367.664 291.498V290.852C367.664 289.526 368.48 283.542 368.48 282.386C368.48 281.672 368.072 281.162 367.562 281.094C367.732 281.026 367.834 280.856 367.834 280.584C367.766 279.734 366.678 279.734 365.828 279.666C365.522 279.632 364.604 279.598 364.298 279.598C361.884 279.598 359.844 280.04 359.844 280.04C360.15 277.83 360.354 277.286 360.558 275.246C360.626 274.532 360.66 273.92 360.66 273.41C360.66 271.608 360.252 270.962 359.606 270.962C358.96 270.962 358.824 271.574 358.824 272.288C358.824 272.764 358.892 273.24 358.892 273.614V273.818C358.552 277.558 358.076 280.346 358.076 280.346C356.036 280.89 355.594 281.06 353.656 281.808C351.786 282.522 351.718 282.794 351.548 283.304C351.514 283.372 351.514 283.44 351.514 283.508C351.514 283.984 351.99 284.358 352.568 284.494C353.18 284.494 354.336 283.44 354.914 283.168C356.138 282.59 357.804 282.216 357.804 282.216C357.634 283.678 357.498 284.358 357.26 286.772C356.886 290.24 356.886 292.348 356.886 293.878C356.886 294.422 357.056 295.68 358.076 295.748H358.212C358.858 295.748 359.028 295.374 359.028 294.932C359.028 294.524 358.858 294.048 358.858 293.912C358.824 293.402 358.824 292.824 358.824 292.246C358.824 287.724 359.538 282.25 359.572 281.842C360.796 281.57 363.142 281.094 365.862 281.094C366.134 281.094 366.61 281.196 367.018 281.196ZM380.212 282.59C379.158 283.542 378.58 283.916 377.696 284.426C375.588 285.718 373.684 285.82 373.684 285.82C373.684 285.82 374.738 284.426 376.472 283.542C377.696 282.896 378.954 282.59 380.212 282.59ZM386.91 288.472C386.91 287.894 386.4 287.384 385.89 287.384C385.312 287.384 384.938 288.268 384.734 288.642C384.394 289.118 379.124 293.436 376.438 293.436C374.942 293.436 374.296 292.62 373.684 291.634C372.936 290.478 372.766 289.424 372.766 288.71C372.766 288.098 372.868 287.724 372.868 287.724C373.82 287.656 375.894 287.452 378.002 286.16C379.94 285.004 382.83 282.828 382.83 281.978C382.83 281.876 382.796 281.808 382.694 281.74C381.878 281.196 380.892 280.958 379.77 280.958C376.2 280.958 371.814 283.576 370.93 287.418C370.828 287.826 370.794 288.234 370.794 288.642C370.794 291.158 372.358 293.844 374.568 294.864C375.01 295.068 375.52 295.17 376.064 295.17C379.906 295.17 385.38 290.172 386.128 289.764C386.57 289.458 386.91 288.948 386.91 288.472ZM397.699 278.952V278.816C397.665 278.408 396.475 277.796 396.033 277.592C395.829 277.49 395.557 277.422 395.251 277.422C394.809 277.422 394.265 277.558 393.857 277.898C391.613 279.768 387.329 282.964 387.329 286.704C387.329 291.804 395.149 291.464 395.625 293.13C395.625 294.354 390.695 296.02 390.491 296.36C390.355 296.53 390.287 296.7 390.287 296.87C390.287 297.346 390.797 297.754 391.511 297.788C392.021 297.788 397.597 294.864 397.597 293.47C397.597 291.362 395.659 291.022 393.585 290.206C391.341 289.356 389.097 288.676 389.097 286.704C389.097 285.65 389.947 283.678 391.477 282.318C394.163 279.904 394.537 279.19 395.693 279.156C395.965 279.156 396.339 279.564 396.985 279.564C397.495 279.564 397.699 279.292 397.699 278.952Z" fill="#33778F"/>
<path d="M554.21 317.891C554.21 320.169 548.09 323.025 544.894 324.351C543.534 324.929 542.14 325.201 542.14 325.201C542.14 325.201 542.446 322.889 542.718 321.597C542.922 320.577 543.024 319.591 543.058 318.945C543.16 319.251 543.398 319.387 543.602 319.387C543.738 319.387 543.84 319.319 543.942 319.251C544.86 318.435 549.62 317.075 552.34 317.075C553.428 317.075 554.21 317.313 554.21 317.891ZM562.472 337.883C562.472 336.931 561.418 336.489 560.874 336.421C559.888 336.285 554.278 334.381 547.002 329.621C545.336 328.533 543.534 326.799 543.534 326.799C551.252 323.773 556.216 320.577 556.216 317.823V317.653C556.046 315.715 554.55 315.069 552.612 315.069C548.702 315.069 543.024 317.721 543.024 317.721C542.854 317.143 542.548 316.667 541.902 316.667C540.882 316.667 540.406 317.449 540.406 318.265C540.406 318.707 540.474 319.149 540.542 319.557V320.033C540.542 321.631 540.168 325.609 540.168 325.609L539.828 325.711L540.134 326.323C539.93 330.641 539.318 336.081 539.318 338.359C539.318 338.903 539.352 339.277 539.454 339.379C539.692 339.651 540.032 339.787 540.406 339.787C541.154 339.787 541.732 339.209 541.732 338.529C541.732 337.849 541.29 337.101 541.29 336.387C541.392 332.817 541.834 327.785 541.834 327.785C543.534 329.179 544.282 329.995 547.002 331.763C554.142 336.421 559.684 337.985 559.956 338.325C560.194 338.631 560.874 338.869 561.418 338.869C562.098 338.869 562.472 338.529 562.472 337.883ZM568.2 326.391C567.146 327.343 566.568 327.717 565.684 328.227C563.576 329.519 561.672 329.621 561.672 329.621C561.672 329.621 562.726 328.227 564.46 327.343C565.684 326.697 566.942 326.391 568.2 326.391ZM574.898 332.273C574.898 331.695 574.388 331.185 573.878 331.185C573.3 331.185 572.926 332.069 572.722 332.443C572.382 332.919 567.112 337.237 564.426 337.237C562.93 337.237 562.284 336.421 561.672 335.435C560.924 334.279 560.754 333.225 560.754 332.511C560.754 331.899 560.856 331.525 560.856 331.525C561.808 331.457 563.882 331.253 565.99 329.961C567.928 328.805 570.818 326.629 570.818 325.779C570.818 325.677 570.784 325.609 570.682 325.541C569.866 324.997 568.88 324.759 567.758 324.759C564.188 324.759 559.802 327.377 558.918 331.219C558.816 331.627 558.782 332.035 558.782 332.443C558.782 334.959 560.346 337.645 562.556 338.665C562.998 338.869 563.508 338.971 564.052 338.971C567.894 338.971 573.368 333.973 574.116 333.565C574.558 333.259 574.898 332.749 574.898 332.273ZM591.433 322.923C591.433 322.413 591.093 321.699 590.549 321.699C589.835 321.699 589.223 323.059 589.087 323.399C588.985 323.739 586.265 327.275 584.157 330.097C582.049 332.987 580.043 335.979 580.043 335.979C579.703 334.891 579.567 334.177 579.397 333.531C578.819 331.253 578.955 330.811 578.479 329.111C578.037 327.547 577.187 326.391 576.473 326.391C576.065 326.391 575.827 326.697 575.827 327.037C575.827 327.751 576.405 329.009 576.643 329.723C576.983 330.607 577.561 333.599 578.411 336.625C578.615 337.339 578.785 338.563 579.499 338.937C579.669 339.005 579.839 339.073 579.975 339.073C580.791 339.073 581.437 337.951 581.743 337.237C582.287 336.013 588.067 327.309 589.563 326.017C590.515 325.235 591.433 323.977 591.433 322.923ZM598.713 326.391C597.659 327.343 597.081 327.717 596.197 328.227C594.089 329.519 592.185 329.621 592.185 329.621C592.185 329.621 593.239 328.227 594.973 327.343C596.197 326.697 597.455 326.391 598.713 326.391ZM605.411 332.273C605.411 331.695 604.901 331.185 604.391 331.185C603.813 331.185 603.439 332.069 603.235 332.443C602.895 332.919 597.625 337.237 594.939 337.237C593.443 337.237 592.797 336.421 592.185 335.435C591.437 334.279 591.267 333.225 591.267 332.511C591.267 331.899 591.369 331.525 591.369 331.525C592.321 331.457 594.395 331.253 596.503 329.961C598.441 328.805 601.331 326.629 601.331 325.779C601.331 325.677 601.297 325.609 601.195 325.541C600.379 324.997 599.393 324.759 598.271 324.759C594.701 324.759 590.315 327.377 589.431 331.219C589.329 331.627 589.295 332.035 589.295 332.443C589.295 334.959 590.859 337.645 593.069 338.665C593.511 338.869 594.021 338.971 594.565 338.971C598.407 338.971 603.881 333.973 604.629 333.565C605.071 333.259 605.411 332.749 605.411 332.273ZM617.255 339.651C617.255 339.107 616.915 338.461 616.677 337.985C616.609 337.747 616.575 337.135 616.575 335.775V331.865C616.575 327.445 616.405 324.283 614.807 323.943H614.671C612.563 323.943 608.959 331.763 608.959 331.763C608.925 331.491 608.925 331.287 608.925 331.117C608.925 330.675 608.993 330.267 608.993 329.281C608.993 327.309 609.333 326.017 609.333 325.269C609.333 324.997 609.299 324.827 609.197 324.691C608.993 324.419 608.551 324.147 608.109 324.147C607.769 324.147 607.463 324.351 607.361 324.929C607.293 325.405 606.987 327.853 606.919 331.049C606.851 334.721 606.647 336.693 606.647 337.781C606.647 338.325 606.715 338.665 606.851 338.903C607.089 339.209 607.361 339.311 607.599 339.311C607.837 339.311 608.075 339.209 608.245 339.141C608.653 338.835 608.619 337.951 609.639 335.197C611.169 331.049 613.685 326.357 614.297 326.357C614.705 326.357 614.739 329.111 614.739 329.519L614.705 332.817C614.705 335.877 615.045 337.475 615.045 338.189C615.045 338.529 614.943 338.733 614.943 338.971C614.943 339.889 615.793 340.501 616.473 340.501C616.983 340.501 617.255 340.059 617.255 339.651ZM628.909 326.731C628.909 326.731 628.841 325.371 627.957 325.371C626.903 325.371 626.869 326.119 626.869 326.595C626.835 327.479 626.257 332.987 624.557 335.979C624.319 336.387 624.081 336.557 623.877 336.557C622.721 336.557 621.531 332.239 621.531 326.799C621.531 326.357 621.565 325.915 621.565 325.439C621.565 324.997 621.293 324.147 620.545 324.147H620.375C620.001 324.147 619.695 324.419 619.695 325.235C619.729 326.493 619.831 338.665 623.843 338.665C624.149 338.665 624.523 338.563 624.897 338.393C626.937 337.441 628.909 327.377 628.909 326.731ZM639.918 326.391C638.864 327.343 638.286 327.717 637.402 328.227C635.294 329.519 633.39 329.621 633.39 329.621C633.39 329.621 634.444 328.227 636.178 327.343C637.402 326.697 638.66 326.391 639.918 326.391ZM646.616 332.273C646.616 331.695 646.106 331.185 645.596 331.185C645.018 331.185 644.644 332.069 644.44 332.443C644.1 332.919 638.83 337.237 636.144 337.237C634.648 337.237 634.002 336.421 633.39 335.435C632.642 334.279 632.472 333.225 632.472 332.511C632.472 331.899 632.574 331.525 632.574 331.525C633.526 331.457 635.6 331.253 637.708 329.961C639.646 328.805 642.536 326.629 642.536 325.779C642.536 325.677 642.502 325.609 642.4 325.541C641.584 324.997 640.598 324.759 639.476 324.759C635.906 324.759 631.52 327.377 630.636 331.219C630.534 331.627 630.5 332.035 630.5 332.443C630.5 334.959 632.064 337.645 634.274 338.665C634.716 338.869 635.226 338.971 635.77 338.971C639.612 338.971 645.086 333.973 645.834 333.565C646.276 333.259 646.616 332.749 646.616 332.273Z" fill="#33778F"/>
<path d="M362.292 418.635C362.292 417.989 361.714 417.513 361.136 417.513C360.456 417.513 359.708 417.955 359.402 418.091C358.654 418.431 348.93 424.041 343.15 424.041C342.062 424.041 341.11 423.837 340.362 423.361C339.036 422.511 338.492 421.287 338.492 419.893C338.492 414.283 347.434 405.783 351.786 404.865C352.534 404.695 353.588 404.491 353.588 403.675C353.588 402.859 353.112 402.553 352.466 402.553C351.752 402.553 350.936 402.893 350.664 402.995C344.986 405.273 336.588 413.433 336.588 419.791C336.588 421.661 337.336 423.395 339.07 424.755C340.022 425.503 341.314 425.809 342.776 425.809C349.1 425.809 358.824 420.063 360.32 419.859C360.32 419.859 362.292 419.655 362.292 418.635ZM368.769 423.293C368.769 423.293 366.491 425.197 364.825 425.197C363.975 425.197 363.669 424.721 363.669 423.973C363.669 422.273 365.097 420.437 366.797 420.437C367.919 420.437 368.769 423.293 368.769 423.293ZM372.169 418.805C372.169 416.153 371.489 413.433 369.143 411.971C368.599 411.631 367.953 411.495 367.239 411.495C365.267 411.495 363.057 412.651 363.057 413.807C363.091 414.419 363.669 414.657 364.043 414.657C364.213 414.657 364.315 414.623 364.315 414.487C364.383 414.011 365.709 413.093 367.069 413.093C369.755 413.093 370.469 416.901 370.469 418.873C370.469 420.709 369.925 421.967 369.925 421.967C369.415 420.403 368.565 418.737 366.695 418.737C364.077 418.737 362.071 421.831 362.071 424.109C362.071 425.741 363.057 426.795 364.757 426.795C366.865 426.795 369.279 425.095 369.279 425.095C369.279 425.095 369.381 425.673 369.585 425.877C369.755 426.081 370.061 426.149 370.299 426.149C370.469 426.149 370.639 426.115 370.707 426.013C370.877 425.911 372.169 422.409 372.169 418.805ZM384.482 410.135V409.999C384.448 409.591 383.258 408.979 382.816 408.775C382.612 408.673 382.34 408.605 382.034 408.605C381.592 408.605 381.048 408.741 380.64 409.081C378.396 410.951 374.112 414.147 374.112 417.887C374.112 422.987 381.932 422.647 382.408 424.313C382.408 425.537 377.478 427.203 377.274 427.543C377.138 427.713 377.07 427.883 377.07 428.053C377.07 428.529 377.58 428.937 378.294 428.971C378.804 428.971 384.38 426.047 384.38 424.653C384.38 422.545 382.442 422.205 380.368 421.389C378.124 420.539 375.88 419.859 375.88 417.887C375.88 416.833 376.73 414.861 378.26 413.501C380.946 411.087 381.32 410.373 382.476 410.339C382.748 410.339 383.122 410.747 383.768 410.747C384.278 410.747 384.482 410.475 384.482 410.135ZM400.047 420.539C400.047 417.105 399.639 413.467 397.803 412.821C397.497 412.719 397.191 412.685 396.885 412.685C393.349 412.685 388.759 418.669 388.759 418.669C388.895 415.575 389.133 412.753 389.405 409.931C389.643 407.279 390.153 405.511 390.153 404.457C390.153 403.675 389.847 403.233 388.963 403.233C387.773 403.233 388.079 406.157 387.467 411.767C386.549 420.165 386.957 424.313 386.583 425.095C386.379 425.537 386.141 426.047 386.141 426.523C386.141 427.237 386.685 427.645 387.297 427.645C387.909 427.645 388.589 427.271 388.589 426.013C388.589 425.605 388.521 425.231 388.521 424.857C388.521 423.939 388.657 422.341 389.405 420.743C390.357 418.703 394.607 414.555 396.647 414.555C396.851 414.555 397.055 414.589 397.191 414.691C397.939 415.167 398.177 418.159 398.177 420.709C398.177 422.545 398.041 423.701 398.041 424.653C398.041 425.537 398.279 426.251 399.095 426.251C399.877 426.251 400.013 425.945 400.013 425.469C400.013 425.129 399.945 424.653 399.945 424.109C399.945 423.123 400.047 421.695 400.047 420.539Z" fill="#33778F"/>
<path d="M150.755 112.689C150.721 115.987 136.203 121.631 136.203 121.631L136.441 117.313C136.509 115.953 136.713 113.097 136.713 113.097C137.835 113.029 138.991 112.927 139.909 112.723C140.623 112.553 144.907 111.975 147.899 111.975C149.531 111.975 150.755 112.145 150.755 112.689ZM153.203 112.315C153.203 111.941 153.067 111.567 152.829 111.227C152.319 110.547 150.483 110.309 148.239 110.309C143.989 110.309 138.277 111.125 137.291 111.125C136.407 111.023 136.475 110.513 135.625 110.513C134.945 110.513 134.333 111.329 134.333 112.009C134.333 112.111 134.367 112.247 134.401 112.349C134.537 112.723 134.605 113.573 134.605 114.559C134.605 115.545 134.537 116.701 134.503 117.585C134.401 119.387 134.061 123.467 134.061 123.467C133.857 123.739 133.857 123.977 133.857 124.147C133.857 124.351 134.061 124.793 134.061 124.793C133.823 128.907 133.891 130.947 133.721 132.885C133.687 133.225 133.653 133.565 133.653 133.871C133.653 134.551 133.993 135.061 134.639 135.061C135.183 135.061 135.829 134.687 135.829 133.531C135.829 133.293 135.795 132.987 135.727 132.647C135.659 132.341 135.625 131.763 135.625 131.015C135.625 128.363 135.965 123.807 135.965 123.807C140.079 122.073 153.203 116.259 153.203 112.315ZM161.95 121.325C161.95 120.917 161.678 120.509 161.474 120.441C160.896 120.237 160.386 120.169 159.91 120.169C157.87 120.169 156.476 121.733 155.218 122.923C153.042 124.929 150.696 128.057 150.696 128.057C150.696 125.779 150.696 125.133 150.662 123.943C150.594 121.869 150.492 121.087 149.982 120.611C149.71 120.373 149.472 120.271 149.234 120.271C148.894 120.271 148.214 120.679 148.214 121.053C148.214 121.461 148.962 122.175 148.962 126.425C148.962 127.105 148.928 127.853 148.894 128.737C148.758 131.355 148.35 133.089 148.35 134.109C148.35 134.551 148.418 134.857 148.622 135.061C148.86 135.299 149.2 135.469 149.54 135.469C149.812 135.469 150.084 135.367 150.288 135.095C150.73 134.517 150.288 131.899 151.546 129.995C153.994 126.289 156.578 123.399 158.72 122.141C159.06 121.937 159.366 121.869 159.604 121.869C160.148 121.869 160.522 122.175 160.964 122.175C161.474 122.175 161.95 121.767 161.95 121.325ZM166.348 122.957C168.218 122.957 169.034 125.133 169.034 126.629C169.034 127.819 168.626 129.009 168.048 130.131C167.402 131.355 165.26 133.225 163.696 133.225C162.132 133.225 161.486 131.015 161.486 129.791C161.486 129.315 161.554 128.839 161.69 128.465C163.424 123.331 166.076 122.957 166.348 122.957ZM170.734 127.037C170.734 126.663 170.7 126.323 170.666 125.915C170.292 122.209 167.436 121.019 166.076 121.019C164.104 121.019 162.132 122.821 160.228 127.139C159.82 128.057 159.65 128.941 159.65 129.825C159.65 132.069 160.908 134.993 163.322 134.993C166.178 134.993 170.734 131.899 170.734 127.037ZM183.265 129.893C180.545 131.457 177.349 133.565 175.207 133.565C174.017 133.565 173.167 132.817 173.167 131.695C173.167 129.009 177.009 124.487 179.763 124.487C180.069 124.487 180.375 124.521 180.647 124.657C182.755 125.575 183.265 129.893 183.265 129.893ZM187.889 112.621C187.889 111.737 187.175 110.921 186.155 110.921C185.747 110.921 185.577 111.261 185.577 111.805C185.577 112.213 185.611 112.621 185.781 113.165C185.815 113.267 185.815 113.335 185.815 113.437C185.815 115.239 184.421 126.595 184.421 126.595C183.537 124.997 182.959 123.399 180.239 122.821C180.103 122.787 179.899 122.787 179.729 122.787C176.601 122.787 171.399 127.479 171.399 131.559C171.399 133.701 172.725 135.333 174.969 135.333C178.539 135.333 183.503 131.933 183.503 131.933C183.775 132.919 183.401 134.007 185.033 134.245C185.611 134.245 185.747 133.531 185.747 132.749C185.747 131.797 185.543 130.743 185.543 130.743C186.699 130.267 187.617 130.301 187.617 129.383C187.617 129.247 187.617 129.111 187.549 128.907C187.379 128.193 186.121 128.091 186.121 128.091C186.359 123.161 187.515 113.913 187.753 113.267C187.855 113.063 187.889 112.825 187.889 112.621ZM199.264 122.787C199.264 122.787 199.196 121.427 198.312 121.427C197.258 121.427 197.224 122.175 197.224 122.651C197.19 123.535 196.612 129.043 194.912 132.035C194.674 132.443 194.436 132.613 194.232 132.613C193.076 132.613 191.886 128.295 191.886 122.855C191.886 122.413 191.92 121.971 191.92 121.495C191.92 121.053 191.648 120.203 190.9 120.203H190.73C190.356 120.203 190.05 120.475 190.05 121.291C190.084 122.549 190.186 134.721 194.198 134.721C194.504 134.721 194.878 134.619 195.252 134.449C197.292 133.497 199.264 123.433 199.264 122.787ZM218.11 128.499C218.11 128.125 217.804 127.751 217.396 127.751C217.294 127.751 217.192 127.785 217.09 127.819C216.716 127.955 208.59 133.293 204.306 133.293C202.844 133.293 201.688 132.477 201.688 131.049C201.688 128.091 206.108 123.569 206.89 123.331C206.958 123.297 207.06 123.297 207.162 123.297C207.57 123.297 207.944 123.467 208.284 123.467C208.93 123.467 209.644 122.447 209.644 121.835C209.644 121.359 209.304 121.019 208.488 121.019C208.318 121.019 208.114 121.019 207.91 121.053C204.952 121.495 199.818 127.411 199.818 131.355C199.818 133.735 202.062 134.857 204.068 134.857C209.61 134.857 218.076 128.941 218.11 128.635V128.499ZM231.516 120.441C231.448 119.489 230.224 119.523 229.51 119.489C229.204 119.489 228.898 119.455 228.592 119.455C226.178 119.455 224.138 119.897 224.138 119.897C224.444 117.687 224.648 117.143 224.852 115.103C224.92 114.389 224.954 113.777 224.954 113.267C224.954 111.465 224.546 110.819 223.9 110.819C223.254 110.819 223.118 111.431 223.118 112.145C223.118 112.621 223.186 113.097 223.186 113.675C223.186 114.831 222.37 120.203 222.37 120.203C220.33 120.747 219.888 120.917 217.95 121.665C216.08 122.379 216.012 122.617 215.842 123.127C215.808 123.229 215.808 123.297 215.808 123.365C215.808 123.841 216.488 124.351 216.862 124.351C217.474 124.351 218.63 123.297 219.208 123.025C220.432 122.447 222.098 122.073 222.098 122.073C221.928 123.535 221.792 124.215 221.554 126.629C221.18 130.097 221.18 132.205 221.18 133.735C221.18 134.279 221.35 135.537 222.37 135.605H222.506C223.152 135.605 223.322 135.231 223.322 134.789C223.322 134.381 223.152 133.905 223.152 133.769C223.118 133.259 223.118 132.681 223.118 132.103C223.118 127.581 223.832 122.107 223.866 121.699C225.09 121.427 227.436 120.951 229.544 120.951C229.816 120.951 230.292 121.053 230.7 121.053C231.142 121.053 231.516 120.951 231.516 120.441ZM240.576 118.809V118.673C240.542 118.265 239.352 117.653 238.91 117.449C238.706 117.347 238.434 117.279 238.128 117.279C237.686 117.279 237.142 117.415 236.734 117.755C234.49 119.625 230.206 122.821 230.206 126.561C230.206 131.661 238.026 131.321 238.502 132.987C238.502 134.211 233.572 135.877 233.368 136.217C233.232 136.387 233.164 136.557 233.164 136.727C233.164 137.203 233.674 137.611 234.388 137.645C234.898 137.645 240.474 134.721 240.474 133.327C240.474 131.219 238.536 130.879 236.462 130.063C234.218 129.213 231.974 128.533 231.974 126.561C231.974 125.507 232.824 123.535 234.354 122.175C237.04 119.761 237.414 119.047 238.57 119.013C238.842 119.013 239.216 119.421 239.862 119.421C240.372 119.421 240.576 119.149 240.576 118.809ZM138.889 158.957C140.759 158.957 141.575 161.133 141.575 162.629C141.575 163.819 141.167 165.009 140.589 166.131C139.943 167.355 137.801 169.225 136.237 169.225C134.673 169.225 134.027 167.015 134.027 165.791C134.027 165.315 134.095 164.839 134.231 164.465C135.965 159.331 138.617 158.957 138.889 158.957ZM143.275 163.037C143.275 162.663 143.241 162.323 143.207 161.915C142.833 158.209 139.977 157.019 138.617 157.019C136.645 157.019 134.673 158.821 132.769 163.139C132.361 164.057 132.191 164.941 132.191 165.825C132.191 168.069 133.449 170.993 135.863 170.993C138.719 170.993 143.275 167.899 143.275 163.037ZM155.488 158.345C155.488 159.059 155.454 159.637 155.454 160.215C155.454 160.215 153.584 160.419 149.436 161.133C149.436 160.555 149.402 160.045 149.402 159.331C149.402 154.741 151.17 148.485 156.474 148.485C157.154 148.485 157.8 148.621 158.174 148.961C156.644 150.729 155.488 153.687 155.488 158.345ZM162.526 148.247C162.934 148.247 163.376 148.349 163.886 148.519C164.09 148.587 164.634 148.995 165.11 148.995C165.416 148.995 165.824 148.893 165.824 148.213C165.824 146.887 163.58 146.615 162.696 146.615C161.506 146.615 160.384 147.159 159.5 147.737C158.616 147.125 157.494 146.853 156.474 146.853C154.808 146.853 153.04 147.295 151.51 148.621C149.368 150.491 147.6 153.585 147.6 159.059V161.609C145.73 162.187 144.574 162.799 144.03 163.343C143.826 163.581 143.724 163.819 143.724 164.057C143.724 164.669 144.302 165.247 144.914 165.247C145.22 165.247 145.526 165.077 145.764 164.737C146.41 163.785 146.716 163.683 147.702 163.309C147.736 164.805 147.804 166.369 147.804 167.933C147.804 169.259 147.77 170.551 147.668 171.877C147.464 175.209 146.478 179.969 146.24 180.275C146.036 180.513 145.968 180.853 145.968 181.159C145.968 181.975 146.58 182.349 147.26 182.349C148.042 182.349 148.416 181.737 148.416 181.261C148.416 181.159 148.416 181.057 148.382 180.819C148.382 179.901 149.368 176.671 149.504 171.775C149.538 170.857 149.538 169.939 149.538 169.021C149.538 167.049 149.504 165.077 149.47 162.833C151.578 162.459 155.658 161.915 155.488 161.915C155.488 165.111 155.352 167.967 154.876 171.877C154.332 176.467 153.38 179.969 153.142 180.275C152.904 180.547 152.768 180.921 152.768 181.261C152.768 182.043 153.38 182.349 154.026 182.349C154.774 182.349 155.148 181.703 155.148 181.227C155.114 180.955 155.114 180.887 155.114 180.819C155.114 179.935 156.1 176.331 156.78 171.775C157.188 168.851 157.324 164.771 157.324 161.677C158.14 161.575 158.65 161.507 159.84 161.507C160.452 161.507 161.166 161.507 162.084 161.473C162.73 161.439 163.614 161.371 163.648 160.453C163.648 159.773 163.07 159.331 162.492 159.331C162.288 159.331 162.118 159.365 161.948 159.501C161.37 159.909 158.854 159.773 157.324 159.977C157.324 159.195 157.29 158.515 157.29 157.937C157.29 154.741 157.97 151.851 159.33 150.083H159.466C160.01 150.083 160.418 149.743 160.418 149.267C160.418 149.165 160.384 149.029 160.384 149.029C160.384 149.029 161.2 148.247 162.526 148.247ZM174.579 158.447C173.525 159.399 172.947 159.773 172.063 160.283C169.955 161.575 168.051 161.677 168.051 161.677C168.051 161.677 169.105 160.283 170.839 159.399C172.063 158.753 173.321 158.447 174.579 158.447ZM181.277 164.329C181.277 163.751 180.767 163.241 180.257 163.241C179.679 163.241 179.305 164.125 179.101 164.499C178.761 164.975 173.491 169.293 170.805 169.293C169.309 169.293 168.663 168.477 168.051 167.491C167.303 166.335 167.133 165.281 167.133 164.567C167.133 163.955 167.235 163.581 167.235 163.581C168.187 163.513 170.261 163.309 172.369 162.017C174.307 160.861 177.197 158.685 177.197 157.835C177.197 157.733 177.163 157.665 177.061 157.597C176.245 157.053 175.259 156.815 174.137 156.815C170.567 156.815 166.181 159.433 165.297 163.275C165.195 163.683 165.161 164.091 165.161 164.499C165.161 167.015 166.725 169.701 168.935 170.721C169.377 170.925 169.887 171.027 170.431 171.027C174.273 171.027 179.747 166.029 180.495 165.621C180.937 165.315 181.277 164.805 181.277 164.329ZM196.248 157.325C196.248 156.917 195.976 156.509 195.772 156.441C195.194 156.237 194.684 156.169 194.208 156.169C192.168 156.169 190.774 157.733 189.516 158.923C187.34 160.929 184.994 164.057 184.994 164.057C184.994 161.779 184.994 161.133 184.96 159.943C184.892 157.869 184.79 157.087 184.28 156.611C184.008 156.373 183.77 156.271 183.532 156.271C183.192 156.271 182.512 156.679 182.512 157.053C182.512 157.461 183.26 158.175 183.26 162.425C183.26 163.105 183.226 163.853 183.192 164.737C183.056 167.355 182.648 169.089 182.648 170.109C182.648 170.551 182.716 170.857 182.92 171.061C183.158 171.299 183.498 171.469 183.838 171.469C184.11 171.469 184.382 171.367 184.586 171.095C185.028 170.517 184.586 167.899 185.844 165.995C188.292 162.289 190.876 159.399 193.018 158.141C193.358 157.937 193.664 157.869 193.902 157.869C194.446 157.869 194.82 158.175 195.262 158.175C195.772 158.175 196.248 157.767 196.248 157.325ZM203.566 158.447C202.512 159.399 201.934 159.773 201.05 160.283C198.942 161.575 197.038 161.677 197.038 161.677C197.038 161.677 198.092 160.283 199.826 159.399C201.05 158.753 202.308 158.447 203.566 158.447ZM210.264 164.329C210.264 163.751 209.754 163.241 209.244 163.241C208.666 163.241 208.292 164.125 208.088 164.499C207.748 164.975 202.478 169.293 199.792 169.293C198.296 169.293 197.65 168.477 197.038 167.491C196.29 166.335 196.12 165.281 196.12 164.567C196.12 163.955 196.222 163.581 196.222 163.581C197.174 163.513 199.248 163.309 201.356 162.017C203.294 160.861 206.184 158.685 206.184 157.835C206.184 157.733 206.15 157.665 206.048 157.597C205.232 157.053 204.246 156.815 203.124 156.815C199.554 156.815 195.168 159.433 194.284 163.275C194.182 163.683 194.148 164.091 194.148 164.499C194.148 167.015 195.712 169.701 197.922 170.721C198.364 170.925 198.874 171.027 199.418 171.027C203.26 171.027 208.734 166.029 209.482 165.621C209.924 165.315 210.264 164.805 210.264 164.329ZM221.847 165.893C219.127 167.457 215.931 169.565 213.789 169.565C212.599 169.565 211.749 168.817 211.749 167.695C211.749 165.009 215.591 160.487 218.345 160.487C218.651 160.487 218.957 160.521 219.229 160.657C221.337 161.575 221.847 165.893 221.847 165.893ZM226.471 148.621C226.471 147.737 225.757 146.921 224.737 146.921C224.329 146.921 224.159 147.261 224.159 147.805C224.159 148.213 224.193 148.621 224.363 149.165C224.397 149.267 224.397 149.335 224.397 149.437C224.397 151.239 223.003 162.595 223.003 162.595C222.119 160.997 221.541 159.399 218.821 158.821C218.685 158.787 218.481 158.787 218.311 158.787C215.183 158.787 209.981 163.479 209.981 167.559C209.981 169.701 211.307 171.333 213.551 171.333C217.121 171.333 222.085 167.933 222.085 167.933C222.357 168.919 221.983 170.007 223.615 170.245C224.193 170.245 224.329 169.531 224.329 168.749C224.329 167.797 224.125 166.743 224.125 166.743C225.281 166.267 226.199 166.301 226.199 165.383C226.199 165.247 226.199 165.111 226.131 164.907C225.961 164.193 224.703 164.091 224.703 164.091C224.941 159.161 226.097 149.913 226.335 149.267C226.437 149.063 226.471 148.825 226.471 148.621Z" fill="#33778F"/>
<path d="M556.765 82.2159L557.918 81.1082L556.765 82.2159ZM577.284 127.294C578.05 127.733 579.026 127.467 579.465 126.701L586.613 114.216C587.051 113.45 586.786 112.473 586.019 112.035C585.253 111.596 584.277 111.862 583.838 112.628L577.485 123.725L566.387 117.372C565.621 116.933 564.644 117.199 564.206 117.965C563.767 118.731 564.033 119.708 564.799 120.146L577.284 127.294ZM482.171 59.8377C482.158 61.4361 482.157 61.4361 482.158 61.4361C482.158 61.4361 482.158 61.4361 482.159 61.4361C482.16 61.4361 482.162 61.4361 482.165 61.4361C482.17 61.4362 482.179 61.4363 482.191 61.4364C482.215 61.4367 482.252 61.4372 482.301 61.4379C482.4 61.4394 482.548 61.4419 482.742 61.4462C483.132 61.4547 483.709 61.47 484.453 61.4973C485.941 61.5518 488.095 61.6542 490.748 61.8451C496.055 62.2273 503.346 62.9633 511.284 64.3779C527.271 67.2268 545.458 72.759 555.613 83.3236L557.918 81.1082C546.996 69.7462 527.886 64.0892 511.845 61.2306C503.769 59.7915 496.363 59.0443 490.977 58.6565C488.283 58.4625 486.091 58.3583 484.57 58.3025C483.81 58.2746 483.217 58.2588 482.812 58.25C482.61 58.2456 482.455 58.2429 482.349 58.2414C482.296 58.2406 482.256 58.2401 482.229 58.2397C482.215 58.2396 482.204 58.2395 482.197 58.2394C482.193 58.2394 482.19 58.2393 482.188 58.2393C482.187 58.2393 482.186 58.2393 482.186 58.2393C482.185 58.2393 482.185 58.2393 482.171 59.8377ZM555.613 83.3236C561.963 89.93 567.198 100.604 570.871 109.787C572.695 114.351 574.114 118.492 575.076 121.493C575.556 122.992 575.922 124.205 576.168 125.041C576.291 125.459 576.383 125.783 576.445 126.001C576.475 126.11 576.498 126.192 576.514 126.247C576.521 126.274 576.527 126.295 576.53 126.308C576.532 126.314 576.533 126.319 576.534 126.322C576.535 126.324 576.535 126.325 576.535 126.326C576.535 126.326 576.535 126.326 576.535 126.326C576.535 126.326 576.535 126.326 578.078 125.907C579.62 125.487 579.62 125.487 579.62 125.487C579.62 125.486 579.62 125.486 579.62 125.485C579.619 125.484 579.619 125.482 579.618 125.48C579.617 125.476 579.615 125.47 579.613 125.462C579.609 125.446 579.603 125.424 579.594 125.394C579.578 125.334 579.554 125.246 579.521 125.132C579.457 124.904 579.361 124.57 579.235 124.14C578.983 123.282 578.609 122.044 578.12 120.517C577.141 117.464 575.698 113.249 573.839 108.6C570.144 99.3601 564.723 88.1886 557.918 81.1082L555.613 83.3236Z" fill="#AFAF3F"/>
<path d="M612.178 244.725L613.749 245.016L612.178 244.725ZM590.421 301.196C590.711 302.029 591.623 302.47 592.456 302.18L606.043 297.451C606.877 297.16 607.317 296.249 607.027 295.416C606.737 294.582 605.826 294.141 604.992 294.431L592.915 298.635L588.711 286.558C588.421 285.725 587.51 285.284 586.676 285.574C585.842 285.864 585.402 286.776 585.692 287.609L590.421 301.196ZM612.178 178.123C610.59 178.306 610.59 178.306 610.59 178.307C610.59 178.307 610.59 178.307 610.59 178.308C610.59 178.309 610.59 178.31 610.591 178.313C610.591 178.317 610.592 178.324 610.593 178.334C610.595 178.353 610.599 178.382 610.603 178.42C610.612 178.497 610.624 178.612 610.641 178.764C610.674 179.067 610.723 179.517 610.782 180.099C610.902 181.264 611.068 182.958 611.253 185.072C611.622 189.301 612.065 195.205 612.361 201.904C612.953 215.337 612.944 231.835 610.606 244.433L613.749 245.016C616.158 232.041 616.149 215.238 615.555 201.763C615.257 195.008 614.81 189.057 614.438 184.794C614.251 182.662 614.084 180.951 613.963 179.772C613.902 179.183 613.853 178.726 613.819 178.416C613.802 178.261 613.789 178.142 613.78 178.062C613.775 178.022 613.772 177.992 613.769 177.971C613.768 177.961 613.767 177.953 613.767 177.948C613.766 177.945 613.766 177.943 613.766 177.942C613.766 177.941 613.766 177.94 613.766 177.94C613.766 177.939 613.766 177.939 612.178 178.123ZM610.606 244.433C608.518 255.687 603.509 269.548 598.984 280.661C596.728 286.204 594.603 291.036 593.042 294.482C592.262 296.205 591.623 297.58 591.18 298.524C590.959 298.996 590.786 299.36 590.669 299.605C590.61 299.728 590.566 299.821 590.536 299.883C590.521 299.914 590.51 299.937 590.503 299.952C590.499 299.96 590.496 299.966 590.494 299.969C590.493 299.971 590.493 299.972 590.492 299.973C590.492 299.974 590.492 299.974 590.492 299.974C590.492 299.974 590.492 299.974 591.931 300.67C593.37 301.366 593.37 301.366 593.37 301.366C593.37 301.365 593.371 301.365 593.371 301.364C593.371 301.363 593.372 301.361 593.373 301.359C593.375 301.355 593.378 301.348 593.382 301.34C593.39 301.324 593.402 301.299 593.418 301.267C593.449 301.202 593.495 301.106 593.554 300.981C593.674 300.73 593.849 300.361 594.074 299.883C594.523 298.927 595.168 297.538 595.954 295.801C597.528 292.326 599.67 287.456 601.945 281.867C606.484 270.718 611.598 256.607 613.749 245.016L610.606 244.433Z" fill="#AFAF3F"/>
<path d="M586.043 274.832C586.043 274.31 585.484 273.974 585.036 273.974C583.955 273.974 580.3 274.795 578.211 275.317C576.831 275.652 574.966 276.249 572.989 276.921C572.952 274.832 572.952 273.042 572.952 272.482C572.915 271.214 572.654 270.58 571.982 270.58C571.833 270.58 571.647 270.617 571.46 270.692C571.162 270.804 570.863 271.811 570.863 272.445C570.901 272.781 570.938 275.018 571.013 277.555C567.544 278.748 564.225 279.979 564.113 280.24C564.001 280.389 563.963 280.576 563.963 280.725C563.963 281.322 564.56 281.844 564.896 281.844C564.933 281.844 565.008 281.844 565.045 281.806C565.232 281.62 568.029 280.576 571.05 279.531C571.125 281.583 571.162 283.634 571.162 284.827V285.909C571.162 286.692 571.46 287.401 572.318 287.401C573.064 287.401 573.176 286.469 573.176 286.021V285.872C573.176 285.611 573.101 282.179 573.064 278.86C575.264 278.114 577.39 277.405 578.808 277.032C581.53 276.286 583.47 275.876 584.216 275.876C584.514 275.876 584.701 275.951 584.887 275.951C585.708 275.951 586.043 275.354 586.043 275.056V274.832Z" fill="#AFAF3F"/>
<path d="M508.812 413.627L509.572 415.033L509.572 415.033L508.812 413.627ZM421.372 428.475C420.744 429.095 420.738 430.107 421.359 430.735L431.472 440.967C432.092 441.595 433.104 441.601 433.732 440.98C434.36 440.36 434.366 439.348 433.745 438.72L424.756 429.625L433.851 420.636C434.479 420.015 434.485 419.003 433.864 418.375C433.244 417.747 432.232 417.741 431.604 418.362L421.372 428.475ZM570.618 347.558C569.262 346.712 569.262 346.712 569.262 346.712C569.262 346.712 569.262 346.713 569.261 346.713C569.261 346.715 569.259 346.716 569.258 346.719C569.254 346.725 569.249 346.733 569.242 346.744C569.228 346.767 569.206 346.801 569.177 346.847C569.119 346.939 569.033 347.076 568.918 347.256C568.688 347.616 568.346 348.148 567.899 348.833C567.004 350.203 565.69 352.181 564.015 354.609C560.665 359.466 555.875 366.116 550.121 373.287C538.573 387.679 523.289 403.977 508.051 412.221L509.572 415.033C525.409 406.464 541.028 389.728 552.615 375.288C558.428 368.043 563.264 361.328 566.647 356.425C568.338 353.972 569.668 351.971 570.575 350.581C571.029 349.886 571.378 349.344 571.613 348.975C571.731 348.79 571.821 348.648 571.881 348.552C571.912 348.504 571.935 348.468 571.95 348.443C571.958 348.431 571.964 348.421 571.968 348.415C571.97 348.411 571.971 348.409 571.973 348.407C571.973 348.406 571.974 348.405 571.974 348.405C571.974 348.404 571.974 348.404 570.618 347.558ZM508.051 412.221C493.266 420.221 471.952 424.194 454.172 426.148C445.313 427.121 437.389 427.588 431.68 427.811C428.826 427.922 426.528 427.973 424.945 427.995C424.154 428.007 423.541 428.011 423.128 428.013C422.921 428.014 422.764 428.014 422.66 428.013C422.607 428.013 422.568 428.013 422.542 428.013C422.529 428.013 422.52 428.013 422.513 428.013C422.51 428.013 422.508 428.013 422.507 428.013C422.506 428.013 422.506 428.013 422.505 428.013C422.505 428.013 422.505 428.013 422.496 429.611C422.486 431.21 422.487 431.21 422.487 431.21C422.488 431.21 422.489 431.21 422.49 431.21C422.492 431.21 422.495 431.21 422.498 431.21C422.506 431.21 422.517 431.21 422.531 431.21C422.559 431.21 422.601 431.21 422.656 431.21C422.766 431.211 422.928 431.21 423.14 431.21C423.564 431.208 424.188 431.204 424.991 431.192C426.597 431.169 428.922 431.118 431.805 431.005C437.569 430.78 445.571 430.309 454.522 429.326C472.362 427.365 494.207 423.347 509.572 415.033L508.051 412.221Z" fill="#AFAF3F"/>
<path d="M468.824 403.773C468.824 403.251 468.265 402.915 467.817 402.915C466.735 402.915 463.08 403.736 460.992 404.258C459.612 404.594 457.747 405.19 455.77 405.862C455.733 403.773 455.733 401.983 455.733 401.423C455.695 400.155 455.434 399.521 454.763 399.521C454.614 399.521 454.427 399.559 454.241 399.633C453.942 399.745 453.644 400.752 453.644 401.386C453.681 401.722 453.719 403.96 453.793 406.496C450.325 407.689 447.005 408.92 446.893 409.181C446.781 409.33 446.744 409.517 446.744 409.666C446.744 410.263 447.341 410.785 447.677 410.785C447.714 410.785 447.788 410.785 447.826 410.748C448.012 410.561 450.809 409.517 453.831 408.473C453.905 410.524 453.942 412.575 453.942 413.769V414.85C453.942 415.634 454.241 416.342 455.099 416.342C455.845 416.342 455.956 415.41 455.956 414.962V414.813C455.956 414.552 455.882 411.121 455.845 407.801C458.045 407.055 460.171 406.347 461.588 405.974C464.311 405.228 466.25 404.817 466.996 404.817C467.295 404.817 467.481 404.892 467.668 404.892C468.488 404.892 468.824 404.295 468.824 403.997V403.773Z" fill="#AFAF3F"/>
<path d="M320.728 352.353L319.317 353.105L320.728 352.353ZM311.652 307.987C310.985 307.409 309.975 307.481 309.397 308.148L299.973 319.018C299.395 319.685 299.467 320.694 300.134 321.273C300.801 321.851 301.81 321.779 302.388 321.112L310.765 311.45L320.427 319.827C321.094 320.405 322.104 320.333 322.682 319.666C323.26 318.999 323.188 317.99 322.521 317.411L311.652 307.987ZM360.689 390.183C361.543 388.832 361.543 388.832 361.543 388.832C361.543 388.832 361.543 388.832 361.542 388.831C361.542 388.831 361.54 388.83 361.539 388.829C361.536 388.827 361.531 388.824 361.524 388.82C361.511 388.812 361.491 388.799 361.463 388.781C361.409 388.746 361.327 388.694 361.218 388.624C361.002 388.484 360.681 388.275 360.268 388.002C359.442 387.456 358.247 386.653 356.781 385.629C353.847 383.58 349.831 380.653 345.504 377.14C336.8 370.073 327.029 360.784 322.139 351.602L319.317 353.105C324.528 362.89 334.737 372.516 343.489 379.622C347.89 383.195 351.97 386.169 354.951 388.25C356.441 389.291 357.659 390.11 358.505 390.669C358.928 390.949 359.259 391.164 359.484 391.31C359.597 391.382 359.684 391.438 359.743 391.476C359.772 391.495 359.795 391.509 359.811 391.519C359.818 391.524 359.824 391.527 359.828 391.53C359.83 391.531 359.832 391.532 359.833 391.533C359.834 391.534 359.834 391.534 359.835 391.534C359.835 391.534 359.835 391.535 360.689 390.183ZM322.139 351.602C318.198 344.202 315.7 333.628 314.19 324.776C313.44 320.374 312.942 316.444 312.631 313.615C312.476 312.201 312.367 311.064 312.298 310.282C312.263 309.891 312.238 309.589 312.222 309.385C312.214 309.284 312.208 309.207 312.204 309.156C312.202 309.13 312.201 309.111 312.2 309.099C312.2 309.093 312.199 309.088 312.199 309.085C312.199 309.084 312.199 309.083 312.199 309.082C312.199 309.082 312.199 309.082 312.199 309.082C312.199 309.082 312.199 309.082 310.604 309.195C309.01 309.309 309.01 309.309 309.01 309.31C309.01 309.31 309.01 309.31 309.01 309.311C309.01 309.312 309.01 309.314 309.011 309.315C309.011 309.319 309.011 309.325 309.012 309.332C309.013 309.347 309.014 309.368 309.016 309.396C309.021 309.451 309.027 309.533 309.035 309.639C309.052 309.851 309.078 310.163 309.114 310.564C309.185 311.366 309.295 312.526 309.453 313.964C309.769 316.84 310.276 320.835 311.039 325.313C312.557 334.219 315.121 345.224 319.317 353.105L322.139 351.602Z" fill="#AFAF3F"/>
<path d="M353.736 325.982C353.736 325.46 353.176 325.124 352.729 325.124C351.647 325.124 347.992 325.945 345.903 326.467C344.523 326.803 342.659 327.399 340.682 328.071C340.645 325.982 340.645 324.192 340.645 323.632C340.607 322.364 340.346 321.73 339.675 321.73C339.526 321.73 339.339 321.768 339.153 321.842C338.854 321.954 338.556 322.961 338.556 323.595C338.593 323.931 338.631 326.169 338.705 328.705C335.237 329.898 331.917 331.129 331.805 331.39C331.693 331.539 331.656 331.726 331.656 331.875C331.656 332.472 332.253 332.994 332.588 332.994C332.626 332.994 332.7 332.994 332.738 332.957C332.924 332.77 335.721 331.726 338.742 330.682C338.817 332.733 338.854 334.784 338.854 335.978V337.059C338.854 337.843 339.153 338.551 340.011 338.551C340.756 338.551 340.868 337.619 340.868 337.171V337.022C340.868 336.761 340.794 333.33 340.756 330.01C342.957 329.264 345.083 328.556 346.5 328.183C349.223 327.437 351.162 327.026 351.908 327.026C352.207 327.026 352.393 327.101 352.58 327.101C353.4 327.101 353.736 326.504 353.736 326.206V325.982Z" fill="#AFAF3F"/>
<path d="M234.412 385.921L235.333 384.614L234.412 385.921ZM171.415 307.65C170.561 307.424 169.687 307.934 169.461 308.787L165.79 322.697C165.565 323.551 166.074 324.425 166.928 324.65C167.782 324.876 168.656 324.366 168.881 323.513L172.145 311.149L184.509 314.412C185.362 314.637 186.237 314.128 186.462 313.274C186.687 312.42 186.178 311.546 185.325 311.321L171.415 307.65ZM329.786 420.021C330.068 418.447 330.068 418.447 330.068 418.447C330.067 418.447 330.067 418.447 330.066 418.447C330.064 418.447 330.062 418.446 330.058 418.446C330.051 418.444 330.04 418.442 330.025 418.44C329.996 418.434 329.952 418.426 329.893 418.415C329.775 418.394 329.598 418.361 329.365 418.317C328.9 418.23 328.212 418.098 327.324 417.922C325.547 417.571 322.969 417.043 319.774 416.337C313.382 414.927 304.524 412.809 294.662 409.982C274.886 404.314 251.264 395.848 235.333 384.614L233.491 387.227C249.886 398.788 273.951 407.372 293.781 413.055C303.721 415.904 312.645 418.038 319.085 419.459C322.305 420.17 324.906 420.703 326.703 421.059C327.602 421.236 328.3 421.37 328.774 421.459C329.011 421.504 329.193 421.537 329.315 421.56C329.377 421.571 329.423 421.58 329.455 421.585C329.47 421.588 329.482 421.59 329.491 421.592C329.495 421.592 329.498 421.593 329.5 421.593C329.501 421.594 329.502 421.594 329.503 421.594C329.503 421.594 329.504 421.594 329.786 420.021ZM235.333 384.614C219.678 373.575 203.955 354.578 192.091 338.219C186.174 330.061 181.245 322.598 177.795 317.176C176.071 314.465 174.717 312.265 173.795 310.745C173.334 309.984 172.981 309.394 172.744 308.995C172.626 308.795 172.536 308.643 172.477 308.542C172.447 308.491 172.424 308.453 172.41 308.427C172.402 308.415 172.397 308.405 172.393 308.399C172.391 308.396 172.39 308.394 172.389 308.393C172.389 308.392 172.389 308.391 172.388 308.391C172.388 308.391 172.388 308.391 171.007 309.195C169.626 310 169.626 310 169.626 310.001C169.626 310.001 169.627 310.002 169.627 310.003C169.629 310.005 169.63 310.007 169.632 310.011C169.636 310.018 169.642 310.028 169.65 310.042C169.666 310.069 169.69 310.109 169.721 310.162C169.783 310.267 169.875 310.423 169.996 310.627C170.237 311.034 170.595 311.633 171.062 312.402C171.994 313.94 173.36 316.159 175.098 318.891C178.573 324.355 183.539 331.873 189.503 340.096C201.4 356.5 217.379 375.866 233.491 387.227L235.333 384.614Z" fill="#AFAF3F"/>
<path d="M153.397 331.31C153.397 330.788 152.838 330.452 152.39 330.452C151.309 330.452 147.654 331.273 145.565 331.795C144.185 332.131 142.32 332.728 140.343 333.399C140.306 331.31 140.306 329.52 140.306 328.961C140.269 327.692 140.008 327.058 139.336 327.058C139.187 327.058 139.001 327.096 138.814 327.17C138.516 327.282 138.217 328.289 138.217 328.923C138.255 329.259 138.292 331.497 138.367 334.033C134.898 335.226 131.579 336.457 131.467 336.718C131.355 336.868 131.318 337.054 131.318 337.203C131.318 337.8 131.914 338.322 132.25 338.322C132.287 338.322 132.362 338.322 132.399 338.285C132.586 338.098 135.383 337.054 138.404 336.01C138.479 338.061 138.516 340.112 138.516 341.306V342.387C138.516 343.171 138.814 343.879 139.672 343.879C140.418 343.879 140.53 342.947 140.53 342.499V342.35C140.53 342.089 140.455 338.658 140.418 335.338C142.619 334.592 144.744 333.884 146.162 333.511C148.884 332.765 150.824 332.355 151.57 332.355C151.868 332.355 152.055 332.429 152.241 332.429C153.062 332.429 153.397 331.832 153.397 331.534V331.31Z" fill="#AFAF3F"/>
<path d="M127.849 229.273L126.26 229.095L127.849 229.273ZM143.743 185.051C143.45 184.219 142.537 183.781 141.704 184.074L128.134 188.85C127.301 189.143 126.864 190.056 127.157 190.889C127.45 191.721 128.363 192.159 129.195 191.866L141.258 187.62L145.503 199.683C145.796 200.516 146.709 200.953 147.542 200.66C148.374 200.367 148.812 199.454 148.519 198.621L143.743 185.051ZM131.579 272.964C133.142 272.633 133.142 272.633 133.142 272.633C133.142 272.633 133.142 272.633 133.142 272.633C133.142 272.632 133.142 272.631 133.142 272.63C133.141 272.627 133.14 272.622 133.139 272.616C133.136 272.604 133.132 272.586 133.127 272.561C133.117 272.512 133.102 272.438 133.082 272.34C133.042 272.144 132.983 271.853 132.908 271.475C132.759 270.72 132.548 269.62 132.301 268.247C131.805 265.498 131.165 261.657 130.583 257.289C129.415 248.516 128.507 237.755 129.437 229.451L126.26 229.095C125.284 237.808 126.241 248.893 127.414 257.711C128.004 262.138 128.653 266.029 129.155 268.814C129.406 270.206 129.62 271.323 129.772 272.094C129.848 272.479 129.908 272.777 129.95 272.98C129.97 273.082 129.987 273.16 129.997 273.212C130.003 273.239 130.007 273.259 130.01 273.272C130.011 273.279 130.013 273.284 130.013 273.288C130.014 273.29 130.014 273.291 130.014 273.292C130.014 273.293 130.014 273.293 130.014 273.294C130.015 273.294 130.015 273.294 131.579 272.964ZM129.437 229.451C130.413 220.74 133.945 209.977 137.284 201.307C138.946 196.991 140.546 193.228 141.731 190.544C142.323 189.202 142.811 188.132 143.15 187.398C143.319 187.031 143.452 186.748 143.541 186.558C143.586 186.463 143.62 186.391 143.643 186.343C143.654 186.319 143.663 186.301 143.668 186.289C143.671 186.284 143.673 186.279 143.675 186.276C143.675 186.275 143.676 186.274 143.676 186.274C143.676 186.273 143.676 186.273 143.676 186.273C143.676 186.273 143.676 186.273 142.235 185.582C140.793 184.891 140.793 184.891 140.793 184.892C140.793 184.892 140.793 184.892 140.793 184.893C140.792 184.894 140.791 184.895 140.791 184.897C140.789 184.901 140.786 184.906 140.783 184.912C140.777 184.926 140.768 184.945 140.756 184.971C140.731 185.022 140.696 185.097 140.649 185.195C140.556 185.392 140.421 185.682 140.248 186.057C139.902 186.806 139.406 187.893 138.806 189.253C137.606 191.972 135.985 195.784 134.3 200.159C130.945 208.872 127.285 219.954 126.26 229.095L129.437 229.451Z" fill="#AFAF3F"/>
<path d="M77.7642 112.054L79.1322 112.88L77.7642 112.054ZM222.289 54.503C222.874 53.8418 222.812 52.8316 222.151 52.2466L211.376 42.7146C210.715 42.1296 209.705 42.1914 209.12 42.8526C208.535 43.5138 208.597 44.524 209.258 45.109L218.835 53.5819L210.362 63.1595C209.777 63.8207 209.839 64.8309 210.5 65.4159C211.162 66.0008 212.172 65.939 212.757 65.2778L222.289 54.503ZM90.0191 263.373C91.4893 262.746 91.4893 262.746 91.4891 262.745C91.4888 262.744 91.4884 262.744 91.4879 262.742C91.4868 262.74 91.485 262.735 91.4826 262.73C91.4778 262.718 91.4704 262.701 91.4605 262.678C91.4407 262.631 91.4109 262.56 91.3715 262.466C91.2927 262.278 91.1756 261.996 91.0237 261.625C90.7199 260.884 90.277 259.786 89.7234 258.37C88.6162 255.538 87.0666 251.43 85.3018 246.341C81.7711 236.159 77.384 222.064 73.9525 206.398C70.5195 190.726 68.0534 173.528 68.3391 157.131C68.6251 140.72 71.6656 125.234 79.1322 112.88L76.3962 111.227C68.5288 124.243 65.4341 140.357 65.1427 157.075C64.8511 173.806 67.3654 191.267 70.8297 207.083C74.2955 222.904 78.7224 237.125 82.2814 247.388C84.0614 252.521 85.6256 256.668 86.7459 259.534C87.3061 260.967 87.7555 262.08 88.0654 262.837C88.2204 263.215 88.3406 263.505 88.4224 263.7C88.4633 263.798 88.4945 263.872 88.5158 263.922C88.5264 263.947 88.5345 263.966 88.5401 263.98C88.5428 263.986 88.545 263.991 88.5465 263.995C88.5472 263.996 88.5478 263.998 88.5482 263.999C88.5487 264 88.549 264 90.0191 263.373ZM79.1322 112.88C86.7472 100.282 99.3416 90.3208 114.106 82.4741C128.859 74.6335 145.666 68.9631 161.555 64.8898C177.437 60.8183 192.355 58.3543 203.305 56.9086C208.778 56.1859 213.256 55.7181 216.363 55.4312C217.916 55.2878 219.127 55.1896 219.947 55.1274C220.357 55.0962 220.669 55.0741 220.878 55.0598C220.983 55.0527 221.061 55.0475 221.114 55.0441C221.14 55.0424 221.159 55.0412 221.172 55.0404C221.178 55.04 221.183 55.0397 221.186 55.0395C221.187 55.0394 221.188 55.0394 221.189 55.0393C221.189 55.0393 221.189 55.0393 221.092 53.4438C220.994 51.8484 220.993 51.8484 220.992 51.8485C220.991 51.8486 220.989 51.8487 220.988 51.8488C220.984 51.849 220.978 51.8494 220.971 51.8498C220.956 51.8507 220.935 51.8521 220.907 51.8539C220.851 51.8575 220.769 51.863 220.66 51.8704C220.443 51.8852 220.123 51.9079 219.705 51.9396C218.868 52.0031 217.641 52.1028 216.069 52.2479C212.926 52.5381 208.406 53.0104 202.886 53.7392C191.85 55.1964 176.801 57.6812 160.761 61.793C144.729 65.9031 127.659 71.6505 112.606 79.6511C97.5634 87.6455 84.4216 97.9491 76.3962 111.227L79.1322 112.88Z" fill="#AFAF3F"/>
<path d="M205.613 68.0996C205.613 67.5774 205.054 67.2417 204.606 67.2417C203.525 67.2417 199.87 68.0623 197.781 68.5844C196.401 68.9201 194.536 69.5169 192.559 70.1882C192.522 68.0996 192.522 66.3093 192.522 65.7499C192.485 64.4818 192.224 63.8477 191.552 63.8477C191.403 63.8477 191.217 63.885 191.03 63.9596C190.732 64.0715 190.433 65.0785 190.433 65.7126C190.471 66.0482 190.508 68.2861 190.583 70.8223C187.114 72.0158 183.794 73.2466 183.683 73.5076C183.571 73.6568 183.533 73.8433 183.533 73.9925C183.533 74.5893 184.13 75.1114 184.466 75.1114C184.503 75.1114 184.578 75.1114 184.615 75.0741C184.802 74.8876 187.599 73.8433 190.62 72.799C190.694 74.8503 190.732 76.9017 190.732 78.0952V79.1768C190.732 79.96 191.03 80.6687 191.888 80.6687C192.634 80.6687 192.746 79.7363 192.746 79.2887V79.1395C192.746 78.8784 192.671 75.4471 192.634 72.1277C194.834 71.3817 196.96 70.6731 198.378 70.3001C201.1 69.5542 203.04 69.1439 203.786 69.1439C204.084 69.1439 204.271 69.2185 204.457 69.2185C205.278 69.2185 205.613 68.6217 205.613 68.3234V68.0996Z" fill="#AFAF3F"/>
<path d="M112.903 199.172C112.903 198.65 112.344 198.314 111.896 198.314C110.815 198.314 107.16 199.135 105.071 199.657C103.691 199.993 101.826 200.589 99.8494 201.261C99.8121 199.172 99.8121 197.382 99.8121 196.822C99.7748 195.554 99.5138 194.92 98.8424 194.92C98.6932 194.92 98.5067 194.958 98.3203 195.032C98.0219 195.144 97.7235 196.151 97.7235 196.785C97.7608 197.121 97.7981 199.359 97.8727 201.895C94.4041 203.088 91.0846 204.319 90.9727 204.58C90.8608 204.729 90.8235 204.916 90.8235 205.065C90.8235 205.662 91.4203 206.184 91.756 206.184C91.7933 206.184 91.8679 206.184 91.9052 206.147C92.0916 205.96 94.8889 204.916 97.91 203.872C97.9846 205.923 98.0219 207.974 98.0219 209.168V210.249C98.0219 211.033 98.3203 211.741 99.1781 211.741C99.924 211.741 100.036 210.809 100.036 210.361V210.212C100.036 209.951 99.9613 206.52 99.924 203.2C102.125 202.454 104.25 201.746 105.668 201.373C108.39 200.627 110.33 200.216 111.076 200.216C111.374 200.216 111.561 200.291 111.747 200.291C112.568 200.291 112.903 199.694 112.903 199.396V199.172Z" fill="#AFAF3F"/>
<path d="M250.396 238.331L249.321 239.514L250.396 238.331ZM211.708 186.128C210.833 186.014 210.031 186.63 209.916 187.506L208.048 201.77C207.933 202.645 208.55 203.448 209.425 203.562C210.301 203.677 211.103 203.06 211.218 202.185L212.878 189.506L225.558 191.166C226.433 191.281 227.235 190.664 227.35 189.789C227.465 188.913 226.848 188.111 225.973 187.996L211.708 186.128ZM306.342 272.964C307.022 271.517 307.022 271.517 307.021 271.517C307.021 271.517 307.021 271.517 307.02 271.516C307.02 271.516 307.018 271.515 307.016 271.514C307.012 271.512 307.005 271.509 306.997 271.505C306.98 271.497 306.954 271.485 306.919 271.469C306.85 271.436 306.747 271.387 306.611 271.322C306.339 271.192 305.936 270.999 305.416 270.746C304.376 270.242 302.866 269.5 300.994 268.556C297.25 266.667 292.061 263.969 286.28 260.734C274.689 254.246 260.837 245.66 251.472 237.148L249.321 239.514C258.971 248.284 273.091 257.015 284.719 263.523C290.548 266.786 295.78 269.506 299.554 271.41C301.442 272.362 302.966 273.111 304.02 273.622C304.547 273.878 304.956 274.075 305.234 274.207C305.373 274.274 305.48 274.324 305.551 274.358C305.587 274.375 305.615 274.388 305.633 274.397C305.643 274.401 305.65 274.405 305.654 274.407C305.657 274.408 305.659 274.409 305.66 274.409C305.661 274.41 305.661 274.41 305.662 274.41C305.662 274.41 305.662 274.41 306.342 272.964ZM251.472 237.148C242.37 228.876 236.523 221.271 231.047 213.246C225.586 205.244 220.398 196.668 212.768 186.739L210.233 188.687C217.794 198.526 222.829 206.875 228.407 215.048C233.969 223.198 239.975 231.018 249.321 239.514L251.472 237.148Z" fill="#AFAF3F"/>
<path d="M254.632 199.172C254.632 198.65 254.073 198.314 253.625 198.314C252.544 198.314 248.889 199.135 246.8 199.657C245.42 199.993 243.555 200.589 241.578 201.261C241.541 199.172 241.541 197.382 241.541 196.822C241.504 195.554 241.243 194.92 240.571 194.92C240.422 194.92 240.236 194.958 240.049 195.032C239.751 195.144 239.452 196.151 239.452 196.785C239.49 197.121 239.527 199.359 239.602 201.895C236.133 203.088 232.813 204.319 232.702 204.58C232.59 204.729 232.552 204.916 232.552 205.065C232.552 205.662 233.149 206.184 233.485 206.184C233.522 206.184 233.597 206.184 233.634 206.147C233.82 205.96 236.618 204.916 239.639 203.872C239.713 205.923 239.751 207.974 239.751 209.168V210.249C239.751 211.033 240.049 211.741 240.907 211.741C241.653 211.741 241.765 210.809 241.765 210.361V210.212C241.765 209.951 241.69 206.52 241.653 203.2C243.853 202.454 245.979 201.746 247.397 201.373C250.119 200.627 252.059 200.216 252.805 200.216C253.103 200.216 253.29 200.291 253.476 200.291C254.297 200.291 254.632 199.694 254.632 199.396V199.172Z" fill="#AFAF3F"/>
<path d="M236.543 69.4283L235.86 67.9831L236.543 69.4283ZM299.894 64.2728C300.577 63.7145 300.679 62.7075 300.121 62.0237L291.022 50.8803C290.464 50.1965 289.457 50.0948 288.773 50.6531C288.089 51.2114 287.988 52.2184 288.546 52.9022L296.634 62.8074L286.728 70.895C286.044 71.4533 285.943 72.4602 286.501 73.1441C287.059 73.8279 288.066 73.9296 288.75 73.3713L299.894 64.2728ZM194.451 108.857C195.742 109.798 195.742 109.798 195.742 109.798C195.743 109.798 195.743 109.798 195.743 109.798C195.743 109.797 195.744 109.796 195.745 109.794C195.748 109.791 195.751 109.786 195.756 109.78C195.766 109.766 195.781 109.746 195.801 109.719C195.841 109.664 195.902 109.582 195.982 109.474C196.143 109.257 196.383 108.937 196.697 108.525C197.324 107.7 198.244 106.509 199.412 105.048C201.75 102.125 205.078 98.1279 209.036 93.8347C216.993 85.2029 227.341 75.545 237.226 70.8735L235.86 67.9831C225.382 72.935 214.683 82.9912 206.685 91.6679C202.665 96.0288 199.288 100.085 196.916 103.051C195.729 104.534 194.793 105.747 194.152 106.59C193.831 107.011 193.585 107.341 193.417 107.566C193.334 107.678 193.27 107.765 193.227 107.823C193.205 107.853 193.188 107.875 193.177 107.89C193.172 107.898 193.167 107.904 193.164 107.908C193.163 107.91 193.162 107.912 193.161 107.913C193.16 107.914 193.16 107.914 193.16 107.914C193.159 107.915 193.159 107.915 194.451 108.857ZM237.226 70.8735C247.965 65.7986 263.259 64.1991 276.047 63.9085C282.407 63.7639 288.083 63.9436 292.169 64.1595C294.212 64.2674 295.855 64.3843 296.985 64.4739C297.55 64.5188 297.987 64.5568 298.281 64.5835C298.428 64.5968 298.54 64.6073 298.614 64.6144C298.651 64.618 298.679 64.6207 298.697 64.6225C298.706 64.6234 298.712 64.624 298.717 64.6244C298.719 64.6247 298.72 64.6248 298.721 64.6249C298.722 64.6249 298.722 64.625 298.722 64.625C298.722 64.625 298.722 64.625 298.883 63.0346C299.043 61.4443 299.043 61.4442 299.042 61.4442C299.042 61.4441 299.041 61.4441 299.04 61.444C299.039 61.4438 299.037 61.4436 299.034 61.4434C299.028 61.4428 299.02 61.442 299.01 61.441C298.989 61.4389 298.959 61.436 298.919 61.4322C298.84 61.4245 298.723 61.4135 298.57 61.3997C298.264 61.3719 297.816 61.3329 297.238 61.2871C296.083 61.1954 294.411 61.0766 292.338 60.967C288.193 60.748 282.433 60.5656 275.974 60.7124C263.123 61.0045 247.248 62.6019 235.86 67.9831L237.226 70.8735Z" fill="#AFAF3F"/>
<path d="M298.323 81.9528C298.323 81.4306 297.764 81.095 297.316 81.095C296.234 81.095 292.579 81.9155 290.491 82.4376C289.111 82.7733 287.246 83.3701 285.269 84.0414C285.232 81.9528 285.232 80.1625 285.232 79.6031C285.195 78.335 284.933 77.7009 284.262 77.7009C284.113 77.7009 283.926 77.7382 283.74 77.8128C283.442 77.9247 283.143 78.9317 283.143 79.5658C283.181 79.9014 283.218 82.1393 283.292 84.6755C279.824 85.869 276.504 87.0998 276.392 87.3609C276.281 87.51 276.243 87.6965 276.243 87.8457C276.243 88.4425 276.84 88.9646 277.176 88.9646C277.213 88.9646 277.288 88.9646 277.325 88.9273C277.511 88.7409 280.309 87.6965 283.33 86.6522C283.404 88.7036 283.442 90.7549 283.442 91.9484V93.03C283.442 93.8133 283.74 94.5219 284.598 94.5219C285.344 94.5219 285.456 93.5895 285.456 93.1419V92.9927C285.456 92.7316 285.381 89.3003 285.344 85.9809C287.544 85.2349 289.67 84.5263 291.087 84.1533C293.81 83.4074 295.75 82.9971 296.496 82.9971C296.794 82.9971 296.98 83.0717 297.167 83.0717C297.987 83.0717 298.323 82.4749 298.323 82.1766V81.9528Z" fill="#AFAF3F"/>
<path d="M342.041 171.196L340.442 171.221L342.041 171.196ZM362.135 81.534C361.758 80.7356 360.806 80.3936 360.007 80.7702L346.996 86.9075C346.198 87.2841 345.856 88.2367 346.232 89.0351C346.609 89.8335 347.561 90.1755 348.36 89.7989L359.925 84.3435L365.381 95.909C365.757 96.7075 366.71 97.0494 367.508 96.6728C368.307 96.2962 368.649 95.3436 368.272 94.5452L362.135 81.534ZM360.689 253.782C362.19 253.233 362.19 253.233 362.19 253.232C362.19 253.232 362.19 253.232 362.189 253.231C362.189 253.23 362.188 253.228 362.187 253.225C362.185 253.219 362.182 253.211 362.178 253.199C362.169 253.176 362.157 253.141 362.14 253.095C362.106 253.002 362.056 252.862 361.99 252.679C361.858 252.311 361.665 251.767 361.417 251.061C360.923 249.65 360.216 247.595 359.365 245.025C357.663 239.884 355.387 232.685 353.097 224.458C348.505 207.966 343.892 187.485 343.639 171.171L340.442 171.221C340.702 187.967 345.413 208.779 350.017 225.315C352.325 233.603 354.616 240.852 356.33 246.03C357.187 248.619 357.901 250.692 358.4 252.118C358.65 252.831 358.846 253.383 358.981 253.758C359.048 253.945 359.099 254.088 359.134 254.184C359.152 254.232 359.165 254.269 359.174 254.294C359.179 254.306 359.182 254.315 359.184 254.322C359.186 254.325 359.186 254.327 359.187 254.329C359.187 254.33 359.188 254.331 359.188 254.331C359.188 254.332 359.188 254.332 360.689 253.782ZM343.639 171.171C343.367 153.654 347.979 131.588 352.703 113.804C355.06 104.933 357.435 97.1653 359.22 91.6164C360.112 88.8424 360.857 86.6239 361.378 85.1005C361.638 84.3389 361.843 83.751 361.982 83.3544C362.052 83.1561 362.105 83.0057 362.14 82.9052C362.158 82.8549 362.172 82.8172 362.181 82.7923C362.185 82.7798 362.188 82.7705 362.191 82.7644C362.192 82.7614 362.192 82.7592 362.193 82.7578C362.193 82.7571 362.193 82.7566 362.193 82.7563C362.194 82.756 362.194 82.756 360.689 82.2159C359.185 81.6758 359.185 81.6762 359.184 81.6768C359.184 81.6772 359.184 81.678 359.184 81.6789C359.183 81.6808 359.182 81.6834 359.181 81.6869C359.178 81.6938 359.175 81.704 359.17 81.7174C359.16 81.7441 359.146 81.7836 359.128 81.8356C359.091 81.9397 359.036 82.0939 358.965 82.296C358.824 82.7001 358.616 83.2959 358.353 84.0659C357.826 85.6059 357.075 87.843 356.176 90.6374C354.379 96.2255 351.988 104.047 349.614 112.983C344.877 130.815 340.164 153.238 340.442 171.221L343.639 171.171Z" fill="#AFAF3F"/>
<path d="M378.245 127.775C378.245 127.253 377.686 126.917 377.238 126.917C376.157 126.917 372.502 127.738 370.413 128.26C369.033 128.595 367.168 129.192 365.191 129.864C365.154 127.775 365.154 125.985 365.154 125.425C365.117 124.157 364.856 123.523 364.184 123.523C364.035 123.523 363.849 123.56 363.662 123.635C363.364 123.747 363.065 124.754 363.065 125.388C363.103 125.724 363.14 127.961 363.215 130.498C359.746 131.691 356.427 132.922 356.315 133.183C356.203 133.332 356.166 133.519 356.166 133.668C356.166 134.265 356.762 134.787 357.098 134.787C357.135 134.787 357.21 134.787 357.247 134.749C357.434 134.563 360.231 133.519 363.252 132.474C363.327 134.526 363.364 136.577 363.364 137.77V138.852C363.364 139.635 363.662 140.344 364.52 140.344C365.266 140.344 365.378 139.412 365.378 138.964V138.815C365.378 138.554 365.303 135.122 365.266 131.803C367.467 131.057 369.592 130.348 371.01 129.975C373.732 129.229 375.672 128.819 376.418 128.819C376.716 128.819 376.903 128.894 377.089 128.894C377.91 128.894 378.245 128.297 378.245 127.999V127.775Z" fill="#AFAF3F"/>
<path d="M449.669 167.466L451.262 167.337L449.669 167.466ZM413.495 264.753C413.669 265.619 414.511 266.179 415.377 266.005L429.481 263.171C430.346 262.997 430.907 262.155 430.733 261.289C430.559 260.424 429.717 259.863 428.851 260.037L416.314 262.556L413.795 250.019C413.621 249.154 412.778 248.593 411.913 248.767C411.047 248.941 410.487 249.784 410.661 250.649L413.495 264.753ZM410.774 86.4786C409.516 87.4645 409.516 87.4645 409.516 87.4646C409.516 87.4649 409.516 87.4652 409.517 87.4658C409.517 87.4669 409.519 87.4688 409.521 87.4713C409.525 87.4763 409.531 87.4841 409.539 87.4947C409.556 87.5159 409.581 87.548 409.614 87.5909C409.68 87.6768 409.78 87.8058 409.911 87.9761C410.172 88.3169 410.557 88.8232 411.049 89.4811C412.032 90.7971 413.443 92.719 415.146 95.1358C418.553 99.9706 423.124 106.779 427.782 114.671C437.136 130.518 446.691 150.497 448.076 167.595L451.262 167.337C449.814 149.464 439.922 128.949 430.535 113.046C425.824 105.062 421.202 98.1804 417.759 93.2943C416.037 90.8506 414.609 88.9043 413.609 87.5671C413.109 86.8985 412.717 86.382 412.448 86.0316C412.314 85.8564 412.211 85.7227 412.141 85.6323C412.106 85.5871 412.079 85.5527 412.061 85.5294C412.051 85.5177 412.045 85.5088 412.04 85.5026C412.037 85.4996 412.035 85.4972 412.034 85.4955C412.033 85.4947 412.033 85.4939 412.033 85.4935C412.032 85.493 412.032 85.4926 410.774 86.4786ZM448.076 167.595C449.663 187.185 441.181 211.096 432.137 230.3C427.634 239.863 423.028 248.183 419.547 254.113C417.808 257.077 416.35 259.442 415.329 261.064C414.819 261.874 414.418 262.499 414.145 262.92C414.009 263.13 413.904 263.29 413.834 263.396C413.8 263.449 413.773 263.489 413.756 263.515C413.747 263.528 413.741 263.538 413.737 263.544C413.735 263.547 413.733 263.55 413.732 263.551C413.732 263.552 413.731 263.552 413.731 263.553C413.731 263.553 413.731 263.553 415.062 264.438C416.393 265.324 416.393 265.323 416.393 265.323C416.394 265.322 416.394 265.321 416.395 265.32C416.396 265.318 416.398 265.315 416.401 265.311C416.406 265.304 416.413 265.293 416.423 265.278C416.442 265.25 416.47 265.207 416.506 265.151C416.58 265.04 416.687 264.875 416.828 264.659C417.108 264.227 417.516 263.59 418.035 262.767C419.071 261.121 420.546 258.727 422.305 255.731C425.82 249.741 430.475 241.334 435.029 231.663C444.101 212.4 452.923 187.826 451.262 167.337L448.076 167.595Z" fill="#AFAF3F"/>
<path d="M420.871 220.485C420.871 219.963 420.311 219.627 419.864 219.627C418.782 219.627 415.127 220.447 413.038 220.97C411.658 221.305 409.793 221.902 407.817 222.573C407.779 220.485 407.779 218.694 407.779 218.135C407.742 216.867 407.481 216.233 406.81 216.233C406.66 216.233 406.474 216.27 406.287 216.345C405.989 216.457 405.691 217.464 405.691 218.098C405.728 218.433 405.765 220.671 405.84 223.207C402.371 224.401 399.052 225.632 398.94 225.893C398.828 226.042 398.791 226.228 398.791 226.378C398.791 226.974 399.387 227.497 399.723 227.497C399.76 227.497 399.835 227.497 399.872 227.459C400.059 227.273 402.856 226.228 405.877 225.184C405.952 227.235 405.989 229.287 405.989 230.48V231.562C405.989 232.345 406.287 233.054 407.145 233.054C407.891 233.054 408.003 232.121 408.003 231.674V231.525C408.003 231.264 407.929 227.832 407.891 224.513C410.092 223.767 412.218 223.058 413.635 222.685C416.358 221.939 418.297 221.529 419.043 221.529C419.341 221.529 419.528 221.604 419.714 221.604C420.535 221.604 420.871 221.007 420.871 220.708V220.485Z" fill="#AFAF3F"/>
</svg>
