<svg width="484" height="297" viewBox="0 0 484 297" fill="none" xmlns="http://www.w3.org/2000/svg">
<path d="M61.2629 54.812C58.8818 55.8641 56.0011 58.9045 56.0011 58.9045C56.0011 58.9045 49.7746 55.7934 46.6468 57.7351C43.395 59.7537 43.7235 67.0896 43.7235 67.0896L40.8003 70.0127C40.8003 70.0127 36.9189 74.2887 40.8003 77.0286C44.6817 79.7684 44.5193 77.7966 48.4007 80.5365C52.2821 83.2763 53.3656 85.615 57.1703 86.383C61.6966 87.2966 65.2613 87.5179 68.8635 84.629C70.6446 83.2006 70.4273 81.1492 72.3713 79.9518C73.9744 78.9645 75.4601 79.7934 77.0485 78.7825C79.2949 77.353 80.6487 75.5971 80.5564 72.9361C80.4551 70.0139 77.167 69.7146 75.8792 67.0896C74.4394 64.1547 75.8853 61.6593 74.1253 58.9045C72.1816 55.8624 70.1237 53.9269 66.5248 53.6427C64.4263 53.4769 63.1884 53.9612 61.2629 54.812Z" stroke="#005573" stroke-width="2.3386"/>
<line x1="186.245" y1="47.6104" x2="186.245" y2="54.6261" stroke="#005573" stroke-width="2.3386"/>
<rect x="167.245" y="37.7796" width="30.4017" height="8.18509" rx="1.1693" stroke="#005573" stroke-width="2.3386"/>
<circle cx="182.615" cy="70.1498" r="16.5395" stroke="#005573" stroke-width="2"/>
<path d="M103.075 67.5967L165.075 67.6099" stroke="#005573" stroke-width="2.3386"/>
<path d="M103.075 74.6125H166.075" stroke="#005573" stroke-width="2.3386"/>
<path d="M179.075 47.6104V54.6261" stroke="#005573" stroke-width="2.3386"/>
<path d="M199.575 67.9983L262.292 67.9982L262.292 54.0118L284.292 71.0117L262.292 88.0117L262.292 75.0142L197.575 75.0143" stroke="#005573" stroke-width="2.3386"/>
<path d="M102.075 73.4533L102.075 87.1104L81.0752 70.1104L102.075 53.6104L102.075 68.7775" stroke="#005573" stroke-width="2" stroke-dasharray="4 4"/>
<path d="M168.36 104.56C168.36 104.18 168.02 103.9 167.68 103.9C167.28 103.9 166.84 104.16 166.66 104.24C166.22 104.44 160.5 107.74 157.1 107.74C156.46 107.74 155.9 107.62 155.46 107.34C154.68 106.84 154.36 106.12 154.36 105.3C154.36 102 159.62 97 162.18 96.46C162.62 96.36 163.24 96.24 163.24 95.76C163.24 95.28 162.96 95.1 162.58 95.1C162.16 95.1 161.68 95.3 161.52 95.36C158.18 96.7 153.24 101.5 153.24 105.24C153.24 106.34 153.68 107.36 154.7 108.16C155.26 108.6 156.02 108.78 156.88 108.78C160.6 108.78 166.32 105.4 167.2 105.28C167.2 105.28 168.36 105.16 168.36 104.56ZM175.745 105.68C175.745 103.66 175.505 101.52 174.425 101.14C174.245 101.08 174.065 101.06 173.885 101.06C171.805 101.06 169.105 104.58 169.105 104.58C169.185 102.76 169.325 101.1 169.485 99.44C169.625 97.88 169.925 96.84 169.925 96.22C169.925 95.76 169.745 95.5 169.225 95.5C168.525 95.5 168.705 97.22 168.345 100.52C167.805 105.46 168.045 107.9 167.825 108.36C167.705 108.62 167.565 108.92 167.565 109.2C167.565 109.62 167.885 109.86 168.245 109.86C168.605 109.86 169.005 109.64 169.005 108.9C169.005 108.66 168.965 108.44 168.965 108.22C168.965 107.68 169.045 106.74 169.485 105.8C170.045 104.6 172.545 102.16 173.745 102.16C173.865 102.16 173.985 102.18 174.065 102.24C174.505 102.52 174.645 104.28 174.645 105.78C174.645 106.86 174.565 107.54 174.565 108.1C174.565 108.62 174.705 109.04 175.185 109.04C175.645 109.04 175.725 108.86 175.725 108.58C175.725 108.38 175.685 108.1 175.685 107.78C175.685 107.2 175.745 106.36 175.745 105.68ZM180.745 107.3C180.745 107.3 179.405 108.42 178.425 108.42C177.925 108.42 177.745 108.14 177.745 107.7C177.745 106.7 178.585 105.62 179.585 105.62C180.245 105.62 180.745 107.3 180.745 107.3ZM182.745 104.66C182.745 103.1 182.345 101.5 180.965 100.64C180.645 100.44 180.265 100.36 179.845 100.36C178.685 100.36 177.385 101.04 177.385 101.72C177.405 102.08 177.745 102.22 177.965 102.22C178.065 102.22 178.125 102.2 178.125 102.12C178.165 101.84 178.945 101.3 179.745 101.3C181.325 101.3 181.745 103.54 181.745 104.7C181.745 105.78 181.425 106.52 181.425 106.52C181.125 105.6 180.625 104.62 179.525 104.62C177.985 104.62 176.805 106.44 176.805 107.78C176.805 108.74 177.385 109.36 178.385 109.36C179.625 109.36 181.045 108.36 181.045 108.36C181.045 108.36 181.105 108.7 181.225 108.82C181.325 108.94 181.505 108.98 181.645 108.98C181.745 108.98 181.845 108.96 181.885 108.9C181.985 108.84 182.745 106.78 182.745 104.66ZM190.607 109.5C190.607 109.18 190.407 108.8 190.267 108.52C190.227 108.38 190.207 108.02 190.207 107.22V104.92C190.207 102.32 190.107 100.46 189.167 100.26H189.087C187.847 100.26 185.727 104.86 185.727 104.86C185.707 104.7 185.707 104.58 185.707 104.48C185.707 104.22 185.747 103.98 185.747 103.4C185.747 102.24 185.947 101.48 185.947 101.04C185.947 100.88 185.927 100.78 185.867 100.7C185.747 100.54 185.487 100.38 185.227 100.38C185.027 100.38 184.847 100.5 184.787 100.84C184.747 101.12 184.567 102.56 184.527 104.44C184.487 106.6 184.367 107.76 184.367 108.4C184.367 108.72 184.407 108.92 184.487 109.06C184.627 109.24 184.787 109.3 184.927 109.3C185.067 109.3 185.207 109.24 185.307 109.2C185.547 109.02 185.527 108.5 186.127 106.88C187.027 104.44 188.507 101.68 188.867 101.68C189.107 101.68 189.127 103.3 189.127 103.54L189.107 105.48C189.107 107.28 189.307 108.22 189.307 108.64C189.307 108.84 189.247 108.96 189.247 109.1C189.247 109.64 189.747 110 190.147 110C190.447 110 190.607 109.74 190.607 109.5ZM198.895 112.36C198.895 113.68 198.375 115.12 197.335 116.78C196.575 117.98 195.075 119.1 193.595 119.1C192.255 119.1 190.815 117.98 190.815 116.62C190.815 115.88 191.195 115.06 191.955 114.14C194.395 111.16 198.575 110.56 198.575 110.56C198.775 111.14 198.895 111.74 198.895 112.36ZM197.315 104.64C197.315 105.64 195.735 106.56 194.875 106.92C194.295 107.16 193.475 107.32 193.475 107.32C193.475 107.32 193.315 106.9 193.315 106.52C193.315 106.04 193.935 104.64 195.795 102.98C196.575 103.12 197.315 103.8 197.315 104.64ZM205.655 110.22C205.655 110.18 205.635 110.12 205.615 110.08C205.255 109.34 203.715 109.26 202.415 109.26C201.035 109.26 199.195 109.46 199.195 109.46C198.755 108.82 198.575 108.48 197.775 107.92C197.075 107.42 196.395 107.26 196.395 107.26C197.435 106.44 198.275 105.72 198.275 104.6C198.275 103.82 197.755 103.18 197.235 102.7C198.255 102.58 199.135 102.32 199.975 102.32C200.355 102.32 200.595 102.36 200.735 102.36C200.955 102.36 201.115 102.12 201.115 101.96C201.115 101.78 200.895 101.64 200.635 101.56C200.555 101.54 200.415 101.52 200.235 101.52C199.095 101.52 196.315 102 195.195 102C194.975 102 194.815 101.98 194.755 101.94C194.595 101.82 194.475 101.76 194.355 101.76C194.075 101.76 193.935 102.06 193.915 102.28C193.915 102.58 194.475 102.9 194.475 102.9C193.115 104.54 192.235 105.38 192.235 106.44C192.235 107.04 192.475 107.58 192.475 107.58C192.095 107.7 191.575 107.86 191.575 108.3C191.575 108.6 191.955 108.8 192.215 108.8C192.755 108.8 193.435 108.14 195.155 108.14C195.335 108.14 195.515 108.14 195.735 108.16C197.415 108.3 198.175 109.66 198.175 109.66C195.315 110.34 193.475 110.94 191.095 113.54C190.155 114.56 189.755 115.64 189.755 116.62C189.755 118.76 191.815 120.18 193.635 120.18C195.955 120.18 197.875 118.14 198.655 116.6C199.655 114.62 199.915 113.1 199.915 112.06C199.915 110.92 199.615 110.34 199.615 110.34C200.675 110.18 201.935 110.08 202.975 110.08C203.435 110.08 203.735 110.1 203.735 110.1C203.955 110.38 203.835 110.64 204.635 110.64C205.115 110.64 205.655 110.52 205.655 110.22ZM206.498 101.7C205.878 102.26 205.538 102.48 205.018 102.78C203.778 103.54 202.658 103.6 202.658 103.6C202.658 103.6 203.278 102.78 204.298 102.26C205.018 101.88 205.758 101.7 206.498 101.7ZM210.438 105.16C210.438 104.82 210.138 104.52 209.838 104.52C209.498 104.52 209.278 105.04 209.158 105.26C208.958 105.54 205.858 108.08 204.278 108.08C203.398 108.08 203.018 107.6 202.658 107.02C202.218 106.34 202.118 105.72 202.118 105.3C202.118 104.94 202.178 104.72 202.178 104.72C202.738 104.68 203.958 104.56 205.198 103.8C206.338 103.12 208.038 101.84 208.038 101.34C208.038 101.28 208.018 101.24 207.958 101.2C207.478 100.88 206.898 100.74 206.238 100.74C204.138 100.74 201.558 102.28 201.038 104.54C200.978 104.78 200.958 105.02 200.958 105.26C200.958 106.74 201.878 108.32 203.178 108.92C203.438 109.04 203.738 109.1 204.058 109.1C206.318 109.1 209.538 106.16 209.978 105.92C210.238 105.74 210.438 105.44 210.438 105.16Z" fill="#005573"/>
<path d="M411.38 235.78C411.38 236.14 411.26 236.5 411.12 236.78C409.64 239.98 402.24 243.9 402.24 243.9C402.24 243.9 401.88 242.1 401.88 240.12C401.88 239.92 401.9 239.7 401.9 239.5C401.98 237.32 402.18 235 402.52 232.18C402.52 232.18 402.92 232 404.34 231.98H404.42C407.24 231.98 411.38 233.5 411.38 235.78ZM412.58 235.7C412.56 233.08 408.4 230.98 404.02 230.98H403.72C401.9 231.02 399.84 231.48 399.14 231.92C398.96 232.04 398.88 232.18 398.88 232.34C398.88 232.68 399.26 233.02 399.6 233.02H399.68L401.18 232.5C401.18 232.5 400.9 236.6 400.82 238.4C400.8 238.66 400.8 238.94 400.8 239.26C400.8 241.34 401.04 244.28 401.04 244.28C400.96 244.54 400.86 244.82 400.86 245.1C400.86 245.36 400.94 245.62 401.08 245.76C401.1 245.78 401.12 245.78 401.14 245.78C401.18 245.78 401.22 245.76 401.26 245.76C401.4 245.76 401.44 245.94 401.58 245.94C402.38 245.9 402.46 245.54 402.46 245.28C402.46 245.1 402.52 245.06 402.52 245.06C406.04 242.94 412.58 239.22 412.58 235.7ZM416.97 237.7C416.35 238.26 416.01 238.48 415.49 238.78C414.25 239.54 413.13 239.6 413.13 239.6C413.13 239.6 413.75 238.78 414.77 238.26C415.49 237.88 416.23 237.7 416.97 237.7ZM420.91 241.16C420.91 240.82 420.61 240.52 420.31 240.52C419.97 240.52 419.75 241.04 419.63 241.26C419.43 241.54 416.33 244.08 414.75 244.08C413.87 244.08 413.49 243.6 413.13 243.02C412.69 242.34 412.59 241.72 412.59 241.3C412.59 240.94 412.65 240.72 412.65 240.72C413.21 240.68 414.43 240.56 415.67 239.8C416.81 239.12 418.51 237.84 418.51 237.34C418.51 237.28 418.49 237.24 418.43 237.2C417.95 236.88 417.37 236.74 416.71 236.74C414.61 236.74 412.03 238.28 411.51 240.54C411.45 240.78 411.43 241.02 411.43 241.26C411.43 242.74 412.35 244.32 413.65 244.92C413.91 245.04 414.21 245.1 414.53 245.1C416.79 245.1 420.01 242.16 420.45 241.92C420.71 241.74 420.91 241.44 420.91 241.16ZM427.257 235.56V235.48C427.237 235.24 426.537 234.88 426.277 234.76C426.157 234.7 425.997 234.66 425.817 234.66C425.557 234.66 425.237 234.74 424.997 234.94C423.677 236.04 421.157 237.92 421.157 240.12C421.157 243.12 425.757 242.92 426.037 243.9C426.037 244.62 423.137 245.6 423.017 245.8C422.937 245.9 422.897 246 422.897 246.1C422.897 246.38 423.197 246.62 423.617 246.64C423.917 246.64 427.197 244.92 427.197 244.1C427.197 242.86 426.057 242.66 424.837 242.18C423.517 241.68 422.197 241.28 422.197 240.12C422.197 239.5 422.697 238.34 423.597 237.54C425.177 236.12 425.397 235.7 426.077 235.68C426.237 235.68 426.457 235.92 426.837 235.92C427.137 235.92 427.257 235.76 427.257 235.56ZM430.713 237.58C430.713 237.12 430.433 236.82 430.093 236.82C429.393 236.86 429.473 238 429.413 239.1C429.313 241.02 429.213 242.46 429.213 243.42C429.213 244.14 429.273 244.58 429.453 244.72C429.613 244.84 429.793 244.9 429.933 244.9C430.333 244.9 430.473 244.58 430.473 244.24C430.473 243.88 430.233 243.84 430.233 242.94V242.56C430.233 241.78 430.713 238.26 430.713 237.58ZM430.753 230.94C430.753 230.62 430.533 230.38 430.253 230.38C429.733 230.38 429.893 230.84 429.473 231.7C429.233 232.22 429.133 232.68 429.133 233.04C429.133 233.32 429.193 233.72 429.493 233.72C429.633 233.72 429.753 233.64 429.853 233.54C430.053 233.34 429.913 233 430.213 232.26C430.473 231.62 430.733 231.28 430.753 231.02V230.94ZM440.811 237.04C440.811 236.8 440.651 236.56 440.531 236.52C440.191 236.4 439.891 236.36 439.611 236.36C438.411 236.36 437.591 237.28 436.851 237.98C435.571 239.16 434.191 241 434.191 241C434.191 239.66 434.191 239.28 434.171 238.58C434.131 237.36 434.071 236.9 433.771 236.62C433.611 236.48 433.471 236.42 433.331 236.42C433.131 236.42 432.731 236.66 432.731 236.88C432.731 237.12 433.171 237.54 433.171 240.04C433.171 240.44 433.151 240.88 433.131 241.4C433.051 242.94 432.811 243.96 432.811 244.56C432.811 244.82 432.851 245 432.971 245.12C433.111 245.26 433.311 245.36 433.511 245.36C433.671 245.36 433.831 245.3 433.951 245.14C434.211 244.8 433.951 243.26 434.691 242.14C436.131 239.96 437.651 238.26 438.911 237.52C439.111 237.4 439.291 237.36 439.431 237.36C439.751 237.36 439.971 237.54 440.231 237.54C440.531 237.54 440.811 237.3 440.811 237.04ZM445.115 237.7C444.495 238.26 444.155 238.48 443.635 238.78C442.395 239.54 441.275 239.6 441.275 239.6C441.275 239.6 441.895 238.78 442.915 238.26C443.635 237.88 444.375 237.7 445.115 237.7ZM449.055 241.16C449.055 240.82 448.755 240.52 448.455 240.52C448.115 240.52 447.895 241.04 447.775 241.26C447.575 241.54 444.475 244.08 442.895 244.08C442.015 244.08 441.635 243.6 441.275 243.02C440.835 242.34 440.735 241.72 440.735 241.3C440.735 240.94 440.795 240.72 440.795 240.72C441.355 240.68 442.575 240.56 443.815 239.8C444.955 239.12 446.655 237.84 446.655 237.34C446.655 237.28 446.635 237.24 446.575 237.2C446.095 236.88 445.515 236.74 444.855 236.74C442.755 236.74 440.175 238.28 439.655 240.54C439.595 240.78 439.575 241.02 439.575 241.26C439.575 242.74 440.495 244.32 441.795 244.92C442.055 245.04 442.355 245.1 442.675 245.1C444.935 245.1 448.155 242.16 448.595 241.92C448.855 241.74 449.055 241.44 449.055 241.16ZM455.868 242.08C454.268 243 452.388 244.24 451.128 244.24C450.428 244.24 449.928 243.8 449.928 243.14C449.928 241.56 452.188 238.9 453.808 238.9C453.988 238.9 454.168 238.92 454.328 239C455.568 239.54 455.868 242.08 455.868 242.08ZM458.588 231.92C458.588 231.4 458.168 230.92 457.568 230.92C457.328 230.92 457.228 231.12 457.228 231.44C457.228 231.68 457.248 231.92 457.348 232.24C457.368 232.3 457.368 232.34 457.368 232.4C457.368 233.46 456.548 240.14 456.548 240.14C456.028 239.2 455.688 238.26 454.088 237.92C454.008 237.9 453.888 237.9 453.788 237.9C451.948 237.9 448.888 240.66 448.888 243.06C448.888 244.32 449.668 245.28 450.988 245.28C453.088 245.28 456.008 243.28 456.008 243.28C456.168 243.86 455.948 244.5 456.908 244.64C457.248 244.64 457.328 244.22 457.328 243.76C457.328 243.2 457.208 242.58 457.208 242.58C457.888 242.3 458.428 242.32 458.428 241.78C458.428 241.7 458.428 241.62 458.388 241.5C458.288 241.08 457.548 241.02 457.548 241.02C457.688 238.12 458.368 232.68 458.508 232.3C458.568 232.18 458.588 232.04 458.588 231.92ZM410.9 272.86C410.84 269.06 400.84 269.86 400.84 267.58C400.84 265.82 405.46 264.06 407.38 264.06C407.92 264.06 408.14 264.7 408.58 264.7C408.96 264.7 409.26 264.46 409.26 264.26C409.26 264.2 409.26 264.16 409.22 264.12C408.78 263.5 408.66 262.9 407.14 262.9C405.2 262.9 399.54 264.88 399.54 267.9C399.54 270.9 409.74 269.78 409.74 273.1C409.74 274.5 405.62 276.76 404.06 276.98C403.7 277.04 403.16 277.32 403.16 277.86C403.16 278.4 403.68 278.54 404.1 278.54C404.52 278.54 404.94 278.38 405.02 277.9C405.08 277.56 410.9 275.7 410.9 272.86ZM420.482 268.52C420.442 267.96 419.722 267.98 419.302 267.96C419.122 267.96 418.942 267.94 418.762 267.94C417.342 267.94 416.142 268.2 416.142 268.2C416.322 266.9 416.442 266.58 416.562 265.38C416.602 264.96 416.622 264.6 416.622 264.3C416.622 263.24 416.382 262.86 416.002 262.86C415.622 262.86 415.542 263.22 415.542 263.64C415.542 263.92 415.582 264.2 415.582 264.54C415.582 265.22 415.102 268.38 415.102 268.38C413.902 268.7 413.642 268.8 412.502 269.24C411.402 269.66 411.362 269.8 411.262 270.1C411.242 270.16 411.242 270.2 411.242 270.24C411.242 270.52 411.642 270.82 411.862 270.82C412.222 270.82 412.902 270.2 413.242 270.04C413.962 269.7 414.942 269.48 414.942 269.48C414.842 270.34 414.762 270.74 414.622 272.16C414.402 274.2 414.402 275.44 414.402 276.34C414.402 276.66 414.502 277.4 415.102 277.44H415.182C415.562 277.44 415.662 277.22 415.662 276.96C415.662 276.72 415.562 276.44 415.562 276.36C415.542 276.06 415.542 275.72 415.542 275.38C415.542 272.72 415.962 269.5 415.982 269.26C416.702 269.1 418.082 268.82 419.322 268.82C419.482 268.82 419.762 268.88 420.002 268.88C420.262 268.88 420.482 268.82 420.482 268.52ZM423.346 275.3C423.346 275.3 422.006 276.42 421.026 276.42C420.526 276.42 420.346 276.14 420.346 275.7C420.346 274.7 421.186 273.62 422.186 273.62C422.846 273.62 423.346 275.3 423.346 275.3ZM425.346 272.66C425.346 271.1 424.946 269.5 423.566 268.64C423.246 268.44 422.866 268.36 422.446 268.36C421.286 268.36 419.986 269.04 419.986 269.72C420.006 270.08 420.346 270.22 420.566 270.22C420.666 270.22 420.726 270.2 420.726 270.12C420.766 269.84 421.546 269.3 422.346 269.3C423.926 269.3 424.346 271.54 424.346 272.7C424.346 273.78 424.026 274.52 424.026 274.52C423.726 273.6 423.226 272.62 422.126 272.62C420.586 272.62 419.406 274.44 419.406 275.78C419.406 276.74 419.986 277.36 420.986 277.36C422.226 277.36 423.646 276.36 423.646 276.36C423.646 276.36 423.706 276.7 423.826 276.82C423.926 276.94 424.106 276.98 424.246 276.98C424.346 276.98 424.446 276.96 424.486 276.9C424.586 276.84 425.346 274.78 425.346 272.66ZM435.189 268.52C435.149 267.96 434.429 267.98 434.009 267.96C433.829 267.96 433.649 267.94 433.469 267.94C432.049 267.94 430.849 268.2 430.849 268.2C431.029 266.9 431.149 266.58 431.269 265.38C431.309 264.96 431.329 264.6 431.329 264.3C431.329 263.24 431.089 262.86 430.709 262.86C430.329 262.86 430.249 263.22 430.249 263.64C430.249 263.92 430.289 264.2 430.289 264.54C430.289 265.22 429.809 268.38 429.809 268.38C428.609 268.7 428.349 268.8 427.209 269.24C426.109 269.66 426.069 269.8 425.969 270.1C425.949 270.16 425.949 270.2 425.949 270.24C425.949 270.52 426.349 270.82 426.569 270.82C426.929 270.82 427.609 270.2 427.949 270.04C428.669 269.7 429.649 269.48 429.649 269.48C429.549 270.34 429.469 270.74 429.329 272.16C429.109 274.2 429.109 275.44 429.109 276.34C429.109 276.66 429.209 277.4 429.809 277.44H429.889C430.269 277.44 430.369 277.22 430.369 276.96C430.369 276.72 430.269 276.44 430.269 276.36C430.249 276.06 430.249 275.72 430.249 275.38C430.249 272.72 430.669 269.5 430.689 269.26C431.409 269.1 432.789 268.82 434.029 268.82C434.189 268.82 434.469 268.88 434.709 268.88C434.969 268.88 435.189 268.82 435.189 268.52ZM438.767 269.7C438.147 270.26 437.807 270.48 437.287 270.78C436.047 271.54 434.927 271.6 434.927 271.6C434.927 271.6 435.547 270.78 436.567 270.26C437.287 269.88 438.027 269.7 438.767 269.7ZM442.707 273.16C442.707 272.82 442.407 272.52 442.107 272.52C441.767 272.52 441.547 273.04 441.427 273.26C441.227 273.54 438.127 276.08 436.547 276.08C435.667 276.08 435.287 275.6 434.927 275.02C434.487 274.34 434.387 273.72 434.387 273.3C434.387 272.94 434.447 272.72 434.447 272.72C435.007 272.68 436.227 272.56 437.467 271.8C438.607 271.12 440.307 269.84 440.307 269.34C440.307 269.28 440.287 269.24 440.227 269.2C439.747 268.88 439.167 268.74 438.507 268.74C436.407 268.74 433.827 270.28 433.307 272.54C433.247 272.78 433.227 273.02 433.227 273.26C433.227 274.74 434.147 276.32 435.447 276.92C435.707 277.04 436.007 277.1 436.327 277.1C438.587 277.1 441.807 274.16 442.247 273.92C442.507 273.74 442.707 273.44 442.707 273.16Z" fill="#005573"/>
<path d="M314.96 184.52C314.96 184.28 314.96 184.08 314.9 184C314.88 183.98 314.86 183.96 314.84 183.96C309 185.16 304.36 187.58 303.9 187.94C303.92 187.92 303.8 188.04 303.8 188.12C303.8 188.4 304.18 188.74 304.54 188.78C304.88 188.78 309.52 186.44 310.82 186.44C311.22 186.44 311.38 186.8 311.38 187.1C311.38 189.06 306.08 193.8 302.88 193.8C300.5 193.8 299.84 191.42 299.84 189.78C299.84 189.4 299.88 189.06 299.94 188.78C301.14 183.22 307.92 181.04 307.98 180.78C308 180.7 308 180.62 308 180.54C308 180.2 307.78 180.02 307.28 180C306.86 179.98 299.22 183.14 298.74 189.44C298.72 189.7 298.72 189.76 298.72 189.94C298.72 192.46 300.08 194.94 302.7 194.94C306.42 194.94 312.26 190.22 312.7 186.92C312.7 186.92 312.72 186.8 312.72 186.66C312.72 186.06 312.44 185.76 312.44 185.76L313.7 185.28C313.66 186.68 313.54 187.22 313.26 189C313.12 189.88 313.06 190.8 313.06 191.52C313.06 191.96 313.1 193.18 313.62 193.18C313.66 193.18 313.7 193.16 313.76 193.16C313.98 193.1 314.74 191.7 314.78 191.42C314.78 191.08 314.42 191.1 314.28 190.88C314.2 190.76 314.18 190.6 314.18 190.36C314.18 189.72 314.4 188.66 314.64 187.38C314.78 186.62 314.96 185.28 314.96 184.52ZM319.905 192.3C319.905 192.3 318.565 193.42 317.585 193.42C317.085 193.42 316.905 193.14 316.905 192.7C316.905 191.7 317.745 190.62 318.745 190.62C319.405 190.62 319.905 192.3 319.905 192.3ZM321.905 189.66C321.905 188.1 321.505 186.5 320.125 185.64C319.805 185.44 319.425 185.36 319.005 185.36C317.845 185.36 316.545 186.04 316.545 186.72C316.565 187.08 316.905 187.22 317.125 187.22C317.225 187.22 317.285 187.2 317.285 187.12C317.325 186.84 318.105 186.3 318.905 186.3C320.485 186.3 320.905 188.54 320.905 189.7C320.905 190.78 320.585 191.52 320.585 191.52C320.285 190.6 319.785 189.62 318.685 189.62C317.145 189.62 315.965 191.44 315.965 192.78C315.965 193.74 316.545 194.36 317.545 194.36C318.785 194.36 320.205 193.36 320.205 193.36C320.205 193.36 320.265 193.7 320.385 193.82C320.485 193.94 320.665 193.98 320.805 193.98C320.905 193.98 321.005 193.96 321.045 193.9C321.145 193.84 321.905 191.78 321.905 189.66ZM328.035 189.08C328.035 189.16 328.035 189.2 328.015 189.3C327.535 191.48 324.435 193 324.435 193C324.435 193 324.735 190.5 324.915 189.32C325.095 188.16 325.415 186.6 325.415 186.6C326.575 186.68 328.035 188.1 328.035 189.08ZM329.115 189.24C329.115 186.9 326.395 185.52 324.995 185.5C324.695 185.5 323.575 185.78 323.575 186.38C323.575 186.84 324.075 186.98 324.075 186.98C323.595 190.6 323.335 192.02 323.155 196.18C323.135 196.82 323.115 197.4 323.115 197.92C323.115 199.74 323.235 200.86 323.235 201.3C323.235 201.42 323.235 201.48 323.215 201.5C323.155 201.6 323.135 201.72 323.135 201.86C323.135 202.26 323.415 202.7 323.835 202.7C324.095 202.7 324.315 202.46 324.315 202.12C324.315 202 324.275 201.88 324.215 201.74C324.175 201.64 324.115 200.74 324.115 199.3V197.98C324.115 195.24 324.395 193.46 324.395 193.46C324.455 193.68 324.775 193.98 325.075 193.98C325.475 193.98 329.115 191 329.115 189.24Z" fill="#005573"/>
<path d="M150.86 177.96C150.26 178.16 149.7 178.3 148.98 178.48C147.7 178.8 146.12 179.1 146.12 179.1C146.12 179.1 147.02 176.96 147.62 175.76C148.24 174.5 149.32 172.48 149.32 172.48C149.62 173.26 149.84 174.16 150.12 175.1C150.56 176.68 150.86 177.96 150.86 177.96ZM155.7 177.18C155.66 176.76 155.44 176.66 155.22 176.66C154.96 176.66 154.7 176.78 154.7 176.78L151.9 177.62C151.52 176.06 150.98 173.82 150.72 172.88C150.38 171.66 150.3 170.72 150.26 170.46C150.22 170.16 150.12 169.7 149.74 169.7C149.28 169.7 149.12 170.02 148.98 170.34L144.88 179.3C144.66 179.36 143.8 179.5 143.7 179.9C143.66 180.02 143.66 180.12 143.66 180.2C143.66 180.8 144.26 180.86 144.26 180.86C143.9 181.74 143.48 182.9 143.48 183.38C143.48 183.42 143.48 183.46 143.5 183.5C143.58 183.7 143.78 183.84 144.02 183.84C144.12 183.84 144.22 183.8 144.34 183.76C144.64 183.62 144.6 183.36 144.7 182.74C144.8 182.12 145.52 180.7 145.52 180.7C146.3 180.42 147 180.12 147.7 179.9C149.14 179.42 151.08 178.86 151.08 178.86L152.5 184.78C152.48 184.86 152.48 184.88 152.48 184.9C152.48 185.22 152.94 185.52 153.3 185.52C153.62 185.52 153.9 185.2 153.9 184.94C153.9 184.56 153.44 184.22 153.44 184.22L152.1 178.52L154.68 177.76C154.76 177.8 154.86 177.82 154.98 177.82C155.32 177.82 155.7 177.64 155.7 177.18ZM165.522 180.26C165.522 180.04 165.342 179.82 165.102 179.82C165.042 179.82 164.982 179.84 164.922 179.86C164.702 179.94 159.922 183.08 157.402 183.08C156.542 183.08 155.862 182.6 155.862 181.76C155.862 180.02 158.462 177.36 158.922 177.22C158.962 177.2 159.022 177.2 159.082 177.2C159.322 177.2 159.542 177.3 159.742 177.3C160.122 177.3 160.542 176.7 160.542 176.34C160.542 176.06 160.342 175.86 159.862 175.86C159.762 175.86 159.642 175.86 159.522 175.88C157.782 176.14 154.762 179.62 154.762 181.94C154.762 183.34 156.082 184 157.262 184C160.522 184 165.502 180.52 165.522 180.34V180.26ZM174.588 169.94C174.588 169.62 174.368 169.38 174.088 169.38C173.568 169.38 173.728 169.84 173.308 170.7C173.068 171.22 172.968 171.68 172.968 172.04C172.968 172.32 173.028 172.72 173.328 172.72C173.468 172.72 173.588 172.62 173.688 172.52C173.888 172.32 173.748 172 174.048 171.26C174.308 170.62 174.568 170.28 174.588 170.02V169.94ZM173.288 175.88C172.848 176.14 172.908 177.14 172.848 178.1C172.748 180.02 172.648 181.46 172.648 182.42C172.648 183.14 172.708 183.58 172.888 183.72C173.048 183.84 173.228 183.9 173.368 183.9C173.768 183.9 173.908 183.58 173.908 183.24C173.908 182.88 173.668 182.84 173.668 181.94V181.56C173.668 180.78 174.148 177.26 174.148 176.58C174.148 176.16 173.908 175.86 173.608 175.82C173.708 175.78 173.768 175.68 173.768 175.52C173.728 175.02 173.088 175.02 172.588 174.98C172.408 174.96 171.868 174.94 171.688 174.94C170.268 174.94 169.068 175.2 169.068 175.2C169.248 173.9 169.368 173.58 169.488 172.38C169.528 171.96 169.548 171.6 169.548 171.3C169.548 170.24 169.308 169.86 168.928 169.86C168.548 169.86 168.468 170.22 168.468 170.64C168.468 170.92 168.508 171.2 168.508 171.42V171.54C168.308 173.74 168.028 175.38 168.028 175.38C166.828 175.7 166.568 175.8 165.428 176.24C164.328 176.66 164.288 176.82 164.188 177.12C164.168 177.16 164.168 177.2 164.168 177.24C164.168 177.52 164.448 177.74 164.788 177.82C165.148 177.82 165.828 177.2 166.168 177.04C166.888 176.7 167.868 176.48 167.868 176.48C167.768 177.34 167.688 177.74 167.548 179.16C167.328 181.2 167.328 182.44 167.328 183.34C167.328 183.66 167.428 184.4 168.028 184.44H168.108C168.488 184.44 168.588 184.22 168.588 183.96C168.588 183.72 168.488 183.44 168.488 183.36C168.468 183.06 168.468 182.72 168.468 182.38C168.468 179.72 168.888 176.5 168.908 176.26C169.628 176.1 171.008 175.82 172.608 175.82C172.768 175.82 173.048 175.88 173.288 175.88ZM179.448 177C180.548 177 181.028 178.28 181.028 179.16C181.028 179.86 180.788 180.56 180.448 181.22C180.068 181.94 178.808 183.04 177.888 183.04C176.968 183.04 176.588 181.74 176.588 181.02C176.588 180.74 176.628 180.46 176.708 180.24C177.728 177.22 179.288 177 179.448 177ZM182.028 179.4C182.028 179.18 182.008 178.98 181.988 178.74C181.768 176.56 180.088 175.86 179.288 175.86C178.128 175.86 176.968 176.92 175.848 179.46C175.608 180 175.508 180.52 175.508 181.04C175.508 182.36 176.248 184.08 177.668 184.08C179.348 184.08 182.028 182.26 182.028 179.4ZM189.553 184.5C189.553 184.18 189.353 183.8 189.213 183.52C189.173 183.38 189.153 183.02 189.153 182.22V179.92C189.153 177.32 189.053 175.46 188.113 175.26H188.033C186.793 175.26 184.673 179.86 184.673 179.86C184.653 179.7 184.653 179.58 184.653 179.48C184.653 179.22 184.693 178.98 184.693 178.4C184.693 177.24 184.893 176.48 184.893 176.04C184.893 175.88 184.873 175.78 184.813 175.7C184.693 175.54 184.433 175.38 184.173 175.38C183.973 175.38 183.793 175.5 183.733 175.84C183.693 176.12 183.513 177.56 183.473 179.44C183.433 181.6 183.313 182.76 183.313 183.4C183.313 183.72 183.353 183.92 183.433 184.06C183.573 184.24 183.733 184.3 183.873 184.3C184.013 184.3 184.153 184.24 184.253 184.2C184.493 184.02 184.473 183.5 185.073 181.88C185.973 179.44 187.453 176.68 187.813 176.68C188.053 176.68 188.073 178.3 188.073 178.54L188.053 180.48C188.053 182.28 188.253 183.22 188.253 183.64C188.253 183.84 188.193 183.96 188.193 184.1C188.193 184.64 188.693 185 189.093 185C189.393 185 189.553 184.74 189.553 184.5Z" fill="#005573"/>
<path d="M45.502 135.772C45.082 135.912 44.69 136.01 44.186 136.136C43.29 136.36 42.184 136.57 42.184 136.57C42.184 136.57 42.814 135.072 43.234 134.232C43.668 133.35 44.424 131.936 44.424 131.936C44.634 132.482 44.788 133.112 44.984 133.77C45.292 134.876 45.502 135.772 45.502 135.772ZM48.89 135.226C48.862 134.932 48.708 134.862 48.554 134.862C48.372 134.862 48.19 134.946 48.19 134.946L46.23 135.534C45.964 134.442 45.586 132.874 45.404 132.216C45.166 131.362 45.11 130.704 45.082 130.522C45.054 130.312 44.984 129.99 44.718 129.99C44.396 129.99 44.284 130.214 44.186 130.438L41.316 136.71C41.162 136.752 40.56 136.85 40.49 137.13C40.462 137.214 40.462 137.284 40.462 137.34C40.462 137.76 40.882 137.802 40.882 137.802C40.63 138.418 40.336 139.23 40.336 139.566C40.336 139.594 40.336 139.622 40.35 139.65C40.406 139.79 40.546 139.888 40.714 139.888C40.784 139.888 40.854 139.86 40.938 139.832C41.148 139.734 41.12 139.552 41.19 139.118C41.26 138.684 41.764 137.69 41.764 137.69C42.31 137.494 42.8 137.284 43.29 137.13C44.298 136.794 45.656 136.402 45.656 136.402L46.65 140.546C46.636 140.602 46.636 140.616 46.636 140.63C46.636 140.854 46.958 141.064 47.21 141.064C47.434 141.064 47.63 140.84 47.63 140.658C47.63 140.392 47.308 140.154 47.308 140.154L46.37 136.164L48.176 135.632C48.232 135.66 48.302 135.674 48.386 135.674C48.624 135.674 48.89 135.548 48.89 135.226ZM55.7654 137.382C55.7654 137.228 55.6394 137.074 55.4714 137.074C55.4294 137.074 55.3874 137.088 55.3454 137.102C55.1914 137.158 51.8454 139.356 50.0814 139.356C49.4794 139.356 49.0034 139.02 49.0034 138.432C49.0034 137.214 50.8234 135.352 51.1454 135.254C51.1734 135.24 51.2154 135.24 51.2574 135.24C51.4254 135.24 51.5794 135.31 51.7194 135.31C51.9854 135.31 52.2794 134.89 52.2794 134.638C52.2794 134.442 52.1394 134.302 51.8034 134.302C51.7334 134.302 51.6494 134.302 51.5654 134.316C50.3474 134.498 48.2334 136.934 48.2334 138.558C48.2334 139.538 49.1574 140 49.9834 140C52.2654 140 55.7514 137.564 55.7654 137.438V137.382ZM62.1114 130.158C62.1114 129.934 61.9574 129.766 61.7614 129.766C61.3974 129.766 61.5094 130.088 61.2154 130.69C61.0474 131.054 60.9774 131.376 60.9774 131.628C60.9774 131.824 61.0194 132.104 61.2294 132.104C61.3274 132.104 61.4114 132.034 61.4814 131.964C61.6214 131.824 61.5234 131.6 61.7334 131.082C61.9154 130.634 62.0974 130.396 62.1114 130.214V130.158ZM61.2014 134.316C60.8934 134.498 60.9354 135.198 60.8934 135.87C60.8234 137.214 60.7534 138.222 60.7534 138.894C60.7534 139.398 60.7954 139.706 60.9214 139.804C61.0334 139.888 61.1594 139.93 61.2574 139.93C61.5374 139.93 61.6354 139.706 61.6354 139.468C61.6354 139.216 61.4674 139.188 61.4674 138.558V138.292C61.4674 137.746 61.8034 135.282 61.8034 134.806C61.8034 134.512 61.6354 134.302 61.4254 134.274C61.4954 134.246 61.5374 134.176 61.5374 134.064C61.5094 133.714 61.0614 133.714 60.7114 133.686C60.5854 133.672 60.2074 133.658 60.0814 133.658C59.0874 133.658 58.2474 133.84 58.2474 133.84C58.3734 132.93 58.4574 132.706 58.5414 131.866C58.5694 131.572 58.5834 131.32 58.5834 131.11C58.5834 130.368 58.4154 130.102 58.1494 130.102C57.8834 130.102 57.8274 130.354 57.8274 130.648C57.8274 130.844 57.8554 131.04 57.8554 131.194V131.278C57.7154 132.818 57.5194 133.966 57.5194 133.966C56.6794 134.19 56.4974 134.26 55.6994 134.568C54.9294 134.862 54.9014 134.974 54.8314 135.184C54.8174 135.212 54.8174 135.24 54.8174 135.268C54.8174 135.464 55.0134 135.618 55.2514 135.674C55.5034 135.674 55.9794 135.24 56.2174 135.128C56.7214 134.89 57.4074 134.736 57.4074 134.736C57.3374 135.338 57.2814 135.618 57.1834 136.612C57.0294 138.04 57.0294 138.908 57.0294 139.538C57.0294 139.762 57.0994 140.28 57.5194 140.308H57.5754C57.8414 140.308 57.9114 140.154 57.9114 139.972C57.9114 139.804 57.8414 139.608 57.8414 139.552C57.8274 139.342 57.8274 139.104 57.8274 138.866C57.8274 137.004 58.1214 134.75 58.1354 134.582C58.6394 134.47 59.6054 134.274 60.7254 134.274C60.8374 134.274 61.0334 134.316 61.2014 134.316ZM65.5139 135.1C66.2839 135.1 66.6199 135.996 66.6199 136.612C66.6199 137.102 66.4519 137.592 66.2139 138.054C65.9479 138.558 65.0659 139.328 64.4219 139.328C63.7779 139.328 63.5119 138.418 63.5119 137.914C63.5119 137.718 63.5399 137.522 63.5959 137.368C64.3099 135.254 65.4019 135.1 65.5139 135.1ZM67.3199 136.78C67.3199 136.626 67.3059 136.486 67.2919 136.318C67.1379 134.792 65.9619 134.302 65.4019 134.302C64.5899 134.302 63.7779 135.044 62.9939 136.822C62.8259 137.2 62.7559 137.564 62.7559 137.928C62.7559 138.852 63.2739 140.056 64.2679 140.056C65.4439 140.056 67.3199 138.782 67.3199 136.78ZM72.5869 140.35C72.5869 140.126 72.4469 139.86 72.3489 139.664C72.3209 139.566 72.3069 139.314 72.3069 138.754V137.144C72.3069 135.324 72.2369 134.022 71.5789 133.882H71.5229C70.6549 133.882 69.1709 137.102 69.1709 137.102C69.1569 136.99 69.1569 136.906 69.1569 136.836C69.1569 136.654 69.1849 136.486 69.1849 136.08C69.1849 135.268 69.3249 134.736 69.3249 134.428C69.3249 134.316 69.3109 134.246 69.2689 134.19C69.1849 134.078 69.0029 133.966 68.8209 133.966C68.6809 133.966 68.5549 134.05 68.5129 134.288C68.4849 134.484 68.3589 135.492 68.3309 136.808C68.3029 138.32 68.2189 139.132 68.2189 139.58C68.2189 139.804 68.2469 139.944 68.3029 140.042C68.4009 140.168 68.5129 140.21 68.6109 140.21C68.7089 140.21 68.8069 140.168 68.8769 140.14C69.0449 140.014 69.0309 139.65 69.4509 138.516C70.0809 136.808 71.1169 134.876 71.3689 134.876C71.5369 134.876 71.5509 136.01 71.5509 136.178L71.5369 137.536C71.5369 138.796 71.6769 139.454 71.6769 139.748C71.6769 139.888 71.6349 139.972 71.6349 140.07C71.6349 140.448 71.9849 140.7 72.2649 140.7C72.4749 140.7 72.5869 140.518 72.5869 140.35ZM48.666 156.546C48.666 156.798 48.582 157.05 48.484 157.246C47.448 159.486 42.268 162.23 42.268 162.23C42.268 162.23 42.016 160.97 42.016 159.584C42.016 159.444 42.03 159.29 42.03 159.15C42.086 157.624 42.226 156 42.464 154.026C42.464 154.026 42.744 153.9 43.738 153.886H43.794C45.768 153.886 48.666 154.95 48.666 156.546ZM49.506 156.49C49.492 154.656 46.58 153.186 43.514 153.186H43.304C42.03 153.214 40.588 153.536 40.098 153.844C39.972 153.928 39.916 154.026 39.916 154.138C39.916 154.376 40.182 154.614 40.42 154.614H40.476L41.526 154.25C41.526 154.25 41.33 157.12 41.274 158.38C41.26 158.562 41.26 158.758 41.26 158.982C41.26 160.438 41.428 162.496 41.428 162.496C41.372 162.678 41.302 162.874 41.302 163.07C41.302 163.252 41.358 163.434 41.456 163.532C41.47 163.546 41.484 163.546 41.498 163.546C41.526 163.546 41.554 163.532 41.582 163.532C41.68 163.532 41.708 163.658 41.806 163.658C42.366 163.63 42.422 163.378 42.422 163.196C42.422 163.07 42.464 163.042 42.464 163.042C44.928 161.558 49.506 158.954 49.506 156.49ZM52.5792 157.89C52.1452 158.282 51.9072 158.436 51.5432 158.646C50.6752 159.178 49.8912 159.22 49.8912 159.22C49.8912 159.22 50.3252 158.646 51.0392 158.282C51.5432 158.016 52.0612 157.89 52.5792 157.89ZM55.3372 160.312C55.3372 160.074 55.1272 159.864 54.9172 159.864C54.6792 159.864 54.5252 160.228 54.4412 160.382C54.3012 160.578 52.1312 162.356 51.0252 162.356C50.4092 162.356 50.1432 162.02 49.8912 161.614C49.5832 161.138 49.5132 160.704 49.5132 160.41C49.5132 160.158 49.5552 160.004 49.5552 160.004C49.9472 159.976 50.8012 159.892 51.6692 159.36C52.4672 158.884 53.6572 157.988 53.6572 157.638C53.6572 157.596 53.6432 157.568 53.6012 157.54C53.2652 157.316 52.8592 157.218 52.3972 157.218C50.9272 157.218 49.1212 158.296 48.7572 159.878C48.7152 160.046 48.7012 160.214 48.7012 160.382C48.7012 161.418 49.3452 162.524 50.2552 162.944C50.4372 163.028 50.6472 163.07 50.8712 163.07C52.4532 163.07 54.7072 161.012 55.0152 160.844C55.1972 160.718 55.3372 160.508 55.3372 160.312ZM57.8478 153.396C57.8478 153.2 57.8058 153.102 57.7358 153.018C57.5958 152.864 57.4838 152.808 57.3858 152.808C57.2598 152.808 57.1758 152.892 57.0778 152.976C56.8958 153.13 56.8538 154.334 56.6858 156.154C56.5178 157.862 56.2238 160.872 56.2238 162.538C56.2238 163.168 56.2798 163.616 56.3918 163.686C56.5178 163.784 56.6298 163.812 56.7278 163.812C57.0078 163.812 57.0638 163.406 57.0638 163.098C57.0638 162.622 57.0218 162.118 57.0218 161.67C57.0218 160.55 57.0918 159.206 57.2598 157.89C57.6098 154.95 57.8478 153.886 57.8478 153.396ZM61.2122 161.81C61.2122 161.81 60.2742 162.594 59.5882 162.594C59.2382 162.594 59.1122 162.398 59.1122 162.09C59.1122 161.39 59.7002 160.634 60.4002 160.634C60.8622 160.634 61.2122 161.81 61.2122 161.81ZM62.6122 159.962C62.6122 158.87 62.3322 157.75 61.3662 157.148C61.1422 157.008 60.8762 156.952 60.5822 156.952C59.7702 156.952 58.8602 157.428 58.8602 157.904C58.8742 158.156 59.1122 158.254 59.2662 158.254C59.3362 158.254 59.3782 158.24 59.3782 158.184C59.4062 157.988 59.9522 157.61 60.5122 157.61C61.6182 157.61 61.9122 159.178 61.9122 159.99C61.9122 160.746 61.6882 161.264 61.6882 161.264C61.4782 160.62 61.1282 159.934 60.3582 159.934C59.2802 159.934 58.4542 161.208 58.4542 162.146C58.4542 162.818 58.8602 163.252 59.5602 163.252C60.4282 163.252 61.4222 162.552 61.4222 162.552C61.4222 162.552 61.4642 162.79 61.5482 162.874C61.6182 162.958 61.7442 162.986 61.8422 162.986C61.9122 162.986 61.9822 162.972 62.0102 162.93C62.0802 162.888 62.6122 161.446 62.6122 159.962ZM68.2842 158.814C68.2842 158.282 68.1722 157.722 67.9482 157.638C67.8922 157.61 67.8362 157.61 67.7942 157.61C67.5002 157.61 67.4442 158.044 67.2622 158.268C66.1282 159.598 64.9802 160.97 64.6302 160.97C64.5322 160.97 64.5182 160.816 64.5182 160.732C64.5182 159.528 65.0222 158.422 65.0782 157.274C65.0642 157.05 64.7562 156.84 64.6022 156.84C64.1822 156.84 64.1542 157.988 64.1262 158.156C63.9442 159.304 63.7482 160.494 63.7482 161.278C63.7482 161.824 63.8462 162.188 64.1542 162.188C64.9942 162.202 67.4302 159.122 67.4302 159.122C67.3882 161.222 67.2902 162.244 67.0942 164.162C66.8142 166.976 66.6462 168.586 66.5482 168.614C66.4922 168.628 66.3802 168.852 66.3802 169.062C66.3802 169.286 66.5062 169.51 66.9402 169.51C67.3042 169.51 67.4442 169.342 67.4442 169.132C67.4442 168.908 67.3042 168.642 67.2482 168.572C67.2342 168.558 67.2342 168.53 67.2342 168.474C67.2342 168.18 67.4022 167.284 67.5982 165.576C67.8642 163.252 68.1582 160.046 68.2562 159.262C68.2702 159.122 68.2842 158.968 68.2842 158.814Z" fill="#575457"/>
<path d="M418.465 148.85C418.465 147.965 418.165 146.66 418.075 146.135C417.205 140.945 417.895 139.085 416.965 139.085H416.905C416.455 139.085 416.365 139.385 416.185 139.685C415.84 140.27 411.895 147.725 411.895 147.725C411.61 146.66 411.115 145.025 410.515 143.465C409.525 140.84 408.82 138.62 408.595 138.53C408.58 138.53 408.565 138.515 408.55 138.515C408.31 138.515 407.98 139.085 407.74 139.265C407.62 139.37 407.62 139.55 407.62 139.805V139.955C407.62 140.225 407.605 140.57 407.485 140.975C407.32 141.5 406.51 147.875 406.3 148.16C406.165 148.37 406 148.67 406 148.925C406 149.135 406.105 149.3 406.39 149.39C406.45 149.405 406.495 149.405 406.54 149.405C406.945 149.405 407.185 148.91 407.185 148.55C407.185 148.535 407.185 148.52 407.17 148.505C407.17 147.71 408.445 140.165 408.445 140.165C408.625 140.6 409.165 142.175 409.39 142.73C410.305 144.875 411.025 147.71 411.13 148.19C411.25 148.79 411.55 149.015 411.85 149.015C412.195 149.015 412.54 148.715 412.555 148.355C412.585 148.04 416.62 140.585 416.62 140.585C416.62 141.725 416.71 142.025 417.49 148.175C417.49 148.235 417.505 148.28 417.505 148.34C417.505 148.64 417.43 148.94 417.43 149.195C417.43 149.51 417.535 149.72 418 149.72H418.09C418.375 149.705 418.465 149.345 418.465 148.85ZM423.301 143.525C422.836 143.945 422.581 144.11 422.191 144.335C421.261 144.905 420.421 144.95 420.421 144.95C420.421 144.95 420.886 144.335 421.651 143.945C422.191 143.66 422.746 143.525 423.301 143.525ZM426.256 146.12C426.256 145.865 426.031 145.64 425.806 145.64C425.551 145.64 425.386 146.03 425.296 146.195C425.146 146.405 422.821 148.31 421.636 148.31C420.976 148.31 420.691 147.95 420.421 147.515C420.091 147.005 420.016 146.54 420.016 146.225C420.016 145.955 420.061 145.79 420.061 145.79C420.481 145.76 421.396 145.67 422.326 145.1C423.181 144.59 424.456 143.63 424.456 143.255C424.456 143.21 424.441 143.18 424.396 143.15C424.036 142.91 423.601 142.805 423.106 142.805C421.531 142.805 419.596 143.96 419.206 145.655C419.161 145.835 419.146 146.015 419.146 146.195C419.146 147.305 419.836 148.49 420.811 148.94C421.006 149.03 421.231 149.075 421.471 149.075C423.166 149.075 425.581 146.87 425.911 146.69C426.106 146.555 426.256 146.33 426.256 146.12ZM429.621 147.725C429.621 147.725 428.616 148.565 427.881 148.565C427.506 148.565 427.371 148.355 427.371 148.025C427.371 147.275 428.001 146.465 428.751 146.465C429.246 146.465 429.621 147.725 429.621 147.725ZM431.121 145.745C431.121 144.575 430.821 143.375 429.786 142.73C429.546 142.58 429.261 142.52 428.946 142.52C428.076 142.52 427.101 143.03 427.101 143.54C427.116 143.81 427.371 143.915 427.536 143.915C427.611 143.915 427.656 143.9 427.656 143.84C427.686 143.63 428.271 143.225 428.871 143.225C430.056 143.225 430.371 144.905 430.371 145.775C430.371 146.585 430.131 147.14 430.131 147.14C429.906 146.45 429.531 145.715 428.706 145.715C427.551 145.715 426.666 147.08 426.666 148.085C426.666 148.805 427.101 149.27 427.851 149.27C428.781 149.27 429.846 148.52 429.846 148.52C429.846 148.52 429.891 148.775 429.981 148.865C430.056 148.955 430.191 148.985 430.296 148.985C430.371 148.985 430.446 148.97 430.476 148.925C430.551 148.88 431.121 147.335 431.121 145.745ZM436.553 141.92V141.86C436.538 141.68 436.013 141.41 435.818 141.32C435.728 141.275 435.608 141.245 435.473 141.245C435.278 141.245 435.038 141.305 434.858 141.455C433.868 142.28 431.978 143.69 431.978 145.34C431.978 147.59 435.428 147.44 435.638 148.175C435.638 148.715 433.463 149.45 433.373 149.6C433.313 149.675 433.283 149.75 433.283 149.825C433.283 150.035 433.508 150.215 433.823 150.23C434.048 150.23 436.508 148.94 436.508 148.325C436.508 147.395 435.653 147.245 434.738 146.885C433.748 146.51 432.758 146.21 432.758 145.34C432.758 144.875 433.133 144.005 433.808 143.405C434.993 142.34 435.158 142.025 435.668 142.01C435.788 142.01 435.953 142.19 436.238 142.19C436.463 142.19 436.553 142.07 436.553 141.92ZM441.53 143.675C441.53 143.675 441.5 143.075 441.11 143.075C440.645 143.075 440.63 143.405 440.63 143.615C440.615 144.005 440.36 146.435 439.61 147.755C439.505 147.935 439.4 148.01 439.31 148.01C438.8 148.01 438.275 146.105 438.275 143.705C438.275 143.51 438.29 143.315 438.29 143.105C438.29 142.91 438.17 142.535 437.84 142.535H437.765C437.6 142.535 437.465 142.655 437.465 143.015C437.48 143.57 437.525 148.94 439.295 148.94C439.43 148.94 439.595 148.895 439.76 148.82C440.66 148.4 441.53 143.96 441.53 143.675ZM448.652 143.03C448.652 142.85 448.532 142.67 448.442 142.64C448.187 142.55 447.962 142.52 447.752 142.52C446.852 142.52 446.237 143.21 445.682 143.735C444.722 144.62 443.687 146 443.687 146C443.687 144.995 443.687 144.71 443.672 144.185C443.642 143.27 443.597 142.925 443.372 142.715C443.252 142.61 443.147 142.565 443.042 142.565C442.892 142.565 442.592 142.745 442.592 142.91C442.592 143.09 442.922 143.405 442.922 145.28C442.922 145.58 442.907 145.91 442.892 146.3C442.832 147.455 442.652 148.22 442.652 148.67C442.652 148.865 442.682 149 442.772 149.09C442.877 149.195 443.027 149.27 443.177 149.27C443.297 149.27 443.417 149.225 443.507 149.105C443.702 148.85 443.507 147.695 444.062 146.855C445.142 145.22 446.282 143.945 447.227 143.39C447.377 143.3 447.512 143.27 447.617 143.27C447.857 143.27 448.022 143.405 448.217 143.405C448.442 143.405 448.652 143.225 448.652 143.03ZM451.88 143.525C451.415 143.945 451.16 144.11 450.77 144.335C449.84 144.905 449 144.95 449 144.95C449 144.95 449.465 144.335 450.23 143.945C450.77 143.66 451.325 143.525 451.88 143.525ZM454.835 146.12C454.835 145.865 454.61 145.64 454.385 145.64C454.13 145.64 453.965 146.03 453.875 146.195C453.725 146.405 451.4 148.31 450.215 148.31C449.555 148.31 449.27 147.95 449 147.515C448.67 147.005 448.595 146.54 448.595 146.225C448.595 145.955 448.64 145.79 448.64 145.79C449.06 145.76 449.975 145.67 450.905 145.1C451.76 144.59 453.035 143.63 453.035 143.255C453.035 143.21 453.02 143.18 452.975 143.15C452.615 142.91 452.18 142.805 451.685 142.805C450.11 142.805 448.175 143.96 447.785 145.655C447.74 145.835 447.725 146.015 447.725 146.195C447.725 147.305 448.415 148.49 449.39 148.94C449.585 149.03 449.81 149.075 450.05 149.075C451.745 149.075 454.16 146.87 454.49 146.69C454.685 146.555 454.835 146.33 454.835 146.12ZM463.411 148.325C463.411 148.1 463.261 147.8 463.261 147.59C463.261 147.47 463.276 147.005 463.276 146.405C463.276 145.25 463.246 143.6 463.111 143.105C463.021 142.76 462.556 142.205 462.226 142.205C461.131 142.355 459.286 146.645 459.286 146.645C459.181 144.14 459.046 142.955 458.896 142.73C458.761 142.475 458.416 142.19 458.176 142.19C457.621 142.19 456.616 144.38 456.616 144.38C456.526 143.72 456.451 143.63 456.256 143.42C456.181 143.345 456.076 143.3 455.971 143.3C455.656 143.3 455.506 143.54 455.506 143.795C455.506 144.065 455.566 144.47 455.566 144.995C455.566 145.16 455.551 145.355 455.536 145.565C455.506 145.925 455.296 147.635 455.296 148.595C455.296 148.91 455.311 149.135 455.371 149.225C455.431 149.33 455.596 149.375 455.761 149.375C455.956 149.375 456.241 149.285 456.241 149.09C456.241 148.985 456.196 148.85 456.196 148.565C456.196 148.43 456.211 148.265 456.241 148.055C456.571 146.03 457.741 143.495 458.161 143.495C458.176 143.495 458.191 143.495 458.206 143.51C458.401 143.63 458.461 145.16 458.536 147.365C458.596 148.94 458.461 149.255 459.076 149.405C459.106 149.405 459.121 149.42 459.136 149.42C459.526 149.42 459.451 148.37 460.291 146.33C461.011 144.575 462.001 143.135 462.151 143.135C462.466 143.135 462.526 144.74 462.526 144.815V144.875C462.526 145.31 462.481 146.135 462.481 146.885C462.481 147.59 462.526 148.25 462.646 148.49C462.721 148.625 462.856 148.685 462.976 148.685C463.201 148.685 463.411 148.565 463.411 148.325ZM468.36 143.525C467.895 143.945 467.64 144.11 467.25 144.335C466.32 144.905 465.48 144.95 465.48 144.95C465.48 144.95 465.945 144.335 466.71 143.945C467.25 143.66 467.805 143.525 468.36 143.525ZM471.315 146.12C471.315 145.865 471.09 145.64 470.865 145.64C470.61 145.64 470.445 146.03 470.355 146.195C470.205 146.405 467.88 148.31 466.695 148.31C466.035 148.31 465.75 147.95 465.48 147.515C465.15 147.005 465.075 146.54 465.075 146.225C465.075 145.955 465.12 145.79 465.12 145.79C465.54 145.76 466.455 145.67 467.385 145.1C468.24 144.59 469.515 143.63 469.515 143.255C469.515 143.21 469.5 143.18 469.455 143.15C469.095 142.91 468.66 142.805 468.165 142.805C466.59 142.805 464.655 143.96 464.265 145.655C464.22 145.835 464.205 146.015 464.205 146.195C464.205 147.305 464.895 148.49 465.87 148.94C466.065 149.03 466.29 149.075 466.53 149.075C468.225 149.075 470.64 146.87 470.97 146.69C471.165 146.555 471.315 146.33 471.315 146.12ZM476.539 149.375C476.539 149.135 476.389 148.85 476.284 148.64C476.254 148.535 476.239 148.265 476.239 147.665V145.94C476.239 143.99 476.164 142.595 475.459 142.445H475.399C474.469 142.445 472.879 145.895 472.879 145.895C472.864 145.775 472.864 145.685 472.864 145.61C472.864 145.415 472.894 145.235 472.894 144.8C472.894 143.93 473.044 143.36 473.044 143.03C473.044 142.91 473.029 142.835 472.984 142.775C472.894 142.655 472.699 142.535 472.504 142.535C472.354 142.535 472.219 142.625 472.174 142.88C472.144 143.09 472.009 144.17 471.979 145.58C471.949 147.2 471.859 148.07 471.859 148.55C471.859 148.79 471.889 148.94 471.949 149.045C472.054 149.18 472.174 149.225 472.279 149.225C472.384 149.225 472.489 149.18 472.564 149.15C472.744 149.015 472.729 148.625 473.179 147.41C473.854 145.58 474.964 143.51 475.234 143.51C475.414 143.51 475.429 144.725 475.429 144.905L475.414 146.36C475.414 147.71 475.564 148.415 475.564 148.73C475.564 148.88 475.519 148.97 475.519 149.075C475.519 149.48 475.894 149.75 476.194 149.75C476.419 149.75 476.539 149.555 476.539 149.375ZM483.781 142.64C483.751 142.22 483.211 142.235 482.896 142.22C482.761 142.22 482.626 142.205 482.491 142.205C481.426 142.205 480.526 142.4 480.526 142.4C480.661 141.425 480.751 141.185 480.841 140.285C480.871 139.97 480.886 139.7 480.886 139.475C480.886 138.68 480.706 138.395 480.421 138.395C480.136 138.395 480.076 138.665 480.076 138.98C480.076 139.19 480.106 139.4 480.106 139.655C480.106 140.165 479.746 142.535 479.746 142.535C478.846 142.775 478.651 142.85 477.796 143.18C476.971 143.495 476.941 143.6 476.866 143.825C476.851 143.87 476.851 143.9 476.851 143.93C476.851 144.14 477.151 144.365 477.316 144.365C477.586 144.365 478.096 143.9 478.351 143.78C478.891 143.525 479.626 143.36 479.626 143.36C479.551 144.005 479.491 144.305 479.386 145.37C479.221 146.9 479.221 147.83 479.221 148.505C479.221 148.745 479.296 149.3 479.746 149.33H479.806C480.091 149.33 480.166 149.165 480.166 148.97C480.166 148.79 480.091 148.58 480.091 148.52C480.076 148.295 480.076 148.04 480.076 147.785C480.076 145.79 480.391 143.375 480.406 143.195C480.946 143.075 481.981 142.865 482.911 142.865C483.031 142.865 483.241 142.91 483.421 142.91C483.616 142.91 483.781 142.865 483.781 142.64ZM415.285 166.085C415.285 166.355 415.195 166.625 415.09 166.835C413.98 169.235 408.43 172.175 408.43 172.175C408.43 172.175 408.16 170.825 408.16 169.34C408.16 169.19 408.175 169.025 408.175 168.875C408.235 167.24 408.385 165.5 408.64 163.385C408.64 163.385 408.94 163.25 410.005 163.235H410.065C412.18 163.235 415.285 164.375 415.285 166.085ZM416.185 166.025C416.17 164.06 413.05 162.485 409.765 162.485H409.54C408.175 162.515 406.63 162.86 406.105 163.19C405.97 163.28 405.91 163.385 405.91 163.505C405.91 163.76 406.195 164.015 406.45 164.015H406.51L407.635 163.625C407.635 163.625 407.425 166.7 407.365 168.05C407.35 168.245 407.35 168.455 407.35 168.695C407.35 170.255 407.53 172.46 407.53 172.46C407.47 172.655 407.395 172.865 407.395 173.075C407.395 173.27 407.455 173.465 407.56 173.57C407.575 173.585 407.59 173.585 407.605 173.585C407.635 173.585 407.665 173.57 407.695 173.57C407.8 173.57 407.83 173.705 407.935 173.705C408.535 173.675 408.595 173.405 408.595 173.21C408.595 173.075 408.64 173.045 408.64 173.045C411.28 171.455 416.185 168.665 416.185 166.025ZM419.478 167.525C419.013 167.945 418.758 168.11 418.368 168.335C417.438 168.905 416.598 168.95 416.598 168.95C416.598 168.95 417.063 168.335 417.828 167.945C418.368 167.66 418.923 167.525 419.478 167.525ZM422.433 170.12C422.433 169.865 422.208 169.64 421.983 169.64C421.728 169.64 421.563 170.03 421.473 170.195C421.323 170.405 418.998 172.31 417.813 172.31C417.153 172.31 416.868 171.95 416.598 171.515C416.268 171.005 416.193 170.54 416.193 170.225C416.193 169.955 416.238 169.79 416.238 169.79C416.658 169.76 417.573 169.67 418.503 169.1C419.358 168.59 420.633 167.63 420.633 167.255C420.633 167.21 420.618 167.18 420.573 167.15C420.213 166.91 419.778 166.805 419.283 166.805C417.708 166.805 415.773 167.96 415.383 169.655C415.338 169.835 415.323 170.015 415.323 170.195C415.323 171.305 416.013 172.49 416.988 172.94C417.183 173.03 417.408 173.075 417.648 173.075C419.343 173.075 421.758 170.87 422.088 170.69C422.283 170.555 422.433 170.33 422.433 170.12ZM425.123 162.71C425.123 162.5 425.078 162.395 425.003 162.305C424.853 162.14 424.733 162.08 424.628 162.08C424.493 162.08 424.403 162.17 424.298 162.26C424.103 162.425 424.058 163.715 423.878 165.665C423.698 167.495 423.383 170.72 423.383 172.505C423.383 173.18 423.443 173.66 423.563 173.735C423.698 173.84 423.818 173.87 423.923 173.87C424.223 173.87 424.283 173.435 424.283 173.105C424.283 172.595 424.238 172.055 424.238 171.575C424.238 170.375 424.313 168.935 424.493 167.525C424.868 164.375 425.123 163.235 425.123 162.71ZM428.727 171.725C428.727 171.725 427.722 172.565 426.987 172.565C426.612 172.565 426.477 172.355 426.477 172.025C426.477 171.275 427.107 170.465 427.857 170.465C428.352 170.465 428.727 171.725 428.727 171.725ZM430.227 169.745C430.227 168.575 429.927 167.375 428.892 166.73C428.652 166.58 428.367 166.52 428.052 166.52C427.182 166.52 426.207 167.03 426.207 167.54C426.222 167.81 426.477 167.915 426.642 167.915C426.717 167.915 426.762 167.9 426.762 167.84C426.792 167.63 427.377 167.225 427.977 167.225C429.162 167.225 429.477 168.905 429.477 169.775C429.477 170.585 429.237 171.14 429.237 171.14C429.012 170.45 428.637 169.715 427.812 169.715C426.657 169.715 425.772 171.08 425.772 172.085C425.772 172.805 426.207 173.27 426.957 173.27C427.887 173.27 428.952 172.52 428.952 172.52C428.952 172.52 428.997 172.775 429.087 172.865C429.162 172.955 429.297 172.985 429.402 172.985C429.477 172.985 429.552 172.97 429.582 172.925C429.657 172.88 430.227 171.335 430.227 169.745ZM436.304 168.515C436.304 167.945 436.184 167.345 435.944 167.255C435.884 167.225 435.824 167.225 435.779 167.225C435.464 167.225 435.404 167.69 435.209 167.93C433.994 169.355 432.764 170.825 432.389 170.825C432.284 170.825 432.269 170.66 432.269 170.57C432.269 169.28 432.809 168.095 432.869 166.865C432.854 166.625 432.524 166.4 432.359 166.4C431.909 166.4 431.879 167.63 431.849 167.81C431.654 169.04 431.444 170.315 431.444 171.155C431.444 171.74 431.549 172.13 431.879 172.13C432.779 172.145 435.389 168.845 435.389 168.845C435.344 171.095 435.239 172.19 435.029 174.245C434.729 177.26 434.549 178.985 434.444 179.015C434.384 179.03 434.264 179.27 434.264 179.495C434.264 179.735 434.399 179.975 434.864 179.975C435.254 179.975 435.404 179.795 435.404 179.57C435.404 179.33 435.254 179.045 435.194 178.97C435.179 178.955 435.179 178.925 435.179 178.865C435.179 178.55 435.359 177.59 435.569 175.76C435.854 173.27 436.169 169.835 436.274 168.995C436.289 168.845 436.304 168.68 436.304 168.515Z" fill="#575457"/>
<path d="M159.285 276.085C159.285 276.355 159.195 276.625 159.09 276.835C157.98 279.235 152.43 282.175 152.43 282.175C152.43 282.175 152.16 280.825 152.16 279.34C152.16 279.19 152.175 279.025 152.175 278.875C152.235 277.24 152.385 275.5 152.64 273.385C152.64 273.385 152.94 273.25 154.005 273.235H154.065C156.18 273.235 159.285 274.375 159.285 276.085ZM160.185 276.025C160.17 274.06 157.05 272.485 153.765 272.485H153.54C152.175 272.515 150.63 272.86 150.105 273.19C149.97 273.28 149.91 273.385 149.91 273.505C149.91 273.76 150.195 274.015 150.45 274.015H150.51L151.635 273.625C151.635 273.625 151.425 276.7 151.365 278.05C151.35 278.245 151.35 278.455 151.35 278.695C151.35 280.255 151.53 282.46 151.53 282.46C151.47 282.655 151.395 282.865 151.395 283.075C151.395 283.27 151.455 283.465 151.56 283.57C151.575 283.585 151.59 283.585 151.605 283.585C151.635 283.585 151.665 283.57 151.695 283.57C151.8 283.57 151.83 283.705 151.935 283.705C152.535 283.675 152.595 283.405 152.595 283.21C152.595 283.075 152.64 283.045 152.64 283.045C155.28 281.455 160.185 278.665 160.185 276.025ZM163.478 277.525C163.013 277.945 162.758 278.11 162.368 278.335C161.438 278.905 160.598 278.95 160.598 278.95C160.598 278.95 161.063 278.335 161.828 277.945C162.368 277.66 162.923 277.525 163.478 277.525ZM166.433 280.12C166.433 279.865 166.208 279.64 165.983 279.64C165.728 279.64 165.563 280.03 165.473 280.195C165.323 280.405 162.998 282.31 161.813 282.31C161.153 282.31 160.868 281.95 160.598 281.515C160.268 281.005 160.193 280.54 160.193 280.225C160.193 279.955 160.238 279.79 160.238 279.79C160.658 279.76 161.573 279.67 162.503 279.1C163.358 278.59 164.633 277.63 164.633 277.255C164.633 277.21 164.618 277.18 164.573 277.15C164.213 276.91 163.778 276.805 163.283 276.805C161.708 276.805 159.773 277.96 159.383 279.655C159.338 279.835 159.323 280.015 159.323 280.195C159.323 281.305 160.013 282.49 160.988 282.94C161.183 283.03 161.408 283.075 161.648 283.075C163.343 283.075 165.758 280.87 166.088 280.69C166.283 280.555 166.433 280.33 166.433 280.12ZM174.553 280.195C174.553 280.03 174.418 279.865 174.238 279.865C174.193 279.865 174.148 279.88 174.103 279.895C173.938 279.955 170.353 282.31 168.463 282.31C167.818 282.31 167.308 281.95 167.308 281.32C167.308 280.015 169.258 278.02 169.603 277.915C169.633 277.9 169.678 277.9 169.723 277.9C169.903 277.9 170.068 277.975 170.218 277.975C170.503 277.975 170.818 277.525 170.818 277.255C170.818 277.045 170.668 276.895 170.308 276.895C170.233 276.895 170.143 276.895 170.053 276.91C168.748 277.105 166.483 279.715 166.483 281.455C166.483 282.505 167.473 283 168.358 283C170.803 283 174.538 280.39 174.553 280.255V280.195ZM175.352 277.435C175.352 277.09 175.142 276.865 174.887 276.865C174.362 276.895 174.422 277.75 174.377 278.575C174.302 280.015 174.227 281.095 174.227 281.815C174.227 282.355 174.272 282.685 174.407 282.79C174.527 282.88 174.662 282.925 174.767 282.925C175.067 282.925 175.172 282.685 175.172 282.43C175.172 282.16 174.992 282.13 174.992 281.455V281.17C174.992 280.585 175.352 277.945 175.352 277.435ZM175.382 272.455C175.382 272.215 175.217 272.035 175.007 272.035C174.617 272.035 174.737 272.38 174.422 273.025C174.242 273.415 174.167 273.76 174.167 274.03C174.167 274.24 174.212 274.54 174.437 274.54C174.542 274.54 174.632 274.48 174.707 274.405C174.857 274.255 174.752 274 174.977 273.445C175.172 272.965 175.367 272.71 175.382 272.515V272.455ZM181.08 275.92V275.86C181.065 275.68 180.54 275.41 180.345 275.32C180.255 275.275 180.135 275.245 180 275.245C179.805 275.245 179.565 275.305 179.385 275.455C178.395 276.28 176.505 277.69 176.505 279.34C176.505 281.59 179.955 281.44 180.165 282.175C180.165 282.715 177.99 283.45 177.9 283.6C177.84 283.675 177.81 283.75 177.81 283.825C177.81 284.035 178.035 284.215 178.35 284.23C178.575 284.23 181.035 282.94 181.035 282.325C181.035 281.395 180.18 281.245 179.265 280.885C178.275 280.51 177.285 280.21 177.285 279.34C177.285 278.875 177.66 278.005 178.335 277.405C179.52 276.34 179.685 276.025 180.195 276.01C180.315 276.01 180.48 276.19 180.765 276.19C180.99 276.19 181.08 276.07 181.08 275.92ZM183.672 277.435C183.672 277.09 183.462 276.865 183.207 276.865C182.682 276.895 182.742 277.75 182.697 278.575C182.622 280.015 182.547 281.095 182.547 281.815C182.547 282.355 182.592 282.685 182.727 282.79C182.847 282.88 182.982 282.925 183.087 282.925C183.387 282.925 183.492 282.685 183.492 282.43C183.492 282.16 183.312 282.13 183.312 281.455V281.17C183.312 280.585 183.672 277.945 183.672 277.435ZM183.702 272.455C183.702 272.215 183.537 272.035 183.327 272.035C182.937 272.035 183.057 272.38 182.742 273.025C182.562 273.415 182.487 273.76 182.487 274.03C182.487 274.24 182.532 274.54 182.757 274.54C182.862 274.54 182.952 274.48 183.027 274.405C183.177 274.255 183.072 274 183.297 273.445C183.492 272.965 183.687 272.71 183.702 272.515V272.455ZM187.839 277.75C188.664 277.75 189.024 278.71 189.024 279.37C189.024 279.895 188.844 280.42 188.589 280.915C188.304 281.455 187.359 282.28 186.669 282.28C185.979 282.28 185.694 281.305 185.694 280.765C185.694 280.555 185.724 280.345 185.784 280.18C186.549 277.915 187.719 277.75 187.839 277.75ZM189.774 279.55C189.774 279.385 189.759 279.235 189.744 279.055C189.579 277.42 188.319 276.895 187.719 276.895C186.849 276.895 185.979 277.69 185.139 279.595C184.959 280 184.884 280.39 184.884 280.78C184.884 281.77 185.439 283.06 186.504 283.06C187.764 283.06 189.774 281.695 189.774 279.55ZM195.417 283.375C195.417 283.135 195.267 282.85 195.162 282.64C195.132 282.535 195.117 282.265 195.117 281.665V279.94C195.117 277.99 195.042 276.595 194.337 276.445H194.277C193.347 276.445 191.757 279.895 191.757 279.895C191.742 279.775 191.742 279.685 191.742 279.61C191.742 279.415 191.772 279.235 191.772 278.8C191.772 277.93 191.922 277.36 191.922 277.03C191.922 276.91 191.907 276.835 191.862 276.775C191.772 276.655 191.577 276.535 191.382 276.535C191.232 276.535 191.097 276.625 191.052 276.88C191.022 277.09 190.887 278.17 190.857 279.58C190.827 281.2 190.737 282.07 190.737 282.55C190.737 282.79 190.767 282.94 190.827 283.045C190.932 283.18 191.052 283.225 191.157 283.225C191.262 283.225 191.367 283.18 191.442 283.15C191.622 283.015 191.607 282.625 192.057 281.41C192.732 279.58 193.842 277.51 194.112 277.51C194.292 277.51 194.307 278.725 194.307 278.905L194.292 280.36C194.292 281.71 194.442 282.415 194.442 282.73C194.442 282.88 194.397 282.97 194.397 283.075C194.397 283.48 194.772 283.75 195.072 283.75C195.297 283.75 195.417 283.555 195.417 283.375ZM210.774 276.085C210.774 276.355 210.684 276.625 210.579 276.835C209.469 279.235 203.919 282.175 203.919 282.175C203.919 282.175 203.649 280.825 203.649 279.34C203.649 279.19 203.664 279.025 203.664 278.875C203.724 277.24 203.874 275.5 204.129 273.385C204.129 273.385 204.429 273.25 205.494 273.235H205.554C207.669 273.235 210.774 274.375 210.774 276.085ZM211.674 276.025C211.659 274.06 208.539 272.485 205.254 272.485H205.029C203.664 272.515 202.119 272.86 201.594 273.19C201.459 273.28 201.399 273.385 201.399 273.505C201.399 273.76 201.684 274.015 201.939 274.015H201.999L203.124 273.625C203.124 273.625 202.914 276.7 202.854 278.05C202.839 278.245 202.839 278.455 202.839 278.695C202.839 280.255 203.019 282.46 203.019 282.46C202.959 282.655 202.884 282.865 202.884 283.075C202.884 283.27 202.944 283.465 203.049 283.57C203.064 283.585 203.079 283.585 203.094 283.585C203.124 283.585 203.154 283.57 203.184 283.57C203.289 283.57 203.319 283.705 203.424 283.705C204.024 283.675 204.084 283.405 204.084 283.21C204.084 283.075 204.129 283.045 204.129 283.045C206.769 281.455 211.674 278.665 211.674 276.025ZM214.967 277.525C214.502 277.945 214.247 278.11 213.857 278.335C212.927 278.905 212.087 278.95 212.087 278.95C212.087 278.95 212.552 278.335 213.317 277.945C213.857 277.66 214.412 277.525 214.967 277.525ZM217.922 280.12C217.922 279.865 217.697 279.64 217.472 279.64C217.217 279.64 217.052 280.03 216.962 280.195C216.812 280.405 214.487 282.31 213.302 282.31C212.642 282.31 212.357 281.95 212.087 281.515C211.757 281.005 211.682 280.54 211.682 280.225C211.682 279.955 211.727 279.79 211.727 279.79C212.147 279.76 213.062 279.67 213.992 279.1C214.847 278.59 216.122 277.63 216.122 277.255C216.122 277.21 216.107 277.18 216.062 277.15C215.702 276.91 215.267 276.805 214.772 276.805C213.197 276.805 211.262 277.96 210.872 279.655C210.827 279.835 210.812 280.015 210.812 280.195C210.812 281.305 211.502 282.49 212.477 282.94C212.672 283.03 212.897 283.075 213.137 283.075C214.832 283.075 217.247 280.87 217.577 280.69C217.772 280.555 217.922 280.33 217.922 280.12ZM220.612 272.71C220.612 272.5 220.567 272.395 220.492 272.305C220.342 272.14 220.222 272.08 220.117 272.08C219.982 272.08 219.892 272.17 219.787 272.26C219.592 272.425 219.547 273.715 219.367 275.665C219.187 277.495 218.872 280.72 218.872 282.505C218.872 283.18 218.932 283.66 219.052 283.735C219.187 283.84 219.307 283.87 219.412 283.87C219.712 283.87 219.772 283.435 219.772 283.105C219.772 282.595 219.727 282.055 219.727 281.575C219.727 280.375 219.802 278.935 219.982 277.525C220.357 274.375 220.612 273.235 220.612 272.71ZM224.217 281.725C224.217 281.725 223.212 282.565 222.477 282.565C222.102 282.565 221.967 282.355 221.967 282.025C221.967 281.275 222.597 280.465 223.347 280.465C223.842 280.465 224.217 281.725 224.217 281.725ZM225.717 279.745C225.717 278.575 225.417 277.375 224.382 276.73C224.142 276.58 223.857 276.52 223.542 276.52C222.672 276.52 221.697 277.03 221.697 277.54C221.712 277.81 221.967 277.915 222.132 277.915C222.207 277.915 222.252 277.9 222.252 277.84C222.282 277.63 222.867 277.225 223.467 277.225C224.652 277.225 224.967 278.905 224.967 279.775C224.967 280.585 224.727 281.14 224.727 281.14C224.502 280.45 224.127 279.715 223.302 279.715C222.147 279.715 221.262 281.08 221.262 282.085C221.262 282.805 221.697 283.27 222.447 283.27C223.377 283.27 224.442 282.52 224.442 282.52C224.442 282.52 224.487 282.775 224.577 282.865C224.652 282.955 224.787 282.985 224.892 282.985C224.967 282.985 225.042 282.97 225.072 282.925C225.147 282.88 225.717 281.335 225.717 279.745ZM231.794 278.515C231.794 277.945 231.674 277.345 231.434 277.255C231.374 277.225 231.314 277.225 231.269 277.225C230.954 277.225 230.894 277.69 230.699 277.93C229.484 279.355 228.254 280.825 227.879 280.825C227.774 280.825 227.759 280.66 227.759 280.57C227.759 279.28 228.299 278.095 228.359 276.865C228.344 276.625 228.014 276.4 227.849 276.4C227.399 276.4 227.369 277.63 227.339 277.81C227.144 279.04 226.934 280.315 226.934 281.155C226.934 281.74 227.039 282.13 227.369 282.13C228.269 282.145 230.879 278.845 230.879 278.845C230.834 281.095 230.729 282.19 230.519 284.245C230.219 287.26 230.039 288.985 229.934 289.015C229.874 289.03 229.754 289.27 229.754 289.495C229.754 289.735 229.889 289.975 230.354 289.975C230.744 289.975 230.894 289.795 230.894 289.57C230.894 289.33 230.744 289.045 230.684 288.97C230.669 288.955 230.669 288.925 230.669 288.865C230.669 288.55 230.849 287.59 231.059 285.76C231.344 283.27 231.659 279.835 231.764 278.995C231.779 278.845 231.794 278.68 231.794 278.515Z" fill="#575457"/>
<path d="M7.86 238.96C7.26 239.16 6.7 239.3 5.98 239.48C4.7 239.8 3.12 240.1 3.12 240.1C3.12 240.1 4.02 237.96 4.62 236.76C5.24 235.5 6.32 233.48 6.32 233.48C6.62 234.26 6.84 235.16 7.12 236.1C7.56 237.68 7.86 238.96 7.86 238.96ZM12.7 238.18C12.66 237.76 12.44 237.66 12.22 237.66C11.96 237.66 11.7 237.78 11.7 237.78L8.9 238.62C8.52 237.06 7.98 234.82 7.72 233.88C7.38 232.66 7.3 231.72 7.26 231.46C7.22 231.16 7.12 230.7 6.74 230.7C6.28 230.7 6.12 231.02 5.98 231.34L1.88 240.3C1.66 240.36 0.8 240.5 0.7 240.9C0.66 241.02 0.66 241.12 0.66 241.2C0.66 241.8 1.26 241.86 1.26 241.86C0.9 242.74 0.48 243.9 0.48 244.38C0.48 244.42 0.48 244.46 0.5 244.5C0.58 244.7 0.78 244.84 1.02 244.84C1.12 244.84 1.22 244.8 1.34 244.76C1.64 244.62 1.6 244.36 1.7 243.74C1.8 243.12 2.52 241.7 2.52 241.7C3.3 241.42 4 241.12 4.7 240.9C6.14 240.42 8.08 239.86 8.08 239.86L9.5 245.78C9.48 245.86 9.48 245.88 9.48 245.9C9.48 246.22 9.94 246.52 10.3 246.52C10.62 246.52 10.9 246.2 10.9 245.94C10.9 245.56 10.44 245.22 10.44 245.22L9.1 239.52L11.68 238.76C11.76 238.8 11.86 238.82 11.98 238.82C12.32 238.82 12.7 238.64 12.7 238.18ZM18.5677 242.08C16.9677 243 15.0877 244.24 13.8277 244.24C13.1277 244.24 12.6277 243.8 12.6277 243.14C12.6277 241.56 14.8877 238.9 16.5077 238.9C16.6877 238.9 16.8677 238.92 17.0277 239C18.2677 239.54 18.5677 242.08 18.5677 242.08ZM21.2877 231.92C21.2877 231.4 20.8677 230.92 20.2677 230.92C20.0277 230.92 19.9277 231.12 19.9277 231.44C19.9277 231.68 19.9477 231.92 20.0477 232.24C20.0677 232.3 20.0677 232.34 20.0677 232.4C20.0677 233.46 19.2477 240.14 19.2477 240.14C18.7277 239.2 18.3877 238.26 16.7877 237.92C16.7077 237.9 16.5877 237.9 16.4877 237.9C14.6477 237.9 11.5877 240.66 11.5877 243.06C11.5877 244.32 12.3677 245.28 13.6877 245.28C15.7877 245.28 18.7077 243.28 18.7077 243.28C18.8677 243.86 18.6477 244.5 19.6077 244.64C19.9477 244.64 20.0277 244.22 20.0277 243.76C20.0277 243.2 19.9077 242.58 19.9077 242.58C20.5877 242.3 21.1277 242.32 21.1277 241.78C21.1277 241.7 21.1277 241.62 21.0877 241.5C20.9877 241.08 20.2477 241.02 20.2477 241.02C20.3877 238.12 21.0677 232.68 21.2077 232.3C21.2677 232.18 21.2877 232.04 21.2877 231.92ZM26.0388 246.14C26.0388 242.44 25.1988 237.96 24.8588 237.64C24.7188 237.48 24.5388 237.42 24.3587 237.42C24.0788 237.42 23.8388 237.6 23.8188 237.8V237.88C23.8188 238.18 24.0188 238.2 24.0388 238.5C24.0788 238.82 24.7988 242.64 24.7988 246.08C24.7988 246.96 24.7388 247.82 24.6188 248.58C24.1388 251.7 21.6587 254.36 19.0187 254.36C18.8187 254.36 18.6787 254.36 18.4187 254.32C15.7787 253.92 15.3987 252.06 15.3987 250.86C15.3987 250.4 15.4587 250.04 15.4587 249.9C15.4587 249.8 15.4187 249.62 15.2987 249.62C15.2387 249.62 15.1787 249.66 15.1387 249.72C14.9587 249.96 14.7587 250.58 14.7587 251.34C14.7587 252.34 15.1187 253.6 16.3787 254.56C16.9987 255.02 17.9587 255.34 19.0587 255.34C21.4187 255.34 24.3587 253.9 25.6588 249.56C25.9388 248.66 26.0388 247.46 26.0388 246.14ZM25.6588 231.7C25.6588 231.26 25.4788 230.9 25.0788 230.9C24.7388 230.9 24.5588 231.04 24.5588 231.36V231.5C24.5588 232.08 24.8788 232.38 25.2388 232.38C25.5188 232.38 25.6588 232.14 25.6588 231.7ZM32.7053 237.9C32.7053 237.9 32.6653 237.1 32.1453 237.1C31.5253 237.1 31.5053 237.54 31.5053 237.82C31.4853 238.34 31.1453 241.58 30.1453 243.34C30.0053 243.58 29.8653 243.68 29.7453 243.68C29.0653 243.68 28.3653 241.14 28.3653 237.94C28.3653 237.68 28.3853 237.42 28.3853 237.14C28.3853 236.88 28.2253 236.38 27.7853 236.38H27.6853C27.4653 236.38 27.2853 236.54 27.2853 237.02C27.3053 237.76 27.3653 244.92 29.7253 244.92C29.9053 244.92 30.1253 244.86 30.3453 244.76C31.5453 244.2 32.7053 238.28 32.7053 237.9ZM39.7413 235.56V235.48C39.7213 235.24 39.0213 234.88 38.7613 234.76C38.6413 234.7 38.4813 234.66 38.3013 234.66C38.0413 234.66 37.7213 234.74 37.4813 234.94C36.1613 236.04 33.6413 237.92 33.6413 240.12C33.6413 243.12 38.2413 242.92 38.5213 243.9C38.5213 244.62 35.6213 245.6 35.5013 245.8C35.4213 245.9 35.3813 246 35.3813 246.1C35.3813 246.38 35.6813 246.62 36.1013 246.64C36.4013 246.64 39.6813 244.92 39.6813 244.1C39.6813 242.86 38.5413 242.66 37.3213 242.18C36.0013 241.68 34.6813 241.28 34.6813 240.12C34.6813 239.5 35.1813 238.34 36.0813 237.54C37.6613 236.12 37.8813 235.7 38.5612 235.68C38.7213 235.68 38.9413 235.92 39.3213 235.92C39.6213 235.92 39.7413 235.76 39.7413 235.56ZM44.6772 237.26C45.3972 237.1 46.6172 236.84 47.8572 236.84C48.2572 236.84 48.4972 236.88 48.7372 236.98C49.1572 237.14 49.5372 237.8 49.5372 238.92C49.5372 239.04 49.5372 239.18 49.5172 239.32C49.4172 241.12 48.9772 242.76 48.9772 244.46C48.9772 244.88 48.9972 245.18 49.0772 245.3C49.1572 245.44 49.3772 245.5 49.5972 245.5C49.8372 245.5 50.1772 245.36 50.1772 245.12C50.1772 244.98 50.1172 244.8 50.1172 244.42C50.1172 244.24 50.1372 244.02 50.1772 243.74C50.6172 241.04 52.1772 237.66 52.7372 237.66C52.7572 237.66 52.7772 237.66 52.7972 237.68C53.0572 237.84 53.1372 239.88 53.2372 242.82C53.3172 244.92 53.1972 245.56 53.9572 245.56C54.5572 245.56 54.4572 244.16 55.5772 241.44C56.5372 239.1 57.8572 237.18 58.0572 237.18C58.4772 237.18 58.5572 239.32 58.5572 239.5C58.5572 240.08 58.4972 241.18 58.4972 242.18C58.4972 243.12 58.5572 244 58.7172 244.32C58.8172 244.5 58.9972 244.58 59.1572 244.58C59.4572 244.58 59.7372 244.38 59.7372 244.1C59.7372 243.8 59.5372 243.4 59.5372 243.12C59.5372 242.96 59.5572 242.34 59.5572 241.54C59.5572 240 59.5172 237.8 59.3372 237.14C59.2172 236.68 58.5972 235.94 58.1572 235.94C56.6972 236.14 54.2372 241.86 54.2372 241.86C54.0972 238.52 53.9172 236.94 53.7172 236.64C53.5372 236.3 53.0772 235.92 52.7572 235.92C52.0172 235.92 50.6772 238.84 50.6772 238.84C50.5172 236.38 49.5372 235.9 47.7772 235.9C47.6172 235.9 47.4572 235.92 47.2772 235.92C45.8572 235.98 44.8372 236.2 44.8372 236.2C45.0172 234.9 45.1372 234.58 45.2572 233.38C45.2972 232.96 45.3172 232.6 45.3172 232.3C45.3172 231.24 45.0772 230.86 44.6972 230.86C44.3172 230.86 44.2372 231.22 44.2372 231.64C44.2372 231.92 44.2772 232.2 44.2772 232.42V232.54C44.0772 234.74 43.7972 236.38 43.7972 236.38C42.5972 236.7 42.3372 236.8 41.1972 237.24C40.0972 237.66 40.0572 237.82 39.9572 238.12C39.9372 238.16 39.9372 238.2 39.9372 238.24C39.9372 238.52 40.2172 238.74 40.5572 238.82C40.9172 238.82 41.5972 238.2 41.9372 238.04C42.6572 237.7 43.6372 237.48 43.6372 237.48C43.5372 238.34 43.4572 238.74 43.3172 240.16C43.0972 242.2 43.0972 243.44 43.0972 244.34C43.0972 244.66 43.1972 245.4 43.7972 245.44H43.8772C44.2572 245.44 44.3572 245.22 44.3572 244.96C44.3572 244.72 44.2572 244.44 44.2572 244.36C44.2372 244.06 44.2372 243.72 44.2372 243.38C44.2372 240.72 44.6572 237.5 44.6772 237.26ZM66.3297 237.7C65.7097 238.26 65.3697 238.48 64.8497 238.78C63.6097 239.54 62.4897 239.6 62.4897 239.6C62.4897 239.6 63.1097 238.78 64.1297 238.26C64.8497 237.88 65.5897 237.7 66.3297 237.7ZM70.2697 241.16C70.2697 240.82 69.9697 240.52 69.6697 240.52C69.3297 240.52 69.1097 241.04 68.9897 241.26C68.7897 241.54 65.6897 244.08 64.1097 244.08C63.2297 244.08 62.8497 243.6 62.4897 243.02C62.0497 242.34 61.9497 241.72 61.9497 241.3C61.9497 240.94 62.0097 240.72 62.0097 240.72C62.5697 240.68 63.7897 240.56 65.0297 239.8C66.1697 239.12 67.8697 237.84 67.8697 237.34C67.8697 237.28 67.8497 237.24 67.7897 237.2C67.3097 236.88 66.7297 236.74 66.0697 236.74C63.9697 236.74 61.3897 238.28 60.8697 240.54C60.8097 240.78 60.7897 241.02 60.7897 241.26C60.7897 242.74 61.7097 244.32 63.0097 244.92C63.2697 245.04 63.5697 245.1 63.8897 245.1C66.1497 245.1 69.3697 242.16 69.8097 241.92C70.0697 241.74 70.2697 241.44 70.2697 241.16ZM77.2363 245.5C77.2363 245.18 77.0363 244.8 76.8963 244.52C76.8563 244.38 76.8363 244.02 76.8363 243.22V240.92C76.8363 238.32 76.7363 236.46 75.7963 236.26H75.7163C74.4763 236.26 72.3563 240.86 72.3563 240.86C72.3363 240.7 72.3363 240.58 72.3363 240.48C72.3363 240.22 72.3763 239.98 72.3763 239.4C72.3763 238.24 72.5763 237.48 72.5763 237.04C72.5763 236.88 72.5563 236.78 72.4963 236.7C72.3763 236.54 72.1163 236.38 71.8563 236.38C71.6563 236.38 71.4762 236.5 71.4163 236.84C71.3763 237.12 71.1963 238.56 71.1563 240.44C71.1163 242.6 70.9963 243.76 70.9963 244.4C70.9963 244.72 71.0363 244.92 71.1163 245.06C71.2563 245.24 71.4163 245.3 71.5563 245.3C71.6963 245.3 71.8363 245.24 71.9363 245.2C72.1763 245.02 72.1563 244.5 72.7563 242.88C73.6563 240.44 75.1363 237.68 75.4963 237.68C75.7363 237.68 75.7563 239.3 75.7563 239.54L75.7363 241.48C75.7363 243.28 75.9363 244.22 75.9363 244.64C75.9363 244.84 75.8763 244.96 75.8763 245.1C75.8763 245.64 76.3763 246 76.7763 246C77.0763 246 77.2363 245.74 77.2363 245.5ZM86.892 236.52C86.852 235.96 86.132 235.98 85.712 235.96C85.532 235.96 85.352 235.94 85.172 235.94C83.752 235.94 82.552 236.2 82.552 236.2C82.732 234.9 82.852 234.58 82.972 233.38C83.012 232.96 83.032 232.6 83.032 232.3C83.032 231.24 82.792 230.86 82.412 230.86C82.032 230.86 81.952 231.22 81.952 231.64C81.952 231.92 81.992 232.2 81.992 232.54C81.992 233.22 81.512 236.38 81.512 236.38C80.312 236.7 80.052 236.8 78.912 237.24C77.812 237.66 77.772 237.8 77.672 238.1C77.652 238.16 77.652 238.2 77.652 238.24C77.652 238.52 78.052 238.82 78.272 238.82C78.632 238.82 79.312 238.2 79.652 238.04C80.372 237.7 81.352 237.48 81.352 237.48C81.252 238.34 81.172 238.74 81.032 240.16C80.812 242.2 80.812 243.44 80.812 244.34C80.812 244.66 80.912 245.4 81.512 245.44H81.592C81.972 245.44 82.072 245.22 82.072 244.96C82.072 244.72 81.972 244.44 81.972 244.36C81.952 244.06 81.952 243.72 81.952 243.38C81.952 240.72 82.372 237.5 82.392 237.26C83.112 237.1 84.492 236.82 85.732 236.82C85.892 236.82 86.172 236.88 86.412 236.88C86.672 236.88 86.892 236.82 86.892 236.52ZM108.982 232.1C108.982 231.64 108.682 231.4 108.322 231.26C108.302 231.24 108.162 231.24 107.962 231.24C106.342 231.24 100.022 231.7 99.3817 231.94C99.2817 231.94 99.0817 231.68 98.7817 231.68C98.7417 231.68 98.7017 231.7 98.6617 231.7C98.1417 231.82 98.2017 232.24 97.9617 232.3C94.6617 233.28 93.8417 232.66 93.2817 233.06C93.1017 233.2 93.0217 233.38 93.0217 233.54C93.0217 233.92 93.3417 234.26 93.7017 234.26C94.5617 234.26 98.0417 233.48 98.0417 233.48C98.0617 234.06 98.0817 234.52 98.0817 234.98C98.0817 235.54 98.0617 236.08 98.0017 236.8C97.9417 237.34 97.8417 240.24 97.8417 242.5C97.8417 244 97.8817 245.22 98.0017 245.3C98.1617 245.4 98.3017 245.44 98.4417 245.44C98.9017 245.44 99.2417 244.94 99.2417 244.5C99.2417 244.4 99.2217 244.3 99.1617 244.2C99.0217 243.94 98.9817 243.58 98.9817 243.02C98.9817 242.6 99.0017 242.06 99.0017 241.38C99.0017 241.16 98.9817 240.92 98.9817 240.24C98.9817 237.78 99.3817 233.18 99.3817 233.18C102.242 232.1 106.482 232.18 107.182 232.14C107.502 232.18 107.282 232.78 107.582 232.78C107.962 232.78 108.982 232.34 108.982 232.1ZM107.611 237.58C107.611 237.12 107.331 236.82 106.991 236.82C106.291 236.86 106.371 238 106.311 239.1C106.211 241.02 106.111 242.46 106.111 243.42C106.111 244.14 106.171 244.58 106.351 244.72C106.511 244.84 106.691 244.9 106.831 244.9C107.231 244.9 107.371 244.58 107.371 244.24C107.371 243.88 107.131 243.84 107.131 242.94V242.56C107.131 241.78 107.611 238.26 107.611 237.58ZM107.651 230.94C107.651 230.62 107.431 230.38 107.151 230.38C106.631 230.38 106.791 230.84 106.371 231.7C106.131 232.22 106.031 232.68 106.031 233.04C106.031 233.32 106.091 233.72 106.391 233.72C106.531 233.72 106.651 233.64 106.751 233.54C106.951 233.34 106.811 233 107.111 232.26C107.371 231.62 107.631 231.28 107.651 231.02V230.94ZM120.767 244.1C120.767 243.8 120.567 243.4 120.567 243.12C120.567 242.96 120.587 242.34 120.587 241.54C120.587 240 120.547 237.8 120.367 237.14C120.247 236.68 119.627 235.94 119.187 235.94C117.727 236.14 115.267 241.86 115.267 241.86C115.127 238.52 114.947 236.94 114.747 236.64C114.567 236.3 114.107 235.92 113.787 235.92C113.047 235.92 111.707 238.84 111.707 238.84C111.587 237.96 111.487 237.84 111.227 237.56C111.127 237.46 110.987 237.4 110.847 237.4C110.427 237.4 110.227 237.72 110.227 238.06C110.227 238.42 110.307 238.96 110.307 239.66C110.307 239.88 110.287 240.14 110.267 240.42C110.227 240.9 109.947 243.18 109.947 244.46C109.947 244.88 109.967 245.18 110.047 245.3C110.127 245.44 110.347 245.5 110.567 245.5C110.827 245.5 111.207 245.38 111.207 245.12C111.207 244.98 111.147 244.8 111.147 244.42C111.147 244.24 111.167 244.02 111.207 243.74C111.647 241.04 113.207 237.66 113.767 237.66C113.787 237.66 113.807 237.66 113.827 237.68C114.087 237.84 114.167 239.88 114.267 242.82C114.347 244.92 114.167 245.34 114.987 245.54C115.027 245.54 115.047 245.56 115.067 245.56C115.587 245.56 115.487 244.16 116.607 241.44C117.567 239.1 118.887 237.18 119.087 237.18C119.507 237.18 119.587 239.32 119.587 239.42V239.5C119.587 240.08 119.527 241.18 119.527 242.18C119.527 243.12 119.587 244 119.747 244.32C119.847 244.5 120.027 244.58 120.187 244.58C120.487 244.58 120.767 244.42 120.767 244.1ZM127.365 237.7C126.745 238.26 126.405 238.48 125.885 238.78C124.645 239.54 123.525 239.6 123.525 239.6C123.525 239.6 124.145 238.78 125.165 238.26C125.885 237.88 126.625 237.7 127.365 237.7ZM131.305 241.16C131.305 240.82 131.005 240.52 130.705 240.52C130.365 240.52 130.145 241.04 130.025 241.26C129.825 241.54 126.725 244.08 125.145 244.08C124.265 244.08 123.885 243.6 123.525 243.02C123.085 242.34 122.985 241.72 122.985 241.3C122.985 240.94 123.045 240.72 123.045 240.72C123.605 240.68 124.825 240.56 126.065 239.8C127.205 239.12 128.905 237.84 128.905 237.34C128.905 237.28 128.885 237.24 128.825 237.2C128.345 236.88 127.765 236.74 127.105 236.74C125.005 236.74 122.425 238.28 121.905 240.54C121.845 240.78 121.825 241.02 121.825 241.26C121.825 242.74 122.745 244.32 124.045 244.92C124.305 245.04 124.605 245.1 124.925 245.1C127.185 245.1 130.405 242.16 130.845 241.92C131.105 241.74 131.305 241.44 131.305 241.16Z" fill="#005573"/>
<path d="M305.86 14.96C305.26 15.16 304.7 15.3 303.98 15.48C302.7 15.8 301.12 16.1 301.12 16.1C301.12 16.1 302.02 13.96 302.62 12.76C303.24 11.5 304.32 9.48 304.32 9.48C304.62 10.26 304.84 11.16 305.12 12.1C305.56 13.68 305.86 14.96 305.86 14.96ZM310.7 14.18C310.66 13.76 310.44 13.66 310.22 13.66C309.96 13.66 309.7 13.78 309.7 13.78L306.9 14.62C306.52 13.06 305.98 10.82 305.72 9.88C305.38 8.66 305.3 7.72 305.26 7.46C305.22 7.16 305.12 6.7 304.74 6.7C304.28 6.7 304.12 7.02 303.98 7.34L299.88 16.3C299.66 16.36 298.8 16.5 298.7 16.9C298.66 17.02 298.66 17.12 298.66 17.2C298.66 17.8 299.26 17.86 299.26 17.86C298.9 18.74 298.48 19.9 298.48 20.38C298.48 20.42 298.48 20.46 298.5 20.5C298.58 20.7 298.78 20.84 299.02 20.84C299.12 20.84 299.22 20.8 299.34 20.76C299.64 20.62 299.6 20.36 299.7 19.74C299.8 19.12 300.52 17.7 300.52 17.7C301.3 17.42 302 17.12 302.7 16.9C304.14 16.42 306.08 15.86 306.08 15.86L307.5 21.78C307.48 21.86 307.48 21.88 307.48 21.9C307.48 22.22 307.94 22.52 308.3 22.52C308.62 22.52 308.9 22.2 308.9 21.94C308.9 21.56 308.44 21.22 308.44 21.22L307.1 15.52L309.68 14.76C309.76 14.8 309.86 14.82 309.98 14.82C310.32 14.82 310.7 14.64 310.7 14.18ZM320.522 17.26C320.522 17.04 320.342 16.82 320.102 16.82C320.042 16.82 319.982 16.84 319.922 16.86C319.702 16.94 314.922 20.08 312.402 20.08C311.542 20.08 310.862 19.6 310.862 18.76C310.862 17.02 313.462 14.36 313.922 14.22C313.962 14.2 314.022 14.2 314.082 14.2C314.322 14.2 314.542 14.3 314.742 14.3C315.122 14.3 315.542 13.7 315.542 13.34C315.542 13.06 315.342 12.86 314.862 12.86C314.762 12.86 314.642 12.86 314.522 12.88C312.782 13.14 309.762 16.62 309.762 18.94C309.762 20.34 311.082 21 312.262 21C315.522 21 320.502 17.52 320.522 17.34V17.26ZM328.408 12.52C328.368 11.96 327.648 11.98 327.228 11.96C327.048 11.96 326.868 11.94 326.688 11.94C325.268 11.94 324.068 12.2 324.068 12.2C324.248 10.9 324.368 10.58 324.488 9.38C324.528 8.96 324.548 8.6 324.548 8.3C324.548 7.24 324.308 6.86 323.928 6.86C323.548 6.86 323.468 7.22 323.468 7.64C323.468 7.92 323.508 8.2 323.508 8.54C323.508 9.22 323.028 12.38 323.028 12.38C321.828 12.7 321.568 12.8 320.428 13.24C319.328 13.66 319.288 13.8 319.188 14.1C319.168 14.16 319.168 14.2 319.168 14.24C319.168 14.52 319.568 14.82 319.788 14.82C320.148 14.82 320.828 14.2 321.168 14.04C321.888 13.7 322.868 13.48 322.868 13.48C322.768 14.34 322.688 14.74 322.548 16.16C322.328 18.2 322.328 19.44 322.328 20.34C322.328 20.66 322.428 21.4 323.028 21.44H323.108C323.488 21.44 323.588 21.22 323.588 20.96C323.588 20.72 323.488 20.44 323.488 20.36C323.468 20.06 323.468 19.72 323.468 19.38C323.468 16.72 323.888 13.5 323.908 13.26C324.628 13.1 326.008 12.82 327.248 12.82C327.408 12.82 327.688 12.88 327.928 12.88C328.188 12.88 328.408 12.82 328.408 12.52ZM333.108 13.9C333.108 13.9 333.068 13.1 332.548 13.1C331.928 13.1 331.908 13.54 331.908 13.82C331.888 14.34 331.548 17.58 330.548 19.34C330.408 19.58 330.268 19.68 330.148 19.68C329.468 19.68 328.768 17.14 328.768 13.94C328.768 13.68 328.788 13.42 328.788 13.14C328.788 12.88 328.628 12.38 328.188 12.38H328.088C327.868 12.38 327.688 12.54 327.688 13.02C327.708 13.76 327.768 20.92 330.128 20.92C330.308 20.92 330.528 20.86 330.748 20.76C331.948 20.2 333.108 14.28 333.108 13.9ZM337.854 19.3C337.854 19.3 336.514 20.42 335.534 20.42C335.034 20.42 334.854 20.14 334.854 19.7C334.854 18.7 335.694 17.62 336.694 17.62C337.354 17.62 337.854 19.3 337.854 19.3ZM339.854 16.66C339.854 15.1 339.454 13.5 338.074 12.64C337.754 12.44 337.374 12.36 336.954 12.36C335.794 12.36 334.494 13.04 334.494 13.72C334.514 14.08 334.854 14.22 335.074 14.22C335.174 14.22 335.234 14.2 335.234 14.12C335.274 13.84 336.054 13.3 336.854 13.3C338.434 13.3 338.854 15.54 338.854 16.7C338.854 17.78 338.534 18.52 338.534 18.52C338.234 17.6 337.734 16.62 336.634 16.62C335.094 16.62 333.914 18.44 333.914 19.78C333.914 20.74 334.494 21.36 335.494 21.36C336.734 21.36 338.154 20.36 338.154 20.36C338.154 20.36 338.214 20.7 338.334 20.82C338.434 20.94 338.614 20.98 338.754 20.98C338.854 20.98 338.954 20.96 338.994 20.9C339.094 20.84 339.854 18.78 339.854 16.66ZM344.161 7.28C344.161 7 344.101 6.86 344.001 6.74C343.801 6.52 343.641 6.44 343.501 6.44C343.321 6.44 343.201 6.56 343.061 6.68C342.801 6.9 342.741 8.62 342.501 11.22C342.261 13.66 341.841 17.96 341.841 20.34C341.841 21.24 341.921 21.88 342.081 21.98C342.261 22.12 342.421 22.16 342.561 22.16C342.961 22.16 343.041 21.58 343.041 21.14C343.041 20.46 342.981 19.74 342.981 19.1C342.981 17.5 343.081 15.58 343.321 13.7C343.821 9.5 344.161 7.98 344.161 7.28ZM364.119 16.86C364.059 13.06 354.059 13.86 354.059 11.58C354.059 9.82 358.679 8.06 360.599 8.06C361.139 8.06 361.359 8.7 361.799 8.7C362.179 8.7 362.479 8.46 362.479 8.26C362.479 8.2 362.479 8.16 362.439 8.12C361.999 7.5 361.879 6.9 360.359 6.9C358.419 6.9 352.759 8.88 352.759 11.9C352.759 14.9 362.959 13.78 362.959 17.1C362.959 18.5 358.839 20.76 357.279 20.98C356.919 21.04 356.379 21.32 356.379 21.86C356.379 22.4 356.899 22.54 357.319 22.54C357.739 22.54 358.159 22.38 358.239 21.9C358.299 21.56 364.119 19.7 364.119 16.86ZM373.701 12.52C373.661 11.96 372.941 11.98 372.521 11.96C372.341 11.96 372.161 11.94 371.981 11.94C370.561 11.94 369.361 12.2 369.361 12.2C369.541 10.9 369.661 10.58 369.781 9.38C369.821 8.96 369.841 8.6 369.841 8.3C369.841 7.24 369.601 6.86 369.221 6.86C368.841 6.86 368.761 7.22 368.761 7.64C368.761 7.92 368.801 8.2 368.801 8.54C368.801 9.22 368.321 12.38 368.321 12.38C367.121 12.7 366.861 12.8 365.721 13.24C364.621 13.66 364.581 13.8 364.481 14.1C364.461 14.16 364.461 14.2 364.461 14.24C364.461 14.52 364.861 14.82 365.081 14.82C365.441 14.82 366.121 14.2 366.461 14.04C367.181 13.7 368.161 13.48 368.161 13.48C368.061 14.34 367.981 14.74 367.841 16.16C367.621 18.2 367.621 19.44 367.621 20.34C367.621 20.66 367.721 21.4 368.321 21.44H368.401C368.781 21.44 368.881 21.22 368.881 20.96C368.881 20.72 368.781 20.44 368.781 20.36C368.761 20.06 368.761 19.72 368.761 19.38C368.761 16.72 369.181 13.5 369.201 13.26C369.921 13.1 371.301 12.82 372.541 12.82C372.701 12.82 372.981 12.88 373.221 12.88C373.481 12.88 373.701 12.82 373.701 12.52ZM376.565 19.3C376.565 19.3 375.225 20.42 374.245 20.42C373.745 20.42 373.565 20.14 373.565 19.7C373.565 18.7 374.405 17.62 375.405 17.62C376.065 17.62 376.565 19.3 376.565 19.3ZM378.565 16.66C378.565 15.1 378.165 13.5 376.785 12.64C376.465 12.44 376.085 12.36 375.665 12.36C374.505 12.36 373.205 13.04 373.205 13.72C373.225 14.08 373.565 14.22 373.785 14.22C373.885 14.22 373.945 14.2 373.945 14.12C373.985 13.84 374.765 13.3 375.565 13.3C377.145 13.3 377.565 15.54 377.565 16.7C377.565 17.78 377.245 18.52 377.245 18.52C376.945 17.6 376.445 16.62 375.345 16.62C373.805 16.62 372.625 18.44 372.625 19.78C372.625 20.74 373.205 21.36 374.205 21.36C375.445 21.36 376.865 20.36 376.865 20.36C376.865 20.36 376.925 20.7 377.045 20.82C377.145 20.94 377.325 20.98 377.465 20.98C377.565 20.98 377.665 20.96 377.705 20.9C377.805 20.84 378.565 18.78 378.565 16.66ZM388.408 12.52C388.368 11.96 387.648 11.98 387.228 11.96C387.048 11.96 386.868 11.94 386.688 11.94C385.268 11.94 384.068 12.2 384.068 12.2C384.248 10.9 384.368 10.58 384.488 9.38C384.528 8.96 384.548 8.6 384.548 8.3C384.548 7.24 384.308 6.86 383.928 6.86C383.548 6.86 383.468 7.22 383.468 7.64C383.468 7.92 383.508 8.2 383.508 8.54C383.508 9.22 383.028 12.38 383.028 12.38C381.828 12.7 381.568 12.8 380.428 13.24C379.328 13.66 379.288 13.8 379.188 14.1C379.168 14.16 379.168 14.2 379.168 14.24C379.168 14.52 379.568 14.82 379.788 14.82C380.148 14.82 380.828 14.2 381.168 14.04C381.888 13.7 382.868 13.48 382.868 13.48C382.768 14.34 382.688 14.74 382.548 16.16C382.328 18.2 382.328 19.44 382.328 20.34C382.328 20.66 382.428 21.4 383.028 21.44H383.108C383.488 21.44 383.588 21.22 383.588 20.96C383.588 20.72 383.488 20.44 383.488 20.36C383.468 20.06 383.468 19.72 383.468 19.38C383.468 16.72 383.888 13.5 383.908 13.26C384.628 13.1 386.008 12.82 387.248 12.82C387.408 12.82 387.688 12.88 387.928 12.88C388.188 12.88 388.408 12.82 388.408 12.52ZM391.986 13.7C391.366 14.26 391.026 14.48 390.506 14.78C389.266 15.54 388.146 15.6 388.146 15.6C388.146 15.6 388.766 14.78 389.786 14.26C390.506 13.88 391.246 13.7 391.986 13.7ZM395.926 17.16C395.926 16.82 395.626 16.52 395.326 16.52C394.986 16.52 394.766 17.04 394.646 17.26C394.446 17.54 391.346 20.08 389.766 20.08C388.886 20.08 388.506 19.6 388.146 19.02C387.706 18.34 387.606 17.72 387.606 17.3C387.606 16.94 387.666 16.72 387.666 16.72C388.226 16.68 389.446 16.56 390.686 15.8C391.826 15.12 393.526 13.84 393.526 13.34C393.526 13.28 393.506 13.24 393.446 13.2C392.966 12.88 392.386 12.74 391.726 12.74C389.626 12.74 387.046 14.28 386.526 16.54C386.466 16.78 386.446 17.02 386.446 17.26C386.446 18.74 387.366 20.32 388.666 20.92C388.926 21.04 389.226 21.1 389.546 21.1C391.806 21.1 395.026 18.16 395.466 17.92C395.726 17.74 395.926 17.44 395.926 17.16Z" fill="#005573"/>
<rect x="287" y="35" width="115" height="69" stroke="#005573" stroke-width="2"/>
<path d="M328.017 169.685C328.12 170.228 328.643 170.585 329.185 170.483L338.029 168.814C338.572 168.712 338.929 168.189 338.827 167.646C338.724 167.103 338.201 166.746 337.659 166.849L329.797 168.332L328.314 160.471C328.212 159.928 327.689 159.571 327.146 159.673C326.603 159.776 326.246 160.299 326.349 160.841L328.017 169.685ZM349 108.517C349.197 120.129 345.789 132.613 341.409 143.54C337.033 154.459 331.717 163.745 328.174 168.936L329.826 170.064C333.449 164.755 338.834 155.341 343.266 144.285C347.694 133.237 351.203 120.471 351 108.483L349 108.517Z" fill="#009696"/>
<path d="M336.536 196.114C336.047 196.37 335.858 196.975 336.114 197.464L340.29 205.436C340.546 205.926 341.151 206.115 341.64 205.858C342.129 205.602 342.318 204.998 342.062 204.508L338.35 197.422L345.436 193.71C345.926 193.454 346.115 192.849 345.858 192.36C345.602 191.871 344.998 191.682 344.508 191.938L336.536 196.114ZM393.847 234.469C387.326 224.076 376.506 215.519 365.714 209.055C354.909 202.582 344.036 198.151 337.298 196.046L336.702 197.954C343.298 200.016 354.025 204.384 364.686 210.77C375.36 217.164 385.874 225.524 392.153 235.531L393.847 234.469Z" fill="#009696"/>
<path d="M187.294 193.044C186.766 192.882 186.207 193.178 186.044 193.706L183.397 202.308C183.235 202.836 183.531 203.395 184.059 203.558C184.587 203.72 185.147 203.424 185.309 202.896L187.662 195.25L195.308 197.603C195.836 197.765 196.395 197.469 196.558 196.941C196.72 196.413 196.424 195.853 195.896 195.691L187.294 193.044ZM304.285 197.801C299.266 202.94 290.098 206.366 278.802 208.272C267.554 210.17 254.385 210.53 241.565 209.69C228.745 208.849 216.321 206.812 206.564 203.939C201.684 202.502 197.5 200.865 194.277 199.081C191.03 197.284 188.873 195.401 187.884 193.532L186.116 194.468C187.377 196.849 189.939 198.966 193.309 200.831C196.703 202.709 201.035 204.396 205.999 205.858C215.929 208.782 228.505 210.838 241.435 211.685C254.365 212.533 267.696 212.174 279.135 210.244C290.527 208.322 300.234 204.81 305.715 199.199L304.285 197.801Z" fill="#009696"/>
<path d="M170.968 117.248C170.828 116.713 170.282 116.393 169.748 116.532L161.039 118.804C160.505 118.944 160.184 119.49 160.324 120.024C160.463 120.559 161.009 120.879 161.544 120.739L169.285 118.72L171.304 126.461C171.444 126.995 171.99 127.316 172.524 127.176C173.059 127.037 173.379 126.491 173.239 125.956L170.968 117.248ZM165.328 162.94C160.957 156.477 160.856 147.73 162.653 139.232C164.444 130.765 168.073 122.765 170.863 118.006L169.137 116.994C166.261 121.901 162.54 130.102 160.697 138.818C158.86 147.503 158.843 156.923 163.672 164.06L165.328 162.94Z" fill="#009696"/>
<path d="M133.388 187.96C133.642 187.47 133.451 186.866 132.96 186.612L124.971 182.469C124.48 182.215 123.877 182.407 123.622 182.897C123.368 183.387 123.56 183.991 124.05 184.245L131.152 187.927L127.469 195.029C127.215 195.52 127.407 196.123 127.897 196.378C128.387 196.632 128.991 196.44 129.245 195.95L133.388 187.96ZM82.4285 225.871C86.3124 216.162 95.4334 207.886 105.416 201.466C115.374 195.062 126.041 190.597 132.802 188.453L132.198 186.547C125.292 188.736 114.46 193.272 104.334 199.784C94.2333 206.28 84.6876 214.838 80.5715 225.129L82.4285 225.871Z" fill="#009696"/>
<path d="M145.335 110.051C145.639 109.59 145.512 108.969 145.051 108.665L137.538 103.71C137.077 103.406 136.456 103.533 136.152 103.994C135.848 104.455 135.975 105.075 136.436 105.379L143.115 109.784L138.71 116.462C138.406 116.923 138.533 117.544 138.994 117.848C139.455 118.152 140.075 118.025 140.379 117.564L145.335 110.051ZM83.7433 143.169C92.6218 133.304 104.618 125.79 116.051 120.405C127.48 115.022 138.279 111.797 144.701 110.48L144.299 108.52C137.721 109.87 126.77 113.145 115.199 118.595C103.632 124.044 91.3782 131.696 82.2567 141.831L83.7433 143.169Z" fill="#575457"/>
<path d="M339.523 178.786C339.405 179.325 339.746 179.858 340.286 179.977L349.076 181.906C349.616 182.025 350.149 181.684 350.267 181.144C350.386 180.605 350.045 180.071 349.505 179.953L341.691 178.238L343.406 170.424C343.525 169.884 343.184 169.351 342.644 169.233C342.105 169.114 341.571 169.455 341.453 169.995L339.523 178.786ZM399.865 151.009C390.893 152.233 379.019 157.048 367.897 162.502C356.746 167.971 346.238 174.14 339.961 178.158L341.039 179.842C347.262 175.86 357.704 169.729 368.778 164.298C379.881 158.852 391.507 154.167 400.135 152.991L399.865 151.009Z" fill="#575457"/>
<path d="M167.74 195.827C167.368 195.418 166.735 195.389 166.327 195.76L159.671 201.818C159.262 202.19 159.233 202.822 159.604 203.231C159.976 203.639 160.609 203.669 161.017 203.297L166.934 197.913L172.318 203.829C172.69 204.238 173.322 204.267 173.731 203.896C174.139 203.524 174.169 202.891 173.797 202.483L167.74 195.827ZM196.207 268.793C172.072 244.657 167.34 210.541 167.999 196.547L166.001 196.453C165.326 210.793 170.128 245.543 194.793 270.207L196.207 268.793Z" fill="#575457"/>
</svg>
