<svg width="405" height="383" viewBox="0 0 405 383" fill="none" xmlns="http://www.w3.org/2000/svg">
<rect width="405" height="383" fill="white"/>
<path d="M62.9 46.86C62.84 43.06 52.84 43.86 52.84 41.58C52.84 39.82 57.46 38.06 59.38 38.06C59.92 38.06 60.14 38.7 60.58 38.7C60.96 38.7 61.26 38.46 61.26 38.26C61.26 38.2 61.26 38.16 61.22 38.12C60.78 37.5 60.66 36.9 59.14 36.9C57.2 36.9 51.54 38.88 51.54 41.9C51.54 44.9 61.74 43.78 61.74 47.1C61.74 48.5 57.62 50.76 56.06 50.98C55.7 51.04 55.16 51.32 55.16 51.86C55.16 52.4 55.68 52.54 56.1 52.54C56.52 52.54 56.94 52.38 57.02 51.9C57.08 51.56 62.9 49.7 62.9 46.86ZM72.4819 42.52C72.4419 41.96 71.7219 41.98 71.3019 41.96C71.1219 41.96 70.9419 41.94 70.7619 41.94C69.3419 41.94 68.1419 42.2 68.1419 42.2C68.3219 40.9 68.4419 40.58 68.5619 39.38C68.6019 38.96 68.6219 38.6 68.6219 38.3C68.6219 37.24 68.3819 36.86 68.0019 36.86C67.6219 36.86 67.5419 37.22 67.5419 37.64C67.5419 37.92 67.5819 38.2 67.5819 38.54C67.5819 39.22 67.1019 42.38 67.1019 42.38C65.9019 42.7 65.6419 42.8 64.5019 43.24C63.4019 43.66 63.3619 43.8 63.2619 44.1C63.2419 44.16 63.2419 44.2 63.2419 44.24C63.2419 44.52 63.6419 44.82 63.8619 44.82C64.2219 44.82 64.9019 44.2 65.2419 44.04C65.9619 43.7 66.9419 43.48 66.9419 43.48C66.8419 44.34 66.7619 44.74 66.6219 46.16C66.4019 48.2 66.4019 49.44 66.4019 50.34C66.4019 50.66 66.5019 51.4 67.1019 51.44H67.1819C67.5619 51.44 67.6619 51.22 67.6619 50.96C67.6619 50.72 67.5619 50.44 67.5619 50.36C67.5419 50.06 67.5419 49.72 67.5419 49.38C67.5419 46.72 67.9619 43.5 67.9819 43.26C68.7019 43.1 70.0819 42.82 71.3219 42.82C71.4819 42.82 71.7619 42.88 72.0019 42.88C72.2619 42.88 72.4819 42.82 72.4819 42.52ZM75.3461 49.3C75.3461 49.3 74.0061 50.42 73.0261 50.42C72.5261 50.42 72.3461 50.14 72.3461 49.7C72.3461 48.7 73.1861 47.62 74.1861 47.62C74.8461 47.62 75.3461 49.3 75.3461 49.3ZM77.3461 46.66C77.3461 45.1 76.9461 43.5 75.5661 42.64C75.2461 42.44 74.8661 42.36 74.4461 42.36C73.2861 42.36 71.9861 43.04 71.9861 43.72C72.0061 44.08 72.3461 44.22 72.5661 44.22C72.6661 44.22 72.7261 44.2 72.7261 44.12C72.7661 43.84 73.5461 43.3 74.3461 43.3C75.9261 43.3 76.3461 45.54 76.3461 46.7C76.3461 47.78 76.0261 48.52 76.0261 48.52C75.7261 47.6 75.2261 46.62 74.1261 46.62C72.5861 46.62 71.4061 48.44 71.4061 49.78C71.4061 50.74 71.9861 51.36 72.9861 51.36C74.2261 51.36 75.6461 50.36 75.6461 50.36C75.6461 50.36 75.7061 50.7 75.8261 50.82C75.9261 50.94 76.1061 50.98 76.2461 50.98C76.3461 50.98 76.4461 50.96 76.4861 50.9C76.5861 50.84 77.3461 48.78 77.3461 46.66ZM84.8689 43.64C84.8689 44.06 84.8489 44.4 84.8489 44.74C84.8489 44.74 83.7489 44.86 81.3089 45.28C81.3089 44.94 81.2889 44.64 81.2889 44.22C81.2889 41.52 82.3289 37.84 85.4489 37.84C85.8489 37.84 86.2289 37.92 86.4489 38.12C85.5489 39.16 84.8689 40.9 84.8689 43.64ZM89.0089 37.7C89.2489 37.7 89.5089 37.76 89.8089 37.86C89.9289 37.9 90.2489 38.14 90.5289 38.14C90.7089 38.14 90.9489 38.08 90.9489 37.68C90.9489 36.9 89.6289 36.74 89.1089 36.74C88.4089 36.74 87.7489 37.06 87.2289 37.4C86.7089 37.04 86.0489 36.88 85.4489 36.88C84.4689 36.88 83.4289 37.14 82.5289 37.92C81.2689 39.02 80.2289 40.84 80.2289 44.06V45.56C79.1289 45.9 78.4489 46.26 78.1289 46.58C78.0089 46.72 77.9489 46.86 77.9489 47C77.9489 47.36 78.2889 47.7 78.6489 47.7C78.8289 47.7 79.0089 47.6 79.1489 47.4C79.5289 46.84 79.7089 46.78 80.2889 46.56C80.3089 47.44 80.3489 48.36 80.3489 49.28C80.3489 50.06 80.3289 50.82 80.2689 51.6C80.1489 53.56 79.5689 56.36 79.4289 56.54C79.3089 56.68 79.2689 56.88 79.2689 57.06C79.2689 57.54 79.6289 57.76 80.0289 57.76C80.4889 57.76 80.7089 57.4 80.7089 57.12C80.7089 57.06 80.7089 57 80.6889 56.86C80.6889 56.32 81.2689 54.42 81.3489 51.54C81.3689 51 81.3689 50.46 81.3689 49.92C81.3689 48.76 81.3489 47.6 81.3289 46.28C82.5689 46.06 84.9689 45.74 84.8689 45.74C84.8689 47.62 84.7889 49.3 84.5089 51.6C84.1889 54.3 83.6289 56.36 83.4889 56.54C83.3489 56.7 83.2689 56.92 83.2689 57.12C83.2689 57.58 83.6289 57.76 84.0089 57.76C84.4489 57.76 84.6689 57.38 84.6689 57.1C84.6489 56.94 84.6489 56.9 84.6489 56.86C84.6489 56.34 85.2289 54.22 85.6289 51.54C85.8689 49.82 85.9489 47.42 85.9489 45.6C86.4289 45.54 86.7289 45.5 87.4289 45.5C87.7889 45.5 88.2089 45.5 88.7489 45.48C89.1289 45.46 89.6489 45.42 89.6689 44.88C89.6689 44.48 89.3289 44.22 88.9889 44.22C88.8689 44.22 88.7689 44.24 88.6689 44.32C88.3289 44.56 86.8489 44.48 85.9489 44.6C85.9489 44.14 85.9289 43.74 85.9289 43.4C85.9289 41.52 86.3289 39.82 87.1289 38.78H87.2089C87.5289 38.78 87.7689 38.58 87.7689 38.3C87.7689 38.24 87.7489 38.16 87.7489 38.16C87.7489 38.16 88.2289 37.7 89.0089 37.7Z" fill="#005573"/>
<path d="M305.28 7.96C305.26 9.9 296.72 13.22 296.72 13.22L296.86 10.68C296.9 9.88 297.02 8.2 297.02 8.2C297.68 8.16 298.36 8.1 298.9 7.98C299.32 7.88 301.84 7.54 303.6 7.54C304.56 7.54 305.28 7.64 305.28 7.96ZM306.72 7.74C306.72 7.52 306.64 7.3 306.5 7.1C306.2 6.7 305.12 6.56 303.8 6.56C301.3 6.56 297.94 7.04 297.36 7.04C296.84 6.98 296.88 6.68 296.38 6.68C295.98 6.68 295.62 7.16 295.62 7.56C295.62 7.62 295.64 7.7 295.66 7.76C295.74 7.98 295.78 8.48 295.78 9.06C295.78 9.64 295.74 10.32 295.72 10.84C295.66 11.9 295.46 14.3 295.46 14.3C295.34 14.46 295.34 14.6 295.34 14.7C295.34 14.82 295.46 15.08 295.46 15.08C295.32 17.5 295.36 18.7 295.26 19.84C295.24 20.04 295.22 20.24 295.22 20.42C295.22 20.82 295.42 21.12 295.8 21.12C296.12 21.12 296.5 20.9 296.5 20.22C296.5 20.08 296.48 19.9 296.44 19.7C296.4 19.52 296.38 19.18 296.38 18.74C296.38 17.18 296.58 14.5 296.58 14.5C299 13.48 306.72 10.06 306.72 7.74ZM311.865 13.04C311.865 12.8 311.705 12.56 311.585 12.52C311.245 12.4 310.945 12.36 310.665 12.36C309.465 12.36 308.645 13.28 307.905 13.98C306.625 15.16 305.245 17 305.245 17C305.245 15.66 305.245 15.28 305.225 14.58C305.185 13.36 305.125 12.9 304.825 12.62C304.665 12.48 304.525 12.42 304.385 12.42C304.185 12.42 303.785 12.66 303.785 12.88C303.785 13.12 304.225 13.54 304.225 16.04C304.225 16.44 304.205 16.88 304.185 17.4C304.105 18.94 303.865 19.96 303.865 20.56C303.865 20.82 303.905 21 304.025 21.12C304.165 21.26 304.365 21.36 304.565 21.36C304.725 21.36 304.885 21.3 305.005 21.14C305.265 20.8 305.005 19.26 305.745 18.14C307.185 15.96 308.705 14.26 309.965 13.52C310.165 13.4 310.345 13.36 310.485 13.36C310.805 13.36 311.025 13.54 311.285 13.54C311.585 13.54 311.865 13.3 311.865 13.04ZM314.452 14C315.552 14 316.032 15.28 316.032 16.16C316.032 16.86 315.792 17.56 315.452 18.22C315.072 18.94 313.812 20.04 312.892 20.04C311.972 20.04 311.592 18.74 311.592 18.02C311.592 17.74 311.632 17.46 311.712 17.24C312.732 14.22 314.292 14 314.452 14ZM317.032 16.4C317.032 16.18 317.012 15.98 316.992 15.74C316.772 13.56 315.092 12.86 314.292 12.86C313.132 12.86 311.972 13.92 310.852 16.46C310.612 17 310.512 17.52 310.512 18.04C310.512 19.36 311.252 21.08 312.672 21.08C314.352 21.08 317.032 19.26 317.032 16.4ZM321.797 22.14C321.797 18.44 320.957 13.96 320.617 13.64C320.477 13.48 320.297 13.42 320.117 13.42C319.837 13.42 319.597 13.6 319.577 13.8V13.88C319.577 14.18 319.777 14.2 319.797 14.5C319.837 14.82 320.557 18.64 320.557 22.08C320.557 22.96 320.497 23.82 320.377 24.58C319.897 27.7 317.417 30.36 314.777 30.36C314.577 30.36 314.437 30.36 314.177 30.32C311.537 29.92 311.157 28.06 311.157 26.86C311.157 26.4 311.217 26.04 311.217 25.9C311.217 25.8 311.177 25.62 311.057 25.62C310.997 25.62 310.937 25.66 310.897 25.72C310.717 25.96 310.517 26.58 310.517 27.34C310.517 28.34 310.877 29.6 312.137 30.56C312.757 31.02 313.717 31.34 314.817 31.34C317.177 31.34 320.117 29.9 321.417 25.56C321.697 24.66 321.797 23.46 321.797 22.14ZM321.417 7.7C321.417 7.26 321.237 6.9 320.837 6.9C320.497 6.9 320.317 7.04 320.317 7.36V7.5C320.317 8.08 320.637 8.38 320.997 8.38C321.277 8.38 321.417 8.14 321.417 7.7ZM328.591 13.7C327.971 14.26 327.631 14.48 327.111 14.78C325.871 15.54 324.751 15.6 324.751 15.6C324.751 15.6 325.371 14.78 326.391 14.26C327.111 13.88 327.851 13.7 328.591 13.7ZM332.531 17.16C332.531 16.82 332.231 16.52 331.931 16.52C331.591 16.52 331.371 17.04 331.251 17.26C331.051 17.54 327.951 20.08 326.371 20.08C325.491 20.08 325.111 19.6 324.751 19.02C324.311 18.34 324.211 17.72 324.211 17.3C324.211 16.94 324.271 16.72 324.271 16.72C324.831 16.68 326.051 16.56 327.291 15.8C328.431 15.12 330.131 13.84 330.131 13.34C330.131 13.28 330.111 13.24 330.051 13.2C329.571 12.88 328.991 12.74 328.331 12.74C326.231 12.74 323.651 14.28 323.131 16.54C323.071 16.78 323.051 17.02 323.051 17.26C323.051 18.74 323.971 20.32 325.271 20.92C325.531 21.04 325.831 21.1 326.151 21.1C328.411 21.1 331.631 18.16 332.071 17.92C332.331 17.74 332.531 17.44 332.531 17.16ZM343.358 17.26C343.358 17.04 343.178 16.82 342.938 16.82C342.878 16.82 342.818 16.84 342.758 16.86C342.538 16.94 337.758 20.08 335.238 20.08C334.378 20.08 333.698 19.6 333.698 18.76C333.698 17.02 336.298 14.36 336.758 14.22C336.798 14.2 336.858 14.2 336.918 14.2C337.158 14.2 337.378 14.3 337.578 14.3C337.958 14.3 338.378 13.7 338.378 13.34C338.378 13.06 338.178 12.86 337.698 12.86C337.598 12.86 337.478 12.86 337.358 12.88C335.618 13.14 332.598 16.62 332.598 18.94C332.598 20.34 333.918 21 335.098 21C338.358 21 343.338 17.52 343.358 17.34V17.26ZM351.244 12.52C351.204 11.96 350.484 11.98 350.064 11.96C349.884 11.96 349.704 11.94 349.524 11.94C348.104 11.94 346.904 12.2 346.904 12.2C347.084 10.9 347.204 10.58 347.324 9.38C347.364 8.96 347.384 8.6 347.384 8.3C347.384 7.24 347.144 6.86 346.764 6.86C346.384 6.86 346.304 7.22 346.304 7.64C346.304 7.92 346.344 8.2 346.344 8.54C346.344 9.22 345.864 12.38 345.864 12.38C344.664 12.7 344.404 12.8 343.264 13.24C342.164 13.66 342.124 13.8 342.024 14.1C342.004 14.16 342.004 14.2 342.004 14.24C342.004 14.52 342.404 14.82 342.624 14.82C342.984 14.82 343.664 14.2 344.004 14.04C344.724 13.7 345.704 13.48 345.704 13.48C345.604 14.34 345.524 14.74 345.384 16.16C345.164 18.2 345.164 19.44 345.164 20.34C345.164 20.66 345.264 21.4 345.864 21.44H345.944C346.324 21.44 346.424 21.22 346.424 20.96C346.424 20.72 346.324 20.44 346.324 20.36C346.304 20.06 346.304 19.72 346.304 19.38C346.304 16.72 346.724 13.5 346.744 13.26C347.464 13.1 348.844 12.82 350.084 12.82C350.244 12.82 350.524 12.88 350.764 12.88C351.024 12.88 351.244 12.82 351.244 12.52ZM356.573 11.56V11.48C356.553 11.24 355.853 10.88 355.593 10.76C355.473 10.7 355.313 10.66 355.133 10.66C354.873 10.66 354.553 10.74 354.313 10.94C352.993 12.04 350.473 13.92 350.473 16.12C350.473 19.12 355.073 18.92 355.353 19.9C355.353 20.62 352.453 21.6 352.333 21.8C352.253 21.9 352.213 22 352.213 22.1C352.213 22.38 352.513 22.62 352.933 22.64C353.233 22.64 356.513 20.92 356.513 20.1C356.513 18.86 355.373 18.66 354.153 18.18C352.833 17.68 351.513 17.28 351.513 16.12C351.513 15.5 352.013 14.34 352.913 13.54C354.493 12.12 354.713 11.7 355.393 11.68C355.553 11.68 355.773 11.92 356.153 11.92C356.453 11.92 356.573 11.76 356.573 11.56Z" fill="#005573"/>
<path d="M334.78 217.7C334.78 219.04 331.18 220.72 329.3 221.5C328.5 221.84 327.68 222 327.68 222C327.68 222 327.86 220.64 328.02 219.88C328.14 219.28 328.2 218.7 328.22 218.32C328.28 218.5 328.42 218.58 328.54 218.58C328.62 218.58 328.68 218.54 328.74 218.5C329.28 218.02 332.08 217.22 333.68 217.22C334.32 217.22 334.78 217.36 334.78 217.7ZM339.64 229.46C339.64 228.9 339.02 228.64 338.7 228.6C338.12 228.52 334.82 227.4 330.54 224.6C329.56 223.96 328.5 222.94 328.5 222.94C333.04 221.16 335.96 219.28 335.96 217.66V217.56C335.86 216.42 334.98 216.04 333.84 216.04C331.54 216.04 328.2 217.6 328.2 217.6C328.1 217.26 327.92 216.98 327.54 216.98C326.94 216.98 326.66 217.44 326.66 217.92C326.66 218.18 326.7 218.44 326.74 218.68V218.96C326.74 219.9 326.52 222.24 326.52 222.24L326.32 222.3L326.5 222.66C326.38 225.2 326.02 228.4 326.02 229.74C326.02 230.06 326.04 230.28 326.1 230.34C326.24 230.5 326.44 230.58 326.66 230.58C327.1 230.58 327.44 230.24 327.44 229.84C327.44 229.44 327.18 229 327.18 228.58C327.24 226.48 327.5 223.52 327.5 223.52C328.5 224.34 328.94 224.82 330.54 225.86C334.74 228.6 338 229.52 338.16 229.72C338.3 229.9 338.7 230.04 339.02 230.04C339.42 230.04 339.64 229.84 339.64 229.46ZM343.009 222.7C342.389 223.26 342.049 223.48 341.529 223.78C340.289 224.54 339.169 224.6 339.169 224.6C339.169 224.6 339.789 223.78 340.809 223.26C341.529 222.88 342.269 222.7 343.009 222.7ZM346.949 226.16C346.949 225.82 346.649 225.52 346.349 225.52C346.009 225.52 345.789 226.04 345.669 226.26C345.469 226.54 342.369 229.08 340.789 229.08C339.909 229.08 339.529 228.6 339.169 228.02C338.729 227.34 338.629 226.72 338.629 226.3C338.629 225.94 338.689 225.72 338.689 225.72C339.249 225.68 340.469 225.56 341.709 224.8C342.849 224.12 344.549 222.84 344.549 222.34C344.549 222.28 344.529 222.24 344.469 222.2C343.989 221.88 343.409 221.74 342.749 221.74C340.649 221.74 338.069 223.28 337.549 225.54C337.489 225.78 337.469 226.02 337.469 226.26C337.469 227.74 338.389 229.32 339.689 229.92C339.949 230.04 340.249 230.1 340.569 230.1C342.829 230.1 346.049 227.16 346.489 226.92C346.749 226.74 346.949 226.44 346.949 226.16ZM356.676 220.66C356.676 220.36 356.476 219.94 356.156 219.94C355.736 219.94 355.376 220.74 355.296 220.94C355.236 221.14 353.636 223.22 352.396 224.88C351.156 226.58 349.976 228.34 349.976 228.34C349.776 227.7 349.696 227.28 349.596 226.9C349.256 225.56 349.336 225.3 349.056 224.3C348.796 223.38 348.296 222.7 347.876 222.7C347.636 222.7 347.496 222.88 347.496 223.08C347.496 223.5 347.836 224.24 347.976 224.66C348.176 225.18 348.516 226.94 349.016 228.72C349.136 229.14 349.236 229.86 349.656 230.08C349.756 230.12 349.856 230.16 349.936 230.16C350.416 230.16 350.796 229.5 350.976 229.08C351.296 228.36 354.696 223.24 355.576 222.48C356.136 222.02 356.676 221.28 356.676 220.66ZM360.959 222.7C360.339 223.26 359.999 223.48 359.479 223.78C358.239 224.54 357.119 224.6 357.119 224.6C357.119 224.6 357.739 223.78 358.759 223.26C359.479 222.88 360.219 222.7 360.959 222.7ZM364.899 226.16C364.899 225.82 364.599 225.52 364.299 225.52C363.959 225.52 363.739 226.04 363.619 226.26C363.419 226.54 360.319 229.08 358.739 229.08C357.859 229.08 357.479 228.6 357.119 228.02C356.679 227.34 356.579 226.72 356.579 226.3C356.579 225.94 356.639 225.72 356.639 225.72C357.199 225.68 358.419 225.56 359.659 224.8C360.799 224.12 362.499 222.84 362.499 222.34C362.499 222.28 362.479 222.24 362.419 222.2C361.939 221.88 361.359 221.74 360.699 221.74C358.599 221.74 356.019 223.28 355.499 225.54C355.439 225.78 355.419 226.02 355.419 226.26C355.419 227.74 356.339 229.32 357.639 229.92C357.899 230.04 358.199 230.1 358.519 230.1C360.779 230.1 363.999 227.16 364.439 226.92C364.699 226.74 364.899 226.44 364.899 226.16ZM371.865 230.5C371.865 230.18 371.665 229.8 371.525 229.52C371.485 229.38 371.465 229.02 371.465 228.22V225.92C371.465 223.32 371.365 221.46 370.425 221.26H370.345C369.105 221.26 366.985 225.86 366.985 225.86C366.965 225.7 366.965 225.58 366.965 225.48C366.965 225.22 367.005 224.98 367.005 224.4C367.005 223.24 367.205 222.48 367.205 222.04C367.205 221.88 367.185 221.78 367.125 221.7C367.005 221.54 366.745 221.38 366.485 221.38C366.285 221.38 366.105 221.5 366.045 221.84C366.005 222.12 365.825 223.56 365.785 225.44C365.745 227.6 365.625 228.76 365.625 229.4C365.625 229.72 365.665 229.92 365.745 230.06C365.885 230.24 366.045 230.3 366.185 230.3C366.325 230.3 366.465 230.24 366.565 230.2C366.805 230.02 366.785 229.5 367.385 227.88C368.285 225.44 369.765 222.68 370.125 222.68C370.365 222.68 370.385 224.3 370.385 224.54L370.365 226.48C370.365 228.28 370.565 229.22 370.565 229.64C370.565 229.84 370.505 229.96 370.505 230.1C370.505 230.64 371.005 231 371.405 231C371.705 231 371.865 230.74 371.865 230.5ZM378.721 222.9C378.721 222.9 378.681 222.1 378.161 222.1C377.541 222.1 377.521 222.54 377.521 222.82C377.501 223.34 377.161 226.58 376.161 228.34C376.021 228.58 375.881 228.68 375.761 228.68C375.081 228.68 374.381 226.14 374.381 222.94C374.381 222.68 374.401 222.42 374.401 222.14C374.401 221.88 374.241 221.38 373.801 221.38H373.701C373.481 221.38 373.301 221.54 373.301 222.02C373.321 222.76 373.381 229.92 375.741 229.92C375.921 229.92 376.141 229.86 376.361 229.76C377.561 229.2 378.721 223.28 378.721 222.9ZM385.197 222.7C384.577 223.26 384.237 223.48 383.717 223.78C382.477 224.54 381.357 224.6 381.357 224.6C381.357 224.6 381.977 223.78 382.997 223.26C383.717 222.88 384.457 222.7 385.197 222.7ZM389.137 226.16C389.137 225.82 388.837 225.52 388.537 225.52C388.197 225.52 387.977 226.04 387.857 226.26C387.657 226.54 384.557 229.08 382.977 229.08C382.097 229.08 381.717 228.6 381.357 228.02C380.917 227.34 380.817 226.72 380.817 226.3C380.817 225.94 380.877 225.72 380.877 225.72C381.437 225.68 382.657 225.56 383.897 224.8C385.037 224.12 386.737 222.84 386.737 222.34C386.737 222.28 386.717 222.24 386.657 222.2C386.177 221.88 385.597 221.74 384.937 221.74C382.837 221.74 380.257 223.28 379.737 225.54C379.677 225.78 379.657 226.02 379.657 226.26C379.657 227.74 380.577 229.32 381.877 229.92C382.137 230.04 382.437 230.1 382.757 230.1C385.017 230.1 388.237 227.16 388.677 226.92C388.937 226.74 389.137 226.44 389.137 226.16Z" fill="#005573"/>
<path d="M190.2 153.68C190.2 153.44 190 153.28 189.84 153.28C189.54 153.28 188.56 153.4 185.58 154.44C181.06 156.02 180.12 156.7 180.12 156.7C180.18 156.16 180.2 155.82 180.22 155.4C180.28 154.4 180.4 153.7 180.4 153.24C180.4 152.92 180.34 152.72 180.16 152.6C180.06 152.52 179.94 152.48 179.84 152.48C179.58 152.48 179.36 152.68 179.18 152.9C178.94 153.22 179.02 154.54 178.98 155.22C178.96 155.9 178.94 156.46 178.86 157.24C178.44 157.48 178.28 157.8 178.28 158.26C178.28 158.72 178.56 158.76 178.64 158.76C178.46 161.5 178.26 163.94 178.26 165.26C178.26 165.82 178.3 166.18 178.38 166.28C178.5 166.38 178.7 166.54 178.9 166.54C179 166.54 179.14 166.5 179.24 166.4C179.56 166.1 179.6 165.82 179.6 165.44C179.6 165.18 179.56 164.86 179.56 164.48V164.26C179.58 163.64 179.88 159.5 179.88 159.5C179.88 159.5 180.68 160.62 182.44 162.26C185.38 164.98 188.46 165.96 189.52 165.96C189.7 165.96 189.82 165.92 189.86 165.86C189.9 165.82 189.92 165.76 189.92 165.72C189.92 165.12 186.84 164.72 183.76 161.92C180.58 159.02 180.14 157.88 180.14 157.88C182.42 156.52 187.04 155.08 187.88 154.82C188.22 154.72 188.42 154.7 188.6 154.7H188.76C188.92 154.7 189.1 154.68 189.38 154.54C190.02 154.24 190.2 153.92 190.2 153.68ZM201.171 152.96C201.151 154.9 192.611 158.22 192.611 158.22L192.751 155.68C192.791 154.88 192.911 153.2 192.911 153.2C193.571 153.16 194.251 153.1 194.791 152.98C195.211 152.88 197.731 152.54 199.491 152.54C200.451 152.54 201.171 152.64 201.171 152.96ZM202.611 152.74C202.611 152.52 202.531 152.3 202.391 152.1C202.091 151.7 201.011 151.56 199.691 151.56C197.191 151.56 193.831 152.04 193.251 152.04C192.731 151.98 192.771 151.68 192.271 151.68C191.871 151.68 191.511 152.16 191.511 152.56C191.511 152.62 191.531 152.7 191.551 152.76C191.631 152.98 191.671 153.48 191.671 154.06C191.671 154.64 191.631 155.32 191.611 155.84C191.551 156.9 191.351 159.3 191.351 159.3C191.231 159.46 191.231 159.6 191.231 159.7C191.231 159.82 191.351 160.08 191.351 160.08C191.211 162.5 191.251 163.7 191.151 164.84C191.131 165.04 191.111 165.24 191.111 165.42C191.111 165.82 191.311 166.12 191.691 166.12C192.011 166.12 192.391 165.9 192.391 165.22C192.391 165.08 192.371 164.9 192.331 164.7C192.291 164.52 192.271 164.18 192.271 163.74C192.271 162.18 192.471 159.5 192.471 159.5C194.891 158.48 202.611 155.06 202.611 152.74ZM205.111 153.24C205.111 152.7 205.011 152.22 204.471 152.22C203.711 152.22 203.851 153.58 203.651 154.94C203.551 155.68 203.211 161.58 203.211 164.42C203.211 165.2 203.231 165.74 203.291 165.9C203.431 166.2 203.651 166.3 203.891 166.3C204.291 166.3 204.671 166.08 204.671 165.68C204.671 165.24 204.311 164.76 204.311 164.76C204.371 164.1 204.371 163.62 204.371 163.22V162.02C204.371 161.2 204.391 160.1 204.611 157.82C204.771 156.2 205.111 154.34 205.111 153.24Z" fill="#005573"/>
<path d="M169.36 366.56C169.36 366.18 169.02 365.9 168.68 365.9C168.28 365.9 167.84 366.16 167.66 366.24C167.22 366.44 161.5 369.74 158.1 369.74C157.46 369.74 156.9 369.62 156.46 369.34C155.68 368.84 155.36 368.12 155.36 367.3C155.36 364 160.62 359 163.18 358.46C163.62 358.36 164.24 358.24 164.24 357.76C164.24 357.28 163.96 357.1 163.58 357.1C163.16 357.1 162.68 357.3 162.52 357.36C159.18 358.7 154.24 363.5 154.24 367.24C154.24 368.34 154.68 369.36 155.7 370.16C156.26 370.6 157.02 370.78 157.88 370.78C161.6 370.78 167.32 367.4 168.2 367.28C168.2 367.28 169.36 367.16 169.36 366.56ZM173.17 369.3C173.17 369.3 171.83 370.42 170.85 370.42C170.35 370.42 170.17 370.14 170.17 369.7C170.17 368.7 171.01 367.62 172.01 367.62C172.67 367.62 173.17 369.3 173.17 369.3ZM175.17 366.66C175.17 365.1 174.77 363.5 173.39 362.64C173.07 362.44 172.69 362.36 172.27 362.36C171.11 362.36 169.81 363.04 169.81 363.72C169.83 364.08 170.17 364.22 170.39 364.22C170.49 364.22 170.55 364.2 170.55 364.12C170.59 363.84 171.37 363.3 172.17 363.3C173.75 363.3 174.17 365.54 174.17 366.7C174.17 367.78 173.85 368.52 173.85 368.52C173.55 367.6 173.05 366.62 171.95 366.62C170.41 366.62 169.23 368.44 169.23 369.78C169.23 370.74 169.81 371.36 170.81 371.36C172.05 371.36 173.47 370.36 173.47 370.36C173.47 370.36 173.53 370.7 173.65 370.82C173.75 370.94 173.93 370.98 174.07 370.98C174.17 370.98 174.27 370.96 174.31 370.9C174.41 370.84 175.17 368.78 175.17 366.66ZM182.413 361.56V361.48C182.393 361.24 181.693 360.88 181.433 360.76C181.313 360.7 181.153 360.66 180.973 360.66C180.713 360.66 180.393 360.74 180.153 360.94C178.833 362.04 176.313 363.92 176.313 366.12C176.313 369.12 180.913 368.92 181.193 369.9C181.193 370.62 178.293 371.6 178.173 371.8C178.093 371.9 178.053 372 178.053 372.1C178.053 372.38 178.353 372.62 178.773 372.64C179.073 372.64 182.353 370.92 182.353 370.1C182.353 368.86 181.213 368.66 179.993 368.18C178.673 367.68 177.353 367.28 177.353 366.12C177.353 365.5 177.853 364.34 178.753 363.54C180.333 362.12 180.553 361.7 181.233 361.68C181.393 361.68 181.613 361.92 181.993 361.92C182.293 361.92 182.413 361.76 182.413 361.56ZM191.569 367.68C191.569 365.66 191.329 363.52 190.249 363.14C190.069 363.08 189.889 363.06 189.709 363.06C187.629 363.06 184.929 366.58 184.929 366.58C185.009 364.76 185.149 363.1 185.309 361.44C185.449 359.88 185.749 358.84 185.749 358.22C185.749 357.76 185.569 357.5 185.049 357.5C184.349 357.5 184.529 359.22 184.169 362.52C183.629 367.46 183.869 369.9 183.649 370.36C183.529 370.62 183.389 370.92 183.389 371.2C183.389 371.62 183.709 371.86 184.069 371.86C184.429 371.86 184.829 371.64 184.829 370.9C184.829 370.66 184.789 370.44 184.789 370.22C184.789 369.68 184.869 368.74 185.309 367.8C185.869 366.6 188.369 364.16 189.569 364.16C189.689 364.16 189.809 364.18 189.889 364.24C190.329 364.52 190.469 366.28 190.469 367.78C190.469 368.86 190.389 369.54 190.389 370.1C190.389 370.62 190.529 371.04 191.009 371.04C191.469 371.04 191.549 370.86 191.549 370.58C191.549 370.38 191.509 370.1 191.509 369.78C191.509 369.2 191.569 368.36 191.569 367.68Z" fill="#005573"/>
<path d="M15.36 263.56C15.36 263.18 15.02 262.9 14.68 262.9C14.28 262.9 13.84 263.16 13.66 263.24C13.22 263.44 7.5 266.74 4.1 266.74C3.46 266.74 2.9 266.62 2.46 266.34C1.68 265.84 1.36 265.12 1.36 264.3C1.36 261 6.62 256 9.18 255.46C9.62 255.36 10.24 255.24 10.24 254.76C10.24 254.28 9.96 254.1 9.58 254.1C9.16 254.1 8.68 254.3 8.52 254.36C5.18 255.7 0.24 260.5 0.24 264.24C0.24 265.34 0.68 266.36 1.7 267.16C2.26 267.6 3.02 267.78 3.88 267.78C7.6 267.78 13.32 264.4 14.2 264.28C14.2 264.28 15.36 264.16 15.36 263.56ZM18.3234 261C19.4234 261 19.9034 262.28 19.9034 263.16C19.9034 263.86 19.6634 264.56 19.3234 265.22C18.9434 265.94 17.6834 267.04 16.7634 267.04C15.8434 267.04 15.4634 265.74 15.4634 265.02C15.4634 264.74 15.5034 264.46 15.5834 264.24C16.6034 261.22 18.1634 261 18.3234 261ZM20.9034 263.4C20.9034 263.18 20.8834 262.98 20.8634 262.74C20.6434 260.56 18.9634 259.86 18.1634 259.86C17.0034 259.86 15.8434 260.92 14.7234 263.46C14.4834 264 14.3834 264.52 14.3834 265.04C14.3834 266.36 15.1234 268.08 16.5434 268.08C18.2234 268.08 20.9034 266.26 20.9034 263.4ZM27.8077 258.56V258.48C27.7877 258.24 27.0877 257.88 26.8277 257.76C26.7077 257.7 26.5477 257.66 26.3677 257.66C26.1077 257.66 25.7877 257.74 25.5477 257.94C24.2277 259.04 21.7077 260.92 21.7077 263.12C21.7077 266.12 26.3077 265.92 26.5877 266.9C26.5877 267.62 23.6877 268.6 23.5677 268.8C23.4877 268.9 23.4477 269 23.4477 269.1C23.4477 269.38 23.7477 269.62 24.1677 269.64C24.4677 269.64 27.7477 267.92 27.7477 267.1C27.7477 265.86 26.6077 265.66 25.3877 265.18C24.0677 264.68 22.7477 264.28 22.7477 263.12C22.7477 262.5 23.2477 261.34 24.1477 260.54C25.7277 259.12 25.9477 258.7 26.6277 258.68C26.7877 258.68 27.0077 258.92 27.3877 258.92C27.6877 258.92 27.8077 258.76 27.8077 258.56ZM37.2436 259.52C37.2036 258.96 36.4836 258.98 36.0636 258.96C35.8836 258.96 35.7036 258.94 35.5236 258.94C34.1036 258.94 32.9036 259.2 32.9036 259.2C33.0836 257.9 33.2036 257.58 33.3236 256.38C33.3636 255.96 33.3836 255.6 33.3836 255.3C33.3836 254.24 33.1436 253.86 32.7636 253.86C32.3836 253.86 32.3036 254.22 32.3036 254.64C32.3036 254.92 32.3436 255.2 32.3436 255.54C32.3436 256.22 31.8636 259.38 31.8636 259.38C30.6636 259.7 30.4036 259.8 29.2636 260.24C28.1636 260.66 28.1236 260.8 28.0236 261.1C28.0036 261.16 28.0036 261.2 28.0036 261.24C28.0036 261.52 28.4036 261.82 28.6236 261.82C28.9836 261.82 29.6636 261.2 30.0036 261.04C30.7236 260.7 31.7036 260.48 31.7036 260.48C31.6036 261.34 31.5236 261.74 31.3836 263.16C31.1636 265.2 31.1636 266.44 31.1636 267.34C31.1636 267.66 31.2636 268.4 31.8636 268.44H31.9436C32.3236 268.44 32.4236 268.22 32.4236 267.96C32.4236 267.72 32.3236 267.44 32.3236 267.36C32.3036 267.06 32.3036 266.72 32.3036 266.38C32.3036 263.72 32.7236 260.5 32.7436 260.26C33.4636 260.1 34.8436 259.82 36.0836 259.82C36.2436 259.82 36.5236 259.88 36.7636 259.88C37.0236 259.88 37.2436 259.82 37.2436 259.52Z" fill="#005573"/>
<path d="M23.9223 233.316C24.3731 233.635 24.9972 233.528 25.3163 233.078L30.5153 225.731C30.8343 225.28 30.7275 224.656 30.2767 224.337C29.8259 224.018 29.2018 224.125 28.8827 224.576L24.2614 231.106L17.7312 226.485C17.2804 226.166 16.6563 226.272 16.3373 226.723C16.0183 227.174 16.1251 227.798 16.5759 228.117L23.9223 233.316ZM50.3054 61.2806C40.5145 70.7339 20.3278 98.3147 17.5032 133.42L19.4968 133.58C22.2722 99.0853 42.1522 71.9328 51.6946 62.7194L50.3054 61.2806ZM17.5032 133.42C14.6932 168.344 20.3428 214.14 23.5143 232.669L25.4857 232.331C22.3239 213.86 16.7068 168.256 19.4968 133.58L17.5032 133.42Z" fill="#9B9B0F"/>
<path d="M142.509 361.861C142.985 361.579 143.142 360.966 142.861 360.491L138.277 352.745C137.995 352.27 137.382 352.113 136.907 352.394C136.432 352.676 136.274 353.289 136.556 353.764L140.63 360.649L133.745 364.723C133.27 365.005 133.113 365.618 133.394 366.093C133.676 366.568 134.289 366.726 134.764 366.444L142.509 361.861ZM32.1808 283.573C36.8643 290.264 44.9346 300.991 53.9422 311.452C62.933 321.895 72.9241 332.151 81.4453 337.832L82.5547 336.168C74.2759 330.649 64.4337 320.572 55.4578 310.148C46.4987 299.742 38.469 289.069 33.8192 282.427L32.1808 283.573ZM81.4453 337.832C98.3976 349.134 128.743 358.633 141.752 361.969L142.248 360.031C129.257 356.7 99.2024 347.266 82.5547 336.168L81.4453 337.832Z" fill="#9B9B0F"/>
<path d="M178.928 193.629C178.723 193.116 178.141 192.866 177.629 193.072L169.272 196.414C168.76 196.619 168.51 197.201 168.715 197.714C168.92 198.227 169.502 198.476 170.015 198.271L177.443 195.3L180.414 202.728C180.619 203.24 181.201 203.49 181.714 203.285C182.227 203.08 182.476 202.498 182.271 201.985L178.928 193.629ZM178.898 344.56C174.861 336.317 170.929 329.946 167.961 319.599C164.997 309.265 163 294.951 163 271H161C161 295.049 163.003 309.569 166.039 320.151C169.071 330.721 173.139 337.35 177.102 345.44L178.898 344.56ZM163 271C163 247.052 164.996 232.566 167.964 221.765C170.94 210.936 174.88 203.818 178.919 194.394L177.081 193.606C173.12 202.849 169.06 210.23 166.036 221.235C163.004 232.268 161 246.948 161 271H163Z" fill="#9B9B0F"/>
<path d="M272.685 13.7288C273.087 13.3507 273.107 12.7179 272.729 12.3153L266.567 5.75569C266.189 5.35316 265.556 5.33338 265.153 5.71152C264.751 6.08965 264.731 6.72251 265.109 7.12504L270.586 12.9558L264.756 18.4332C264.353 18.8114 264.333 19.4442 264.712 19.8468C265.09 20.2493 265.723 20.2691 266.125 19.8909L272.685 13.7288ZM97.6668 33.7452C103.871 28.1944 122.345 16.3705 146.1 13.995L145.9 12.005C121.655 14.4295 102.796 26.4723 96.3332 32.2548L97.6668 33.7452ZM146.1 13.995C170.018 11.6031 239.94 12.9986 271.969 13.9995L272.031 12.0005C240.06 11.0014 169.982 9.59686 145.9 12.005L146.1 13.995Z" fill="#9B9B0F"/>
<path d="M367.012 204.152C367.096 204.698 367.606 205.072 368.152 204.988L377.047 203.62C377.593 203.536 377.968 203.025 377.884 202.479C377.8 201.934 377.289 201.559 376.743 201.643L368.836 202.86L367.62 194.953C367.536 194.407 367.025 194.032 366.479 194.116C365.934 194.2 365.559 194.711 365.643 195.257L367.012 204.152ZM347.559 35.8973C357.549 40.8105 371.581 52.4888 382.917 68.0391C394.248 83.5829 402.789 102.864 402.001 122.961L403.999 123.039C404.811 102.336 396.019 82.6171 384.533 66.8609C373.052 51.1112 358.785 39.1895 348.441 34.1027L347.559 35.8973ZM402.001 122.961C400.415 163.398 378.241 188.344 367.194 203.409L368.806 204.591C379.759 189.656 402.385 164.202 403.999 123.039L402.001 122.961Z" fill="#9B9B0F"/>
<path d="M221.211 149.386C220.872 149.822 220.95 150.45 221.386 150.789L228.49 156.315C228.926 156.654 229.554 156.575 229.894 156.139C230.233 155.703 230.154 155.075 229.718 154.736L223.403 149.825L228.315 143.51C228.654 143.074 228.575 142.446 228.139 142.106C227.703 141.767 227.075 141.846 226.736 142.282L221.211 149.386ZM314.046 42.2998C317.616 53.6599 318.597 83.4062 293.272 110.315L294.728 111.685C320.603 84.1938 319.717 53.6734 315.954 41.7002L314.046 42.2998ZM293.272 110.315C267.862 137.313 235.026 147.364 221.876 149.008L222.124 150.992C235.64 149.303 268.938 139.087 294.728 111.685L293.272 110.315Z" fill="#9B9B0F"/>
<path d="M107.386 51.2106C106.95 51.5497 106.872 52.178 107.211 52.6139L112.736 59.7181C113.075 60.1541 113.703 60.2326 114.139 59.8935C114.575 59.5545 114.654 58.9262 114.315 58.4902L109.403 52.1754L115.718 47.2639C116.154 46.9248 116.233 46.2965 115.894 45.8606C115.554 45.4246 114.926 45.3461 114.49 45.6852L107.386 51.2106ZM195.99 135.144C197.166 127.08 197.972 114.291 196.568 102.086C195.866 95.982 194.608 89.9891 192.545 84.7935C190.484 79.6021 187.595 75.1435 183.593 72.1949L182.407 73.8051C186.005 76.4565 188.708 80.5479 190.686 85.5315C192.663 90.5109 193.892 96.318 194.582 102.314C195.961 114.309 195.168 126.92 194.01 134.856L195.99 135.144ZM183.593 72.1949C175.814 66.4626 161.546 61.76 147.038 58.2038C132.477 54.6346 117.489 52.1783 108.124 51.0077L107.876 52.9923C117.178 54.155 132.089 56.5987 146.562 60.1462C161.087 63.7066 174.986 68.3374 182.407 73.8051L183.593 72.1949Z" fill="#9B9B0F"/>
<path d="M158.571 155.821C159.024 155.506 159.136 154.883 158.821 154.429L153.685 147.039C153.37 146.585 152.747 146.473 152.293 146.788C151.84 147.103 151.728 147.726 152.043 148.18L156.608 154.749L150.039 159.315C149.585 159.63 149.473 160.253 149.788 160.707C150.103 161.16 150.726 161.272 151.18 160.957L158.571 155.821ZM82.0468 66.6978C79.854 73.6135 77.5318 84.9205 77.6751 96.4374C77.8179 107.925 80.4179 119.832 88.2929 127.707L89.7071 126.293C82.3821 118.968 79.8154 107.708 79.6749 96.4126C79.5348 85.1461 81.8127 74.0531 83.9532 67.3022L82.0468 66.6978ZM88.2929 127.707C96.0601 135.474 109.326 141.784 122.614 146.517C135.939 151.263 149.443 154.476 157.823 155.984L158.177 154.016C149.89 152.524 136.494 149.337 123.286 144.633C110.041 139.916 97.1399 133.726 89.7071 126.293L88.2929 127.707Z" fill="#9B9B0F"/>
<path d="M199.133 358.502C198.858 358.981 199.023 359.593 199.502 359.867L207.309 364.346C207.788 364.621 208.399 364.456 208.674 363.977C208.949 363.498 208.783 362.887 208.304 362.612L201.365 358.63L205.346 351.691C205.621 351.212 205.456 350.601 204.977 350.326C204.498 350.051 203.887 350.217 203.612 350.696L199.133 358.502ZM345.127 244.513C339.48 254.644 329.405 270.855 317.552 286.522C305.682 302.213 292.106 317.254 279.47 325.152L280.53 326.848C293.494 318.746 307.252 303.453 319.148 287.728C331.062 271.979 341.187 255.689 346.873 245.487L345.127 244.513ZM279.47 325.152C253.996 341.073 215.709 353.71 199.739 358.035L200.261 359.965C216.291 355.624 254.804 342.927 280.53 326.848L279.47 325.152Z" fill="#9B9B0F"/>
</svg>
