<svg width="700" height="480" viewBox="0 0 700 480" fill="none" xmlns="http://www.w3.org/2000/svg">
<rect width="700" height="480" fill="white"/>
<path d="M355.112 72.452C355.112 71.806 354.534 71.33 353.956 71.33C353.276 71.33 352.528 71.772 352.222 71.908C351.474 72.248 341.75 77.858 335.97 77.858C334.882 77.858 333.93 77.654 333.182 77.178C331.856 76.328 331.312 75.104 331.312 73.71C331.312 68.1 340.254 59.6 344.606 58.682C345.354 58.512 346.408 58.308 346.408 57.492C346.408 56.676 345.932 56.37 345.286 56.37C344.572 56.37 343.756 56.71 343.484 56.812C337.806 59.09 329.408 67.25 329.408 73.608C329.408 75.478 330.156 77.212 331.89 78.572C332.842 79.32 334.134 79.626 335.596 79.626C341.92 79.626 351.644 73.88 353.14 73.676C353.14 73.676 355.112 73.472 355.112 72.452ZM360.06 56.676C360.06 56.2 359.958 55.962 359.788 55.758C359.448 55.384 359.176 55.248 358.938 55.248C358.632 55.248 358.428 55.452 358.19 55.656C357.748 56.03 357.646 58.954 357.238 63.374C356.83 67.522 356.116 74.832 356.116 78.878C356.116 80.408 356.252 81.496 356.524 81.666C356.83 81.904 357.102 81.972 357.34 81.972C358.02 81.972 358.156 80.986 358.156 80.238C358.156 79.082 358.054 77.858 358.054 76.77C358.054 74.05 358.224 70.786 358.632 67.59C359.482 60.45 360.06 57.866 360.06 56.676ZM366.244 67.386C366.244 66.604 365.768 66.094 365.19 66.094C364 66.162 364.136 68.1 364.034 69.97C363.864 73.234 363.694 75.682 363.694 77.314C363.694 78.538 363.796 79.286 364.102 79.524C364.374 79.728 364.68 79.83 364.918 79.83C365.598 79.83 365.836 79.286 365.836 78.708C365.836 78.096 365.428 78.028 365.428 76.498V75.852C365.428 74.526 366.244 68.542 366.244 67.386ZM366.312 56.098C366.312 55.554 365.938 55.146 365.462 55.146C364.578 55.146 364.85 55.928 364.136 57.39C363.728 58.274 363.558 59.056 363.558 59.668C363.558 60.144 363.66 60.824 364.17 60.824C364.408 60.824 364.612 60.688 364.782 60.518C365.122 60.178 364.884 59.6 365.394 58.342C365.836 57.254 366.278 56.676 366.312 56.234V56.098ZM377.977 67.59C376.923 68.542 376.345 68.916 375.461 69.426C373.353 70.718 371.449 70.82 371.449 70.82C371.449 70.82 372.503 69.426 374.237 68.542C375.461 67.896 376.719 67.59 377.977 67.59ZM384.675 73.472C384.675 72.894 384.165 72.384 383.655 72.384C383.077 72.384 382.703 73.268 382.499 73.642C382.159 74.118 376.889 78.436 374.203 78.436C372.707 78.436 372.061 77.62 371.449 76.634C370.701 75.478 370.531 74.424 370.531 73.71C370.531 73.098 370.633 72.724 370.633 72.724C371.585 72.656 373.659 72.452 375.767 71.16C377.705 70.004 380.595 67.828 380.595 66.978C380.595 66.876 380.561 66.808 380.459 66.74C379.643 66.196 378.657 65.958 377.535 65.958C373.965 65.958 369.579 68.576 368.695 72.418C368.593 72.826 368.559 73.234 368.559 73.642C368.559 76.158 370.123 78.844 372.333 79.864C372.775 80.068 373.285 80.17 373.829 80.17C377.671 80.17 383.145 75.172 383.893 74.764C384.335 74.458 384.675 73.948 384.675 73.472ZM396.518 80.85C396.518 80.306 396.178 79.66 395.94 79.184C395.872 78.946 395.838 78.334 395.838 76.974V73.064C395.838 68.644 395.668 65.482 394.07 65.142H393.934C391.826 65.142 388.222 72.962 388.222 72.962C388.188 72.69 388.188 72.486 388.188 72.316C388.188 71.874 388.256 71.466 388.256 70.48C388.256 68.508 388.596 67.216 388.596 66.468C388.596 66.196 388.562 66.026 388.46 65.89C388.256 65.618 387.814 65.346 387.372 65.346C387.032 65.346 386.726 65.55 386.624 66.128C386.556 66.604 386.25 69.052 386.182 72.248C386.114 75.92 385.91 77.892 385.91 78.98C385.91 79.524 385.978 79.864 386.114 80.102C386.352 80.408 386.624 80.51 386.862 80.51C387.1 80.51 387.338 80.408 387.508 80.34C387.916 80.034 387.882 79.15 388.902 76.396C390.432 72.248 392.948 67.556 393.56 67.556C393.968 67.556 394.002 70.31 394.002 70.718L393.968 74.016C393.968 77.076 394.308 78.674 394.308 79.388C394.308 79.728 394.206 79.932 394.206 80.17C394.206 81.088 395.056 81.7 395.736 81.7C396.246 81.7 396.518 81.258 396.518 80.85ZM412.933 65.584C412.865 64.632 411.641 64.666 410.927 64.632C410.621 64.632 410.315 64.598 410.009 64.598C407.595 64.598 405.555 65.04 405.555 65.04C405.861 62.83 406.065 62.286 406.269 60.246C406.337 59.532 406.371 58.92 406.371 58.41C406.371 56.608 405.963 55.962 405.317 55.962C404.671 55.962 404.535 56.574 404.535 57.288C404.535 57.764 404.603 58.24 404.603 58.818C404.603 59.974 403.787 65.346 403.787 65.346C401.747 65.89 401.305 66.06 399.367 66.808C397.497 67.522 397.429 67.76 397.259 68.27C397.225 68.372 397.225 68.44 397.225 68.508C397.225 68.984 397.905 69.494 398.279 69.494C398.891 69.494 400.047 68.44 400.625 68.168C401.849 67.59 403.515 67.216 403.515 67.216C403.345 68.678 403.209 69.358 402.971 71.772C402.597 75.24 402.597 77.348 402.597 78.878C402.597 79.422 402.767 80.68 403.787 80.748H403.923C404.569 80.748 404.739 80.374 404.739 79.932C404.739 79.524 404.569 79.048 404.569 78.912C404.535 78.402 404.535 77.824 404.535 77.246C404.535 72.724 405.249 67.25 405.283 66.842C406.507 66.57 408.853 66.094 410.961 66.094C411.233 66.094 411.709 66.196 412.117 66.196C412.559 66.196 412.933 66.094 412.933 65.584ZM421.994 63.952V63.816C421.96 63.408 420.77 62.796 420.328 62.592C420.124 62.49 419.852 62.422 419.546 62.422C419.104 62.422 418.56 62.558 418.152 62.898C415.908 64.768 411.624 67.964 411.624 71.704C411.624 76.804 419.444 76.464 419.92 78.13C419.92 79.354 414.99 81.02 414.786 81.36C414.65 81.53 414.582 81.7 414.582 81.87C414.582 82.346 415.092 82.754 415.806 82.788C416.316 82.788 421.892 79.864 421.892 78.47C421.892 76.362 419.954 76.022 417.88 75.206C415.636 74.356 413.392 73.676 413.392 71.704C413.392 70.65 414.242 68.678 415.772 67.318C418.458 64.904 418.832 64.19 419.988 64.156C420.26 64.156 420.634 64.564 421.28 64.564C421.79 64.564 421.994 64.292 421.994 63.952Z" fill="#33778F"/>
<path d="M541.176 128.832C541.142 132.13 526.624 137.774 526.624 137.774L526.862 133.456C526.93 132.096 527.134 129.24 527.134 129.24C528.256 129.172 529.412 129.07 530.33 128.866C531.044 128.696 535.328 128.118 538.32 128.118C539.952 128.118 541.176 128.288 541.176 128.832ZM543.624 128.458C543.624 128.084 543.488 127.71 543.25 127.37C542.74 126.69 540.904 126.452 538.66 126.452C534.41 126.452 528.698 127.268 527.712 127.268C526.828 127.166 526.896 126.656 526.046 126.656C525.366 126.656 524.754 127.472 524.754 128.152C524.754 128.254 524.788 128.39 524.822 128.492C524.958 128.866 525.026 129.716 525.026 130.702C525.026 131.688 524.958 132.844 524.924 133.728C524.822 135.53 524.482 139.61 524.482 139.61C524.278 139.882 524.278 140.12 524.278 140.29C524.278 140.494 524.482 140.936 524.482 140.936C524.244 145.05 524.312 147.09 524.142 149.028C524.108 149.368 524.074 149.708 524.074 150.014C524.074 150.694 524.414 151.204 525.06 151.204C525.604 151.204 526.25 150.83 526.25 149.674C526.25 149.436 526.216 149.13 526.148 148.79C526.08 148.484 526.046 147.906 526.046 147.158C526.046 144.506 526.386 139.95 526.386 139.95C530.5 138.216 543.624 132.402 543.624 128.458ZM552.371 137.468C552.371 137.06 552.099 136.652 551.895 136.584C551.317 136.38 550.807 136.312 550.331 136.312C548.291 136.312 546.897 137.876 545.639 139.066C543.463 141.072 541.117 144.2 541.117 144.2C541.117 141.922 541.117 141.276 541.083 140.086C541.015 138.012 540.913 137.23 540.403 136.754C540.131 136.516 539.893 136.414 539.655 136.414C539.315 136.414 538.635 136.822 538.635 137.196C538.635 137.604 539.383 138.318 539.383 142.568C539.383 143.248 539.349 143.996 539.315 144.88C539.179 147.498 538.771 149.232 538.771 150.252C538.771 150.694 538.839 151 539.043 151.204C539.281 151.442 539.621 151.612 539.961 151.612C540.233 151.612 540.505 151.51 540.709 151.238C541.151 150.66 540.709 148.042 541.967 146.138C544.415 142.432 546.999 139.542 549.141 138.284C549.481 138.08 549.787 138.012 550.025 138.012C550.569 138.012 550.943 138.318 551.385 138.318C551.895 138.318 552.371 137.91 552.371 137.468ZM556.769 139.1C558.639 139.1 559.455 141.276 559.455 142.772C559.455 143.962 559.047 145.152 558.469 146.274C557.823 147.498 555.681 149.368 554.117 149.368C552.553 149.368 551.907 147.158 551.907 145.934C551.907 145.458 551.975 144.982 552.111 144.608C553.845 139.474 556.497 139.1 556.769 139.1ZM561.155 143.18C561.155 142.806 561.121 142.466 561.087 142.058C560.713 138.352 557.857 137.162 556.497 137.162C554.525 137.162 552.553 138.964 550.649 143.282C550.241 144.2 550.071 145.084 550.071 145.968C550.071 148.212 551.329 151.136 553.743 151.136C556.599 151.136 561.155 148.042 561.155 143.18ZM569.254 152.938C569.254 146.648 567.826 139.032 567.248 138.488C567.01 138.216 566.704 138.114 566.398 138.114C565.922 138.114 565.514 138.42 565.48 138.76V138.896C565.48 139.406 565.82 139.44 565.854 139.95C565.922 140.494 567.146 146.988 567.146 152.836C567.146 154.332 567.044 155.794 566.84 157.086C566.024 162.39 561.808 166.912 557.32 166.912C556.98 166.912 556.742 166.912 556.3 166.844C551.812 166.164 551.166 163.002 551.166 160.962C551.166 160.18 551.268 159.568 551.268 159.33C551.268 159.16 551.2 158.854 550.996 158.854C550.894 158.854 550.792 158.922 550.724 159.024C550.418 159.432 550.078 160.486 550.078 161.778C550.078 163.478 550.69 165.62 552.832 167.252C553.886 168.034 555.518 168.578 557.388 168.578C561.4 168.578 566.398 166.13 568.608 158.752C569.084 157.222 569.254 155.182 569.254 152.938ZM568.608 128.39C568.608 127.642 568.302 127.03 567.622 127.03C567.044 127.03 566.738 127.268 566.738 127.812V128.05C566.738 129.036 567.282 129.546 567.894 129.546C568.37 129.546 568.608 129.138 568.608 128.39ZM580.805 138.59C579.751 139.542 579.173 139.916 578.289 140.426C576.181 141.718 574.277 141.82 574.277 141.82C574.277 141.82 575.331 140.426 577.065 139.542C578.289 138.896 579.547 138.59 580.805 138.59ZM587.503 144.472C587.503 143.894 586.993 143.384 586.483 143.384C585.905 143.384 585.531 144.268 585.327 144.642C584.987 145.118 579.717 149.436 577.031 149.436C575.535 149.436 574.889 148.62 574.277 147.634C573.529 146.478 573.359 145.424 573.359 144.71C573.359 144.098 573.461 143.724 573.461 143.724C574.413 143.656 576.487 143.452 578.595 142.16C580.533 141.004 583.423 138.828 583.423 137.978C583.423 137.876 583.389 137.808 583.287 137.74C582.471 137.196 581.485 136.958 580.363 136.958C576.793 136.958 572.407 139.576 571.523 143.418C571.421 143.826 571.387 144.234 571.387 144.642C571.387 147.158 572.951 149.844 575.161 150.864C575.603 151.068 576.113 151.17 576.657 151.17C580.499 151.17 585.973 146.172 586.721 145.764C587.163 145.458 587.503 144.948 587.503 144.472ZM605.909 144.642C605.909 144.268 605.603 143.894 605.195 143.894C605.093 143.894 604.991 143.928 604.889 143.962C604.515 144.098 596.389 149.436 592.105 149.436C590.643 149.436 589.487 148.62 589.487 147.192C589.487 144.234 593.907 139.712 594.689 139.474C594.757 139.44 594.859 139.44 594.961 139.44C595.369 139.44 595.743 139.61 596.083 139.61C596.729 139.61 597.443 138.59 597.443 137.978C597.443 137.502 597.103 137.162 596.287 137.162C596.117 137.162 595.913 137.162 595.709 137.196C592.751 137.638 587.617 143.554 587.617 147.498C587.617 149.878 589.861 151 591.867 151C597.409 151 605.875 145.084 605.909 144.778V144.642ZM619.314 136.584C619.246 135.632 618.022 135.666 617.308 135.632C617.002 135.632 616.696 135.598 616.39 135.598C613.976 135.598 611.936 136.04 611.936 136.04C612.242 133.83 612.446 133.286 612.65 131.246C612.718 130.532 612.752 129.92 612.752 129.41C612.752 127.608 612.344 126.962 611.698 126.962C611.052 126.962 610.916 127.574 610.916 128.288C610.916 128.764 610.984 129.24 610.984 129.818C610.984 130.974 610.168 136.346 610.168 136.346C608.128 136.89 607.686 137.06 605.748 137.808C603.878 138.522 603.81 138.76 603.64 139.27C603.606 139.372 603.606 139.44 603.606 139.508C603.606 139.984 604.286 140.494 604.66 140.494C605.272 140.494 606.428 139.44 607.006 139.168C608.23 138.59 609.896 138.216 609.896 138.216C609.726 139.678 609.59 140.358 609.352 142.772C608.978 146.24 608.978 148.348 608.978 149.878C608.978 150.422 609.148 151.68 610.168 151.748H610.304C610.95 151.748 611.12 151.374 611.12 150.932C611.12 150.524 610.95 150.048 610.95 149.912C610.916 149.402 610.916 148.824 610.916 148.246C610.916 143.724 611.63 138.25 611.664 137.842C612.888 137.57 615.234 137.094 617.342 137.094C617.614 137.094 618.09 137.196 618.498 137.196C618.94 137.196 619.314 137.094 619.314 136.584ZM628.375 134.952V134.816C628.341 134.408 627.151 133.796 626.709 133.592C626.505 133.49 626.233 133.422 625.927 133.422C625.485 133.422 624.941 133.558 624.533 133.898C622.289 135.768 618.005 138.964 618.005 142.704C618.005 147.804 625.825 147.464 626.301 149.13C626.301 150.354 621.371 152.02 621.167 152.36C621.031 152.53 620.963 152.7 620.963 152.87C620.963 153.346 621.473 153.754 622.187 153.788C622.697 153.788 628.273 150.864 628.273 149.47C628.273 147.362 626.335 147.022 624.261 146.206C622.017 145.356 619.773 144.676 619.773 142.704C619.773 141.65 620.623 139.678 622.153 138.318C624.839 135.904 625.213 135.19 626.369 135.156C626.641 135.156 627.015 135.564 627.661 135.564C628.171 135.564 628.375 135.292 628.375 134.952Z" fill="#33778F"/>
<path d="M147.176 119.832C147.142 123.13 132.624 128.774 132.624 128.774L132.862 124.456C132.93 123.096 133.134 120.24 133.134 120.24C134.256 120.172 135.412 120.07 136.33 119.866C137.044 119.696 141.328 119.118 144.32 119.118C145.952 119.118 147.176 119.288 147.176 119.832ZM149.624 119.458C149.624 119.084 149.488 118.71 149.25 118.37C148.74 117.69 146.904 117.452 144.66 117.452C140.41 117.452 134.698 118.268 133.712 118.268C132.828 118.166 132.896 117.656 132.046 117.656C131.366 117.656 130.754 118.472 130.754 119.152C130.754 119.254 130.788 119.39 130.822 119.492C130.958 119.866 131.026 120.716 131.026 121.702C131.026 122.688 130.958 123.844 130.924 124.728C130.822 126.53 130.482 130.61 130.482 130.61C130.278 130.882 130.278 131.12 130.278 131.29C130.278 131.494 130.482 131.936 130.482 131.936C130.244 136.05 130.312 138.09 130.142 140.028C130.108 140.368 130.074 140.708 130.074 141.014C130.074 141.694 130.414 142.204 131.06 142.204C131.604 142.204 132.25 141.83 132.25 140.674C132.25 140.436 132.216 140.13 132.148 139.79C132.08 139.484 132.046 138.906 132.046 138.158C132.046 135.506 132.386 130.95 132.386 130.95C136.5 129.216 149.624 123.402 149.624 119.458ZM158.371 128.468C158.371 128.06 158.099 127.652 157.895 127.584C157.317 127.38 156.807 127.312 156.331 127.312C154.291 127.312 152.897 128.876 151.639 130.066C149.463 132.072 147.117 135.2 147.117 135.2C147.117 132.922 147.117 132.276 147.083 131.086C147.015 129.012 146.913 128.23 146.403 127.754C146.131 127.516 145.893 127.414 145.655 127.414C145.315 127.414 144.635 127.822 144.635 128.196C144.635 128.604 145.383 129.318 145.383 133.568C145.383 134.248 145.349 134.996 145.315 135.88C145.179 138.498 144.771 140.232 144.771 141.252C144.771 141.694 144.839 142 145.043 142.204C145.281 142.442 145.621 142.612 145.961 142.612C146.233 142.612 146.505 142.51 146.709 142.238C147.151 141.66 146.709 139.042 147.967 137.138C150.415 133.432 152.999 130.542 155.141 129.284C155.481 129.08 155.787 129.012 156.025 129.012C156.569 129.012 156.943 129.318 157.385 129.318C157.895 129.318 158.371 128.91 158.371 128.468ZM162.769 130.1C164.639 130.1 165.455 132.276 165.455 133.772C165.455 134.962 165.047 136.152 164.469 137.274C163.823 138.498 161.681 140.368 160.117 140.368C158.553 140.368 157.907 138.158 157.907 136.934C157.907 136.458 157.975 135.982 158.111 135.608C159.845 130.474 162.497 130.1 162.769 130.1ZM167.155 134.18C167.155 133.806 167.121 133.466 167.087 133.058C166.713 129.352 163.857 128.162 162.497 128.162C160.525 128.162 158.553 129.964 156.649 134.282C156.241 135.2 156.071 136.084 156.071 136.968C156.071 139.212 157.329 142.136 159.743 142.136C162.599 142.136 167.155 139.042 167.155 134.18ZM182.428 119.356C182.428 118.03 180.082 117.758 179.3 117.758C176.376 117.758 172.874 120.002 172.874 130.576C172.874 131.29 172.84 131.936 172.84 132.514C170.528 132.99 169.78 133.704 169.168 134.35C168.93 134.588 168.828 134.826 168.828 135.064C168.828 135.676 169.406 136.22 169.984 136.22C170.29 136.22 170.596 136.05 170.868 135.71C171.548 134.69 171.82 134.554 172.874 134.35C172.874 137.546 172.84 139.11 172.364 143.02C171.82 147.61 170.868 151.112 170.63 151.418C170.392 151.69 170.256 152.064 170.256 152.404C170.256 153.186 170.868 153.492 171.514 153.492C172.262 153.492 172.636 152.846 172.636 152.37C172.636 152.098 172.602 152.03 172.602 151.962C172.602 151.078 173.588 147.474 174.268 142.918C174.676 139.994 174.744 137.036 174.744 133.942C176.376 133.67 177.226 133.806 180.014 133.704C180.66 133.67 181.544 133.602 181.578 132.684C181.578 132.004 181 131.562 180.422 131.562C180.218 131.562 180.048 131.596 179.878 131.732C179.3 132.14 177.906 131.732 174.71 132.174C174.71 131.392 174.642 130.814 174.642 130.236C174.642 124.422 175.934 119.39 179.13 119.39C179.538 119.39 179.98 119.458 180.524 119.662C181.068 119.866 181.238 120.138 181.714 120.138C182.02 120.138 182.428 119.934 182.428 119.356ZM191.188 129.59C190.134 130.542 189.556 130.916 188.672 131.426C186.564 132.718 184.66 132.82 184.66 132.82C184.66 132.82 185.714 131.426 187.448 130.542C188.672 129.896 189.93 129.59 191.188 129.59ZM197.886 135.472C197.886 134.894 197.376 134.384 196.866 134.384C196.288 134.384 195.914 135.268 195.71 135.642C195.37 136.118 190.1 140.436 187.414 140.436C185.918 140.436 185.272 139.62 184.66 138.634C183.912 137.478 183.742 136.424 183.742 135.71C183.742 135.098 183.844 134.724 183.844 134.724C184.796 134.656 186.87 134.452 188.978 133.16C190.916 132.004 193.806 129.828 193.806 128.978C193.806 128.876 193.772 128.808 193.67 128.74C192.854 128.196 191.868 127.958 190.746 127.958C187.176 127.958 182.79 130.576 181.906 134.418C181.804 134.826 181.77 135.234 181.77 135.642C181.77 138.158 183.334 140.844 185.544 141.864C185.986 142.068 186.496 142.17 187.04 142.17C190.882 142.17 196.356 137.172 197.104 136.764C197.546 136.458 197.886 135.948 197.886 135.472ZM208.675 125.952V125.816C208.641 125.408 207.451 124.796 207.009 124.592C206.805 124.49 206.533 124.422 206.227 124.422C205.785 124.422 205.241 124.558 204.833 124.898C202.589 126.768 198.305 129.964 198.305 133.704C198.305 138.804 206.125 138.464 206.601 140.13C206.601 141.354 201.671 143.02 201.467 143.36C201.331 143.53 201.263 143.7 201.263 143.87C201.263 144.346 201.773 144.754 202.487 144.788C202.997 144.788 208.573 141.864 208.573 140.47C208.573 138.362 206.635 138.022 204.561 137.206C202.317 136.356 200.073 135.676 200.073 133.704C200.073 132.65 200.923 130.678 202.453 129.318C205.139 126.904 205.513 126.19 206.669 126.156C206.941 126.156 207.315 126.564 207.961 126.564C208.471 126.564 208.675 126.292 208.675 125.952ZM220.296 125.952V125.816C220.262 125.408 219.072 124.796 218.63 124.592C218.426 124.49 218.154 124.422 217.848 124.422C217.406 124.422 216.862 124.558 216.454 124.898C214.21 126.768 209.926 129.964 209.926 133.704C209.926 138.804 217.746 138.464 218.222 140.13C218.222 141.354 213.292 143.02 213.088 143.36C212.952 143.53 212.884 143.7 212.884 143.87C212.884 144.346 213.394 144.754 214.108 144.788C214.618 144.788 220.194 141.864 220.194 140.47C220.194 138.362 218.256 138.022 216.182 137.206C213.938 136.356 211.694 135.676 211.694 133.704C211.694 132.65 212.544 130.678 214.074 129.318C216.76 126.904 217.134 126.19 218.29 126.156C218.562 126.156 218.936 126.564 219.582 126.564C220.092 126.564 220.296 126.292 220.296 125.952ZM226.172 129.386C226.172 128.604 225.696 128.094 225.118 128.094C223.928 128.162 224.064 130.1 223.962 131.97C223.792 135.234 223.622 137.682 223.622 139.314C223.622 140.538 223.724 141.286 224.03 141.524C224.302 141.728 224.608 141.83 224.846 141.83C225.526 141.83 225.764 141.286 225.764 140.708C225.764 140.096 225.356 140.028 225.356 138.498V137.852C225.356 136.526 226.172 130.542 226.172 129.386ZM226.24 118.098C226.24 117.554 225.866 117.146 225.39 117.146C224.506 117.146 224.778 117.928 224.064 119.39C223.656 120.274 223.486 121.056 223.486 121.668C223.486 122.144 223.588 122.824 224.098 122.824C224.336 122.824 224.54 122.688 224.71 122.518C225.05 122.178 224.812 121.6 225.322 120.342C225.764 119.254 226.206 118.676 226.24 118.234V118.098ZM235.617 130.1C237.487 130.1 238.303 132.276 238.303 133.772C238.303 134.962 237.895 136.152 237.317 137.274C236.671 138.498 234.529 140.368 232.965 140.368C231.401 140.368 230.755 138.158 230.755 136.934C230.755 136.458 230.823 135.982 230.959 135.608C232.693 130.474 235.345 130.1 235.617 130.1ZM240.003 134.18C240.003 133.806 239.969 133.466 239.935 133.058C239.561 129.352 236.705 128.162 235.345 128.162C233.373 128.162 231.401 129.964 229.497 134.282C229.089 135.2 228.919 136.084 228.919 136.968C228.919 139.212 230.177 142.136 232.591 142.136C235.447 142.136 240.003 139.042 240.003 134.18ZM252.794 142.85C252.794 142.306 252.454 141.66 252.216 141.184C252.148 140.946 252.114 140.334 252.114 138.974V135.064C252.114 130.644 251.944 127.482 250.346 127.142H250.21C248.102 127.142 244.498 134.962 244.498 134.962C244.464 134.69 244.464 134.486 244.464 134.316C244.464 133.874 244.532 133.466 244.532 132.48C244.532 130.508 244.872 129.216 244.872 128.468C244.872 128.196 244.838 128.026 244.736 127.89C244.532 127.618 244.09 127.346 243.648 127.346C243.308 127.346 243.002 127.55 242.9 128.128C242.832 128.604 242.526 131.052 242.458 134.248C242.39 137.92 242.186 139.892 242.186 140.98C242.186 141.524 242.254 141.864 242.39 142.102C242.628 142.408 242.9 142.51 243.138 142.51C243.376 142.51 243.614 142.408 243.784 142.34C244.192 142.034 244.158 141.15 245.178 138.396C246.708 134.248 249.224 129.556 249.836 129.556C250.244 129.556 250.278 132.31 250.278 132.718L250.244 136.016C250.244 139.076 250.584 140.674 250.584 141.388C250.584 141.728 250.482 141.932 250.482 142.17C250.482 143.088 251.332 143.7 252.012 143.7C252.522 143.7 252.794 143.258 252.794 142.85ZM261.627 139.11C261.627 139.11 259.349 141.014 257.683 141.014C256.833 141.014 256.527 140.538 256.527 139.79C256.527 138.09 257.955 136.254 259.655 136.254C260.777 136.254 261.627 139.11 261.627 139.11ZM265.027 134.622C265.027 131.97 264.347 129.25 262.001 127.788C261.457 127.448 260.811 127.312 260.097 127.312C258.125 127.312 255.915 128.468 255.915 129.624C255.949 130.236 256.527 130.474 256.901 130.474C257.071 130.474 257.173 130.44 257.173 130.304C257.241 129.828 258.567 128.91 259.927 128.91C262.613 128.91 263.327 132.718 263.327 134.69C263.327 136.526 262.783 137.784 262.783 137.784C262.273 136.22 261.423 134.554 259.553 134.554C256.935 134.554 254.929 137.648 254.929 139.926C254.929 141.558 255.915 142.612 257.615 142.612C259.723 142.612 262.137 140.912 262.137 140.912C262.137 140.912 262.239 141.49 262.443 141.694C262.613 141.898 262.919 141.966 263.157 141.966C263.327 141.966 263.497 141.932 263.565 141.83C263.735 141.728 265.027 138.226 265.027 134.622ZM272.349 118.676C272.349 118.2 272.247 117.962 272.077 117.758C271.737 117.384 271.465 117.248 271.227 117.248C270.921 117.248 270.717 117.452 270.479 117.656C270.037 118.03 269.935 120.954 269.527 125.374C269.119 129.522 268.405 136.832 268.405 140.878C268.405 142.408 268.541 143.496 268.813 143.666C269.119 143.904 269.391 143.972 269.629 143.972C270.309 143.972 270.445 142.986 270.445 142.238C270.445 141.082 270.343 139.858 270.343 138.77C270.343 136.05 270.513 132.786 270.921 129.59C271.771 122.45 272.349 119.866 272.349 118.676ZM148.23 168.962C148.128 162.502 131.128 163.862 131.128 159.986C131.128 156.994 138.982 154.002 142.246 154.002C143.164 154.002 143.538 155.09 144.286 155.09C144.932 155.09 145.442 154.682 145.442 154.342C145.442 154.24 145.442 154.172 145.374 154.104C144.626 153.05 144.422 152.03 141.838 152.03C138.54 152.03 128.918 155.396 128.918 160.53C128.918 165.63 146.258 163.726 146.258 169.37C146.258 171.75 139.254 175.592 136.602 175.966C135.99 176.068 135.072 176.544 135.072 177.462C135.072 178.38 135.956 178.618 136.67 178.618C137.384 178.618 138.098 178.346 138.234 177.53C138.336 176.952 148.23 173.79 148.23 168.962ZM159.147 163.59C158.093 164.542 157.515 164.916 156.631 165.426C154.523 166.718 152.619 166.82 152.619 166.82C152.619 166.82 153.673 165.426 155.407 164.542C156.631 163.896 157.889 163.59 159.147 163.59ZM165.845 169.472C165.845 168.894 165.335 168.384 164.825 168.384C164.247 168.384 163.873 169.268 163.669 169.642C163.329 170.118 158.059 174.436 155.373 174.436C153.877 174.436 153.231 173.62 152.619 172.634C151.871 171.478 151.701 170.424 151.701 169.71C151.701 169.098 151.803 168.724 151.803 168.724C152.755 168.656 154.829 168.452 156.937 167.16C158.875 166.004 161.765 163.828 161.765 162.978C161.765 162.876 161.731 162.808 161.629 162.74C160.813 162.196 159.827 161.958 158.705 161.958C155.135 161.958 150.749 164.576 149.865 168.418C149.763 168.826 149.729 169.234 149.729 169.642C149.729 172.158 151.293 174.844 153.503 175.864C153.945 176.068 154.455 176.17 154.999 176.17C158.841 176.17 164.315 171.172 165.063 170.764C165.505 170.458 165.845 169.948 165.845 169.472ZM180.816 162.468C180.816 162.06 180.544 161.652 180.34 161.584C179.762 161.38 179.252 161.312 178.776 161.312C176.736 161.312 175.342 162.876 174.084 164.066C171.908 166.072 169.562 169.2 169.562 169.2C169.562 166.922 169.562 166.276 169.528 165.086C169.46 163.012 169.358 162.23 168.848 161.754C168.576 161.516 168.338 161.414 168.1 161.414C167.76 161.414 167.08 161.822 167.08 162.196C167.08 162.604 167.828 163.318 167.828 167.568C167.828 168.248 167.794 168.996 167.76 169.88C167.624 172.498 167.216 174.232 167.216 175.252C167.216 175.694 167.284 176 167.488 176.204C167.726 176.442 168.066 176.612 168.406 176.612C168.678 176.612 168.95 176.51 169.154 176.238C169.596 175.66 169.154 173.042 170.412 171.138C172.86 167.432 175.444 164.542 177.586 163.284C177.926 163.08 178.232 163.012 178.47 163.012C179.014 163.012 179.388 163.318 179.83 163.318C180.34 163.318 180.816 162.91 180.816 162.468ZM195.761 160.122C195.761 159.612 195.421 158.898 194.877 158.898C194.163 158.898 193.551 160.258 193.415 160.598C193.313 160.938 190.593 164.474 188.485 167.296C186.377 170.186 184.371 173.178 184.371 173.178C184.031 172.09 183.895 171.376 183.725 170.73C183.147 168.452 183.283 168.01 182.807 166.31C182.365 164.746 181.515 163.59 180.801 163.59C180.393 163.59 180.155 163.896 180.155 164.236C180.155 164.95 180.733 166.208 180.971 166.922C181.311 167.806 181.889 170.798 182.739 173.824C182.943 174.538 183.113 175.762 183.827 176.136C183.997 176.204 184.167 176.272 184.303 176.272C185.119 176.272 185.765 175.15 186.071 174.436C186.615 173.212 192.395 164.508 193.891 163.216C194.843 162.434 195.761 161.176 195.761 160.122ZM199.277 163.386C199.277 162.604 198.801 162.094 198.223 162.094C197.033 162.162 197.169 164.1 197.067 165.97C196.897 169.234 196.727 171.682 196.727 173.314C196.727 174.538 196.829 175.286 197.135 175.524C197.407 175.728 197.713 175.83 197.951 175.83C198.631 175.83 198.869 175.286 198.869 174.708C198.869 174.096 198.461 174.028 198.461 172.498V171.852C198.461 170.526 199.277 164.542 199.277 163.386ZM199.345 152.098C199.345 151.554 198.971 151.146 198.495 151.146C197.611 151.146 197.883 151.928 197.169 153.39C196.761 154.274 196.591 155.056 196.591 155.668C196.591 156.144 196.693 156.824 197.203 156.824C197.441 156.824 197.645 156.688 197.815 156.518C198.155 156.178 197.917 155.6 198.427 154.342C198.869 153.254 199.311 152.676 199.345 152.234V152.098ZM220.608 169.642C220.608 169.268 220.302 168.894 219.894 168.894C219.792 168.894 219.69 168.928 219.588 168.962C219.214 169.098 211.088 174.436 206.804 174.436C205.342 174.436 204.186 173.62 204.186 172.192C204.186 169.234 208.606 164.712 209.388 164.474C209.456 164.44 209.558 164.44 209.66 164.44C210.068 164.44 210.442 164.61 210.782 164.61C211.428 164.61 212.142 163.59 212.142 162.978C212.142 162.502 211.802 162.162 210.986 162.162C210.816 162.162 210.612 162.162 210.408 162.196C207.45 162.638 202.316 168.554 202.316 172.498C202.316 174.878 204.56 176 206.566 176C212.108 176 220.574 170.084 220.608 169.778V169.642ZM228.774 163.59C227.72 164.542 227.142 164.916 226.258 165.426C224.15 166.718 222.246 166.82 222.246 166.82C222.246 166.82 223.3 165.426 225.034 164.542C226.258 163.896 227.516 163.59 228.774 163.59ZM235.472 169.472C235.472 168.894 234.962 168.384 234.452 168.384C233.874 168.384 233.5 169.268 233.296 169.642C232.956 170.118 227.686 174.436 225 174.436C223.504 174.436 222.858 173.62 222.246 172.634C221.498 171.478 221.328 170.424 221.328 169.71C221.328 169.098 221.43 168.724 221.43 168.724C222.382 168.656 224.456 168.452 226.564 167.16C228.502 166.004 231.392 163.828 231.392 162.978C231.392 162.876 231.358 162.808 231.256 162.74C230.44 162.196 229.454 161.958 228.332 161.958C224.762 161.958 220.376 164.576 219.492 168.418C219.39 168.826 219.356 169.234 219.356 169.642C219.356 172.158 220.92 174.844 223.13 175.864C223.572 176.068 224.082 176.17 224.626 176.17C228.468 176.17 233.942 171.172 234.69 170.764C235.132 170.458 235.472 169.948 235.472 169.472ZM246.261 159.952V159.816C246.227 159.408 245.037 158.796 244.595 158.592C244.391 158.49 244.119 158.422 243.813 158.422C243.371 158.422 242.827 158.558 242.419 158.898C240.175 160.768 235.891 163.964 235.891 167.704C235.891 172.804 243.711 172.464 244.187 174.13C244.187 175.354 239.257 177.02 239.053 177.36C238.917 177.53 238.849 177.7 238.849 177.87C238.849 178.346 239.359 178.754 240.073 178.788C240.583 178.788 246.159 175.864 246.159 174.47C246.159 172.362 244.221 172.022 242.147 171.206C239.903 170.356 237.659 169.676 237.659 167.704C237.659 166.65 238.509 164.678 240.039 163.318C242.725 160.904 243.099 160.19 244.255 160.156C244.527 160.156 244.901 160.564 245.547 160.564C246.057 160.564 246.261 160.292 246.261 159.952Z" fill="#33778F"/>
<path d="M86.724 276.07C86.724 275.288 86.214 274.88 85.602 274.642C85.568 274.608 85.33 274.608 84.99 274.608C82.236 274.608 71.492 275.39 70.404 275.798C70.234 275.798 69.894 275.356 69.384 275.356C69.316 275.356 69.248 275.39 69.18 275.39C68.296 275.594 68.398 276.308 67.99 276.41C62.38 278.076 60.986 277.022 60.034 277.702C59.728 277.94 59.592 278.246 59.592 278.518C59.592 279.164 60.136 279.742 60.748 279.742C62.21 279.742 68.126 278.416 68.126 278.416C68.16 279.402 68.194 280.184 68.194 280.966C68.194 281.918 68.16 282.836 68.058 284.06C67.956 284.978 67.786 289.908 67.786 293.75C67.786 296.3 67.854 298.374 68.058 298.51C68.33 298.68 68.568 298.748 68.806 298.748C69.588 298.748 70.166 297.898 70.166 297.15C70.166 296.98 70.132 296.81 70.03 296.64C69.792 296.198 69.724 295.586 69.724 294.634C69.724 293.92 69.758 293.002 69.758 291.846C69.758 291.472 69.724 291.064 69.724 289.908C69.724 285.726 70.404 277.906 70.404 277.906C75.266 276.07 82.474 276.206 83.664 276.138C84.208 276.206 83.834 277.226 84.344 277.226C84.99 277.226 86.724 276.478 86.724 276.07ZM83.3259 295.11C83.3259 295.11 81.0479 297.014 79.3819 297.014C78.5319 297.014 78.2259 296.538 78.2259 295.79C78.2259 294.09 79.6539 292.254 81.3539 292.254C82.4759 292.254 83.3259 295.11 83.3259 295.11ZM86.7259 290.622C86.7259 287.97 86.0459 285.25 83.6999 283.788C83.1559 283.448 82.5099 283.312 81.7959 283.312C79.8239 283.312 77.6139 284.468 77.6139 285.624C77.6479 286.236 78.2259 286.474 78.5999 286.474C78.7699 286.474 78.8719 286.44 78.8719 286.304C78.9399 285.828 80.2659 284.91 81.6259 284.91C84.3119 284.91 85.0259 288.718 85.0259 290.69C85.0259 292.526 84.4819 293.784 84.4819 293.784C83.9719 292.22 83.1219 290.554 81.2519 290.554C78.6339 290.554 76.6279 293.648 76.6279 295.926C76.6279 297.558 77.6139 298.612 79.3139 298.612C81.4219 298.612 83.8359 296.912 83.8359 296.912C83.8359 296.912 83.9379 297.49 84.1419 297.694C84.3119 297.898 84.6179 297.966 84.8559 297.966C85.0259 297.966 85.1959 297.932 85.2639 297.83C85.4339 297.728 86.7259 294.226 86.7259 290.622ZM94.0478 274.676C94.0478 274.2 93.9458 273.962 93.7758 273.758C93.4358 273.384 93.1638 273.248 92.9258 273.248C92.6198 273.248 92.4158 273.452 92.1778 273.656C91.7358 274.03 91.6338 276.954 91.2258 281.374C90.8178 285.522 90.1038 292.832 90.1038 296.878C90.1038 298.408 90.2398 299.496 90.5118 299.666C90.8178 299.904 91.0898 299.972 91.3278 299.972C92.0078 299.972 92.1438 298.986 92.1438 298.238C92.1438 297.082 92.0418 295.858 92.0418 294.77C92.0418 292.05 92.2118 288.786 92.6198 285.59C93.4698 278.45 94.0478 275.866 94.0478 274.676ZM104.528 285.59C103.474 286.542 102.896 286.916 102.012 287.426C99.904 288.718 98 288.82 98 288.82C98 288.82 99.054 287.426 100.788 286.542C102.012 285.896 103.27 285.59 104.528 285.59ZM111.226 291.472C111.226 290.894 110.716 290.384 110.206 290.384C109.628 290.384 109.254 291.268 109.05 291.642C108.71 292.118 103.44 296.436 100.754 296.436C99.258 296.436 98.612 295.62 98 294.634C97.252 293.478 97.082 292.424 97.082 291.71C97.082 291.098 97.184 290.724 97.184 290.724C98.136 290.656 100.21 290.452 102.318 289.16C104.256 288.004 107.146 285.828 107.146 284.978C107.146 284.876 107.112 284.808 107.01 284.74C106.194 284.196 105.208 283.958 104.086 283.958C100.516 283.958 96.13 286.576 95.246 290.418C95.144 290.826 95.11 291.234 95.11 291.642C95.11 294.158 96.674 296.844 98.884 297.864C99.326 298.068 99.836 298.17 100.38 298.17C104.222 298.17 109.696 293.172 110.444 292.764C110.886 292.458 111.226 291.948 111.226 291.472ZM123.069 298.85C123.069 298.306 122.729 297.66 122.491 297.184C122.423 296.946 122.389 296.334 122.389 294.974V291.064C122.389 286.644 122.219 283.482 120.621 283.142H120.485C118.377 283.142 114.773 290.962 114.773 290.962C114.739 290.69 114.739 290.486 114.739 290.316C114.739 289.874 114.807 289.466 114.807 288.48C114.807 286.508 115.147 285.216 115.147 284.468C115.147 284.196 115.113 284.026 115.011 283.89C114.807 283.618 114.365 283.346 113.923 283.346C113.583 283.346 113.277 283.55 113.175 284.128C113.107 284.604 112.801 287.052 112.733 290.248C112.665 293.92 112.461 295.892 112.461 296.98C112.461 297.524 112.529 297.864 112.665 298.102C112.903 298.408 113.175 298.51 113.413 298.51C113.651 298.51 113.889 298.408 114.059 298.34C114.467 298.034 114.433 297.15 115.453 294.396C116.983 290.248 119.499 285.556 120.111 285.556C120.519 285.556 120.553 288.31 120.553 288.718L120.519 292.016C120.519 295.076 120.859 296.674 120.859 297.388C120.859 297.728 120.757 297.932 120.757 298.17C120.757 299.088 121.607 299.7 122.287 299.7C122.797 299.7 123.069 299.258 123.069 298.85ZM139.484 283.584C139.416 282.632 138.192 282.666 137.478 282.632C137.172 282.632 136.866 282.598 136.56 282.598C134.146 282.598 132.106 283.04 132.106 283.04C132.412 280.83 132.616 280.286 132.82 278.246C132.888 277.532 132.922 276.92 132.922 276.41C132.922 274.608 132.514 273.962 131.868 273.962C131.222 273.962 131.086 274.574 131.086 275.288C131.086 275.764 131.154 276.24 131.154 276.818C131.154 277.974 130.338 283.346 130.338 283.346C128.298 283.89 127.856 284.06 125.918 284.808C124.048 285.522 123.98 285.76 123.81 286.27C123.776 286.372 123.776 286.44 123.776 286.508C123.776 286.984 124.456 287.494 124.83 287.494C125.442 287.494 126.598 286.44 127.176 286.168C128.4 285.59 130.066 285.216 130.066 285.216C129.896 286.678 129.76 287.358 129.522 289.772C129.148 293.24 129.148 295.348 129.148 296.878C129.148 297.422 129.318 298.68 130.338 298.748H130.474C131.12 298.748 131.29 298.374 131.29 297.932C131.29 297.524 131.12 297.048 131.12 296.912C131.086 296.402 131.086 295.824 131.086 295.246C131.086 290.724 131.8 285.25 131.834 284.842C133.058 284.57 135.404 284.094 137.512 284.094C137.784 284.094 138.26 284.196 138.668 284.196C139.11 284.196 139.484 284.094 139.484 283.584ZM148.545 281.952V281.816C148.511 281.408 147.321 280.796 146.879 280.592C146.675 280.49 146.403 280.422 146.097 280.422C145.655 280.422 145.111 280.558 144.703 280.898C142.459 282.768 138.175 285.964 138.175 289.704C138.175 294.804 145.995 294.464 146.471 296.13C146.471 297.354 141.541 299.02 141.337 299.36C141.201 299.53 141.133 299.7 141.133 299.87C141.133 300.346 141.643 300.754 142.357 300.788C142.867 300.788 148.443 297.864 148.443 296.47C148.443 294.362 146.505 294.022 144.431 293.206C142.187 292.356 139.943 291.676 139.943 289.704C139.943 288.65 140.793 286.678 142.323 285.318C145.009 282.904 145.383 282.19 146.538 282.156C146.811 282.156 147.185 282.564 147.831 282.564C148.341 282.564 148.545 282.292 148.545 281.952Z" fill="#33778F"/>
<path d="M528.626 315.09C528.626 317.368 522.506 320.224 519.31 321.55C517.95 322.128 516.556 322.4 516.556 322.4C516.556 322.4 516.862 320.088 517.134 318.796C517.338 317.776 517.44 316.79 517.474 316.144C517.576 316.45 517.814 316.586 518.018 316.586C518.154 316.586 518.256 316.518 518.358 316.45C519.276 315.634 524.036 314.274 526.756 314.274C527.844 314.274 528.626 314.512 528.626 315.09ZM536.888 335.082C536.888 334.13 535.834 333.688 535.29 333.62C534.304 333.484 528.694 331.58 521.418 326.82C519.752 325.732 517.95 323.998 517.95 323.998C525.668 320.972 530.632 317.776 530.632 315.022V314.852C530.462 312.914 528.966 312.268 527.028 312.268C523.118 312.268 517.44 314.92 517.44 314.92C517.27 314.342 516.964 313.866 516.318 313.866C515.298 313.866 514.822 314.648 514.822 315.464C514.822 315.906 514.89 316.348 514.958 316.756V317.232C514.958 318.83 514.584 322.808 514.584 322.808L514.244 322.91L514.55 323.522C514.346 327.84 513.734 333.28 513.734 335.558C513.734 336.102 513.768 336.476 513.87 336.578C514.108 336.85 514.448 336.986 514.822 336.986C515.57 336.986 516.148 336.408 516.148 335.728C516.148 335.048 515.706 334.3 515.706 333.586C515.808 330.016 516.25 324.984 516.25 324.984C517.95 326.378 518.698 327.194 521.418 328.962C528.558 333.62 534.1 335.184 534.372 335.524C534.61 335.83 535.29 336.068 535.834 336.068C536.514 336.068 536.888 335.728 536.888 335.082ZM542.616 323.59C541.562 324.542 540.984 324.916 540.1 325.426C537.992 326.718 536.088 326.82 536.088 326.82C536.088 326.82 537.142 325.426 538.876 324.542C540.1 323.896 541.358 323.59 542.616 323.59ZM549.314 329.472C549.314 328.894 548.804 328.384 548.294 328.384C547.716 328.384 547.342 329.268 547.138 329.642C546.798 330.118 541.528 334.436 538.842 334.436C537.346 334.436 536.7 333.62 536.088 332.634C535.34 331.478 535.17 330.424 535.17 329.71C535.17 329.098 535.272 328.724 535.272 328.724C536.224 328.656 538.298 328.452 540.406 327.16C542.344 326.004 545.234 323.828 545.234 322.978C545.234 322.876 545.2 322.808 545.098 322.74C544.282 322.196 543.296 321.958 542.174 321.958C538.604 321.958 534.218 324.576 533.334 328.418C533.232 328.826 533.198 329.234 533.198 329.642C533.198 332.158 534.762 334.844 536.972 335.864C537.414 336.068 537.924 336.17 538.468 336.17C542.31 336.17 547.784 331.172 548.532 330.764C548.974 330.458 549.314 329.948 549.314 329.472ZM565.849 320.122C565.849 319.612 565.509 318.898 564.965 318.898C564.251 318.898 563.639 320.258 563.503 320.598C563.401 320.938 560.681 324.474 558.573 327.296C556.465 330.186 554.459 333.178 554.459 333.178C554.119 332.09 553.983 331.376 553.813 330.73C553.235 328.452 553.371 328.01 552.895 326.31C552.453 324.746 551.603 323.59 550.889 323.59C550.481 323.59 550.243 323.896 550.243 324.236C550.243 324.95 550.821 326.208 551.059 326.922C551.399 327.806 551.977 330.798 552.827 333.824C553.031 334.538 553.201 335.762 553.915 336.136C554.085 336.204 554.255 336.272 554.391 336.272C555.207 336.272 555.853 335.15 556.159 334.436C556.703 333.212 562.483 324.508 563.979 323.216C564.931 322.434 565.849 321.176 565.849 320.122ZM573.13 323.59C572.076 324.542 571.498 324.916 570.614 325.426C568.506 326.718 566.602 326.82 566.602 326.82C566.602 326.82 567.656 325.426 569.39 324.542C570.614 323.896 571.872 323.59 573.13 323.59ZM579.828 329.472C579.828 328.894 579.318 328.384 578.808 328.384C578.23 328.384 577.856 329.268 577.652 329.642C577.312 330.118 572.042 334.436 569.356 334.436C567.86 334.436 567.214 333.62 566.602 332.634C565.854 331.478 565.684 330.424 565.684 329.71C565.684 329.098 565.786 328.724 565.786 328.724C566.738 328.656 568.812 328.452 570.92 327.16C572.858 326.004 575.748 323.828 575.748 322.978C575.748 322.876 575.714 322.808 575.612 322.74C574.796 322.196 573.81 321.958 572.688 321.958C569.118 321.958 564.732 324.576 563.848 328.418C563.746 328.826 563.712 329.234 563.712 329.642C563.712 332.158 565.276 334.844 567.486 335.864C567.928 336.068 568.438 336.17 568.982 336.17C572.824 336.17 578.298 331.172 579.046 330.764C579.488 330.458 579.828 329.948 579.828 329.472ZM591.671 336.85C591.671 336.306 591.331 335.66 591.093 335.184C591.025 334.946 590.991 334.334 590.991 332.974V329.064C590.991 324.644 590.821 321.482 589.223 321.142H589.087C586.979 321.142 583.375 328.962 583.375 328.962C583.341 328.69 583.341 328.486 583.341 328.316C583.341 327.874 583.409 327.466 583.409 326.48C583.409 324.508 583.749 323.216 583.749 322.468C583.749 322.196 583.715 322.026 583.613 321.89C583.409 321.618 582.967 321.346 582.525 321.346C582.185 321.346 581.879 321.55 581.777 322.128C581.709 322.604 581.403 325.052 581.335 328.248C581.267 331.92 581.063 333.892 581.063 334.98C581.063 335.524 581.131 335.864 581.267 336.102C581.505 336.408 581.777 336.51 582.015 336.51C582.253 336.51 582.491 336.408 582.661 336.34C583.069 336.034 583.035 335.15 584.055 332.396C585.585 328.248 588.101 323.556 588.713 323.556C589.121 323.556 589.155 326.31 589.155 326.718L589.121 330.016C589.121 333.076 589.461 334.674 589.461 335.388C589.461 335.728 589.359 335.932 589.359 336.17C589.359 337.088 590.209 337.7 590.889 337.7C591.399 337.7 591.671 337.258 591.671 336.85ZM603.326 323.93C603.326 323.93 603.258 322.57 602.374 322.57C601.32 322.57 601.286 323.318 601.286 323.794C601.252 324.678 600.674 330.186 598.974 333.178C598.736 333.586 598.498 333.756 598.294 333.756C597.138 333.756 595.948 329.438 595.948 323.998C595.948 323.556 595.982 323.114 595.982 322.638C595.982 322.196 595.71 321.346 594.962 321.346H594.792C594.418 321.346 594.112 321.618 594.112 322.434C594.146 323.692 594.248 335.864 598.26 335.864C598.566 335.864 598.94 335.762 599.314 335.592C601.354 334.64 603.326 324.576 603.326 323.93ZM614.335 323.59C613.281 324.542 612.703 324.916 611.819 325.426C609.711 326.718 607.807 326.82 607.807 326.82C607.807 326.82 608.861 325.426 610.595 324.542C611.819 323.896 613.077 323.59 614.335 323.59ZM621.033 329.472C621.033 328.894 620.523 328.384 620.013 328.384C619.435 328.384 619.061 329.268 618.857 329.642C618.517 330.118 613.247 334.436 610.561 334.436C609.065 334.436 608.419 333.62 607.807 332.634C607.059 331.478 606.889 330.424 606.889 329.71C606.889 329.098 606.991 328.724 606.991 328.724C607.943 328.656 610.017 328.452 612.125 327.16C614.063 326.004 616.953 323.828 616.953 322.978C616.953 322.876 616.919 322.808 616.817 322.74C616.001 322.196 615.015 321.958 613.893 321.958C610.323 321.958 605.937 324.576 605.053 328.418C604.951 328.826 604.917 329.234 604.917 329.642C604.917 332.158 606.481 334.844 608.691 335.864C609.133 336.068 609.643 336.17 610.187 336.17C614.029 336.17 619.503 331.172 620.251 330.764C620.693 330.458 621.033 329.948 621.033 329.472Z" fill="#33778F"/>
<path d="M355.112 410.452C355.112 409.806 354.534 409.33 353.956 409.33C353.276 409.33 352.528 409.772 352.222 409.908C351.474 410.248 341.75 415.858 335.97 415.858C334.882 415.858 333.93 415.654 333.182 415.178C331.856 414.328 331.312 413.104 331.312 411.71C331.312 406.1 340.254 397.6 344.606 396.682C345.354 396.512 346.408 396.308 346.408 395.492C346.408 394.676 345.932 394.37 345.286 394.37C344.572 394.37 343.756 394.71 343.484 394.812C337.806 397.09 329.408 405.25 329.408 411.608C329.408 413.478 330.156 415.212 331.89 416.572C332.842 417.32 334.134 417.626 335.596 417.626C341.92 417.626 351.644 411.88 353.14 411.676C353.14 411.676 355.112 411.472 355.112 410.452ZM361.59 415.11C361.59 415.11 359.312 417.014 357.646 417.014C356.796 417.014 356.49 416.538 356.49 415.79C356.49 414.09 357.918 412.254 359.618 412.254C360.74 412.254 361.59 415.11 361.59 415.11ZM364.99 410.622C364.99 407.97 364.31 405.25 361.964 403.788C361.42 403.448 360.774 403.312 360.06 403.312C358.088 403.312 355.878 404.468 355.878 405.624C355.912 406.236 356.49 406.474 356.864 406.474C357.034 406.474 357.136 406.44 357.136 406.304C357.204 405.828 358.53 404.91 359.89 404.91C362.576 404.91 363.29 408.718 363.29 410.69C363.29 412.526 362.746 413.784 362.746 413.784C362.236 412.22 361.386 410.554 359.516 410.554C356.898 410.554 354.892 413.648 354.892 415.926C354.892 417.558 355.878 418.612 357.578 418.612C359.686 418.612 362.1 416.912 362.1 416.912C362.1 416.912 362.202 417.49 362.406 417.694C362.576 417.898 362.882 417.966 363.12 417.966C363.29 417.966 363.46 417.932 363.528 417.83C363.698 417.728 364.99 414.226 364.99 410.622ZM377.302 401.952V401.816C377.268 401.408 376.078 400.796 375.636 400.592C375.432 400.49 375.16 400.422 374.854 400.422C374.412 400.422 373.868 400.558 373.46 400.898C371.216 402.768 366.932 405.964 366.932 409.704C366.932 414.804 374.752 414.464 375.228 416.13C375.228 417.354 370.298 419.02 370.094 419.36C369.958 419.53 369.89 419.7 369.89 419.87C369.89 420.346 370.4 420.754 371.114 420.788C371.624 420.788 377.2 417.864 377.2 416.47C377.2 414.362 375.262 414.022 373.188 413.206C370.944 412.356 368.7 411.676 368.7 409.704C368.7 408.65 369.55 406.678 371.08 405.318C373.766 402.904 374.14 402.19 375.296 402.156C375.568 402.156 375.942 402.564 376.588 402.564C377.098 402.564 377.302 402.292 377.302 401.952ZM392.867 412.356C392.867 408.922 392.459 405.284 390.623 404.638C390.317 404.536 390.011 404.502 389.705 404.502C386.169 404.502 381.579 410.486 381.579 410.486C381.715 407.392 381.953 404.57 382.225 401.748C382.463 399.096 382.973 397.328 382.973 396.274C382.973 395.492 382.667 395.05 381.783 395.05C380.593 395.05 380.899 397.974 380.287 403.584C379.369 411.982 379.777 416.13 379.403 416.912C379.199 417.354 378.961 417.864 378.961 418.34C378.961 419.054 379.505 419.462 380.117 419.462C380.729 419.462 381.409 419.088 381.409 417.83C381.409 417.422 381.341 417.048 381.341 416.674C381.341 415.756 381.477 414.158 382.225 412.56C383.177 410.52 387.427 406.372 389.467 406.372C389.671 406.372 389.875 406.406 390.011 406.508C390.759 406.984 390.997 409.976 390.997 412.526C390.997 414.362 390.861 415.518 390.861 416.47C390.861 417.354 391.099 418.068 391.915 418.068C392.697 418.068 392.833 417.762 392.833 417.286C392.833 416.946 392.765 416.47 392.765 415.926C392.765 414.94 392.867 413.512 392.867 412.356Z" fill="#33778F"/>
<path d="M272.44 268.056C272.44 267.648 272.1 267.376 271.828 267.376C271.318 267.376 269.652 267.58 264.586 269.348C256.902 272.034 255.304 273.19 255.304 273.19C255.406 272.272 255.44 271.694 255.474 270.98C255.576 269.28 255.78 268.09 255.78 267.308C255.78 266.764 255.678 266.424 255.372 266.22C255.202 266.084 254.998 266.016 254.828 266.016C254.386 266.016 254.012 266.356 253.706 266.73C253.298 267.274 253.434 269.518 253.366 270.674C253.332 271.83 253.298 272.782 253.162 274.108C252.448 274.516 252.176 275.06 252.176 275.842C252.176 276.624 252.652 276.692 252.788 276.692C252.482 281.35 252.142 285.498 252.142 287.742C252.142 288.694 252.21 289.306 252.346 289.476C252.55 289.646 252.89 289.918 253.23 289.918C253.4 289.918 253.638 289.85 253.808 289.68C254.352 289.17 254.42 288.694 254.42 288.048C254.42 287.606 254.352 287.062 254.352 286.416V286.042C254.386 284.988 254.896 277.95 254.896 277.95C254.896 277.95 256.256 279.854 259.248 282.642C264.246 287.266 269.482 288.932 271.284 288.932C271.59 288.932 271.794 288.864 271.862 288.762C271.93 288.694 271.964 288.592 271.964 288.524C271.964 287.504 266.728 286.824 261.492 282.064C256.086 277.134 255.338 275.196 255.338 275.196C259.214 272.884 267.068 270.436 268.496 269.994C269.074 269.824 269.414 269.79 269.72 269.79H269.992C270.264 269.79 270.57 269.756 271.046 269.518C272.134 269.008 272.44 268.464 272.44 268.056ZM282.921 289.85C282.921 289.306 282.581 288.66 282.343 288.184C282.275 287.946 282.241 287.334 282.241 285.974V282.064C282.241 277.644 282.071 274.482 280.473 274.142H280.337C278.229 274.142 274.625 281.962 274.625 281.962C274.591 281.69 274.591 281.486 274.591 281.316C274.591 280.874 274.659 280.466 274.659 279.48C274.659 277.508 274.999 276.216 274.999 275.468C274.999 275.196 274.965 275.026 274.863 274.89C274.659 274.618 274.217 274.346 273.775 274.346C273.435 274.346 273.129 274.55 273.027 275.128C272.959 275.604 272.653 278.052 272.585 281.248C272.517 284.92 272.313 286.892 272.313 287.98C272.313 288.524 272.381 288.864 272.517 289.102C272.755 289.408 273.027 289.51 273.265 289.51C273.503 289.51 273.741 289.408 273.911 289.34C274.319 289.034 274.285 288.15 275.305 285.396C276.835 281.248 279.351 276.556 279.963 276.556C280.371 276.556 280.405 279.31 280.405 279.718L280.371 283.016C280.371 286.076 280.711 287.674 280.711 288.388C280.711 288.728 280.609 288.932 280.609 289.17C280.609 290.088 281.459 290.7 282.139 290.7C282.649 290.7 282.921 290.258 282.921 289.85ZM291.244 277.1C293.114 277.1 293.93 279.276 293.93 280.772C293.93 281.962 293.522 283.152 292.944 284.274C292.298 285.498 290.156 287.368 288.592 287.368C287.028 287.368 286.382 285.158 286.382 283.934C286.382 283.458 286.45 282.982 286.586 282.608C288.32 277.474 290.972 277.1 291.244 277.1ZM295.63 281.18C295.63 280.806 295.596 280.466 295.562 280.058C295.188 276.352 292.332 275.162 290.972 275.162C289 275.162 287.028 276.964 285.124 281.282C284.716 282.2 284.546 283.084 284.546 283.968C284.546 286.212 285.804 289.136 288.218 289.136C291.074 289.136 295.63 286.042 295.63 281.18ZM321.387 275.502C321.387 274.856 320.707 274.448 320.163 274.448C319.313 274.448 319.007 275.638 318.871 276.08C318.803 276.488 310.881 286.484 310.881 286.484C309.963 283.56 309.657 282.37 309.283 280.704C308.841 278.766 308.399 276.046 308.093 275.808C307.855 275.638 307.515 275.57 307.175 275.57C306.699 275.57 306.223 275.706 306.053 275.978C305.781 276.454 304.523 277.78 303.231 279.31C301.429 281.384 299.967 284.682 299.967 284.682C299.831 283.696 299.797 283.016 299.797 282.404C299.797 281.792 299.831 281.248 299.831 280.602C299.831 280.092 299.831 279.514 299.763 278.766C299.661 277.372 299.899 276.896 299.219 276.352C299.049 276.216 298.777 276.114 298.505 276.114C297.859 276.114 297.587 276.658 297.587 277.168C297.587 277.882 297.825 279.31 297.927 281.996C298.131 286.62 297.791 289.272 299.117 289.272C300.749 289.272 301.769 285.362 302.585 283.696C303.775 281.248 306.835 277.95 306.835 277.95C307.175 279.208 307.447 280.636 307.719 281.792C308.263 284.138 309.555 288.66 309.759 289.034C309.895 289.272 310.337 289.374 310.711 289.374C310.915 289.374 311.085 289.34 311.187 289.306C311.595 289.204 313.805 286.076 314.961 284.478C317.851 280.466 320.265 277.338 320.537 277.066C321.013 276.624 321.387 276.046 321.387 275.502ZM335.429 279.65C335.429 279.446 335.327 279.208 335.021 278.97C334.817 278.8 334.069 278.766 333.049 278.766C331.417 278.766 329.071 278.902 326.861 279.072C323.427 279.344 320.809 279.548 320.809 281.01C320.809 281.656 321.455 281.758 321.897 281.758C322.849 281.758 324.277 281.418 325.705 281.112C328.459 280.534 330.975 280.466 332.233 280.466C333.287 280.466 333.525 280.5 333.797 280.5C334.103 280.5 334.443 280.466 334.851 280.33C335.123 280.228 335.429 279.99 335.429 279.65ZM353.439 274.516C355.003 274.278 356.873 273.802 357.825 273.802C358.369 273.802 358.777 274.074 359.253 274.074C359.899 274.074 360.409 273.496 360.409 272.918C360.409 272.17 359.797 271.83 359.185 271.83C357.587 271.83 353.473 272.51 353.473 272.51V272.238C353.473 270.538 353.745 268.6 353.745 267.648C353.745 266.866 353.473 266.594 352.895 266.594C352.487 266.594 352.011 266.866 351.705 267.41C351.399 267.92 351.399 272.85 351.399 272.85C349.801 273.122 348.577 273.496 346.435 273.836C343.647 274.244 341.437 274.652 341.437 274.652C341.539 272.918 341.743 271.49 341.811 269.824V269.552C341.811 268.43 341.607 266.628 341.369 266.322C341.233 266.186 340.927 266.118 340.587 266.118C340.145 266.118 339.669 266.22 339.499 266.458C339.363 266.662 339.329 266.866 339.329 267.104C339.329 267.41 339.397 267.784 339.499 268.464C339.533 268.838 339.567 269.518 339.567 270.266C339.567 272.306 339.431 275.026 339.431 275.026C338.717 275.264 338.275 275.536 338.275 276.114C338.275 276.624 338.717 277.202 339.261 277.202C339.159 278.562 339.125 278.188 338.989 279.922C338.921 281.112 338.105 286.11 338.105 288.286C338.105 288.796 338.139 289.136 338.275 289.238C338.649 289.51 339.023 289.68 339.363 289.68C339.635 289.68 339.839 289.544 340.043 289.272C340.179 288.966 340.179 288.422 340.179 287.606C340.179 286.484 340.179 285.192 340.383 283.56C340.757 280.33 341.165 276.964 341.165 276.964C342.797 276.59 344.939 276.182 345.755 276.012C346.605 275.842 351.399 274.89 351.399 274.89V280.67C351.399 284.07 352.011 288.286 352.045 288.524C352.079 288.762 352.113 290.122 353.235 290.122C353.813 290.122 354.561 289.884 354.561 289.272C354.561 288.864 354.255 288.422 354.119 288.218C353.779 287.504 353.371 285.43 353.371 280.636C353.371 277.848 353.439 274.516 353.439 274.516ZM363.693 277.1C365.563 277.1 366.379 279.276 366.379 280.772C366.379 281.962 365.971 283.152 365.393 284.274C364.747 285.498 362.605 287.368 361.041 287.368C359.477 287.368 358.831 285.158 358.831 283.934C358.831 283.458 358.899 282.982 359.035 282.608C360.769 277.474 363.421 277.1 363.693 277.1ZM368.079 281.18C368.079 280.806 368.045 280.466 368.011 280.058C367.637 276.352 364.781 275.162 363.421 275.162C361.449 275.162 359.477 276.964 357.573 281.282C357.165 282.2 356.995 283.084 356.995 283.968C356.995 286.212 358.253 289.136 360.667 289.136C363.523 289.136 368.079 286.042 368.079 281.18ZM393.836 275.502C393.836 274.856 393.156 274.448 392.612 274.448C391.762 274.448 391.456 275.638 391.32 276.08C391.252 276.488 383.33 286.484 383.33 286.484C382.412 283.56 382.106 282.37 381.732 280.704C381.29 278.766 380.848 276.046 380.542 275.808C380.304 275.638 379.964 275.57 379.624 275.57C379.148 275.57 378.672 275.706 378.502 275.978C378.23 276.454 376.972 277.78 375.68 279.31C373.878 281.384 372.416 284.682 372.416 284.682C372.28 283.696 372.246 283.016 372.246 282.404C372.246 281.792 372.28 281.248 372.28 280.602C372.28 280.092 372.28 279.514 372.212 278.766C372.11 277.372 372.348 276.896 371.668 276.352C371.498 276.216 371.226 276.114 370.954 276.114C370.308 276.114 370.036 276.658 370.036 277.168C370.036 277.882 370.274 279.31 370.376 281.996C370.58 286.62 370.24 289.272 371.566 289.272C373.198 289.272 374.218 285.362 375.034 283.696C376.224 281.248 379.284 277.95 379.284 277.95C379.624 279.208 379.896 280.636 380.168 281.792C380.712 284.138 382.004 288.66 382.208 289.034C382.344 289.272 382.786 289.374 383.16 289.374C383.364 289.374 383.534 289.34 383.636 289.306C384.044 289.204 386.254 286.076 387.41 284.478C390.3 280.466 392.714 277.338 392.986 277.066C393.462 276.624 393.836 276.046 393.836 275.502Z" fill="#33778F"/>
<path d="M259 81.5001L258.357 80.145L259 81.5001ZM319.1 71.0198C319.663 70.4123 319.627 69.4632 319.02 68.9L309.119 59.7222C308.512 59.159 307.563 59.1949 307 59.8025C306.436 60.41 306.472 61.3591 307.08 61.9223L315.88 70.0803L307.722 78.8807C307.159 79.4882 307.195 80.4373 307.802 81.0005C308.41 81.5637 309.359 81.5277 309.922 80.9202L319.1 71.0198ZM215 117C216.102 118.018 216.102 118.018 216.102 118.018C216.102 118.018 216.102 118.018 216.102 118.017C216.103 118.017 216.104 118.016 216.105 118.014C216.108 118.012 216.112 118.007 216.117 118.001C216.128 117.989 216.145 117.971 216.167 117.947C216.212 117.899 216.28 117.827 216.369 117.732C216.547 117.542 216.812 117.261 217.158 116.899C217.849 116.175 218.859 115.128 220.135 113.841C222.688 111.267 226.298 107.737 230.527 103.914C239.016 96.2388 249.881 87.4906 259.643 82.8551L258.357 80.145C248.175 84.9794 237.04 93.9812 228.515 101.689C224.237 105.557 220.586 109.126 218.005 111.729C216.714 113.03 215.69 114.091 214.987 114.828C214.636 115.196 214.365 115.483 214.181 115.679C214.089 115.777 214.019 115.852 213.972 115.903C213.948 115.928 213.93 115.948 213.918 115.961C213.912 115.968 213.907 115.973 213.904 115.976C213.902 115.978 213.901 115.979 213.9 115.98C213.899 115.981 213.899 115.981 213.899 115.981C213.899 115.982 213.898 115.982 215 117ZM259.643 82.8551C270.023 77.9267 284.576 75.0742 296.651 73.4611C302.665 72.6576 308.023 72.1667 311.876 71.8768C313.802 71.7319 315.351 71.6373 316.417 71.579C316.949 71.5498 317.361 71.5298 317.639 71.517C317.778 71.5106 317.883 71.5061 317.954 71.5032C317.989 71.5017 318.015 71.5006 318.032 71.5C318.041 71.4996 318.047 71.4994 318.051 71.4992C318.053 71.4991 318.055 71.4991 318.056 71.499C318.056 71.499 318.056 71.499 318.057 71.499C318.057 71.499 318.057 71.499 318 70.0001C317.943 68.5011 317.943 68.5012 317.942 68.5012C317.942 68.5012 317.941 68.5012 317.941 68.5012C317.939 68.5013 317.937 68.5014 317.935 68.5015C317.93 68.5017 317.922 68.5019 317.913 68.5023C317.894 68.5031 317.865 68.5042 317.828 68.5058C317.754 68.5089 317.645 68.5136 317.502 68.5202C317.215 68.5333 316.795 68.5538 316.253 68.5835C315.169 68.6428 313.599 68.7387 311.651 68.8853C307.755 69.1784 302.338 69.6746 296.253 70.4875C284.129 72.1073 269.183 75.0047 258.357 80.145L259.643 82.8551Z" fill="#AFAF3F"/>
<path d="M309.819 86.312C309.819 85.7898 309.259 85.4541 308.812 85.4541C307.73 85.4541 304.075 86.2747 301.986 86.7968C300.606 87.1325 298.742 87.7293 296.765 88.4006C296.728 86.312 296.728 84.5217 296.728 83.9623C296.69 82.6942 296.429 82.0601 295.758 82.0601C295.609 82.0601 295.422 82.0974 295.236 82.172C294.937 82.2839 294.639 83.2909 294.639 83.925C294.676 84.2606 294.713 86.4985 294.788 89.0347C291.319 90.2282 288 91.459 287.888 91.7201C287.776 91.8692 287.739 92.0557 287.739 92.2049C287.739 92.8017 288.336 93.3238 288.671 93.3238C288.709 93.3238 288.783 93.3238 288.821 93.2865C289.007 93.1 291.804 92.0557 294.825 91.0114C294.9 93.0627 294.937 95.1141 294.937 96.3076V97.3892C294.937 98.1724 295.236 98.8811 296.093 98.8811C296.839 98.8811 296.951 97.9487 296.951 97.5011V97.3519C296.951 97.0908 296.877 93.6595 296.839 90.3401C299.04 89.5941 301.166 88.8855 302.583 88.5125C305.306 87.7666 307.245 87.3563 307.991 87.3563C308.29 87.3563 308.476 87.4309 308.663 87.4309C309.483 87.4309 309.819 86.8341 309.819 86.5358V86.312Z" fill="#AFAF3F"/>
<path d="M128 110.5L126.806 109.592L126.806 109.592L128 110.5ZM274.113 58.006C274.668 57.3915 274.62 56.443 274.006 55.8874L263.992 46.8333C263.378 46.2777 262.429 46.3254 261.874 46.9399C261.318 47.5544 261.366 48.503 261.98 49.0586L270.881 57.1066L262.833 66.0077C262.278 66.6222 262.325 67.5707 262.94 68.1263C263.554 68.6819 264.503 68.6342 265.059 68.0197L274.113 58.006ZM93 270C94.4992 269.952 94.4992 269.952 94.4992 269.952C94.4992 269.951 94.4992 269.95 94.4991 269.948C94.499 269.945 94.4989 269.941 94.4987 269.935C94.4983 269.922 94.4977 269.903 94.497 269.878C94.4955 269.826 94.4934 269.749 94.4907 269.647C94.4854 269.443 94.4781 269.137 94.4702 268.735C94.4544 267.931 94.436 266.743 94.4263 265.211C94.4068 262.148 94.4217 257.711 94.5594 252.228C94.8349 241.258 95.6018 226.11 97.5662 209.39C101.505 175.865 110.226 136.348 129.194 111.408L126.806 109.592C107.311 135.224 98.5321 175.458 94.5866 209.04C92.6089 225.873 91.8375 241.117 91.5604 252.152C91.4218 257.671 91.4067 262.139 91.4264 265.23C91.4362 266.776 91.4547 267.977 91.4708 268.794C91.4788 269.202 91.4863 269.514 91.4917 269.725C91.4945 269.83 91.4967 269.91 91.4983 269.964C91.499 269.991 91.4997 270.012 91.5001 270.026C91.5003 270.033 91.5005 270.038 91.5006 270.042C91.5006 270.043 91.5007 270.045 91.5007 270.046C91.5007 270.047 91.5008 270.048 93 270ZM129.194 111.408C138.129 99.6599 151.525 90.4398 166.714 83.2281C181.891 76.0219 198.763 70.8656 214.542 67.1954C230.314 63.5265 244.956 61.3511 255.657 60.0933C261.006 59.4645 265.367 59.0654 268.388 58.8236C269.898 58.7027 271.073 58.6212 271.869 58.5699C272.267 58.5443 272.57 58.5263 272.773 58.5147C272.875 58.5089 272.951 58.5047 273.002 58.502C273.027 58.5006 273.046 58.4996 273.058 58.499C273.064 58.4987 273.069 58.4984 273.072 58.4983C273.073 58.4982 273.074 58.4982 273.075 58.4981C273.075 58.4981 273.075 58.4981 273 57C272.925 55.5019 272.924 55.5019 272.923 55.502C272.922 55.502 272.92 55.5021 272.918 55.5022C272.915 55.5024 272.909 55.5027 272.902 55.503C272.888 55.5038 272.868 55.5048 272.841 55.5063C272.787 55.5092 272.707 55.5136 272.602 55.5196C272.392 55.5316 272.082 55.55 271.677 55.5761C270.866 55.6283 269.675 55.711 268.148 55.8332C265.095 56.0775 260.697 56.4802 255.307 57.1138C244.529 58.3807 229.772 60.5726 213.862 64.2734C197.957 67.973 180.863 73.1892 165.427 80.5181C150.003 87.8415 136.14 97.3193 126.806 109.592L129.194 111.408Z" fill="#AFAF3F"/>
<path d="M251.819 71.312C251.819 70.7898 251.259 70.4541 250.812 70.4541C249.73 70.4541 246.075 71.2747 243.986 71.7968C242.606 72.1325 240.742 72.7293 238.765 73.4006C238.728 71.312 238.728 69.5217 238.728 68.9623C238.69 67.6942 238.429 67.0601 237.758 67.0601C237.609 67.0601 237.422 67.0974 237.236 67.172C236.937 67.2839 236.639 68.2909 236.639 68.925C236.676 69.2606 236.713 71.4985 236.788 74.0347C233.319 75.2282 230 76.459 229.888 76.7201C229.776 76.8692 229.739 77.0557 229.739 77.2049C229.739 77.8017 230.336 78.3238 230.671 78.3238C230.709 78.3238 230.783 78.3238 230.821 78.2865C231.007 78.1 233.804 77.0557 236.825 76.0114C236.9 78.0627 236.937 80.1141 236.937 81.3076V82.3892C236.937 83.1724 237.236 83.8811 238.093 83.8811C238.839 83.8811 238.951 82.9487 238.951 82.5011V82.3519C238.951 82.0908 238.877 78.6595 238.839 75.3401C241.04 74.5941 243.166 73.8855 244.583 73.5125C247.306 72.7666 249.245 72.3563 249.991 72.3563C250.29 72.3563 250.476 72.4309 250.663 72.4309C251.483 72.4309 251.819 71.8341 251.819 71.5358V71.312Z" fill="#AFAF3F"/>
<path d="M344.5 175L343.004 175.108L344.5 175ZM352.221 86.129C351.74 85.4546 350.803 85.2978 350.129 85.7788L339.138 93.618C338.464 94.099 338.307 95.0358 338.788 95.7102C339.269 96.3847 340.206 96.5414 340.88 96.0604L350.65 89.0922L357.618 98.8618C358.099 99.5363 359.036 99.6931 359.71 99.212C360.385 98.731 360.541 97.7942 360.06 97.1198L352.221 86.129ZM362 257C363.434 256.56 363.434 256.56 363.434 256.559C363.434 256.559 363.434 256.559 363.433 256.558C363.433 256.557 363.432 256.554 363.431 256.552C363.43 256.546 363.427 256.537 363.423 256.526C363.416 256.502 363.406 256.467 363.391 256.421C363.363 256.327 363.321 256.188 363.265 256.004C363.155 255.637 362.991 255.094 362.783 254.39C362.365 252.982 361.766 250.933 361.04 248.371C359.586 243.247 357.624 236.075 355.588 227.885C351.511 211.483 347.163 191.087 345.996 174.892L343.004 175.108C344.19 191.573 348.592 212.177 352.677 228.609C354.722 236.837 356.693 244.042 358.153 249.19C358.884 251.764 359.486 253.824 359.906 255.242C360.117 255.951 360.281 256.5 360.393 256.871C360.449 257.057 360.492 257.199 360.522 257.294C360.536 257.342 360.547 257.378 360.555 257.403C360.558 257.415 360.561 257.424 360.563 257.43C360.564 257.434 360.565 257.436 360.565 257.438C360.566 257.438 360.566 257.439 360.566 257.439C360.566 257.44 360.566 257.44 362 257ZM345.996 174.892C344.768 157.849 346.38 135.962 348.313 118.274C349.278 109.443 350.32 101.683 351.121 96.1308C351.521 93.3551 351.861 91.1321 352.101 89.604C352.221 88.84 352.316 88.2498 352.38 87.8511C352.413 87.6518 352.438 87.5003 352.454 87.399C352.463 87.3483 352.469 87.3102 352.473 87.2849C352.475 87.2722 352.477 87.2628 352.478 87.2566C352.478 87.2534 352.479 87.2511 352.479 87.2497C352.479 87.2489 352.479 87.2484 352.479 87.248C352.479 87.2477 352.479 87.2476 351 87C349.521 86.7524 349.521 86.7527 349.52 86.7532C349.52 86.7537 349.52 86.7544 349.52 86.7553C349.52 86.7571 349.519 86.7597 349.519 86.7631C349.518 86.7699 349.516 86.7799 349.514 86.7932C349.509 86.8196 349.503 86.859 349.494 86.9108C349.477 87.0145 349.452 87.1684 349.419 87.3703C349.354 87.774 349.258 88.3695 349.137 89.139C348.896 90.6781 348.554 92.9134 348.152 95.7025C347.347 101.28 346.3 109.075 345.33 117.948C343.394 135.668 341.756 157.78 343.004 175.108L345.996 174.892Z" fill="#AFAF3F"/>
<path d="M240.899 233L241.932 231.912L240.899 233ZM207.846 183.568C207.055 183.321 206.214 183.763 205.967 184.554L201.949 197.442C201.702 198.233 202.144 199.074 202.934 199.32C203.725 199.567 204.566 199.125 204.813 198.335L208.385 186.878L219.841 190.45C220.632 190.697 221.473 190.256 221.719 189.465C221.966 188.674 221.525 187.833 220.734 187.586L207.846 183.568ZM293.399 265C294.004 263.627 294.004 263.627 294.004 263.627C294.004 263.627 294.003 263.627 294.003 263.627C294.002 263.627 294.001 263.626 293.999 263.625C293.995 263.623 293.989 263.621 293.981 263.617C293.965 263.61 293.94 263.599 293.908 263.585C293.842 263.556 293.744 263.512 293.615 263.454C293.357 263.338 292.975 263.165 292.482 262.939C291.496 262.488 290.065 261.823 288.293 260.973C284.748 259.272 279.841 256.834 274.393 253.882C263.464 247.959 250.486 240.036 241.932 231.912L239.866 234.088C248.723 242.499 261.995 250.575 272.963 256.519C278.464 259.5 283.417 261.961 286.996 263.678C288.785 264.536 290.232 265.208 291.233 265.667C291.733 265.896 292.122 266.072 292.386 266.191C292.519 266.25 292.62 266.295 292.688 266.326C292.723 266.341 292.749 266.352 292.766 266.36C292.775 266.364 292.782 266.367 292.787 266.369C292.789 266.37 292.791 266.371 292.792 266.372C292.793 266.372 292.793 266.372 292.793 266.372C292.794 266.372 292.794 266.373 293.399 265ZM241.932 231.912C233.788 224.178 225.495 212.313 219.203 202.299C216.067 197.307 213.446 192.804 211.609 189.549C210.691 187.922 209.969 186.608 209.477 185.702C209.231 185.249 209.043 184.898 208.917 184.66C208.854 184.542 208.806 184.452 208.774 184.392C208.758 184.362 208.746 184.339 208.739 184.324C208.735 184.317 208.732 184.311 208.73 184.308C208.729 184.306 208.728 184.305 208.728 184.304C208.728 184.304 208.728 184.303 208.727 184.303C208.727 184.303 208.727 184.303 207.399 185C206.071 185.697 206.071 185.697 206.071 185.698C206.071 185.698 206.072 185.698 206.072 185.699C206.072 185.7 206.073 185.702 206.074 185.704C206.077 185.708 206.08 185.714 206.084 185.722C206.093 185.739 206.105 185.763 206.122 185.794C206.155 185.857 206.205 185.95 206.27 186.072C206.399 186.315 206.591 186.672 206.84 187.132C207.339 188.052 208.069 189.381 208.996 191.024C210.851 194.309 213.496 198.854 216.663 203.895C222.978 213.945 231.435 226.08 239.866 234.088L241.932 231.912Z" fill="#AFAF3F"/>
<path d="M262.819 206.312C262.819 205.79 262.259 205.454 261.812 205.454C260.73 205.454 257.075 206.275 254.986 206.797C253.606 207.133 251.742 207.729 249.765 208.401C249.728 206.312 249.728 204.522 249.728 203.962C249.69 202.694 249.429 202.06 248.758 202.06C248.609 202.06 248.422 202.097 248.236 202.172C247.937 202.284 247.639 203.291 247.639 203.925C247.676 204.261 247.713 206.498 247.788 209.035C244.319 210.228 241 211.459 240.888 211.72C240.776 211.869 240.739 212.056 240.739 212.205C240.739 212.802 241.336 213.324 241.671 213.324C241.709 213.324 241.783 213.324 241.821 213.287C242.007 213.1 244.804 212.056 247.825 211.011C247.9 213.063 247.937 215.114 247.937 216.308V217.389C247.937 218.172 248.236 218.881 249.093 218.881C249.839 218.881 249.951 217.949 249.951 217.501V217.352C249.951 217.091 249.877 213.659 249.839 210.34C252.04 209.594 254.166 208.885 255.583 208.513C258.306 207.767 260.245 207.356 260.991 207.356C261.29 207.356 261.476 207.431 261.663 207.431C262.483 207.431 262.819 206.834 262.819 206.536V206.312Z" fill="#AFAF3F"/>
<path d="M136 220L134.592 219.482L134.592 219.482L136 220ZM154.494 192.861C154.417 192.036 153.686 191.43 152.861 191.506L139.419 192.758C138.594 192.835 137.988 193.566 138.065 194.391C138.141 195.216 138.872 195.822 139.697 195.746L151.646 194.633L152.758 206.581C152.835 207.406 153.566 208.012 154.391 207.935C155.216 207.858 155.822 207.128 155.746 206.303L154.494 192.861ZM136 273C137.467 272.688 137.467 272.688 137.467 272.688C137.467 272.688 137.467 272.687 137.467 272.687C137.467 272.686 137.467 272.685 137.466 272.683C137.465 272.68 137.464 272.674 137.463 272.667C137.46 272.652 137.455 272.629 137.448 272.598C137.436 272.537 137.417 272.444 137.392 272.321C137.342 272.076 137.27 271.712 137.181 271.24C137.001 270.295 136.753 268.922 136.476 267.211C135.922 263.788 135.258 259.024 134.815 253.661C133.924 242.869 133.955 229.902 137.408 220.518L134.592 219.482C130.898 229.523 130.929 243.056 131.825 253.908C132.276 259.367 132.951 264.21 133.514 267.69C133.796 269.43 134.049 270.831 134.233 271.799C134.325 272.283 134.399 272.659 134.451 272.915C134.477 273.043 134.497 273.141 134.511 273.208C134.518 273.241 134.523 273.267 134.527 273.284C134.529 273.293 134.53 273.3 134.531 273.304C134.532 273.307 134.532 273.308 134.532 273.31C134.532 273.31 134.533 273.311 134.533 273.311C134.533 273.312 134.533 273.312 136 273ZM137.408 220.518C139.488 214.864 143.641 208.247 147.341 202.977C149.18 200.357 150.887 198.098 152.133 196.495C152.756 195.694 153.263 195.057 153.614 194.622C153.789 194.404 153.925 194.237 154.017 194.125C154.063 194.068 154.098 194.026 154.121 193.998C154.133 193.984 154.141 193.974 154.147 193.967C154.15 193.964 154.152 193.961 154.153 193.96C154.154 193.959 154.154 193.958 154.154 193.958C154.154 193.958 154.154 193.958 154.154 193.958C154.154 193.958 154.154 193.958 153 193C151.846 192.042 151.845 192.042 151.845 192.043C151.845 192.043 151.845 192.043 151.845 192.043C151.844 192.044 151.843 192.045 151.842 192.046C151.841 192.048 151.838 192.051 151.835 192.055C151.828 192.063 151.818 192.075 151.806 192.09C151.781 192.121 151.744 192.166 151.695 192.225C151.599 192.343 151.458 192.516 151.278 192.739C150.917 193.187 150.399 193.837 149.765 194.654C148.496 196.286 146.759 198.584 144.886 201.253C141.161 206.559 136.814 213.442 134.592 219.482L137.408 220.518Z" fill="#AFAF3F"/>
<path d="M168.819 216.312C168.819 215.79 168.259 215.454 167.812 215.454C166.73 215.454 163.075 216.275 160.986 216.797C159.606 217.133 157.742 217.729 155.765 218.401C155.728 216.312 155.728 214.522 155.728 213.962C155.69 212.694 155.429 212.06 154.758 212.06C154.609 212.06 154.422 212.097 154.236 212.172C153.937 212.284 153.639 213.291 153.639 213.925C153.676 214.261 153.713 216.498 153.788 219.035C150.319 220.228 147 221.459 146.888 221.72C146.776 221.869 146.739 222.056 146.739 222.205C146.739 222.802 147.336 223.324 147.671 223.324C147.709 223.324 147.783 223.324 147.821 223.287C148.007 223.1 150.804 222.056 153.825 221.011C153.9 223.063 153.937 225.114 153.937 226.308V227.389C153.937 228.172 154.236 228.881 155.093 228.881C155.839 228.881 155.951 227.949 155.951 227.501V227.352C155.951 227.091 155.877 223.659 155.839 220.34C158.04 219.594 160.166 218.885 161.583 218.513C164.306 217.767 166.245 217.356 166.991 217.356C167.29 217.356 167.476 217.431 167.663 217.431C168.483 217.431 168.819 216.834 168.819 216.536V216.312Z" fill="#AFAF3F"/>
<path d="M237 382.5L237.842 381.258L237 382.5ZM181.288 319.528C180.475 319.369 179.687 319.899 179.528 320.712L176.936 333.961C176.777 334.774 177.307 335.562 178.12 335.721C178.933 335.88 179.721 335.35 179.881 334.537L182.184 322.76L193.961 325.064C194.774 325.223 195.562 324.693 195.721 323.88C195.88 323.067 195.35 322.279 194.537 322.119L181.288 319.528ZM317 412C317.303 410.531 317.303 410.531 317.303 410.531C317.302 410.531 317.302 410.531 317.301 410.531C317.3 410.53 317.298 410.53 317.295 410.529C317.289 410.528 317.28 410.526 317.268 410.524C317.243 410.518 317.206 410.511 317.157 410.5C317.059 410.48 316.912 410.449 316.719 410.407C316.332 410.324 315.759 410.2 315.02 410.035C313.541 409.705 311.395 409.211 308.732 408.561C303.405 407.26 296.017 405.332 287.773 402.822C271.241 397.79 251.425 390.467 237.842 381.258L236.158 383.742C250.137 393.218 270.321 400.645 286.899 405.692C295.209 408.221 302.653 410.165 308.02 411.475C310.704 412.131 312.87 412.629 314.366 412.963C315.114 413.13 315.695 413.256 316.09 413.341C316.287 413.383 316.438 413.415 316.54 413.436C316.591 413.447 316.63 413.455 316.656 413.461C316.669 413.463 316.679 413.465 316.686 413.467C316.69 413.468 316.692 413.468 316.694 413.468C316.695 413.469 316.696 413.469 316.696 413.469C316.697 413.469 316.697 413.469 317 412ZM237.842 381.258C224.591 372.276 210.706 357.047 200.082 343.969C194.783 337.447 190.321 331.491 187.183 327.165C185.615 325.003 184.378 323.25 183.535 322.038C183.113 321.432 182.789 320.962 182.572 320.644C182.463 320.485 182.381 320.364 182.326 320.283C182.298 320.242 182.278 320.212 182.264 320.192C182.257 320.182 182.252 320.174 182.249 320.169C182.247 320.167 182.246 320.165 182.246 320.164C182.245 320.164 182.245 320.163 182.245 320.163C182.245 320.163 182.245 320.163 181 321C179.755 321.837 179.756 321.838 179.756 321.838C179.756 321.838 179.757 321.839 179.757 321.84C179.758 321.841 179.76 321.844 179.762 321.846C179.765 321.852 179.771 321.86 179.778 321.871C179.793 321.893 179.814 321.925 179.843 321.967C179.9 322.051 179.984 322.175 180.095 322.337C180.317 322.662 180.646 323.139 181.072 323.752C181.926 324.978 183.174 326.748 184.755 328.927C187.916 333.285 192.413 339.286 197.753 345.861C208.408 358.976 222.523 374.498 236.158 383.742L237.842 381.258Z" fill="#AFAF3F"/>
<path d="M223.819 327.312C223.819 326.79 223.259 326.454 222.812 326.454C221.73 326.454 218.075 327.275 215.986 327.797C214.606 328.133 212.742 328.729 210.765 329.401C210.728 327.312 210.728 325.522 210.728 324.962C210.69 323.694 210.429 323.06 209.758 323.06C209.609 323.06 209.422 323.097 209.236 323.172C208.937 323.284 208.639 324.291 208.639 324.925C208.676 325.261 208.713 327.498 208.788 330.035C205.319 331.228 202 332.459 201.888 332.72C201.776 332.869 201.739 333.056 201.739 333.205C201.739 333.802 202.336 334.324 202.671 334.324C202.709 334.324 202.783 334.324 202.821 334.287C203.007 334.1 205.804 333.056 208.825 332.011C208.9 334.063 208.937 336.114 208.937 337.308V338.389C208.937 339.172 209.236 339.881 210.093 339.881C210.839 339.881 210.951 338.949 210.951 338.501V338.352C210.951 338.091 210.877 334.659 210.839 331.34C213.04 330.594 215.166 329.885 216.583 329.513C219.306 328.767 221.245 328.356 221.991 328.356C222.29 328.356 222.476 328.431 222.663 328.431C223.483 328.431 223.819 327.834 223.819 327.536V327.312Z" fill="#AFAF3F"/>
<path d="M311.5 349L312.865 348.379L311.5 349ZM305.068 300.946C304.486 300.357 303.536 300.35 302.946 300.932L293.337 310.415C292.748 310.997 292.741 311.946 293.323 312.536C293.905 313.126 294.855 313.132 295.445 312.55L303.986 304.121L312.415 312.663C312.997 313.252 313.946 313.259 314.536 312.677C315.126 312.095 315.132 311.145 314.55 310.555L305.068 300.946ZM355 393C355.824 391.746 355.824 391.746 355.824 391.746C355.824 391.746 355.823 391.746 355.823 391.746C355.822 391.745 355.821 391.745 355.819 391.743C355.816 391.741 355.81 391.737 355.803 391.733C355.788 391.723 355.765 391.707 355.734 391.687C355.672 391.646 355.58 391.584 355.458 391.503C355.215 391.339 354.855 391.095 354.393 390.776C353.467 390.139 352.131 389.201 350.495 388.006C347.222 385.616 342.755 382.202 337.98 378.108C328.379 369.877 317.725 359.056 312.865 348.379L310.135 349.621C315.284 360.936 326.38 372.115 336.027 380.386C340.876 384.543 345.407 388.005 348.726 390.429C350.386 391.641 351.745 392.595 352.69 393.246C353.163 393.572 353.532 393.823 353.785 393.992C353.911 394.077 354.008 394.142 354.073 394.186C354.106 394.207 354.132 394.224 354.149 394.235C354.157 394.241 354.164 394.245 354.169 394.249C354.171 394.25 354.173 394.251 354.174 394.252C354.175 394.252 354.175 394.253 354.176 394.253C354.176 394.253 354.176 394.254 355 393ZM312.865 348.379C309.125 340.161 307.266 328.624 306.356 319.015C305.903 314.235 305.689 309.977 305.588 306.915C305.538 305.385 305.516 304.155 305.506 303.309C305.502 302.886 305.5 302.559 305.5 302.339C305.499 302.229 305.5 302.146 305.5 302.091C305.5 302.063 305.5 302.042 305.5 302.029C305.5 302.022 305.5 302.017 305.5 302.014C305.5 302.012 305.5 302.011 305.5 302.011C305.5 302.01 305.5 302.01 305.5 302.01C305.5 302.01 305.5 302.01 304 302C302.5 301.99 302.5 301.99 302.5 301.991C302.5 301.991 302.5 301.992 302.5 301.992C302.5 301.993 302.5 301.995 302.5 301.997C302.5 302.001 302.5 302.007 302.5 302.015C302.5 302.031 302.5 302.053 302.5 302.083C302.5 302.143 302.499 302.23 302.5 302.345C302.5 302.574 302.502 302.91 302.507 303.342C302.516 304.208 302.539 305.46 302.59 307.014C302.692 310.122 302.91 314.442 303.369 319.297C304.285 328.959 306.175 340.921 310.135 349.621L312.865 348.379Z" fill="#AFAF3F"/>
<path d="M349.819 320.312C349.819 319.79 349.259 319.454 348.812 319.454C347.73 319.454 344.075 320.275 341.986 320.797C340.606 321.133 338.742 321.729 336.765 322.401C336.728 320.312 336.728 318.522 336.728 317.962C336.69 316.694 336.429 316.06 335.758 316.06C335.609 316.06 335.422 316.097 335.236 316.172C334.937 316.284 334.639 317.291 334.639 317.925C334.676 318.261 334.713 320.498 334.788 323.035C331.319 324.228 328 325.459 327.888 325.72C327.776 325.869 327.739 326.056 327.739 326.205C327.739 326.802 328.336 327.324 328.671 327.324C328.709 327.324 328.783 327.324 328.821 327.287C329.007 327.1 331.804 326.056 334.825 325.011C334.9 327.063 334.937 329.114 334.937 330.308V331.389C334.937 332.172 335.236 332.881 336.093 332.881C336.839 332.881 336.951 331.949 336.951 331.501V331.352C336.951 331.091 336.877 327.659 336.839 324.34C339.04 323.594 341.166 322.885 342.583 322.513C345.306 321.767 347.245 321.356 347.991 321.356C348.29 321.356 348.476 321.431 348.663 321.431C349.483 321.431 349.819 320.834 349.819 320.536V320.312Z" fill="#AFAF3F"/>
<path d="M484.5 405.5L483.874 404.137L484.5 405.5ZM416.976 413.904C416.371 414.469 416.338 415.418 416.904 416.024L426.12 425.889C426.685 426.494 427.634 426.527 428.24 425.961C428.845 425.396 428.877 424.446 428.312 423.841L420.12 415.072L428.889 406.88C429.495 406.315 429.527 405.366 428.961 404.76C428.396 404.155 427.447 404.123 426.841 404.688L416.976 413.904ZM544 344C542.721 343.216 542.721 343.216 542.721 343.216C542.721 343.217 542.721 343.217 542.72 343.218C542.719 343.219 542.718 343.221 542.717 343.223C542.714 343.228 542.709 343.236 542.702 343.247C542.688 343.269 542.668 343.302 542.641 343.346C542.586 343.434 542.504 343.566 542.395 343.74C542.177 344.086 541.853 344.599 541.428 345.257C540.579 346.574 539.33 348.474 537.736 350.799C534.547 355.45 529.981 361.796 524.473 368.572C513.413 382.179 498.721 397.315 483.874 404.137L485.126 406.863C500.645 399.733 515.703 384.119 526.801 370.464C532.373 363.609 536.988 357.196 540.211 352.496C541.822 350.145 543.087 348.221 543.95 346.883C544.381 346.214 544.712 345.691 544.936 345.335C545.048 345.157 545.133 345.02 545.19 344.927C545.219 344.881 545.241 344.845 545.256 344.821C545.263 344.809 545.269 344.8 545.273 344.794C545.275 344.791 545.276 344.788 545.277 344.787C545.278 344.786 545.278 344.785 545.278 344.785C545.279 344.784 545.279 344.784 544 344ZM483.874 404.137C472.214 409.494 455.818 411.857 442.201 412.861C435.418 413.361 429.374 413.521 425.026 413.556C422.853 413.573 421.105 413.559 419.902 413.541C419.301 413.532 418.836 413.522 418.522 413.514C418.366 413.51 418.247 413.507 418.168 413.504C418.128 413.503 418.098 413.502 418.079 413.502C418.069 413.501 418.062 413.501 418.057 413.501C418.055 413.501 418.053 413.501 418.052 413.501C418.052 413.501 418.051 413.501 418.051 413.501C418.051 413.501 418.051 413.501 418 415C417.949 416.499 417.949 416.499 417.95 416.499C417.95 416.499 417.951 416.499 417.952 416.499C417.953 416.499 417.956 416.499 417.958 416.499C417.964 416.5 417.972 416.5 417.983 416.5C418.005 416.501 418.037 416.502 418.079 416.503C418.162 416.506 418.286 416.509 418.447 416.513C418.77 416.521 419.245 416.531 419.857 416.541C421.08 416.559 422.852 416.573 425.05 416.556C429.447 416.52 435.558 416.359 442.421 415.853C456.094 414.845 472.948 412.458 485.126 406.863L483.874 404.137Z" fill="#AFAF3F"/>
<path d="M458.819 392.312C458.819 391.79 458.259 391.454 457.812 391.454C456.73 391.454 453.075 392.275 450.986 392.797C449.606 393.133 447.742 393.729 445.765 394.401C445.727 392.312 445.727 390.522 445.727 389.962C445.69 388.694 445.429 388.06 444.758 388.06C444.609 388.06 444.422 388.097 444.236 388.172C443.937 388.284 443.639 389.291 443.639 389.925C443.676 390.261 443.713 392.498 443.788 395.035C440.319 396.228 437 397.459 436.888 397.72C436.776 397.869 436.739 398.056 436.739 398.205C436.739 398.802 437.336 399.324 437.671 399.324C437.709 399.324 437.783 399.324 437.821 399.287C438.007 399.1 440.804 398.056 443.825 397.011C443.9 399.063 443.937 401.114 443.937 402.308V403.389C443.937 404.172 444.236 404.881 445.093 404.881C445.839 404.881 445.951 403.949 445.951 403.501V403.352C445.951 403.091 445.877 399.659 445.839 396.34C448.04 395.594 450.166 394.885 451.583 394.513C454.306 393.767 456.245 393.356 456.991 393.356C457.29 393.356 457.476 393.431 457.663 393.431C458.483 393.431 458.819 392.834 458.819 392.536V392.312Z" fill="#AFAF3F"/>
<path d="M585.5 237L586.994 237.129L585.5 237ZM567.654 306.661C568.019 307.405 568.918 307.712 569.661 307.346L581.778 301.394C582.522 301.029 582.828 300.13 582.463 299.386C582.098 298.643 581.199 298.336 580.455 298.701L569.685 303.992L564.394 293.222C564.028 292.478 563.13 292.172 562.386 292.537C561.643 292.902 561.336 293.801 561.701 294.545L567.654 306.661ZM581 166C579.519 166.235 579.519 166.236 579.519 166.236C579.519 166.236 579.519 166.236 579.519 166.237C579.519 166.238 579.519 166.24 579.52 166.242C579.52 166.247 579.522 166.255 579.523 166.265C579.526 166.285 579.531 166.316 579.538 166.357C579.55 166.439 579.569 166.561 579.594 166.721C579.644 167.043 579.716 167.519 579.807 168.135C579.99 169.368 580.249 171.162 580.552 173.402C581.158 177.883 581.942 184.145 582.651 191.269C584.073 205.542 585.185 223.177 584.005 236.871L586.994 237.129C588.199 223.143 587.061 205.278 585.637 190.971C584.923 183.805 584.135 177.507 583.525 173C583.22 170.746 582.959 168.94 582.775 167.696C582.683 167.073 582.609 166.592 582.559 166.265C582.534 166.102 582.515 165.977 582.502 165.893C582.495 165.851 582.49 165.819 582.487 165.798C582.485 165.787 582.484 165.779 582.483 165.773C582.482 165.771 582.482 165.768 582.482 165.767C582.482 165.766 582.482 165.766 582.481 165.765C582.481 165.765 582.481 165.765 581 166ZM584.005 236.871C582.829 250.528 578.736 267.667 574.913 281.45C573.005 288.33 571.17 294.349 569.813 298.649C569.135 300.799 568.576 302.517 568.187 303.698C567.992 304.288 567.84 304.744 567.737 305.051C567.685 305.205 567.646 305.322 567.62 305.4C567.606 305.439 567.597 305.468 567.59 305.487C567.587 305.497 567.584 305.504 567.583 305.509C567.582 305.511 567.581 305.513 567.581 305.514C567.581 305.515 567.58 305.515 567.58 305.515C567.58 305.516 567.58 305.516 569 306C570.42 306.484 570.42 306.484 570.42 306.484C570.42 306.483 570.42 306.483 570.42 306.482C570.421 306.481 570.422 306.479 570.422 306.476C570.424 306.471 570.427 306.463 570.43 306.453C570.437 306.432 570.448 306.401 570.461 306.361C570.489 306.281 570.529 306.162 570.581 306.006C570.686 305.693 570.84 305.232 571.036 304.637C571.429 303.446 571.991 301.715 572.674 299.552C574.039 295.227 575.884 289.173 577.804 282.252C581.636 268.437 585.793 251.076 586.994 237.129L584.005 236.871Z" fill="#AFAF3F"/>
<path d="M568.819 272.312C568.819 271.79 568.259 271.454 567.812 271.454C566.73 271.454 563.075 272.275 560.986 272.797C559.606 273.133 557.742 273.729 555.765 274.401C555.728 272.312 555.728 270.522 555.728 269.962C555.69 268.694 555.429 268.06 554.758 268.06C554.609 268.06 554.422 268.097 554.236 268.172C553.937 268.284 553.639 269.291 553.639 269.925C553.676 270.261 553.713 272.498 553.788 275.035C550.319 276.228 547 277.459 546.888 277.72C546.776 277.869 546.739 278.056 546.739 278.205C546.739 278.802 547.336 279.324 547.671 279.324C547.709 279.324 547.783 279.324 547.821 279.287C548.007 279.1 550.804 278.056 553.825 277.011C553.9 279.063 553.937 281.114 553.937 282.308V283.389C553.937 284.172 554.236 284.881 555.093 284.881C555.839 284.881 555.951 283.949 555.951 283.501V283.352C555.951 283.091 555.877 279.659 555.839 276.34C558.04 275.594 560.166 274.885 561.583 274.513C564.306 273.767 566.245 273.356 566.991 273.356C567.29 273.356 567.476 273.431 567.663 273.431C568.483 273.431 568.819 272.834 568.819 272.536V272.312Z" fill="#AFAF3F"/>
<path d="M518.5 77.5L519.118 76.1332L518.5 77.5ZM568.682 129.466C569.491 129.642 570.29 129.128 570.466 128.318L573.332 115.126C573.508 114.317 572.994 113.518 572.185 113.342C571.375 113.166 570.576 113.68 570.4 114.489L567.853 126.216L556.126 123.668C555.317 123.492 554.518 124.006 554.342 124.815C554.166 125.625 554.68 126.424 555.489 126.6L568.682 129.466ZM444 74C444.262 75.477 444.262 75.477 444.262 75.477C444.262 75.4769 444.262 75.4769 444.263 75.4768C444.264 75.4766 444.266 75.4763 444.269 75.4758C444.274 75.4749 444.282 75.4735 444.293 75.4716C444.314 75.4678 444.348 75.462 444.392 75.4544C444.481 75.4391 444.614 75.4165 444.79 75.3873C445.142 75.3289 445.665 75.2445 446.34 75.141C447.691 74.934 449.653 74.651 452.093 74.3483C456.974 73.7428 463.756 73.0599 471.359 72.7497C486.636 72.1262 504.954 73.0228 517.882 78.8668L519.118 76.1332C505.505 69.9796 486.574 69.1262 471.236 69.7521C463.531 70.0666 456.665 70.7582 451.724 71.3711C449.253 71.6777 447.261 71.9648 445.885 72.1756C445.197 72.2811 444.663 72.3674 444.3 72.4277C444.118 72.4578 443.979 72.4814 443.885 72.4976C443.838 72.5057 443.802 72.5119 443.777 72.5162C443.765 72.5183 443.756 72.52 443.749 72.5211C443.746 72.5217 443.743 72.5221 443.742 72.5225C443.741 72.5226 443.74 72.5227 443.739 72.5228C443.739 72.5229 443.738 72.523 444 74ZM517.882 78.8668C530.263 84.4635 542.706 96.8601 552.134 108.026C556.827 113.583 560.732 118.785 563.464 122.599C564.829 124.505 565.901 126.062 566.629 127.141C566.994 127.68 567.272 128.1 567.459 128.384C567.553 128.526 567.623 128.634 567.67 128.706C567.693 128.742 567.711 128.769 567.722 128.786C567.728 128.795 567.732 128.802 567.735 128.806C567.736 128.808 567.737 128.809 567.738 128.81C567.738 128.811 567.738 128.811 567.738 128.811C567.738 128.811 567.738 128.811 569 128C570.262 127.189 570.261 127.188 570.261 127.188C570.261 127.188 570.261 127.187 570.26 127.186C570.259 127.185 570.258 127.183 570.256 127.18C570.253 127.175 570.248 127.167 570.241 127.157C570.228 127.137 570.21 127.108 570.185 127.07C570.135 126.993 570.062 126.881 569.965 126.734C569.772 126.441 569.487 126.011 569.116 125.462C568.373 124.362 567.286 122.782 565.903 120.851C563.137 116.991 559.182 111.723 554.426 106.09C544.959 94.8784 532.152 82.0251 519.118 76.1332L517.882 78.8668Z" fill="#AFAF3F"/>
<path d="M543.819 104.312C543.819 103.79 543.259 103.454 542.812 103.454C541.73 103.454 538.075 104.275 535.986 104.797C534.606 105.133 532.742 105.729 530.765 106.401C530.728 104.312 530.728 102.522 530.728 101.962C530.69 100.694 530.429 100.06 529.758 100.06C529.609 100.06 529.422 100.097 529.236 100.172C528.937 100.284 528.639 101.291 528.639 101.925C528.676 102.261 528.713 104.498 528.788 107.035C525.319 108.228 522 109.459 521.888 109.72C521.776 109.869 521.739 110.056 521.739 110.205C521.739 110.802 522.336 111.324 522.671 111.324C522.709 111.324 522.783 111.324 522.821 111.287C523.007 111.1 525.804 110.056 528.825 109.011C528.9 111.063 528.937 113.114 528.937 114.308V115.389C528.937 116.172 529.236 116.881 530.093 116.881C530.839 116.881 530.951 115.949 530.951 115.501V115.352C530.951 115.091 530.877 111.659 530.839 108.34C533.04 107.594 535.166 106.885 536.583 106.513C539.306 105.767 541.245 105.356 541.991 105.356C542.29 105.356 542.476 105.431 542.663 105.431C543.483 105.431 543.819 104.834 543.819 104.536V104.312Z" fill="#AFAF3F"/>
<path d="M476.5 219L475.536 217.851L476.5 219ZM405.065 263.565C404.824 264.357 405.272 265.195 406.065 265.435L418.984 269.353C419.776 269.594 420.614 269.146 420.854 268.353C421.095 267.56 420.647 266.723 419.854 266.482L408.371 263L411.853 251.516C412.094 250.724 411.646 249.886 410.853 249.646C410.06 249.405 409.223 249.853 408.982 250.646L405.065 263.565ZM530 162C528.832 161.059 528.832 161.059 528.832 161.059C528.831 161.06 528.831 161.06 528.831 161.06C528.83 161.061 528.829 161.063 528.827 161.065C528.823 161.07 528.818 161.076 528.811 161.085C528.797 161.103 528.775 161.129 528.747 161.164C528.69 161.235 528.604 161.34 528.492 161.479C528.267 161.756 527.933 162.165 527.5 162.694C526.634 163.75 525.37 165.283 523.779 167.184C520.598 170.987 516.112 176.261 510.898 182.147C500.455 193.934 487.141 208.115 475.536 217.851L477.464 220.149C489.247 210.263 502.683 195.944 513.143 184.136C518.38 178.225 522.885 172.928 526.08 169.109C527.678 167.2 528.949 165.659 529.821 164.595C530.257 164.063 530.593 163.65 530.82 163.37C530.934 163.23 531.021 163.123 531.079 163.051C531.108 163.015 531.13 162.988 531.145 162.969C531.153 162.96 531.158 162.953 531.162 162.948C531.164 162.946 531.166 162.944 531.167 162.943C531.167 162.942 531.167 162.942 531.168 162.942C531.168 162.941 531.168 162.941 530 162ZM475.536 217.851C463.183 228.215 445.767 239.415 431.392 248.047C424.213 252.357 417.811 256.016 413.203 258.597C410.9 259.888 409.045 260.909 407.768 261.607C407.129 261.956 406.634 262.224 406.3 262.404C406.133 262.495 406.005 262.563 405.92 262.609C405.878 262.632 405.846 262.649 405.824 262.66C405.814 262.666 405.806 262.67 405.8 262.673C405.798 262.674 405.796 262.676 405.795 262.676C405.794 262.677 405.793 262.677 405.793 262.677C405.793 262.677 405.793 262.677 406.5 264C407.207 265.323 407.207 265.323 407.208 265.322C407.208 265.322 407.209 265.322 407.21 265.322C407.211 265.321 407.213 265.32 407.216 265.318C407.222 265.315 407.23 265.31 407.241 265.305C407.264 265.293 407.297 265.275 407.34 265.252C407.427 265.205 407.556 265.135 407.725 265.044C408.064 264.861 408.563 264.591 409.206 264.24C410.492 263.537 412.356 262.511 414.67 261.215C419.297 258.622 425.726 254.948 432.936 250.619C447.336 241.972 464.921 230.673 477.464 220.149L475.536 217.851Z" fill="#AFAF3F"/>
<path d="M423.819 227.312C423.819 226.79 423.259 226.454 422.812 226.454C421.73 226.454 418.075 227.275 415.986 227.797C414.606 228.133 412.742 228.729 410.765 229.401C410.728 227.312 410.728 225.522 410.728 224.962C410.69 223.694 410.429 223.06 409.758 223.06C409.609 223.06 409.422 223.097 409.236 223.172C408.937 223.284 408.639 224.291 408.639 224.925C408.676 225.261 408.713 227.498 408.788 230.035C405.319 231.228 402 232.459 401.888 232.72C401.776 232.869 401.739 233.056 401.739 233.205C401.739 233.802 402.336 234.324 402.671 234.324C402.709 234.324 402.783 234.324 402.821 234.287C403.007 234.1 405.804 233.056 408.825 232.011C408.9 234.063 408.937 236.114 408.937 237.308V238.389C408.937 239.172 409.236 239.881 410.093 239.881C410.839 239.881 410.951 238.949 410.951 238.501V238.352C410.951 238.091 410.877 234.659 410.839 231.34C413.04 230.594 415.166 229.885 416.583 229.513C419.306 228.767 421.245 228.356 421.991 228.356C422.29 228.356 422.476 228.431 422.663 228.431C423.483 228.431 423.819 227.834 423.819 227.536V227.312Z" fill="#AFAF3F"/>
<path d="M202.5 312L202.324 313.49L202.324 313.49L202.5 312ZM270.811 299.729C271.214 299.006 270.953 298.092 270.229 297.689L258.433 291.124C257.71 290.721 256.796 290.981 256.393 291.705C255.99 292.429 256.251 293.342 256.974 293.745L267.46 299.581L261.624 310.067C261.221 310.79 261.481 311.704 262.205 312.107C262.929 312.51 263.842 312.249 264.245 311.525L270.811 299.729ZM157.5 299C157 300.414 157 300.414 157 300.414C157 300.414 157.001 300.414 157.001 300.415C157.002 300.415 157.004 300.416 157.006 300.416C157.01 300.418 157.016 300.42 157.024 300.423C157.04 300.428 157.064 300.437 157.095 300.448C157.158 300.47 157.251 300.503 157.372 300.545C157.615 300.631 157.973 300.756 158.432 300.915C159.351 301.235 160.676 301.692 162.304 302.245C165.56 303.352 170.033 304.843 174.896 306.381C184.563 309.437 195.954 312.737 202.324 313.49L202.676 310.51C196.64 309.797 185.531 306.597 175.8 303.52C170.963 301.991 166.512 300.507 163.269 299.405C161.648 298.854 160.33 298.399 159.417 298.082C158.961 297.923 158.606 297.799 158.366 297.714C158.246 297.672 158.154 297.64 158.092 297.618C158.062 297.608 158.039 297.599 158.023 297.594C158.015 297.591 158.01 297.589 158.006 297.588C158.004 297.587 158.003 297.587 158.002 297.586C158.001 297.586 158.001 297.586 158.001 297.586C158 297.586 158 297.586 157.5 299ZM202.324 313.49C206.332 313.963 212.598 313.336 219.581 312.202C226.618 311.059 234.558 309.37 242.005 307.63C249.455 305.889 256.43 304.092 261.541 302.732C264.097 302.051 266.188 301.479 267.641 301.077C268.367 300.876 268.934 300.718 269.319 300.61C269.512 300.555 269.66 300.514 269.759 300.486C269.809 300.472 269.847 300.461 269.872 300.454C269.885 300.45 269.894 300.447 269.901 300.445C269.904 300.445 269.907 300.444 269.908 300.443C269.909 300.443 269.91 300.443 269.91 300.443C269.911 300.443 269.911 300.443 269.5 299C269.089 297.557 269.089 297.557 269.089 297.557C269.088 297.558 269.088 297.558 269.087 297.558C269.086 297.558 269.083 297.559 269.08 297.56C269.074 297.562 269.065 297.564 269.053 297.568C269.028 297.575 268.991 297.585 268.942 297.599C268.844 297.627 268.699 297.668 268.508 297.721C268.126 297.829 267.563 297.986 266.841 298.186C265.396 298.586 263.315 299.155 260.769 299.833C255.678 301.188 248.734 302.976 241.322 304.708C233.907 306.441 226.041 308.114 219.1 309.241C212.104 310.377 206.219 310.929 202.676 310.51L202.324 313.49Z" fill="#AFAF3F"/>
<path d="M249.819 287.312C249.819 286.79 249.259 286.454 248.812 286.454C247.73 286.454 244.075 287.275 241.986 287.797C240.606 288.133 238.742 288.729 236.765 289.401C236.728 287.312 236.728 285.522 236.728 284.962C236.69 283.694 236.429 283.06 235.758 283.06C235.609 283.06 235.422 283.097 235.236 283.172C234.937 283.284 234.639 284.291 234.639 284.925C234.676 285.261 234.713 287.498 234.788 290.035C231.319 291.228 228 292.459 227.888 292.72C227.776 292.869 227.739 293.056 227.739 293.205C227.739 293.802 228.336 294.324 228.671 294.324C228.709 294.324 228.783 294.324 228.821 294.287C229.007 294.1 231.804 293.056 234.825 292.011C234.9 294.063 234.937 296.114 234.937 297.308V298.389C234.937 299.172 235.236 299.881 236.093 299.881C236.839 299.881 236.951 298.949 236.951 298.501V298.352C236.951 298.091 236.877 294.659 236.839 291.34C239.04 290.594 241.166 289.885 242.583 289.513C245.306 288.767 247.245 288.356 247.991 288.356C248.29 288.356 248.476 288.431 248.663 288.431C249.483 288.431 249.819 287.834 249.819 287.536V287.312Z" fill="#AFAF3F"/>
</svg>
