<svg width="654" height="380" viewBox="0 0 654 380" fill="none" xmlns="http://www.w3.org/2000/svg">
<rect width="654" height="380" fill="white"/>
<path opacity="0.2" d="M604.014 5.00874C589.69 5.21345 581.391 12.0535 568.092 15.8163C567.312 17.2886 565.299 16.2839 564.773 18.5182C564.293 20.5574 564 22.1243 564 24.308C564 27.5785 569.322 28.7292 570.912 31.2986C572.005 33.0671 572.504 34.861 573.458 36.6595C577.008 43.3558 583.468 46.4114 591.009 44.3792C597.526 42.6231 601.191 37.8147 608.197 38.2034C610.282 38.3191 614.262 39.6149 616.473 40.1762C622.417 41.6857 628.715 41.4519 634.843 41.2913C642.465 41.0916 644.271 33.8323 642.209 28.5538C640.248 23.5324 638.089 15.7085 634.206 11.7849C631.667 9.21868 627.459 8.80587 624.112 7.75352C617.454 5.66039 611.025 4.90855 604.014 5.00874Z" fill="#005573"/>
<path opacity="0.2" d="M604.014 117.009C589.69 117.213 581.391 124.054 568.092 127.816C567.312 129.289 565.299 128.284 564.773 130.518C564.293 132.557 564 134.124 564 136.308C564 139.578 569.322 140.729 570.912 143.299C572.005 145.067 572.504 146.861 573.458 148.659C577.008 155.356 583.468 158.411 591.009 156.379C597.526 154.623 601.191 149.815 608.197 150.203C610.282 150.319 614.262 151.615 616.473 152.176C622.417 153.686 628.715 153.452 634.843 153.291C642.465 153.092 644.271 145.832 642.209 140.554C640.248 135.532 638.089 127.708 634.206 123.785C631.667 121.219 627.459 120.806 624.112 119.754C617.454 117.66 611.025 116.909 604.014 117.009Z" fill="#005573"/>
<path opacity="0.2" d="M265.014 118.009C250.69 118.213 242.391 125.054 229.092 128.816C228.312 130.289 226.299 129.284 225.773 131.518C225.293 133.557 225 135.124 225 137.308C225 140.578 230.322 141.729 231.912 144.299C233.005 146.067 233.504 147.861 234.458 149.659C238.008 156.356 244.468 159.411 252.009 157.379C258.526 155.623 262.191 150.815 269.197 151.203C271.282 151.319 275.262 152.615 277.473 153.176C283.417 154.686 289.715 154.452 295.843 154.291C303.465 154.092 305.271 146.832 303.209 141.554C301.248 136.532 299.089 128.708 295.206 124.785C292.667 122.219 288.459 121.806 285.112 120.754C278.454 118.66 272.025 117.909 265.014 118.009Z" fill="#005573"/>
<path opacity="0.2" d="M480.755 224.009C459.721 224.213 447.535 231.054 428.009 234.816C426.863 236.289 423.908 235.284 423.135 237.518C422.43 239.557 422 241.124 422 243.308C422 246.578 429.815 247.729 432.149 250.299C433.755 252.067 434.488 253.861 435.888 255.659C441.1 262.356 450.586 265.411 461.66 263.379C471.228 261.623 476.61 256.815 486.897 257.203C489.958 257.319 495.803 258.615 499.049 259.176C507.777 260.686 517.024 260.452 526.023 260.291C537.214 260.092 539.867 252.832 536.839 247.554C533.959 242.532 530.789 234.708 525.088 230.785C521.359 228.219 515.181 227.806 510.266 226.754C500.49 224.66 491.049 223.909 480.755 224.009Z" fill="#005573"/>
<path opacity="0.2" d="M338.014 225.009C323.69 225.213 315.391 232.054 302.092 235.816C301.312 237.289 299.299 236.284 298.773 238.518C298.293 240.557 298 242.124 298 244.308C298 247.578 303.322 248.729 304.912 251.299C306.005 253.067 306.504 254.861 307.458 256.659C311.008 263.356 317.468 266.411 325.009 264.379C331.526 262.623 335.191 257.815 342.197 258.203C344.282 258.319 348.262 259.615 350.473 260.176C356.417 261.686 362.715 261.452 368.843 261.291C376.465 261.092 378.271 253.832 376.209 248.554C374.248 243.532 372.089 235.708 368.206 231.785C365.667 229.219 361.459 228.806 358.112 227.754C351.454 225.66 345.025 224.909 338.014 225.009Z" fill="#005573"/>
<path opacity="0.2" d="M195.014 224.009C180.69 224.213 172.391 231.054 159.092 234.816C158.312 236.289 156.299 235.284 155.773 237.518C155.293 239.557 155 241.124 155 243.308C155 246.578 160.322 247.729 161.912 250.299C163.005 252.067 163.504 253.861 164.458 255.659C168.008 262.356 174.468 265.411 182.009 263.379C188.526 261.623 192.191 256.815 199.197 257.203C201.282 257.319 205.262 258.615 207.473 259.176C213.417 260.686 219.715 260.452 225.843 260.291C233.465 260.092 235.271 252.832 233.209 247.554C231.248 242.532 229.089 234.708 225.206 230.785C222.667 228.219 218.459 227.806 215.112 226.754C208.454 224.66 202.025 223.909 195.014 224.009Z" fill="#005573"/>
<path opacity="0.2" d="M52.0791 224.009C35.9415 224.213 26.5918 231.054 11.6104 234.816C10.7311 236.289 8.46391 235.284 7.87085 237.518C7.32957 239.557 7 241.124 7 243.308C7 246.578 12.9961 247.729 14.7864 250.299C16.0186 252.067 16.581 253.861 17.6551 255.659C21.6542 262.356 28.9327 265.411 37.4284 263.379C44.7696 261.623 48.899 256.815 56.792 257.203C59.1401 257.319 63.6248 258.615 66.1151 259.176C72.812 260.686 79.9062 260.452 86.8106 260.291C95.397 260.092 97.4321 252.832 95.1092 247.554C92.8995 242.532 90.4674 234.708 86.0934 230.785C83.2325 228.219 78.4921 227.806 74.7212 226.754C67.2208 224.66 59.9774 223.909 52.0791 224.009Z" fill="#005573"/>
<path opacity="0.2" d="M47.0141 335.009C32.6896 335.213 24.3905 342.054 11.0923 345.816C10.3119 347.289 8.29942 346.284 7.773 348.518C7.29254 350.557 7 352.124 7 354.308C7 357.578 12.3224 358.729 13.9115 361.299C15.0053 363.067 15.5045 364.861 16.4579 366.659C20.0077 373.356 26.4684 376.411 34.0095 374.379C40.5258 372.623 44.1912 367.815 51.1974 368.203C53.2817 368.319 57.2624 369.615 59.473 370.176C65.4174 371.686 71.7145 371.452 77.8431 371.291C85.4648 371.092 87.2712 363.832 85.2093 358.554C83.2479 353.532 81.0891 345.708 77.2065 341.785C74.6671 339.219 70.4593 338.806 67.112 337.754C60.4544 335.66 54.0249 334.909 47.0141 335.009Z" fill="#005573"/>
<path d="M554.5 110.5H653.5V159.5H554.5V110.5Z" stroke="#9B9B0F"/>
<path d="M585.652 132.248C585.652 132.488 585.052 133.124 583.552 134.12C582.784 134.624 581.488 135.284 581.488 135.284C581.488 135.284 581.464 134.924 581.464 134.48C581.464 133.976 581.5 133.352 581.632 133.148C581.884 132.764 584.332 132.104 585.28 132.104C585.424 132.104 585.652 132.104 585.652 132.248ZM587.5 136.892C587.5 135.224 584.656 135.02 583.48 135.02C583.396 135.02 583.348 135.02 583.348 135.02C584.032 134.54 584.608 134.24 585.76 133.136C585.976 132.932 586.348 132.428 586.348 132.008C586.348 131.516 585.664 131.516 585.352 131.516C583.912 131.516 581.596 132.26 581.596 132.26C581.572 132.164 581.524 131.996 581.308 131.996C580.996 131.996 580.84 132.296 580.84 132.536C580.6 132.716 580.432 132.836 580.432 133.148V133.196C580.444 133.52 580.876 133.532 580.876 133.532C580.864 133.82 580.84 135.416 580.84 136.076C580.84 136.7 580.876 137.336 580.876 137.948C580.876 138.116 580.876 138.248 580.864 138.296C580.84 138.44 580.84 138.56 580.84 138.668C580.84 138.992 580.912 139.184 580.948 139.352C580.972 139.484 581.26 139.58 581.488 139.58C581.632 139.58 581.74 139.544 581.764 139.472C581.8 139.328 581.824 139.232 581.824 139.136C581.824 138.98 581.776 138.848 581.692 138.512C581.596 138.104 581.548 138.128 581.536 136.784C581.536 136.4 581.536 136.076 581.536 136.076C582.04 135.836 583.084 135.656 583.564 135.656C585.58 135.656 586.816 136.244 586.816 136.832C586.816 138.044 585.196 139.34 584.344 139.616C584.176 139.676 583.504 139.736 583.36 139.76C583.156 139.796 582.88 140 582.88 140.264C582.88 140.528 583.072 140.696 583.336 140.696C583.444 140.696 583.54 140.672 583.588 140.636C583.732 140.54 584.368 140.408 585.436 139.748C586.192 139.292 587.488 137.948 587.5 136.892ZM591.134 135.62C590.762 135.956 590.558 136.088 590.246 136.268C589.502 136.724 588.83 136.76 588.83 136.76C588.83 136.76 589.202 136.268 589.814 135.956C590.246 135.728 590.69 135.62 591.134 135.62ZM593.498 137.696C593.498 137.492 593.318 137.312 593.138 137.312C592.934 137.312 592.802 137.624 592.73 137.756C592.61 137.924 590.75 139.448 589.802 139.448C589.274 139.448 589.046 139.16 588.83 138.812C588.566 138.404 588.506 138.032 588.506 137.78C588.506 137.564 588.542 137.432 588.542 137.432C588.878 137.408 589.61 137.336 590.354 136.88C591.038 136.472 592.058 135.704 592.058 135.404C592.058 135.368 592.046 135.344 592.01 135.32C591.722 135.128 591.374 135.044 590.978 135.044C589.718 135.044 588.17 135.968 587.858 137.324C587.822 137.468 587.81 137.612 587.81 137.756C587.81 138.644 588.362 139.592 589.142 139.952C589.298 140.024 589.478 140.06 589.67 140.06C591.026 140.06 592.958 138.296 593.222 138.152C593.378 138.044 593.498 137.864 593.498 137.696ZM596.97 135.62C596.598 135.956 596.394 136.088 596.082 136.268C595.338 136.724 594.666 136.76 594.666 136.76C594.666 136.76 595.038 136.268 595.65 135.956C596.082 135.728 596.526 135.62 596.97 135.62ZM599.334 137.696C599.334 137.492 599.154 137.312 598.974 137.312C598.77 137.312 598.638 137.624 598.566 137.756C598.446 137.924 596.586 139.448 595.638 139.448C595.11 139.448 594.882 139.16 594.666 138.812C594.402 138.404 594.342 138.032 594.342 137.78C594.342 137.564 594.378 137.432 594.378 137.432C594.714 137.408 595.446 137.336 596.19 136.88C596.874 136.472 597.894 135.704 597.894 135.404C597.894 135.368 597.882 135.344 597.846 135.32C597.558 135.128 597.21 135.044 596.814 135.044C595.554 135.044 594.006 135.968 593.694 137.324C593.658 137.468 593.646 137.612 593.646 137.756C593.646 138.644 594.198 139.592 594.978 139.952C595.134 140.024 595.314 140.06 595.506 140.06C596.862 140.06 598.794 138.296 599.058 138.152C599.214 138.044 599.334 137.864 599.334 137.696ZM604.618 135.224C604.618 135.08 604.522 134.936 604.45 134.912C604.246 134.84 604.066 134.816 603.898 134.816C603.178 134.816 602.686 135.368 602.242 135.788C601.474 136.496 600.646 137.6 600.646 137.6C600.646 136.796 600.646 136.568 600.634 136.148C600.61 135.416 600.574 135.14 600.394 134.972C600.298 134.888 600.214 134.852 600.13 134.852C600.01 134.852 599.77 134.996 599.77 135.128C599.77 135.272 600.034 135.524 600.034 137.024C600.034 137.264 600.022 137.528 600.01 137.84C599.962 138.764 599.818 139.376 599.818 139.736C599.818 139.892 599.842 140 599.914 140.072C599.998 140.156 600.118 140.216 600.238 140.216C600.334 140.216 600.43 140.18 600.502 140.084C600.658 139.88 600.502 138.956 600.946 138.284C601.81 136.976 602.722 135.956 603.478 135.512C603.598 135.44 603.706 135.416 603.79 135.416C603.982 135.416 604.114 135.524 604.27 135.524C604.45 135.524 604.618 135.38 604.618 135.224ZM607.994 142.016C607.994 142.808 607.682 143.672 607.058 144.668C606.602 145.388 605.702 146.06 604.814 146.06C604.01 146.06 603.146 145.388 603.146 144.572C603.146 144.128 603.374 143.636 603.83 143.084C605.294 141.296 607.802 140.936 607.802 140.936C607.922 141.284 607.994 141.644 607.994 142.016ZM607.046 137.384C607.046 137.984 606.098 138.536 605.582 138.752C605.234 138.896 604.742 138.992 604.742 138.992C604.742 138.992 604.646 138.74 604.646 138.512C604.646 138.224 605.018 137.384 606.134 136.388C606.602 136.472 607.046 136.88 607.046 137.384ZM612.05 140.732C612.05 140.708 612.038 140.672 612.026 140.648C611.81 140.204 610.886 140.156 610.106 140.156C609.278 140.156 608.174 140.276 608.174 140.276C607.91 139.892 607.802 139.688 607.322 139.352C606.902 139.052 606.494 138.956 606.494 138.956C607.118 138.464 607.622 138.032 607.622 137.36C607.622 136.892 607.31 136.508 606.998 136.22C607.61 136.148 608.138 135.992 608.642 135.992C608.87 135.992 609.014 136.016 609.098 136.016C609.23 136.016 609.326 135.872 609.326 135.776C609.326 135.668 609.194 135.584 609.038 135.536C608.99 135.524 608.906 135.512 608.798 135.512C608.114 135.512 606.446 135.8 605.774 135.8C605.642 135.8 605.546 135.788 605.51 135.764C605.414 135.692 605.342 135.656 605.27 135.656C605.102 135.656 605.018 135.836 605.006 135.968C605.006 136.148 605.342 136.34 605.342 136.34C604.526 137.324 603.998 137.828 603.998 138.464C603.998 138.824 604.142 139.148 604.142 139.148C603.914 139.22 603.602 139.316 603.602 139.58C603.602 139.76 603.83 139.88 603.986 139.88C604.31 139.88 604.718 139.484 605.75 139.484C605.858 139.484 605.966 139.484 606.098 139.496C607.106 139.58 607.562 140.396 607.562 140.396C605.846 140.804 604.742 141.164 603.314 142.724C602.75 143.336 602.51 143.984 602.51 144.572C602.51 145.856 603.746 146.708 604.838 146.708C606.23 146.708 607.382 145.484 607.85 144.56C608.45 143.372 608.606 142.46 608.606 141.836C608.606 141.152 608.426 140.804 608.426 140.804C609.062 140.708 609.818 140.648 610.442 140.648C610.718 140.648 610.898 140.66 610.898 140.66C611.03 140.828 610.958 140.984 611.438 140.984C611.726 140.984 612.05 140.912 612.05 140.732ZM611.776 138.98C611.776 138.98 610.972 139.652 610.384 139.652C610.084 139.652 609.976 139.484 609.976 139.22C609.976 138.62 610.48 137.972 611.08 137.972C611.476 137.972 611.776 138.98 611.776 138.98ZM612.976 137.396C612.976 136.46 612.736 135.5 611.908 134.984C611.716 134.864 611.488 134.816 611.236 134.816C610.54 134.816 609.76 135.224 609.76 135.632C609.772 135.848 609.976 135.932 610.108 135.932C610.168 135.932 610.204 135.92 610.204 135.872C610.228 135.704 610.696 135.38 611.176 135.38C612.124 135.38 612.376 136.724 612.376 137.42C612.376 138.068 612.184 138.512 612.184 138.512C612.004 137.96 611.704 137.372 611.044 137.372C610.12 137.372 609.412 138.464 609.412 139.268C609.412 139.844 609.76 140.216 610.36 140.216C611.104 140.216 611.956 139.616 611.956 139.616C611.956 139.616 611.992 139.82 612.064 139.892C612.124 139.964 612.232 139.988 612.316 139.988C612.376 139.988 612.436 139.976 612.46 139.94C612.52 139.904 612.976 138.668 612.976 137.396ZM620.41 139.46C620.41 139.28 620.29 139.04 620.29 138.872C620.29 138.776 620.302 138.404 620.302 137.924C620.302 137 620.278 135.68 620.17 135.284C620.098 135.008 619.726 134.564 619.462 134.564C618.586 134.684 617.11 138.116 617.11 138.116C617.026 136.112 616.918 135.164 616.798 134.984C616.69 134.78 616.414 134.552 616.222 134.552C615.778 134.552 614.974 136.304 614.974 136.304C614.902 135.776 614.842 135.704 614.686 135.536C614.626 135.476 614.542 135.44 614.458 135.44C614.206 135.44 614.086 135.632 614.086 135.836C614.086 136.052 614.134 136.376 614.134 136.796C614.134 136.928 614.122 137.084 614.11 137.252C614.086 137.54 613.918 138.908 613.918 139.676C613.918 139.928 613.93 140.108 613.978 140.18C614.026 140.264 614.158 140.3 614.29 140.3C614.446 140.3 614.674 140.228 614.674 140.072C614.674 139.988 614.638 139.88 614.638 139.652C614.638 139.544 614.65 139.412 614.674 139.244C614.938 137.624 615.874 135.596 616.21 135.596C616.222 135.596 616.234 135.596 616.246 135.608C616.402 135.704 616.45 136.928 616.51 138.692C616.558 139.952 616.45 140.204 616.942 140.324C616.966 140.324 616.978 140.336 616.99 140.336C617.302 140.336 617.242 139.496 617.914 137.864C618.49 136.46 619.282 135.308 619.402 135.308C619.654 135.308 619.702 136.592 619.702 136.652V136.7C619.702 137.048 619.666 137.708 619.666 138.308C619.666 138.872 619.702 139.4 619.798 139.592C619.858 139.7 619.966 139.748 620.062 139.748C620.242 139.748 620.41 139.652 620.41 139.46ZM624.368 135.62C623.996 135.956 623.792 136.088 623.48 136.268C622.736 136.724 622.064 136.76 622.064 136.76C622.064 136.76 622.436 136.268 623.048 135.956C623.48 135.728 623.924 135.62 624.368 135.62ZM626.732 137.696C626.732 137.492 626.552 137.312 626.372 137.312C626.168 137.312 626.036 137.624 625.964 137.756C625.844 137.924 623.984 139.448 623.036 139.448C622.508 139.448 622.28 139.16 622.064 138.812C621.8 138.404 621.74 138.032 621.74 137.78C621.74 137.564 621.776 137.432 621.776 137.432C622.112 137.408 622.844 137.336 623.588 136.88C624.272 136.472 625.292 135.704 625.292 135.404C625.292 135.368 625.28 135.344 625.244 135.32C624.956 135.128 624.608 135.044 624.212 135.044C622.952 135.044 621.404 135.968 621.092 137.324C621.056 137.468 621.044 137.612 621.044 137.756C621.044 138.644 621.596 139.592 622.376 139.952C622.532 140.024 622.712 140.06 622.904 140.06C624.26 140.06 626.192 138.296 626.456 138.152C626.612 138.044 626.732 137.864 626.732 137.696Z" fill="#005573"/>
<path d="M215.5 112.5H314.5V161.5H215.5V112.5Z" stroke="#9B9B0F"/>
<path d="M257.972 140.88C257.972 140.172 257.732 139.128 257.66 138.708C256.964 134.556 257.516 133.068 256.772 133.068H256.724C256.364 133.068 256.292 133.308 256.148 133.548C255.872 134.016 252.716 139.98 252.716 139.98C252.488 139.128 252.092 137.82 251.612 136.572C250.82 134.472 250.256 132.696 250.076 132.624C250.064 132.624 250.052 132.612 250.04 132.612C249.848 132.612 249.584 133.068 249.392 133.212C249.296 133.296 249.296 133.44 249.296 133.644V133.764C249.296 133.98 249.284 134.256 249.188 134.58C249.056 135 248.408 140.1 248.24 140.328C248.132 140.496 248 140.736 248 140.94C248 141.108 248.084 141.24 248.312 141.312C248.36 141.324 248.396 141.324 248.432 141.324C248.756 141.324 248.948 140.928 248.948 140.64C248.948 140.628 248.948 140.616 248.936 140.604C248.936 139.968 249.956 133.932 249.956 133.932C250.1 134.28 250.532 135.54 250.712 135.984C251.444 137.7 252.02 139.968 252.104 140.352C252.2 140.832 252.44 141.012 252.68 141.012C252.956 141.012 253.232 140.772 253.244 140.484C253.268 140.232 256.496 134.268 256.496 134.268C256.496 135.18 256.568 135.42 257.192 140.34C257.192 140.388 257.204 140.424 257.204 140.472C257.204 140.712 257.144 140.952 257.144 141.156C257.144 141.408 257.228 141.576 257.6 141.576H257.672C257.9 141.564 257.972 141.276 257.972 140.88ZM260.881 136.8C261.541 136.8 261.829 137.568 261.829 138.096C261.829 138.516 261.685 138.936 261.481 139.332C261.253 139.764 260.497 140.424 259.945 140.424C259.393 140.424 259.165 139.644 259.165 139.212C259.165 139.044 259.189 138.876 259.237 138.744C259.849 136.932 260.785 136.8 260.881 136.8ZM262.429 138.24C262.429 138.108 262.417 137.988 262.405 137.844C262.273 136.536 261.265 136.116 260.785 136.116C260.089 136.116 259.393 136.752 258.721 138.276C258.577 138.6 258.517 138.912 258.517 139.224C258.517 140.016 258.961 141.048 259.813 141.048C260.821 141.048 262.429 139.956 262.429 138.24ZM266.852 139.248C265.892 139.8 264.764 140.544 264.008 140.544C263.588 140.544 263.288 140.28 263.288 139.884C263.288 138.936 264.644 137.34 265.616 137.34C265.724 137.34 265.832 137.352 265.928 137.4C266.672 137.724 266.852 139.248 266.852 139.248ZM268.484 133.152C268.484 132.84 268.232 132.552 267.872 132.552C267.728 132.552 267.668 132.672 267.668 132.864C267.668 133.008 267.68 133.152 267.74 133.344C267.752 133.38 267.752 133.404 267.752 133.44C267.752 134.076 267.26 138.084 267.26 138.084C266.948 137.52 266.744 136.956 265.784 136.752C265.736 136.74 265.664 136.74 265.604 136.74C264.5 136.74 262.664 138.396 262.664 139.836C262.664 140.592 263.132 141.168 263.924 141.168C265.184 141.168 266.936 139.968 266.936 139.968C267.032 140.316 266.9 140.7 267.476 140.784C267.68 140.784 267.728 140.532 267.728 140.256C267.728 139.92 267.656 139.548 267.656 139.548C268.064 139.38 268.388 139.392 268.388 139.068C268.388 139.02 268.388 138.972 268.364 138.9C268.304 138.648 267.86 138.612 267.86 138.612C267.944 136.872 268.352 133.608 268.436 133.38C268.472 133.308 268.484 133.224 268.484 133.152ZM272.498 136.74C272.498 136.74 272.474 136.26 272.162 136.26C271.79 136.26 271.778 136.524 271.778 136.692C271.766 137.004 271.562 138.948 270.962 140.004C270.878 140.148 270.794 140.208 270.722 140.208C270.314 140.208 269.894 138.684 269.894 136.764C269.894 136.608 269.906 136.452 269.906 136.284C269.906 136.128 269.81 135.828 269.546 135.828H269.486C269.354 135.828 269.246 135.924 269.246 136.212C269.258 136.656 269.294 140.952 270.71 140.952C270.818 140.952 270.95 140.916 271.082 140.856C271.802 140.52 272.498 136.968 272.498 136.74ZM274.853 132.768C274.853 132.6 274.817 132.516 274.757 132.444C274.637 132.312 274.541 132.264 274.457 132.264C274.349 132.264 274.277 132.336 274.193 132.408C274.037 132.54 274.001 133.572 273.857 135.132C273.713 136.596 273.461 139.176 273.461 140.604C273.461 141.144 273.509 141.528 273.605 141.588C273.713 141.672 273.809 141.696 273.893 141.696C274.133 141.696 274.181 141.348 274.181 141.084C274.181 140.676 274.145 140.244 274.145 139.86C274.145 138.9 274.205 137.748 274.349 136.62C274.649 134.1 274.853 133.188 274.853 132.768ZM278.552 136.62C278.18 136.956 277.976 137.088 277.664 137.268C276.92 137.724 276.248 137.76 276.248 137.76C276.248 137.76 276.62 137.268 277.232 136.956C277.664 136.728 278.108 136.62 278.552 136.62ZM280.916 138.696C280.916 138.492 280.736 138.312 280.556 138.312C280.352 138.312 280.22 138.624 280.148 138.756C280.028 138.924 278.168 140.448 277.22 140.448C276.692 140.448 276.464 140.16 276.248 139.812C275.984 139.404 275.924 139.032 275.924 138.78C275.924 138.564 275.96 138.432 275.96 138.432C276.296 138.408 277.028 138.336 277.772 137.88C278.456 137.472 279.476 136.704 279.476 136.404C279.476 136.368 279.464 136.344 279.428 136.32C279.14 136.128 278.792 136.044 278.396 136.044C277.136 136.044 275.588 136.968 275.276 138.324C275.24 138.468 275.228 138.612 275.228 138.756C275.228 139.644 275.78 140.592 276.56 140.952C276.716 141.024 276.896 141.06 277.088 141.06C278.444 141.06 280.376 139.296 280.64 139.152C280.796 139.044 280.916 138.864 280.916 138.696Z" fill="#005573"/>
<path d="M0.5 220.5H99.5V269.5H0.5V220.5Z" stroke="#9B9B0F"/>
<path d="M14.14 244.516C14.104 242.236 8.104 242.716 8.104 241.348C8.104 240.292 10.876 239.236 12.028 239.236C12.352 239.236 12.484 239.62 12.748 239.62C12.976 239.62 13.156 239.476 13.156 239.356C13.156 239.32 13.156 239.296 13.132 239.272C12.868 238.9 12.796 238.54 11.884 238.54C10.72 238.54 7.324 239.728 7.324 241.54C7.324 243.34 13.444 242.668 13.444 244.66C13.444 245.5 10.972 246.856 10.036 246.988C9.82 247.024 9.496 247.192 9.496 247.516C9.496 247.84 9.808 247.924 10.06 247.924C10.312 247.924 10.564 247.828 10.612 247.54C10.648 247.336 14.14 246.22 14.14 244.516ZM17.9513 242.74C17.9513 242.74 17.9273 242.26 17.6153 242.26C17.2433 242.26 17.2313 242.524 17.2313 242.692C17.2193 243.004 17.0153 244.948 16.4153 246.004C16.3313 246.148 16.2473 246.208 16.1753 246.208C15.7673 246.208 15.3473 244.684 15.3473 242.764C15.3473 242.608 15.3593 242.452 15.3593 242.284C15.3593 242.128 15.2633 241.828 14.9993 241.828H14.9393C14.8073 241.828 14.6993 241.924 14.6993 242.212C14.7113 242.656 14.7473 246.952 16.1633 246.952C16.2713 246.952 16.4033 246.916 16.5353 246.856C17.2553 246.52 17.9513 242.968 17.9513 242.74ZM21.6809 244.048C21.6809 244.096 21.6809 244.12 21.6689 244.18C21.3809 245.488 19.5209 246.4 19.5209 246.4C19.5209 246.4 19.7009 244.9 19.8089 244.192C19.9169 243.496 20.1089 242.56 20.1089 242.56C20.8049 242.608 21.6809 243.46 21.6809 244.048ZM22.3289 244.144C22.3289 242.74 20.6969 241.912 19.8569 241.9C19.6769 241.9 19.0049 242.068 19.0049 242.428C19.0049 242.704 19.3049 242.788 19.3049 242.788C19.0169 244.96 18.8609 245.812 18.7529 248.308C18.7409 248.692 18.7289 249.04 18.7289 249.352C18.7289 250.444 18.8009 251.116 18.8009 251.38C18.8009 251.452 18.8009 251.488 18.7889 251.5C18.7529 251.56 18.7409 251.632 18.7409 251.716C18.7409 251.956 18.9089 252.22 19.1609 252.22C19.3169 252.22 19.4489 252.076 19.4489 251.872C19.4489 251.8 19.4249 251.728 19.3889 251.644C19.3649 251.584 19.3289 251.044 19.3289 250.18V249.388C19.3289 247.744 19.4969 246.676 19.4969 246.676C19.5329 246.808 19.7249 246.988 19.9049 246.988C20.1449 246.988 22.3289 245.2 22.3289 244.144ZM25.8528 244.048C25.8528 244.096 25.8528 244.12 25.8408 244.18C25.5527 245.488 23.6928 246.4 23.6928 246.4C23.6928 246.4 23.8728 244.9 23.9808 244.192C24.0888 243.496 24.2808 242.56 24.2808 242.56C24.9768 242.608 25.8528 243.46 25.8528 244.048ZM26.5008 244.144C26.5008 242.74 24.8688 241.912 24.0288 241.9C23.8488 241.9 23.1768 242.068 23.1768 242.428C23.1768 242.704 23.4768 242.788 23.4768 242.788C23.1888 244.96 23.0328 245.812 22.9248 248.308C22.9128 248.692 22.9008 249.04 22.9008 249.352C22.9008 250.444 22.9728 251.116 22.9728 251.38C22.9728 251.452 22.9728 251.488 22.9608 251.5C22.9248 251.56 22.9128 251.632 22.9128 251.716C22.9128 251.956 23.0808 252.22 23.3328 252.22C23.4888 252.22 23.6208 252.076 23.6208 251.872C23.6208 251.8 23.5968 251.728 23.5608 251.644C23.5368 251.584 23.5008 251.044 23.5008 250.18V249.388C23.5008 247.744 23.6688 246.676 23.6688 246.676C23.7048 246.808 23.8968 246.988 24.0768 246.988C24.3168 246.988 26.5008 245.2 26.5008 244.144ZM28.8606 238.768C28.8606 238.6 28.8246 238.516 28.7646 238.444C28.6446 238.312 28.5486 238.264 28.4646 238.264C28.3566 238.264 28.2846 238.336 28.2006 238.408C28.0446 238.54 28.0086 239.572 27.8646 241.132C27.7206 242.596 27.4686 245.176 27.4686 246.604C27.4686 247.144 27.5166 247.528 27.6126 247.588C27.7206 247.672 27.8166 247.696 27.9006 247.696C28.1406 247.696 28.1886 247.348 28.1886 247.084C28.1886 246.676 28.1526 246.244 28.1526 245.86C28.1526 244.9 28.2126 243.748 28.3566 242.62C28.6566 240.1 28.8606 239.188 28.8606 238.768ZM33.5873 243.412C33.5873 242.956 33.4913 242.476 33.2993 242.404C33.2513 242.38 33.2033 242.38 33.1673 242.38C32.9153 242.38 32.8673 242.752 32.7113 242.944C31.7393 244.084 30.7553 245.26 30.4553 245.26C30.3713 245.26 30.3593 245.128 30.3593 245.056C30.3593 244.024 30.7913 243.076 30.8393 242.092C30.8273 241.9 30.5633 241.72 30.4313 241.72C30.0713 241.72 30.0473 242.704 30.0233 242.848C29.8673 243.832 29.6993 244.852 29.6993 245.524C29.6993 245.992 29.7833 246.304 30.0473 246.304C30.7673 246.316 32.8553 243.676 32.8553 243.676C32.8193 245.476 32.7353 246.352 32.5673 247.996C32.3273 250.408 32.1833 251.788 32.0993 251.812C32.0513 251.824 31.9553 252.016 31.9553 252.196C31.9553 252.388 32.0633 252.58 32.4353 252.58C32.7473 252.58 32.8673 252.436 32.8673 252.256C32.8673 252.064 32.7473 251.836 32.6993 251.776C32.6873 251.764 32.6873 251.74 32.6873 251.692C32.6873 251.44 32.8313 250.672 32.9993 249.208C33.2273 247.216 33.4793 244.468 33.5633 243.796C33.5753 243.676 33.5873 243.544 33.5873 243.412ZM43.1223 244.336C43.1223 244.108 42.9183 243.94 42.7143 243.94C42.4743 243.94 42.2103 244.096 42.1023 244.144C41.8383 244.264 38.4063 246.244 36.3663 246.244C35.9823 246.244 35.6463 246.172 35.3823 246.004C34.9143 245.704 34.7223 245.272 34.7223 244.78C34.7223 242.8 37.8783 239.8 39.4143 239.476C39.6783 239.416 40.0503 239.344 40.0503 239.056C40.0503 238.768 39.8823 238.66 39.6543 238.66C39.4023 238.66 39.1143 238.78 39.0183 238.816C37.0143 239.62 34.0503 242.5 34.0503 244.744C34.0503 245.404 34.3143 246.016 34.9263 246.496C35.2623 246.76 35.7183 246.868 36.2343 246.868C38.4663 246.868 41.8983 244.84 42.4263 244.768C42.4263 244.768 43.1223 244.696 43.1223 244.336ZM47.5532 245.008C47.5532 243.796 47.4092 242.512 46.7612 242.284C46.6532 242.248 46.5452 242.236 46.4372 242.236C45.1892 242.236 43.5692 244.348 43.5692 244.348C43.6172 243.256 43.7012 242.26 43.7972 241.264C43.8812 240.328 44.0612 239.704 44.0612 239.332C44.0612 239.056 43.9532 238.9 43.6412 238.9C43.2212 238.9 43.3292 239.932 43.1132 241.912C42.7892 244.876 42.9332 246.34 42.8012 246.616C42.7292 246.772 42.6452 246.952 42.6452 247.12C42.6452 247.372 42.8372 247.516 43.0532 247.516C43.2692 247.516 43.5092 247.384 43.5092 246.94C43.5092 246.796 43.4852 246.664 43.4852 246.532C43.4852 246.208 43.5332 245.644 43.7972 245.08C44.1332 244.36 45.6332 242.896 46.3532 242.896C46.4252 242.896 46.4972 242.908 46.5452 242.944C46.8092 243.112 46.8932 244.168 46.8932 245.068C46.8932 245.716 46.8452 246.124 46.8452 246.46C46.8452 246.772 46.9292 247.024 47.2172 247.024C47.4932 247.024 47.5412 246.916 47.5412 246.748C47.5412 246.628 47.5172 246.46 47.5172 246.268C47.5172 245.92 47.5532 245.416 47.5532 245.008ZM50.553 245.98C50.553 245.98 49.749 246.652 49.161 246.652C48.861 246.652 48.753 246.484 48.753 246.22C48.753 245.62 49.257 244.972 49.857 244.972C50.253 244.972 50.553 245.98 50.553 245.98ZM51.753 244.396C51.753 243.46 51.513 242.5 50.685 241.984C50.493 241.864 50.265 241.816 50.013 241.816C49.317 241.816 48.537 242.224 48.537 242.632C48.549 242.848 48.753 242.932 48.885 242.932C48.945 242.932 48.981 242.92 48.981 242.872C49.005 242.704 49.473 242.38 49.953 242.38C50.901 242.38 51.153 243.724 51.153 244.42C51.153 245.068 50.961 245.512 50.961 245.512C50.781 244.96 50.481 244.372 49.821 244.372C48.897 244.372 48.189 245.464 48.189 246.268C48.189 246.844 48.537 247.216 49.137 247.216C49.881 247.216 50.733 246.616 50.733 246.616C50.733 246.616 50.769 246.82 50.841 246.892C50.901 246.964 51.009 246.988 51.093 246.988C51.153 246.988 51.213 246.976 51.237 246.94C51.297 246.904 51.753 245.668 51.753 244.396ZM53.8949 242.548C53.8949 242.272 53.7269 242.092 53.5229 242.092C53.1029 242.116 53.1509 242.8 53.1149 243.46C53.0549 244.612 52.9949 245.476 52.9949 246.052C52.9949 246.484 53.0309 246.748 53.1389 246.832C53.2349 246.904 53.3429 246.94 53.4269 246.94C53.6669 246.94 53.7509 246.748 53.7509 246.544C53.7509 246.328 53.6069 246.304 53.6069 245.764V245.536C53.6069 245.068 53.8949 242.956 53.8949 242.548ZM53.9189 238.564C53.9189 238.372 53.7869 238.228 53.6189 238.228C53.3069 238.228 53.4029 238.504 53.1509 239.02C53.0069 239.332 52.9469 239.608 52.9469 239.824C52.9469 239.992 52.9829 240.232 53.1629 240.232C53.2469 240.232 53.3189 240.184 53.3789 240.124C53.4989 240.004 53.4149 239.8 53.5949 239.356C53.7509 238.972 53.9069 238.768 53.9189 238.612V238.564ZM59.1074 247.3C59.1074 247.108 58.9874 246.88 58.9034 246.712C58.8794 246.628 58.8674 246.412 58.8674 245.932V244.552C58.8674 242.992 58.8074 241.876 58.2434 241.756H58.1954C57.4514 241.756 56.1794 244.516 56.1794 244.516C56.1674 244.42 56.1674 244.348 56.1674 244.288C56.1674 244.132 56.1914 243.988 56.1914 243.64C56.1914 242.944 56.3114 242.488 56.3114 242.224C56.3114 242.128 56.2994 242.068 56.2634 242.02C56.1914 241.924 56.0354 241.828 55.8794 241.828C55.7594 241.828 55.6514 241.9 55.6154 242.104C55.5914 242.272 55.4834 243.136 55.4594 244.264C55.4354 245.56 55.3634 246.256 55.3634 246.64C55.3634 246.832 55.3874 246.952 55.4354 247.036C55.5194 247.144 55.6154 247.18 55.6994 247.18C55.7834 247.18 55.8674 247.144 55.9274 247.12C56.0714 247.012 56.0594 246.7 56.4194 245.728C56.9594 244.264 57.8474 242.608 58.0634 242.608C58.2074 242.608 58.2194 243.58 58.2194 243.724L58.2074 244.888C58.2074 245.968 58.3274 246.532 58.3274 246.784C58.3274 246.904 58.2914 246.976 58.2914 247.06C58.2914 247.384 58.5914 247.6 58.8314 247.6C59.0114 247.6 59.1074 247.444 59.1074 247.3ZM69.4368 246.88C69.4368 246.172 69.1968 245.128 69.1248 244.708C68.4288 240.556 68.9808 239.068 68.2368 239.068H68.1888C67.8288 239.068 67.7568 239.308 67.6128 239.548C67.3368 240.016 64.1808 245.98 64.1808 245.98C63.9528 245.128 63.5568 243.82 63.0768 242.572C62.2848 240.472 61.7208 238.696 61.5408 238.624C61.5288 238.624 61.5168 238.612 61.5048 238.612C61.3128 238.612 61.0488 239.068 60.8568 239.212C60.7608 239.296 60.7608 239.44 60.7608 239.644V239.764C60.7608 239.98 60.7488 240.256 60.6528 240.58C60.5208 241 59.8728 246.1 59.7048 246.328C59.5968 246.496 59.4648 246.736 59.4648 246.94C59.4648 247.108 59.5488 247.24 59.7768 247.312C59.8248 247.324 59.8608 247.324 59.8968 247.324C60.2208 247.324 60.4128 246.928 60.4128 246.64C60.4128 246.628 60.4128 246.616 60.4008 246.604C60.4008 245.968 61.4208 239.932 61.4208 239.932C61.5648 240.28 61.9968 241.54 62.1768 241.984C62.9088 243.7 63.4848 245.968 63.5688 246.352C63.6648 246.832 63.9048 247.012 64.1448 247.012C64.4208 247.012 64.6968 246.772 64.7088 246.484C64.7328 246.232 67.9608 240.268 67.9608 240.268C67.9608 241.18 68.0328 241.42 68.6568 246.34C68.6568 246.388 68.6688 246.424 68.6688 246.472C68.6688 246.712 68.6088 246.952 68.6088 247.156C68.6088 247.408 68.6928 247.576 69.0648 247.576H69.1368C69.3648 247.564 69.4368 247.276 69.4368 246.88ZM72.3456 242.8C73.0056 242.8 73.2936 243.568 73.2936 244.096C73.2936 244.516 73.1496 244.936 72.9456 245.332C72.7176 245.764 71.9616 246.424 71.4096 246.424C70.8576 246.424 70.6296 245.644 70.6296 245.212C70.6296 245.044 70.6536 244.876 70.7016 244.744C71.3136 242.932 72.2496 242.8 72.3456 242.8ZM73.8936 244.24C73.8936 244.108 73.8816 243.988 73.8696 243.844C73.7376 242.536 72.7296 242.116 72.2496 242.116C71.5536 242.116 70.8576 242.752 70.1856 244.276C70.0416 244.6 69.9816 244.912 69.9816 245.224C69.9816 246.016 70.4256 247.048 71.2776 247.048C72.2856 247.048 73.8936 245.956 73.8936 244.24ZM78.3164 245.248C77.3564 245.8 76.2284 246.544 75.4724 246.544C75.0524 246.544 74.7524 246.28 74.7524 245.884C74.7524 244.936 76.1084 243.34 77.0804 243.34C77.1884 243.34 77.2964 243.352 77.3924 243.4C78.1364 243.724 78.3164 245.248 78.3164 245.248ZM79.9484 239.152C79.9484 238.84 79.6964 238.552 79.3364 238.552C79.1924 238.552 79.1324 238.672 79.1324 238.864C79.1324 239.008 79.1444 239.152 79.2044 239.344C79.2164 239.38 79.2164 239.404 79.2164 239.44C79.2164 240.076 78.7244 244.084 78.7244 244.084C78.4124 243.52 78.2084 242.956 77.2484 242.752C77.2004 242.74 77.1284 242.74 77.0684 242.74C75.9644 242.74 74.1284 244.396 74.1284 245.836C74.1284 246.592 74.5964 247.168 75.3884 247.168C76.6484 247.168 78.4004 245.968 78.4004 245.968C78.4964 246.316 78.3644 246.7 78.9404 246.784C79.1444 246.784 79.1924 246.532 79.1924 246.256C79.1924 245.92 79.1204 245.548 79.1204 245.548C79.5284 245.38 79.8524 245.392 79.8524 245.068C79.8524 245.02 79.8524 244.972 79.8284 244.9C79.7684 244.648 79.3244 244.612 79.3244 244.612C79.4084 242.872 79.8164 239.608 79.9004 239.38C79.9364 239.308 79.9484 239.224 79.9484 239.152ZM83.963 242.74C83.963 242.74 83.939 242.26 83.627 242.26C83.255 242.26 83.243 242.524 83.243 242.692C83.231 243.004 83.027 244.948 82.427 246.004C82.343 246.148 82.259 246.208 82.187 246.208C81.779 246.208 81.359 244.684 81.359 242.764C81.359 242.608 81.371 242.452 81.371 242.284C81.371 242.128 81.275 241.828 81.011 241.828H80.951C80.819 241.828 80.711 241.924 80.711 242.212C80.723 242.656 80.759 246.952 82.175 246.952C82.283 246.952 82.415 246.916 82.547 246.856C83.267 246.52 83.963 242.968 83.963 242.74ZM86.3177 238.768C86.3177 238.6 86.2817 238.516 86.2217 238.444C86.1017 238.312 86.0057 238.264 85.9217 238.264C85.8137 238.264 85.7417 238.336 85.6577 238.408C85.5017 238.54 85.4657 239.572 85.3217 241.132C85.1777 242.596 84.9257 245.176 84.9257 246.604C84.9257 247.144 84.9737 247.528 85.0697 247.588C85.1777 247.672 85.2737 247.696 85.3577 247.696C85.5977 247.696 85.6457 247.348 85.6457 247.084C85.6457 246.676 85.6097 246.244 85.6097 245.86C85.6097 244.9 85.6697 243.748 85.8137 242.62C86.1137 240.1 86.3177 239.188 86.3177 238.768ZM90.0166 242.62C89.6446 242.956 89.4406 243.088 89.1286 243.268C88.3846 243.724 87.7126 243.76 87.7126 243.76C87.7126 243.76 88.0846 243.268 88.6966 242.956C89.1286 242.728 89.5726 242.62 90.0166 242.62ZM92.3806 244.696C92.3806 244.492 92.2006 244.312 92.0206 244.312C91.8166 244.312 91.6846 244.624 91.6126 244.756C91.4926 244.924 89.6326 246.448 88.6846 246.448C88.1566 246.448 87.9286 246.16 87.7126 245.812C87.4486 245.404 87.3886 245.032 87.3886 244.78C87.3886 244.564 87.4246 244.432 87.4246 244.432C87.7606 244.408 88.4926 244.336 89.2366 243.88C89.9206 243.472 90.9406 242.704 90.9406 242.404C90.9406 242.368 90.9286 242.344 90.8926 242.32C90.6046 242.128 90.2566 242.044 89.8606 242.044C88.6006 242.044 87.0526 242.968 86.7406 244.324C86.7046 244.468 86.6926 244.612 86.6926 244.756C86.6926 245.644 87.2446 246.592 88.0246 246.952C88.1806 247.024 88.3606 247.06 88.5526 247.06C89.9086 247.06 91.8406 245.296 92.1046 245.152C92.2606 245.044 92.3806 244.864 92.3806 244.696Z" fill="#005573"/>
<path d="M145.5 220.5H244.5V269.5H145.5V220.5Z" stroke="#9B9B0F"/>
<path d="M182.216 244.336C182.216 244.108 182.012 243.94 181.808 243.94C181.568 243.94 181.304 244.096 181.196 244.144C180.932 244.264 177.5 246.244 175.46 246.244C175.076 246.244 174.74 246.172 174.476 246.004C174.008 245.704 173.816 245.272 173.816 244.78C173.816 242.8 176.972 239.8 178.508 239.476C178.772 239.416 179.144 239.344 179.144 239.056C179.144 238.768 178.976 238.66 178.748 238.66C178.496 238.66 178.208 238.78 178.112 238.816C176.108 239.62 173.144 242.5 173.144 244.744C173.144 245.404 173.408 246.016 174.02 246.496C174.356 246.76 174.812 246.868 175.328 246.868C177.56 246.868 180.992 244.84 181.52 244.768C181.52 244.768 182.216 244.696 182.216 244.336ZM183.994 242.8C184.654 242.8 184.942 243.568 184.942 244.096C184.942 244.516 184.798 244.936 184.594 245.332C184.366 245.764 183.61 246.424 183.058 246.424C182.506 246.424 182.278 245.644 182.278 245.212C182.278 245.044 182.302 244.876 182.35 244.744C182.962 242.932 183.898 242.8 183.994 242.8ZM185.542 244.24C185.542 244.108 185.53 243.988 185.518 243.844C185.386 242.536 184.378 242.116 183.898 242.116C183.202 242.116 182.506 242.752 181.834 244.276C181.69 244.6 181.63 244.912 181.63 245.224C181.63 246.016 182.074 247.048 182.926 247.048C183.934 247.048 185.542 245.956 185.542 244.24ZM190.057 247.3C190.057 247.108 189.937 246.88 189.853 246.712C189.829 246.628 189.817 246.412 189.817 245.932V244.552C189.817 242.992 189.757 241.876 189.193 241.756H189.145C188.401 241.756 187.129 244.516 187.129 244.516C187.117 244.42 187.117 244.348 187.117 244.288C187.117 244.132 187.141 243.988 187.141 243.64C187.141 242.944 187.261 242.488 187.261 242.224C187.261 242.128 187.249 242.068 187.213 242.02C187.141 241.924 186.985 241.828 186.829 241.828C186.709 241.828 186.601 241.9 186.565 242.104C186.541 242.272 186.433 243.136 186.409 244.264C186.385 245.56 186.313 246.256 186.313 246.64C186.313 246.832 186.337 246.952 186.385 247.036C186.469 247.144 186.565 247.18 186.649 247.18C186.733 247.18 186.817 247.144 186.877 247.12C187.021 247.012 187.009 246.7 187.369 245.728C187.909 244.264 188.797 242.608 189.013 242.608C189.157 242.608 189.169 243.58 189.169 243.724L189.157 244.888C189.157 245.968 189.277 246.532 189.277 246.784C189.277 246.904 189.241 246.976 189.241 247.06C189.241 247.384 189.541 247.6 189.781 247.6C189.961 247.6 190.057 247.444 190.057 247.3ZM194.29 241.336V241.288C194.278 241.144 193.858 240.928 193.702 240.856C193.63 240.82 193.534 240.796 193.426 240.796C193.27 240.796 193.078 240.844 192.934 240.964C192.142 241.624 190.63 242.752 190.63 244.072C190.63 245.872 193.39 245.752 193.558 246.34C193.558 246.772 191.818 247.36 191.746 247.48C191.698 247.54 191.674 247.6 191.674 247.66C191.674 247.828 191.854 247.972 192.106 247.984C192.286 247.984 194.254 246.952 194.254 246.46C194.254 245.716 193.57 245.596 192.838 245.308C192.046 245.008 191.254 244.768 191.254 244.072C191.254 243.7 191.554 243.004 192.094 242.524C193.042 241.672 193.174 241.42 193.582 241.408C193.678 241.408 193.81 241.552 194.038 241.552C194.218 241.552 194.29 241.456 194.29 241.336ZM198.272 242.74C198.272 242.74 198.248 242.26 197.936 242.26C197.564 242.26 197.552 242.524 197.552 242.692C197.54 243.004 197.336 244.948 196.736 246.004C196.652 246.148 196.568 246.208 196.496 246.208C196.088 246.208 195.668 244.684 195.668 242.764C195.668 242.608 195.68 242.452 195.68 242.284C195.68 242.128 195.584 241.828 195.32 241.828H195.26C195.128 241.828 195.02 241.924 195.02 242.212C195.032 242.656 195.068 246.952 196.484 246.952C196.592 246.952 196.724 246.916 196.856 246.856C197.576 246.52 198.272 242.968 198.272 242.74ZM205.581 246.46C205.581 246.28 205.461 246.04 205.461 245.872C205.461 245.776 205.473 245.404 205.473 244.924C205.473 244 205.449 242.68 205.341 242.284C205.269 242.008 204.897 241.564 204.633 241.564C203.757 241.684 202.281 245.116 202.281 245.116C202.197 243.112 202.089 242.164 201.969 241.984C201.861 241.78 201.585 241.552 201.393 241.552C200.949 241.552 200.145 243.304 200.145 243.304C200.073 242.776 200.013 242.704 199.857 242.536C199.797 242.476 199.713 242.44 199.629 242.44C199.377 242.44 199.257 242.632 199.257 242.836C199.257 243.052 199.305 243.376 199.305 243.796C199.305 243.928 199.293 244.084 199.281 244.252C199.257 244.54 199.089 245.908 199.089 246.676C199.089 246.928 199.101 247.108 199.149 247.18C199.197 247.264 199.329 247.3 199.461 247.3C199.617 247.3 199.845 247.228 199.845 247.072C199.845 246.988 199.809 246.88 199.809 246.652C199.809 246.544 199.821 246.412 199.845 246.244C200.109 244.624 201.045 242.596 201.381 242.596C201.393 242.596 201.405 242.596 201.417 242.608C201.573 242.704 201.621 243.928 201.681 245.692C201.729 246.952 201.621 247.204 202.113 247.324C202.137 247.324 202.149 247.336 202.161 247.336C202.473 247.336 202.413 246.496 203.085 244.864C203.661 243.46 204.453 242.308 204.573 242.308C204.825 242.308 204.873 243.592 204.873 243.652V243.7C204.873 244.048 204.837 244.708 204.837 245.308C204.837 245.872 204.873 246.4 204.969 246.592C205.029 246.7 205.137 246.748 205.233 246.748C205.413 246.748 205.581 246.652 205.581 246.46ZM209.54 242.62C209.168 242.956 208.964 243.088 208.652 243.268C207.908 243.724 207.236 243.76 207.236 243.76C207.236 243.76 207.608 243.268 208.22 242.956C208.652 242.728 209.096 242.62 209.54 242.62ZM211.904 244.696C211.904 244.492 211.724 244.312 211.544 244.312C211.34 244.312 211.208 244.624 211.136 244.756C211.016 244.924 209.156 246.448 208.208 246.448C207.68 246.448 207.452 246.16 207.236 245.812C206.972 245.404 206.912 245.032 206.912 244.78C206.912 244.564 206.948 244.432 206.948 244.432C207.284 244.408 208.016 244.336 208.76 243.88C209.444 243.472 210.464 242.704 210.464 242.404C210.464 242.368 210.452 242.344 210.416 242.32C210.128 242.128 209.78 242.044 209.384 242.044C208.124 242.044 206.576 242.968 206.264 244.324C206.228 244.468 206.216 244.612 206.216 244.756C206.216 245.644 206.768 246.592 207.548 246.952C207.704 247.024 207.884 247.06 208.076 247.06C209.432 247.06 211.364 245.296 211.628 245.152C211.784 245.044 211.904 244.864 211.904 244.696ZM217.188 242.224C217.188 242.08 217.092 241.936 217.02 241.912C216.816 241.84 216.636 241.816 216.468 241.816C215.748 241.816 215.256 242.368 214.812 242.788C214.044 243.496 213.216 244.6 213.216 244.6C213.216 243.796 213.216 243.568 213.204 243.148C213.18 242.416 213.144 242.14 212.964 241.972C212.868 241.888 212.784 241.852 212.7 241.852C212.58 241.852 212.34 241.996 212.34 242.128C212.34 242.272 212.604 242.524 212.604 244.024C212.604 244.264 212.592 244.528 212.58 244.84C212.532 245.764 212.388 246.376 212.388 246.736C212.388 246.892 212.412 247 212.484 247.072C212.568 247.156 212.688 247.216 212.808 247.216C212.904 247.216 213 247.18 213.072 247.084C213.228 246.88 213.072 245.956 213.516 245.284C214.38 243.976 215.292 242.956 216.048 242.512C216.168 242.44 216.276 242.416 216.36 242.416C216.552 242.416 216.684 242.524 216.84 242.524C217.02 242.524 217.188 242.38 217.188 242.224Z" fill="#005573"/>
<path d="M0.5 330.5H99.5V379.5H0.5V330.5Z" stroke="#9B9B0F"/>
<path d="M33.652 349.248C33.652 349.488 33.052 350.124 31.552 351.12C30.784 351.624 29.488 352.284 29.488 352.284C29.488 352.284 29.464 351.924 29.464 351.48C29.464 350.976 29.5 350.352 29.632 350.148C29.884 349.764 32.332 349.104 33.28 349.104C33.424 349.104 33.652 349.104 33.652 349.248ZM35.5 353.892C35.5 352.224 32.656 352.02 31.48 352.02C31.396 352.02 31.348 352.02 31.348 352.02C32.032 351.54 32.608 351.24 33.76 350.136C33.976 349.932 34.348 349.428 34.348 349.008C34.348 348.516 33.664 348.516 33.352 348.516C31.912 348.516 29.596 349.26 29.596 349.26C29.572 349.164 29.524 348.996 29.308 348.996C28.996 348.996 28.84 349.296 28.84 349.536C28.6 349.716 28.432 349.836 28.432 350.148V350.196C28.444 350.52 28.876 350.532 28.876 350.532C28.864 350.82 28.84 352.416 28.84 353.076C28.84 353.7 28.876 354.336 28.876 354.948C28.876 355.116 28.876 355.248 28.864 355.296C28.84 355.44 28.84 355.56 28.84 355.668C28.84 355.992 28.912 356.184 28.948 356.352C28.972 356.484 29.26 356.58 29.488 356.58C29.632 356.58 29.74 356.544 29.764 356.472C29.8 356.328 29.824 356.232 29.824 356.136C29.824 355.98 29.776 355.848 29.692 355.512C29.596 355.104 29.548 355.128 29.536 353.784C29.536 353.4 29.536 353.076 29.536 353.076C30.04 352.836 31.084 352.656 31.564 352.656C33.58 352.656 34.816 353.244 34.816 353.832C34.816 355.044 33.196 356.34 32.344 356.616C32.176 356.676 31.504 356.736 31.36 356.76C31.156 356.796 30.88 357 30.88 357.264C30.88 357.528 31.072 357.696 31.336 357.696C31.444 357.696 31.54 357.672 31.588 357.636C31.732 357.54 32.368 357.408 33.436 356.748C34.192 356.292 35.488 354.948 35.5 353.892ZM40.9458 352.224C40.9458 352.08 40.8498 351.936 40.7778 351.912C40.5738 351.84 40.3938 351.816 40.2258 351.816C39.5058 351.816 39.0138 352.368 38.5698 352.788C37.8018 353.496 36.9738 354.6 36.9738 354.6C36.9738 353.796 36.9738 353.568 36.9618 353.148C36.9378 352.416 36.9018 352.14 36.7218 351.972C36.6258 351.888 36.5418 351.852 36.4578 351.852C36.3378 351.852 36.0978 351.996 36.0978 352.128C36.0978 352.272 36.3618 352.524 36.3618 354.024C36.3618 354.264 36.3498 354.528 36.3378 354.84C36.2898 355.764 36.1458 356.376 36.1458 356.736C36.1458 356.892 36.1698 357 36.2418 357.072C36.3258 357.156 36.4458 357.216 36.5658 357.216C36.6618 357.216 36.7578 357.18 36.8298 357.084C36.9858 356.88 36.8298 355.956 37.2738 355.284C38.1378 353.976 39.0498 352.956 39.8058 352.512C39.9258 352.44 40.0338 352.416 40.1178 352.416C40.3098 352.416 40.4418 352.524 40.5978 352.524C40.7778 352.524 40.9458 352.38 40.9458 352.224ZM43.5283 352.62C43.1563 352.956 42.9523 353.088 42.6403 353.268C41.8963 353.724 41.2243 353.76 41.2243 353.76C41.2243 353.76 41.5963 353.268 42.2083 352.956C42.6403 352.728 43.0843 352.62 43.5283 352.62ZM45.8923 354.696C45.8923 354.492 45.7123 354.312 45.5323 354.312C45.3283 354.312 45.1963 354.624 45.1243 354.756C45.0043 354.924 43.1443 356.448 42.1963 356.448C41.6683 356.448 41.4403 356.16 41.2243 355.812C40.9603 355.404 40.9003 355.032 40.9003 354.78C40.9003 354.564 40.9363 354.432 40.9363 354.432C41.2723 354.408 42.0043 354.336 42.7483 353.88C43.4323 353.472 44.4523 352.704 44.4523 352.404C44.4523 352.368 44.4403 352.344 44.4043 352.32C44.1163 352.128 43.7683 352.044 43.3723 352.044C42.1123 352.044 40.5643 352.968 40.2523 354.324C40.2163 354.468 40.2043 354.612 40.2043 354.756C40.2043 355.644 40.7563 356.592 41.5363 356.952C41.6923 357.024 41.8723 357.06 42.0643 357.06C43.4203 357.06 45.3523 355.296 45.6163 355.152C45.7723 355.044 45.8923 354.864 45.8923 354.696ZM54.6133 352.236C54.6133 352.008 54.3733 351.864 54.1813 351.864C53.8813 351.864 53.7733 352.284 53.7253 352.44C53.7013 352.584 50.9053 356.112 50.9053 356.112C50.5813 355.08 50.4733 354.66 50.3413 354.072C50.1853 353.388 50.0293 352.428 49.9213 352.344C49.8373 352.284 49.7173 352.26 49.5973 352.26C49.4293 352.26 49.2613 352.308 49.2013 352.404C49.1053 352.572 48.6613 353.04 48.2053 353.58C47.5693 354.312 47.0533 355.476 47.0533 355.476C47.0053 355.128 46.9933 354.888 46.9933 354.672C46.9933 354.456 47.0053 354.264 47.0053 354.036C47.0053 353.856 47.0053 353.652 46.9813 353.388C46.9453 352.896 47.0293 352.728 46.7893 352.536C46.7293 352.488 46.6333 352.452 46.5373 352.452C46.3093 352.452 46.2133 352.644 46.2133 352.824C46.2133 353.076 46.2973 353.58 46.3333 354.528C46.4053 356.16 46.2853 357.096 46.7533 357.096C47.3293 357.096 47.6893 355.716 47.9773 355.128C48.3973 354.264 49.4773 353.1 49.4773 353.1C49.5973 353.544 49.6933 354.048 49.7893 354.456C49.9813 355.284 50.4373 356.88 50.5093 357.012C50.5573 357.096 50.7133 357.132 50.8453 357.132C50.9173 357.132 50.9773 357.12 51.0133 357.108C51.1573 357.072 51.9373 355.968 52.3453 355.404C53.3653 353.988 54.2173 352.884 54.3133 352.788C54.4813 352.632 54.6133 352.428 54.6133 352.236ZM57.4736 352.62C57.1016 352.956 56.8976 353.088 56.5856 353.268C55.8416 353.724 55.1696 353.76 55.1696 353.76C55.1696 353.76 55.5416 353.268 56.1536 352.956C56.5856 352.728 57.0296 352.62 57.4736 352.62ZM59.8376 354.696C59.8376 354.492 59.6576 354.312 59.4776 354.312C59.2736 354.312 59.1416 354.624 59.0696 354.756C58.9496 354.924 57.0896 356.448 56.1416 356.448C55.6136 356.448 55.3856 356.16 55.1696 355.812C54.9056 355.404 54.8456 355.032 54.8456 354.78C54.8456 354.564 54.8816 354.432 54.8816 354.432C55.2176 354.408 55.9496 354.336 56.6936 353.88C57.3776 353.472 58.3976 352.704 58.3976 352.404C58.3976 352.368 58.3856 352.344 58.3496 352.32C58.0616 352.128 57.7136 352.044 57.3176 352.044C56.0576 352.044 54.5096 352.968 54.1976 354.324C54.1616 354.468 54.1496 354.612 54.1496 354.756C54.1496 355.644 54.7016 356.592 55.4816 356.952C55.6376 357.024 55.8176 357.06 56.0096 357.06C57.3656 357.06 59.2976 355.296 59.5616 355.152C59.7176 355.044 59.8376 354.864 59.8376 354.696ZM65.1215 352.224C65.1215 352.08 65.0255 351.936 64.9535 351.912C64.7495 351.84 64.5695 351.816 64.4015 351.816C63.6815 351.816 63.1895 352.368 62.7455 352.788C61.9775 353.496 61.1495 354.6 61.1495 354.6C61.1495 353.796 61.1495 353.568 61.1375 353.148C61.1135 352.416 61.0775 352.14 60.8975 351.972C60.8015 351.888 60.7175 351.852 60.6335 351.852C60.5135 351.852 60.2735 351.996 60.2735 352.128C60.2735 352.272 60.5375 352.524 60.5375 354.024C60.5375 354.264 60.5255 354.528 60.5135 354.84C60.4655 355.764 60.3215 356.376 60.3215 356.736C60.3215 356.892 60.3455 357 60.4175 357.072C60.5015 357.156 60.6215 357.216 60.7415 357.216C60.8375 357.216 60.9335 357.18 61.0055 357.084C61.1615 356.88 61.0055 355.956 61.4495 355.284C62.3135 353.976 63.2255 352.956 63.9815 352.512C64.1015 352.44 64.2095 352.416 64.2935 352.416C64.4855 352.416 64.6175 352.524 64.7735 352.524C64.9535 352.524 65.1215 352.38 65.1215 352.224ZM69.06 353.412C69.06 352.956 68.964 352.476 68.772 352.404C68.724 352.38 68.676 352.38 68.64 352.38C68.388 352.38 68.34 352.752 68.184 352.944C67.212 354.084 66.228 355.26 65.928 355.26C65.844 355.26 65.832 355.128 65.832 355.056C65.832 354.024 66.264 353.076 66.312 352.092C66.3 351.9 66.036 351.72 65.904 351.72C65.544 351.72 65.52 352.704 65.496 352.848C65.34 353.832 65.172 354.852 65.172 355.524C65.172 355.992 65.256 356.304 65.52 356.304C66.24 356.316 68.328 353.676 68.328 353.676C68.292 355.476 68.208 356.352 68.04 357.996C67.8 360.408 67.656 361.788 67.572 361.812C67.524 361.824 67.428 362.016 67.428 362.196C67.428 362.388 67.536 362.58 67.908 362.58C68.22 362.58 68.34 362.436 68.34 362.256C68.34 362.064 68.22 361.836 68.172 361.776C68.16 361.764 68.16 361.74 68.16 361.692C68.16 361.44 68.304 360.672 68.472 359.208C68.7 357.216 68.952 354.468 69.036 353.796C69.048 353.676 69.06 353.544 69.06 353.412Z" fill="#005573"/>
<path d="M284.5 220.5H383.5V269.5H284.5V220.5Z" stroke="#9B9B0F"/>
<path d="M312.768 239.176C312.756 240.34 307.632 242.332 307.632 242.332L307.716 240.808C307.74 240.328 307.812 239.32 307.812 239.32C308.208 239.296 308.616 239.26 308.94 239.188C309.192 239.128 310.704 238.924 311.76 238.924C312.336 238.924 312.768 238.984 312.768 239.176ZM313.632 239.044C313.632 238.912 313.584 238.78 313.5 238.66C313.32 238.42 312.672 238.336 311.88 238.336C310.38 238.336 308.364 238.624 308.016 238.624C307.704 238.588 307.728 238.408 307.428 238.408C307.188 238.408 306.972 238.696 306.972 238.936C306.972 238.972 306.984 239.02 306.996 239.056C307.044 239.188 307.068 239.488 307.068 239.836C307.068 240.184 307.044 240.592 307.032 240.904C306.996 241.54 306.876 242.98 306.876 242.98C306.804 243.076 306.804 243.16 306.804 243.22C306.804 243.292 306.876 243.448 306.876 243.448C306.792 244.9 306.816 245.62 306.756 246.304C306.744 246.424 306.732 246.544 306.732 246.652C306.732 246.892 306.852 247.072 307.08 247.072C307.272 247.072 307.5 246.94 307.5 246.532C307.5 246.448 307.488 246.34 307.464 246.22C307.44 246.112 307.428 245.908 307.428 245.644C307.428 244.708 307.548 243.1 307.548 243.1C309 242.488 313.632 240.436 313.632 239.044ZM313.232 242.8C313.892 242.8 314.18 243.568 314.18 244.096C314.18 244.516 314.036 244.936 313.832 245.332C313.604 245.764 312.848 246.424 312.296 246.424C311.744 246.424 311.516 245.644 311.516 245.212C311.516 245.044 311.54 244.876 311.588 244.744C312.2 242.932 313.136 242.8 313.232 242.8ZM314.78 244.24C314.78 244.108 314.768 243.988 314.756 243.844C314.624 242.536 313.616 242.116 313.136 242.116C312.44 242.116 311.744 242.752 311.072 244.276C310.928 244.6 310.868 244.912 310.868 245.224C310.868 246.016 311.312 247.048 312.164 247.048C313.172 247.048 314.78 245.956 314.78 244.24ZM317.009 238.768C317.009 238.6 316.973 238.516 316.913 238.444C316.793 238.312 316.697 238.264 316.613 238.264C316.505 238.264 316.433 238.336 316.349 238.408C316.193 238.54 316.157 239.572 316.013 241.132C315.869 242.596 315.617 245.176 315.617 246.604C315.617 247.144 315.665 247.528 315.761 247.588C315.869 247.672 315.965 247.696 316.049 247.696C316.289 247.696 316.337 247.348 316.337 247.084C316.337 246.676 316.301 246.244 316.301 245.86C316.301 244.9 316.361 243.748 316.505 242.62C316.805 240.1 317.009 239.188 317.009 238.768ZM319.192 242.548C319.192 242.272 319.024 242.092 318.82 242.092C318.4 242.116 318.448 242.8 318.412 243.46C318.352 244.612 318.292 245.476 318.292 246.052C318.292 246.484 318.328 246.748 318.436 246.832C318.532 246.904 318.64 246.94 318.724 246.94C318.964 246.94 319.048 246.748 319.048 246.544C319.048 246.328 318.904 246.304 318.904 245.764V245.536C318.904 245.068 319.192 242.956 319.192 242.548ZM319.216 238.564C319.216 238.372 319.084 238.228 318.916 238.228C318.604 238.228 318.7 238.504 318.448 239.02C318.304 239.332 318.244 239.608 318.244 239.824C318.244 239.992 318.28 240.232 318.46 240.232C318.544 240.232 318.616 240.184 318.676 240.124C318.796 240.004 318.712 239.8 318.892 239.356C319.048 238.972 319.204 238.768 319.216 238.612V238.564ZM326.72 244.756C326.72 244.624 326.612 244.492 326.468 244.492C326.432 244.492 326.396 244.504 326.36 244.516C326.228 244.564 323.36 246.448 321.848 246.448C321.332 246.448 320.924 246.16 320.924 245.656C320.924 244.612 322.484 243.016 322.76 242.932C322.784 242.92 322.82 242.92 322.856 242.92C323 242.92 323.132 242.98 323.252 242.98C323.48 242.98 323.732 242.62 323.732 242.404C323.732 242.236 323.612 242.116 323.324 242.116C323.264 242.116 323.192 242.116 323.12 242.128C322.076 242.284 320.264 244.372 320.264 245.764C320.264 246.604 321.056 247 321.764 247C323.72 247 326.708 244.912 326.72 244.804V244.756ZM330.665 243.412C330.665 242.956 330.569 242.476 330.377 242.404C330.329 242.38 330.281 242.38 330.245 242.38C329.993 242.38 329.945 242.752 329.789 242.944C328.817 244.084 327.833 245.26 327.533 245.26C327.449 245.26 327.437 245.128 327.437 245.056C327.437 244.024 327.869 243.076 327.917 242.092C327.905 241.9 327.641 241.72 327.509 241.72C327.149 241.72 327.125 242.704 327.101 242.848C326.945 243.832 326.777 244.852 326.777 245.524C326.777 245.992 326.861 246.304 327.125 246.304C327.845 246.316 329.933 243.676 329.933 243.676C329.897 245.476 329.813 246.352 329.645 247.996C329.405 250.408 329.261 251.788 329.177 251.812C329.129 251.824 329.033 252.016 329.033 252.196C329.033 252.388 329.141 252.58 329.513 252.58C329.825 252.58 329.945 252.436 329.945 252.256C329.945 252.064 329.825 251.836 329.777 251.776C329.765 251.764 329.765 251.74 329.765 251.692C329.765 251.44 329.909 250.672 330.077 249.208C330.305 247.216 330.557 244.468 330.641 243.796C330.653 243.676 330.665 243.544 330.665 243.412ZM338.124 244.516C338.088 242.236 332.088 242.716 332.088 241.348C332.088 240.292 334.86 239.236 336.012 239.236C336.336 239.236 336.468 239.62 336.732 239.62C336.96 239.62 337.14 239.476 337.14 239.356C337.14 239.32 337.14 239.296 337.116 239.272C336.852 238.9 336.78 238.54 335.868 238.54C334.704 238.54 331.308 239.728 331.308 241.54C331.308 243.34 337.428 242.668 337.428 244.66C337.428 245.5 334.956 246.856 334.02 246.988C333.804 247.024 333.48 247.192 333.48 247.516C333.48 247.84 333.792 247.924 334.044 247.924C334.296 247.924 334.548 247.828 334.596 247.54C334.632 247.336 338.124 246.22 338.124 244.516ZM341.978 242.62C341.605 242.956 341.402 243.088 341.09 243.268C340.346 243.724 339.674 243.76 339.674 243.76C339.674 243.76 340.046 243.268 340.658 242.956C341.09 242.728 341.534 242.62 341.978 242.62ZM344.342 244.696C344.342 244.492 344.162 244.312 343.982 244.312C343.778 244.312 343.646 244.624 343.574 244.756C343.454 244.924 341.594 246.448 340.646 246.448C340.118 246.448 339.89 246.16 339.674 245.812C339.41 245.404 339.35 245.032 339.35 244.78C339.35 244.564 339.386 244.432 339.386 244.432C339.722 244.408 340.454 244.336 341.198 243.88C341.882 243.472 342.902 242.704 342.902 242.404C342.902 242.368 342.89 242.344 342.854 242.32C342.566 242.128 342.218 242.044 341.822 242.044C340.562 242.044 339.014 242.968 338.702 244.324C338.666 244.468 338.654 244.612 338.654 244.756C338.654 245.644 339.206 246.592 339.986 246.952C340.142 247.024 340.322 247.06 340.514 247.06C341.87 247.06 343.802 245.296 344.066 245.152C344.222 245.044 344.342 244.864 344.342 244.696ZM349.452 241.912C349.428 241.576 348.996 241.588 348.744 241.576C348.636 241.576 348.528 241.564 348.42 241.564C347.568 241.564 346.848 241.72 346.848 241.72C346.956 240.94 347.028 240.748 347.1 240.028C347.124 239.776 347.136 239.56 347.136 239.38C347.136 238.744 346.992 238.516 346.764 238.516C346.536 238.516 346.488 238.732 346.488 238.984C346.488 239.152 346.512 239.32 346.512 239.524C346.512 239.932 346.224 241.828 346.224 241.828C345.504 242.02 345.348 242.08 344.664 242.344C344.004 242.596 343.98 242.68 343.92 242.86C343.908 242.896 343.908 242.92 343.908 242.944C343.908 243.112 344.148 243.292 344.28 243.292C344.496 243.292 344.904 242.92 345.108 242.824C345.54 242.62 346.128 242.488 346.128 242.488C346.068 243.004 346.02 243.244 345.936 244.096C345.804 245.32 345.804 246.064 345.804 246.604C345.804 246.796 345.864 247.24 346.224 247.264H346.272C346.5 247.264 346.56 247.132 346.56 246.976C346.56 246.832 346.5 246.664 346.5 246.616C346.488 246.436 346.488 246.232 346.488 246.028C346.488 244.432 346.74 242.5 346.752 242.356C347.184 242.26 348.012 242.092 348.756 242.092C348.852 242.092 349.02 242.128 349.164 242.128C349.32 242.128 349.452 242.092 349.452 241.912ZM354.484 238.564C354.484 238.372 354.352 238.228 354.184 238.228C353.872 238.228 353.968 238.504 353.716 239.02C353.572 239.332 353.512 239.608 353.512 239.824C353.512 239.992 353.548 240.232 353.728 240.232C353.812 240.232 353.884 240.172 353.944 240.112C354.064 239.992 353.98 239.8 354.16 239.356C354.316 238.972 354.472 238.768 354.484 238.612V238.564ZM353.704 242.128C353.44 242.284 353.476 242.884 353.44 243.46C353.38 244.612 353.32 245.476 353.32 246.052C353.32 246.484 353.356 246.748 353.464 246.832C353.56 246.904 353.668 246.94 353.752 246.94C353.992 246.94 354.076 246.748 354.076 246.544C354.076 246.328 353.932 246.304 353.932 245.764V245.536C353.932 245.068 354.22 242.956 354.22 242.548C354.22 242.296 354.076 242.116 353.896 242.092C353.956 242.068 353.992 242.008 353.992 241.912C353.968 241.612 353.584 241.612 353.284 241.588C353.176 241.576 352.852 241.564 352.744 241.564C351.892 241.564 351.172 241.72 351.172 241.72C351.28 240.94 351.352 240.748 351.424 240.028C351.448 239.776 351.46 239.56 351.46 239.38C351.46 238.744 351.316 238.516 351.088 238.516C350.86 238.516 350.812 238.732 350.812 238.984C350.812 239.152 350.836 239.32 350.836 239.452V239.524C350.716 240.844 350.548 241.828 350.548 241.828C349.828 242.02 349.672 242.08 348.988 242.344C348.328 242.596 348.304 242.692 348.244 242.872C348.232 242.896 348.232 242.92 348.232 242.944C348.232 243.112 348.4 243.244 348.604 243.292C348.82 243.292 349.228 242.92 349.432 242.824C349.864 242.62 350.452 242.488 350.452 242.488C350.392 243.004 350.344 243.244 350.26 244.096C350.128 245.32 350.128 246.064 350.128 246.604C350.128 246.796 350.188 247.24 350.548 247.264H350.596C350.824 247.264 350.884 247.132 350.884 246.976C350.884 246.832 350.824 246.664 350.824 246.616C350.812 246.436 350.812 246.232 350.812 246.028C350.812 244.432 351.064 242.5 351.076 242.356C351.508 242.26 352.336 242.092 353.296 242.092C353.392 242.092 353.56 242.128 353.704 242.128ZM359.068 247.3C359.068 247.108 358.948 246.88 358.864 246.712C358.84 246.628 358.828 246.412 358.828 245.932V244.552C358.828 242.992 358.768 241.876 358.204 241.756H358.156C357.412 241.756 356.14 244.516 356.14 244.516C356.128 244.42 356.128 244.348 356.128 244.288C356.128 244.132 356.152 243.988 356.152 243.64C356.152 242.944 356.272 242.488 356.272 242.224C356.272 242.128 356.26 242.068 356.224 242.02C356.152 241.924 355.996 241.828 355.84 241.828C355.72 241.828 355.612 241.9 355.576 242.104C355.552 242.272 355.444 243.136 355.42 244.264C355.396 245.56 355.324 246.256 355.324 246.64C355.324 246.832 355.348 246.952 355.396 247.036C355.48 247.144 355.576 247.18 355.66 247.18C355.744 247.18 355.828 247.144 355.888 247.12C356.032 247.012 356.02 246.7 356.38 245.728C356.92 244.264 357.808 242.608 358.024 242.608C358.168 242.608 358.18 243.58 358.18 243.724L358.168 244.888C358.168 245.968 358.288 246.532 358.288 246.784C358.288 246.904 358.252 246.976 358.252 247.06C358.252 247.384 358.552 247.6 358.792 247.6C358.972 247.6 359.068 247.444 359.068 247.3ZM364.041 249.016C364.041 249.808 363.729 250.672 363.105 251.668C362.649 252.388 361.749 253.06 360.861 253.06C360.057 253.06 359.193 252.388 359.193 251.572C359.193 251.128 359.421 250.636 359.877 250.084C361.341 248.296 363.849 247.936 363.849 247.936C363.969 248.284 364.041 248.644 364.041 249.016ZM363.093 244.384C363.093 244.984 362.145 245.536 361.629 245.752C361.281 245.896 360.789 245.992 360.789 245.992C360.789 245.992 360.693 245.74 360.693 245.512C360.693 245.224 361.065 244.384 362.181 243.388C362.649 243.472 363.093 243.88 363.093 244.384ZM368.097 247.732C368.097 247.708 368.085 247.672 368.073 247.648C367.857 247.204 366.933 247.156 366.153 247.156C365.325 247.156 364.221 247.276 364.221 247.276C363.957 246.892 363.849 246.688 363.369 246.352C362.949 246.052 362.541 245.956 362.541 245.956C363.165 245.464 363.669 245.032 363.669 244.36C363.669 243.892 363.357 243.508 363.045 243.22C363.657 243.148 364.185 242.992 364.689 242.992C364.917 242.992 365.061 243.016 365.145 243.016C365.277 243.016 365.373 242.872 365.373 242.776C365.373 242.668 365.241 242.584 365.085 242.536C365.037 242.524 364.953 242.512 364.845 242.512C364.161 242.512 362.493 242.8 361.821 242.8C361.689 242.8 361.593 242.788 361.557 242.764C361.461 242.692 361.389 242.656 361.317 242.656C361.149 242.656 361.065 242.836 361.053 242.968C361.053 243.148 361.389 243.34 361.389 243.34C360.573 244.324 360.045 244.828 360.045 245.464C360.045 245.824 360.189 246.148 360.189 246.148C359.961 246.22 359.649 246.316 359.649 246.58C359.649 246.76 359.877 246.88 360.033 246.88C360.357 246.88 360.765 246.484 361.797 246.484C361.905 246.484 362.013 246.484 362.145 246.496C363.153 246.58 363.609 247.396 363.609 247.396C361.893 247.804 360.789 248.164 359.361 249.724C358.797 250.336 358.557 250.984 358.557 251.572C358.557 252.856 359.793 253.708 360.885 253.708C362.277 253.708 363.429 252.484 363.897 251.56C364.497 250.372 364.653 249.46 364.653 248.836C364.653 248.152 364.473 247.804 364.473 247.804C365.109 247.708 365.865 247.648 366.489 247.648C366.765 247.648 366.945 247.66 366.945 247.66C367.077 247.828 367.005 247.984 367.485 247.984C367.773 247.984 368.097 247.912 368.097 247.732ZM369.196 241.336V241.288C369.184 241.144 368.764 240.928 368.608 240.856C368.536 240.82 368.44 240.796 368.332 240.796C368.176 240.796 367.984 240.844 367.84 240.964C367.048 241.624 365.536 242.752 365.536 244.072C365.536 245.872 368.296 245.752 368.464 246.34C368.464 246.772 366.724 247.36 366.652 247.48C366.604 247.54 366.58 247.6 366.58 247.66C366.58 247.828 366.76 247.972 367.012 247.984C367.192 247.984 369.16 246.952 369.16 246.46C369.16 245.716 368.476 245.596 367.744 245.308C366.952 245.008 366.16 244.768 366.16 244.072C366.16 243.7 366.46 243.004 367 242.524C367.948 241.672 368.08 241.42 368.488 241.408C368.584 241.408 368.716 241.552 368.944 241.552C369.124 241.552 369.196 241.456 369.196 241.336Z" fill="#005573"/>
<path d="M417.5 219.5H541.5V268.5H417.5V219.5Z" stroke="#9B9B0F"/>
<path d="M432.768 239.176C432.756 240.34 427.632 242.332 427.632 242.332L427.716 240.808C427.74 240.328 427.812 239.32 427.812 239.32C428.208 239.296 428.616 239.26 428.94 239.188C429.192 239.128 430.704 238.924 431.76 238.924C432.336 238.924 432.768 238.984 432.768 239.176ZM433.632 239.044C433.632 238.912 433.584 238.78 433.5 238.66C433.32 238.42 432.672 238.336 431.88 238.336C430.38 238.336 428.364 238.624 428.016 238.624C427.704 238.588 427.728 238.408 427.428 238.408C427.188 238.408 426.972 238.696 426.972 238.936C426.972 238.972 426.984 239.02 426.996 239.056C427.044 239.188 427.068 239.488 427.068 239.836C427.068 240.184 427.044 240.592 427.032 240.904C426.996 241.54 426.876 242.98 426.876 242.98C426.804 243.076 426.804 243.16 426.804 243.22C426.804 243.292 426.876 243.448 426.876 243.448C426.792 244.9 426.816 245.62 426.756 246.304C426.744 246.424 426.732 246.544 426.732 246.652C426.732 246.892 426.852 247.072 427.08 247.072C427.272 247.072 427.5 246.94 427.5 246.532C427.5 246.448 427.488 246.34 427.464 246.22C427.44 246.112 427.428 245.908 427.428 245.644C427.428 244.708 427.548 243.1 427.548 243.1C429 242.488 433.632 240.436 433.632 239.044ZM434.192 242.62C433.82 242.956 433.616 243.088 433.304 243.268C432.56 243.724 431.888 243.76 431.888 243.76C431.888 243.76 432.26 243.268 432.872 242.956C433.304 242.728 433.748 242.62 434.192 242.62ZM436.556 244.696C436.556 244.492 436.376 244.312 436.196 244.312C435.992 244.312 435.86 244.624 435.788 244.756C435.668 244.924 433.808 246.448 432.86 246.448C432.332 246.448 432.104 246.16 431.888 245.812C431.624 245.404 431.564 245.032 431.564 244.78C431.564 244.564 431.6 244.432 431.6 244.432C431.936 244.408 432.668 244.336 433.412 243.88C434.096 243.472 435.116 242.704 435.116 242.404C435.116 242.368 435.104 242.344 435.068 242.32C434.78 242.128 434.432 242.044 434.036 242.044C432.776 242.044 431.228 242.968 430.916 244.324C430.88 244.468 430.868 244.612 430.868 244.756C430.868 245.644 431.42 246.592 432.2 246.952C432.356 247.024 432.536 247.06 432.728 247.06C434.084 247.06 436.016 245.296 436.28 245.152C436.436 245.044 436.556 244.864 436.556 244.696ZM441.84 242.224C441.84 242.08 441.744 241.936 441.672 241.912C441.468 241.84 441.288 241.816 441.12 241.816C440.4 241.816 439.908 242.368 439.464 242.788C438.696 243.496 437.868 244.6 437.868 244.6C437.868 243.796 437.868 243.568 437.856 243.148C437.832 242.416 437.796 242.14 437.616 241.972C437.52 241.888 437.436 241.852 437.352 241.852C437.232 241.852 436.992 241.996 436.992 242.128C436.992 242.272 437.256 242.524 437.256 244.024C437.256 244.264 437.244 244.528 437.232 244.84C437.184 245.764 437.04 246.376 437.04 246.736C437.04 246.892 437.064 247 437.136 247.072C437.22 247.156 437.34 247.216 437.46 247.216C437.556 247.216 437.652 247.18 437.724 247.084C437.88 246.88 437.724 245.956 438.168 245.284C439.032 243.976 439.944 242.956 440.7 242.512C440.82 242.44 440.928 242.416 441.012 242.416C441.204 242.416 441.336 242.524 441.492 242.524C441.672 242.524 441.84 242.38 441.84 242.224ZM445.796 239.008C445.796 238.54 444.968 238.444 444.692 238.444C443.66 238.444 442.424 239.236 442.424 242.968C442.424 243.22 442.412 243.448 442.412 243.652C441.596 243.82 441.332 244.072 441.116 244.3C441.032 244.384 440.996 244.468 440.996 244.552C440.996 244.768 441.2 244.96 441.404 244.96C441.512 244.96 441.62 244.9 441.716 244.78C441.956 244.42 442.052 244.372 442.424 244.3C442.424 245.428 442.412 245.98 442.244 247.36C442.052 248.98 441.716 250.216 441.632 250.324C441.548 250.42 441.5 250.552 441.5 250.672C441.5 250.948 441.716 251.056 441.944 251.056C442.208 251.056 442.34 250.828 442.34 250.66C442.34 250.564 442.328 250.54 442.328 250.516C442.328 250.204 442.676 248.932 442.916 247.324C443.06 246.292 443.084 245.248 443.084 244.156C443.66 244.06 443.96 244.108 444.944 244.072C445.172 244.06 445.484 244.036 445.496 243.712C445.496 243.472 445.292 243.316 445.088 243.316C445.016 243.316 444.956 243.328 444.896 243.376C444.692 243.52 444.2 243.376 443.072 243.532C443.072 243.256 443.048 243.052 443.048 242.848C443.048 240.796 443.504 239.02 444.632 239.02C444.776 239.02 444.932 239.044 445.124 239.116C445.316 239.188 445.376 239.284 445.544 239.284C445.652 239.284 445.796 239.212 445.796 239.008ZM447.635 242.8C448.295 242.8 448.583 243.568 448.583 244.096C448.583 244.516 448.439 244.936 448.235 245.332C448.007 245.764 447.251 246.424 446.699 246.424C446.147 246.424 445.919 245.644 445.919 245.212C445.919 245.044 445.943 244.876 445.991 244.744C446.603 242.932 447.539 242.8 447.635 242.8ZM449.183 244.24C449.183 244.108 449.171 243.988 449.159 243.844C449.027 242.536 448.019 242.116 447.539 242.116C446.843 242.116 446.147 242.752 445.475 244.276C445.331 244.6 445.271 244.912 445.271 245.224C445.271 246.016 445.715 247.048 446.567 247.048C447.575 247.048 449.183 245.956 449.183 244.24ZM454.801 242.224C454.801 242.08 454.705 241.936 454.633 241.912C454.429 241.84 454.249 241.816 454.081 241.816C453.361 241.816 452.869 242.368 452.425 242.788C451.657 243.496 450.829 244.6 450.829 244.6C450.829 243.796 450.829 243.568 450.817 243.148C450.793 242.416 450.757 242.14 450.577 241.972C450.481 241.888 450.397 241.852 450.313 241.852C450.193 241.852 449.953 241.996 449.953 242.128C449.953 242.272 450.217 242.524 450.217 244.024C450.217 244.264 450.205 244.528 450.193 244.84C450.145 245.764 450.001 246.376 450.001 246.736C450.001 246.892 450.025 247 450.097 247.072C450.181 247.156 450.301 247.216 450.421 247.216C450.517 247.216 450.613 247.18 450.685 247.084C450.841 246.88 450.685 245.956 451.129 245.284C451.993 243.976 452.905 242.956 453.661 242.512C453.781 242.44 453.889 242.416 453.973 242.416C454.165 242.416 454.297 242.524 454.453 242.524C454.633 242.524 454.801 242.38 454.801 242.224ZM461.488 246.46C461.488 246.28 461.368 246.04 461.368 245.872C461.368 245.776 461.38 245.404 461.38 244.924C461.38 244 461.356 242.68 461.248 242.284C461.176 242.008 460.804 241.564 460.54 241.564C459.664 241.684 458.188 245.116 458.188 245.116C458.104 243.112 457.996 242.164 457.876 241.984C457.768 241.78 457.492 241.552 457.3 241.552C456.856 241.552 456.052 243.304 456.052 243.304C455.98 242.776 455.92 242.704 455.764 242.536C455.704 242.476 455.62 242.44 455.536 242.44C455.284 242.44 455.164 242.632 455.164 242.836C455.164 243.052 455.212 243.376 455.212 243.796C455.212 243.928 455.2 244.084 455.188 244.252C455.164 244.54 454.996 245.908 454.996 246.676C454.996 246.928 455.008 247.108 455.056 247.18C455.104 247.264 455.236 247.3 455.368 247.3C455.524 247.3 455.752 247.228 455.752 247.072C455.752 246.988 455.716 246.88 455.716 246.652C455.716 246.544 455.728 246.412 455.752 246.244C456.016 244.624 456.952 242.596 457.288 242.596C457.3 242.596 457.312 242.596 457.324 242.608C457.48 242.704 457.528 243.928 457.588 245.692C457.636 246.952 457.528 247.204 458.02 247.324C458.044 247.324 458.056 247.336 458.068 247.336C458.38 247.336 458.32 246.496 458.992 244.864C459.568 243.46 460.36 242.308 460.48 242.308C460.732 242.308 460.78 243.592 460.78 243.652V243.7C460.78 244.048 460.744 244.708 460.744 245.308C460.744 245.872 460.78 246.4 460.876 246.592C460.936 246.7 461.044 246.748 461.14 246.748C461.32 246.748 461.488 246.652 461.488 246.46ZM464.666 245.98C464.666 245.98 463.862 246.652 463.274 246.652C462.974 246.652 462.866 246.484 462.866 246.22C462.866 245.62 463.37 244.972 463.97 244.972C464.366 244.972 464.666 245.98 464.666 245.98ZM465.866 244.396C465.866 243.46 465.626 242.5 464.798 241.984C464.606 241.864 464.378 241.816 464.126 241.816C463.43 241.816 462.65 242.224 462.65 242.632C462.662 242.848 462.866 242.932 462.998 242.932C463.058 242.932 463.094 242.92 463.094 242.872C463.118 242.704 463.586 242.38 464.066 242.38C465.014 242.38 465.266 243.724 465.266 244.42C465.266 245.068 465.074 245.512 465.074 245.512C464.894 244.96 464.594 244.372 463.934 244.372C463.01 244.372 462.302 245.464 462.302 246.268C462.302 246.844 462.65 247.216 463.25 247.216C463.994 247.216 464.846 246.616 464.846 246.616C464.846 246.616 464.882 246.82 464.954 246.892C465.014 246.964 465.122 246.988 465.206 246.988C465.266 246.988 465.326 246.976 465.35 246.94C465.41 246.904 465.866 245.668 465.866 244.396ZM470.584 247.3C470.584 247.108 470.464 246.88 470.38 246.712C470.356 246.628 470.344 246.412 470.344 245.932V244.552C470.344 242.992 470.284 241.876 469.72 241.756H469.672C468.928 241.756 467.656 244.516 467.656 244.516C467.644 244.42 467.644 244.348 467.644 244.288C467.644 244.132 467.668 243.988 467.668 243.64C467.668 242.944 467.788 242.488 467.788 242.224C467.788 242.128 467.776 242.068 467.74 242.02C467.668 241.924 467.512 241.828 467.356 241.828C467.236 241.828 467.128 241.9 467.092 242.104C467.068 242.272 466.96 243.136 466.936 244.264C466.912 245.56 466.84 246.256 466.84 246.64C466.84 246.832 466.864 246.952 466.912 247.036C466.996 247.144 467.092 247.18 467.176 247.18C467.26 247.18 467.344 247.144 467.404 247.12C467.548 247.012 467.536 246.7 467.896 245.728C468.436 244.264 469.324 242.608 469.54 242.608C469.684 242.608 469.696 243.58 469.696 243.724L469.684 244.888C469.684 245.968 469.804 246.532 469.804 246.784C469.804 246.904 469.768 246.976 469.768 247.06C469.768 247.384 470.068 247.6 470.308 247.6C470.488 247.6 470.584 247.444 470.584 247.3ZM477.505 244.756C477.505 244.624 477.397 244.492 477.253 244.492C477.217 244.492 477.181 244.504 477.145 244.516C477.013 244.564 474.145 246.448 472.633 246.448C472.117 246.448 471.709 246.16 471.709 245.656C471.709 244.612 473.269 243.016 473.545 242.932C473.569 242.92 473.605 242.92 473.641 242.92C473.785 242.92 473.917 242.98 474.037 242.98C474.265 242.98 474.517 242.62 474.517 242.404C474.517 242.236 474.397 242.116 474.109 242.116C474.049 242.116 473.977 242.116 473.905 242.128C472.861 242.284 471.049 244.372 471.049 245.764C471.049 246.604 471.841 247 472.549 247C474.505 247 477.493 244.912 477.505 244.804V244.756ZM480.388 242.62C480.016 242.956 479.812 243.088 479.5 243.268C478.756 243.724 478.084 243.76 478.084 243.76C478.084 243.76 478.456 243.268 479.068 242.956C479.5 242.728 479.944 242.62 480.388 242.62ZM482.752 244.696C482.752 244.492 482.572 244.312 482.392 244.312C482.188 244.312 482.056 244.624 481.984 244.756C481.864 244.924 480.004 246.448 479.056 246.448C478.528 246.448 478.3 246.16 478.084 245.812C477.82 245.404 477.76 245.032 477.76 244.78C477.76 244.564 477.796 244.432 477.796 244.432C478.132 244.408 478.864 244.336 479.608 243.88C480.292 243.472 481.312 242.704 481.312 242.404C481.312 242.368 481.3 242.344 481.264 242.32C480.976 242.128 480.628 242.044 480.232 242.044C478.972 242.044 477.424 242.968 477.112 244.324C477.076 244.468 477.064 244.612 477.064 244.756C477.064 245.644 477.616 246.592 478.396 246.952C478.552 247.024 478.732 247.06 478.924 247.06C480.28 247.06 482.212 245.296 482.476 245.152C482.632 245.044 482.752 244.864 482.752 244.696ZM491.9 244.336C491.9 244.108 491.696 243.94 491.492 243.94C491.252 243.94 490.988 244.096 490.88 244.144C490.616 244.264 487.184 246.244 485.144 246.244C484.76 246.244 484.424 246.172 484.16 246.004C483.692 245.704 483.5 245.272 483.5 244.78C483.5 242.8 486.656 239.8 488.192 239.476C488.456 239.416 488.828 239.344 488.828 239.056C488.828 238.768 488.66 238.66 488.432 238.66C488.18 238.66 487.892 238.78 487.796 238.816C485.792 239.62 482.828 242.5 482.828 244.744C482.828 245.404 483.092 246.016 483.704 246.496C484.04 246.76 484.496 246.868 485.012 246.868C487.244 246.868 490.676 244.84 491.204 244.768C491.204 244.768 491.9 244.696 491.9 244.336ZM493.678 242.8C494.338 242.8 494.626 243.568 494.626 244.096C494.626 244.516 494.482 244.936 494.278 245.332C494.05 245.764 493.294 246.424 492.742 246.424C492.19 246.424 491.962 245.644 491.962 245.212C491.962 245.044 491.986 244.876 492.034 244.744C492.646 242.932 493.582 242.8 493.678 242.8ZM495.226 244.24C495.226 244.108 495.214 243.988 495.202 243.844C495.07 242.536 494.062 242.116 493.582 242.116C492.886 242.116 492.19 242.752 491.518 244.276C491.374 244.6 491.314 244.912 491.314 245.224C491.314 246.016 491.758 247.048 492.61 247.048C493.618 247.048 495.226 245.956 495.226 244.24ZM499.74 247.3C499.74 247.108 499.62 246.88 499.536 246.712C499.512 246.628 499.5 246.412 499.5 245.932V244.552C499.5 242.992 499.44 241.876 498.876 241.756H498.828C498.084 241.756 496.812 244.516 496.812 244.516C496.8 244.42 496.8 244.348 496.8 244.288C496.8 244.132 496.824 243.988 496.824 243.64C496.824 242.944 496.944 242.488 496.944 242.224C496.944 242.128 496.932 242.068 496.896 242.02C496.824 241.924 496.668 241.828 496.512 241.828C496.392 241.828 496.284 241.9 496.248 242.104C496.224 242.272 496.116 243.136 496.092 244.264C496.068 245.56 495.996 246.256 495.996 246.64C495.996 246.832 496.02 246.952 496.068 247.036C496.152 247.144 496.248 247.18 496.332 247.18C496.416 247.18 496.5 247.144 496.56 247.12C496.704 247.012 496.692 246.7 497.052 245.728C497.592 244.264 498.48 242.608 498.696 242.608C498.84 242.608 498.852 243.58 498.852 243.724L498.84 244.888C498.84 245.968 498.96 246.532 498.96 246.784C498.96 246.904 498.924 246.976 498.924 247.06C498.924 247.384 499.224 247.6 499.464 247.6C499.644 247.6 499.74 247.444 499.74 247.3ZM505.534 241.912C505.51 241.576 505.078 241.588 504.826 241.576C504.718 241.576 504.61 241.564 504.502 241.564C503.65 241.564 502.93 241.72 502.93 241.72C503.038 240.94 503.11 240.748 503.182 240.028C503.206 239.776 503.218 239.56 503.218 239.38C503.218 238.744 503.074 238.516 502.846 238.516C502.618 238.516 502.57 238.732 502.57 238.984C502.57 239.152 502.594 239.32 502.594 239.524C502.594 239.932 502.306 241.828 502.306 241.828C501.586 242.02 501.43 242.08 500.746 242.344C500.086 242.596 500.062 242.68 500.002 242.86C499.99 242.896 499.99 242.92 499.99 242.944C499.99 243.112 500.23 243.292 500.362 243.292C500.578 243.292 500.986 242.92 501.19 242.824C501.622 242.62 502.21 242.488 502.21 242.488C502.15 243.004 502.102 243.244 502.018 244.096C501.886 245.32 501.886 246.064 501.886 246.604C501.886 246.796 501.946 247.24 502.306 247.264H502.354C502.582 247.264 502.642 247.132 502.642 246.976C502.642 246.832 502.582 246.664 502.582 246.616C502.57 246.436 502.57 246.232 502.57 246.028C502.57 244.432 502.822 242.5 502.834 242.356C503.266 242.26 504.094 242.092 504.838 242.092C504.934 242.092 505.102 242.128 505.246 242.128C505.402 242.128 505.534 242.092 505.534 241.912ZM510.5 242.224C510.5 242.08 510.404 241.936 510.332 241.912C510.128 241.84 509.948 241.816 509.78 241.816C509.06 241.816 508.568 242.368 508.124 242.788C507.356 243.496 506.528 244.6 506.528 244.6C506.528 243.796 506.528 243.568 506.516 243.148C506.492 242.416 506.456 242.14 506.276 241.972C506.18 241.888 506.096 241.852 506.012 241.852C505.892 241.852 505.652 241.996 505.652 242.128C505.652 242.272 505.916 242.524 505.916 244.024C505.916 244.264 505.904 244.528 505.892 244.84C505.844 245.764 505.7 246.376 505.7 246.736C505.7 246.892 505.724 247 505.796 247.072C505.88 247.156 506 247.216 506.12 247.216C506.216 247.216 506.312 247.18 506.384 247.084C506.54 246.88 506.384 245.956 506.828 245.284C507.692 243.976 508.604 242.956 509.36 242.512C509.48 242.44 509.588 242.416 509.672 242.416C509.864 242.416 509.996 242.524 510.152 242.524C510.332 242.524 510.5 242.38 510.5 242.224ZM512.053 242.8C512.713 242.8 513.001 243.568 513.001 244.096C513.001 244.516 512.857 244.936 512.653 245.332C512.425 245.764 511.669 246.424 511.117 246.424C510.565 246.424 510.337 245.644 510.337 245.212C510.337 245.044 510.361 244.876 510.409 244.744C511.021 242.932 511.957 242.8 512.053 242.8ZM513.601 244.24C513.601 244.108 513.589 243.988 513.577 243.844C513.445 242.536 512.437 242.116 511.957 242.116C511.261 242.116 510.565 242.752 509.893 244.276C509.749 244.6 509.689 244.912 509.689 245.224C509.689 246.016 510.133 247.048 510.985 247.048C511.993 247.048 513.601 245.956 513.601 244.24ZM515.829 238.768C515.829 238.6 515.793 238.516 515.733 238.444C515.613 238.312 515.517 238.264 515.433 238.264C515.325 238.264 515.253 238.336 515.169 238.408C515.013 238.54 514.977 239.572 514.833 241.132C514.689 242.596 514.437 245.176 514.437 246.604C514.437 247.144 514.485 247.528 514.581 247.588C514.689 247.672 514.785 247.696 514.869 247.696C515.109 247.696 515.157 247.348 515.157 247.084C515.157 246.676 515.121 246.244 515.121 245.86C515.121 244.9 515.181 243.748 515.325 242.62C515.625 240.1 515.829 239.188 515.829 238.768ZM518.384 238.768C518.384 238.6 518.348 238.516 518.288 238.444C518.168 238.312 518.072 238.264 517.988 238.264C517.88 238.264 517.808 238.336 517.724 238.408C517.568 238.54 517.532 239.572 517.388 241.132C517.244 242.596 516.992 245.176 516.992 246.604C516.992 247.144 517.04 247.528 517.136 247.588C517.244 247.672 517.34 247.696 517.424 247.696C517.664 247.696 517.712 247.348 517.712 247.084C517.712 246.676 517.676 246.244 517.676 245.86C517.676 244.9 517.736 243.748 517.88 242.62C518.18 240.1 518.384 239.188 518.384 238.768ZM520.567 242.548C520.567 242.272 520.399 242.092 520.195 242.092C519.775 242.116 519.823 242.8 519.787 243.46C519.727 244.612 519.667 245.476 519.667 246.052C519.667 246.484 519.703 246.748 519.811 246.832C519.907 246.904 520.015 246.94 520.099 246.94C520.339 246.94 520.423 246.748 520.423 246.544C520.423 246.328 520.279 246.304 520.279 245.764V245.536C520.279 245.068 520.567 242.956 520.567 242.548ZM520.591 238.564C520.591 238.372 520.459 238.228 520.291 238.228C519.979 238.228 520.075 238.504 519.823 239.02C519.679 239.332 519.619 239.608 519.619 239.824C519.619 239.992 519.655 240.232 519.835 240.232C519.919 240.232 519.991 240.184 520.051 240.124C520.171 240.004 520.087 239.8 520.267 239.356C520.423 238.972 520.579 238.768 520.591 238.612V238.564ZM525.779 247.3C525.779 247.108 525.659 246.88 525.575 246.712C525.551 246.628 525.539 246.412 525.539 245.932V244.552C525.539 242.992 525.479 241.876 524.915 241.756H524.867C524.123 241.756 522.851 244.516 522.851 244.516C522.839 244.42 522.839 244.348 522.839 244.288C522.839 244.132 522.863 243.988 522.863 243.64C522.863 242.944 522.983 242.488 522.983 242.224C522.983 242.128 522.971 242.068 522.935 242.02C522.863 241.924 522.707 241.828 522.551 241.828C522.431 241.828 522.323 241.9 522.287 242.104C522.263 242.272 522.155 243.136 522.131 244.264C522.107 245.56 522.035 246.256 522.035 246.64C522.035 246.832 522.059 246.952 522.107 247.036C522.191 247.144 522.287 247.18 522.371 247.18C522.455 247.18 522.539 247.144 522.599 247.12C522.743 247.012 522.731 246.7 523.091 245.728C523.631 244.264 524.519 242.608 524.735 242.608C524.879 242.608 524.891 243.58 524.891 243.724L524.879 244.888C524.879 245.968 524.999 246.532 524.999 246.784C524.999 246.904 524.963 246.976 524.963 247.06C524.963 247.384 525.263 247.6 525.503 247.6C525.683 247.6 525.779 247.444 525.779 247.3ZM530.752 249.016C530.752 249.808 530.44 250.672 529.816 251.668C529.36 252.388 528.46 253.06 527.572 253.06C526.768 253.06 525.904 252.388 525.904 251.572C525.904 251.128 526.132 250.636 526.588 250.084C528.052 248.296 530.56 247.936 530.56 247.936C530.68 248.284 530.752 248.644 530.752 249.016ZM529.804 244.384C529.804 244.984 528.856 245.536 528.34 245.752C527.992 245.896 527.5 245.992 527.5 245.992C527.5 245.992 527.404 245.74 527.404 245.512C527.404 245.224 527.776 244.384 528.892 243.388C529.36 243.472 529.804 243.88 529.804 244.384ZM534.808 247.732C534.808 247.708 534.796 247.672 534.784 247.648C534.568 247.204 533.644 247.156 532.864 247.156C532.036 247.156 530.932 247.276 530.932 247.276C530.668 246.892 530.56 246.688 530.08 246.352C529.66 246.052 529.252 245.956 529.252 245.956C529.876 245.464 530.38 245.032 530.38 244.36C530.38 243.892 530.068 243.508 529.756 243.22C530.368 243.148 530.896 242.992 531.4 242.992C531.628 242.992 531.772 243.016 531.856 243.016C531.988 243.016 532.084 242.872 532.084 242.776C532.084 242.668 531.952 242.584 531.796 242.536C531.748 242.524 531.664 242.512 531.556 242.512C530.872 242.512 529.204 242.8 528.532 242.8C528.4 242.8 528.304 242.788 528.268 242.764C528.172 242.692 528.1 242.656 528.028 242.656C527.86 242.656 527.776 242.836 527.764 242.968C527.764 243.148 528.1 243.34 528.1 243.34C527.284 244.324 526.756 244.828 526.756 245.464C526.756 245.824 526.9 246.148 526.9 246.148C526.672 246.22 526.36 246.316 526.36 246.58C526.36 246.76 526.588 246.88 526.744 246.88C527.068 246.88 527.476 246.484 528.508 246.484C528.616 246.484 528.724 246.484 528.856 246.496C529.864 246.58 530.32 247.396 530.32 247.396C528.604 247.804 527.5 248.164 526.072 249.724C525.508 250.336 525.268 250.984 525.268 251.572C525.268 252.856 526.504 253.708 527.596 253.708C528.988 253.708 530.14 252.484 530.608 251.56C531.208 250.372 531.364 249.46 531.364 248.836C531.364 248.152 531.184 247.804 531.184 247.804C531.82 247.708 532.576 247.648 533.2 247.648C533.476 247.648 533.656 247.66 533.656 247.66C533.788 247.828 533.716 247.984 534.196 247.984C534.484 247.984 534.808 247.912 534.808 247.732Z" fill="#005573"/>
<path d="M554.5 0.5H653.5V49.5H554.5V0.5Z" stroke="#9B9B0F"/>
<path d="M598.972 26.88C598.972 26.172 598.732 25.128 598.66 24.708C597.964 20.556 598.516 19.068 597.772 19.068H597.724C597.364 19.068 597.292 19.308 597.148 19.548C596.872 20.016 593.716 25.98 593.716 25.98C593.488 25.128 593.092 23.82 592.612 22.572C591.82 20.472 591.256 18.696 591.076 18.624C591.064 18.624 591.052 18.612 591.04 18.612C590.848 18.612 590.584 19.068 590.392 19.212C590.296 19.296 590.296 19.44 590.296 19.644V19.764C590.296 19.98 590.284 20.256 590.188 20.58C590.056 21 589.408 26.1 589.24 26.328C589.132 26.496 589 26.736 589 26.94C589 27.108 589.084 27.24 589.312 27.312C589.36 27.324 589.396 27.324 589.432 27.324C589.756 27.324 589.948 26.928 589.948 26.64C589.948 26.628 589.948 26.616 589.936 26.604C589.936 25.968 590.956 19.932 590.956 19.932C591.1 20.28 591.532 21.54 591.712 21.984C592.444 23.7 593.02 25.968 593.104 26.352C593.2 26.832 593.44 27.012 593.68 27.012C593.956 27.012 594.232 26.772 594.244 26.484C594.268 26.232 597.496 20.268 597.496 20.268C597.496 21.18 597.568 21.42 598.192 26.34C598.192 26.388 598.204 26.424 598.204 26.472C598.204 26.712 598.144 26.952 598.144 27.156C598.144 27.408 598.228 27.576 598.6 27.576H598.672C598.9 27.564 598.972 27.276 598.972 26.88ZM601.881 22.8C602.541 22.8 602.829 23.568 602.829 24.096C602.829 24.516 602.685 24.936 602.481 25.332C602.253 25.764 601.497 26.424 600.945 26.424C600.393 26.424 600.165 25.644 600.165 25.212C600.165 25.044 600.189 24.876 600.237 24.744C600.849 22.932 601.785 22.8 601.881 22.8ZM603.429 24.24C603.429 24.108 603.417 23.988 603.405 23.844C603.273 22.536 602.265 22.116 601.785 22.116C601.089 22.116 600.393 22.752 599.721 24.276C599.577 24.6 599.517 24.912 599.517 25.224C599.517 26.016 599.961 27.048 600.813 27.048C601.821 27.048 603.429 25.956 603.429 24.24ZM607.852 25.248C606.892 25.8 605.764 26.544 605.008 26.544C604.588 26.544 604.288 26.28 604.288 25.884C604.288 24.936 605.644 23.34 606.616 23.34C606.724 23.34 606.832 23.352 606.928 23.4C607.672 23.724 607.852 25.248 607.852 25.248ZM609.484 19.152C609.484 18.84 609.232 18.552 608.872 18.552C608.728 18.552 608.668 18.672 608.668 18.864C608.668 19.008 608.68 19.152 608.74 19.344C608.752 19.38 608.752 19.404 608.752 19.44C608.752 20.076 608.26 24.084 608.26 24.084C607.948 23.52 607.744 22.956 606.784 22.752C606.736 22.74 606.664 22.74 606.604 22.74C605.5 22.74 603.664 24.396 603.664 25.836C603.664 26.592 604.132 27.168 604.924 27.168C606.184 27.168 607.936 25.968 607.936 25.968C608.032 26.316 607.9 26.7 608.476 26.784C608.68 26.784 608.728 26.532 608.728 26.256C608.728 25.92 608.656 25.548 608.656 25.548C609.064 25.38 609.388 25.392 609.388 25.068C609.388 25.02 609.388 24.972 609.364 24.9C609.304 24.648 608.86 24.612 608.86 24.612C608.944 22.872 609.352 19.608 609.436 19.38C609.472 19.308 609.484 19.224 609.484 19.152ZM613.282 22.62C612.91 22.956 612.706 23.088 612.394 23.268C611.65 23.724 610.978 23.76 610.978 23.76C610.978 23.76 611.35 23.268 611.962 22.956C612.394 22.728 612.838 22.62 613.282 22.62ZM615.646 24.696C615.646 24.492 615.466 24.312 615.286 24.312C615.082 24.312 614.95 24.624 614.878 24.756C614.758 24.924 612.898 26.448 611.95 26.448C611.422 26.448 611.194 26.16 610.978 25.812C610.714 25.404 610.654 25.032 610.654 24.78C610.654 24.564 610.69 24.432 610.69 24.432C611.026 24.408 611.758 24.336 612.502 23.88C613.186 23.472 614.206 22.704 614.206 22.404C614.206 22.368 614.194 22.344 614.158 22.32C613.87 22.128 613.522 22.044 613.126 22.044C611.866 22.044 610.318 22.968 610.006 24.324C609.97 24.468 609.958 24.612 609.958 24.756C609.958 25.644 610.51 26.592 611.29 26.952C611.446 27.024 611.626 27.06 611.818 27.06C613.174 27.06 615.106 25.296 615.37 25.152C615.526 25.044 615.646 24.864 615.646 24.696ZM617.798 18.768C617.798 18.6 617.762 18.516 617.702 18.444C617.582 18.312 617.486 18.264 617.402 18.264C617.294 18.264 617.222 18.336 617.138 18.408C616.982 18.54 616.946 19.572 616.802 21.132C616.658 22.596 616.406 25.176 616.406 26.604C616.406 27.144 616.454 27.528 616.55 27.588C616.658 27.672 616.754 27.696 616.838 27.696C617.078 27.696 617.126 27.348 617.126 27.084C617.126 26.676 617.09 26.244 617.09 25.86C617.09 24.9 617.15 23.748 617.294 22.62C617.594 20.1 617.798 19.188 617.798 18.768Z" fill="#005573"/>
<path d="M604 50L601.113 55L606.887 55L604 50ZM604.5 110L604.5 54.5L603.5 54.5L603.5 110L604.5 110Z" fill="#005573"/>
<path d="M50 270L47.1132 275L52.8867 275L50 270ZM50.5 330L50.5 274.5L49.5 274.5L49.5 330L50.5 330Z" fill="#005573"/>
<line x1="48" y1="190.5" x2="480" y2="190.5" stroke="#005573"/>
<line x1="194.5" y1="220" x2="194.5" y2="191" stroke="#005573"/>
<line x1="194.5" y1="220" x2="194.5" y2="191" stroke="#005573"/>
<line x1="48.5" y1="220" x2="48.5" y2="191" stroke="#005573"/>
<line x1="48.5" y1="220" x2="48.5" y2="191" stroke="#005573"/>
<line x1="337.5" y1="220" x2="337.5" y2="191" stroke="#005573"/>
<line x1="337.5" y1="220" x2="337.5" y2="191" stroke="#005573"/>
<path d="M264.5 162L261.613 167L267.387 167L264.5 162ZM265 191L265 166.5L264 166.5L264 191L265 191Z" fill="#005573"/>
<line x1="479.5" y1="220" x2="479.5" y2="191" stroke="#005573"/>
<line x1="479.5" y1="220" x2="479.5" y2="191" stroke="#005573"/>
<path d="M555.354 137.854C555.549 137.658 555.549 137.342 555.354 137.146L552.172 133.964C551.976 133.769 551.66 133.769 551.464 133.964C551.269 134.16 551.269 134.476 551.464 134.672L554.293 137.5L551.464 140.328C551.269 140.524 551.269 140.84 551.464 141.036C551.66 141.231 551.976 141.231 552.172 141.036L555.354 137.854ZM314.646 137.146C314.451 137.342 314.451 137.658 314.646 137.854L317.828 141.036C318.024 141.231 318.34 141.231 318.536 141.036C318.731 140.84 318.731 140.524 318.536 140.328L315.707 137.5L318.536 134.672C318.731 134.476 318.731 134.16 318.536 133.964C318.34 133.769 318.024 133.769 317.828 133.964L314.646 137.146ZM555 137L554 137L554 138L555 138L555 137ZM552 137L550 137L550 138L552 138L552 137ZM548 137L546 137L546 138L548 138L548 137ZM544 137L542 137L542 138L544 138L544 137ZM540 137L538 137L538 138L540 138L540 137ZM536 137L534 137L534 138L536 138L536 137ZM532 137L530 137L530 138L532 138L532 137ZM528 137L526 137L526 138L528 138L528 137ZM524 137L522 137L522 138L524 138L524 137ZM520 137L518 137L518 138L520 138L520 137ZM516 137L514 137L514 138L516 138L516 137ZM512 137L510 137L510 138L512 138L512 137ZM508 137L506 137L506 138L508 138L508 137ZM504 137L502 137L502 138L504 138L504 137ZM500 137L498 137L498 138L500 138L500 137ZM496 137L494 137L494 138L496 138L496 137ZM492 137L490 137L490 138L492 138L492 137ZM488 137L486 137L486 138L488 138L488 137ZM484 137L482 137L482 138L484 138L484 137ZM480 137L478 137L478 138L480 138L480 137ZM476 137L474 137L474 138L476 138L476 137ZM472 137L470 137L470 138L472 138L472 137ZM468 137L466 137L466 138L468 138L468 137ZM464 137L462 137L462 138L464 138L464 137ZM460 137L458 137L458 138L460 138L460 137ZM456 137L454 137L454 138L456 138L456 137ZM452 137L450 137L450 138L452 138L452 137ZM448 137L446 137L446 138L448 138L448 137ZM444 137L442 137L442 138L444 138L444 137ZM440 137L438 137L438 138L440 138L440 137ZM436 137L434 137L434 138L436 138L436 137ZM432 137L430 137L430 138L432 138L432 137ZM428 137L426 137L426 138L428 138L428 137ZM424 137L422 137L422 138L424 138L424 137ZM420 137L418 137L418 138L420 138L420 137ZM416 137L414 137L414 138L416 138L416 137ZM412 137L410 137L410 138L412 138L412 137ZM408 137L406 137L406 138L408 138L408 137ZM404 137L402 137L402 138L404 138L404 137ZM400 137L398 137L398 138L400 138L400 137ZM396 137L394 137L394 138L396 138L396 137ZM392 137L390 137L390 138L392 138L392 137ZM388 137L386 137L386 138L388 138L388 137ZM384 137L382 137L382 138L384 138L384 137ZM380 137L378 137L378 138L380 138L380 137ZM376 137L374 137L374 138L376 138L376 137ZM372 137L370 137L370 138L372 138L372 137ZM368 137L366 137L366 138L368 138L368 137ZM364 137L362 137L362 138L364 138L364 137ZM360 137L358 137L358 138L360 138L360 137ZM356 137L354 137L354 138L356 138L356 137ZM352 137L350 137L350 138L352 138L352 137ZM348 137L346 137L346 138L348 138L348 137ZM344 137L342 137L342 138L344 138L344 137ZM340 137L338 137L338 138L340 138L340 137ZM336 137L334 137L334 138L336 138L336 137ZM332 137L330 137L330 138L332 138L332 137ZM328 137L326 137L326 138L328 138L328 137ZM324 137L322 137L322 138L324 138L324 137ZM320 137L318 137L318 138L320 138L320 137ZM316 137L315 137L315 138L316 138L316 137Z" fill="#005573"/>
</svg>
