<svg width="556" height="395" viewBox="0 0 556 395" fill="none" xmlns="http://www.w3.org/2000/svg">
<g clip-path="url(#clip0_1273_268)">
<rect width="556" height="395" fill="white"/>
<circle cx="391.5" cy="249.5" r="22" stroke="#33778F"/>
<circle cx="136.5" cy="242.5" r="22" stroke="#33778F"/>
<path d="M68 222.445C64.2914 223.523 63.1894 226.358 59.5001 227.5C54.837 228.944 50.855 224.505 47 227.5C43.44 230.266 46.2221 234.907 43.5 238.5C41.6583 240.931 38.6303 240.667 37.5 243.5C36.2509 246.631 37.018 249.273 39 252C41.2616 255.111 44.9498 253.657 48 256C50.302 257.768 50.5346 259.968 53 261.5C56.6823 263.789 59.6649 263.058 64 263C67.9486 262.947 70.4012 263.125 74 261.5C77.1684 260.069 78.1091 257.931 81 256C83.6181 254.251 85.7737 254.226 88 252C90.2264 249.774 92.0072 248.148 92 245C91.9905 240.849 86.6724 240.8 85.0001 237C83.7968 234.266 84.5914 232.28 83.5001 229.5C82.3062 226.459 81.7429 224.225 79.0031 222.445C75.3999 220.104 72.1262 221.245 68 222.445Z" stroke="#33778F"/>
<path d="M85.5 237.5H115" stroke="#33778F"/>
<path d="M92 246.5H115" stroke="#33778F"/>
<path d="M158 237.576L169 237.576L180 237.576L180 219.5L208 243.5L180 265.5L180 246.5L158.5 246.5" stroke="#33778F"/>
<path d="M413.5 245.886L463.37 245.886L463.37 227.81L491.37 251.81L463.37 273.81L463.37 254.81L413 254.81" stroke="#33778F"/>
<path d="M319.5 254H369.5" stroke="#33778F"/>
<path d="M319.325 246H370" stroke="#33778F"/>
<path d="M209 283L319 283.5" stroke="#33778F"/>
<path d="M209.5 283.501L209.5 212L319.036 212L319.036 283.501" stroke="#33778F"/>
<path d="M532 229C525.976 227.689 523.598 234.496 517.47 235.172C512.994 235.666 509.942 231.824 506 234C501.869 236.28 503.387 240.929 501 245C498.807 248.74 494.116 249.681 494.5 254C494.843 257.861 497.57 259.696 501 261.5C502.804 262.449 504.182 262.078 506 263C509.202 264.623 509.386 267.713 512.5 269.5C518.428 272.901 523.875 272.532 530 269.5C533.473 267.78 534.445 265.385 537.5 263C541.94 259.535 548.931 260.603 549.5 255C549.981 250.257 542.5 245 542.5 245C542.5 245 539.303 230.589 532 229Z" stroke="#33778F"/>
<line x1="131.5" y1="221" x2="131.5" y2="212" stroke="#33778F"/>
<line x1="142.5" y1="221" x2="142.5" y2="212" stroke="#33778F"/>
<rect x="118.5" y="199.5" width="37" height="12" rx="3.5" stroke="#33778F"/>
<rect x="372.5" y="206.5" width="37" height="12" rx="3.5" stroke="#33778F"/>
<line x1="385.5" y1="219" x2="385.5" y2="228" stroke="#33778F"/>
<line x1="396.5" y1="219" x2="396.5" y2="228" stroke="#33778F"/>
<path d="M13.1393 376.04V376.18C13.0593 378.38 8.0793 382.96 4.3993 382.96C2.5993 382.96 1.6993 381.94 1.6993 380.26C1.6993 377.98 3.2193 374.68 5.5193 372.82C5.6393 372.8 5.7993 373.26 6.2793 373.26C6.7993 373.26 7.1593 372.74 7.4393 372.64C7.4393 372.64 7.5393 372.64 7.7193 372.64C8.8993 372.64 13.1393 372.86 13.1393 376.04ZM14.3193 375.92C14.3193 373.58 12.4193 372.18 9.1193 371.56C9.1193 371.56 8.6993 370.9 7.2193 370.9H7.1193C4.3193 370.96 0.579297 376.44 0.579297 380.34C0.579297 381.84 1.1393 383.12 2.5193 383.76C3.0193 384 3.4993 384.08 4.1993 384.1H4.3593C8.0993 384.1 14.3193 379.08 14.3193 376.06V375.92ZM23.1251 376.04C23.1251 375.8 22.9651 375.56 22.8451 375.52C22.5051 375.4 22.2051 375.36 21.9251 375.36C20.7251 375.36 19.9051 376.28 19.1651 376.98C17.8851 378.16 16.5051 380 16.5051 380C16.5051 378.66 16.5051 378.28 16.4851 377.58C16.4451 376.36 16.3851 375.9 16.0851 375.62C15.9251 375.48 15.7851 375.42 15.6451 375.42C15.4451 375.42 15.0451 375.66 15.0451 375.88C15.0451 376.12 15.4851 376.54 15.4851 379.04C15.4851 379.44 15.4651 379.88 15.4451 380.4C15.3651 381.94 15.1251 382.96 15.1251 383.56C15.1251 383.82 15.1651 384 15.2851 384.12C15.4251 384.26 15.6251 384.36 15.8251 384.36C15.9851 384.36 16.1451 384.3 16.2651 384.14C16.5251 383.8 16.2651 382.26 17.0051 381.14C18.4451 378.96 19.9651 377.26 21.2251 376.52C21.4251 376.4 21.6051 376.36 21.7451 376.36C22.0651 376.36 22.2851 376.54 22.5451 376.54C22.8451 376.54 23.1251 376.3 23.1251 376.04ZM28.0266 381.08C26.4266 382 24.5466 383.24 23.2866 383.24C22.5866 383.24 22.0866 382.8 22.0866 382.14C22.0866 380.56 24.3466 377.9 25.9666 377.9C26.1466 377.9 26.3266 377.92 26.4866 378C27.7266 378.54 28.0266 381.08 28.0266 381.08ZM30.7466 370.92C30.7466 370.4 30.3266 369.92 29.7266 369.92C29.4866 369.92 29.3866 370.12 29.3866 370.44C29.3866 370.68 29.4066 370.92 29.5066 371.24C29.5266 371.3 29.5266 371.34 29.5266 371.4C29.5266 372.46 28.7066 379.14 28.7066 379.14C28.1866 378.2 27.8466 377.26 26.2466 376.92C26.1666 376.9 26.0466 376.9 25.9466 376.9C24.1066 376.9 21.0466 379.66 21.0466 382.06C21.0466 383.32 21.8266 384.28 23.1466 384.28C25.2466 384.28 28.1666 382.28 28.1666 382.28C28.3266 382.86 28.1066 383.5 29.0666 383.64C29.4066 383.64 29.4866 383.22 29.4866 382.76C29.4866 382.2 29.3666 381.58 29.3666 381.58C30.0466 381.3 30.5866 381.32 30.5866 380.78C30.5866 380.7 30.5866 380.62 30.5466 380.5C30.4466 380.08 29.7066 380.02 29.7066 380.02C29.8466 377.12 30.5266 371.68 30.6666 371.3C30.7266 371.18 30.7466 371.04 30.7466 370.92ZM37.0777 376.7C36.4577 377.26 36.1177 377.48 35.5977 377.78C34.3577 378.54 33.2377 378.6 33.2377 378.6C33.2377 378.6 33.8577 377.78 34.8777 377.26C35.5977 376.88 36.3377 376.7 37.0777 376.7ZM41.0177 380.16C41.0177 379.82 40.7177 379.52 40.4177 379.52C40.0777 379.52 39.8577 380.04 39.7377 380.26C39.5377 380.54 36.4377 383.08 34.8577 383.08C33.9777 383.08 33.5977 382.6 33.2377 382.02C32.7977 381.34 32.6977 380.72 32.6977 380.3C32.6977 379.94 32.7577 379.72 32.7577 379.72C33.3177 379.68 34.5377 379.56 35.7777 378.8C36.9177 378.12 38.6177 376.84 38.6177 376.34C38.6177 376.28 38.5977 376.24 38.5377 376.2C38.0577 375.88 37.4777 375.74 36.8177 375.74C34.7177 375.74 32.1377 377.28 31.6177 379.54C31.5577 379.78 31.5377 380.02 31.5377 380.26C31.5377 381.74 32.4577 383.32 33.7577 383.92C34.0177 384.04 34.3177 384.1 34.6377 384.1C36.8977 384.1 40.1177 381.16 40.5577 380.92C40.8177 380.74 41.0177 380.44 41.0177 380.16ZM49.8243 376.04C49.8243 375.8 49.6643 375.56 49.5443 375.52C49.2043 375.4 48.9043 375.36 48.6243 375.36C47.4243 375.36 46.6043 376.28 45.8643 376.98C44.5843 378.16 43.2043 380 43.2043 380C43.2043 378.66 43.2043 378.28 43.1843 377.58C43.1443 376.36 43.0843 375.9 42.7843 375.62C42.6243 375.48 42.4843 375.42 42.3443 375.42C42.1443 375.42 41.7443 375.66 41.7443 375.88C41.7443 376.12 42.1843 376.54 42.1843 379.04C42.1843 379.44 42.1643 379.88 42.1443 380.4C42.0643 381.94 41.8243 382.96 41.8243 383.56C41.8243 383.82 41.8643 384 41.9843 384.12C42.1243 384.26 42.3243 384.36 42.5243 384.36C42.6843 384.36 42.8443 384.3 42.9643 384.14C43.2243 383.8 42.9643 382.26 43.7043 381.14C45.1443 378.96 46.6643 377.26 47.9243 376.52C48.1243 376.4 48.3043 376.36 48.4443 376.36C48.7643 376.36 48.9843 376.54 49.2443 376.54C49.5443 376.54 49.8243 376.3 49.8243 376.04ZM68.9484 374.78C68.9484 375.14 68.8284 375.5 68.6884 375.78C67.2084 378.98 59.8084 382.9 59.8084 382.9C59.8084 382.9 59.4484 381.1 59.4484 379.12C59.4484 378.92 59.4684 378.7 59.4684 378.5C59.5484 376.32 59.7484 374 60.0884 371.18C60.0884 371.18 60.4884 371 61.9084 370.98H61.9884C64.8084 370.98 68.9484 372.5 68.9484 374.78ZM70.1484 374.7C70.1284 372.08 65.9684 369.98 61.5884 369.98H61.2884C59.4684 370.02 57.4084 370.48 56.7084 370.92C56.5284 371.04 56.4484 371.18 56.4484 371.34C56.4484 371.68 56.8284 372.02 57.1684 372.02H57.2484L58.7484 371.5C58.7484 371.5 58.4684 375.6 58.3884 377.4C58.3684 377.66 58.3684 377.94 58.3684 378.26C58.3684 380.34 58.6084 383.28 58.6084 383.28C58.5284 383.54 58.4284 383.82 58.4284 384.1C58.4284 384.36 58.5084 384.62 58.6484 384.76C58.6684 384.78 58.6884 384.78 58.7084 384.78C58.7484 384.78 58.7884 384.76 58.8284 384.76C58.9684 384.76 59.0084 384.94 59.1484 384.94C59.9484 384.9 60.0284 384.54 60.0284 384.28C60.0284 384.1 60.0884 384.06 60.0884 384.06C63.6084 381.94 70.1484 378.22 70.1484 374.7ZM74.5387 376.7C73.9187 377.26 73.5787 377.48 73.0587 377.78C71.8187 378.54 70.6987 378.6 70.6987 378.6C70.6987 378.6 71.3187 377.78 72.3387 377.26C73.0587 376.88 73.7987 376.7 74.5387 376.7ZM78.4787 380.16C78.4787 379.82 78.1787 379.52 77.8787 379.52C77.5387 379.52 77.3187 380.04 77.1987 380.26C76.9987 380.54 73.8987 383.08 72.3187 383.08C71.4387 383.08 71.0587 382.6 70.6987 382.02C70.2587 381.34 70.1587 380.72 70.1587 380.3C70.1587 379.94 70.2187 379.72 70.2187 379.72C70.7787 379.68 71.9987 379.56 73.2387 378.8C74.3787 378.12 76.0787 376.84 76.0787 376.34C76.0787 376.28 76.0587 376.24 75.9987 376.2C75.5187 375.88 74.9387 375.74 74.2787 375.74C72.1787 375.74 69.5987 377.28 69.0787 379.54C69.0187 379.78 68.9987 380.02 68.9987 380.26C68.9987 381.74 69.9187 383.32 71.2187 383.92C71.4787 384.04 71.7787 384.1 72.0987 384.1C74.3587 384.1 77.5787 381.16 78.0187 380.92C78.2787 380.74 78.4787 380.44 78.4787 380.16ZM89.3052 380.26C89.3052 380.04 89.1252 379.82 88.8852 379.82C88.8252 379.82 88.7652 379.84 88.7052 379.86C88.4852 379.94 83.7052 383.08 81.1852 383.08C80.3252 383.08 79.6452 382.6 79.6452 381.76C79.6452 380.02 82.2452 377.36 82.7052 377.22C82.7452 377.2 82.8052 377.2 82.8652 377.2C83.1052 377.2 83.3252 377.3 83.5252 377.3C83.9052 377.3 84.3252 376.7 84.3252 376.34C84.3252 376.06 84.1252 375.86 83.6452 375.86C83.5452 375.86 83.4252 375.86 83.3052 375.88C81.5652 376.14 78.5452 379.62 78.5452 381.94C78.5452 383.34 79.8652 384 81.0452 384C84.3052 384 89.2852 380.52 89.3052 380.34V380.26ZM90.371 376.58C90.371 376.12 90.091 375.82 89.751 375.82C89.051 375.86 89.131 377 89.071 378.1C88.971 380.02 88.871 381.46 88.871 382.42C88.871 383.14 88.931 383.58 89.111 383.72C89.271 383.84 89.451 383.9 89.591 383.9C89.991 383.9 90.131 383.58 90.131 383.24C90.131 382.88 89.891 382.84 89.891 381.94V381.56C89.891 380.78 90.371 377.26 90.371 376.58ZM90.411 369.94C90.411 369.62 90.191 369.38 89.911 369.38C89.391 369.38 89.551 369.84 89.131 370.7C88.891 371.22 88.791 371.68 88.791 372.04C88.791 372.32 88.851 372.72 89.151 372.72C89.291 372.72 89.411 372.64 89.511 372.54C89.711 372.34 89.571 372 89.871 371.26C90.131 370.62 90.391 370.28 90.411 370.02V369.94ZM98.0088 374.56V374.48C97.9888 374.24 97.2888 373.88 97.0288 373.76C96.9088 373.7 96.7488 373.66 96.5688 373.66C96.3088 373.66 95.9888 373.74 95.7488 373.94C94.4288 375.04 91.9088 376.92 91.9088 379.12C91.9088 382.12 96.5088 381.92 96.7888 382.9C96.7888 383.62 93.8888 384.6 93.7688 384.8C93.6888 384.9 93.6488 385 93.6488 385.1C93.6488 385.38 93.9488 385.62 94.3688 385.64C94.6688 385.64 97.9488 383.92 97.9488 383.1C97.9488 381.86 96.8088 381.66 95.5888 381.18C94.2688 380.68 92.9488 380.28 92.9488 379.12C92.9488 378.5 93.4488 377.34 94.3488 376.54C95.9288 375.12 96.1488 374.7 96.8288 374.68C96.9888 374.68 97.2088 374.92 97.5888 374.92C97.8888 374.92 98.0088 374.76 98.0088 374.56ZM101.465 376.58C101.465 376.12 101.185 375.82 100.845 375.82C100.145 375.86 100.225 377 100.165 378.1C100.065 380.02 99.9648 381.46 99.9648 382.42C99.9648 383.14 100.025 383.58 100.205 383.72C100.365 383.84 100.545 383.9 100.685 383.9C101.085 383.9 101.225 383.58 101.225 383.24C101.225 382.88 100.985 382.84 100.985 381.94V381.56C100.985 380.78 101.465 377.26 101.465 376.58ZM101.505 369.94C101.505 369.62 101.285 369.38 101.005 369.38C100.485 369.38 100.645 369.84 100.225 370.7C99.9848 371.22 99.8848 371.68 99.8848 372.04C99.8848 372.32 99.9448 372.72 100.245 372.72C100.385 372.72 100.505 372.64 100.605 372.54C100.805 372.34 100.665 372 100.965 371.26C101.225 370.62 101.485 370.28 101.505 370.02V369.94ZM107.021 377C108.121 377 108.601 378.28 108.601 379.16C108.601 379.86 108.361 380.56 108.021 381.22C107.641 381.94 106.381 383.04 105.461 383.04C104.541 383.04 104.161 381.74 104.161 381.02C104.161 380.74 104.201 380.46 104.281 380.24C105.301 377.22 106.861 377 107.021 377ZM109.601 379.4C109.601 379.18 109.581 378.98 109.561 378.74C109.341 376.56 107.661 375.86 106.861 375.86C105.701 375.86 104.541 376.92 103.421 379.46C103.181 380 103.081 380.52 103.081 381.04C103.081 382.36 103.821 384.08 105.241 384.08C106.921 384.08 109.601 382.26 109.601 379.4ZM117.125 384.5C117.125 384.18 116.925 383.8 116.785 383.52C116.745 383.38 116.725 383.02 116.725 382.22V379.92C116.725 377.32 116.625 375.46 115.685 375.26H115.605C114.365 375.26 112.245 379.86 112.245 379.86C112.225 379.7 112.225 379.58 112.225 379.48C112.225 379.22 112.265 378.98 112.265 378.4C112.265 377.24 112.465 376.48 112.465 376.04C112.465 375.88 112.445 375.78 112.385 375.7C112.265 375.54 112.005 375.38 111.745 375.38C111.545 375.38 111.365 375.5 111.305 375.84C111.265 376.12 111.085 377.56 111.045 379.44C111.005 381.6 110.885 382.76 110.885 383.4C110.885 383.72 110.925 383.92 111.005 384.06C111.145 384.24 111.305 384.3 111.445 384.3C111.585 384.3 111.725 384.24 111.825 384.2C112.065 384.02 112.045 383.5 112.645 381.88C113.545 379.44 115.025 376.68 115.385 376.68C115.625 376.68 115.645 378.3 115.645 378.54L115.625 380.48C115.625 382.28 115.825 383.22 115.825 383.64C115.825 383.84 115.765 383.96 115.765 384.1C115.765 384.64 116.265 385 116.665 385C116.965 385 117.125 384.74 117.125 384.5Z" fill="#33778F"/>
<path d="M92.7138 285.8C92.7138 284.62 92.3138 282.88 92.1938 282.18C91.0338 275.26 91.9538 272.78 90.7138 272.78H90.6338C90.0338 272.78 89.9138 273.18 89.6738 273.58C89.2138 274.36 83.9538 284.3 83.9538 284.3C83.5738 282.88 82.9138 280.7 82.1138 278.62C80.7938 275.12 79.8538 272.16 79.5538 272.04C79.5338 272.04 79.5138 272.02 79.4938 272.02C79.1738 272.02 78.7337 272.78 78.4138 273.02C78.2538 273.16 78.2538 273.4 78.2538 273.74V273.94C78.2538 274.3 78.2338 274.76 78.0738 275.3C77.8538 276 76.7738 284.5 76.4938 284.88C76.3138 285.16 76.0938 285.56 76.0938 285.9C76.0938 286.18 76.2338 286.4 76.6138 286.52C76.6938 286.54 76.7537 286.54 76.8138 286.54C77.3538 286.54 77.6738 285.88 77.6738 285.4C77.6738 285.38 77.6738 285.36 77.6538 285.34C77.6538 284.28 79.3538 274.22 79.3538 274.22C79.5938 274.8 80.3138 276.9 80.6138 277.64C81.8338 280.5 82.7938 284.28 82.9338 284.92C83.0938 285.72 83.4938 286.02 83.8938 286.02C84.3538 286.02 84.8138 285.62 84.8338 285.14C84.8738 284.72 90.2538 274.78 90.2538 274.78C90.2538 276.3 90.3738 276.7 91.4138 284.9C91.4138 284.98 91.4338 285.04 91.4338 285.12C91.4338 285.52 91.3338 285.92 91.3338 286.26C91.3338 286.68 91.4738 286.96 92.0938 286.96H92.2138C92.5938 286.94 92.7138 286.46 92.7138 285.8ZM97.8617 284.3C97.8617 284.3 96.5217 285.42 95.5417 285.42C95.0417 285.42 94.8617 285.14 94.8617 284.7C94.8617 283.7 95.7017 282.62 96.7017 282.62C97.3617 282.62 97.8617 284.3 97.8617 284.3ZM99.8617 281.66C99.8617 280.1 99.4617 278.5 98.0817 277.64C97.7617 277.44 97.3817 277.36 96.9617 277.36C95.8017 277.36 94.5017 278.04 94.5017 278.72C94.5217 279.08 94.8617 279.22 95.0817 279.22C95.1817 279.22 95.2417 279.2 95.2417 279.12C95.2817 278.84 96.0617 278.3 96.8617 278.3C98.4417 278.3 98.8617 280.54 98.8617 281.7C98.8617 282.78 98.5417 283.52 98.5417 283.52C98.2417 282.6 97.7417 281.62 96.6417 281.62C95.1017 281.62 93.9217 283.44 93.9217 284.78C93.9217 285.74 94.5017 286.36 95.5017 286.36C96.7417 286.36 98.1617 285.36 98.1617 285.36C98.1617 285.36 98.2217 285.7 98.3417 285.82C98.4417 285.94 98.6217 285.98 98.7617 285.98C98.8617 285.98 98.9617 285.96 99.0017 285.9C99.1017 285.84 99.8617 283.78 99.8617 281.66ZM113.645 284.54C113.605 284.1 113.325 283.94 113.045 283.94C112.825 283.94 112.585 284.06 112.485 284.22C112.385 284.4 111.745 284.96 110.485 284.96C109.805 284.96 108.925 284.8 107.865 284.32C104.525 282.82 102.985 281.04 102.985 281.04C107.645 279.1 110.405 278.94 110.785 278.7C110.965 278.58 111.045 278.4 111.045 278.24C111.045 278.02 110.885 277.82 110.685 277.82C108.885 278 102.945 279.86 102.945 279.86C103.065 278.94 103.205 278.28 103.405 277.16C103.865 274.62 104.325 274.36 104.325 273.92C104.325 273.86 104.325 273.8 104.305 273.74C104.205 273.34 103.985 273.14 103.705 273.14C103.605 273.14 103.485 273.18 103.385 273.22C103.065 273.36 101.665 278.66 101.485 284.46C101.465 284.8 101.465 285.12 101.465 285.42C101.465 286.76 101.605 287.48 102.025 287.48C102.625 287.48 102.785 287.28 102.785 286.96C102.785 286.56 102.545 285.98 102.525 285.36V284.98C102.525 283.26 102.745 282.26 102.745 282.26C105.525 284.64 108.165 285.92 110.245 285.92H110.365C111.825 285.88 112.405 285.44 112.785 285.3C113.205 285.14 113.645 284.92 113.645 284.54ZM115.482 278.58C115.482 278.12 115.202 277.82 114.862 277.82C114.162 277.86 114.242 279 114.182 280.1C114.082 282.02 113.982 283.46 113.982 284.42C113.982 285.14 114.042 285.58 114.222 285.72C114.382 285.84 114.562 285.9 114.702 285.9C115.102 285.9 115.242 285.58 115.242 285.24C115.242 284.88 115.002 284.84 115.002 283.94V283.56C115.002 282.78 115.482 279.26 115.482 278.58ZM115.522 271.94C115.522 271.62 115.302 271.38 115.022 271.38C114.502 271.38 114.662 271.84 114.242 272.7C114.002 273.22 113.902 273.68 113.902 274.04C113.902 274.32 113.962 274.72 114.262 274.72C114.402 274.72 114.522 274.64 114.622 274.54C114.822 274.34 114.682 274 114.982 273.26C115.242 272.62 115.502 272.28 115.522 272.02V271.94ZM124.17 286.5C124.17 286.18 123.97 285.8 123.83 285.52C123.79 285.38 123.77 285.02 123.77 284.22V281.92C123.77 279.32 123.67 277.46 122.73 277.26H122.65C121.41 277.26 119.29 281.86 119.29 281.86C119.27 281.7 119.27 281.58 119.27 281.48C119.27 281.22 119.31 280.98 119.31 280.4C119.31 279.24 119.51 278.48 119.51 278.04C119.51 277.88 119.49 277.78 119.43 277.7C119.31 277.54 119.05 277.38 118.79 277.38C118.59 277.38 118.41 277.5 118.35 277.84C118.31 278.12 118.13 279.56 118.09 281.44C118.05 283.6 117.93 284.76 117.93 285.4C117.93 285.72 117.97 285.92 118.05 286.06C118.19 286.24 118.35 286.3 118.49 286.3C118.63 286.3 118.77 286.24 118.87 286.2C119.11 286.02 119.09 285.5 119.69 283.88C120.59 281.44 122.07 278.68 122.43 278.68C122.67 278.68 122.69 280.3 122.69 280.54L122.67 282.48C122.67 284.28 122.87 285.22 122.87 285.64C122.87 285.84 122.81 285.96 122.81 286.1C122.81 286.64 123.31 287 123.71 287C124.01 287 124.17 286.74 124.17 286.5ZM132.457 289.36C132.457 290.68 131.937 292.12 130.897 293.78C130.137 294.98 128.637 296.1 127.157 296.1C125.817 296.1 124.377 294.98 124.377 293.62C124.377 292.88 124.757 292.06 125.517 291.14C127.957 288.16 132.137 287.56 132.137 287.56C132.337 288.14 132.457 288.74 132.457 289.36ZM130.877 281.64C130.877 282.64 129.297 283.56 128.437 283.92C127.857 284.16 127.037 284.32 127.037 284.32C127.037 284.32 126.877 283.9 126.877 283.52C126.877 283.04 127.497 281.64 129.357 279.98C130.137 280.12 130.877 280.8 130.877 281.64ZM139.217 287.22C139.217 287.18 139.197 287.12 139.177 287.08C138.817 286.34 137.277 286.26 135.977 286.26C134.597 286.26 132.757 286.46 132.757 286.46C132.317 285.82 132.137 285.48 131.337 284.92C130.637 284.42 129.957 284.26 129.957 284.26C130.997 283.44 131.837 282.72 131.837 281.6C131.837 280.82 131.317 280.18 130.797 279.7C131.817 279.58 132.697 279.32 133.537 279.32C133.917 279.32 134.157 279.36 134.297 279.36C134.517 279.36 134.677 279.12 134.677 278.96C134.677 278.78 134.457 278.64 134.197 278.56C134.117 278.54 133.977 278.52 133.797 278.52C132.657 278.52 129.877 279 128.757 279C128.537 279 128.377 278.98 128.317 278.94C128.157 278.82 128.037 278.76 127.917 278.76C127.637 278.76 127.497 279.06 127.477 279.28C127.477 279.58 128.037 279.9 128.037 279.9C126.677 281.54 125.797 282.38 125.797 283.44C125.797 284.04 126.037 284.58 126.037 284.58C125.657 284.7 125.137 284.86 125.137 285.3C125.137 285.6 125.517 285.8 125.777 285.8C126.317 285.8 126.997 285.14 128.717 285.14C128.897 285.14 129.077 285.14 129.297 285.16C130.977 285.3 131.737 286.66 131.737 286.66C128.877 287.34 127.037 287.94 124.657 290.54C123.717 291.56 123.317 292.64 123.317 293.62C123.317 295.76 125.377 297.18 127.197 297.18C129.517 297.18 131.437 295.14 132.217 293.6C133.217 291.62 133.477 290.1 133.477 289.06C133.477 287.92 133.177 287.34 133.177 287.34C134.237 287.18 135.497 287.08 136.537 287.08C136.997 287.08 137.297 287.1 137.297 287.1C137.517 287.38 137.397 287.64 138.197 287.64C138.677 287.64 139.217 287.52 139.217 287.22ZM156.141 278.04V278.18C156.061 280.38 151.081 284.96 147.401 284.96C145.601 284.96 144.701 283.94 144.701 282.26C144.701 279.98 146.221 276.68 148.521 274.82C148.641 274.8 148.801 275.26 149.281 275.26C149.801 275.26 150.161 274.74 150.441 274.64C150.441 274.64 150.541 274.64 150.721 274.64C151.901 274.64 156.141 274.86 156.141 278.04ZM157.321 277.92C157.321 275.58 155.421 274.18 152.121 273.56C152.121 273.56 151.701 272.9 150.221 272.9H150.121C147.321 272.96 143.581 278.44 143.581 282.34C143.581 283.84 144.141 285.12 145.521 285.76C146.021 286 146.501 286.08 147.201 286.1H147.361C151.101 286.1 157.321 281.08 157.321 278.06V277.92ZM166.127 278.04C166.127 277.8 165.967 277.56 165.847 277.52C165.507 277.4 165.207 277.36 164.927 277.36C163.727 277.36 162.907 278.28 162.167 278.98C160.887 280.16 159.507 282 159.507 282C159.507 280.66 159.507 280.28 159.487 279.58C159.447 278.36 159.387 277.9 159.087 277.62C158.927 277.48 158.787 277.42 158.647 277.42C158.447 277.42 158.047 277.66 158.047 277.88C158.047 278.12 158.487 278.54 158.487 281.04C158.487 281.44 158.467 281.88 158.447 282.4C158.367 283.94 158.127 284.96 158.127 285.56C158.127 285.82 158.167 286 158.287 286.12C158.427 286.26 158.627 286.36 158.827 286.36C158.987 286.36 159.147 286.3 159.267 286.14C159.527 285.8 159.267 284.26 160.007 283.14C161.447 280.96 162.967 279.26 164.227 278.52C164.427 278.4 164.607 278.36 164.747 278.36C165.067 278.36 165.287 278.54 165.547 278.54C165.847 278.54 166.127 278.3 166.127 278.04ZM171.029 283.08C169.429 284 167.549 285.24 166.289 285.24C165.589 285.24 165.089 284.8 165.089 284.14C165.089 282.56 167.349 279.9 168.969 279.9C169.149 279.9 169.329 279.92 169.489 280C170.729 280.54 171.029 283.08 171.029 283.08ZM173.749 272.92C173.749 272.4 173.329 271.92 172.729 271.92C172.489 271.92 172.389 272.12 172.389 272.44C172.389 272.68 172.409 272.92 172.509 273.24C172.529 273.3 172.529 273.34 172.529 273.4C172.529 274.46 171.709 281.14 171.709 281.14C171.189 280.2 170.849 279.26 169.249 278.92C169.169 278.9 169.049 278.9 168.949 278.9C167.109 278.9 164.049 281.66 164.049 284.06C164.049 285.32 164.829 286.28 166.149 286.28C168.249 286.28 171.169 284.28 171.169 284.28C171.329 284.86 171.109 285.5 172.069 285.64C172.409 285.64 172.489 285.22 172.489 284.76C172.489 284.2 172.369 283.58 172.369 283.58C173.049 283.3 173.589 283.32 173.589 282.78C173.589 282.7 173.589 282.62 173.549 282.5C173.449 282.08 172.709 282.02 172.709 282.02C172.849 279.12 173.529 273.68 173.669 273.3C173.729 273.18 173.749 273.04 173.749 272.92ZM180.08 278.7C179.46 279.26 179.12 279.48 178.6 279.78C177.36 280.54 176.24 280.6 176.24 280.6C176.24 280.6 176.86 279.78 177.88 279.26C178.6 278.88 179.34 278.7 180.08 278.7ZM184.02 282.16C184.02 281.82 183.72 281.52 183.42 281.52C183.08 281.52 182.86 282.04 182.74 282.26C182.54 282.54 179.44 285.08 177.86 285.08C176.98 285.08 176.6 284.6 176.24 284.02C175.8 283.34 175.7 282.72 175.7 282.3C175.7 281.94 175.76 281.72 175.76 281.72C176.32 281.68 177.54 281.56 178.78 280.8C179.92 280.12 181.62 278.84 181.62 278.34C181.62 278.28 181.6 278.24 181.54 278.2C181.06 277.88 180.48 277.74 179.82 277.74C177.72 277.74 175.14 279.28 174.62 281.54C174.56 281.78 174.54 282.02 174.54 282.26C174.54 283.74 175.46 285.32 176.76 285.92C177.02 286.04 177.32 286.1 177.64 286.1C179.9 286.1 183.12 283.16 183.56 282.92C183.82 282.74 184.02 282.44 184.02 282.16ZM192.826 278.04C192.826 277.8 192.666 277.56 192.546 277.52C192.206 277.4 191.906 277.36 191.626 277.36C190.426 277.36 189.606 278.28 188.866 278.98C187.586 280.16 186.206 282 186.206 282C186.206 280.66 186.206 280.28 186.186 279.58C186.146 278.36 186.086 277.9 185.786 277.62C185.626 277.48 185.486 277.42 185.346 277.42C185.146 277.42 184.746 277.66 184.746 277.88C184.746 278.12 185.186 278.54 185.186 281.04C185.186 281.44 185.166 281.88 185.146 282.4C185.066 283.94 184.826 284.96 184.826 285.56C184.826 285.82 184.866 286 184.986 286.12C185.126 286.26 185.326 286.36 185.526 286.36C185.686 286.36 185.846 286.3 185.966 286.14C186.226 285.8 185.966 284.26 186.706 283.14C188.146 280.96 189.666 279.26 190.926 278.52C191.126 278.4 191.306 278.36 191.446 278.36C191.766 278.36 191.986 278.54 192.246 278.54C192.546 278.54 192.826 278.3 192.826 278.04ZM198.53 276.56V276.48C198.51 276.24 197.81 275.88 197.55 275.76C197.43 275.7 197.27 275.66 197.09 275.66C196.83 275.66 196.51 275.74 196.27 275.94C194.95 277.04 192.43 278.92 192.43 281.12C192.43 284.12 197.03 283.92 197.31 284.9C197.31 285.62 194.41 286.6 194.29 286.8C194.21 286.9 194.17 287 194.17 287.1C194.17 287.38 194.47 287.62 194.89 287.64C195.19 287.64 198.47 285.92 198.47 285.1C198.47 283.86 197.33 283.66 196.11 283.18C194.79 282.68 193.47 282.28 193.47 281.12C193.47 280.5 193.97 279.34 194.87 278.54C196.45 277.12 196.67 276.7 197.35 276.68C197.51 276.68 197.73 276.92 198.11 276.92C198.41 276.92 198.53 276.76 198.53 276.56Z" fill="#33778F"/>
<path d="M230.27 194.04V194.18C230.19 196.38 225.21 200.96 221.53 200.96C219.73 200.96 218.83 199.94 218.83 198.26C218.83 195.98 220.35 192.68 222.65 190.82C222.77 190.8 222.93 191.26 223.41 191.26C223.93 191.26 224.29 190.74 224.57 190.64C224.57 190.64 224.67 190.64 224.85 190.64C226.03 190.64 230.27 190.86 230.27 194.04ZM231.45 193.92C231.45 191.58 229.55 190.18 226.25 189.56C226.25 189.56 225.83 188.9 224.35 188.9H224.25C221.45 188.96 217.71 194.44 217.71 198.34C217.71 199.84 218.27 201.12 219.65 201.76C220.15 202 220.63 202.08 221.33 202.1H221.49C225.23 202.1 231.45 197.08 231.45 194.06V193.92ZM240.256 194.04C240.256 193.8 240.096 193.56 239.976 193.52C239.636 193.4 239.336 193.36 239.056 193.36C237.856 193.36 237.036 194.28 236.296 194.98C235.016 196.16 233.636 198 233.636 198C233.636 196.66 233.636 196.28 233.616 195.58C233.576 194.36 233.516 193.9 233.216 193.62C233.056 193.48 232.916 193.42 232.776 193.42C232.576 193.42 232.176 193.66 232.176 193.88C232.176 194.12 232.616 194.54 232.616 197.04C232.616 197.44 232.596 197.88 232.576 198.4C232.496 199.94 232.256 200.96 232.256 201.56C232.256 201.82 232.296 202 232.416 202.12C232.556 202.26 232.756 202.36 232.956 202.36C233.116 202.36 233.276 202.3 233.396 202.14C233.656 201.8 233.396 200.26 234.136 199.14C235.576 196.96 237.096 195.26 238.356 194.52C238.556 194.4 238.736 194.36 238.876 194.36C239.196 194.36 239.416 194.54 239.676 194.54C239.976 194.54 240.256 194.3 240.256 194.04ZM245.158 199.08C243.558 200 241.678 201.24 240.418 201.24C239.718 201.24 239.218 200.8 239.218 200.14C239.218 198.56 241.478 195.9 243.098 195.9C243.278 195.9 243.458 195.92 243.618 196C244.858 196.54 245.158 199.08 245.158 199.08ZM247.878 188.92C247.878 188.4 247.458 187.92 246.858 187.92C246.618 187.92 246.518 188.12 246.518 188.44C246.518 188.68 246.538 188.92 246.638 189.24C246.658 189.3 246.658 189.34 246.658 189.4C246.658 190.46 245.838 197.14 245.838 197.14C245.318 196.2 244.978 195.26 243.378 194.92C243.298 194.9 243.178 194.9 243.077 194.9C241.238 194.9 238.178 197.66 238.178 200.06C238.178 201.32 238.958 202.28 240.278 202.28C242.378 202.28 245.298 200.28 245.298 200.28C245.458 200.86 245.238 201.5 246.198 201.64C246.538 201.64 246.618 201.22 246.618 200.76C246.618 200.2 246.498 199.58 246.498 199.58C247.178 199.3 247.718 199.32 247.718 198.78C247.718 198.7 247.718 198.62 247.678 198.5C247.578 198.08 246.838 198.02 246.838 198.02C246.978 195.12 247.658 189.68 247.798 189.3C247.858 189.18 247.878 189.04 247.878 188.92ZM254.209 194.7C253.589 195.26 253.249 195.48 252.729 195.78C251.489 196.54 250.369 196.6 250.369 196.6C250.369 196.6 250.989 195.78 252.009 195.26C252.729 194.88 253.469 194.7 254.209 194.7ZM258.149 198.16C258.149 197.82 257.849 197.52 257.549 197.52C257.209 197.52 256.989 198.04 256.869 198.26C256.669 198.54 253.569 201.08 251.989 201.08C251.109 201.08 250.729 200.6 250.369 200.02C249.929 199.34 249.829 198.72 249.829 198.3C249.829 197.94 249.889 197.72 249.889 197.72C250.449 197.68 251.669 197.56 252.909 196.8C254.049 196.12 255.749 194.84 255.749 194.34C255.749 194.28 255.729 194.24 255.669 194.2C255.189 193.88 254.609 193.74 253.949 193.74C251.849 193.74 249.269 195.28 248.749 197.54C248.689 197.78 248.669 198.02 248.669 198.26C248.669 199.74 249.589 201.32 250.889 201.92C251.149 202.04 251.449 202.1 251.769 202.1C254.029 202.1 257.249 199.16 257.689 198.92C257.949 198.74 258.149 198.44 258.149 198.16ZM266.955 194.04C266.955 193.8 266.795 193.56 266.675 193.52C266.335 193.4 266.035 193.36 265.755 193.36C264.555 193.36 263.735 194.28 262.995 194.98C261.715 196.16 260.335 198 260.335 198C260.335 196.66 260.335 196.28 260.315 195.58C260.275 194.36 260.215 193.9 259.915 193.62C259.755 193.48 259.615 193.42 259.475 193.42C259.275 193.42 258.875 193.66 258.875 193.88C258.875 194.12 259.315 194.54 259.315 197.04C259.315 197.44 259.295 197.88 259.275 198.4C259.195 199.94 258.955 200.96 258.955 201.56C258.955 201.82 258.995 202 259.115 202.12C259.255 202.26 259.455 202.36 259.655 202.36C259.815 202.36 259.975 202.3 260.095 202.14C260.355 201.8 260.095 200.26 260.835 199.14C262.275 196.96 263.795 195.26 265.055 194.52C265.255 194.4 265.435 194.36 265.575 194.36C265.895 194.36 266.115 194.54 266.375 194.54C266.675 194.54 266.955 194.3 266.955 194.04ZM285.739 197.82C285.739 197.68 285.379 197.52 284.859 197.52C284.619 197.52 284.339 197.56 284.059 197.62C280.019 198.56 275.799 200.3 275.799 200.3C275.799 200.26 275.779 200.2 275.779 200.16C275.779 199.22 275.939 198.24 275.939 197.48C275.939 197.08 275.899 196.84 275.899 196.6C275.899 195.36 276.259 192.66 276.519 191.8C276.699 191.18 276.959 189.98 276.959 189.04C276.959 188.3 276.799 187.74 276.339 187.74C275.179 187.74 275.719 189.34 275.419 190.9C275.119 192.5 274.699 197.62 274.519 200.4C274.499 200.8 274.179 201.18 274.179 201.56C274.179 201.94 274.659 202.24 274.979 202.24C275.319 202.24 275.619 201.98 276.039 201.7C278.299 200.18 284.919 198.26 285.559 198C285.679 197.94 285.739 197.88 285.739 197.82ZM287.58 194.58C287.58 194.12 287.3 193.82 286.96 193.82C286.26 193.86 286.34 195 286.28 196.1C286.18 198.02 286.08 199.46 286.08 200.42C286.08 201.14 286.14 201.58 286.32 201.72C286.48 201.84 286.66 201.9 286.8 201.9C287.2 201.9 287.34 201.58 287.34 201.24C287.34 200.88 287.1 200.84 287.1 199.94V199.56C287.1 198.78 287.58 195.26 287.58 194.58ZM287.62 187.94C287.62 187.62 287.4 187.38 287.12 187.38C286.6 187.38 286.76 187.84 286.34 188.7C286.1 189.22 286 189.68 286 190.04C286 190.32 286.06 190.72 286.36 190.72C286.5 190.72 286.62 190.64 286.72 190.54C286.92 190.34 286.78 190 287.08 189.26C287.34 188.62 287.6 188.28 287.62 188.02V187.94ZM296.268 202.5C296.268 202.18 296.068 201.8 295.928 201.52C295.888 201.38 295.868 201.02 295.868 200.22V197.92C295.868 195.32 295.768 193.46 294.828 193.26H294.748C293.508 193.26 291.388 197.86 291.388 197.86C291.368 197.7 291.368 197.58 291.368 197.48C291.368 197.22 291.408 196.98 291.408 196.4C291.408 195.24 291.608 194.48 291.608 194.04C291.608 193.88 291.588 193.78 291.528 193.7C291.408 193.54 291.148 193.38 290.888 193.38C290.688 193.38 290.507 193.5 290.448 193.84C290.408 194.12 290.228 195.56 290.188 197.44C290.148 199.6 290.028 200.76 290.028 201.4C290.028 201.72 290.068 201.92 290.148 202.06C290.288 202.24 290.448 202.3 290.588 202.3C290.728 202.3 290.868 202.24 290.968 202.2C291.208 202.02 291.188 201.5 291.788 199.88C292.688 197.44 294.168 194.68 294.528 194.68C294.768 194.68 294.788 196.3 294.788 196.54L294.768 198.48C294.768 200.28 294.968 201.22 294.968 201.64C294.968 201.84 294.908 201.96 294.908 202.1C294.908 202.64 295.408 203 295.808 203C296.108 203 296.268 202.74 296.268 202.5ZM302.763 194.7C302.143 195.26 301.803 195.48 301.283 195.78C300.043 196.54 298.923 196.6 298.923 196.6C298.923 196.6 299.543 195.78 300.563 195.26C301.283 194.88 302.023 194.7 302.763 194.7ZM306.703 198.16C306.703 197.82 306.403 197.52 306.103 197.52C305.763 197.52 305.543 198.04 305.423 198.26C305.223 198.54 302.123 201.08 300.543 201.08C299.663 201.08 299.283 200.6 298.923 200.02C298.483 199.34 298.383 198.72 298.383 198.3C298.383 197.94 298.443 197.72 298.443 197.72C299.003 197.68 300.223 197.56 301.463 196.8C302.603 196.12 304.303 194.84 304.303 194.34C304.303 194.28 304.283 194.24 304.223 194.2C303.743 193.88 303.163 193.74 302.503 193.74C300.403 193.74 297.823 195.28 297.303 197.54C297.243 197.78 297.223 198.02 297.223 198.26C297.223 199.74 298.143 201.32 299.443 201.92C299.703 202.04 300.003 202.1 300.323 202.1C302.583 202.1 305.803 199.16 306.243 198.92C306.503 198.74 306.703 198.44 306.703 198.16Z" fill="#33778F"/>
<path d="M345.197 286.86C345.137 283.06 335.137 283.86 335.137 281.58C335.137 279.82 339.757 278.06 341.677 278.06C342.217 278.06 342.437 278.7 342.877 278.7C343.257 278.7 343.557 278.46 343.557 278.26C343.557 278.2 343.557 278.16 343.517 278.12C343.077 277.5 342.957 276.9 341.437 276.9C339.497 276.9 333.837 278.88 333.837 281.9C333.837 284.9 344.037 283.78 344.037 287.1C344.037 288.5 339.917 290.76 338.357 290.98C337.997 291.04 337.457 291.32 337.457 291.86C337.457 292.4 337.977 292.54 338.397 292.54C338.817 292.54 339.237 292.38 339.317 291.9C339.377 291.56 345.197 289.7 345.197 286.86ZM351.619 283.7C350.999 284.26 350.659 284.48 350.139 284.78C348.899 285.54 347.779 285.6 347.779 285.6C347.779 285.6 348.399 284.78 349.419 284.26C350.139 283.88 350.879 283.7 351.619 283.7ZM355.559 287.16C355.559 286.82 355.259 286.52 354.959 286.52C354.619 286.52 354.399 287.04 354.279 287.26C354.079 287.54 350.979 290.08 349.399 290.08C348.519 290.08 348.139 289.6 347.779 289.02C347.339 288.34 347.239 287.72 347.239 287.3C347.239 286.94 347.299 286.72 347.299 286.72C347.859 286.68 349.079 286.56 350.319 285.8C351.459 285.12 353.159 283.84 353.159 283.34C353.159 283.28 353.139 283.24 353.079 283.2C352.599 282.88 352.019 282.74 351.359 282.74C349.259 282.74 346.679 284.28 346.159 286.54C346.099 286.78 346.079 287.02 346.079 287.26C346.079 288.74 346.999 290.32 348.299 290.92C348.559 291.04 348.859 291.1 349.179 291.1C351.439 291.1 354.659 288.16 355.099 287.92C355.359 287.74 355.559 287.44 355.559 287.16ZM362.525 291.5C362.525 291.18 362.325 290.8 362.185 290.52C362.145 290.38 362.125 290.02 362.125 289.22V286.92C362.125 284.32 362.025 282.46 361.085 282.26H361.005C359.765 282.26 357.645 286.86 357.645 286.86C357.625 286.7 357.625 286.58 357.625 286.48C357.625 286.22 357.665 285.98 357.665 285.4C357.665 284.24 357.865 283.48 357.865 283.04C357.865 282.88 357.845 282.78 357.785 282.7C357.665 282.54 357.405 282.38 357.145 282.38C356.945 282.38 356.765 282.5 356.705 282.84C356.665 283.12 356.485 284.56 356.445 286.44C356.405 288.6 356.285 289.76 356.285 290.4C356.285 290.72 356.325 290.92 356.405 291.06C356.545 291.24 356.705 291.3 356.845 291.3C356.985 291.3 357.125 291.24 357.225 291.2C357.465 291.02 357.445 290.5 358.045 288.88C358.945 286.44 360.425 283.68 360.785 283.68C361.025 283.68 361.045 285.3 361.045 285.54L361.025 287.48C361.025 289.28 361.225 290.22 361.225 290.64C361.225 290.84 361.165 290.96 361.165 291.1C361.165 291.64 361.665 292 362.065 292C362.365 292 362.525 291.74 362.525 291.5ZM370.341 288.08C368.741 289 366.861 290.24 365.601 290.24C364.901 290.24 364.401 289.8 364.401 289.14C364.401 287.56 366.661 284.9 368.281 284.9C368.461 284.9 368.641 284.92 368.801 285C370.041 285.54 370.341 288.08 370.341 288.08ZM373.061 277.92C373.061 277.4 372.641 276.92 372.041 276.92C371.801 276.92 371.701 277.12 371.701 277.44C371.701 277.68 371.721 277.92 371.821 278.24C371.841 278.3 371.841 278.34 371.841 278.4C371.841 279.46 371.021 286.14 371.021 286.14C370.501 285.2 370.161 284.26 368.561 283.92C368.481 283.9 368.361 283.9 368.261 283.9C366.421 283.9 363.361 286.66 363.361 289.06C363.361 290.32 364.141 291.28 365.461 291.28C367.561 291.28 370.481 289.28 370.481 289.28C370.641 289.86 370.421 290.5 371.381 290.64C371.721 290.64 371.801 290.22 371.801 289.76C371.801 289.2 371.681 288.58 371.681 288.58C372.361 288.3 372.901 288.32 372.901 287.78C372.901 287.7 372.901 287.62 372.861 287.5C372.761 287.08 372.021 287.02 372.021 287.02C372.161 284.12 372.841 278.68 372.981 278.3C373.041 278.18 373.061 278.04 373.061 277.92ZM376.279 283.58C376.279 283.12 375.999 282.82 375.659 282.82C374.959 282.86 375.039 284 374.979 285.1C374.879 287.02 374.779 288.46 374.779 289.42C374.779 290.14 374.839 290.58 375.019 290.72C375.179 290.84 375.359 290.9 375.499 290.9C375.899 290.9 376.039 290.58 376.039 290.24C376.039 289.88 375.799 289.84 375.799 288.94V288.56C375.799 287.78 376.279 284.26 376.279 283.58ZM376.319 276.94C376.319 276.62 376.099 276.38 375.819 276.38C375.299 276.38 375.459 276.84 375.039 277.7C374.799 278.22 374.699 278.68 374.699 279.04C374.699 279.32 374.759 279.72 375.059 279.72C375.199 279.72 375.319 279.64 375.419 279.54C375.619 279.34 375.479 279 375.779 278.26C376.039 277.62 376.299 277.28 376.319 277.02V276.94ZM384.967 291.5C384.967 291.18 384.767 290.8 384.627 290.52C384.587 290.38 384.567 290.02 384.567 289.22V286.92C384.567 284.32 384.467 282.46 383.527 282.26H383.447C382.207 282.26 380.087 286.86 380.087 286.86C380.067 286.7 380.067 286.58 380.067 286.48C380.067 286.22 380.107 285.98 380.107 285.4C380.107 284.24 380.307 283.48 380.307 283.04C380.307 282.88 380.287 282.78 380.227 282.7C380.107 282.54 379.847 282.38 379.587 282.38C379.387 282.38 379.207 282.5 379.147 282.84C379.107 283.12 378.927 284.56 378.887 286.44C378.847 288.6 378.727 289.76 378.727 290.4C378.727 290.72 378.767 290.92 378.847 291.06C378.987 291.24 379.147 291.3 379.287 291.3C379.427 291.3 379.567 291.24 379.667 291.2C379.907 291.02 379.887 290.5 380.487 288.88C381.387 286.44 382.867 283.68 383.227 283.68C383.467 283.68 383.487 285.3 383.487 285.54L383.467 287.48C383.467 289.28 383.667 290.22 383.667 290.64C383.667 290.84 383.607 290.96 383.607 291.1C383.607 291.64 384.107 292 384.507 292C384.807 292 384.967 291.74 384.967 291.5ZM393.254 294.36C393.254 295.68 392.734 297.12 391.694 298.78C390.934 299.98 389.434 301.1 387.954 301.1C386.614 301.1 385.174 299.98 385.174 298.62C385.174 297.88 385.554 297.06 386.314 296.14C388.754 293.16 392.934 292.56 392.934 292.56C393.134 293.14 393.254 293.74 393.254 294.36ZM391.674 286.64C391.674 287.64 390.094 288.56 389.234 288.92C388.654 289.16 387.834 289.32 387.834 289.32C387.834 289.32 387.674 288.9 387.674 288.52C387.674 288.04 388.294 286.64 390.154 284.98C390.934 285.12 391.674 285.8 391.674 286.64ZM400.014 292.22C400.014 292.18 399.994 292.12 399.974 292.08C399.614 291.34 398.074 291.26 396.774 291.26C395.394 291.26 393.554 291.46 393.554 291.46C393.114 290.82 392.934 290.48 392.134 289.92C391.434 289.42 390.754 289.26 390.754 289.26C391.794 288.44 392.634 287.72 392.634 286.6C392.634 285.82 392.114 285.18 391.594 284.7C392.614 284.58 393.494 284.32 394.334 284.32C394.714 284.32 394.954 284.36 395.094 284.36C395.314 284.36 395.474 284.12 395.474 283.96C395.474 283.78 395.254 283.64 394.994 283.56C394.914 283.54 394.774 283.52 394.594 283.52C393.454 283.52 390.674 284 389.554 284C389.334 284 389.174 283.98 389.114 283.94C388.954 283.82 388.834 283.76 388.714 283.76C388.434 283.76 388.294 284.06 388.274 284.28C388.274 284.58 388.834 284.9 388.834 284.9C387.474 286.54 386.594 287.38 386.594 288.44C386.594 289.04 386.834 289.58 386.834 289.58C386.454 289.7 385.934 289.86 385.934 290.3C385.934 290.6 386.314 290.8 386.574 290.8C387.114 290.8 387.794 290.14 389.514 290.14C389.694 290.14 389.874 290.14 390.094 290.16C391.774 290.3 392.534 291.66 392.534 291.66C389.674 292.34 387.834 292.94 385.454 295.54C384.514 296.56 384.114 297.64 384.114 298.62C384.114 300.76 386.174 302.18 387.994 302.18C390.314 302.18 392.234 300.14 393.014 298.6C394.014 296.62 394.274 295.1 394.274 294.06C394.274 292.92 393.974 292.34 393.974 292.34C395.034 292.18 396.294 292.08 397.334 292.08C397.794 292.08 398.094 292.1 398.094 292.1C398.314 292.38 398.194 292.64 398.994 292.64C399.474 292.64 400.014 292.52 400.014 292.22ZM416.938 283.04V283.18C416.858 285.38 411.878 289.96 408.198 289.96C406.398 289.96 405.498 288.94 405.498 287.26C405.498 284.98 407.018 281.68 409.318 279.82C409.438 279.8 409.598 280.26 410.078 280.26C410.598 280.26 410.958 279.74 411.238 279.64C411.238 279.64 411.338 279.64 411.518 279.64C412.698 279.64 416.938 279.86 416.938 283.04ZM418.118 282.92C418.118 280.58 416.218 279.18 412.918 278.56C412.918 278.56 412.498 277.9 411.018 277.9H410.918C408.118 277.96 404.378 283.44 404.378 287.34C404.378 288.84 404.938 290.12 406.318 290.76C406.818 291 407.298 291.08 407.998 291.1H408.158C411.898 291.1 418.118 286.08 418.118 283.06V282.92ZM426.924 283.04C426.924 282.8 426.764 282.56 426.644 282.52C426.304 282.4 426.004 282.36 425.724 282.36C424.524 282.36 423.704 283.28 422.964 283.98C421.684 285.16 420.304 287 420.304 287C420.304 285.66 420.304 285.28 420.284 284.58C420.244 283.36 420.184 282.9 419.884 282.62C419.724 282.48 419.584 282.42 419.444 282.42C419.244 282.42 418.844 282.66 418.844 282.88C418.844 283.12 419.284 283.54 419.284 286.04C419.284 286.44 419.264 286.88 419.244 287.4C419.164 288.94 418.924 289.96 418.924 290.56C418.924 290.82 418.964 291 419.084 291.12C419.224 291.26 419.424 291.36 419.624 291.36C419.784 291.36 419.944 291.3 420.064 291.14C420.324 290.8 420.064 289.26 420.804 288.14C422.244 285.96 423.764 284.26 425.024 283.52C425.224 283.4 425.404 283.36 425.544 283.36C425.864 283.36 426.084 283.54 426.344 283.54C426.644 283.54 426.924 283.3 426.924 283.04ZM431.825 288.08C430.225 289 428.345 290.24 427.085 290.24C426.385 290.24 425.885 289.8 425.885 289.14C425.885 287.56 428.145 284.9 429.765 284.9C429.945 284.9 430.125 284.92 430.285 285C431.525 285.54 431.825 288.08 431.825 288.08ZM434.545 277.92C434.545 277.4 434.125 276.92 433.525 276.92C433.285 276.92 433.185 277.12 433.185 277.44C433.185 277.68 433.205 277.92 433.305 278.24C433.325 278.3 433.325 278.34 433.325 278.4C433.325 279.46 432.505 286.14 432.505 286.14C431.985 285.2 431.645 284.26 430.045 283.92C429.965 283.9 429.845 283.9 429.745 283.9C427.905 283.9 424.845 286.66 424.845 289.06C424.845 290.32 425.625 291.28 426.945 291.28C429.045 291.28 431.965 289.28 431.965 289.28C432.125 289.86 431.905 290.5 432.865 290.64C433.205 290.64 433.285 290.22 433.285 289.76C433.285 289.2 433.165 288.58 433.165 288.58C433.845 288.3 434.385 288.32 434.385 287.78C434.385 287.7 434.385 287.62 434.345 287.5C434.245 287.08 433.505 287.02 433.505 287.02C433.645 284.12 434.325 278.68 434.465 278.3C434.525 278.18 434.545 278.04 434.545 277.92ZM440.877 283.7C440.257 284.26 439.917 284.48 439.397 284.78C438.157 285.54 437.037 285.6 437.037 285.6C437.037 285.6 437.657 284.78 438.677 284.26C439.397 283.88 440.137 283.7 440.877 283.7ZM444.817 287.16C444.817 286.82 444.517 286.52 444.217 286.52C443.877 286.52 443.657 287.04 443.537 287.26C443.337 287.54 440.237 290.08 438.657 290.08C437.777 290.08 437.397 289.6 437.037 289.02C436.597 288.34 436.497 287.72 436.497 287.3C436.497 286.94 436.557 286.72 436.557 286.72C437.117 286.68 438.337 286.56 439.577 285.8C440.717 285.12 442.417 283.84 442.417 283.34C442.417 283.28 442.397 283.24 442.337 283.2C441.857 282.88 441.277 282.74 440.617 282.74C438.517 282.74 435.937 284.28 435.417 286.54C435.357 286.78 435.337 287.02 435.337 287.26C435.337 288.74 436.257 290.32 437.557 290.92C437.817 291.04 438.117 291.1 438.437 291.1C440.697 291.1 443.917 288.16 444.357 287.92C444.617 287.74 444.817 287.44 444.817 287.16ZM453.623 283.04C453.623 282.8 453.463 282.56 453.343 282.52C453.003 282.4 452.703 282.36 452.423 282.36C451.223 282.36 450.403 283.28 449.663 283.98C448.383 285.16 447.003 287 447.003 287C447.003 285.66 447.003 285.28 446.983 284.58C446.943 283.36 446.883 282.9 446.583 282.62C446.423 282.48 446.283 282.42 446.143 282.42C445.943 282.42 445.543 282.66 445.543 282.88C445.543 283.12 445.983 283.54 445.983 286.04C445.983 286.44 445.963 286.88 445.943 287.4C445.863 288.94 445.623 289.96 445.623 290.56C445.623 290.82 445.663 291 445.783 291.12C445.923 291.26 446.123 291.36 446.323 291.36C446.483 291.36 446.643 291.3 446.763 291.14C447.023 290.8 446.763 289.26 447.503 288.14C448.943 285.96 450.463 284.26 451.723 283.52C451.923 283.4 452.103 283.36 452.243 283.36C452.563 283.36 452.783 283.54 453.043 283.54C453.343 283.54 453.623 283.3 453.623 283.04ZM459.327 281.56V281.48C459.307 281.24 458.607 280.88 458.347 280.76C458.227 280.7 458.067 280.66 457.887 280.66C457.627 280.66 457.307 280.74 457.067 280.94C455.747 282.04 453.227 283.92 453.227 286.12C453.227 289.12 457.827 288.92 458.107 289.9C458.107 290.62 455.207 291.6 455.087 291.8C455.007 291.9 454.967 292 454.967 292.1C454.967 292.38 455.267 292.62 455.687 292.64C455.987 292.64 459.267 290.92 459.267 290.1C459.267 288.86 458.127 288.66 456.907 288.18C455.587 287.68 454.267 287.28 454.267 286.12C454.267 285.5 454.767 284.34 455.667 283.54C457.247 282.12 457.467 281.7 458.147 281.68C458.307 281.68 458.527 281.92 458.907 281.92C459.207 281.92 459.327 281.76 459.327 281.56Z" fill="#33778F"/>
<path d="M209.303 7.96C209.283 9.9 200.743 13.22 200.743 13.22L200.883 10.68C200.923 9.88 201.043 8.2 201.043 8.2C201.703 8.16 202.383 8.1 202.923 7.98C203.343 7.88 205.863 7.54 207.623 7.54C208.583 7.54 209.303 7.64 209.303 7.96ZM210.743 7.74C210.743 7.52 210.663 7.3 210.523 7.1C210.223 6.7 209.143 6.56 207.823 6.56C205.323 6.56 201.963 7.04 201.383 7.04C200.863 6.98 200.903 6.68 200.403 6.68C200.003 6.68 199.643 7.16 199.643 7.56C199.643 7.62 199.663 7.7 199.683 7.76C199.763 7.98 199.803 8.48 199.803 9.06C199.803 9.64 199.763 10.32 199.743 10.84C199.683 11.9 199.483 14.3 199.483 14.3C199.363 14.46 199.363 14.6 199.363 14.7C199.363 14.82 199.483 15.08 199.483 15.08C199.343 17.5 199.383 18.7 199.283 19.84C199.263 20.04 199.243 20.24 199.243 20.42C199.243 20.82 199.443 21.12 199.823 21.12C200.143 21.12 200.523 20.9 200.523 20.22C200.523 20.08 200.503 19.9 200.463 19.7C200.423 19.52 200.403 19.18 200.403 18.74C200.403 17.18 200.603 14.5 200.603 14.5C203.023 13.48 210.743 10.06 210.743 7.74ZM210.077 14C211.177 14 211.657 15.28 211.657 16.16C211.657 16.86 211.417 17.56 211.077 18.22C210.697 18.94 209.437 20.04 208.517 20.04C207.597 20.04 207.217 18.74 207.217 18.02C207.217 17.74 207.257 17.46 207.337 17.24C208.357 14.22 209.917 14 210.077 14ZM212.657 16.4C212.657 16.18 212.637 15.98 212.617 15.74C212.397 13.56 210.717 12.86 209.917 12.86C208.757 12.86 207.597 13.92 206.477 16.46C206.237 17 206.137 17.52 206.137 18.04C206.137 19.36 206.877 21.08 208.297 21.08C209.977 21.08 212.657 19.26 212.657 16.4ZM216.372 7.28C216.372 7 216.312 6.86 216.212 6.74C216.012 6.52 215.852 6.44 215.712 6.44C215.532 6.44 215.412 6.56 215.272 6.68C215.012 6.9 214.952 8.62 214.712 11.22C214.472 13.66 214.052 17.96 214.052 20.34C214.052 21.24 214.132 21.88 214.292 21.98C214.472 22.12 214.632 22.16 214.772 22.16C215.172 22.16 215.252 21.58 215.252 21.14C215.252 20.46 215.192 19.74 215.192 19.1C215.192 17.5 215.292 15.58 215.532 13.7C216.032 9.5 216.372 7.98 216.372 7.28ZM220.01 13.58C220.01 13.12 219.73 12.82 219.39 12.82C218.69 12.86 218.77 14 218.71 15.1C218.61 17.02 218.51 18.46 218.51 19.42C218.51 20.14 218.57 20.58 218.75 20.72C218.91 20.84 219.09 20.9 219.23 20.9C219.63 20.9 219.77 20.58 219.77 20.24C219.77 19.88 219.53 19.84 219.53 18.94V18.56C219.53 17.78 220.01 14.26 220.01 13.58ZM220.05 6.94C220.05 6.62 219.83 6.38 219.55 6.38C219.03 6.38 219.19 6.84 218.77 7.7C218.53 8.22 218.43 8.68 218.43 9.04C218.43 9.32 218.49 9.72 218.79 9.72C218.93 9.72 219.05 9.64 219.15 9.54C219.35 9.34 219.21 9 219.51 8.26C219.77 7.62 220.03 7.28 220.05 7.02V6.94ZM232.557 17.26C232.557 17.04 232.377 16.82 232.137 16.82C232.077 16.82 232.017 16.84 231.957 16.86C231.737 16.94 226.957 20.08 224.437 20.08C223.577 20.08 222.897 19.6 222.897 18.76C222.897 17.02 225.497 14.36 225.957 14.22C225.997 14.2 226.057 14.2 226.117 14.2C226.357 14.2 226.577 14.3 226.777 14.3C227.157 14.3 227.577 13.7 227.577 13.34C227.577 13.06 227.377 12.86 226.897 12.86C226.797 12.86 226.677 12.86 226.557 12.88C224.817 13.14 221.797 16.62 221.797 18.94C221.797 20.34 223.117 21 224.297 21C227.557 21 232.537 17.52 232.557 17.34V17.26ZM239.133 15.02C239.133 14.26 238.973 13.46 238.653 13.34C238.573 13.3 238.493 13.3 238.433 13.3C238.013 13.3 237.933 13.92 237.673 14.24C236.053 16.14 234.413 18.1 233.913 18.1C233.773 18.1 233.753 17.88 233.753 17.76C233.753 16.04 234.473 14.46 234.553 12.82C234.533 12.5 234.093 12.2 233.873 12.2C233.273 12.2 233.233 13.84 233.193 14.08C232.933 15.72 232.653 17.42 232.653 18.54C232.653 19.32 232.793 19.84 233.233 19.84C234.433 19.86 237.913 15.46 237.913 15.46C237.853 18.46 237.713 19.92 237.433 22.66C237.033 26.68 236.793 28.98 236.653 29.02C236.573 29.04 236.413 29.36 236.413 29.66C236.413 29.98 236.593 30.3 237.213 30.3C237.733 30.3 237.933 30.06 237.933 29.76C237.933 29.44 237.733 29.06 237.653 28.96C237.633 28.94 237.633 28.9 237.633 28.82C237.633 28.4 237.873 27.12 238.153 24.68C238.533 21.36 238.953 16.78 239.093 15.66C239.113 15.46 239.133 15.24 239.133 15.02ZM259.064 16.86C259.004 13.06 249.004 13.86 249.004 11.58C249.004 9.82 253.624 8.06 255.544 8.06C256.084 8.06 256.304 8.7 256.744 8.7C257.124 8.7 257.424 8.46 257.424 8.26C257.424 8.2 257.424 8.16 257.384 8.12C256.944 7.5 256.824 6.9 255.304 6.9C253.364 6.9 247.704 8.88 247.704 11.9C247.704 14.9 257.904 13.78 257.904 17.1C257.904 18.5 253.784 20.76 252.224 20.98C251.864 21.04 251.324 21.32 251.324 21.86C251.324 22.4 251.844 22.54 252.264 22.54C252.684 22.54 253.104 22.38 253.184 21.9C253.244 21.56 259.064 19.7 259.064 16.86ZM265.486 13.7C264.866 14.26 264.526 14.48 264.006 14.78C262.766 15.54 261.646 15.6 261.646 15.6C261.646 15.6 262.266 14.78 263.286 14.26C264.006 13.88 264.746 13.7 265.486 13.7ZM269.426 17.16C269.426 16.82 269.126 16.52 268.826 16.52C268.486 16.52 268.266 17.04 268.146 17.26C267.946 17.54 264.846 20.08 263.266 20.08C262.386 20.08 262.006 19.6 261.646 19.02C261.206 18.34 261.106 17.72 261.106 17.3C261.106 16.94 261.166 16.72 261.166 16.72C261.726 16.68 262.946 16.56 264.186 15.8C265.326 15.12 267.026 13.84 267.026 13.34C267.026 13.28 267.006 13.24 266.946 13.2C266.466 12.88 265.886 12.74 265.226 12.74C263.126 12.74 260.546 14.28 260.026 16.54C259.966 16.78 259.946 17.02 259.946 17.26C259.946 18.74 260.866 20.32 262.166 20.92C262.426 21.04 262.726 21.1 263.046 21.1C265.306 21.1 268.526 18.16 268.966 17.92C269.226 17.74 269.426 17.44 269.426 17.16ZM277.943 12.52C277.903 11.96 277.183 11.98 276.763 11.96C276.583 11.96 276.403 11.94 276.223 11.94C274.803 11.94 273.603 12.2 273.603 12.2C273.783 10.9 273.903 10.58 274.023 9.38C274.063 8.96 274.083 8.6 274.083 8.3C274.083 7.24 273.843 6.86 273.463 6.86C273.083 6.86 273.003 7.22 273.003 7.64C273.003 7.92 273.043 8.2 273.043 8.54C273.043 9.22 272.563 12.38 272.563 12.38C271.363 12.7 271.103 12.8 269.963 13.24C268.863 13.66 268.823 13.8 268.723 14.1C268.703 14.16 268.703 14.2 268.703 14.24C268.703 14.52 269.103 14.82 269.323 14.82C269.683 14.82 270.363 14.2 270.703 14.04C271.423 13.7 272.403 13.48 272.403 13.48C272.303 14.34 272.223 14.74 272.083 16.16C271.863 18.2 271.863 19.44 271.863 20.34C271.863 20.66 271.963 21.4 272.563 21.44H272.643C273.023 21.44 273.123 21.22 273.123 20.96C273.123 20.72 273.023 20.44 273.023 20.36C273.003 20.06 273.003 19.72 273.003 19.38C273.003 16.72 273.423 13.5 273.443 13.26C274.163 13.1 275.543 12.82 276.783 12.82C276.943 12.82 277.223 12.88 277.463 12.88C277.723 12.88 277.943 12.82 277.943 12.52ZM286.33 6.94C286.33 6.62 286.11 6.38 285.83 6.38C285.31 6.38 285.47 6.84 285.05 7.7C284.81 8.22 284.71 8.68 284.71 9.04C284.71 9.32 284.77 9.72 285.07 9.72C285.21 9.72 285.33 9.62 285.43 9.52C285.63 9.32 285.49 9 285.79 8.26C286.05 7.62 286.31 7.28 286.33 7.02V6.94ZM285.03 12.88C284.59 13.14 284.65 14.14 284.59 15.1C284.49 17.02 284.39 18.46 284.39 19.42C284.39 20.14 284.45 20.58 284.63 20.72C284.79 20.84 284.97 20.9 285.11 20.9C285.51 20.9 285.65 20.58 285.65 20.24C285.65 19.88 285.41 19.84 285.41 18.94V18.56C285.41 17.78 285.89 14.26 285.89 13.58C285.89 13.16 285.65 12.86 285.35 12.82C285.45 12.78 285.51 12.68 285.51 12.52C285.47 12.02 284.83 12.02 284.33 11.98C284.15 11.96 283.61 11.94 283.43 11.94C282.01 11.94 280.81 12.2 280.81 12.2C280.99 10.9 281.11 10.58 281.23 9.38C281.27 8.96 281.29 8.6 281.29 8.3C281.29 7.24 281.05 6.86 280.67 6.86C280.29 6.86 280.21 7.22 280.21 7.64C280.21 7.92 280.25 8.2 280.25 8.42V8.54C280.05 10.74 279.77 12.38 279.77 12.38C278.57 12.7 278.31 12.8 277.17 13.24C276.07 13.66 276.03 13.82 275.93 14.12C275.91 14.16 275.91 14.2 275.91 14.24C275.91 14.52 276.19 14.74 276.53 14.82C276.89 14.82 277.57 14.2 277.91 14.04C278.63 13.7 279.61 13.48 279.61 13.48C279.51 14.34 279.43 14.74 279.29 16.16C279.07 18.2 279.07 19.44 279.07 20.34C279.07 20.66 279.17 21.4 279.77 21.44H279.85C280.23 21.44 280.33 21.22 280.33 20.96C280.33 20.72 280.23 20.44 280.23 20.36C280.21 20.06 280.21 19.72 280.21 19.38C280.21 16.72 280.63 13.5 280.65 13.26C281.37 13.1 282.75 12.82 284.35 12.82C284.51 12.82 284.79 12.88 285.03 12.88ZM293.971 21.5C293.971 21.18 293.771 20.8 293.631 20.52C293.591 20.38 293.571 20.02 293.571 19.22V16.92C293.571 14.32 293.471 12.46 292.531 12.26H292.451C291.211 12.26 289.091 16.86 289.091 16.86C289.071 16.7 289.071 16.58 289.071 16.48C289.071 16.22 289.111 15.98 289.111 15.4C289.111 14.24 289.311 13.48 289.311 13.04C289.311 12.88 289.291 12.78 289.231 12.7C289.111 12.54 288.851 12.38 288.591 12.38C288.391 12.38 288.211 12.5 288.151 12.84C288.111 13.12 287.931 14.56 287.891 16.44C287.851 18.6 287.731 19.76 287.731 20.4C287.731 20.72 287.771 20.92 287.851 21.06C287.991 21.24 288.151 21.3 288.291 21.3C288.431 21.3 288.571 21.24 288.671 21.2C288.911 21.02 288.891 20.5 289.491 18.88C290.391 16.44 291.871 13.68 292.231 13.68C292.471 13.68 292.491 15.3 292.491 15.54L292.471 17.48C292.471 19.28 292.671 20.22 292.671 20.64C292.671 20.84 292.611 20.96 292.611 21.1C292.611 21.64 293.111 22 293.511 22C293.811 22 293.971 21.74 293.971 21.5ZM302.258 24.36C302.258 25.68 301.738 27.12 300.698 28.78C299.938 29.98 298.438 31.1 296.958 31.1C295.618 31.1 294.178 29.98 294.178 28.62C294.178 27.88 294.558 27.06 295.318 26.14C297.758 23.16 301.938 22.56 301.938 22.56C302.138 23.14 302.258 23.74 302.258 24.36ZM300.678 16.64C300.678 17.64 299.098 18.56 298.238 18.92C297.658 19.16 296.838 19.32 296.838 19.32C296.838 19.32 296.678 18.9 296.678 18.52C296.678 18.04 297.298 16.64 299.158 14.98C299.938 15.12 300.678 15.8 300.678 16.64ZM309.018 22.22C309.018 22.18 308.998 22.12 308.978 22.08C308.618 21.34 307.078 21.26 305.778 21.26C304.398 21.26 302.558 21.46 302.558 21.46C302.118 20.82 301.938 20.48 301.138 19.92C300.438 19.42 299.758 19.26 299.758 19.26C300.798 18.44 301.638 17.72 301.638 16.6C301.638 15.82 301.118 15.18 300.598 14.7C301.618 14.58 302.498 14.32 303.338 14.32C303.718 14.32 303.958 14.36 304.098 14.36C304.318 14.36 304.478 14.12 304.478 13.96C304.478 13.78 304.258 13.64 303.998 13.56C303.918 13.54 303.778 13.52 303.598 13.52C302.458 13.52 299.678 14 298.558 14C298.338 14 298.178 13.98 298.118 13.94C297.958 13.82 297.838 13.76 297.718 13.76C297.438 13.76 297.298 14.06 297.278 14.28C297.278 14.58 297.838 14.9 297.838 14.9C296.478 16.54 295.598 17.38 295.598 18.44C295.598 19.04 295.838 19.58 295.838 19.58C295.458 19.7 294.938 19.86 294.938 20.3C294.938 20.6 295.318 20.8 295.578 20.8C296.118 20.8 296.798 20.14 298.518 20.14C298.698 20.14 298.878 20.14 299.098 20.16C300.778 20.3 301.538 21.66 301.538 21.66C298.678 22.34 296.838 22.94 294.458 25.54C293.518 26.56 293.118 27.64 293.118 28.62C293.118 30.76 295.178 32.18 296.998 32.18C299.318 32.18 301.238 30.14 302.018 28.6C303.018 26.62 303.278 25.1 303.278 24.06C303.278 22.92 302.978 22.34 302.978 22.34C304.038 22.18 305.298 22.08 306.338 22.08C306.798 22.08 307.098 22.1 307.098 22.1C307.318 22.38 307.198 22.64 307.998 22.64C308.478 22.64 309.018 22.52 309.018 22.22ZM310.851 11.56V11.48C310.831 11.24 310.131 10.88 309.871 10.76C309.751 10.7 309.591 10.66 309.411 10.66C309.151 10.66 308.831 10.74 308.591 10.94C307.271 12.04 304.751 13.92 304.751 16.12C304.751 19.12 309.351 18.92 309.631 19.9C309.631 20.62 306.731 21.6 306.611 21.8C306.531 21.9 306.491 22 306.491 22.1C306.491 22.38 306.791 22.62 307.211 22.64C307.511 22.64 310.791 20.92 310.791 20.1C310.791 18.86 309.651 18.66 308.431 18.18C307.111 17.68 305.791 17.28 305.791 16.12C305.791 15.5 306.291 14.34 307.191 13.54C308.771 12.12 308.991 11.7 309.671 11.68C309.831 11.68 310.051 11.92 310.431 11.92C310.731 11.92 310.851 11.76 310.851 11.56ZM313.987 20.58C313.987 20.14 313.727 19.74 313.307 19.74H313.227C313.007 19.74 312.487 20.06 312.487 20.6C312.487 21.08 312.747 21.42 313.207 21.42C313.787 21.42 313.987 21.1 313.987 20.58ZM335.61 13.04V13.18C335.53 15.38 330.55 19.96 326.87 19.96C325.07 19.96 324.17 18.94 324.17 17.26C324.17 14.98 325.69 11.68 327.99 9.82C328.11 9.8 328.27 10.26 328.75 10.26C329.27 10.26 329.63 9.74 329.91 9.64C329.91 9.64 330.01 9.64 330.19 9.64C331.37 9.64 335.61 9.86 335.61 13.04ZM336.79 12.92C336.79 10.58 334.89 9.18 331.59 8.56C331.59 8.56 331.17 7.9 329.69 7.9H329.59C326.79 7.96 323.05 13.44 323.05 17.34C323.05 18.84 323.61 20.12 324.99 20.76C325.49 21 325.97 21.08 326.67 21.1H326.83C330.57 21.1 336.79 16.08 336.79 13.06V12.92ZM345.596 13.04C345.596 12.8 345.436 12.56 345.316 12.52C344.976 12.4 344.676 12.36 344.396 12.36C343.196 12.36 342.376 13.28 341.636 13.98C340.356 15.16 338.976 17 338.976 17C338.976 15.66 338.976 15.28 338.956 14.58C338.916 13.36 338.856 12.9 338.556 12.62C338.396 12.48 338.256 12.42 338.116 12.42C337.916 12.42 337.516 12.66 337.516 12.88C337.516 13.12 337.956 13.54 337.956 16.04C337.956 16.44 337.936 16.88 337.916 17.4C337.836 18.94 337.596 19.96 337.596 20.56C337.596 20.82 337.636 21 337.756 21.12C337.896 21.26 338.096 21.36 338.296 21.36C338.456 21.36 338.616 21.3 338.736 21.14C338.996 20.8 338.736 19.26 339.476 18.14C340.916 15.96 342.436 14.26 343.696 13.52C343.896 13.4 344.076 13.36 344.216 13.36C344.536 13.36 344.756 13.54 345.016 13.54C345.316 13.54 345.596 13.3 345.596 13.04ZM350.497 18.08C348.897 19 347.017 20.24 345.757 20.24C345.057 20.24 344.557 19.8 344.557 19.14C344.557 17.56 346.817 14.9 348.437 14.9C348.617 14.9 348.797 14.92 348.957 15C350.197 15.54 350.497 18.08 350.497 18.08ZM353.217 7.92C353.217 7.4 352.797 6.92 352.197 6.92C351.957 6.92 351.857 7.12 351.857 7.44C351.857 7.68 351.877 7.92 351.977 8.24C351.997 8.3 351.997 8.34 351.997 8.4C351.997 9.46 351.177 16.14 351.177 16.14C350.657 15.2 350.317 14.26 348.717 13.92C348.637 13.9 348.517 13.9 348.417 13.9C346.577 13.9 343.517 16.66 343.517 19.06C343.517 20.32 344.297 21.28 345.617 21.28C347.717 21.28 350.637 19.28 350.637 19.28C350.797 19.86 350.577 20.5 351.537 20.64C351.877 20.64 351.957 20.22 351.957 19.76C351.957 19.2 351.837 18.58 351.837 18.58C352.517 18.3 353.057 18.32 353.057 17.78C353.057 17.7 353.057 17.62 353.017 17.5C352.917 17.08 352.177 17.02 352.177 17.02C352.317 14.12 352.997 8.68 353.137 8.3C353.197 8.18 353.217 8.04 353.217 7.92ZM359.548 13.7C358.928 14.26 358.588 14.48 358.068 14.78C356.828 15.54 355.708 15.6 355.708 15.6C355.708 15.6 356.328 14.78 357.348 14.26C358.068 13.88 358.808 13.7 359.548 13.7ZM363.488 17.16C363.488 16.82 363.188 16.52 362.888 16.52C362.548 16.52 362.328 17.04 362.208 17.26C362.008 17.54 358.908 20.08 357.328 20.08C356.448 20.08 356.068 19.6 355.708 19.02C355.268 18.34 355.168 17.72 355.168 17.3C355.168 16.94 355.228 16.72 355.228 16.72C355.788 16.68 357.008 16.56 358.248 15.8C359.388 15.12 361.088 13.84 361.088 13.34C361.088 13.28 361.068 13.24 361.008 13.2C360.528 12.88 359.948 12.74 359.288 12.74C357.188 12.74 354.608 14.28 354.088 16.54C354.028 16.78 354.008 17.02 354.008 17.26C354.008 18.74 354.928 20.32 356.228 20.92C356.488 21.04 356.788 21.1 357.108 21.1C359.368 21.1 362.588 18.16 363.028 17.92C363.288 17.74 363.488 17.44 363.488 17.16ZM372.295 13.04C372.295 12.8 372.135 12.56 372.015 12.52C371.675 12.4 371.375 12.36 371.095 12.36C369.895 12.36 369.075 13.28 368.335 13.98C367.055 15.16 365.675 17 365.675 17C365.675 15.66 365.675 15.28 365.655 14.58C365.615 13.36 365.555 12.9 365.255 12.62C365.095 12.48 364.955 12.42 364.815 12.42C364.615 12.42 364.215 12.66 364.215 12.88C364.215 13.12 364.655 13.54 364.655 16.04C364.655 16.44 364.635 16.88 364.615 17.4C364.535 18.94 364.295 19.96 364.295 20.56C364.295 20.82 364.335 21 364.455 21.12C364.595 21.26 364.795 21.36 364.995 21.36C365.155 21.36 365.315 21.3 365.435 21.14C365.695 20.8 365.435 19.26 366.175 18.14C367.615 15.96 369.135 14.26 370.395 13.52C370.595 13.4 370.775 13.36 370.915 13.36C371.235 13.36 371.455 13.54 371.715 13.54C372.015 13.54 372.295 13.3 372.295 13.04ZM391.419 11.78C391.419 12.14 391.299 12.5 391.159 12.78C389.679 15.98 382.279 19.9 382.279 19.9C382.279 19.9 381.919 18.1 381.919 16.12C381.919 15.92 381.939 15.7 381.939 15.5C382.019 13.32 382.219 11 382.559 8.18C382.559 8.18 382.959 8 384.379 7.98H384.459C387.279 7.98 391.419 9.5 391.419 11.78ZM392.619 11.7C392.599 9.08 388.439 6.98 384.059 6.98H383.759C381.939 7.02 379.879 7.48 379.179 7.92C378.999 8.04 378.919 8.18 378.919 8.34C378.919 8.68 379.299 9.02 379.639 9.02H379.719L381.219 8.5C381.219 8.5 380.939 12.6 380.859 14.4C380.839 14.66 380.839 14.94 380.839 15.26C380.839 17.34 381.079 20.28 381.079 20.28C380.999 20.54 380.899 20.82 380.899 21.1C380.899 21.36 380.979 21.62 381.119 21.76C381.139 21.78 381.159 21.78 381.179 21.78C381.219 21.78 381.259 21.76 381.299 21.76C381.439 21.76 381.479 21.94 381.619 21.94C382.419 21.9 382.499 21.54 382.499 21.28C382.499 21.1 382.559 21.06 382.559 21.06C386.079 18.94 392.619 15.22 392.619 11.7ZM397.009 13.7C396.389 14.26 396.049 14.48 395.529 14.78C394.289 15.54 393.169 15.6 393.169 15.6C393.169 15.6 393.789 14.78 394.809 14.26C395.529 13.88 396.269 13.7 397.009 13.7ZM400.949 17.16C400.949 16.82 400.649 16.52 400.349 16.52C400.009 16.52 399.789 17.04 399.669 17.26C399.469 17.54 396.369 20.08 394.789 20.08C393.909 20.08 393.529 19.6 393.169 19.02C392.729 18.34 392.629 17.72 392.629 17.3C392.629 16.94 392.689 16.72 392.689 16.72C393.249 16.68 394.469 16.56 395.709 15.8C396.849 15.12 398.549 13.84 398.549 13.34C398.549 13.28 398.529 13.24 398.469 13.2C397.989 12.88 397.409 12.74 396.749 12.74C394.649 12.74 392.069 14.28 391.549 16.54C391.489 16.78 391.469 17.02 391.469 17.26C391.469 18.74 392.389 20.32 393.689 20.92C393.949 21.04 394.249 21.1 394.569 21.1C396.829 21.1 400.049 18.16 400.489 17.92C400.749 17.74 400.949 17.44 400.949 17.16ZM404.536 7.28C404.536 7 404.476 6.86 404.376 6.74C404.176 6.52 404.016 6.44 403.876 6.44C403.696 6.44 403.576 6.56 403.436 6.68C403.176 6.9 403.116 8.62 402.876 11.22C402.636 13.66 402.216 17.96 402.216 20.34C402.216 21.24 402.296 21.88 402.456 21.98C402.636 22.12 402.796 22.16 402.936 22.16C403.336 22.16 403.416 21.58 403.416 21.14C403.416 20.46 403.356 19.74 403.356 19.1C403.356 17.5 403.456 15.58 403.696 13.7C404.196 9.5 404.536 7.98 404.536 7.28ZM409.342 19.3C409.342 19.3 408.002 20.42 407.022 20.42C406.522 20.42 406.342 20.14 406.342 19.7C406.342 18.7 407.182 17.62 408.182 17.62C408.842 17.62 409.342 19.3 409.342 19.3ZM411.342 16.66C411.342 15.1 410.942 13.5 409.562 12.64C409.242 12.44 408.862 12.36 408.442 12.36C407.282 12.36 405.982 13.04 405.982 13.72C406.002 14.08 406.342 14.22 406.562 14.22C406.662 14.22 406.722 14.2 406.722 14.12C406.762 13.84 407.542 13.3 408.342 13.3C409.922 13.3 410.342 15.54 410.342 16.7C410.342 17.78 410.022 18.52 410.022 18.52C409.722 17.6 409.222 16.62 408.122 16.62C406.582 16.62 405.402 18.44 405.402 19.78C405.402 20.74 405.982 21.36 406.982 21.36C408.222 21.36 409.642 20.36 409.642 20.36C409.642 20.36 409.702 20.7 409.822 20.82C409.922 20.94 410.102 20.98 410.242 20.98C410.342 20.98 410.442 20.96 410.482 20.9C410.582 20.84 411.342 18.78 411.342 16.66ZM419.445 15.02C419.445 14.26 419.285 13.46 418.965 13.34C418.885 13.3 418.805 13.3 418.745 13.3C418.325 13.3 418.245 13.92 417.985 14.24C416.365 16.14 414.725 18.1 414.225 18.1C414.085 18.1 414.065 17.88 414.065 17.76C414.065 16.04 414.785 14.46 414.865 12.82C414.845 12.5 414.405 12.2 414.185 12.2C413.585 12.2 413.545 13.84 413.505 14.08C413.245 15.72 412.965 17.42 412.965 18.54C412.965 19.32 413.105 19.84 413.545 19.84C414.745 19.86 418.225 15.46 418.225 15.46C418.165 18.46 418.025 19.92 417.745 22.66C417.345 26.68 417.105 28.98 416.965 29.02C416.885 29.04 416.725 29.36 416.725 29.66C416.725 29.98 416.905 30.3 417.525 30.3C418.045 30.3 418.245 30.06 418.245 29.76C418.245 29.44 418.045 29.06 417.965 28.96C417.945 28.94 417.945 28.9 417.945 28.82C417.945 28.4 418.185 27.12 418.465 24.68C418.845 21.36 419.265 16.78 419.405 15.66C419.425 15.46 419.445 15.24 419.445 15.02Z" fill="#33778F"/>
<path d="M324.637 26C330.888 44.6681 343.742 60.9061 351.412 79.0876C359.592 98.477 363.9 119.394 371.678 138.915C377.283 152.981 382.667 167.029 388.433 181.042C390.661 186.458 392.23 192.116 394.369 197.583C394.55 198.046 397.23 205.277 396.022 204.186C392.977 201.437 391.617 197.525 388.624 194.822C384.076 190.717 382.772 189.073 387.977 195.443C390.276 198.257 391.317 201.703 395.314 201.996C398.547 202.233 397.863 191.854 398.075 188.967" stroke="#AFAF3F" stroke-linecap="round"/>
<path d="M149 297C159.096 302.288 166.582 310.601 177.5 313.766C188.871 317.063 197.621 318.097 209 321.369C216.553 323.541 225.626 324.4 233.5 324.5C240.963 324.595 247.009 325.5 254 325.5C247.964 325.5 277.672 326.7 280 326.7C301.855 326.7 315.717 325.909 337.5 326.7C346.107 327.013 348.399 326.261 355 323.5C358.743 321.934 363.717 320.633 363.717 320.633C363.717 320.633 369.583 318.588 369.709 317.992C370.208 316.935 373.703 313.766 373.703 313.766C373.703 313.766 376 310.556 376.699 308.485C378.395 303.462 360.896 313.245 368.631 309.265C371.382 307.849 374.9 306.124 378.029 306.379C379.501 306.499 378.862 311.268 378.862 312.511C378.862 314.188 378.862 322.784 378.862 317.201" stroke="#AFAF3F" stroke-linecap="round"/>
<path d="M51.6499 363.07C56.6215 349.631 64.439 342.262 71.8699 328.5C73.6544 325.195 74.3358 323.158 76.3699 320C81.4641 312.092 85.6192 308.947 93.4384 303.005C94.8125 301.96 97.6117 298.427 99.1017 297.599M99.1017 297.599C99.307 297.485 99.256 297.676 99.1017 297.599ZM99.1017 297.599C98.0854 297.091 92.4261 297 95.3699 297C100.952 297 100.433 300.429 100.433 304.357" stroke="#AFAF3F" stroke-linecap="round"/>
</g>
<defs>
<clipPath id="clip0_1273_268">
<rect width="556" height="395" fill="white"/>
</clipPath>
</defs>
</svg>
