<svg width="1009" height="363" viewBox="0 0 1009 363" fill="none" xmlns="http://www.w3.org/2000/svg">
<path d="M98.316 22V14.954H102.528C105.674 14.954 107.91 12.822 107.91 9.832C107.91 8.246 107.156 6.634 106.012 5.75C105.102 5.022 103.854 4.658 102.294 4.658H96.158V22H98.316ZM98.316 13.16V6.478H102.45C104.374 6.478 105.7 7.856 105.7 9.832C105.7 11.834 104.348 13.16 102.294 13.16H98.316ZM112.527 22V15.214C112.579 12.484 114.425 10.56 116.843 10.768V8.87C116.557 8.844 116.271 8.818 116.115 8.818C115.127 8.818 114.165 9.26 113.593 9.936C113.125 10.508 112.891 10.898 112.267 12.172V9.182H110.525V22H112.527ZM123.511 8.844C120.079 8.844 117.713 11.574 117.713 15.552C117.713 19.634 119.949 22.338 123.303 22.338C126.761 22.338 129.231 19.582 129.231 15.734C129.231 11.548 126.995 8.844 123.511 8.844ZM123.433 10.482C124.473 10.482 125.487 11.002 126.137 11.86C126.761 12.744 127.047 13.888 127.047 15.63C127.047 18.802 125.695 20.7 123.459 20.7C121.197 20.7 119.897 18.828 119.897 15.526C119.897 13.966 120.209 12.718 120.781 11.886C121.379 11.028 122.419 10.482 123.433 10.482ZM137.513 9.182H134.549C134.549 7.648 134.575 7.388 134.757 6.946C135.043 6.27 135.641 5.88 136.447 5.88C136.785 5.88 137.045 5.906 137.513 6.036V4.45C136.915 4.346 136.629 4.32 136.265 4.32C134.705 4.32 133.535 5.022 132.937 6.348C132.651 7.024 132.573 7.466 132.547 9.182H130.285V10.742H132.547V22H134.549V10.742H137.513V9.182ZM140.737 9.182H138.735V22H140.737V9.182ZM140.815 4.658H138.657V6.868H140.815V4.658ZM150.575 20.622C149.873 20.752 149.509 20.778 149.041 20.778C147.663 20.778 146.961 20.102 146.961 18.776V10.742H149.847V9.182H146.961V5.802L145.089 5.958L145.011 9.182H142.749V10.742H145.011V18.464C145.011 21.038 146.259 22.364 148.677 22.364C149.275 22.364 149.691 22.338 150.575 22.208V20.622Z" fill="#575457"/>
<path d="M94 37H188.5" stroke="#575457" stroke-width="2"/>
<path d="M98.316 64V56.954H102.528C105.674 56.954 107.91 54.822 107.91 51.832C107.91 50.246 107.156 48.634 106.012 47.75C105.102 47.022 103.854 46.658 102.294 46.658H96.158V64H98.316ZM98.316 55.16V48.478H102.45C104.374 48.478 105.7 49.856 105.7 51.832C105.7 53.834 104.348 55.16 102.294 55.16H98.316ZM112.527 64V57.214C112.579 54.484 114.425 52.56 116.843 52.768V50.87C116.557 50.844 116.271 50.818 116.115 50.818C115.127 50.818 114.165 51.26 113.593 51.936C113.125 52.508 112.891 52.898 112.267 54.172V51.182H110.525V64H112.527ZM120.931 51.182H118.929V64H120.931V51.182ZM121.009 46.658H118.851V48.868H121.009V46.658ZM135.011 64V56.59C135.011 54.692 134.881 53.73 134.543 53.08C133.815 51.676 132.463 50.844 130.851 50.844C129.083 50.844 128.069 51.52 126.743 53.548V51.182H124.897V64H126.899V56.954C126.899 54.432 128.407 52.56 130.487 52.56C132.203 52.56 133.139 53.678 133.139 55.758V64H135.011ZM146.554 59.502C146.138 61.608 145.046 62.7 143.434 62.7C141.302 62.7 140.054 60.776 140.054 57.552C140.054 54.432 141.354 52.482 143.46 52.482C144.448 52.482 145.306 52.924 145.878 53.704C146.216 54.198 146.398 54.666 146.554 55.654L148.348 55.316C147.828 52.404 146.112 50.844 143.486 50.844C140.158 50.844 137.974 53.548 137.974 57.604C137.974 61.686 140.106 64.338 143.382 64.338C144.812 64.338 145.93 63.896 146.84 62.96C147.672 62.128 148.036 61.374 148.348 59.814L146.554 59.502ZM153.076 51.182H151.074V64H153.076V51.182ZM153.154 46.658H150.996V48.868H153.154V46.658ZM159.043 68.342V62.05C160.135 63.714 161.175 64.338 162.839 64.338C165.881 64.338 167.961 61.608 167.961 57.578C167.961 53.574 165.907 50.844 162.865 50.844C161.071 50.844 159.849 51.702 158.835 53.678V51.182H157.041V68.342H159.043ZM159.043 55.758C159.563 53.782 160.863 52.586 162.449 52.586C164.529 52.586 165.777 54.484 165.777 57.708C165.777 59.424 165.465 60.672 164.815 61.504C164.269 62.206 163.307 62.7 162.449 62.7C160.811 62.7 159.355 61.296 159.043 59.346V55.758ZM180.966 64C180.758 63.22 180.68 62.44 180.68 61.504V56.07C180.68 54.198 180.446 53.184 179.822 52.326C179.068 51.312 177.768 50.818 175.844 50.818C173.712 50.818 172.1 51.338 171.086 52.378C170.54 52.924 170.306 53.418 170.124 54.38L171.97 54.692C172.308 53.158 173.478 52.352 175.402 52.352C177.846 52.352 178.756 53.236 178.756 55.654V56.07C177.95 56.018 177.56 56.018 177.092 56.018C174.856 56.018 173.114 56.33 171.944 56.954C170.618 57.63 169.786 59.008 169.786 60.464C169.786 62.752 171.606 64.338 174.258 64.338C176.442 64.338 177.716 63.584 178.756 61.686C178.86 63.142 178.86 63.376 178.99 64H180.966ZM178.756 57.578C178.782 57.916 178.782 58.176 178.782 58.41C178.782 60.88 176.988 62.804 174.648 62.804C172.984 62.804 171.918 61.894 171.918 60.516C171.918 58.566 173.738 57.526 177.066 57.526C177.378 57.526 178.054 57.552 178.756 57.578ZM186.693 64V46.658H184.691V64H186.693Z" fill="#575457"/>
<path d="M257.316 20V12.954H261.528C264.674 12.954 266.91 10.822 266.91 7.832C266.91 6.246 266.156 4.634 265.012 3.75C264.102 3.022 262.854 2.658 261.294 2.658H255.158V20H257.316ZM257.316 11.16V4.478H261.45C263.374 4.478 264.7 5.856 264.7 7.832C264.7 9.834 263.348 11.16 261.294 11.16H257.316ZM271.527 20V13.214C271.579 10.484 273.425 8.56 275.843 8.768V6.87C275.557 6.844 275.271 6.818 275.115 6.818C274.127 6.818 273.165 7.26 272.593 7.936C272.125 8.508 271.891 8.898 271.267 10.172V7.182H269.525V20H271.527ZM282.511 6.844C279.079 6.844 276.713 9.574 276.713 13.552C276.713 17.634 278.949 20.338 282.303 20.338C285.761 20.338 288.231 17.582 288.231 13.734C288.231 9.548 285.995 6.844 282.511 6.844ZM282.433 8.482C283.473 8.482 284.487 9.002 285.137 9.86C285.761 10.744 286.047 11.888 286.047 13.63C286.047 16.802 284.695 18.7 282.459 18.7C280.197 18.7 278.897 16.828 278.897 13.526C278.897 11.966 279.209 10.718 279.781 9.886C280.379 9.028 281.419 8.482 282.433 8.482ZM296.513 7.182H293.549C293.549 5.648 293.575 5.388 293.757 4.946C294.043 4.27 294.641 3.88 295.447 3.88C295.785 3.88 296.045 3.906 296.513 4.036V2.45C295.915 2.346 295.629 2.32 295.265 2.32C293.705 2.32 292.535 3.022 291.937 4.348C291.651 5.024 291.573 5.466 291.547 7.182H289.285V8.742H291.547V20H293.549V8.742H296.513V7.182ZM299.737 7.182H297.735V20H299.737V7.182ZM299.815 2.658H297.657V4.868H299.815V2.658ZM309.575 18.622C308.873 18.752 308.509 18.778 308.041 18.778C306.663 18.778 305.961 18.102 305.961 16.776V8.742H308.847V7.182H305.961V3.802L304.089 3.958L304.011 7.182H301.749V8.742H304.011V16.464C304.011 19.038 305.259 20.364 307.677 20.364C308.275 20.364 308.691 20.338 309.575 20.208V18.622Z" fill="#575457"/>
<path d="M253 37H347.5" stroke="#575457" stroke-width="2"/>
<path d="M257.316 64V55.784H264.336V54.042H257.316V48.556H265.766V46.658H255.158V64H257.316ZM276.173 60.178C275.887 60.854 275.679 61.218 275.393 61.53C274.743 62.284 273.755 62.7 272.715 62.7C271.337 62.7 270.011 61.92 269.439 60.75C269.049 59.944 268.919 59.268 268.919 57.76H278.253C278.227 55.992 278.019 54.926 277.499 53.808C276.589 51.936 274.821 50.844 272.663 50.844C269.153 50.844 266.709 53.626 266.709 57.656C266.709 61.66 269.075 64.338 272.585 64.338C275.185 64.338 277.187 62.934 278.019 60.568L276.173 60.178ZM269.023 56.278C269.153 55.056 269.361 54.432 269.933 53.704C270.635 52.846 271.571 52.378 272.689 52.378C273.833 52.378 274.691 52.82 275.341 53.73C275.861 54.484 276.043 55.082 276.069 56.278H269.023ZM289.681 60.178C289.395 60.854 289.187 61.218 288.901 61.53C288.251 62.284 287.263 62.7 286.223 62.7C284.845 62.7 283.519 61.92 282.947 60.75C282.557 59.944 282.427 59.268 282.427 57.76H291.761C291.735 55.992 291.527 54.926 291.007 53.808C290.097 51.936 288.329 50.844 286.171 50.844C282.661 50.844 280.217 53.626 280.217 57.656C280.217 61.66 282.583 64.338 286.093 64.338C288.693 64.338 290.695 62.934 291.527 60.568L289.681 60.178ZM282.531 56.278C282.661 55.056 282.869 54.432 283.441 53.704C284.143 52.846 285.079 52.378 286.197 52.378C287.341 52.378 288.199 52.82 288.849 53.73C289.369 54.484 289.551 55.082 289.577 56.278H282.531ZM293.174 60.672C293.486 61.79 293.824 62.336 294.5 62.908C295.592 63.87 297.048 64.338 298.868 64.338C302.04 64.338 304.146 62.752 304.146 60.412C304.146 58.332 302.872 57.084 300.246 56.616L297.724 56.174C296.372 55.914 295.722 55.342 295.722 54.38C295.722 53.236 296.814 52.482 298.478 52.482C300.116 52.482 301.156 53.106 301.754 54.484L303.574 54.094C302.95 51.962 301.208 50.844 298.53 50.844C295.618 50.844 293.694 52.352 293.694 54.614C293.694 56.434 294.968 57.734 297.152 58.15L299.856 58.644C301.312 58.93 302.066 59.58 302.066 60.62C302.066 61.868 300.844 62.7 299.05 62.7C297.854 62.7 296.632 62.336 295.904 61.738C295.488 61.4 295.28 61.01 295.072 60.282L293.174 60.672Z" fill="#575457"/>
<path d="M449.316 25V16.784H456.336V15.042H449.316V9.556H457.766V7.658H447.158V25H449.316ZM468.173 21.178C467.887 21.854 467.679 22.218 467.393 22.53C466.743 23.284 465.755 23.7 464.715 23.7C463.337 23.7 462.011 22.92 461.439 21.75C461.049 20.944 460.919 20.268 460.919 18.76H470.253C470.227 16.992 470.019 15.926 469.499 14.808C468.589 12.936 466.821 11.844 464.663 11.844C461.153 11.844 458.709 14.626 458.709 18.656C458.709 22.66 461.075 25.338 464.585 25.338C467.185 25.338 469.187 23.934 470.019 21.568L468.173 21.178ZM461.023 17.278C461.153 16.056 461.361 15.432 461.933 14.704C462.635 13.846 463.571 13.378 464.689 13.378C465.833 13.378 466.691 13.82 467.341 14.73C467.861 15.484 468.043 16.082 468.069 17.278H461.023ZM481.681 21.178C481.395 21.854 481.187 22.218 480.901 22.53C480.251 23.284 479.263 23.7 478.223 23.7C476.845 23.7 475.519 22.92 474.947 21.75C474.557 20.944 474.427 20.268 474.427 18.76H483.761C483.735 16.992 483.527 15.926 483.007 14.808C482.097 12.936 480.329 11.844 478.171 11.844C474.661 11.844 472.217 14.626 472.217 18.656C472.217 22.66 474.583 25.338 478.093 25.338C480.693 25.338 482.695 23.934 483.527 21.568L481.681 21.178ZM474.531 17.278C474.661 16.056 474.869 15.432 475.441 14.704C476.143 13.846 477.079 13.378 478.197 13.378C479.341 13.378 480.199 13.82 480.849 14.73C481.369 15.484 481.551 16.082 481.577 17.278H474.531ZM485.174 21.672C485.486 22.79 485.824 23.336 486.5 23.908C487.592 24.87 489.048 25.338 490.868 25.338C494.04 25.338 496.146 23.752 496.146 21.412C496.146 19.332 494.872 18.084 492.246 17.616L489.724 17.174C488.372 16.914 487.722 16.342 487.722 15.38C487.722 14.236 488.814 13.482 490.478 13.482C492.116 13.482 493.156 14.106 493.754 15.484L495.574 15.094C494.95 12.962 493.208 11.844 490.53 11.844C487.618 11.844 485.694 13.352 485.694 15.614C485.694 17.434 486.968 18.734 489.152 19.15L491.856 19.644C493.312 19.93 494.066 20.58 494.066 21.62C494.066 22.868 492.844 23.7 491.05 23.7C489.854 23.7 488.632 23.336 487.904 22.738C487.488 22.4 487.28 22.01 487.072 21.282L485.174 21.672Z" fill="#575457"/>
<path d="M405.538 37H560" stroke="#575457" stroke-width="2"/>
<path d="M453.534 66V48.658H451.376V55.834H443.316V48.658H441.158V66H443.316V57.732H451.376V66H453.534ZM462.493 52.844C459.061 52.844 456.695 55.574 456.695 59.552C456.695 63.634 458.931 66.338 462.285 66.338C465.743 66.338 468.213 63.582 468.213 59.734C468.213 55.548 465.977 52.844 462.493 52.844ZM462.415 54.482C463.455 54.482 464.469 55.002 465.119 55.86C465.743 56.744 466.029 57.888 466.029 59.63C466.029 62.802 464.677 64.7 462.441 64.7C460.179 64.7 458.879 62.828 458.879 59.526C458.879 57.966 459.191 56.718 459.763 55.886C460.361 55.028 461.401 54.482 462.415 54.482ZM481.279 66V53.182H479.277V60.41C479.277 62.776 477.691 64.7 475.715 64.7C475.013 64.7 474.311 64.388 473.843 63.816C473.401 63.296 473.193 62.542 473.193 61.372V53.182H471.191V61.372C471.191 64.466 472.803 66.338 475.403 66.338C477.197 66.338 478.575 65.376 479.485 63.556V66H481.279ZM487.26 66V59.214C487.312 56.484 489.158 54.56 491.576 54.768V52.87C491.29 52.844 491.004 52.818 490.848 52.818C489.86 52.818 488.898 53.26 488.326 53.936C487.858 54.508 487.624 54.898 487 56.172V53.182H485.258V66H487.26ZM492.301 62.672C492.613 63.79 492.951 64.336 493.627 64.908C494.719 65.87 496.175 66.338 497.995 66.338C501.167 66.338 503.273 64.752 503.273 62.412C503.273 60.332 501.999 59.084 499.373 58.616L496.851 58.174C495.499 57.914 494.849 57.342 494.849 56.38C494.849 55.236 495.941 54.482 497.605 54.482C499.243 54.482 500.283 55.106 500.881 56.484L502.701 56.094C502.077 53.962 500.335 52.844 497.657 52.844C494.745 52.844 492.821 54.352 492.821 56.614C492.821 58.434 494.095 59.734 496.279 60.15L498.983 60.644C500.439 60.93 501.193 61.58 501.193 62.62C501.193 63.868 499.971 64.7 498.177 64.7C496.981 64.7 495.759 64.336 495.031 63.738C494.615 63.4 494.407 63.01 494.199 62.282L492.301 62.672Z" fill="#575457"/>
<path d="M668.534 22V4.658H666.376V11.834H658.316V4.658H656.158V22H658.316V13.732H666.376V22H668.534ZM677.493 8.844C674.061 8.844 671.695 11.574 671.695 15.552C671.695 19.634 673.931 22.338 677.285 22.338C680.743 22.338 683.213 19.582 683.213 15.734C683.213 11.548 680.977 8.844 677.493 8.844ZM677.415 10.482C678.455 10.482 679.469 11.002 680.119 11.86C680.743 12.744 681.029 13.888 681.029 15.63C681.029 18.802 679.677 20.7 677.441 20.7C675.179 20.7 673.879 18.828 673.879 15.526C673.879 13.966 674.191 12.718 674.763 11.886C675.361 11.028 676.401 10.482 677.415 10.482ZM696.279 22V9.182H694.277V16.41C694.277 18.776 692.691 20.7 690.715 20.7C690.013 20.7 689.311 20.388 688.843 19.816C688.401 19.296 688.193 18.542 688.193 17.372V9.182H686.191V17.372C686.191 20.466 687.803 22.338 690.403 22.338C692.197 22.338 693.575 21.376 694.485 19.556V22H696.279ZM702.26 22V15.214C702.312 12.484 704.158 10.56 706.576 10.768V8.87C706.29 8.844 706.004 8.818 705.848 8.818C704.86 8.818 703.898 9.26 703.326 9.936C702.858 10.508 702.624 10.898 702 12.172V9.182H700.258V22H702.26ZM707.301 18.672C707.613 19.79 707.951 20.336 708.627 20.908C709.719 21.87 711.175 22.338 712.995 22.338C716.167 22.338 718.273 20.752 718.273 18.412C718.273 16.332 716.999 15.084 714.373 14.616L711.851 14.174C710.499 13.914 709.849 13.342 709.849 12.38C709.849 11.236 710.941 10.482 712.605 10.482C714.243 10.482 715.283 11.106 715.881 12.484L717.701 12.094C717.077 9.962 715.335 8.844 712.657 8.844C709.745 8.844 707.821 10.352 707.821 12.614C707.821 14.434 709.095 15.734 711.279 16.15L713.983 16.644C715.439 16.93 716.193 17.58 716.193 18.62C716.193 19.868 714.971 20.7 713.177 20.7C711.981 20.7 710.759 20.336 710.031 19.738C709.615 19.4 709.407 19.01 709.199 18.282L707.301 18.672Z" fill="#575457"/>
<path d="M621 35.3845H770" stroke="#575457" stroke-width="2"/>
<path d="M640.558 58.176C640.168 59.58 639.908 60.178 639.388 60.906C638.686 61.868 637.438 62.492 636.19 62.492C633.304 62.492 631.458 59.71 631.458 55.394C631.458 50.87 633.252 48.166 636.268 48.166C638.4 48.166 639.648 49.388 640.506 52.274L642.534 51.884C641.624 48.166 639.544 46.32 636.294 46.32C631.926 46.32 629.092 49.804 629.092 55.16C629.092 57.968 629.898 60.464 631.38 62.232C632.55 63.61 634.162 64.338 636.138 64.338C638.088 64.338 639.674 63.636 640.792 62.31C641.65 61.296 642.066 60.412 642.534 58.618L640.558 58.176ZM650.071 50.844C646.639 50.844 644.273 53.574 644.273 57.552C644.273 61.634 646.509 64.338 649.863 64.338C653.321 64.338 655.791 61.582 655.791 57.734C655.791 53.548 653.555 50.844 650.071 50.844ZM649.993 52.482C651.033 52.482 652.047 53.002 652.697 53.86C653.321 54.744 653.607 55.888 653.607 57.63C653.607 60.802 652.255 62.7 650.019 62.7C647.757 62.7 646.457 60.828 646.457 57.526C646.457 55.966 646.769 54.718 647.341 53.886C647.939 53.028 648.979 52.482 649.993 52.482ZM668.884 64V56.59C668.884 54.692 668.754 53.73 668.416 53.08C667.688 51.676 666.336 50.844 664.724 50.844C662.956 50.844 661.942 51.52 660.616 53.548V51.182H658.77V64H660.772V56.954C660.772 54.432 662.28 52.56 664.36 52.56C666.076 52.56 667.012 53.678 667.012 55.758V64H668.884ZM671.119 60.672C671.431 61.79 671.769 62.336 672.445 62.908C673.537 63.87 674.993 64.338 676.813 64.338C679.985 64.338 682.091 62.752 682.091 60.412C682.091 58.332 680.817 57.084 678.191 56.616L675.669 56.174C674.317 55.914 673.667 55.342 673.667 54.38C673.667 53.236 674.759 52.482 676.423 52.482C678.061 52.482 679.101 53.106 679.699 54.484L681.519 54.094C680.895 51.962 679.153 50.844 676.475 50.844C673.563 50.844 671.639 52.352 671.639 54.614C671.639 56.434 672.913 57.734 675.097 58.15L677.801 58.644C679.257 58.93 680.011 59.58 680.011 60.62C680.011 61.868 678.789 62.7 676.995 62.7C675.799 62.7 674.577 62.336 673.849 61.738C673.433 61.4 673.225 61.01 673.017 60.282L671.119 60.672ZM695.01 64V51.182H693.008V58.41C693.008 60.776 691.422 62.7 689.446 62.7C688.744 62.7 688.042 62.388 687.574 61.816C687.132 61.296 686.924 60.542 686.924 59.372V51.182H684.922V59.372C684.922 62.466 686.534 64.338 689.134 64.338C690.928 64.338 692.306 63.376 693.216 61.556V64H695.01ZM700.99 64V46.658H698.988V64H700.99ZM710.779 62.622C710.077 62.752 709.713 62.778 709.245 62.778C707.867 62.778 707.165 62.102 707.165 60.776V52.742H710.051V51.182H707.165V47.802L705.293 47.958L705.215 51.182H702.953V52.742H705.215V60.464C705.215 63.038 706.463 64.364 708.881 64.364C709.479 64.364 709.895 64.338 710.779 64.208V62.622ZM723.116 64C722.908 63.22 722.83 62.44 722.83 61.504V56.07C722.83 54.198 722.596 53.184 721.972 52.326C721.218 51.312 719.918 50.818 717.994 50.818C715.862 50.818 714.25 51.338 713.236 52.378C712.69 52.924 712.456 53.418 712.274 54.38L714.12 54.692C714.458 53.158 715.628 52.352 717.552 52.352C719.996 52.352 720.906 53.236 720.906 55.654V56.07C720.1 56.018 719.71 56.018 719.242 56.018C717.006 56.018 715.264 56.33 714.094 56.954C712.768 57.63 711.936 59.008 711.936 60.464C711.936 62.752 713.756 64.338 716.408 64.338C718.592 64.338 719.866 63.584 720.906 61.686C721.01 63.142 721.01 63.376 721.14 64H723.116ZM720.906 57.578C720.932 57.916 720.932 58.176 720.932 58.41C720.932 60.88 719.138 62.804 716.798 62.804C715.134 62.804 714.068 61.894 714.068 60.516C714.068 58.566 715.888 57.526 719.216 57.526C719.528 57.526 720.204 57.552 720.906 57.578ZM736.956 64V56.59C736.956 54.692 736.826 53.73 736.488 53.08C735.76 51.676 734.408 50.844 732.796 50.844C731.028 50.844 730.014 51.52 728.688 53.548V51.182H726.842V64H728.844V56.954C728.844 54.432 730.352 52.56 732.432 52.56C734.148 52.56 735.084 53.678 735.084 55.758V64H736.956ZM746.732 62.622C746.03 62.752 745.666 62.778 745.198 62.778C743.82 62.778 743.118 62.102 743.118 60.776V52.742H746.004V51.182H743.118V47.802L741.246 47.958L741.168 51.182H738.906V52.742H741.168V60.464C741.168 63.038 742.416 64.364 744.834 64.364C745.432 64.364 745.848 64.338 746.732 64.208V62.622Z" fill="#575457"/>
<path d="M867.558 19.176C867.168 20.58 866.908 21.178 866.388 21.906C865.686 22.868 864.438 23.492 863.19 23.492C860.304 23.492 858.458 20.71 858.458 16.394C858.458 11.87 860.252 9.166 863.268 9.166C865.4 9.166 866.648 10.388 867.506 13.274L869.534 12.884C868.624 9.166 866.544 7.32 863.294 7.32C858.926 7.32 856.092 10.804 856.092 16.16C856.092 18.968 856.898 21.464 858.38 23.232C859.55 24.61 861.162 25.338 863.138 25.338C865.088 25.338 866.674 24.636 867.792 23.31C868.65 22.296 869.066 21.412 869.534 19.618L867.558 19.176ZM877.071 11.844C873.639 11.844 871.273 14.574 871.273 18.552C871.273 22.634 873.509 25.338 876.863 25.338C880.321 25.338 882.791 22.582 882.791 18.734C882.791 14.548 880.555 11.844 877.071 11.844ZM876.993 13.482C878.033 13.482 879.047 14.002 879.697 14.86C880.321 15.744 880.607 16.888 880.607 18.63C880.607 21.802 879.255 23.7 877.019 23.7C874.757 23.7 873.457 21.828 873.457 18.526C873.457 16.966 873.769 15.718 874.341 14.886C874.939 14.028 875.979 13.482 876.993 13.482ZM895.884 25V17.59C895.884 15.692 895.754 14.73 895.416 14.08C894.688 12.676 893.336 11.844 891.724 11.844C889.956 11.844 888.942 12.52 887.616 14.548V12.182H885.77V25H887.772V17.954C887.772 15.432 889.28 13.56 891.36 13.56C893.076 13.56 894.012 14.678 894.012 16.758V25H895.884ZM898.119 21.672C898.431 22.79 898.769 23.336 899.445 23.908C900.537 24.87 901.993 25.338 903.813 25.338C906.985 25.338 909.091 23.752 909.091 21.412C909.091 19.332 907.817 18.084 905.191 17.616L902.669 17.174C901.317 16.914 900.667 16.342 900.667 15.38C900.667 14.236 901.759 13.482 903.423 13.482C905.061 13.482 906.101 14.106 906.699 15.484L908.519 15.094C907.895 12.962 906.153 11.844 903.475 11.844C900.563 11.844 898.639 13.352 898.639 15.614C898.639 17.434 899.913 18.734 902.097 19.15L904.801 19.644C906.257 19.93 907.011 20.58 907.011 21.62C907.011 22.868 905.789 23.7 903.995 23.7C902.799 23.7 901.577 23.336 900.849 22.738C900.433 22.4 900.225 22.01 900.017 21.282L898.119 21.672ZM922.01 25V12.182H920.008V19.41C920.008 21.776 918.422 23.7 916.446 23.7C915.744 23.7 915.042 23.388 914.574 22.816C914.132 22.296 913.924 21.542 913.924 20.372V12.182H911.922V20.372C911.922 23.466 913.534 25.338 916.134 25.338C917.928 25.338 919.306 24.376 920.216 22.556V25H922.01ZM927.99 25V7.658H925.988V25H927.99ZM937.779 23.622C937.077 23.752 936.713 23.778 936.245 23.778C934.867 23.778 934.165 23.102 934.165 21.776V13.742H937.051V12.182H934.165V8.802L932.293 8.958L932.215 12.182H929.953V13.742H932.215V21.464C932.215 24.038 933.463 25.364 935.881 25.364C936.479 25.364 936.895 25.338 937.779 25.208V23.622ZM950.116 25C949.908 24.22 949.83 23.44 949.83 22.504V17.07C949.83 15.198 949.596 14.184 948.972 13.326C948.218 12.312 946.918 11.818 944.994 11.818C942.862 11.818 941.25 12.338 940.236 13.378C939.69 13.924 939.456 14.418 939.274 15.38L941.12 15.692C941.458 14.158 942.628 13.352 944.552 13.352C946.996 13.352 947.906 14.236 947.906 16.654V17.07C947.1 17.018 946.71 17.018 946.242 17.018C944.006 17.018 942.264 17.33 941.094 17.954C939.768 18.63 938.936 20.008 938.936 21.464C938.936 23.752 940.756 25.338 943.408 25.338C945.592 25.338 946.866 24.584 947.906 22.686C948.01 24.142 948.01 24.376 948.14 25H950.116ZM947.906 18.578C947.932 18.916 947.932 19.176 947.932 19.41C947.932 21.88 946.138 23.804 943.798 23.804C942.134 23.804 941.068 22.894 941.068 21.516C941.068 19.566 942.888 18.526 946.216 18.526C946.528 18.526 947.204 18.552 947.906 18.578ZM963.956 25V17.59C963.956 15.692 963.826 14.73 963.488 14.08C962.76 12.676 961.408 11.844 959.796 11.844C958.028 11.844 957.014 12.52 955.688 14.548V12.182H953.842V25H955.844V17.954C955.844 15.432 957.352 13.56 959.432 13.56C961.148 13.56 962.084 14.678 962.084 16.758V25H963.956ZM973.732 23.622C973.03 23.752 972.666 23.778 972.198 23.778C970.82 23.778 970.118 23.102 970.118 21.776V13.742H973.004V12.182H970.118V8.802L968.246 8.958L968.168 12.182H965.906V13.742H968.168V21.464C968.168 24.038 969.416 25.364 971.834 25.364C972.432 25.364 972.848 25.338 973.732 25.208V23.622Z" fill="#575457"/>
<path d="M863 40H957.5" stroke="#575457" stroke-width="2"/>
<path d="M870.316 67V59.954H874.528C877.674 59.954 879.91 57.822 879.91 54.832C879.91 53.246 879.156 51.634 878.012 50.75C877.102 50.022 875.854 49.658 874.294 49.658H868.158V67H870.316ZM870.316 58.16V51.478H874.45C876.374 51.478 877.7 52.856 877.7 54.832C877.7 56.834 876.348 58.16 874.294 58.16H870.316ZM884.527 67V60.214C884.579 57.484 886.425 55.56 888.843 55.768V53.87C888.557 53.844 888.271 53.818 888.115 53.818C887.127 53.818 886.165 54.26 885.593 54.936C885.125 55.508 884.891 55.898 884.267 57.172V54.182H882.525V67H884.527ZM892.931 54.182H890.929V67H892.931V54.182ZM893.009 49.658H890.851V51.868H893.009V49.658ZM907.011 67V59.59C907.011 57.692 906.881 56.73 906.543 56.08C905.815 54.676 904.463 53.844 902.851 53.844C901.083 53.844 900.069 54.52 898.743 56.548V54.182H896.897V67H898.899V59.954C898.899 57.432 900.407 55.56 902.487 55.56C904.203 55.56 905.139 56.678 905.139 58.758V67H907.011ZM918.554 62.502C918.138 64.608 917.046 65.7 915.434 65.7C913.302 65.7 912.054 63.776 912.054 60.552C912.054 57.432 913.354 55.482 915.46 55.482C916.448 55.482 917.306 55.924 917.878 56.704C918.216 57.198 918.398 57.666 918.554 58.654L920.348 58.316C919.828 55.404 918.112 53.844 915.486 53.844C912.158 53.844 909.974 56.548 909.974 60.604C909.974 64.686 912.106 67.338 915.382 67.338C916.812 67.338 917.93 66.896 918.84 65.96C919.672 65.128 920.036 64.374 920.348 62.814L918.554 62.502ZM925.076 54.182H923.074V67H925.076V54.182ZM925.154 49.658H922.996V51.868H925.154V49.658ZM931.043 71.342V65.05C932.135 66.714 933.175 67.338 934.839 67.338C937.881 67.338 939.961 64.608 939.961 60.578C939.961 56.574 937.907 53.844 934.865 53.844C933.071 53.844 931.849 54.702 930.835 56.678V54.182H929.041V71.342H931.043ZM931.043 58.758C931.563 56.782 932.863 55.586 934.449 55.586C936.529 55.586 937.777 57.484 937.777 60.708C937.777 62.424 937.465 63.672 936.815 64.504C936.269 65.206 935.307 65.7 934.449 65.7C932.811 65.7 931.355 64.296 931.043 62.346V58.758ZM952.966 67C952.758 66.22 952.68 65.44 952.68 64.504V59.07C952.68 57.198 952.446 56.184 951.822 55.326C951.068 54.312 949.768 53.818 947.844 53.818C945.712 53.818 944.1 54.338 943.086 55.378C942.54 55.924 942.306 56.418 942.124 57.38L943.97 57.692C944.308 56.158 945.478 55.352 947.402 55.352C949.846 55.352 950.756 56.236 950.756 58.654V59.07C949.95 59.018 949.56 59.018 949.092 59.018C946.856 59.018 945.114 59.33 943.944 59.954C942.618 60.63 941.786 62.008 941.786 63.464C941.786 65.752 943.606 67.338 946.258 67.338C948.442 67.338 949.716 66.584 950.756 64.686C950.86 66.142 950.86 66.376 950.99 67H952.966ZM950.756 60.578C950.782 60.916 950.782 61.176 950.782 61.41C950.782 63.88 948.988 65.804 946.648 65.804C944.984 65.804 943.918 64.894 943.918 63.516C943.918 61.566 945.738 60.526 949.066 60.526C949.378 60.526 950.054 60.552 950.756 60.578ZM958.693 67V49.658H956.691V67H958.693Z" fill="#575457"/>
<path d="M214.56 35.196V36.938H226.702V35.196H214.56ZM214.56 39.304V41.046H226.702V39.304H214.56Z" fill="#575457"/>
<path d="M105.88 147.078H95.012V149.124H105.88V147.078ZM105.88 150.29H95.012V152.336H105.88V150.29Z" fill="#575457"/>
<path d="M379.92 46L375.5 38.928L379.244 33.182H377.32L374.538 37.55L371.782 33.182H369.494L373.394 39.344L369.078 46H371.028L374.356 40.8L377.606 46H379.92Z" fill="#575457"/>
<path d="M585.92 45L581.5 37.928L585.244 32.182H583.32L580.538 36.55L577.782 32.182H575.494L579.394 38.344L575.078 45H577.028L580.356 39.8L583.606 45H585.92Z" fill="#575457"/>
<path d="M821.92 45L817.5 37.928L821.244 32.182H819.32L816.538 36.55L813.782 32.182H811.494L815.394 38.344L811.078 45H813.028L816.356 39.8L819.606 45H821.92Z" fill="#575457"/>
<path d="M134.876 157V139.658H131.704L126.582 153.516L121.382 139.658H118.158V157H120.004V141.868L125.672 157H127.154L132.77 141.868V157H134.876ZM149.087 157C148.879 156.22 148.801 155.44 148.801 154.504V149.07C148.801 147.198 148.567 146.184 147.943 145.326C147.189 144.312 145.889 143.818 143.965 143.818C141.833 143.818 140.221 144.338 139.207 145.378C138.661 145.924 138.427 146.418 138.245 147.38L140.091 147.692C140.429 146.158 141.599 145.352 143.523 145.352C145.967 145.352 146.877 146.236 146.877 148.654V149.07C146.071 149.018 145.681 149.018 145.213 149.018C142.977 149.018 141.235 149.33 140.065 149.954C138.739 150.63 137.907 152.008 137.907 153.464C137.907 155.752 139.727 157.338 142.379 157.338C144.563 157.338 145.837 156.584 146.877 154.686C146.981 156.142 146.981 156.376 147.111 157H149.087ZM146.877 150.578C146.903 150.916 146.903 151.176 146.903 151.41C146.903 153.88 145.109 155.804 142.769 155.804C141.105 155.804 140.039 154.894 140.039 153.516C140.039 151.566 141.859 150.526 145.187 150.526C145.499 150.526 146.175 150.552 146.877 150.578ZM154.815 157V150.214C154.867 147.484 156.713 145.56 159.131 145.768V143.87C158.845 143.844 158.559 143.818 158.403 143.818C157.415 143.818 156.453 144.26 155.881 144.936C155.413 145.508 155.179 145.898 154.555 147.172V144.182H152.813V157H154.815ZM171.796 142.18C171.536 142.154 171.432 142.154 171.276 142.154C170.08 142.154 169.56 142.284 169.118 142.726C168.676 143.142 168.442 143.636 168.312 144.39C167.48 143.974 166.648 143.792 165.686 143.792C162.878 143.792 160.798 145.664 160.798 148.16C160.798 149.564 161.266 150.526 162.462 151.566C161.162 152.19 160.694 152.788 160.694 153.828C160.694 154.712 161.006 155.232 161.942 155.908C160.59 156.428 159.992 157.208 159.992 158.456C159.992 160.666 162.02 161.836 165.842 161.836C170.106 161.836 172.29 160.588 172.29 158.17C172.29 157.104 171.796 156.194 170.886 155.622C170.08 155.076 169.222 154.946 166.57 154.868C164.204 154.79 163.684 154.738 163.242 154.53C162.8 154.322 162.592 154.01 162.592 153.594C162.592 152.97 163.268 152.372 163.944 152.372C164.048 152.372 164.36 152.424 164.776 152.502C165.036 152.554 165.322 152.58 165.66 152.58C168.52 152.58 170.574 150.812 170.574 148.316C170.574 147.198 170.158 146.158 169.352 145.222C169.534 144.078 170.08 143.74 171.796 143.766V142.18ZM165.738 145.378C167.376 145.378 168.572 146.626 168.572 148.29C168.572 149.902 167.376 151.046 165.712 151.046C163.996 151.046 162.852 149.928 162.852 148.238C162.852 146.548 164.048 145.378 165.738 145.378ZM163.32 156.48C163.918 156.558 165.114 156.636 166.414 156.662C168.65 156.714 168.884 156.74 169.508 157.026C170.106 157.286 170.392 157.676 170.392 158.248C170.392 158.976 169.924 159.548 169.04 159.834C168.156 160.12 167.038 160.302 165.998 160.302C164.49 160.302 163.086 159.938 162.384 159.34C162.098 159.106 161.916 158.664 161.916 158.248C161.916 157.442 162.254 157 163.32 156.48ZM176.091 144.182H174.089V157H176.091V144.182ZM176.169 139.658H174.011V141.868H176.169V139.658ZM190.171 157V149.59C190.171 147.692 190.041 146.73 189.703 146.08C188.975 144.676 187.623 143.844 186.011 143.844C184.243 143.844 183.229 144.52 181.903 146.548V144.182H180.057V157H182.059V149.954C182.059 147.432 183.567 145.56 185.647 145.56C187.363 145.56 188.299 146.678 188.299 148.758V157H190.171Z" fill="#575457"/>
<path d="M274.158 157H280.996C282.53 157 283.544 156.766 284.454 156.22C285.858 155.362 286.638 153.932 286.638 152.19C286.638 150.89 286.17 149.824 285.26 148.914C284.688 148.368 284.22 148.134 283.05 147.796C283.986 147.484 284.428 147.25 284.896 146.834C285.65 146.132 286.118 145.014 286.118 143.896C286.118 142.492 285.468 141.27 284.272 140.464C283.388 139.892 282.504 139.658 281.022 139.658H274.158V157ZM276.264 155.102V148.732H280.606C282.062 148.732 282.894 149.018 283.544 149.72C284.116 150.318 284.454 151.202 284.454 152.086C284.454 153.984 283.128 155.102 280.918 155.102H276.264ZM276.264 147.094V141.426H280.58C282.738 141.426 283.96 142.414 283.96 144.13C283.96 145.066 283.544 145.95 282.894 146.444C282.27 146.912 281.464 147.094 280.034 147.094H276.264ZM291.72 144.182H289.718V157H291.72V144.182ZM291.798 139.658H289.64V141.868H291.798V139.658ZM297.688 157V139.658H295.686V157H297.688ZM303.68 157V139.658H301.678V157H303.68ZM309.646 144.182H307.644V157H309.646V144.182ZM309.724 139.658H307.566V141.868H309.724V139.658ZM323.725 157V149.59C323.725 147.692 323.595 146.73 323.257 146.08C322.529 144.676 321.177 143.844 319.565 143.844C317.797 143.844 316.783 144.52 315.457 146.548V144.182H313.611V157H315.613V149.954C315.613 147.432 317.121 145.56 319.201 145.56C320.917 145.56 321.853 146.678 321.853 148.758V157H323.725ZM337.901 142.18C337.641 142.154 337.537 142.154 337.381 142.154C336.185 142.154 335.665 142.284 335.223 142.726C334.781 143.142 334.547 143.636 334.417 144.39C333.585 143.974 332.753 143.792 331.791 143.792C328.983 143.792 326.903 145.664 326.903 148.16C326.903 149.564 327.371 150.526 328.567 151.566C327.267 152.19 326.799 152.788 326.799 153.828C326.799 154.712 327.111 155.232 328.047 155.908C326.695 156.428 326.097 157.208 326.097 158.456C326.097 160.666 328.125 161.836 331.947 161.836C336.211 161.836 338.395 160.588 338.395 158.17C338.395 157.104 337.901 156.194 336.991 155.622C336.185 155.076 335.327 154.946 332.675 154.868C330.309 154.79 329.789 154.738 329.347 154.53C328.905 154.322 328.697 154.01 328.697 153.594C328.697 152.97 329.373 152.372 330.049 152.372C330.153 152.372 330.465 152.424 330.881 152.502C331.141 152.554 331.427 152.58 331.765 152.58C334.625 152.58 336.679 150.812 336.679 148.316C336.679 147.198 336.263 146.158 335.457 145.222C335.639 144.078 336.185 143.74 337.901 143.766V142.18ZM331.843 145.378C333.481 145.378 334.677 146.626 334.677 148.29C334.677 149.902 333.481 151.046 331.817 151.046C330.101 151.046 328.957 149.928 328.957 148.238C328.957 146.548 330.153 145.378 331.843 145.378ZM329.425 156.48C330.023 156.558 331.219 156.636 332.519 156.662C334.755 156.714 334.989 156.74 335.613 157.026C336.211 157.286 336.497 157.676 336.497 158.248C336.497 158.976 336.029 159.548 335.145 159.834C334.261 160.12 333.143 160.302 332.103 160.302C330.595 160.302 329.191 159.938 328.489 159.34C328.203 159.106 328.021 158.664 328.021 158.248C328.021 157.442 328.359 157 329.425 156.48ZM359.357 157L355.951 148.966C356.965 148.602 357.459 148.316 357.979 147.718C358.707 146.912 359.175 145.664 359.175 144.52C359.175 141.634 356.939 139.658 353.689 139.658H346.877V157H348.905V149.486H353.871L357.069 157H359.357ZM348.905 147.718V141.556H353.689C355.743 141.556 357.017 142.674 357.017 144.468C357.017 145.352 356.705 146.158 356.133 146.756C355.483 147.432 354.677 147.718 353.429 147.718H348.905ZM372.372 157C372.164 156.22 372.086 155.44 372.086 154.504V149.07C372.086 147.198 371.852 146.184 371.228 145.326C370.474 144.312 369.174 143.818 367.25 143.818C365.118 143.818 363.506 144.338 362.492 145.378C361.946 145.924 361.712 146.418 361.53 147.38L363.376 147.692C363.714 146.158 364.884 145.352 366.808 145.352C369.252 145.352 370.162 146.236 370.162 148.654V149.07C369.356 149.018 368.966 149.018 368.498 149.018C366.262 149.018 364.52 149.33 363.35 149.954C362.024 150.63 361.192 152.008 361.192 153.464C361.192 155.752 363.012 157.338 365.664 157.338C367.848 157.338 369.122 156.584 370.162 154.686C370.266 156.142 370.266 156.376 370.396 157H372.372ZM370.162 150.578C370.188 150.916 370.188 151.176 370.188 151.41C370.188 153.88 368.394 155.804 366.054 155.804C364.39 155.804 363.324 154.894 363.324 153.516C363.324 151.566 365.144 150.526 368.472 150.526C368.784 150.526 369.46 150.552 370.162 150.578ZM381.616 155.622C380.914 155.752 380.55 155.778 380.082 155.778C378.704 155.778 378.002 155.102 378.002 153.776V145.742H380.888V144.182H378.002V140.802L376.13 140.958L376.052 144.182H373.79V145.742H376.052V153.464C376.052 156.038 377.3 157.364 379.718 157.364C380.316 157.364 380.732 157.338 381.616 157.208V155.622ZM391.809 153.178C391.523 153.854 391.315 154.218 391.029 154.53C390.379 155.284 389.391 155.7 388.351 155.7C386.973 155.7 385.647 154.92 385.075 153.75C384.685 152.944 384.555 152.268 384.555 150.76H393.889C393.863 148.992 393.655 147.926 393.135 146.808C392.225 144.936 390.457 143.844 388.299 143.844C384.789 143.844 382.345 146.626 382.345 150.656C382.345 154.66 384.711 157.338 388.221 157.338C390.821 157.338 392.823 155.934 393.655 153.568L391.809 153.178ZM384.659 149.278C384.789 148.056 384.997 147.432 385.569 146.704C386.271 145.846 387.207 145.378 388.325 145.378C389.469 145.378 390.327 145.82 390.977 146.73C391.497 147.484 391.679 148.082 391.705 149.278H384.659Z" fill="#575457"/>
<path d="M488.038 140.658V151.994C488.038 153.528 487.804 154.438 487.18 155.166C486.504 155.972 485.334 156.44 483.982 156.44C482.63 156.44 481.356 155.946 480.758 155.166C480.264 154.516 480.056 153.606 480.056 151.994V140.658H477.898V151.994C477.898 153.97 478.21 155.218 478.938 156.284C479.9 157.662 481.512 158.338 483.8 158.338C485.984 158.338 487.648 157.636 488.662 156.284C489.494 155.192 489.832 153.97 489.832 151.994V140.658H488.038ZM499.568 156.622C498.866 156.752 498.502 156.778 498.034 156.778C496.656 156.778 495.954 156.102 495.954 154.776V146.742H498.84V145.182H495.954V141.802L494.082 141.958L494.004 145.182H491.742V146.742H494.004V154.464C494.004 157.038 495.252 158.364 497.67 158.364C498.268 158.364 498.684 158.338 499.568 158.208V156.622ZM503.642 145.182H501.64V158H503.642V145.182ZM503.72 140.658H501.562V142.868H503.72V140.658ZM509.609 158V140.658H507.607V158H509.609ZM515.576 145.182H513.574V158H515.576V145.182ZM515.654 140.658H513.496V142.868H515.654V140.658ZM527.403 156.466H520.357L527.403 146.274V145.182H518.485V146.742H524.777L517.965 156.466V158H527.403V156.466ZM540.089 158C539.881 157.22 539.803 156.44 539.803 155.504V150.07C539.803 148.198 539.569 147.184 538.945 146.326C538.191 145.312 536.891 144.818 534.967 144.818C532.835 144.818 531.223 145.338 530.209 146.378C529.663 146.924 529.429 147.418 529.247 148.38L531.093 148.692C531.431 147.158 532.601 146.352 534.525 146.352C536.969 146.352 537.879 147.236 537.879 149.654V150.07C537.073 150.018 536.683 150.018 536.215 150.018C533.979 150.018 532.237 150.33 531.067 150.954C529.741 151.63 528.909 153.008 528.909 154.464C528.909 156.752 530.729 158.338 533.381 158.338C535.565 158.338 536.839 157.584 537.879 155.686C537.983 157.142 537.983 157.376 538.113 158H540.089ZM537.879 151.578C537.905 151.916 537.905 152.176 537.905 152.41C537.905 154.88 536.111 156.804 533.771 156.804C532.107 156.804 531.041 155.894 531.041 154.516C531.041 152.566 532.861 151.526 536.189 151.526C536.501 151.526 537.177 151.552 537.879 151.578ZM549.333 156.622C548.631 156.752 548.267 156.778 547.799 156.778C546.421 156.778 545.719 156.102 545.719 154.776V146.742H548.605V145.182H545.719V141.802L543.847 141.958L543.769 145.182H541.507V146.742H543.769V154.464C543.769 157.038 545.017 158.364 547.435 158.364C548.033 158.364 548.449 158.338 549.333 158.208V156.622ZM553.408 145.182H551.406V158H553.408V145.182ZM553.486 140.658H551.328V142.868H553.486V140.658ZM562.157 144.844C558.725 144.844 556.359 147.574 556.359 151.552C556.359 155.634 558.595 158.338 561.949 158.338C565.407 158.338 567.877 155.582 567.877 151.734C567.877 147.548 565.641 144.844 562.157 144.844ZM562.079 146.482C563.119 146.482 564.133 147.002 564.783 147.86C565.407 148.744 565.693 149.888 565.693 151.63C565.693 154.802 564.341 156.7 562.105 156.7C559.843 156.7 558.543 154.828 558.543 151.526C558.543 149.966 558.855 148.718 559.427 147.886C560.025 147.028 561.065 146.482 562.079 146.482ZM580.97 158V150.59C580.97 148.692 580.84 147.73 580.502 147.08C579.774 145.676 578.422 144.844 576.81 144.844C575.042 144.844 574.028 145.52 572.702 147.548V145.182H570.856V158H572.858V150.954C572.858 148.432 574.366 146.56 576.446 146.56C578.162 146.56 579.098 147.678 579.098 149.758V158H580.97Z" fill="#575457"/>
<path d="M718.376 154.102H710.368V138.658H708.158V156H718.376V154.102ZM728.919 152.178C728.633 152.854 728.425 153.218 728.139 153.53C727.489 154.284 726.501 154.7 725.461 154.7C724.083 154.7 722.757 153.92 722.185 152.75C721.795 151.944 721.665 151.268 721.665 149.76H730.999C730.973 147.992 730.765 146.926 730.245 145.808C729.335 143.936 727.567 142.844 725.409 142.844C721.899 142.844 719.455 145.626 719.455 149.656C719.455 153.66 721.821 156.338 725.331 156.338C727.931 156.338 729.933 154.934 730.765 152.568L728.919 152.178ZM721.769 148.278C721.899 147.056 722.107 146.432 722.679 145.704C723.381 144.846 724.317 144.378 725.435 144.378C726.579 144.378 727.437 144.82 728.087 145.73C728.607 146.484 728.789 147.082 728.815 148.278H721.769ZM742.931 143.182H741.163L737.627 153.608L734.065 143.182H731.855L736.431 156H738.511L742.931 143.182ZM753.319 152.178C753.033 152.854 752.825 153.218 752.539 153.53C751.889 154.284 750.901 154.7 749.861 154.7C748.483 154.7 747.157 153.92 746.585 152.75C746.195 151.944 746.065 151.268 746.065 149.76H755.399C755.373 147.992 755.165 146.926 754.645 145.808C753.735 143.936 751.967 142.844 749.809 142.844C746.299 142.844 743.855 145.626 743.855 149.656C743.855 153.66 746.221 156.338 749.731 156.338C752.331 156.338 754.333 154.934 755.165 152.568L753.319 152.178ZM746.169 148.278C746.299 147.056 746.507 146.432 747.079 145.704C747.781 144.846 748.717 144.378 749.835 144.378C750.979 144.378 751.837 144.82 752.487 145.73C753.007 146.484 753.189 147.082 753.215 148.278H746.169ZM760.379 156V149.214C760.431 146.484 762.277 144.56 764.695 144.768V142.87C764.409 142.844 764.123 142.818 763.967 142.818C762.979 142.818 762.017 143.26 761.445 143.936C760.977 144.508 760.743 144.898 760.119 146.172V143.182H758.377V156H760.379ZM776.944 156C776.736 155.22 776.658 154.44 776.658 153.504V148.07C776.658 146.198 776.424 145.184 775.8 144.326C775.046 143.312 773.746 142.818 771.822 142.818C769.69 142.818 768.078 143.338 767.064 144.378C766.518 144.924 766.284 145.418 766.102 146.38L767.948 146.692C768.286 145.158 769.456 144.352 771.38 144.352C773.824 144.352 774.734 145.236 774.734 147.654V148.07C773.928 148.018 773.538 148.018 773.07 148.018C770.834 148.018 769.092 148.33 767.922 148.954C766.596 149.63 765.764 151.008 765.764 152.464C765.764 154.752 767.584 156.338 770.236 156.338C772.42 156.338 773.694 155.584 774.734 153.686C774.838 155.142 774.838 155.376 774.968 156H776.944ZM774.734 149.578C774.76 149.916 774.76 150.176 774.76 150.41C774.76 152.88 772.966 154.804 770.626 154.804C768.962 154.804 767.896 153.894 767.896 152.516C767.896 150.566 769.716 149.526 773.044 149.526C773.356 149.526 774.032 149.552 774.734 149.578ZM790.868 141.18C790.608 141.154 790.504 141.154 790.348 141.154C789.152 141.154 788.632 141.284 788.19 141.726C787.748 142.142 787.514 142.636 787.384 143.39C786.552 142.974 785.72 142.792 784.758 142.792C781.95 142.792 779.87 144.664 779.87 147.16C779.87 148.564 780.338 149.526 781.534 150.566C780.234 151.19 779.766 151.788 779.766 152.828C779.766 153.712 780.078 154.232 781.014 154.908C779.662 155.428 779.064 156.208 779.064 157.456C779.064 159.666 781.092 160.836 784.914 160.836C789.178 160.836 791.362 159.588 791.362 157.17C791.362 156.104 790.868 155.194 789.958 154.622C789.152 154.076 788.294 153.946 785.642 153.868C783.276 153.79 782.756 153.738 782.314 153.53C781.872 153.322 781.664 153.01 781.664 152.594C781.664 151.97 782.34 151.372 783.016 151.372C783.12 151.372 783.432 151.424 783.848 151.502C784.108 151.554 784.394 151.58 784.732 151.58C787.592 151.58 789.646 149.812 789.646 147.316C789.646 146.198 789.23 145.158 788.424 144.222C788.606 143.078 789.152 142.74 790.868 142.766V141.18ZM784.81 144.378C786.448 144.378 787.644 145.626 787.644 147.29C787.644 148.902 786.448 150.046 784.784 150.046C783.068 150.046 781.924 148.928 781.924 147.238C781.924 145.548 783.12 144.378 784.81 144.378ZM782.392 155.48C782.99 155.558 784.186 155.636 785.486 155.662C787.722 155.714 787.956 155.74 788.58 156.026C789.178 156.286 789.464 156.676 789.464 157.248C789.464 157.976 788.996 158.548 788.112 158.834C787.228 159.12 786.11 159.302 785.07 159.302C783.562 159.302 782.158 158.938 781.456 158.34C781.17 158.106 780.988 157.664 780.988 157.248C780.988 156.442 781.326 156 782.392 155.48ZM801.231 152.178C800.945 152.854 800.737 153.218 800.451 153.53C799.801 154.284 798.813 154.7 797.773 154.7C796.395 154.7 795.069 153.92 794.497 152.75C794.107 151.944 793.977 151.268 793.977 149.76H803.311C803.285 147.992 803.077 146.926 802.557 145.808C801.647 143.936 799.879 142.844 797.721 142.844C794.211 142.844 791.767 145.626 791.767 149.656C791.767 153.66 794.133 156.338 797.643 156.338C800.243 156.338 802.245 154.934 803.077 152.568L801.231 152.178ZM794.081 148.278C794.211 147.056 794.419 146.432 794.991 145.704C795.693 144.846 796.629 144.378 797.747 144.378C798.891 144.378 799.749 144.82 800.399 145.73C800.919 146.484 801.101 147.082 801.127 148.278H794.081Z" fill="#575457"/>
<path d="M245.92 157L241.5 149.928L245.244 144.182H243.32L240.538 148.55L237.782 144.182H235.494L239.394 150.344L235.078 157H237.028L240.356 151.8L243.606 157H245.92Z" fill="#575457"/>
<path d="M427.92 158L423.5 150.928L427.244 145.182H425.32L422.538 149.55L419.782 145.182H417.494L421.394 151.344L417.078 158H419.028L422.356 152.8L425.606 158H427.92Z" fill="#575457"/>
<path d="M666.92 157L662.5 149.928L666.244 144.182H664.32L661.538 148.55L658.782 144.182H656.494L660.394 150.344L656.078 157H658.028L661.356 151.8L664.606 157H666.92Z" fill="#575457"/>
<line x1="68.5598" y1="273.763" x2="117.56" y2="182.763" stroke="#575457"/>
<path d="M277 307.5L315 203" stroke="#575457"/>
<path d="M12.298 305V290.326H10.472V296.398H3.652V290.326H1.826V305H3.652V298.004H10.472V305H12.298ZM23.2478 294.154H21.8178L18.8478 302.316L15.9438 294.154H14.2278L17.9898 304.802C17.6818 305.77 17.4838 306.232 17.2638 306.584C16.8678 307.222 16.3178 307.508 15.5478 307.508C15.2178 307.508 14.9538 307.464 14.4258 307.354V308.696C14.9978 308.828 15.2618 308.872 15.7018 308.872C16.4718 308.872 16.9998 308.74 17.3958 308.454C18.0558 307.992 18.5178 307.31 18.8918 306.276L23.2478 294.154ZM33.7033 292.46C33.4833 292.438 33.3953 292.438 33.2633 292.438C32.2513 292.438 31.8113 292.548 31.4373 292.922C31.0633 293.274 30.8653 293.692 30.7553 294.33C30.0513 293.978 29.3473 293.824 28.5333 293.824C26.1573 293.824 24.3973 295.408 24.3973 297.52C24.3973 298.708 24.7933 299.522 25.8053 300.402C24.7053 300.93 24.3093 301.436 24.3093 302.316C24.3093 303.064 24.5733 303.504 25.3653 304.076C24.2213 304.516 23.7153 305.176 23.7153 306.232C23.7153 308.102 25.4313 309.092 28.6653 309.092C32.2733 309.092 34.1213 308.036 34.1213 305.99C34.1213 305.088 33.7033 304.318 32.9333 303.834C32.2513 303.372 31.5253 303.262 29.2813 303.196C27.2793 303.13 26.8393 303.086 26.4653 302.91C26.0913 302.734 25.9153 302.47 25.9153 302.118C25.9153 301.59 26.4873 301.084 27.0593 301.084C27.1473 301.084 27.4113 301.128 27.7633 301.194C27.9833 301.238 28.2253 301.26 28.5113 301.26C30.9313 301.26 32.6693 299.764 32.6693 297.652C32.6693 296.706 32.3173 295.826 31.6353 295.034C31.7893 294.066 32.2513 293.78 33.7033 293.802V292.46ZM28.5773 295.166C29.9633 295.166 30.9753 296.222 30.9753 297.63C30.9753 298.994 29.9633 299.962 28.5553 299.962C27.1033 299.962 26.1353 299.016 26.1353 297.586C26.1353 296.156 27.1473 295.166 28.5773 295.166ZM26.5313 304.56C27.0373 304.626 28.0493 304.692 29.1493 304.714C31.0413 304.758 31.2393 304.78 31.7673 305.022C32.2733 305.242 32.5153 305.572 32.5153 306.056C32.5153 306.672 32.1193 307.156 31.3713 307.398C30.6233 307.64 29.6773 307.794 28.7973 307.794C27.5213 307.794 26.3333 307.486 25.7393 306.98C25.4973 306.782 25.3433 306.408 25.3433 306.056C25.3433 305.374 25.6293 305 26.5313 304.56ZM37.448 294.154H35.754V305H37.448V294.154ZM37.514 290.326H35.688V292.196H37.514V290.326ZM48.0633 301.766C47.8213 302.338 47.6453 302.646 47.4033 302.91C46.8533 303.548 46.0173 303.9 45.1373 303.9C43.9713 303.9 42.8493 303.24 42.3653 302.25C42.0353 301.568 41.9253 300.996 41.9253 299.72H49.8233C49.8013 298.224 49.6253 297.322 49.1853 296.376C48.4153 294.792 46.9193 293.868 45.0933 293.868C42.1233 293.868 40.0553 296.222 40.0553 299.632C40.0553 303.02 42.0573 305.286 45.0273 305.286C47.2273 305.286 48.9213 304.098 49.6253 302.096L48.0633 301.766ZM42.0133 298.466C42.1233 297.432 42.2993 296.904 42.7833 296.288C43.3773 295.562 44.1693 295.166 45.1153 295.166C46.0833 295.166 46.8093 295.54 47.3593 296.31C47.7993 296.948 47.9533 297.454 47.9753 298.466H42.0133ZM61.011 305V298.73C61.011 297.124 60.901 296.31 60.615 295.76C59.999 294.572 58.855 293.868 57.491 293.868C55.995 293.868 55.137 294.44 54.015 296.156V294.154H52.453V305H54.147V299.038C54.147 296.904 55.423 295.32 57.183 295.32C58.635 295.32 59.427 296.266 59.427 298.026V305H61.011ZM71.6368 301.766C71.3948 302.338 71.2188 302.646 70.9768 302.91C70.4268 303.548 69.5908 303.9 68.7108 303.9C67.5448 303.9 66.4228 303.24 65.9388 302.25C65.6088 301.568 65.4988 300.996 65.4988 299.72H73.3968C73.3748 298.224 73.1988 297.322 72.7588 296.376C71.9888 294.792 70.4928 293.868 68.6668 293.868C65.6968 293.868 63.6288 296.222 63.6288 299.632C63.6288 303.02 65.6308 305.286 68.6008 305.286C70.8008 305.286 72.4948 304.098 73.1988 302.096L71.6368 301.766ZM65.5868 298.466C65.6968 297.432 65.8728 296.904 66.3568 296.288C66.9508 295.562 67.7428 295.166 68.6888 295.166C69.6568 295.166 70.3828 295.54 70.9328 296.31C71.3728 296.948 71.5268 297.454 71.5488 298.466H65.5868ZM83.5945 305V298.048H89.5345V296.574H83.5945V291.932H90.7445V290.326H81.7685V305H83.5945ZM100.981 305C100.805 304.34 100.739 303.68 100.739 302.888V298.29C100.739 296.706 100.541 295.848 100.013 295.122C99.3747 294.264 98.2747 293.846 96.6467 293.846C94.8427 293.846 93.4787 294.286 92.6207 295.166C92.1587 295.628 91.9607 296.046 91.8067 296.86L93.3687 297.124C93.6547 295.826 94.6447 295.144 96.2727 295.144C98.3407 295.144 99.1107 295.892 99.1107 297.938V298.29C98.4287 298.246 98.0987 298.246 97.7027 298.246C95.8107 298.246 94.3367 298.51 93.3467 299.038C92.2247 299.61 91.5207 300.776 91.5207 302.008C91.5207 303.944 93.0607 305.286 95.3047 305.286C97.1527 305.286 98.2307 304.648 99.1107 303.042C99.1987 304.274 99.1987 304.472 99.3087 305H100.981ZM99.1107 299.566C99.1327 299.852 99.1327 300.072 99.1327 300.27C99.1327 302.36 97.6147 303.988 95.6347 303.988C94.2267 303.988 93.3247 303.218 93.3247 302.052C93.3247 300.402 94.8647 299.522 97.6807 299.522C97.9447 299.522 98.5167 299.544 99.1107 299.566ZM110.645 301.194C110.293 302.976 109.369 303.9 108.005 303.9C106.201 303.9 105.145 302.272 105.145 299.544C105.145 296.904 106.245 295.254 108.027 295.254C108.863 295.254 109.589 295.628 110.073 296.288C110.359 296.706 110.513 297.102 110.645 297.938L112.163 297.652C111.723 295.188 110.271 293.868 108.049 293.868C105.233 293.868 103.385 296.156 103.385 299.588C103.385 303.042 105.189 305.286 107.961 305.286C109.171 305.286 110.117 304.912 110.887 304.12C111.591 303.416 111.899 302.778 112.163 301.458L110.645 301.194ZM119.636 303.834C119.042 303.944 118.734 303.966 118.338 303.966C117.172 303.966 116.578 303.394 116.578 302.272V295.474H119.02V294.154H116.578V291.294L114.994 291.426L114.928 294.154H113.014V295.474H114.928V302.008C114.928 304.186 115.984 305.308 118.03 305.308C118.536 305.308 118.888 305.286 119.636 305.176V303.834ZM125.312 293.868C122.408 293.868 120.406 296.178 120.406 299.544C120.406 302.998 122.298 305.286 125.136 305.286C128.062 305.286 130.152 302.954 130.152 299.698C130.152 296.156 128.26 293.868 125.312 293.868ZM125.246 295.254C126.126 295.254 126.984 295.694 127.534 296.42C128.062 297.168 128.304 298.136 128.304 299.61C128.304 302.294 127.16 303.9 125.268 303.9C123.354 303.9 122.254 302.316 122.254 299.522C122.254 298.202 122.518 297.146 123.002 296.442C123.508 295.716 124.388 295.254 125.246 295.254ZM134.476 305V299.258C134.52 296.948 136.082 295.32 138.128 295.496V293.89C137.886 293.868 137.644 293.846 137.512 293.846C136.676 293.846 135.862 294.22 135.378 294.792C134.982 295.276 134.784 295.606 134.256 296.684V294.154H132.782V305H134.476ZM10.626 327.072C10.296 328.26 10.076 328.766 9.636 329.382C9.042 330.196 7.986 330.724 6.93 330.724C4.488 330.724 2.926 328.37 2.926 324.718C2.926 320.89 4.444 318.602 6.996 318.602C8.8 318.602 9.856 319.636 10.582 322.078L12.298 321.748C11.528 318.602 9.768 317.04 7.018 317.04C3.322 317.04 0.924 319.988 0.924 324.52C0.924 326.896 1.606 329.008 2.86 330.504C3.85 331.67 5.214 332.286 6.886 332.286C8.536 332.286 9.878 331.692 10.824 330.57C11.55 329.712 11.902 328.964 12.298 327.446L10.626 327.072ZM18.7856 320.868C15.8816 320.868 13.8796 323.178 13.8796 326.544C13.8796 329.998 15.7716 332.286 18.6096 332.286C21.5356 332.286 23.6256 329.954 23.6256 326.698C23.6256 323.156 21.7336 320.868 18.7856 320.868ZM18.7196 322.254C19.5996 322.254 20.4576 322.694 21.0076 323.42C21.5356 324.168 21.7776 325.136 21.7776 326.61C21.7776 329.294 20.6336 330.9 18.7416 330.9C16.8276 330.9 15.7276 329.316 15.7276 326.522C15.7276 325.202 15.9916 324.146 16.4756 323.442C16.9816 322.716 17.8616 322.254 18.7196 322.254ZM24.7818 329.184C25.0458 330.13 25.3318 330.592 25.9038 331.076C26.8278 331.89 28.0598 332.286 29.5998 332.286C32.2838 332.286 34.0658 330.944 34.0658 328.964C34.0658 327.204 32.9878 326.148 30.7658 325.752L28.6318 325.378C27.4878 325.158 26.9378 324.674 26.9378 323.86C26.9378 322.892 27.8618 322.254 29.2698 322.254C30.6558 322.254 31.5358 322.782 32.0418 323.948L33.5818 323.618C33.0538 321.814 31.5798 320.868 29.3138 320.868C26.8498 320.868 25.2218 322.144 25.2218 324.058C25.2218 325.598 26.2998 326.698 28.1478 327.05L30.4358 327.468C31.6678 327.71 32.3058 328.26 32.3058 329.14C32.3058 330.196 31.2718 330.9 29.7538 330.9C28.7418 330.9 27.7078 330.592 27.0918 330.086C26.7398 329.8 26.5638 329.47 26.3878 328.854L24.7818 329.184ZM41.4769 330.834C40.8829 330.944 40.5749 330.966 40.1789 330.966C39.0129 330.966 38.4189 330.394 38.4189 329.272V322.474H40.8609V321.154H38.4189V318.294L36.8349 318.426L36.7689 321.154H34.8549V322.474H36.7689V329.008C36.7689 331.186 37.8249 332.308 39.8709 332.308C40.3769 332.308 40.7289 332.286 41.4769 332.176V330.834Z" fill="#005573"/>
<path d="M222.298 331V316.326H220.472V322.398H213.652V316.326H211.826V331H213.652V324.004H220.472V331H222.298ZM233.091 327.766C232.849 328.338 232.673 328.646 232.431 328.91C231.881 329.548 231.045 329.9 230.165 329.9C228.999 329.9 227.877 329.24 227.393 328.25C227.063 327.568 226.953 326.996 226.953 325.72H234.851C234.829 324.224 234.653 323.322 234.213 322.376C233.443 320.792 231.947 319.868 230.121 319.868C227.151 319.868 225.083 322.222 225.083 325.632C225.083 329.02 227.085 331.286 230.055 331.286C232.255 331.286 233.949 330.098 234.653 328.096L233.091 327.766ZM227.041 324.466C227.151 323.432 227.327 322.904 227.811 322.288C228.405 321.562 229.197 321.166 230.143 321.166C231.111 321.166 231.837 321.54 232.387 322.31C232.827 322.948 232.981 323.454 233.003 324.466H227.041ZM245.908 331C245.732 330.34 245.666 329.68 245.666 328.888V324.29C245.666 322.706 245.468 321.848 244.94 321.122C244.302 320.264 243.202 319.846 241.574 319.846C239.77 319.846 238.406 320.286 237.548 321.166C237.086 321.628 236.888 322.046 236.734 322.86L238.296 323.124C238.582 321.826 239.572 321.144 241.2 321.144C243.268 321.144 244.038 321.892 244.038 323.938V324.29C243.356 324.246 243.026 324.246 242.63 324.246C240.738 324.246 239.264 324.51 238.274 325.038C237.152 325.61 236.448 326.776 236.448 328.008C236.448 329.944 237.988 331.286 240.232 331.286C242.08 331.286 243.158 330.648 244.038 329.042C244.126 330.274 244.126 330.472 244.236 331H245.908ZM244.038 325.566C244.06 325.852 244.06 326.072 244.06 326.27C244.06 328.36 242.542 329.988 240.562 329.988C239.154 329.988 238.252 329.218 238.252 328.052C238.252 326.402 239.792 325.522 242.608 325.522C242.872 325.522 243.444 325.544 244.038 325.566ZM250.864 331V316.326H249.17V331H250.864ZM259.257 329.834C258.663 329.944 258.355 329.966 257.959 329.966C256.793 329.966 256.199 329.394 256.199 328.272V321.474H258.641V320.154H256.199V317.294L254.615 317.426L254.549 320.154H252.635V321.474H254.549V328.008C254.549 330.186 255.605 331.308 257.651 331.308C258.157 331.308 258.509 331.286 259.257 331.176V329.834ZM269.635 331V324.422C269.635 322.618 269.525 322.068 268.975 321.276C268.359 320.352 267.325 319.846 266.137 319.846C264.641 319.846 263.695 320.506 262.815 322.156V316.326H261.121V331H262.815V325.148C262.815 323.872 263.079 323.014 263.717 322.288C264.267 321.65 265.081 321.254 265.829 321.254C266.665 321.254 267.435 321.738 267.721 322.464C267.897 322.904 267.941 323.3 267.941 324.422V331H269.635ZM280.68 331V324.048H286.62V322.574H280.68V317.932H287.83V316.326H278.854V331H280.68ZM298.066 331C297.89 330.34 297.824 329.68 297.824 328.888V324.29C297.824 322.706 297.626 321.848 297.098 321.122C296.46 320.264 295.36 319.846 293.732 319.846C291.928 319.846 290.564 320.286 289.706 321.166C289.244 321.628 289.046 322.046 288.892 322.86L290.454 323.124C290.74 321.826 291.73 321.144 293.358 321.144C295.426 321.144 296.196 321.892 296.196 323.938V324.29C295.514 324.246 295.184 324.246 294.788 324.246C292.896 324.246 291.422 324.51 290.432 325.038C289.31 325.61 288.606 326.776 288.606 328.008C288.606 329.944 290.146 331.286 292.39 331.286C294.238 331.286 295.316 330.648 296.196 329.042C296.284 330.274 296.284 330.472 296.394 331H298.066ZM296.196 325.566C296.218 325.852 296.218 326.072 296.218 326.27C296.218 328.36 294.7 329.988 292.72 329.988C291.312 329.988 290.41 329.218 290.41 328.052C290.41 326.402 291.95 325.522 294.766 325.522C295.03 325.522 295.602 325.544 296.196 325.566ZM307.731 327.194C307.379 328.976 306.455 329.9 305.091 329.9C303.287 329.9 302.231 328.272 302.231 325.544C302.231 322.904 303.331 321.254 305.113 321.254C305.949 321.254 306.675 321.628 307.159 322.288C307.445 322.706 307.599 323.102 307.731 323.938L309.249 323.652C308.809 321.188 307.357 319.868 305.135 319.868C302.319 319.868 300.471 322.156 300.471 325.588C300.471 329.042 302.275 331.286 305.047 331.286C306.257 331.286 307.203 330.912 307.973 330.12C308.677 329.416 308.985 328.778 309.249 327.458L307.731 327.194ZM316.721 329.834C316.127 329.944 315.819 329.966 315.423 329.966C314.257 329.966 313.663 329.394 313.663 328.272V321.474H316.105V320.154H313.663V317.294L312.079 317.426L312.013 320.154H310.099V321.474H312.013V328.008C312.013 330.186 313.069 331.308 315.115 331.308C315.621 331.308 315.973 331.286 316.721 331.176V329.834ZM322.397 319.868C319.493 319.868 317.491 322.178 317.491 325.544C317.491 328.998 319.383 331.286 322.221 331.286C325.147 331.286 327.237 328.954 327.237 325.698C327.237 322.156 325.345 319.868 322.397 319.868ZM322.331 321.254C323.211 321.254 324.069 321.694 324.619 322.42C325.147 323.168 325.389 324.136 325.389 325.61C325.389 328.294 324.245 329.9 322.353 329.9C320.439 329.9 319.339 328.316 319.339 325.522C319.339 324.202 319.603 323.146 320.087 322.442C320.593 321.716 321.473 321.254 322.331 321.254ZM331.562 331V325.258C331.606 322.948 333.168 321.32 335.214 321.496V319.89C334.972 319.868 334.73 319.846 334.598 319.846C333.762 319.846 332.948 320.22 332.464 320.792C332.068 321.276 331.87 321.606 331.342 322.684V320.154H329.868V331H331.562ZM213.652 358V343.326H211.826V358H213.652ZM225.862 358V351.73C225.862 350.124 225.752 349.31 225.466 348.76C224.85 347.572 223.706 346.868 222.342 346.868C220.846 346.868 219.988 347.44 218.866 349.156V347.154H217.304V358H218.998V352.038C218.998 349.904 220.274 348.32 222.034 348.32C223.486 348.32 224.278 349.266 224.278 351.026V358H225.862ZM237.896 358V351.73C237.896 350.124 237.786 349.31 237.5 348.76C236.884 347.572 235.74 346.868 234.376 346.868C232.88 346.868 232.022 347.44 230.9 349.156V347.154H229.338V358H231.032V352.038C231.032 349.904 232.308 348.32 234.068 348.32C235.52 348.32 236.312 349.266 236.312 351.026V358H237.896ZM245.42 346.868C242.516 346.868 240.514 349.178 240.514 352.544C240.514 355.998 242.406 358.286 245.244 358.286C248.17 358.286 250.26 355.954 250.26 352.698C250.26 349.156 248.368 346.868 245.42 346.868ZM245.354 348.254C246.234 348.254 247.092 348.694 247.642 349.42C248.17 350.168 248.412 351.136 248.412 352.61C248.412 355.294 247.268 356.9 245.376 356.9C243.462 356.9 242.362 355.316 242.362 352.522C242.362 351.202 242.626 350.146 243.11 349.442C243.616 348.716 244.496 348.254 245.354 348.254ZM260.445 347.154H258.949L255.957 355.976L252.943 347.154H251.073L254.945 358H256.705L260.445 347.154ZM270.816 358C270.64 357.34 270.574 356.68 270.574 355.888V351.29C270.574 349.706 270.376 348.848 269.848 348.122C269.21 347.264 268.11 346.846 266.482 346.846C264.678 346.846 263.314 347.286 262.456 348.166C261.994 348.628 261.796 349.046 261.642 349.86L263.204 350.124C263.49 348.826 264.48 348.144 266.108 348.144C268.176 348.144 268.946 348.892 268.946 350.938V351.29C268.264 351.246 267.934 351.246 267.538 351.246C265.646 351.246 264.172 351.51 263.182 352.038C262.06 352.61 261.356 353.776 261.356 355.008C261.356 356.944 262.896 358.286 265.14 358.286C266.988 358.286 268.066 357.648 268.946 356.042C269.034 357.274 269.034 357.472 269.144 358H270.816ZM268.946 352.566C268.968 352.852 268.968 353.072 268.968 353.27C268.968 355.36 267.45 356.988 265.47 356.988C264.062 356.988 263.16 356.218 263.16 355.052C263.16 353.402 264.7 352.522 267.516 352.522C267.78 352.522 268.352 352.544 268.946 352.566ZM278.748 356.834C278.154 356.944 277.846 356.966 277.45 356.966C276.284 356.966 275.69 356.394 275.69 355.272V348.474H278.132V347.154H275.69V344.294L274.106 344.426L274.04 347.154H272.126V348.474H274.04V355.008C274.04 357.186 275.096 358.308 277.142 358.308C277.648 358.308 278 358.286 278.748 358.176V356.834ZM282.306 347.154H280.612V358H282.306V347.154ZM282.372 343.326H280.546V345.196H282.372V343.326ZM289.819 346.868C286.915 346.868 284.913 349.178 284.913 352.544C284.913 355.998 286.805 358.286 289.643 358.286C292.569 358.286 294.659 355.954 294.659 352.698C294.659 349.156 292.767 346.868 289.819 346.868ZM289.753 348.254C290.633 348.254 291.491 348.694 292.041 349.42C292.569 350.168 292.811 351.136 292.811 352.61C292.811 355.294 291.667 356.9 289.775 356.9C287.861 356.9 286.761 355.316 286.761 352.522C286.761 351.202 287.025 350.146 287.509 349.442C288.015 348.716 288.895 348.254 289.753 348.254ZM305.847 358V351.73C305.847 350.124 305.737 349.31 305.451 348.76C304.835 347.572 303.691 346.868 302.327 346.868C300.831 346.868 299.973 347.44 298.851 349.156V347.154H297.289V358H298.983V352.038C298.983 349.904 300.259 348.32 302.019 348.32C303.471 348.32 304.263 349.266 304.263 351.026V358H305.847ZM323.425 358C323.249 357.34 323.183 356.68 323.183 355.888V351.29C323.183 349.706 322.985 348.848 322.457 348.122C321.819 347.264 320.719 346.846 319.091 346.846C317.287 346.846 315.923 347.286 315.065 348.166C314.603 348.628 314.405 349.046 314.251 349.86L315.813 350.124C316.099 348.826 317.089 348.144 318.717 348.144C320.785 348.144 321.555 348.892 321.555 350.938V351.29C320.873 351.246 320.543 351.246 320.147 351.246C318.255 351.246 316.781 351.51 315.791 352.038C314.669 352.61 313.965 353.776 313.965 355.008C313.965 356.944 315.505 358.286 317.749 358.286C319.597 358.286 320.675 357.648 321.555 356.042C321.643 357.274 321.643 357.472 321.753 358H323.425ZM321.555 352.566C321.577 352.852 321.577 353.072 321.577 353.27C321.577 355.36 320.059 356.988 318.079 356.988C316.671 356.988 315.769 356.218 315.769 355.052C315.769 353.402 317.309 352.522 320.125 352.522C320.389 352.522 320.961 352.544 321.555 352.566ZM335.246 358V351.73C335.246 350.124 335.136 349.31 334.85 348.76C334.234 347.572 333.09 346.868 331.726 346.868C330.23 346.868 329.372 347.44 328.25 349.156V347.154H326.688V358H328.382V352.038C328.382 349.904 329.658 348.32 331.418 348.32C332.87 348.32 333.662 349.266 333.662 351.026V358H335.246ZM347.17 343.326H345.476V348.628C344.508 347.352 343.65 346.868 342.286 346.868C339.668 346.868 337.842 349.244 337.842 352.676C337.842 355.976 339.646 358.308 342.198 358.308C343.76 358.308 344.728 357.692 345.63 356.152V358H347.17V343.326ZM345.476 353.6C345.388 354.678 345.212 355.184 344.684 355.822C344.09 356.504 343.298 356.922 342.484 356.922C340.724 356.922 339.69 355.272 339.69 352.456C339.69 349.882 340.812 348.21 342.55 348.21C343.408 348.21 344.332 348.65 344.838 349.332C345.256 349.86 345.388 350.322 345.476 351.334V353.6ZM354.806 354.084C355.334 355.47 355.73 356.108 356.5 356.834C357.6 357.824 358.942 358.286 360.79 358.286C364.09 358.286 366.224 356.548 366.224 353.864C366.224 351.774 364.948 350.41 362.44 349.816L359.712 349.156C357.996 348.738 357.314 348.1 357.314 346.934C357.314 345.548 358.634 344.536 360.416 344.536C361.428 344.536 362.418 344.888 363.144 345.526C363.628 345.944 363.87 346.34 364.068 347.11L365.718 346.648C364.904 344.272 363.1 343.04 360.482 343.04C357.512 343.04 355.532 344.646 355.532 347.044C355.532 348.188 355.95 349.156 356.72 349.882C357.292 350.388 357.93 350.696 359.14 350.982L362.066 351.73C363.496 352.082 364.31 352.918 364.31 354.04C364.31 355.712 362.99 356.724 360.79 356.724C358.546 356.724 357.138 355.756 356.456 353.732L354.806 354.084ZM370.609 361.674V356.35C371.533 357.758 372.413 358.286 373.821 358.286C376.395 358.286 378.155 355.976 378.155 352.566C378.155 349.178 376.417 346.868 373.843 346.868C372.325 346.868 371.291 347.594 370.433 349.266V347.154H368.915V361.674H370.609ZM370.609 351.026C371.049 349.354 372.149 348.342 373.491 348.342C375.251 348.342 376.307 349.948 376.307 352.676C376.307 354.128 376.043 355.184 375.493 355.888C375.031 356.482 374.217 356.9 373.491 356.9C372.105 356.9 370.873 355.712 370.609 354.062V351.026ZM387.927 354.766C387.685 355.338 387.509 355.646 387.267 355.91C386.717 356.548 385.881 356.9 385.001 356.9C383.835 356.9 382.713 356.24 382.229 355.25C381.899 354.568 381.789 353.996 381.789 352.72H389.687C389.665 351.224 389.489 350.322 389.049 349.376C388.279 347.792 386.783 346.868 384.957 346.868C381.987 346.868 379.919 349.222 379.919 352.632C379.919 356.02 381.921 358.286 384.891 358.286C387.091 358.286 388.785 357.098 389.489 355.096L387.927 354.766ZM381.877 351.466C381.987 350.432 382.163 349.904 382.647 349.288C383.241 348.562 384.033 348.166 384.979 348.166C385.947 348.166 386.673 348.54 387.223 349.31C387.663 349.948 387.817 350.454 387.839 351.466H381.877ZM398.719 354.194C398.367 355.976 397.443 356.9 396.079 356.9C394.275 356.9 393.219 355.272 393.219 352.544C393.219 349.904 394.319 348.254 396.101 348.254C396.937 348.254 397.663 348.628 398.147 349.288C398.433 349.706 398.587 350.102 398.719 350.938L400.237 350.652C399.797 348.188 398.345 346.868 396.123 346.868C393.307 346.868 391.459 349.156 391.459 352.588C391.459 356.042 393.263 358.286 396.035 358.286C397.245 358.286 398.191 357.912 398.961 357.12C399.665 356.416 399.973 355.778 400.237 354.458L398.719 354.194ZM404.347 347.154H402.653V358H404.347V347.154ZM404.413 343.326H402.587V345.196H404.413V343.326ZM416.304 358C416.128 357.34 416.062 356.68 416.062 355.888V351.29C416.062 349.706 415.864 348.848 415.336 348.122C414.698 347.264 413.598 346.846 411.97 346.846C410.166 346.846 408.802 347.286 407.944 348.166C407.482 348.628 407.284 349.046 407.13 349.86L408.692 350.124C408.978 348.826 409.968 348.144 411.596 348.144C413.664 348.144 414.434 348.892 414.434 350.938V351.29C413.752 351.246 413.422 351.246 413.026 351.246C411.134 351.246 409.66 351.51 408.67 352.038C407.548 352.61 406.844 353.776 406.844 355.008C406.844 356.944 408.384 358.286 410.628 358.286C412.476 358.286 413.554 357.648 414.434 356.042C414.522 357.274 414.522 357.472 414.632 358H416.304ZM414.434 352.566C414.456 352.852 414.456 353.072 414.456 353.27C414.456 355.36 412.938 356.988 410.958 356.988C409.55 356.988 408.648 356.218 408.648 355.052C408.648 353.402 410.188 352.522 413.004 352.522C413.268 352.522 413.84 352.544 414.434 352.566ZM421.26 358V343.326H419.566V358H421.26ZM426.419 347.154H424.725V358H426.419V347.154ZM426.485 343.326H424.659V345.196H426.485V343.326ZM428.41 355.184C428.674 356.13 428.96 356.592 429.532 357.076C430.456 357.89 431.688 358.286 433.228 358.286C435.912 358.286 437.694 356.944 437.694 354.964C437.694 353.204 436.616 352.148 434.394 351.752L432.26 351.378C431.116 351.158 430.566 350.674 430.566 349.86C430.566 348.892 431.49 348.254 432.898 348.254C434.284 348.254 435.164 348.782 435.67 349.948L437.21 349.618C436.682 347.814 435.208 346.868 432.942 346.868C430.478 346.868 428.85 348.144 428.85 350.058C428.85 351.598 429.928 352.698 431.776 353.05L434.064 353.468C435.296 353.71 435.934 354.26 435.934 355.14C435.934 356.196 434.9 356.9 433.382 356.9C432.37 356.9 431.336 356.592 430.72 356.086C430.368 355.8 430.192 355.47 430.016 354.854L428.41 355.184ZM448.799 358C448.623 357.34 448.557 356.68 448.557 355.888V351.29C448.557 349.706 448.359 348.848 447.831 348.122C447.193 347.264 446.093 346.846 444.465 346.846C442.661 346.846 441.297 347.286 440.439 348.166C439.977 348.628 439.779 349.046 439.625 349.86L441.187 350.124C441.473 348.826 442.463 348.144 444.091 348.144C446.159 348.144 446.929 348.892 446.929 350.938V351.29C446.247 351.246 445.917 351.246 445.521 351.246C443.629 351.246 442.155 351.51 441.165 352.038C440.043 352.61 439.339 353.776 439.339 355.008C439.339 356.944 440.879 358.286 443.123 358.286C444.971 358.286 446.049 357.648 446.929 356.042C447.017 357.274 447.017 357.472 447.127 358H448.799ZM446.929 352.566C446.951 352.852 446.951 353.072 446.951 353.27C446.951 355.36 445.433 356.988 443.453 356.988C442.045 356.988 441.143 356.218 441.143 355.052C441.143 353.402 442.683 352.522 445.499 352.522C445.763 352.522 446.335 352.544 446.929 352.566ZM456.731 356.834C456.137 356.944 455.829 356.966 455.433 356.966C454.267 356.966 453.673 356.394 453.673 355.272V348.474H456.115V347.154H453.673V344.294L452.089 344.426L452.023 347.154H450.109V348.474H452.023V355.008C452.023 357.186 453.079 358.308 455.125 358.308C455.631 358.308 455.983 358.286 456.731 358.176V356.834ZM460.289 347.154H458.595V358H460.289V347.154ZM460.355 343.326H458.529V345.196H460.355V343.326ZM467.802 346.868C464.898 346.868 462.896 349.178 462.896 352.544C462.896 355.998 464.788 358.286 467.626 358.286C470.552 358.286 472.642 355.954 472.642 352.698C472.642 349.156 470.75 346.868 467.802 346.868ZM467.736 348.254C468.616 348.254 469.474 348.694 470.024 349.42C470.552 350.168 470.794 351.136 470.794 352.61C470.794 355.294 469.65 356.9 467.758 356.9C465.844 356.9 464.744 355.316 464.744 352.522C464.744 351.202 465.008 350.146 465.492 349.442C465.998 348.716 466.878 348.254 467.736 348.254ZM483.83 358V351.73C483.83 350.124 483.72 349.31 483.434 348.76C482.818 347.572 481.674 346.868 480.31 346.868C478.814 346.868 477.956 347.44 476.834 349.156V347.154H475.272V358H476.966V352.038C476.966 349.904 478.242 348.32 480.002 348.32C481.454 348.32 482.246 349.266 482.246 351.026V358H483.83Z" fill="#9B9B0F"/>
<line x1="524.452" y1="181.786" x2="552.452" y2="240.786" stroke="#575457"/>
<path d="M751.453 174.786L810.5 312.5" stroke="#575457"/>
<path d="M512.298 268V253.326H510.472V259.398H503.652V253.326H501.826V268H503.652V261.004H510.472V268H512.298ZM523.248 257.154H521.818L518.848 265.316L515.944 257.154H514.228L517.99 267.802C517.682 268.77 517.484 269.232 517.264 269.584C516.868 270.222 516.318 270.508 515.548 270.508C515.218 270.508 514.954 270.464 514.426 270.354V271.696C514.998 271.828 515.262 271.872 515.702 271.872C516.472 271.872 517 271.74 517.396 271.454C518.056 270.992 518.518 270.31 518.892 269.276L523.248 257.154ZM533.703 255.46C533.483 255.438 533.395 255.438 533.263 255.438C532.251 255.438 531.811 255.548 531.437 255.922C531.063 256.274 530.865 256.692 530.755 257.33C530.051 256.978 529.347 256.824 528.533 256.824C526.157 256.824 524.397 258.408 524.397 260.52C524.397 261.708 524.793 262.522 525.805 263.402C524.705 263.93 524.309 264.436 524.309 265.316C524.309 266.064 524.573 266.504 525.365 267.076C524.221 267.516 523.715 268.176 523.715 269.232C523.715 271.102 525.431 272.092 528.665 272.092C532.273 272.092 534.121 271.036 534.121 268.99C534.121 268.088 533.703 267.318 532.933 266.834C532.251 266.372 531.525 266.262 529.281 266.196C527.279 266.13 526.839 266.086 526.465 265.91C526.091 265.734 525.915 265.47 525.915 265.118C525.915 264.59 526.487 264.084 527.059 264.084C527.147 264.084 527.411 264.128 527.763 264.194C527.983 264.238 528.225 264.26 528.511 264.26C530.931 264.26 532.669 262.764 532.669 260.652C532.669 259.706 532.317 258.826 531.635 258.034C531.789 257.066 532.251 256.78 533.703 256.802V255.46ZM528.577 258.166C529.963 258.166 530.975 259.222 530.975 260.63C530.975 261.994 529.963 262.962 528.555 262.962C527.103 262.962 526.135 262.016 526.135 260.586C526.135 259.156 527.147 258.166 528.577 258.166ZM526.531 267.56C527.037 267.626 528.049 267.692 529.149 267.714C531.041 267.758 531.239 267.78 531.767 268.022C532.273 268.242 532.515 268.572 532.515 269.056C532.515 269.672 532.119 270.156 531.371 270.398C530.623 270.64 529.677 270.794 528.797 270.794C527.521 270.794 526.333 270.486 525.739 269.98C525.497 269.782 525.343 269.408 525.343 269.056C525.343 268.374 525.629 268 526.531 267.56ZM537.448 257.154H535.754V268H537.448V257.154ZM537.514 253.326H535.688V255.196H537.514V253.326ZM548.063 264.766C547.821 265.338 547.645 265.646 547.403 265.91C546.853 266.548 546.017 266.9 545.137 266.9C543.971 266.9 542.849 266.24 542.365 265.25C542.035 264.568 541.925 263.996 541.925 262.72H549.823C549.801 261.224 549.625 260.322 549.185 259.376C548.415 257.792 546.919 256.868 545.093 256.868C542.123 256.868 540.055 259.222 540.055 262.632C540.055 266.02 542.057 268.286 545.027 268.286C547.227 268.286 548.921 267.098 549.625 265.096L548.063 264.766ZM542.013 261.466C542.123 260.432 542.299 259.904 542.783 259.288C543.377 258.562 544.169 258.166 545.115 258.166C546.083 258.166 546.809 258.54 547.359 259.31C547.799 259.948 547.953 260.454 547.975 261.466H542.013ZM561.011 268V261.73C561.011 260.124 560.901 259.31 560.615 258.76C559.999 257.572 558.855 256.868 557.491 256.868C555.995 256.868 555.137 257.44 554.015 259.156V257.154H552.453V268H554.147V262.038C554.147 259.904 555.423 258.32 557.183 258.32C558.635 258.32 559.427 259.266 559.427 261.026V268H561.011ZM571.637 264.766C571.395 265.338 571.219 265.646 570.977 265.91C570.427 266.548 569.591 266.9 568.711 266.9C567.545 266.9 566.423 266.24 565.939 265.25C565.609 264.568 565.499 263.996 565.499 262.72H573.397C573.375 261.224 573.199 260.322 572.759 259.376C571.989 257.792 570.493 256.868 568.667 256.868C565.697 256.868 563.629 259.222 563.629 262.632C563.629 266.02 565.631 268.286 568.601 268.286C570.801 268.286 572.495 267.098 573.199 265.096L571.637 264.766ZM565.587 261.466C565.697 260.432 565.873 259.904 566.357 259.288C566.951 258.562 567.743 258.166 568.689 258.166C569.657 258.166 570.383 258.54 570.933 259.31C571.373 259.948 571.527 260.454 571.549 261.466H565.587ZM583.594 268V261.048H589.534V259.574H583.594V254.932H590.744V253.326H581.768V268H583.594ZM600.981 268C600.805 267.34 600.739 266.68 600.739 265.888V261.29C600.739 259.706 600.541 258.848 600.013 258.122C599.375 257.264 598.275 256.846 596.647 256.846C594.843 256.846 593.479 257.286 592.621 258.166C592.159 258.628 591.961 259.046 591.807 259.86L593.369 260.124C593.655 258.826 594.645 258.144 596.273 258.144C598.341 258.144 599.111 258.892 599.111 260.938V261.29C598.429 261.246 598.099 261.246 597.703 261.246C595.811 261.246 594.337 261.51 593.347 262.038C592.225 262.61 591.521 263.776 591.521 265.008C591.521 266.944 593.061 268.286 595.305 268.286C597.153 268.286 598.231 267.648 599.111 266.042C599.199 267.274 599.199 267.472 599.309 268H600.981ZM599.111 262.566C599.133 262.852 599.133 263.072 599.133 263.27C599.133 265.36 597.615 266.988 595.635 266.988C594.227 266.988 593.325 266.218 593.325 265.052C593.325 263.402 594.865 262.522 597.681 262.522C597.945 262.522 598.517 262.544 599.111 262.566ZM610.645 264.194C610.293 265.976 609.369 266.9 608.005 266.9C606.201 266.9 605.145 265.272 605.145 262.544C605.145 259.904 606.245 258.254 608.027 258.254C608.863 258.254 609.589 258.628 610.073 259.288C610.359 259.706 610.513 260.102 610.645 260.938L612.163 260.652C611.723 258.188 610.271 256.868 608.049 256.868C605.233 256.868 603.385 259.156 603.385 262.588C603.385 266.042 605.189 268.286 607.961 268.286C609.171 268.286 610.117 267.912 610.887 267.12C611.591 266.416 611.899 265.778 612.163 264.458L610.645 264.194ZM619.636 266.834C619.042 266.944 618.734 266.966 618.338 266.966C617.172 266.966 616.578 266.394 616.578 265.272V258.474H619.02V257.154H616.578V254.294L614.994 254.426L614.928 257.154H613.014V258.474H614.928V265.008C614.928 267.186 615.984 268.308 618.03 268.308C618.536 268.308 618.888 268.286 619.636 268.176V266.834ZM625.312 256.868C622.408 256.868 620.406 259.178 620.406 262.544C620.406 265.998 622.298 268.286 625.136 268.286C628.062 268.286 630.152 265.954 630.152 262.698C630.152 259.156 628.26 256.868 625.312 256.868ZM625.246 258.254C626.126 258.254 626.984 258.694 627.534 259.42C628.062 260.168 628.304 261.136 628.304 262.61C628.304 265.294 627.16 266.9 625.268 266.9C623.354 266.9 622.254 265.316 622.254 262.522C622.254 261.202 622.518 260.146 623.002 259.442C623.508 258.716 624.388 258.254 625.246 258.254ZM634.476 268V262.258C634.52 259.948 636.082 258.32 638.128 258.496V256.89C637.886 256.868 637.644 256.846 637.512 256.846C636.676 256.846 635.862 257.22 635.378 257.792C634.982 258.276 634.784 258.606 634.256 259.684V257.154H632.782V268H634.476ZM500.22 291.084C500.748 292.47 501.144 293.108 501.914 293.834C503.014 294.824 504.356 295.286 506.204 295.286C509.504 295.286 511.638 293.548 511.638 290.864C511.638 288.774 510.362 287.41 507.854 286.816L505.126 286.156C503.41 285.738 502.728 285.1 502.728 283.934C502.728 282.548 504.048 281.536 505.83 281.536C506.842 281.536 507.832 281.888 508.558 282.526C509.042 282.944 509.284 283.34 509.482 284.11L511.132 283.648C510.318 281.272 508.514 280.04 505.896 280.04C502.926 280.04 500.946 281.646 500.946 284.044C500.946 285.188 501.364 286.156 502.134 286.882C502.706 287.388 503.344 287.696 504.554 287.982L507.48 288.73C508.91 289.082 509.724 289.918 509.724 291.04C509.724 292.712 508.404 293.724 506.204 293.724C503.96 293.724 502.552 292.756 501.87 290.732L500.22 291.084ZM522.864 295C522.688 294.34 522.622 293.68 522.622 292.888V288.29C522.622 286.706 522.424 285.848 521.896 285.122C521.258 284.264 520.158 283.846 518.53 283.846C516.726 283.846 515.362 284.286 514.504 285.166C514.042 285.628 513.844 286.046 513.69 286.86L515.252 287.124C515.538 285.826 516.528 285.144 518.156 285.144C520.224 285.144 520.994 285.892 520.994 287.938V288.29C520.312 288.246 519.982 288.246 519.586 288.246C517.694 288.246 516.22 288.51 515.23 289.038C514.108 289.61 513.404 290.776 513.404 292.008C513.404 293.944 514.944 295.286 517.188 295.286C519.036 295.286 520.114 294.648 520.994 293.042C521.082 294.274 521.082 294.472 521.192 295H522.864ZM520.994 289.566C521.016 289.852 521.016 290.072 521.016 290.27C521.016 292.36 519.498 293.988 517.518 293.988C516.11 293.988 515.208 293.218 515.208 292.052C515.208 290.402 516.748 289.522 519.564 289.522C519.828 289.522 520.4 289.544 520.994 289.566ZM527.821 295V280.326H526.127V295H527.821ZM538.457 291.766C538.215 292.338 538.039 292.646 537.797 292.91C537.247 293.548 536.411 293.9 535.531 293.9C534.365 293.9 533.243 293.24 532.759 292.25C532.429 291.568 532.319 290.996 532.319 289.72H540.217C540.195 288.224 540.019 287.322 539.579 286.376C538.809 284.792 537.313 283.868 535.487 283.868C532.517 283.868 530.449 286.222 530.449 289.632C530.449 293.02 532.451 295.286 535.421 295.286C537.621 295.286 539.315 294.098 540.019 292.096L538.457 291.766ZM532.407 288.466C532.517 287.432 532.693 286.904 533.177 286.288C533.771 285.562 534.563 285.166 535.509 285.166C536.477 285.166 537.203 285.54 537.753 286.31C538.193 286.948 538.347 287.454 538.369 288.466H532.407ZM541.523 292.184C541.787 293.13 542.073 293.592 542.645 294.076C543.569 294.89 544.801 295.286 546.341 295.286C549.025 295.286 550.807 293.944 550.807 291.964C550.807 290.204 549.729 289.148 547.507 288.752L545.373 288.378C544.229 288.158 543.679 287.674 543.679 286.86C543.679 285.892 544.603 285.254 546.011 285.254C547.397 285.254 548.277 285.782 548.783 286.948L550.323 286.618C549.795 284.814 548.321 283.868 546.055 283.868C543.591 283.868 541.963 285.144 541.963 287.058C541.963 288.598 543.041 289.698 544.889 290.05L547.177 290.468C548.409 290.71 549.047 291.26 549.047 292.14C549.047 293.196 548.013 293.9 546.495 293.9C545.483 293.9 544.449 293.592 543.833 293.086C543.481 292.8 543.305 292.47 543.129 291.854L541.523 292.184ZM567.414 295C567.238 294.34 567.172 293.68 567.172 292.888V288.29C567.172 286.706 566.974 285.848 566.446 285.122C565.808 284.264 564.708 283.846 563.08 283.846C561.276 283.846 559.912 284.286 559.054 285.166C558.592 285.628 558.394 286.046 558.24 286.86L559.802 287.124C560.088 285.826 561.078 285.144 562.706 285.144C564.774 285.144 565.544 285.892 565.544 287.938V288.29C564.862 288.246 564.532 288.246 564.136 288.246C562.244 288.246 560.77 288.51 559.78 289.038C558.658 289.61 557.954 290.776 557.954 292.008C557.954 293.944 559.494 295.286 561.738 295.286C563.586 295.286 564.664 294.648 565.544 293.042C565.632 294.274 565.632 294.472 565.742 295H567.414ZM565.544 289.566C565.566 289.852 565.566 290.072 565.566 290.27C565.566 292.36 564.048 293.988 562.068 293.988C560.66 293.988 559.758 293.218 559.758 292.052C559.758 290.402 561.298 289.522 564.114 289.522C564.378 289.522 564.95 289.544 565.544 289.566ZM579.235 295V288.73C579.235 287.124 579.125 286.31 578.839 285.76C578.223 284.572 577.079 283.868 575.715 283.868C574.219 283.868 573.361 284.44 572.239 286.156V284.154H570.677V295H572.371V289.038C572.371 286.904 573.647 285.32 575.407 285.32C576.859 285.32 577.651 286.266 577.651 288.026V295H579.235ZM591.159 280.326H589.465V285.628C588.497 284.352 587.639 283.868 586.275 283.868C583.657 283.868 581.831 286.244 581.831 289.676C581.831 292.976 583.635 295.308 586.187 295.308C587.749 295.308 588.717 294.692 589.619 293.152V295H591.159V280.326ZM589.465 290.6C589.377 291.678 589.201 292.184 588.673 292.822C588.079 293.504 587.287 293.922 586.473 293.922C584.713 293.922 583.679 292.272 583.679 289.456C583.679 286.882 584.801 285.21 586.539 285.21C587.397 285.21 588.321 285.65 588.827 286.332C589.245 286.86 589.377 287.322 589.465 288.334V290.6ZM600.401 295H605.923C609.355 295 611.885 291.854 611.885 287.608C611.885 285.298 611.093 283.296 609.663 281.932C608.497 280.832 607.155 280.326 605.307 280.326H600.401V295ZM602.227 293.438V281.866H605.197C606.649 281.866 607.683 282.284 608.475 283.142C609.465 284.242 610.015 285.826 610.015 287.608C610.015 289.434 609.421 291.194 608.431 292.228C607.705 292.998 606.539 293.438 605.219 293.438H602.227ZM621.794 291.766C621.552 292.338 621.376 292.646 621.134 292.91C620.584 293.548 619.748 293.9 618.868 293.9C617.702 293.9 616.58 293.24 616.096 292.25C615.766 291.568 615.656 290.996 615.656 289.72H623.554C623.532 288.224 623.356 287.322 622.916 286.376C622.146 284.792 620.65 283.868 618.824 283.868C615.854 283.868 613.786 286.222 613.786 289.632C613.786 293.02 615.788 295.286 618.758 295.286C620.958 295.286 622.652 294.098 623.356 292.096L621.794 291.766ZM615.744 288.466C615.854 287.432 616.03 286.904 616.514 286.288C617.108 285.562 617.9 285.166 618.846 285.166C619.814 285.166 620.54 285.54 621.09 286.31C621.53 286.948 621.684 287.454 621.706 288.466H615.744ZM627.642 295V280.326H625.948V295H627.642ZM632.8 284.154H631.106V295H632.8V284.154ZM632.866 280.326H631.04V282.196H632.866V280.326ZM644.057 284.154H642.561L639.569 292.976L636.555 284.154H634.685L638.557 295H640.317L644.057 284.154ZM652.957 291.766C652.715 292.338 652.539 292.646 652.297 292.91C651.747 293.548 650.911 293.9 650.031 293.9C648.865 293.9 647.743 293.24 647.259 292.25C646.929 291.568 646.819 290.996 646.819 289.72H654.717C654.695 288.224 654.519 287.322 654.079 286.376C653.309 284.792 651.813 283.868 649.987 283.868C647.017 283.868 644.949 286.222 644.949 289.632C644.949 293.02 646.951 295.286 649.921 295.286C652.121 295.286 653.815 294.098 654.519 292.096L652.957 291.766ZM646.907 288.466C647.017 287.432 647.193 286.904 647.677 286.288C648.271 285.562 649.063 285.166 650.009 285.166C650.977 285.166 651.703 285.54 652.253 286.31C652.693 286.948 652.847 287.454 652.869 288.466H646.907ZM659.041 295V289.258C659.085 286.948 660.647 285.32 662.693 285.496V283.89C662.451 283.868 662.209 283.846 662.077 283.846C661.241 283.846 660.427 284.22 659.943 284.792C659.547 285.276 659.349 285.606 658.821 286.684V284.154H657.347V295H659.041ZM672.756 284.154H671.326L668.356 292.316L665.452 284.154H663.736L667.498 294.802C667.19 295.77 666.992 296.232 666.772 296.584C666.376 297.222 665.826 297.508 665.056 297.508C664.726 297.508 664.462 297.464 663.934 297.354V298.696C664.506 298.828 664.77 298.872 665.21 298.872C665.98 298.872 666.508 298.74 666.904 298.454C667.564 297.992 668.026 297.31 668.4 296.276L672.756 284.154Z" fill="#005573"/>
<path d="M741.298 336V321.326H739.472V327.398H732.652V321.326H730.826V336H732.652V329.004H739.472V336H741.298ZM752.091 332.766C751.849 333.338 751.673 333.646 751.431 333.91C750.881 334.548 750.045 334.9 749.165 334.9C747.999 334.9 746.877 334.24 746.393 333.25C746.063 332.568 745.953 331.996 745.953 330.72H753.851C753.829 329.224 753.653 328.322 753.213 327.376C752.443 325.792 750.947 324.868 749.121 324.868C746.151 324.868 744.083 327.222 744.083 330.632C744.083 334.02 746.085 336.286 749.055 336.286C751.255 336.286 752.949 335.098 753.653 333.096L752.091 332.766ZM746.041 329.466C746.151 328.432 746.327 327.904 746.811 327.288C747.405 326.562 748.197 326.166 749.143 326.166C750.111 326.166 750.837 326.54 751.387 327.31C751.827 327.948 751.981 328.454 752.003 329.466H746.041ZM764.908 336C764.732 335.34 764.666 334.68 764.666 333.888V329.29C764.666 327.706 764.468 326.848 763.94 326.122C763.302 325.264 762.202 324.846 760.574 324.846C758.77 324.846 757.406 325.286 756.548 326.166C756.086 326.628 755.888 327.046 755.734 327.86L757.296 328.124C757.582 326.826 758.572 326.144 760.2 326.144C762.268 326.144 763.038 326.892 763.038 328.938V329.29C762.356 329.246 762.026 329.246 761.63 329.246C759.738 329.246 758.264 329.51 757.274 330.038C756.152 330.61 755.448 331.776 755.448 333.008C755.448 334.944 756.988 336.286 759.232 336.286C761.08 336.286 762.158 335.648 763.038 334.042C763.126 335.274 763.126 335.472 763.236 336H764.908ZM763.038 330.566C763.06 330.852 763.06 331.072 763.06 331.27C763.06 333.36 761.542 334.988 759.562 334.988C758.154 334.988 757.252 334.218 757.252 333.052C757.252 331.402 758.792 330.522 761.608 330.522C761.872 330.522 762.444 330.544 763.038 330.566ZM769.864 336V321.326H768.17V336H769.864ZM778.257 334.834C777.663 334.944 777.355 334.966 776.959 334.966C775.793 334.966 775.199 334.394 775.199 333.272V326.474H777.641V325.154H775.199V322.294L773.615 322.426L773.549 325.154H771.635V326.474H773.549V333.008C773.549 335.186 774.605 336.308 776.651 336.308C777.157 336.308 777.509 336.286 778.257 336.176V334.834ZM788.635 336V329.422C788.635 327.618 788.525 327.068 787.975 326.276C787.359 325.352 786.325 324.846 785.137 324.846C783.641 324.846 782.695 325.506 781.815 327.156V321.326H780.121V336H781.815V330.148C781.815 328.872 782.079 328.014 782.717 327.288C783.267 326.65 784.081 326.254 784.829 326.254C785.665 326.254 786.435 326.738 786.721 327.464C786.897 327.904 786.941 328.3 786.941 329.422V336H788.635ZM799.68 336V329.048H805.62V327.574H799.68V322.932H806.83V321.326H797.854V336H799.68ZM817.066 336C816.89 335.34 816.824 334.68 816.824 333.888V329.29C816.824 327.706 816.626 326.848 816.098 326.122C815.46 325.264 814.36 324.846 812.732 324.846C810.928 324.846 809.564 325.286 808.706 326.166C808.244 326.628 808.046 327.046 807.892 327.86L809.454 328.124C809.74 326.826 810.73 326.144 812.358 326.144C814.426 326.144 815.196 326.892 815.196 328.938V329.29C814.514 329.246 814.184 329.246 813.788 329.246C811.896 329.246 810.422 329.51 809.432 330.038C808.31 330.61 807.606 331.776 807.606 333.008C807.606 334.944 809.146 336.286 811.39 336.286C813.238 336.286 814.316 335.648 815.196 334.042C815.284 335.274 815.284 335.472 815.394 336H817.066ZM815.196 330.566C815.218 330.852 815.218 331.072 815.218 331.27C815.218 333.36 813.7 334.988 811.72 334.988C810.312 334.988 809.41 334.218 809.41 333.052C809.41 331.402 810.95 330.522 813.766 330.522C814.03 330.522 814.602 330.544 815.196 330.566ZM826.731 332.194C826.379 333.976 825.455 334.9 824.091 334.9C822.287 334.9 821.231 333.272 821.231 330.544C821.231 327.904 822.331 326.254 824.113 326.254C824.949 326.254 825.675 326.628 826.159 327.288C826.445 327.706 826.599 328.102 826.731 328.938L828.249 328.652C827.809 326.188 826.357 324.868 824.135 324.868C821.319 324.868 819.471 327.156 819.471 330.588C819.471 334.042 821.275 336.286 824.047 336.286C825.257 336.286 826.203 335.912 826.973 335.12C827.677 334.416 827.985 333.778 828.249 332.458L826.731 332.194ZM835.721 334.834C835.127 334.944 834.819 334.966 834.423 334.966C833.257 334.966 832.663 334.394 832.663 333.272V326.474H835.105V325.154H832.663V322.294L831.079 322.426L831.013 325.154H829.099V326.474H831.013V333.008C831.013 335.186 832.069 336.308 834.115 336.308C834.621 336.308 834.973 336.286 835.721 336.176V334.834ZM841.397 324.868C838.493 324.868 836.491 327.178 836.491 330.544C836.491 333.998 838.383 336.286 841.221 336.286C844.147 336.286 846.237 333.954 846.237 330.698C846.237 327.156 844.345 324.868 841.397 324.868ZM841.331 326.254C842.211 326.254 843.069 326.694 843.619 327.42C844.147 328.168 844.389 329.136 844.389 330.61C844.389 333.294 843.245 334.9 841.353 334.9C839.439 334.9 838.339 333.316 838.339 330.522C838.339 329.202 838.603 328.146 839.087 327.442C839.593 326.716 840.473 326.254 841.331 326.254ZM850.562 336V330.258C850.606 327.948 852.168 326.32 854.214 326.496V324.89C853.972 324.868 853.73 324.846 853.598 324.846C852.762 324.846 851.948 325.22 851.464 325.792C851.068 326.276 850.87 326.606 850.342 327.684V325.154H848.868V336H850.562ZM860.354 332.084C860.882 333.47 861.278 334.108 862.048 334.834C863.148 335.824 864.49 336.286 866.338 336.286C869.638 336.286 871.772 334.548 871.772 331.864C871.772 329.774 870.496 328.41 867.988 327.816L865.26 327.156C863.544 326.738 862.862 326.1 862.862 324.934C862.862 323.548 864.182 322.536 865.964 322.536C866.976 322.536 867.966 322.888 868.692 323.526C869.176 323.944 869.418 324.34 869.616 325.11L871.266 324.648C870.452 322.272 868.648 321.04 866.03 321.04C863.06 321.04 861.08 322.646 861.08 325.044C861.08 326.188 861.498 327.156 862.268 327.882C862.84 328.388 863.478 328.696 864.688 328.982L867.614 329.73C869.044 330.082 869.858 330.918 869.858 332.04C869.858 333.712 868.538 334.724 866.338 334.724C864.094 334.724 862.686 333.756 862.004 331.732L860.354 332.084ZM879.348 334.834C878.754 334.944 878.446 334.966 878.05 334.966C876.884 334.966 876.29 334.394 876.29 333.272V326.474H878.732V325.154H876.29V322.294L874.706 322.426L874.64 325.154H872.726V326.474H874.64V333.008C874.64 335.186 875.696 336.308 877.742 336.308C878.248 336.308 878.6 336.286 879.348 336.176V334.834ZM889.897 336C889.721 335.34 889.655 334.68 889.655 333.888V329.29C889.655 327.706 889.457 326.848 888.929 326.122C888.291 325.264 887.191 324.846 885.563 324.846C883.759 324.846 882.395 325.286 881.537 326.166C881.075 326.628 880.877 327.046 880.723 327.86L882.285 328.124C882.571 326.826 883.561 326.144 885.189 326.144C887.257 326.144 888.027 326.892 888.027 328.938V329.29C887.345 329.246 887.015 329.246 886.619 329.246C884.727 329.246 883.253 329.51 882.263 330.038C881.141 330.61 880.437 331.776 880.437 333.008C880.437 334.944 881.977 336.286 884.221 336.286C886.069 336.286 887.147 335.648 888.027 334.042C888.115 335.274 888.115 335.472 888.225 336H889.897ZM888.027 330.566C888.049 330.852 888.049 331.072 888.049 331.27C888.049 333.36 886.531 334.988 884.551 334.988C883.143 334.988 882.241 334.218 882.241 333.052C882.241 331.402 883.781 330.522 886.597 330.522C886.861 330.522 887.433 330.544 888.027 330.566ZM901.718 336V329.73C901.718 328.124 901.608 327.31 901.322 326.76C900.706 325.572 899.562 324.868 898.198 324.868C896.702 324.868 895.844 325.44 894.722 327.156V325.154H893.16V336H894.854V330.038C894.854 327.904 896.13 326.32 897.89 326.32C899.342 326.32 900.134 327.266 900.134 329.026V336H901.718ZM913.642 321.326H911.948V326.628C910.98 325.352 910.122 324.868 908.758 324.868C906.14 324.868 904.314 327.244 904.314 330.676C904.314 333.976 906.118 336.308 908.67 336.308C910.232 336.308 911.2 335.692 912.102 334.152V336H913.642V321.326ZM911.948 331.6C911.86 332.678 911.684 333.184 911.156 333.822C910.562 334.504 909.77 334.922 908.956 334.922C907.196 334.922 906.162 333.272 906.162 330.456C906.162 327.882 907.284 326.21 909.022 326.21C909.88 326.21 910.804 326.65 911.31 327.332C911.728 327.86 911.86 328.322 911.948 329.334V331.6ZM925.462 336C925.286 335.34 925.22 334.68 925.22 333.888V329.29C925.22 327.706 925.022 326.848 924.494 326.122C923.856 325.264 922.756 324.846 921.128 324.846C919.324 324.846 917.96 325.286 917.102 326.166C916.64 326.628 916.442 327.046 916.288 327.86L917.85 328.124C918.136 326.826 919.126 326.144 920.754 326.144C922.822 326.144 923.592 326.892 923.592 328.938V329.29C922.91 329.246 922.58 329.246 922.184 329.246C920.292 329.246 918.818 329.51 917.828 330.038C916.706 330.61 916.002 331.776 916.002 333.008C916.002 334.944 917.542 336.286 919.786 336.286C921.634 336.286 922.712 335.648 923.592 334.042C923.68 335.274 923.68 335.472 923.79 336H925.462ZM923.592 330.566C923.614 330.852 923.614 331.072 923.614 331.27C923.614 333.36 922.096 334.988 920.116 334.988C918.708 334.988 917.806 334.218 917.806 333.052C917.806 331.402 919.346 330.522 922.162 330.522C922.426 330.522 922.998 330.544 923.592 330.566ZM930.418 336V330.258C930.462 327.948 932.024 326.32 934.07 326.496V324.89C933.828 324.868 933.586 324.846 933.454 324.846C932.618 324.846 931.804 325.22 931.32 325.792C930.924 326.276 930.726 326.606 930.198 327.684V325.154H928.724V336H930.418ZM944.243 321.326H942.549V326.628C941.581 325.352 940.723 324.868 939.359 324.868C936.741 324.868 934.915 327.244 934.915 330.676C934.915 333.976 936.719 336.308 939.271 336.308C940.833 336.308 941.801 335.692 942.703 334.152V336H944.243V321.326ZM942.549 331.6C942.461 332.678 942.285 333.184 941.757 333.822C941.163 334.504 940.371 334.922 939.557 334.922C937.797 334.922 936.763 333.272 936.763 330.456C936.763 327.882 937.885 326.21 939.623 326.21C940.481 326.21 941.405 326.65 941.911 327.332C942.329 327.86 942.461 328.322 942.549 329.334V331.6ZM949.415 325.154H947.721V336H949.415V325.154ZM949.481 321.326H947.655V323.196H949.481V321.326ZM959.533 334.702H953.571L959.533 326.078V325.154H951.987V326.474H957.311L951.547 334.702V336H959.533V334.702ZM970.377 336C970.201 335.34 970.135 334.68 970.135 333.888V329.29C970.135 327.706 969.937 326.848 969.409 326.122C968.771 325.264 967.671 324.846 966.043 324.846C964.239 324.846 962.875 325.286 962.017 326.166C961.555 326.628 961.357 327.046 961.203 327.86L962.765 328.124C963.051 326.826 964.041 326.144 965.669 326.144C967.737 326.144 968.507 326.892 968.507 328.938V329.29C967.825 329.246 967.495 329.246 967.099 329.246C965.207 329.246 963.733 329.51 962.743 330.038C961.621 330.61 960.917 331.776 960.917 333.008C960.917 334.944 962.457 336.286 964.701 336.286C966.549 336.286 967.627 335.648 968.507 334.042C968.595 335.274 968.595 335.472 968.705 336H970.377ZM968.507 330.566C968.529 330.852 968.529 331.072 968.529 331.27C968.529 333.36 967.011 334.988 965.031 334.988C963.623 334.988 962.721 334.218 962.721 333.052C962.721 331.402 964.261 330.522 967.077 330.522C967.341 330.522 967.913 330.544 968.507 330.566ZM978.309 334.834C977.715 334.944 977.407 334.966 977.011 334.966C975.845 334.966 975.251 334.394 975.251 333.272V326.474H977.693V325.154H975.251V322.294L973.667 322.426L973.601 325.154H971.687V326.474H973.601V333.008C973.601 335.186 974.657 336.308 976.703 336.308C977.209 336.308 977.561 336.286 978.309 336.176V334.834ZM981.867 325.154H980.173V336H981.867V325.154ZM981.933 321.326H980.107V323.196H981.933V321.326ZM989.38 324.868C986.476 324.868 984.474 327.178 984.474 330.544C984.474 333.998 986.366 336.286 989.204 336.286C992.13 336.286 994.22 333.954 994.22 330.698C994.22 327.156 992.328 324.868 989.38 324.868ZM989.314 326.254C990.194 326.254 991.052 326.694 991.602 327.42C992.13 328.168 992.372 329.136 992.372 330.61C992.372 333.294 991.228 334.9 989.336 334.9C987.422 334.9 986.322 333.316 986.322 330.522C986.322 329.202 986.586 328.146 987.07 327.442C987.576 326.716 988.456 326.254 989.314 326.254ZM1005.41 336V329.73C1005.41 328.124 1005.3 327.31 1005.01 326.76C1004.4 325.572 1003.25 324.868 1001.89 324.868C1000.39 324.868 999.534 325.44 998.412 327.156V325.154H996.85V336H998.544V330.038C998.544 327.904 999.82 326.32 1001.58 326.32C1003.03 326.32 1003.82 327.266 1003.82 329.026V336H1005.41Z" fill="#9B9B0F"/>
</svg>
