<svg width="1384" height="728" viewBox="0 0 1384 728" fill="none" xmlns="http://www.w3.org/2000/svg">
<rect width="1384" height="728" fill="white"/>
<path d="M141.954 324.625C141.954 323.725 141.594 323.095 140.019 323.095H139.839C138.894 323.14 138.669 323.95 138.669 324.895C138.669 325.75 138.849 326.65 138.849 327.235C138.669 331.24 133.584 351.67 122.469 352.795H122.289C118.959 352.795 116.214 345.19 116.214 339.97C116.259 333.4 116.754 329.845 116.754 327.91V327.055C116.754 326.29 116.664 325.705 115.674 325.615H115.449C114.234 325.615 113.559 326.515 113.514 327.82C113.424 329.665 113.379 331.375 113.379 332.995C113.379 334.615 113.424 336.19 113.424 337.72C113.559 345.865 116.889 355.18 121.299 355.27H121.524C133.809 355.27 140.469 335.965 141.639 326.875C141.729 326.11 141.954 325.3 141.954 324.625ZM156.212 356.125C156.212 355.405 155.762 354.55 155.447 353.92C155.357 353.605 155.312 352.795 155.312 350.995V345.82C155.312 339.97 155.087 335.785 152.972 335.335H152.792C150.002 335.335 145.232 345.685 145.232 345.685C145.187 345.325 145.187 345.055 145.187 344.83C145.187 344.245 145.277 343.705 145.277 342.4C145.277 339.79 145.727 338.08 145.727 337.09C145.727 336.73 145.682 336.505 145.547 336.325C145.277 335.965 144.692 335.605 144.107 335.605C143.657 335.605 143.252 335.875 143.117 336.64C143.027 337.27 142.622 340.51 142.532 344.74C142.442 349.6 142.172 352.21 142.172 353.65C142.172 354.37 142.262 354.82 142.442 355.135C142.757 355.54 143.117 355.675 143.432 355.675C143.747 355.675 144.062 355.54 144.287 355.45C144.827 355.045 144.782 353.875 146.132 350.23C148.157 344.74 151.487 338.53 152.297 338.53C152.837 338.53 152.882 342.175 152.882 342.715L152.837 347.08C152.837 351.13 153.287 353.245 153.287 354.19C153.287 354.64 153.152 354.91 153.152 355.225C153.152 356.44 154.277 357.25 155.177 357.25C155.852 357.25 156.212 356.665 156.212 356.125ZM164.983 338.305C164.983 337.27 164.353 336.595 163.588 336.595C162.013 336.685 162.193 339.25 162.058 341.725C161.833 346.045 161.608 349.285 161.608 351.445C161.608 353.065 161.743 354.055 162.148 354.37C162.508 354.64 162.913 354.775 163.228 354.775C164.128 354.775 164.443 354.055 164.443 353.29C164.443 352.48 163.903 352.39 163.903 350.365V349.51C163.903 347.755 164.983 339.835 164.983 338.305ZM165.073 323.365C165.073 322.645 164.578 322.105 163.948 322.105C162.778 322.105 163.138 323.14 162.193 325.075C161.653 326.245 161.428 327.28 161.428 328.09C161.428 328.72 161.563 329.62 162.238 329.62C162.553 329.62 162.823 329.44 163.048 329.215C163.498 328.765 163.183 328 163.858 326.335C164.443 324.895 165.028 324.13 165.073 323.545V323.365ZM189.485 335.92C189.395 334.66 187.775 334.705 186.83 334.66C186.425 334.66 186.02 334.615 185.615 334.615C182.42 334.615 179.72 335.2 179.72 335.2C180.125 332.275 180.395 331.555 180.665 328.855C180.755 327.91 180.8 327.1 180.8 326.425C180.8 324.04 180.26 323.185 179.405 323.185C178.55 323.185 178.37 323.995 178.37 324.94C178.37 325.57 178.46 326.2 178.46 326.965C178.46 328.495 177.38 335.605 177.38 335.605C174.68 336.325 174.095 336.55 171.53 337.54C169.055 338.485 168.965 338.8 168.74 339.475C168.695 339.61 168.695 339.7 168.695 339.79C168.695 340.42 169.595 341.095 170.09 341.095C170.9 341.095 172.43 339.7 173.195 339.34C174.815 338.575 177.02 338.08 177.02 338.08C176.795 340.015 176.615 340.915 176.3 344.11C175.805 348.7 175.805 351.49 175.805 353.515C175.805 354.235 176.03 355.9 177.38 355.99H177.56C178.415 355.99 178.64 355.495 178.64 354.91C178.64 354.37 178.415 353.74 178.415 353.56C178.37 352.885 178.37 352.12 178.37 351.355C178.37 345.37 179.315 338.125 179.36 337.585C180.98 337.225 184.085 336.595 186.875 336.595C187.235 336.595 187.865 336.73 188.405 336.73C188.99 336.73 189.485 336.595 189.485 335.92ZM234.021 323.725C234.021 322.915 233.301 322.285 232.581 322.285C231.231 322.285 230.331 324.4 230.331 325.255C230.331 325.525 229.611 328.81 228.261 331.915C225.291 338.665 218.946 350.905 218.946 350.905C217.686 347.89 217.191 346.225 215.661 342.67C212.781 335.92 210.846 325.615 208.191 325.615C207.246 325.615 206.436 326.74 206.436 327.55C206.436 328.855 208.011 330.115 208.551 331.375C213.681 343.12 216.966 354.775 217.461 355.09C217.731 355.27 218.091 355.315 218.496 355.315C219.126 355.315 219.801 355.135 220.071 354.82C220.386 354.505 226.191 341.815 229.656 334.57C232.401 328.945 232.131 326.56 233.211 325.57C233.571 325.255 234.021 324.445 234.021 323.725ZM239.617 351.175C239.617 351.175 236.602 353.695 234.397 353.695C233.272 353.695 232.867 353.065 232.867 352.075C232.867 349.825 234.757 347.395 237.007 347.395C238.492 347.395 239.617 351.175 239.617 351.175ZM244.117 345.235C244.117 341.725 243.217 338.125 240.112 336.19C239.392 335.74 238.537 335.56 237.592 335.56C234.982 335.56 232.057 337.09 232.057 338.62C232.102 339.43 232.867 339.745 233.362 339.745C233.587 339.745 233.722 339.7 233.722 339.52C233.812 338.89 235.567 337.675 237.367 337.675C240.922 337.675 241.867 342.715 241.867 345.325C241.867 347.755 241.147 349.42 241.147 349.42C240.472 347.35 239.347 345.145 236.872 345.145C233.407 345.145 230.752 349.24 230.752 352.255C230.752 354.415 232.057 355.81 234.307 355.81C237.097 355.81 240.292 353.56 240.292 353.56C240.292 353.56 240.427 354.325 240.697 354.595C240.922 354.865 241.327 354.955 241.642 354.955C241.867 354.955 242.092 354.91 242.182 354.775C242.407 354.64 244.117 350.005 244.117 345.235ZM266.448 337.09C266.448 336.55 266.088 336.01 265.818 335.92C265.053 335.65 264.378 335.56 263.748 335.56C261.048 335.56 259.203 337.63 257.538 339.205C254.658 341.86 251.553 346 251.553 346C251.553 342.985 251.553 342.13 251.508 340.555C251.418 337.81 251.283 336.775 250.608 336.145C250.248 335.83 249.933 335.695 249.618 335.695C249.168 335.695 248.268 336.235 248.268 336.73C248.268 337.27 249.258 338.215 249.258 343.84C249.258 344.74 249.213 345.73 249.168 346.9C248.988 350.365 248.448 352.66 248.448 354.01C248.448 354.595 248.538 355 248.808 355.27C249.123 355.585 249.573 355.81 250.023 355.81C250.383 355.81 250.743 355.675 251.013 355.315C251.598 354.55 251.013 351.085 252.678 348.565C255.918 343.66 259.338 339.835 262.173 338.17C262.623 337.9 263.028 337.81 263.343 337.81C264.063 337.81 264.558 338.215 265.143 338.215C265.818 338.215 266.448 337.675 266.448 337.09ZM271.518 338.305C271.518 337.27 270.888 336.595 270.123 336.595C268.548 336.685 268.728 339.25 268.593 341.725C268.368 346.045 268.143 349.285 268.143 351.445C268.143 353.065 268.278 354.055 268.683 354.37C269.043 354.64 269.448 354.775 269.763 354.775C270.663 354.775 270.978 354.055 270.978 353.29C270.978 352.48 270.438 352.39 270.438 350.365V349.51C270.438 347.755 271.518 339.835 271.518 338.305ZM271.608 323.365C271.608 322.645 271.113 322.105 270.483 322.105C269.313 322.105 269.673 323.14 268.728 325.075C268.188 326.245 267.963 327.28 267.963 328.09C267.963 328.72 268.098 329.62 268.773 329.62C269.088 329.62 269.358 329.44 269.583 329.215C270.033 328.765 269.718 328 270.393 326.335C270.978 324.895 271.563 324.13 271.608 323.545V323.365ZM284.491 351.175C284.491 351.175 281.476 353.695 279.271 353.695C278.146 353.695 277.741 353.065 277.741 352.075C277.741 349.825 279.631 347.395 281.881 347.395C283.366 347.395 284.491 351.175 284.491 351.175ZM288.991 345.235C288.991 341.725 288.091 338.125 284.986 336.19C284.266 335.74 283.411 335.56 282.466 335.56C279.856 335.56 276.931 337.09 276.931 338.62C276.976 339.43 277.741 339.745 278.236 339.745C278.461 339.745 278.596 339.7 278.596 339.52C278.686 338.89 280.441 337.675 282.241 337.675C285.796 337.675 286.741 342.715 286.741 345.325C286.741 347.755 286.021 349.42 286.021 349.42C285.346 347.35 284.221 345.145 281.746 345.145C278.281 345.145 275.626 349.24 275.626 352.255C275.626 354.415 276.931 355.81 279.181 355.81C281.971 355.81 285.166 353.56 285.166 353.56C285.166 353.56 285.301 354.325 285.571 354.595C285.796 354.865 286.201 354.955 286.516 354.955C286.741 354.955 286.966 354.91 287.056 354.775C287.281 354.64 288.991 350.005 288.991 345.235ZM305.652 342.85C305.652 346.945 296.202 353.38 296.202 353.38C296.202 353.38 295.797 351.175 295.797 347.575C295.797 346.9 295.797 346.135 295.842 345.37C295.977 342.355 296.742 339.295 296.742 339.295C297.192 339.25 297.687 339.205 298.182 339.205C301.107 339.205 304.572 340.15 305.427 341.905C305.562 342.22 305.652 342.535 305.652 342.85ZM308.217 342.625C308.217 342.265 308.127 341.86 307.992 341.545C306.012 337.135 299.667 336.82 297.777 336.82C297.417 336.82 297.192 336.82 297.192 336.82C298.047 332.14 298.767 330.925 298.767 328.135C298.767 326.02 297.822 324.535 297.012 324.535C296.157 324.535 295.887 325.12 295.887 325.66C295.887 326.425 296.247 327.325 296.247 327.865C296.247 331.78 294.717 337.315 294.717 337.315C294.042 337.63 293.412 338.215 293.412 338.71C293.547 339.79 294.132 339.97 294.132 339.97C293.637 343.525 293.502 348.34 293.502 351.175C293.502 352.525 293.502 353.425 293.547 353.515C293.862 354.145 294.807 354.19 295.122 354.19C295.212 354.19 295.257 354.19 295.257 354.19C295.257 354.19 295.212 354.415 295.212 354.685C295.212 355.585 296.067 356.17 296.787 356.17C297.372 356.17 297.327 355.72 298.002 355.045C298.857 354.235 308.217 347.08 308.217 342.625ZM317.216 324.13C317.216 323.5 317.081 323.185 316.856 322.915C316.406 322.42 316.046 322.24 315.731 322.24C315.326 322.24 315.056 322.51 314.741 322.78C314.156 323.275 314.021 327.145 313.481 332.995C312.941 338.485 311.996 348.16 311.996 353.515C311.996 355.54 312.176 356.98 312.536 357.205C312.941 357.52 313.301 357.61 313.616 357.61C314.516 357.61 314.696 356.305 314.696 355.315C314.696 353.785 314.561 352.165 314.561 350.725C314.561 347.125 314.786 342.805 315.326 338.575C316.451 329.125 317.216 325.705 317.216 324.13ZM331.587 338.575C330.192 339.835 329.427 340.33 328.257 341.005C325.467 342.715 322.947 342.85 322.947 342.85C322.947 342.85 324.342 341.005 326.637 339.835C328.257 338.98 329.922 338.575 331.587 338.575ZM340.452 346.36C340.452 345.595 339.777 344.92 339.102 344.92C338.337 344.92 337.842 346.09 337.572 346.585C337.122 347.215 330.147 352.93 326.592 352.93C324.612 352.93 323.757 351.85 322.947 350.545C321.957 349.015 321.732 347.62 321.732 346.675C321.732 345.865 321.867 345.37 321.867 345.37C323.127 345.28 325.872 345.01 328.662 343.3C331.227 341.77 335.052 338.89 335.052 337.765C335.052 337.63 335.007 337.54 334.872 337.45C333.792 336.73 332.487 336.415 331.002 336.415C326.277 336.415 320.472 339.88 319.302 344.965C319.167 345.505 319.122 346.045 319.122 346.585C319.122 349.915 321.192 353.47 324.117 354.82C324.702 355.09 325.377 355.225 326.097 355.225C331.182 355.225 338.427 348.61 339.417 348.07C340.002 347.665 340.452 346.99 340.452 346.36ZM392.631 345.01C392.631 344.155 391.866 343.525 391.101 343.525C390.201 343.525 389.211 344.11 388.806 344.29C387.816 344.74 374.946 352.165 367.296 352.165C365.856 352.165 364.596 351.895 363.606 351.265C361.851 350.14 361.131 348.52 361.131 346.675C361.131 339.25 372.966 328 378.726 326.785C379.716 326.56 381.111 326.29 381.111 325.21C381.111 324.13 380.481 323.725 379.626 323.725C378.681 323.725 377.601 324.175 377.241 324.31C369.726 327.325 358.611 338.125 358.611 346.54C358.611 349.015 359.601 351.31 361.896 353.11C363.156 354.1 364.866 354.505 366.801 354.505C375.171 354.505 388.041 346.9 390.021 346.63C390.021 346.63 392.631 346.36 392.631 345.01ZM399.799 339.25C402.274 339.25 403.354 342.13 403.354 344.11C403.354 345.685 402.814 347.26 402.049 348.745C401.194 350.365 398.359 352.84 396.289 352.84C394.219 352.84 393.364 349.915 393.364 348.295C393.364 347.665 393.454 347.035 393.634 346.54C395.929 339.745 399.439 339.25 399.799 339.25ZM405.604 344.65C405.604 344.155 405.559 343.705 405.514 343.165C405.019 338.26 401.239 336.685 399.439 336.685C396.829 336.685 394.219 339.07 391.699 344.785C391.159 346 390.934 347.17 390.934 348.34C390.934 351.31 392.599 355.18 395.794 355.18C399.574 355.18 405.604 351.085 405.604 344.65ZM421.639 333.76V333.58C421.594 333.04 420.019 332.23 419.434 331.96C419.164 331.825 418.804 331.735 418.399 331.735C417.814 331.735 417.094 331.915 416.554 332.365C413.584 334.84 407.914 339.07 407.914 344.02C407.914 350.77 418.264 350.32 418.894 352.525C418.894 354.145 412.369 356.35 412.099 356.8C411.919 357.025 411.829 357.25 411.829 357.475C411.829 358.105 412.504 358.645 413.449 358.69C414.124 358.69 421.504 354.82 421.504 352.975C421.504 350.185 418.939 349.735 416.194 348.655C413.224 347.53 410.254 346.63 410.254 344.02C410.254 342.625 411.379 340.015 413.404 338.215C416.959 335.02 417.454 334.075 418.984 334.03C419.344 334.03 419.839 334.57 420.694 334.57C421.369 334.57 421.639 334.21 421.639 333.76ZM443.369 335.92C443.279 334.66 441.659 334.705 440.714 334.66C440.309 334.66 439.904 334.615 439.499 334.615C436.304 334.615 433.604 335.2 433.604 335.2C434.009 332.275 434.279 331.555 434.549 328.855C434.639 327.91 434.684 327.1 434.684 326.425C434.684 324.04 434.144 323.185 433.289 323.185C432.434 323.185 432.254 323.995 432.254 324.94C432.254 325.57 432.344 326.2 432.344 326.965C432.344 328.495 431.264 335.605 431.264 335.605C428.564 336.325 427.979 336.55 425.414 337.54C422.939 338.485 422.849 338.8 422.624 339.475C422.579 339.61 422.579 339.7 422.579 339.79C422.579 340.42 423.479 341.095 423.974 341.095C424.784 341.095 426.314 339.7 427.079 339.34C428.699 338.575 430.904 338.08 430.904 338.08C430.679 340.015 430.499 340.915 430.184 344.11C429.689 348.7 429.689 351.49 429.689 353.515C429.689 354.235 429.914 355.9 431.264 355.99H431.444C432.299 355.99 432.524 355.495 432.524 354.91C432.524 354.37 432.299 353.74 432.299 353.56C432.254 352.885 432.254 352.12 432.254 351.355C432.254 345.37 433.199 338.125 433.244 337.585C434.864 337.225 437.969 336.595 440.759 336.595C441.119 336.595 441.749 336.73 442.289 336.73C442.874 336.73 443.369 336.595 443.369 335.92Z" fill="#005573"/>
<path d="M457.206 64.975C457.206 64.3 456.756 63.4 456.756 62.77C456.756 62.41 456.801 61.015 456.801 59.215C456.801 55.75 456.711 50.8 456.306 49.315C456.036 48.28 454.641 46.615 453.651 46.615C450.366 47.065 444.831 59.935 444.831 59.935C444.516 52.42 444.111 48.865 443.661 48.19C443.256 47.425 442.221 46.57 441.501 46.57C439.836 46.57 436.821 53.14 436.821 53.14C436.551 51.16 436.326 50.89 435.741 50.26C435.516 50.035 435.201 49.9 434.886 49.9C433.941 49.9 433.491 50.62 433.491 51.385C433.491 52.195 433.671 53.41 433.671 54.985C433.671 55.48 433.626 56.065 433.581 56.695C433.491 57.775 432.861 62.905 432.861 65.785C432.861 66.73 432.906 67.405 433.086 67.675C433.266 67.99 433.761 68.125 434.256 68.125C434.841 68.125 435.696 67.855 435.696 67.27C435.696 66.955 435.561 66.55 435.561 65.695C435.561 65.29 435.606 64.795 435.696 64.165C436.686 58.09 440.196 50.485 441.456 50.485C441.501 50.485 441.546 50.485 441.591 50.53C442.176 50.89 442.356 55.48 442.581 62.095C442.761 66.82 442.356 67.765 444.201 68.215C444.291 68.215 444.336 68.26 444.381 68.26C445.551 68.26 445.326 65.11 447.846 58.99C450.006 53.725 452.976 49.405 453.426 49.405C454.371 49.405 454.551 54.22 454.551 54.445V54.625C454.551 55.93 454.416 58.405 454.416 60.655C454.416 62.77 454.551 64.75 454.911 65.47C455.136 65.875 455.541 66.055 455.901 66.055C456.576 66.055 457.206 65.695 457.206 64.975ZM466.205 50.305C466.205 49.27 465.575 48.595 464.81 48.595C463.235 48.685 463.415 51.25 463.28 53.725C463.055 58.045 462.83 61.285 462.83 63.445C462.83 65.065 462.965 66.055 463.37 66.37C463.73 66.64 464.135 66.775 464.45 66.775C465.35 66.775 465.665 66.055 465.665 65.29C465.665 64.48 465.125 64.39 465.125 62.365V61.51C465.125 59.755 466.205 51.835 466.205 50.305ZM466.295 35.365C466.295 34.645 465.8 34.105 465.17 34.105C464 34.105 464.36 35.14 463.415 37.075C462.875 38.245 462.65 39.28 462.65 40.09C462.65 40.72 462.785 41.62 463.46 41.62C463.775 41.62 464.045 41.44 464.27 41.215C464.72 40.765 464.405 40 465.08 38.335C465.665 36.895 466.25 36.13 466.295 35.545V35.365ZM486.252 68.125C486.252 67.405 485.802 66.55 485.487 65.92C485.397 65.605 485.352 64.795 485.352 62.995V57.82C485.352 51.97 485.127 47.785 483.012 47.335H482.832C480.042 47.335 475.272 57.685 475.272 57.685C475.227 57.325 475.227 57.055 475.227 56.83C475.227 56.245 475.317 55.705 475.317 54.4C475.317 51.79 475.767 50.08 475.767 49.09C475.767 48.73 475.722 48.505 475.587 48.325C475.317 47.965 474.732 47.605 474.147 47.605C473.697 47.605 473.292 47.875 473.157 48.64C473.067 49.27 472.662 52.51 472.572 56.74C472.482 61.6 472.212 64.21 472.212 65.65C472.212 66.37 472.302 66.82 472.482 67.135C472.797 67.54 473.157 67.675 473.472 67.675C473.787 67.675 474.102 67.54 474.327 67.45C474.867 67.045 474.822 65.875 476.172 62.23C478.197 56.74 481.527 50.53 482.337 50.53C482.877 50.53 482.922 54.175 482.922 54.715L482.877 59.08C482.877 63.13 483.327 65.245 483.327 66.19C483.327 66.64 483.192 66.91 483.192 67.225C483.192 68.44 484.317 69.25 485.217 69.25C485.892 69.25 486.252 68.665 486.252 68.125ZM495.023 50.305C495.023 49.27 494.393 48.595 493.628 48.595C492.053 48.685 492.233 51.25 492.098 53.725C491.873 58.045 491.648 61.285 491.648 63.445C491.648 65.065 491.783 66.055 492.188 66.37C492.548 66.64 492.953 66.775 493.268 66.775C494.168 66.775 494.483 66.055 494.483 65.29C494.483 64.48 493.943 64.39 493.943 62.365V61.51C493.943 59.755 495.023 51.835 495.023 50.305ZM495.113 35.365C495.113 34.645 494.618 34.105 493.988 34.105C492.818 34.105 493.178 35.14 492.233 37.075C491.693 38.245 491.468 39.28 491.468 40.09C491.468 40.72 491.603 41.62 492.278 41.62C492.593 41.62 492.863 41.44 493.088 41.215C493.538 40.765 493.223 40 493.898 38.335C494.483 36.895 495.068 36.13 495.113 35.545V35.365ZM525.124 64.975C525.124 64.3 524.674 63.4 524.674 62.77C524.674 62.41 524.719 61.015 524.719 59.215C524.719 55.75 524.629 50.8 524.224 49.315C523.954 48.28 522.559 46.615 521.569 46.615C518.284 47.065 512.749 59.935 512.749 59.935C512.434 52.42 512.029 48.865 511.579 48.19C511.174 47.425 510.139 46.57 509.419 46.57C507.754 46.57 504.739 53.14 504.739 53.14C504.469 51.16 504.244 50.89 503.659 50.26C503.434 50.035 503.119 49.9 502.804 49.9C501.859 49.9 501.409 50.62 501.409 51.385C501.409 52.195 501.589 53.41 501.589 54.985C501.589 55.48 501.544 56.065 501.499 56.695C501.409 57.775 500.779 62.905 500.779 65.785C500.779 66.73 500.824 67.405 501.004 67.675C501.184 67.99 501.679 68.125 502.174 68.125C502.759 68.125 503.614 67.855 503.614 67.27C503.614 66.955 503.479 66.55 503.479 65.695C503.479 65.29 503.524 64.795 503.614 64.165C504.604 58.09 508.114 50.485 509.374 50.485C509.419 50.485 509.464 50.485 509.509 50.53C510.094 50.89 510.274 55.48 510.499 62.095C510.679 66.82 510.274 67.765 512.119 68.215C512.209 68.215 512.254 68.26 512.299 68.26C513.469 68.26 513.244 65.11 515.764 58.99C517.924 53.725 520.894 49.405 521.344 49.405C522.289 49.405 522.469 54.22 522.469 54.445V54.625C522.469 55.93 522.334 58.405 522.334 60.655C522.334 62.77 522.469 64.75 522.829 65.47C523.054 65.875 523.459 66.055 523.819 66.055C524.494 66.055 525.124 65.695 525.124 64.975ZM541.278 51.025C541.278 51.025 541.188 49.225 540.018 49.225C538.623 49.225 538.578 50.215 538.578 50.845C538.533 52.015 537.768 59.305 535.518 63.265C535.203 63.805 534.888 64.03 534.618 64.03C533.088 64.03 531.513 58.315 531.513 51.115C531.513 50.53 531.558 49.945 531.558 49.315C531.558 48.73 531.198 47.605 530.208 47.605H529.983C529.488 47.605 529.083 47.965 529.083 49.045C529.128 50.71 529.263 66.82 534.573 66.82C534.978 66.82 535.473 66.685 535.968 66.46C538.668 65.2 541.278 51.88 541.278 51.025ZM569.19 64.975C569.19 64.3 568.74 63.4 568.74 62.77C568.74 62.41 568.785 61.015 568.785 59.215C568.785 55.75 568.695 50.8 568.29 49.315C568.02 48.28 566.625 46.615 565.635 46.615C562.35 47.065 556.815 59.935 556.815 59.935C556.5 52.42 556.095 48.865 555.645 48.19C555.24 47.425 554.205 46.57 553.485 46.57C551.82 46.57 548.805 53.14 548.805 53.14C548.535 51.16 548.31 50.89 547.725 50.26C547.5 50.035 547.185 49.9 546.87 49.9C545.925 49.9 545.475 50.62 545.475 51.385C545.475 52.195 545.655 53.41 545.655 54.985C545.655 55.48 545.61 56.065 545.565 56.695C545.475 57.775 544.845 62.905 544.845 65.785C544.845 66.73 544.89 67.405 545.07 67.675C545.25 67.99 545.745 68.125 546.24 68.125C546.825 68.125 547.68 67.855 547.68 67.27C547.68 66.955 547.545 66.55 547.545 65.695C547.545 65.29 547.59 64.795 547.68 64.165C548.67 58.09 552.18 50.485 553.44 50.485C553.485 50.485 553.53 50.485 553.575 50.53C554.16 50.89 554.34 55.48 554.565 62.095C554.745 66.82 554.34 67.765 556.185 68.215C556.275 68.215 556.32 68.26 556.365 68.26C557.535 68.26 557.31 65.11 559.83 58.99C561.99 53.725 564.96 49.405 565.41 49.405C566.355 49.405 566.535 54.22 566.535 54.445V54.625C566.535 55.93 566.4 58.405 566.4 60.655C566.4 62.77 566.535 64.75 566.895 65.47C567.12 65.875 567.525 66.055 567.885 66.055C568.56 66.055 569.19 65.695 569.19 64.975ZM601.325 55.93C601.325 56.11 601.325 56.2 601.28 56.425C600.2 61.33 593.225 64.75 593.225 64.75C593.225 64.75 593.9 59.125 594.305 56.47C594.71 53.86 595.43 50.35 595.43 50.35C598.04 50.53 601.325 53.725 601.325 55.93ZM603.755 56.29C603.755 51.025 597.635 47.92 594.485 47.875C593.81 47.875 591.29 48.505 591.29 49.855C591.29 50.89 592.415 51.205 592.415 51.205C591.335 59.35 590.75 62.545 590.345 71.905C590.3 73.345 590.255 74.65 590.255 75.82C590.255 79.915 590.525 82.435 590.525 83.425C590.525 83.695 590.525 83.83 590.48 83.875C590.345 84.1 590.3 84.37 590.3 84.685C590.3 85.585 590.93 86.575 591.875 86.575C592.46 86.575 592.955 86.035 592.955 85.27C592.955 85 592.865 84.73 592.73 84.415C592.64 84.19 592.505 82.165 592.505 78.925V75.955C592.505 69.79 593.135 65.785 593.135 65.785C593.27 66.28 593.99 66.955 594.665 66.955C595.565 66.955 603.755 60.25 603.755 56.29ZM624.849 49.09C624.849 48.55 624.489 48.01 624.219 47.92C623.454 47.65 622.779 47.56 622.149 47.56C619.449 47.56 617.604 49.63 615.939 51.205C613.059 53.86 609.954 58 609.954 58C609.954 54.985 609.954 54.13 609.909 52.555C609.819 49.81 609.684 48.775 609.009 48.145C608.649 47.83 608.334 47.695 608.019 47.695C607.569 47.695 606.669 48.235 606.669 48.73C606.669 49.27 607.659 50.215 607.659 55.84C607.659 56.74 607.614 57.73 607.569 58.9C607.389 62.365 606.849 64.66 606.849 66.01C606.849 66.595 606.939 67 607.209 67.27C607.524 67.585 607.974 67.81 608.424 67.81C608.784 67.81 609.144 67.675 609.414 67.315C609.999 66.55 609.414 63.085 611.079 60.565C614.319 55.66 617.739 51.835 620.574 50.17C621.024 49.9 621.429 49.81 621.744 49.81C622.464 49.81 622.959 50.215 623.544 50.215C624.219 50.215 624.849 49.675 624.849 49.09ZM629.919 50.305C629.919 49.27 629.289 48.595 628.524 48.595C626.949 48.685 627.129 51.25 626.994 53.725C626.769 58.045 626.544 61.285 626.544 63.445C626.544 65.065 626.679 66.055 627.084 66.37C627.444 66.64 627.849 66.775 628.164 66.775C629.064 66.775 629.379 66.055 629.379 65.29C629.379 64.48 628.839 64.39 628.839 62.365V61.51C628.839 59.755 629.919 51.835 629.919 50.305ZM630.009 35.365C630.009 34.645 629.514 34.105 628.884 34.105C627.714 34.105 628.074 35.14 627.129 37.075C626.589 38.245 626.364 39.28 626.364 40.09C626.364 40.72 626.499 41.62 627.174 41.62C627.489 41.62 627.759 41.44 627.984 41.215C628.434 40.765 628.119 40 628.794 38.335C629.379 36.895 629.964 36.13 630.009 35.545V35.365ZM658.651 58.585C658.651 58.09 658.246 57.595 657.706 57.595C657.571 57.595 657.436 57.64 657.301 57.685C656.806 57.865 646.051 64.93 640.381 64.93C638.446 64.93 636.916 63.85 636.916 61.96C636.916 58.045 642.766 52.06 643.801 51.745C643.891 51.7 644.026 51.7 644.161 51.7C644.701 51.7 645.196 51.925 645.646 51.925C646.501 51.925 647.446 50.575 647.446 49.765C647.446 49.135 646.996 48.685 645.916 48.685C645.691 48.685 645.421 48.685 645.151 48.73C641.236 49.315 634.441 57.145 634.441 62.365C634.441 65.515 637.411 67 640.066 67C647.401 67 658.606 59.17 658.651 58.765V58.585ZM669.96 50.575C668.565 51.835 667.8 52.33 666.63 53.005C663.84 54.715 661.32 54.85 661.32 54.85C661.32 54.85 662.715 53.005 665.01 51.835C666.63 50.98 668.295 50.575 669.96 50.575ZM678.825 58.36C678.825 57.595 678.15 56.92 677.475 56.92C676.71 56.92 676.215 58.09 675.945 58.585C675.495 59.215 668.52 64.93 664.965 64.93C662.985 64.93 662.13 63.85 661.32 62.545C660.33 61.015 660.105 59.62 660.105 58.675C660.105 57.865 660.24 57.37 660.24 57.37C661.5 57.28 664.245 57.01 667.035 55.3C669.6 53.77 673.425 50.89 673.425 49.765C673.425 49.63 673.38 49.54 673.245 49.45C672.165 48.73 670.86 48.415 669.375 48.415C664.65 48.415 658.845 51.88 657.675 56.965C657.54 57.505 657.495 58.045 657.495 58.585C657.495 61.915 659.565 65.47 662.49 66.82C663.075 67.09 663.75 67.225 664.47 67.225C669.555 67.225 676.8 60.61 677.79 60.07C678.375 59.665 678.825 58.99 678.825 58.36Z" fill="#005573"/>
<path d="M620.543 645.01C620.543 644.155 619.778 643.525 619.013 643.525C618.113 643.525 617.123 644.11 616.718 644.29C615.728 644.74 602.858 652.165 595.208 652.165C593.768 652.165 592.508 651.895 591.518 651.265C589.763 650.14 589.043 648.52 589.043 646.675C589.043 639.25 600.878 628 606.638 626.785C607.628 626.56 609.023 626.29 609.023 625.21C609.023 624.13 608.393 623.725 607.538 623.725C606.593 623.725 605.513 624.175 605.153 624.31C597.638 627.325 586.523 638.125 586.523 646.54C586.523 649.015 587.513 651.31 589.808 653.11C591.068 654.1 592.778 654.505 594.713 654.505C603.083 654.505 615.953 646.9 617.933 646.63C617.933 646.63 620.543 646.36 620.543 645.01ZM629.616 651.175C629.616 651.175 626.601 653.695 624.396 653.695C623.271 653.695 622.866 653.065 622.866 652.075C622.866 649.825 624.756 647.395 627.006 647.395C628.491 647.395 629.616 651.175 629.616 651.175ZM634.116 645.235C634.116 641.725 633.216 638.125 630.111 636.19C629.391 635.74 628.536 635.56 627.591 635.56C624.981 635.56 622.056 637.09 622.056 638.62C622.101 639.43 622.866 639.745 623.361 639.745C623.586 639.745 623.721 639.7 623.721 639.52C623.811 638.89 625.566 637.675 627.366 637.675C630.921 637.675 631.866 642.715 631.866 645.325C631.866 647.755 631.146 649.42 631.146 649.42C630.471 647.35 629.346 645.145 626.871 645.145C623.406 645.145 620.751 649.24 620.751 652.255C620.751 654.415 622.056 655.81 624.306 655.81C627.096 655.81 630.291 653.56 630.291 653.56C630.291 653.56 630.426 654.325 630.696 654.595C630.921 654.865 631.326 654.955 631.641 654.955C631.866 654.955 632.091 654.91 632.181 654.775C632.406 654.64 634.116 650.005 634.116 645.235ZM648.408 643.93C648.408 644.11 648.408 644.2 648.363 644.425C647.283 649.33 640.308 652.75 640.308 652.75C640.308 652.75 640.983 647.125 641.388 644.47C641.793 641.86 642.513 638.35 642.513 638.35C645.123 638.53 648.408 641.725 648.408 643.93ZM650.838 644.29C650.838 639.025 644.718 635.92 641.568 635.875C640.893 635.875 638.373 636.505 638.373 637.855C638.373 638.89 639.498 639.205 639.498 639.205C638.418 647.35 637.833 650.545 637.428 659.905C637.383 661.345 637.338 662.65 637.338 663.82C637.338 667.915 637.608 670.435 637.608 671.425C637.608 671.695 637.608 671.83 637.563 671.875C637.428 672.1 637.383 672.37 637.383 672.685C637.383 673.585 638.013 674.575 638.958 674.575C639.543 674.575 640.038 674.035 640.038 673.27C640.038 673 639.948 672.73 639.813 672.415C639.723 672.19 639.588 670.165 639.588 666.925V663.955C639.588 657.79 640.218 653.785 640.218 653.785C640.353 654.28 641.073 654.955 641.748 654.955C642.648 654.955 650.838 648.25 650.838 644.29ZM661.554 651.175C661.554 651.175 658.539 653.695 656.334 653.695C655.209 653.695 654.804 653.065 654.804 652.075C654.804 649.825 656.694 647.395 658.944 647.395C660.429 647.395 661.554 651.175 661.554 651.175ZM666.054 645.235C666.054 641.725 665.154 638.125 662.049 636.19C661.329 635.74 660.474 635.56 659.529 635.56C656.919 635.56 653.994 637.09 653.994 638.62C654.039 639.43 654.804 639.745 655.299 639.745C655.524 639.745 655.659 639.7 655.659 639.52C655.749 638.89 657.504 637.675 659.304 637.675C662.859 637.675 663.804 642.715 663.804 645.325C663.804 647.755 663.084 649.42 663.084 649.42C662.409 647.35 661.284 645.145 658.809 645.145C655.344 645.145 652.689 649.24 652.689 652.255C652.689 654.415 653.994 655.81 656.244 655.81C659.034 655.81 662.229 653.56 662.229 653.56C662.229 653.56 662.364 654.325 662.634 654.595C662.859 654.865 663.264 654.955 663.579 654.955C663.804 654.955 664.029 654.91 664.119 654.775C664.344 654.64 666.054 650.005 666.054 645.235ZM692.93 646.585C692.93 646.09 692.525 645.595 691.985 645.595C691.85 645.595 691.715 645.64 691.58 645.685C691.085 645.865 680.33 652.93 674.66 652.93C672.725 652.93 671.195 651.85 671.195 649.96C671.195 646.045 677.045 640.06 678.08 639.745C678.17 639.7 678.305 639.7 678.44 639.7C678.98 639.7 679.475 639.925 679.925 639.925C680.78 639.925 681.725 638.575 681.725 637.765C681.725 637.135 681.275 636.685 680.195 636.685C679.97 636.685 679.7 636.685 679.43 636.73C675.515 637.315 668.72 645.145 668.72 650.365C668.72 653.515 671.69 655 674.345 655C681.68 655 692.885 647.17 692.93 646.765V646.585ZM695.828 638.305C695.828 637.27 695.198 636.595 694.433 636.595C692.858 636.685 693.038 639.25 692.903 641.725C692.678 646.045 692.453 649.285 692.453 651.445C692.453 653.065 692.588 654.055 692.993 654.37C693.353 654.64 693.758 654.775 694.073 654.775C694.973 654.775 695.288 654.055 695.288 653.29C695.288 652.48 694.748 652.39 694.748 650.365V649.51C694.748 647.755 695.828 639.835 695.828 638.305ZM695.918 623.365C695.918 622.645 695.423 622.105 694.793 622.105C693.623 622.105 693.983 623.14 693.038 625.075C692.498 626.245 692.273 627.28 692.273 628.09C692.273 628.72 692.408 629.62 693.083 629.62C693.398 629.62 693.668 629.44 693.893 629.215C694.343 628.765 694.028 628 694.703 626.335C695.288 624.895 695.873 624.13 695.918 623.545V623.365ZM732.165 641.545C732.165 639.835 731.805 638.035 731.085 637.765C730.905 637.675 730.725 637.675 730.59 637.675C729.645 637.675 729.465 639.07 728.88 639.79C725.235 644.065 721.545 648.475 720.42 648.475C720.33 648.475 720.285 648.475 720.24 648.43C720.105 648.34 720.06 648.025 720.06 647.575C720.06 645.01 721.86 637.675 721.86 636.595C721.815 634.975 718.755 634.705 717.9 634.66C717.495 634.66 717.09 634.615 716.685 634.615C713.49 634.615 710.565 635.2 710.565 635.2C710.97 632.275 711.24 631.555 711.51 628.855C711.6 627.91 711.645 627.1 711.645 626.425C711.645 624.04 711.105 623.185 710.25 623.185C709.395 623.185 709.215 623.995 709.215 624.94C709.215 625.57 709.305 626.2 709.305 626.695V626.965C708.855 631.915 708.225 635.605 708.225 635.605C705.525 636.325 704.94 636.55 702.375 637.54C699.9 638.485 699.81 638.845 699.585 639.52C699.54 639.61 699.54 639.7 699.54 639.79C699.54 640.42 700.17 640.915 700.935 641.095C701.745 641.095 703.275 639.7 704.04 639.34C705.66 638.575 707.865 638.08 707.865 638.08C707.64 640.015 707.46 640.915 707.145 644.11C706.65 648.7 706.65 651.49 706.65 653.515C706.65 654.235 706.875 655.9 708.225 655.99H708.405C709.26 655.99 709.485 655.495 709.485 654.91C709.485 654.37 709.26 653.74 709.26 653.56C709.215 652.885 709.215 652.12 709.215 651.355C709.215 645.37 710.16 638.125 710.205 637.585C711.825 637.225 714.93 636.595 717.72 636.595C718.575 636.595 719.16 636.73 719.16 636.73C719.025 637.45 718.935 638.35 718.8 639.43C718.26 643.12 717.585 646.945 717.585 649.465C717.585 651.22 717.9 652.39 718.89 652.39C721.59 652.435 729.42 642.535 729.42 642.535C729.285 649.285 728.97 652.57 728.34 658.735C727.44 667.78 726.9 672.955 726.585 673.045C726.405 673.09 726.045 673.81 726.045 674.485C726.045 675.205 726.45 675.925 727.845 675.925C729.015 675.925 729.465 675.385 729.465 674.71C729.465 673.99 729.015 673.135 728.835 672.91C728.79 672.865 728.79 672.775 728.79 672.595C728.79 671.65 729.33 668.77 729.96 663.28C730.815 655.81 731.76 645.505 732.075 642.985C732.12 642.535 732.165 642.04 732.165 641.545ZM785.822 645.01C785.822 644.155 785.057 643.525 784.292 643.525C783.392 643.525 782.402 644.11 781.997 644.29C781.007 644.74 768.137 652.165 760.487 652.165C759.047 652.165 757.787 651.895 756.797 651.265C755.042 650.14 754.322 648.52 754.322 646.675C754.322 639.25 766.157 628 771.917 626.785C772.907 626.56 774.302 626.29 774.302 625.21C774.302 624.13 773.672 623.725 772.817 623.725C771.872 623.725 770.792 624.175 770.432 624.31C762.917 627.325 751.802 638.125 751.802 646.54C751.802 649.015 752.792 651.31 755.087 653.11C756.347 654.1 758.057 654.505 759.992 654.505C768.362 654.505 781.232 646.9 783.212 646.63C783.212 646.63 785.822 646.36 785.822 645.01ZM792.99 639.25C795.465 639.25 796.545 642.13 796.545 644.11C796.545 645.685 796.005 647.26 795.24 648.745C794.385 650.365 791.55 652.84 789.48 652.84C787.41 652.84 786.555 649.915 786.555 648.295C786.555 647.665 786.645 647.035 786.825 646.54C789.12 639.745 792.63 639.25 792.99 639.25ZM798.795 644.65C798.795 644.155 798.75 643.705 798.705 643.165C798.21 638.26 794.43 636.685 792.63 636.685C790.02 636.685 787.41 639.07 784.89 644.785C784.35 646 784.125 647.17 784.125 648.34C784.125 651.31 785.79 655.18 788.985 655.18C792.765 655.18 798.795 651.085 798.795 644.65ZM814.829 633.76V633.58C814.784 633.04 813.209 632.23 812.624 631.96C812.354 631.825 811.994 631.735 811.589 631.735C811.004 631.735 810.284 631.915 809.744 632.365C806.774 634.84 801.104 639.07 801.104 644.02C801.104 650.77 811.454 650.32 812.084 652.525C812.084 654.145 805.559 656.35 805.289 656.8C805.109 657.025 805.019 657.25 805.019 657.475C805.019 658.105 805.694 658.645 806.639 658.69C807.314 658.69 814.694 654.82 814.694 652.975C814.694 650.185 812.129 649.735 809.384 648.655C806.414 647.53 803.444 646.63 803.444 644.02C803.444 642.625 804.569 640.015 806.594 638.215C810.149 635.02 810.644 634.075 812.174 634.03C812.534 634.03 813.029 634.57 813.884 634.57C814.559 634.57 814.829 634.21 814.829 633.76ZM836.56 635.92C836.47 634.66 834.85 634.705 833.905 634.66C833.5 634.66 833.095 634.615 832.69 634.615C829.495 634.615 826.795 635.2 826.795 635.2C827.2 632.275 827.47 631.555 827.74 628.855C827.83 627.91 827.875 627.1 827.875 626.425C827.875 624.04 827.335 623.185 826.48 623.185C825.625 623.185 825.445 623.995 825.445 624.94C825.445 625.57 825.535 626.2 825.535 626.965C825.535 628.495 824.455 635.605 824.455 635.605C821.755 636.325 821.17 636.55 818.605 637.54C816.13 638.485 816.04 638.8 815.815 639.475C815.77 639.61 815.77 639.7 815.77 639.79C815.77 640.42 816.67 641.095 817.165 641.095C817.975 641.095 819.505 639.7 820.27 639.34C821.89 638.575 824.095 638.08 824.095 638.08C823.87 640.015 823.69 640.915 823.375 644.11C822.88 648.7 822.88 651.49 822.88 653.515C822.88 654.235 823.105 655.9 824.455 655.99H824.635C825.49 655.99 825.715 655.495 825.715 654.91C825.715 654.37 825.49 653.74 825.49 653.56C825.445 652.885 825.445 652.12 825.445 651.355C825.445 645.37 826.39 638.125 826.435 637.585C828.055 637.225 831.16 636.595 833.95 636.595C834.31 636.595 834.94 636.73 835.48 636.73C836.065 636.73 836.56 636.595 836.56 635.92Z" fill="#005573"/>
<path d="M961.46 625.66C961.415 630.025 942.2 637.495 942.2 637.495L942.515 631.78C942.605 629.98 942.875 626.2 942.875 626.2C944.36 626.11 945.89 625.975 947.105 625.705C948.05 625.48 953.72 624.715 957.68 624.715C959.84 624.715 961.46 624.94 961.46 625.66ZM964.7 625.165C964.7 624.67 964.52 624.175 964.205 623.725C963.53 622.825 961.1 622.51 958.13 622.51C952.505 622.51 944.945 623.59 943.64 623.59C942.47 623.455 942.56 622.78 941.435 622.78C940.535 622.78 939.725 623.86 939.725 624.76C939.725 624.895 939.77 625.075 939.815 625.21C939.995 625.705 940.085 626.83 940.085 628.135C940.085 629.44 939.995 630.97 939.95 632.14C939.815 634.525 939.365 639.925 939.365 639.925C939.095 640.285 939.095 640.6 939.095 640.825C939.095 641.095 939.365 641.68 939.365 641.68C939.05 647.125 939.14 649.825 938.915 652.39C938.87 652.84 938.825 653.29 938.825 653.695C938.825 654.595 939.275 655.27 940.13 655.27C940.85 655.27 941.705 654.775 941.705 653.245C941.705 652.93 941.66 652.525 941.57 652.075C941.48 651.67 941.435 650.905 941.435 649.915C941.435 646.405 941.885 640.375 941.885 640.375C947.33 638.08 964.7 630.385 964.7 625.165ZM976.777 637.09C976.777 636.55 976.417 636.01 976.147 635.92C975.382 635.65 974.707 635.56 974.077 635.56C971.377 635.56 969.532 637.63 967.867 639.205C964.987 641.86 961.882 646 961.882 646C961.882 642.985 961.882 642.13 961.837 640.555C961.747 637.81 961.612 636.775 960.937 636.145C960.577 635.83 960.262 635.695 959.947 635.695C959.497 635.695 958.597 636.235 958.597 636.73C958.597 637.27 959.587 638.215 959.587 643.84C959.587 644.74 959.542 645.73 959.497 646.9C959.317 650.365 958.777 652.66 958.777 654.01C958.777 654.595 958.867 655 959.137 655.27C959.452 655.585 959.902 655.81 960.352 655.81C960.712 655.81 961.072 655.675 961.342 655.315C961.927 654.55 961.342 651.085 963.007 648.565C966.247 643.66 969.667 639.835 972.502 638.17C972.952 637.9 973.357 637.81 973.672 637.81C974.392 637.81 974.887 638.215 975.472 638.215C976.147 638.215 976.777 637.675 976.777 637.09ZM983.097 639.25C985.572 639.25 986.652 642.13 986.652 644.11C986.652 645.685 986.112 647.26 985.347 648.745C984.492 650.365 981.657 652.84 979.587 652.84C977.517 652.84 976.662 649.915 976.662 648.295C976.662 647.665 976.752 647.035 976.932 646.54C979.227 639.745 982.737 639.25 983.097 639.25ZM988.902 644.65C988.902 644.155 988.857 643.705 988.812 643.165C988.317 638.26 984.537 636.685 982.737 636.685C980.127 636.685 977.517 639.07 974.997 644.785C974.457 646 974.232 647.17 974.232 648.34C974.232 651.31 975.897 655.18 979.092 655.18C982.872 655.18 988.902 651.085 988.902 644.65ZM1005.99 648.43C1002.39 650.5 998.158 653.29 995.323 653.29C993.748 653.29 992.623 652.3 992.623 650.815C992.623 647.26 997.708 641.275 1001.35 641.275C1001.76 641.275 1002.16 641.32 1002.52 641.5C1005.31 642.715 1005.99 648.43 1005.99 648.43ZM1012.11 625.57C1012.11 624.4 1011.16 623.32 1009.81 623.32C1009.27 623.32 1009.05 623.77 1009.05 624.49C1009.05 625.03 1009.09 625.57 1009.32 626.29C1009.36 626.425 1009.36 626.515 1009.36 626.65C1009.36 629.035 1007.52 644.065 1007.52 644.065C1006.35 641.95 1005.58 639.835 1001.98 639.07C1001.8 639.025 1001.53 639.025 1001.31 639.025C997.168 639.025 990.283 645.235 990.283 650.635C990.283 653.47 992.038 655.63 995.008 655.63C999.733 655.63 1006.3 651.13 1006.3 651.13C1006.66 652.435 1006.17 653.875 1008.33 654.19C1009.09 654.19 1009.27 653.245 1009.27 652.21C1009.27 650.95 1009 649.555 1009 649.555C1010.53 648.925 1011.75 648.97 1011.75 647.755C1011.75 647.575 1011.75 647.395 1011.66 647.125C1011.43 646.18 1009.77 646.045 1009.77 646.045C1010.08 639.52 1011.61 627.28 1011.93 626.425C1012.06 626.155 1012.11 625.84 1012.11 625.57ZM1027.66 639.025C1027.66 639.025 1027.57 637.225 1026.4 637.225C1025.01 637.225 1024.96 638.215 1024.96 638.845C1024.92 640.015 1024.15 647.305 1021.9 651.265C1021.59 651.805 1021.27 652.03 1021 652.03C1019.47 652.03 1017.9 646.315 1017.9 639.115C1017.9 638.53 1017.94 637.945 1017.94 637.315C1017.94 636.73 1017.58 635.605 1016.59 635.605H1016.37C1015.87 635.605 1015.47 635.965 1015.47 637.045C1015.51 638.71 1015.65 654.82 1020.96 654.82C1021.36 654.82 1021.86 654.685 1022.35 654.46C1025.05 653.2 1027.66 639.88 1027.66 639.025ZM1053.11 646.585C1053.11 646.09 1052.7 645.595 1052.16 645.595C1052.03 645.595 1051.89 645.64 1051.76 645.685C1051.26 645.865 1040.51 652.93 1034.84 652.93C1032.9 652.93 1031.37 651.85 1031.37 649.96C1031.37 646.045 1037.22 640.06 1038.26 639.745C1038.35 639.7 1038.48 639.7 1038.62 639.7C1039.16 639.7 1039.65 639.925 1040.1 639.925C1040.96 639.925 1041.9 638.575 1041.9 637.765C1041.9 637.135 1041.45 636.685 1040.37 636.685C1040.15 636.685 1039.88 636.685 1039.61 636.73C1035.69 637.315 1028.9 645.145 1028.9 650.365C1028.9 653.515 1031.87 655 1034.52 655C1041.86 655 1053.06 647.17 1053.11 646.765V646.585ZM1074 623.365C1074 622.645 1073.51 622.105 1072.88 622.105C1071.71 622.105 1072.07 623.14 1071.12 625.075C1070.58 626.245 1070.36 627.28 1070.36 628.09C1070.36 628.72 1070.49 629.62 1071.17 629.62C1071.48 629.62 1071.75 629.395 1071.98 629.17C1072.43 628.72 1072.11 628 1072.79 626.335C1073.37 624.895 1073.96 624.13 1074 623.545V623.365ZM1071.08 636.73C1070.09 637.315 1070.22 639.565 1070.09 641.725C1069.86 646.045 1069.64 649.285 1069.64 651.445C1069.64 653.065 1069.77 654.055 1070.18 654.37C1070.54 654.64 1070.94 654.775 1071.26 654.775C1072.16 654.775 1072.47 654.055 1072.47 653.29C1072.47 652.48 1071.93 652.39 1071.93 650.365V649.51C1071.93 647.755 1073.01 639.835 1073.01 638.305C1073.01 637.36 1072.47 636.685 1071.8 636.595C1072.02 636.505 1072.16 636.28 1072.16 635.92C1072.07 634.795 1070.63 634.795 1069.5 634.705C1069.1 634.66 1067.88 634.615 1067.48 634.615C1064.28 634.615 1061.58 635.2 1061.58 635.2C1061.99 632.275 1062.26 631.555 1062.53 628.855C1062.62 627.91 1062.66 627.1 1062.66 626.425C1062.66 624.04 1062.12 623.185 1061.27 623.185C1060.41 623.185 1060.23 623.995 1060.23 624.94C1060.23 625.57 1060.32 626.2 1060.32 626.695V626.965C1059.87 631.915 1059.24 635.605 1059.24 635.605C1056.54 636.325 1055.96 636.55 1053.39 637.54C1050.92 638.485 1050.83 638.845 1050.6 639.52C1050.56 639.61 1050.56 639.7 1050.56 639.79C1050.56 640.42 1051.19 640.915 1051.95 641.095C1052.76 641.095 1054.29 639.7 1055.06 639.34C1056.68 638.575 1058.88 638.08 1058.88 638.08C1058.66 640.015 1058.48 640.915 1058.16 644.11C1057.67 648.7 1057.67 651.49 1057.67 653.515C1057.67 654.235 1057.89 655.9 1059.24 655.99H1059.42C1060.28 655.99 1060.5 655.495 1060.5 654.91C1060.5 654.37 1060.28 653.74 1060.28 653.56C1060.23 652.885 1060.23 652.12 1060.23 651.355C1060.23 645.37 1061.18 638.125 1061.22 637.585C1062.84 637.225 1065.95 636.595 1069.55 636.595C1069.91 636.595 1070.54 636.73 1071.08 636.73ZM1085.44 639.25C1087.92 639.25 1089 642.13 1089 644.11C1089 645.685 1088.46 647.26 1087.69 648.745C1086.84 650.365 1084 652.84 1081.93 652.84C1079.86 652.84 1079.01 649.915 1079.01 648.295C1079.01 647.665 1079.1 647.035 1079.28 646.54C1081.57 639.745 1085.08 639.25 1085.44 639.25ZM1091.25 644.65C1091.25 644.155 1091.2 643.705 1091.16 643.165C1090.66 638.26 1086.88 636.685 1085.08 636.685C1082.47 636.685 1079.86 639.07 1077.34 644.785C1076.8 646 1076.58 647.17 1076.58 648.34C1076.58 651.31 1078.24 655.18 1081.44 655.18C1085.22 655.18 1091.25 651.085 1091.25 644.65ZM1108.68 656.125C1108.68 655.405 1108.23 654.55 1107.91 653.92C1107.82 653.605 1107.78 652.795 1107.78 650.995V645.82C1107.78 639.97 1107.55 635.785 1105.44 635.335H1105.26C1102.47 635.335 1097.7 645.685 1097.7 645.685C1097.65 645.325 1097.65 645.055 1097.65 644.83C1097.65 644.245 1097.74 643.705 1097.74 642.4C1097.74 639.79 1098.19 638.08 1098.19 637.09C1098.19 636.73 1098.15 636.505 1098.01 636.325C1097.74 635.965 1097.16 635.605 1096.57 635.605C1096.12 635.605 1095.72 635.875 1095.58 636.64C1095.49 637.27 1095.09 640.51 1095 644.74C1094.91 649.6 1094.64 652.21 1094.64 653.65C1094.64 654.37 1094.73 654.82 1094.91 655.135C1095.22 655.54 1095.58 655.675 1095.9 655.675C1096.21 655.675 1096.53 655.54 1096.75 655.45C1097.29 655.045 1097.25 653.875 1098.6 650.23C1100.62 644.74 1103.95 638.53 1104.76 638.53C1105.3 638.53 1105.35 642.175 1105.35 642.715L1105.3 647.08C1105.3 651.13 1105.75 653.245 1105.75 654.19C1105.75 654.64 1105.62 654.91 1105.62 655.225C1105.62 656.44 1106.74 657.25 1107.64 657.25C1108.32 657.25 1108.68 656.665 1108.68 656.125ZM1149.9 627.325C1149.9 630.34 1141.8 634.12 1137.57 635.875C1135.77 636.64 1133.92 637 1133.92 637C1133.92 637 1134.33 633.94 1134.69 632.23C1134.96 630.88 1135.09 629.575 1135.14 628.72C1135.27 629.125 1135.59 629.305 1135.86 629.305C1136.04 629.305 1136.17 629.215 1136.31 629.125C1137.52 628.045 1143.82 626.245 1147.42 626.245C1148.86 626.245 1149.9 626.56 1149.9 627.325ZM1160.83 653.785C1160.83 652.525 1159.44 651.94 1158.72 651.85C1157.41 651.67 1149.99 649.15 1140.36 642.85C1138.15 641.41 1135.77 639.115 1135.77 639.115C1145.98 635.11 1152.55 630.88 1152.55 627.235V627.01C1152.33 624.445 1150.35 623.59 1147.78 623.59C1142.61 623.59 1135.09 627.1 1135.09 627.1C1134.87 626.335 1134.46 625.705 1133.61 625.705C1132.26 625.705 1131.63 626.74 1131.63 627.82C1131.63 628.405 1131.72 628.99 1131.81 629.53V630.16C1131.81 632.275 1131.31 637.54 1131.31 637.54L1130.86 637.675L1131.27 638.485C1131 644.2 1130.19 651.4 1130.19 654.415C1130.19 655.135 1130.23 655.63 1130.37 655.765C1130.68 656.125 1131.13 656.305 1131.63 656.305C1132.62 656.305 1133.38 655.54 1133.38 654.64C1133.38 653.74 1132.8 652.75 1132.8 651.805C1132.93 647.08 1133.52 640.42 1133.52 640.42C1135.77 642.265 1136.76 643.345 1140.36 645.685C1149.81 651.85 1157.14 653.92 1157.5 654.37C1157.82 654.775 1158.72 655.09 1159.44 655.09C1160.34 655.09 1160.83 654.64 1160.83 653.785ZM1167.61 651.175C1167.61 651.175 1164.6 653.695 1162.39 653.695C1161.27 653.695 1160.86 653.065 1160.86 652.075C1160.86 649.825 1162.75 647.395 1165 647.395C1166.49 647.395 1167.61 651.175 1167.61 651.175ZM1172.11 645.235C1172.11 641.725 1171.21 638.125 1168.11 636.19C1167.39 635.74 1166.53 635.56 1165.59 635.56C1162.98 635.56 1160.05 637.09 1160.05 638.62C1160.1 639.43 1160.86 639.745 1161.36 639.745C1161.58 639.745 1161.72 639.7 1161.72 639.52C1161.81 638.89 1163.56 637.675 1165.36 637.675C1168.92 637.675 1169.86 642.715 1169.86 645.325C1169.86 647.755 1169.14 649.42 1169.14 649.42C1168.47 647.35 1167.34 645.145 1164.87 645.145C1161.4 645.145 1158.75 649.24 1158.75 652.255C1158.75 654.415 1160.05 655.81 1162.3 655.81C1165.09 655.81 1168.29 653.56 1168.29 653.56C1168.29 653.56 1168.42 654.325 1168.69 654.595C1168.92 654.865 1169.32 654.955 1169.64 654.955C1169.86 654.955 1170.09 654.91 1170.18 654.775C1170.4 654.64 1172.11 650.005 1172.11 645.235ZM1194.76 635.92C1194.67 634.66 1193.05 634.705 1192.1 634.66C1191.7 634.66 1191.29 634.615 1190.89 634.615C1187.69 634.615 1184.99 635.2 1184.99 635.2C1185.4 632.275 1185.67 631.555 1185.94 628.855C1186.03 627.91 1186.07 627.1 1186.07 626.425C1186.07 624.04 1185.53 623.185 1184.68 623.185C1183.82 623.185 1183.64 623.995 1183.64 624.94C1183.64 625.57 1183.73 626.2 1183.73 626.965C1183.73 628.495 1182.65 635.605 1182.65 635.605C1179.95 636.325 1179.37 636.55 1176.8 637.54C1174.33 638.485 1174.24 638.8 1174.01 639.475C1173.97 639.61 1173.97 639.7 1173.97 639.79C1173.97 640.42 1174.87 641.095 1175.36 641.095C1176.17 641.095 1177.7 639.7 1178.47 639.34C1180.09 638.575 1182.29 638.08 1182.29 638.08C1182.07 640.015 1181.89 640.915 1181.57 644.11C1181.08 648.7 1181.08 651.49 1181.08 653.515C1181.08 654.235 1181.3 655.9 1182.65 655.99H1182.83C1183.69 655.99 1183.91 655.495 1183.91 654.91C1183.91 654.37 1183.69 653.74 1183.69 653.56C1183.64 652.885 1183.64 652.12 1183.64 651.355C1183.64 645.37 1184.59 638.125 1184.63 637.585C1186.25 637.225 1189.36 636.595 1192.15 636.595C1192.51 636.595 1193.14 636.73 1193.68 636.73C1194.26 636.73 1194.76 636.595 1194.76 635.92ZM1203.31 638.575C1201.92 639.835 1201.15 640.33 1199.98 641.005C1197.19 642.715 1194.67 642.85 1194.67 642.85C1194.67 642.85 1196.07 641.005 1198.36 639.835C1199.98 638.98 1201.65 638.575 1203.31 638.575ZM1212.18 646.36C1212.18 645.595 1211.5 644.92 1210.83 644.92C1210.06 644.92 1209.57 646.09 1209.3 646.585C1208.85 647.215 1201.87 652.93 1198.32 652.93C1196.34 652.93 1195.48 651.85 1194.67 650.545C1193.68 649.015 1193.46 647.62 1193.46 646.675C1193.46 645.865 1193.59 645.37 1193.59 645.37C1194.85 645.28 1197.6 645.01 1200.39 643.3C1202.95 641.77 1206.78 638.89 1206.78 637.765C1206.78 637.63 1206.73 637.54 1206.6 637.45C1205.52 636.73 1204.21 636.415 1202.73 636.415C1198 636.415 1192.2 639.88 1191.03 644.965C1190.89 645.505 1190.85 646.045 1190.85 646.585C1190.85 649.915 1192.92 653.47 1195.84 654.82C1196.43 655.09 1197.1 655.225 1197.82 655.225C1202.91 655.225 1210.15 648.61 1211.14 648.07C1211.73 647.665 1212.18 646.99 1212.18 646.36Z" fill="#005573"/>
<path d="M649.677 343.585C649.677 343.09 649.272 342.595 648.732 342.595C648.597 342.595 648.462 342.64 648.327 342.685C647.832 342.865 637.077 349.93 631.407 349.93C629.472 349.93 627.942 348.85 627.942 346.96C627.942 343.045 633.792 337.06 634.827 336.745C634.917 336.7 635.052 336.7 635.187 336.7C635.727 336.7 636.222 336.925 636.672 336.925C637.527 336.925 638.472 335.575 638.472 334.765C638.472 334.135 638.022 333.685 636.942 333.685C636.717 333.685 636.447 333.685 636.177 333.73C632.262 334.315 625.467 342.145 625.467 347.365C625.467 350.515 628.437 352 631.092 352C638.427 352 649.632 344.17 649.677 343.765V343.585ZM658.192 348.175C658.192 348.175 655.177 350.695 652.972 350.695C651.847 350.695 651.442 350.065 651.442 349.075C651.442 346.825 653.332 344.395 655.582 344.395C657.067 344.395 658.192 348.175 658.192 348.175ZM662.692 342.235C662.692 338.725 661.792 335.125 658.687 333.19C657.967 332.74 657.112 332.56 656.167 332.56C653.557 332.56 650.632 334.09 650.632 335.62C650.677 336.43 651.442 336.745 651.937 336.745C652.162 336.745 652.297 336.7 652.297 336.52C652.387 335.89 654.142 334.675 655.942 334.675C659.497 334.675 660.442 339.715 660.442 342.325C660.442 344.755 659.722 346.42 659.722 346.42C659.047 344.35 657.922 342.145 655.447 342.145C651.982 342.145 649.327 346.24 649.327 349.255C649.327 351.415 650.632 352.81 652.882 352.81C655.672 352.81 658.867 350.56 658.867 350.56C658.867 350.56 659.002 351.325 659.272 351.595C659.497 351.865 659.902 351.955 660.217 351.955C660.442 351.955 660.667 351.91 660.757 351.775C660.982 351.64 662.692 347.005 662.692 342.235ZM676.984 340.93C676.984 341.11 676.984 341.2 676.939 341.425C675.859 346.33 668.884 349.75 668.884 349.75C668.884 349.75 669.559 344.125 669.964 341.47C670.369 338.86 671.089 335.35 671.089 335.35C673.699 335.53 676.984 338.725 676.984 340.93ZM679.414 341.29C679.414 336.025 673.294 332.92 670.144 332.875C669.469 332.875 666.949 333.505 666.949 334.855C666.949 335.89 668.074 336.205 668.074 336.205C666.994 344.35 666.409 347.545 666.004 356.905C665.959 358.345 665.914 359.65 665.914 360.82C665.914 364.915 666.184 367.435 666.184 368.425C666.184 368.695 666.184 368.83 666.139 368.875C666.004 369.1 665.959 369.37 665.959 369.685C665.959 370.585 666.589 371.575 667.534 371.575C668.119 371.575 668.614 371.035 668.614 370.27C668.614 370 668.524 369.73 668.389 369.415C668.299 369.19 668.164 367.165 668.164 363.925V360.955C668.164 354.79 668.794 350.785 668.794 350.785C668.929 351.28 669.649 351.955 670.324 351.955C671.224 351.955 679.414 345.25 679.414 341.29ZM690.13 348.175C690.13 348.175 687.115 350.695 684.91 350.695C683.785 350.695 683.38 350.065 683.38 349.075C683.38 346.825 685.27 344.395 687.52 344.395C689.005 344.395 690.13 348.175 690.13 348.175ZM694.63 342.235C694.63 338.725 693.73 335.125 690.625 333.19C689.905 332.74 689.05 332.56 688.105 332.56C685.495 332.56 682.57 334.09 682.57 335.62C682.615 336.43 683.38 336.745 683.875 336.745C684.1 336.745 684.235 336.7 684.235 336.52C684.325 335.89 686.08 334.675 687.88 334.675C691.435 334.675 692.38 339.715 692.38 342.325C692.38 344.755 691.66 346.42 691.66 346.42C690.985 344.35 689.86 342.145 687.385 342.145C683.92 342.145 681.265 346.24 681.265 349.255C681.265 351.415 682.57 352.81 684.82 352.81C687.61 352.81 690.805 350.56 690.805 350.56C690.805 350.56 690.94 351.325 691.21 351.595C691.435 351.865 691.84 351.955 692.155 351.955C692.38 351.955 692.605 351.91 692.695 351.775C692.92 351.64 694.63 347.005 694.63 342.235ZM721.506 343.585C721.506 343.09 721.101 342.595 720.561 342.595C720.426 342.595 720.291 342.64 720.156 342.685C719.661 342.865 708.906 349.93 703.236 349.93C701.301 349.93 699.771 348.85 699.771 346.96C699.771 343.045 705.621 337.06 706.656 336.745C706.746 336.7 706.881 336.7 707.016 336.7C707.556 336.7 708.051 336.925 708.501 336.925C709.356 336.925 710.301 335.575 710.301 334.765C710.301 334.135 709.851 333.685 708.771 333.685C708.546 333.685 708.276 333.685 708.006 333.73C704.091 334.315 697.296 342.145 697.296 347.365C697.296 350.515 700.266 352 702.921 352C710.256 352 721.461 344.17 721.506 343.765V343.585ZM724.404 335.305C724.404 334.27 723.774 333.595 723.009 333.595C721.434 333.685 721.614 336.25 721.479 338.725C721.254 343.045 721.029 346.285 721.029 348.445C721.029 350.065 721.164 351.055 721.569 351.37C721.929 351.64 722.334 351.775 722.649 351.775C723.549 351.775 723.864 351.055 723.864 350.29C723.864 349.48 723.324 349.39 723.324 347.365V346.51C723.324 344.755 724.404 336.835 724.404 335.305ZM724.494 320.365C724.494 319.645 723.999 319.105 723.369 319.105C722.199 319.105 722.559 320.14 721.614 322.075C721.074 323.245 720.849 324.28 720.849 325.09C720.849 325.72 720.984 326.62 721.659 326.62C721.974 326.62 722.244 326.44 722.469 326.215C722.919 325.765 722.604 325 723.279 323.335C723.864 321.895 724.449 321.13 724.494 320.545V320.365ZM760.741 338.545C760.741 336.835 760.381 335.035 759.661 334.765C759.481 334.675 759.301 334.675 759.166 334.675C758.221 334.675 758.041 336.07 757.456 336.79C753.811 341.065 750.121 345.475 748.996 345.475C748.906 345.475 748.861 345.475 748.816 345.43C748.681 345.34 748.636 345.025 748.636 344.575C748.636 342.01 750.436 334.675 750.436 333.595C750.391 331.975 747.331 331.705 746.476 331.66C746.071 331.66 745.666 331.615 745.261 331.615C742.066 331.615 739.141 332.2 739.141 332.2C739.546 329.275 739.816 328.555 740.086 325.855C740.176 324.91 740.221 324.1 740.221 323.425C740.221 321.04 739.681 320.185 738.826 320.185C737.971 320.185 737.791 320.995 737.791 321.94C737.791 322.57 737.881 323.2 737.881 323.695V323.965C737.431 328.915 736.801 332.605 736.801 332.605C734.101 333.325 733.516 333.55 730.951 334.54C728.476 335.485 728.386 335.845 728.161 336.52C728.116 336.61 728.116 336.7 728.116 336.79C728.116 337.42 728.746 337.915 729.511 338.095C730.321 338.095 731.851 336.7 732.616 336.34C734.236 335.575 736.441 335.08 736.441 335.08C736.216 337.015 736.036 337.915 735.721 341.11C735.226 345.7 735.226 348.49 735.226 350.515C735.226 351.235 735.451 352.9 736.801 352.99H736.981C737.836 352.99 738.061 352.495 738.061 351.91C738.061 351.37 737.836 350.74 737.836 350.56C737.791 349.885 737.791 349.12 737.791 348.355C737.791 342.37 738.736 335.125 738.781 334.585C740.401 334.225 743.506 333.595 746.296 333.595C747.151 333.595 747.736 333.73 747.736 333.73C747.601 334.45 747.511 335.35 747.376 336.43C746.836 340.12 746.161 343.945 746.161 346.465C746.161 348.22 746.476 349.39 747.466 349.39C750.166 349.435 757.996 339.535 757.996 339.535C757.861 346.285 757.546 349.57 756.916 355.735C756.016 364.78 755.476 369.955 755.161 370.045C754.981 370.09 754.621 370.81 754.621 371.485C754.621 372.205 755.026 372.925 756.421 372.925C757.591 372.925 758.041 372.385 758.041 371.71C758.041 370.99 757.591 370.135 757.411 369.91C757.366 369.865 757.366 369.775 757.366 369.595C757.366 368.65 757.906 365.77 758.536 360.28C759.391 352.81 760.336 342.505 760.651 339.985C760.696 339.535 760.741 339.04 760.741 338.545ZM804.453 343.585C804.453 343.09 804.048 342.595 803.508 342.595C803.373 342.595 803.238 342.64 803.103 342.685C802.608 342.865 791.853 349.93 786.183 349.93C784.248 349.93 782.718 348.85 782.718 346.96C782.718 343.045 788.568 337.06 789.603 336.745C789.693 336.7 789.828 336.7 789.963 336.7C790.503 336.7 790.998 336.925 791.448 336.925C792.303 336.925 793.248 335.575 793.248 334.765C793.248 334.135 792.798 333.685 791.718 333.685C791.493 333.685 791.223 333.685 790.953 333.73C787.038 334.315 780.243 342.145 780.243 347.365C780.243 350.515 783.213 352 785.868 352C793.203 352 804.408 344.17 804.453 343.765V343.585ZM811.063 336.25C813.538 336.25 814.618 339.13 814.618 341.11C814.618 342.685 814.078 344.26 813.313 345.745C812.458 347.365 809.623 349.84 807.553 349.84C805.483 349.84 804.628 346.915 804.628 345.295C804.628 344.665 804.718 344.035 804.898 343.54C807.193 336.745 810.703 336.25 811.063 336.25ZM816.868 341.65C816.868 341.155 816.823 340.705 816.778 340.165C816.283 335.26 812.503 333.685 810.703 333.685C808.093 333.685 805.483 336.07 802.963 341.785C802.423 343 802.198 344.17 802.198 345.34C802.198 348.31 803.863 352.18 807.058 352.18C810.838 352.18 816.868 348.085 816.868 341.65ZM832.903 330.76V330.58C832.858 330.04 831.283 329.23 830.698 328.96C830.428 328.825 830.068 328.735 829.663 328.735C829.078 328.735 828.358 328.915 827.818 329.365C824.848 331.84 819.178 336.07 819.178 341.02C819.178 347.77 829.528 347.32 830.158 349.525C830.158 351.145 823.633 353.35 823.363 353.8C823.183 354.025 823.093 354.25 823.093 354.475C823.093 355.105 823.768 355.645 824.713 355.69C825.388 355.69 832.768 351.82 832.768 349.975C832.768 347.185 830.203 346.735 827.458 345.655C824.488 344.53 821.518 343.63 821.518 341.02C821.518 339.625 822.643 337.015 824.668 335.215C828.223 332.02 828.718 331.075 830.248 331.03C830.608 331.03 831.103 331.57 831.958 331.57C832.633 331.57 832.903 331.21 832.903 330.76ZM854.634 332.92C854.544 331.66 852.924 331.705 851.979 331.66C851.574 331.66 851.169 331.615 850.764 331.615C847.569 331.615 844.869 332.2 844.869 332.2C845.274 329.275 845.544 328.555 845.814 325.855C845.904 324.91 845.949 324.1 845.949 323.425C845.949 321.04 845.409 320.185 844.554 320.185C843.699 320.185 843.519 320.995 843.519 321.94C843.519 322.57 843.609 323.2 843.609 323.965C843.609 325.495 842.529 332.605 842.529 332.605C839.829 333.325 839.244 333.55 836.679 334.54C834.204 335.485 834.114 335.8 833.889 336.475C833.844 336.61 833.844 336.7 833.844 336.79C833.844 337.42 834.744 338.095 835.239 338.095C836.049 338.095 837.579 336.7 838.344 336.34C839.964 335.575 842.169 335.08 842.169 335.08C841.944 337.015 841.764 337.915 841.449 341.11C840.954 345.7 840.954 348.49 840.954 350.515C840.954 351.235 841.179 352.9 842.529 352.99H842.709C843.564 352.99 843.789 352.495 843.789 351.91C843.789 351.37 843.564 350.74 843.564 350.56C843.519 349.885 843.519 349.12 843.519 348.355C843.519 342.37 844.464 335.125 844.509 334.585C846.129 334.225 849.234 333.595 852.024 333.595C852.384 333.595 853.014 333.73 853.554 333.73C854.139 333.73 854.634 333.595 854.634 332.92ZM882.655 340.93C882.655 341.11 882.655 341.2 882.61 341.425C881.53 346.33 874.555 349.75 874.555 349.75C874.555 349.75 875.23 344.125 875.635 341.47C876.04 338.86 876.76 335.35 876.76 335.35C879.37 335.53 882.655 338.725 882.655 340.93ZM885.085 341.29C885.085 336.025 878.965 332.92 875.815 332.875C875.14 332.875 872.62 333.505 872.62 334.855C872.62 335.89 873.745 336.205 873.745 336.205C872.665 344.35 872.08 347.545 871.675 356.905C871.63 358.345 871.585 359.65 871.585 360.82C871.585 364.915 871.855 367.435 871.855 368.425C871.855 368.695 871.855 368.83 871.81 368.875C871.675 369.1 871.63 369.37 871.63 369.685C871.63 370.585 872.26 371.575 873.205 371.575C873.79 371.575 874.285 371.035 874.285 370.27C874.285 370 874.195 369.73 874.06 369.415C873.97 369.19 873.835 367.165 873.835 363.925V360.955C873.835 354.79 874.465 350.785 874.465 350.785C874.6 351.28 875.32 351.955 875.995 351.955C876.895 351.955 885.085 345.25 885.085 341.29ZM900.044 335.575C898.649 336.835 897.884 337.33 896.714 338.005C893.924 339.715 891.404 339.85 891.404 339.85C891.404 339.85 892.799 338.005 895.094 336.835C896.714 335.98 898.379 335.575 900.044 335.575ZM908.909 343.36C908.909 342.595 908.234 341.92 907.559 341.92C906.794 341.92 906.299 343.09 906.029 343.585C905.579 344.215 898.604 349.93 895.049 349.93C893.069 349.93 892.214 348.85 891.404 347.545C890.414 346.015 890.189 344.62 890.189 343.675C890.189 342.865 890.324 342.37 890.324 342.37C891.584 342.28 894.329 342.01 897.119 340.3C899.684 338.77 903.509 335.89 903.509 334.765C903.509 334.63 903.464 334.54 903.329 334.45C902.249 333.73 900.944 333.415 899.459 333.415C894.734 333.415 888.929 336.88 887.759 341.965C887.624 342.505 887.579 343.045 887.579 343.585C887.579 346.915 889.649 350.47 892.574 351.82C893.159 352.09 893.834 352.225 894.554 352.225C899.639 352.225 906.884 345.61 907.874 345.07C908.459 344.665 908.909 343.99 908.909 343.36ZM929.224 334.09C929.224 333.55 928.864 333.01 928.594 332.92C927.829 332.65 927.154 332.56 926.524 332.56C923.824 332.56 921.979 334.63 920.314 336.205C917.434 338.86 914.329 343 914.329 343C914.329 339.985 914.329 339.13 914.284 337.555C914.194 334.81 914.059 333.775 913.384 333.145C913.024 332.83 912.709 332.695 912.394 332.695C911.944 332.695 911.044 333.235 911.044 333.73C911.044 334.27 912.034 335.215 912.034 340.84C912.034 341.74 911.989 342.73 911.944 343.9C911.764 347.365 911.224 349.66 911.224 351.01C911.224 351.595 911.314 352 911.584 352.27C911.899 352.585 912.349 352.81 912.799 352.81C913.159 352.81 913.519 352.675 913.789 352.315C914.374 351.55 913.789 348.085 915.454 345.565C918.694 340.66 922.114 336.835 924.949 335.17C925.399 334.9 925.804 334.81 926.119 334.81C926.839 334.81 927.334 335.215 927.919 335.215C928.594 335.215 929.224 334.675 929.224 334.09ZM959.483 336.025C959.483 336.025 959.393 334.225 958.223 334.225C956.828 334.225 956.783 335.215 956.783 335.845C956.738 337.015 955.973 344.305 953.723 348.265C953.408 348.805 953.093 349.03 952.823 349.03C951.293 349.03 949.718 343.315 949.718 336.115C949.718 335.53 949.763 334.945 949.763 334.315C949.763 333.73 949.403 332.605 948.413 332.605H948.188C947.693 332.605 947.288 332.965 947.288 334.045C947.333 335.71 947.468 351.82 952.778 351.82C953.183 351.82 953.678 351.685 954.173 351.46C956.873 350.2 959.483 336.88 959.483 336.025ZM977.209 353.125C977.209 352.405 976.759 351.55 976.444 350.92C976.354 350.605 976.309 349.795 976.309 347.995V342.82C976.309 336.97 976.084 332.785 973.969 332.335H973.789C970.999 332.335 966.229 342.685 966.229 342.685C966.184 342.325 966.184 342.055 966.184 341.83C966.184 341.245 966.274 340.705 966.274 339.4C966.274 336.79 966.724 335.08 966.724 334.09C966.724 333.73 966.679 333.505 966.544 333.325C966.274 332.965 965.689 332.605 965.104 332.605C964.654 332.605 964.249 332.875 964.114 333.64C964.024 334.27 963.619 337.51 963.529 341.74C963.439 346.6 963.169 349.21 963.169 350.65C963.169 351.37 963.259 351.82 963.439 352.135C963.754 352.54 964.114 352.675 964.429 352.675C964.744 352.675 965.059 352.54 965.284 352.45C965.824 352.045 965.779 350.875 967.129 347.23C969.154 341.74 972.484 335.53 973.294 335.53C973.834 335.53 973.879 339.175 973.879 339.715L973.834 344.08C973.834 348.13 974.284 350.245 974.284 351.19C974.284 351.64 974.149 351.91 974.149 352.225C974.149 353.44 975.274 354.25 976.174 354.25C976.849 354.25 977.209 353.665 977.209 353.125ZM985.979 335.305C985.979 334.27 985.349 333.595 984.584 333.595C983.009 333.685 983.189 336.25 983.054 338.725C982.829 343.045 982.604 346.285 982.604 348.445C982.604 350.065 982.739 351.055 983.144 351.37C983.504 351.64 983.909 351.775 984.224 351.775C985.124 351.775 985.439 351.055 985.439 350.29C985.439 349.48 984.899 349.39 984.899 347.365V346.51C984.899 344.755 985.979 336.835 985.979 335.305ZM986.069 320.365C986.069 319.645 985.574 319.105 984.944 319.105C983.774 319.105 984.134 320.14 983.189 322.075C982.649 323.245 982.424 324.28 982.424 325.09C982.424 325.72 982.559 326.62 983.234 326.62C983.549 326.62 983.819 326.44 984.044 326.215C984.494 325.765 984.179 325 984.854 323.335C985.439 321.895 986.024 321.13 986.069 320.545V320.365ZM1010.48 332.92C1010.39 331.66 1008.77 331.705 1007.83 331.66C1007.42 331.66 1007.02 331.615 1006.61 331.615C1003.42 331.615 1000.72 332.2 1000.72 332.2C1001.12 329.275 1001.39 328.555 1001.66 325.855C1001.75 324.91 1001.8 324.1 1001.8 323.425C1001.8 321.04 1001.26 320.185 1000.4 320.185C999.546 320.185 999.366 320.995 999.366 321.94C999.366 322.57 999.456 323.2 999.456 323.965C999.456 325.495 998.376 332.605 998.376 332.605C995.676 333.325 995.091 333.55 992.526 334.54C990.051 335.485 989.961 335.8 989.736 336.475C989.691 336.61 989.691 336.7 989.691 336.79C989.691 337.42 990.591 338.095 991.086 338.095C991.896 338.095 993.426 336.7 994.191 336.34C995.811 335.575 998.016 335.08 998.016 335.08C997.791 337.015 997.611 337.915 997.296 341.11C996.801 345.7 996.801 348.49 996.801 350.515C996.801 351.235 997.026 352.9 998.376 352.99H998.556C999.411 352.99 999.636 352.495 999.636 351.91C999.636 351.37 999.411 350.74 999.411 350.56C999.366 349.885 999.366 349.12 999.366 348.355C999.366 342.37 1000.31 335.125 1000.36 334.585C1001.98 334.225 1005.08 333.595 1007.87 333.595C1008.23 333.595 1008.86 333.73 1009.4 333.73C1009.99 333.73 1010.48 333.595 1010.48 332.92Z" fill="#005573"/>
<path d="M306 297.5C327.037 269.5 316 290 306 297.5ZM306 297.5C336.743 254.801 374.997 211.049 409.259 170.969C425.724 151.708 442.584 133.972 454.926 112.031C468.435 88.015 446.473 106.987 437.5 114.5C432.152 118.977 431.465 121.84 428 128C423.092 136.726 434.09 119.767 440.445 112.031C445.191 106.253 455.763 89.924 458.96 100.712C463.792 117.022 446.5 152.331 446.5 135.32" stroke="#009696" stroke-width="2" stroke-linecap="round"/>
<path d="M710.326 297.043C706.152 297.043 707.421 292.5 710.326 297.043ZM710.326 297.043C690.656 267.145 680.99 235.277 665.699 203.367C654.422 179.831 643.373 155.868 630.571 133.109C624.672 122.623 618.483 115.264 615.218 103.835C611.541 90.9667 611.5 128.117 611.5 141.5C611.5 153.116 611.5 142.828 611.5 137C611.5 129.981 611.337 126.017 611.5 119C611.75 108.238 606.359 104.139 619 109C631.049 113.635 632.176 124.226 643.5 128" stroke="#009696" stroke-width="2" stroke-linecap="round"/>
<path d="M677 626.5C677 573.931 689.448 544.362 700.723 493.22C706.134 468.676 714.925 443.493 725.29 420.459C729.895 410.225 732.763 399.629 736.556 389.007C742.328 372.846 726.586 389.119 722.317 393.388C719.496 396.209 710.665 409.275 711.989 408.097C717.56 403.146 722.647 395.875 728.107 390.415C743.405 375.117 740.734 402.949 743.598 411.54" stroke="#009696" stroke-width="2" stroke-linecap="round"/>
<path d="M1021.27 615.161C973.639 590.045 935.66 543.293 903.231 500.993C889.316 482.844 874.884 465.097 861.438 446.608C854.24 436.71 844.44 428.275 839.297 417.132C836.49 411.051 829.791 408.015 827.534 401.495C826.436 398.323 821.741 372.928 817.57 385.442C814.396 394.966 817.017 409.085 817.017 419.208C817.017 427.415 819.508 402.921 819.508 394.714C819.508 382.628 825.933 387.774 831.962 393.468C837.638 398.829 849.412 400.98 851.89 408.414" stroke="#009696" stroke-width="2" stroke-linecap="round"/>
</svg>
