<?xml version="1.0" encoding="utf-8"?>
<svg viewBox="0 0 395 231" xmlns="http://www.w3.org/2000/svg">
  <defs>
    <clipPath id="clip0">
      <rect width="371" height="122" fill="#EDF2F7"/>
    </clipPath>
  </defs>
  <g clip-path="url(#clip0)" transform="matrix(0.910505, 0, 0, 0.910505, 24.526741, 3.307074)" style="">
    <path d="M300.832 78.568H285.216V94.1843H300.832V78.568Z" style="fill: rgb(140, 140, 140);"/>
    <path d="M300.328 -0.00194745L276.95 70.6877L347.639 94.0661L371.018 23.3764L300.328 -0.00194745Z" fill="#FF8200"/>
    <path d="M19.7201 53.6232H14.2668L14.4871 44.5344L5.12281 44.8649L4.40672 53.6232H-0.165252V60.6189H3.91096V69.212C3.91096 73.0679 3.91096 73.0679 3.96605 73.784C4.1313 76.2077 4.73723 77.6399 6.11433 79.017C7.76685 80.6695 9.86004 81.3305 13.5507 81.3305C15.6439 81.3305 17.2413 81.1653 19.7201 80.7246V73.0679C18.6184 73.3433 17.5718 73.5086 16.7455 73.5086C14.8727 73.5086 14.2668 72.7925 14.2668 70.6993V60.6189H19.7201V53.6232ZM34.412 81V68.4408C34.412 64.3646 36.1196 62.4918 39.7001 62.4918C40.3611 62.4918 40.8018 62.5469 41.7382 62.7672V53.2377C41.0772 53.1275 40.7467 53.1275 40.306 53.1275C36.34 53.1275 34.3569 54.8351 33.0349 59.2969V53.6232H24.1113V81H34.412ZM72.6339 81C71.9178 78.9619 71.8076 78.0805 71.8076 75.6569V64.7502C71.8076 59.9028 71.5322 58.4706 70.2102 56.8732C68.2271 54.4495 64.0958 53.0724 58.5874 53.0724C54.0155 53.0724 50.8206 53.8987 48.1766 55.7715C46.1385 57.2037 45.1469 58.7461 44.3758 61.6655L54.1256 62.5469C54.4561 60.5638 55.8332 59.5723 58.2569 59.5723C60.6255 59.5723 61.5069 60.3986 61.5069 62.5469V63.2079C57.1002 63.4282 53.5197 63.979 50.435 64.9706C46.1935 66.3477 43.6046 69.5976 43.6046 73.3984C43.6046 78.3009 47.4605 81.5508 53.2443 81.5508C57.2654 81.5508 59.8544 80.2288 62.0577 77.1992C62.0577 78.5763 62.1128 79.4576 62.4433 81H72.6339ZM61.5069 69.4874C61.5069 73.4535 60.295 75.0509 57.3756 75.0509C55.668 75.0509 54.6765 74.1145 54.6765 72.5721C54.6765 70.1484 56.8798 68.7163 61.5069 68.2205V69.4874ZM104.082 81V63.4833C104.082 58.6359 103.641 57.0385 101.879 55.3859C100.281 53.9537 97.9127 53.0724 95.3237 53.0724C93.2305 53.0724 91.0272 53.6783 89.7052 54.6148C88.7137 55.3308 88.1628 55.9919 87.3366 57.4791V53.6232H77.3664V81H88.1077V64.5299C88.1077 61.7757 89.0442 60.4537 91.0823 60.4537C92.7348 60.4537 93.3407 61.3901 93.3407 63.7587V81H104.082ZM107.272 73.2332C109.2 78.8517 113.607 81.5508 120.988 81.5508C129.802 81.5508 135.145 77.8602 135.145 71.801C135.145 68.9917 133.878 66.6231 131.619 65.0807C129.802 63.8689 127.874 63.318 123.853 62.8223C119.446 62.3265 119.005 62.2164 118.399 61.8858C117.903 61.6104 117.628 61.2248 117.628 60.8393C117.628 59.9579 119.06 59.352 120.988 59.352C123.467 59.352 124.899 60.0681 125.78 61.7757L133.933 60.2333C132.115 55.5512 127.819 53.0724 121.429 53.0724C113.607 53.0724 108.539 56.763 108.539 62.4918C108.539 65.3011 109.971 67.9451 112.23 69.1569C113.992 70.1484 116.747 70.9747 119.942 71.4154C124.899 72.0764 125.67 72.3518 125.67 73.3984C125.67 74.445 124.128 75.0509 121.484 75.0509C118.014 75.0509 116.416 74.2247 115.755 72.0764L107.272 73.2332ZM157.028 71.195C156.422 73.6738 155.321 74.5552 152.897 74.5552C151.355 74.5552 150.198 74.0594 149.482 73.123C148.876 72.3518 148.71 71.6357 148.71 69.4874H166.998C167.053 68.8264 167.053 68.1654 167.053 67.89C167.053 58.9113 161.325 53.0724 152.511 53.0724C148.215 53.0724 144.359 54.5046 141.715 57.0935C139.126 59.6274 137.473 63.7036 137.473 67.6697C137.473 75.9323 143.698 81.5508 152.787 81.5508C160.223 81.5508 165.566 77.9153 166.998 71.8561L157.028 71.195ZM148.655 64.0892C148.655 60.9494 149.977 59.4071 152.511 59.4071C155.1 59.4071 156.202 60.7842 156.312 64.0892H148.655ZM197.951 81V63.4833C197.951 58.6359 197.51 57.0385 195.747 55.3859C194.15 53.9537 191.781 53.0724 189.192 53.0724C187.099 53.0724 184.896 53.6783 183.574 54.6148C182.582 55.3308 182.032 55.9919 181.205 57.4791V53.6232H171.235V81H181.976V64.5299C181.976 61.7757 182.913 60.4537 184.951 60.4537C186.604 60.4537 187.209 61.3901 187.209 63.7587V81H197.951ZM220.475 53.6232H215.022L215.242 44.5344L205.878 44.8649L205.162 53.6232H200.59V60.6189H204.666V69.212C204.666 73.0679 204.666 73.0679 204.721 73.784C204.887 76.2077 205.493 77.6399 206.87 79.017C208.522 80.6695 210.615 81.3305 214.306 81.3305C216.399 81.3305 217.997 81.1653 220.475 80.7246V73.0679C219.374 73.3433 218.327 73.5086 217.501 73.5086C215.628 73.5086 215.022 72.7925 215.022 70.6993V60.6189H220.475V53.6232ZM235.608 43.1573H224.867V51.6402H235.608V43.1573ZM235.608 53.6232H224.867V81H235.608V53.6232ZM238.796 73.2332C240.724 78.8517 245.131 81.5508 252.512 81.5508C261.325 81.5508 266.669 77.8602 266.669 71.801C266.669 68.9917 265.402 66.6231 263.143 65.0807C261.325 63.8689 259.398 63.318 255.376 62.8223C250.97 62.3265 250.529 62.2164 249.923 61.8858C249.427 61.6104 249.152 61.2248 249.152 60.8393C249.152 59.9579 250.584 59.352 252.512 59.352C254.991 59.352 256.423 60.0681 257.304 61.7757L265.457 60.2333C263.639 55.5512 259.342 53.0724 252.953 53.0724C245.131 53.0724 240.063 56.763 240.063 62.4918C240.063 65.3011 241.495 67.9451 243.754 69.1569C245.516 70.1484 248.271 70.9747 251.465 71.4154C256.423 72.0764 257.194 72.3518 257.194 73.3984C257.194 74.445 255.652 75.0509 253.008 75.0509C249.537 75.0509 247.94 74.2247 247.279 72.0764L238.796 73.2332Z" style="fill: rgb(140, 140, 140);"/>
    <path d="M202.229 72.6548C202.229 71.7294 202.03 71.2667 201.7 70.8701C201.039 70.143 200.51 69.8786 200.047 69.8786C199.452 69.8786 199.056 70.2752 198.593 70.6718C197.734 71.3989 197.535 77.0836 196.742 85.6767C195.949 93.741 194.561 107.953 194.561 115.819C194.561 118.793 194.825 120.908 195.354 121.239C195.949 121.702 196.478 121.834 196.941 121.834C198.263 121.834 198.527 119.917 198.527 118.463C198.527 116.215 198.329 113.836 198.329 111.72C198.329 106.432 198.659 100.087 199.452 93.8732C201.105 79.992 202.229 74.9684 202.229 72.6548ZM218.114 112.381C218.114 112.381 213.685 116.083 210.446 116.083C208.793 116.083 208.198 115.158 208.198 113.703C208.198 110.398 210.975 106.829 214.28 106.829C216.461 106.829 218.114 112.381 218.114 112.381ZM224.724 103.656C224.724 98.5003 223.402 93.2122 218.841 90.3699C217.783 89.7088 216.527 89.4444 215.139 89.4444C211.305 89.4444 207.009 91.6919 207.009 93.9393C207.075 95.1291 208.198 95.5918 208.925 95.5918C209.256 95.5918 209.454 95.5257 209.454 95.2613C209.586 94.3359 212.164 92.5512 214.808 92.5512C220.03 92.5512 221.419 99.9545 221.419 103.788C221.419 107.358 220.361 109.803 220.361 109.803C219.369 106.763 217.717 103.524 214.081 103.524C208.992 103.524 205.092 109.539 205.092 113.968C205.092 117.141 207.009 119.19 210.314 119.19C214.412 119.19 219.105 115.885 219.105 115.885C219.105 115.885 219.303 117.008 219.7 117.405C220.03 117.802 220.625 117.934 221.088 117.934C221.419 117.934 221.749 117.868 221.881 117.669C222.212 117.471 224.724 110.663 224.724 103.656ZM248.463 100.153C248.463 106.168 234.582 115.62 234.582 115.62C234.582 115.62 233.987 112.381 233.987 107.093C233.987 106.102 233.987 104.978 234.053 103.854C234.251 99.4257 235.375 94.9308 235.375 94.9308C236.036 94.8647 236.763 94.7986 237.49 94.7986C241.787 94.7986 246.877 96.1867 248.133 98.7647C248.331 99.2274 248.463 99.6901 248.463 100.153ZM252.231 99.8223C252.231 99.2935 252.099 98.6986 251.9 98.2359C248.992 91.758 239.672 91.2953 236.895 91.2953C236.367 91.2953 236.036 91.2953 236.036 91.2953C237.292 84.4208 238.35 82.6361 238.35 78.5378C238.35 75.4311 236.962 73.2497 235.772 73.2497C234.516 73.2497 234.119 74.1091 234.119 74.9023C234.119 76.026 234.648 77.348 234.648 78.1412C234.648 83.892 232.401 92.0224 232.401 92.0224C231.409 92.4851 230.484 93.3444 230.484 94.0715C230.682 95.6579 231.541 95.9223 231.541 95.9223C230.814 101.144 230.616 108.217 230.616 112.381C230.616 114.364 230.616 115.686 230.682 115.819C231.145 116.744 232.533 116.81 232.995 116.81C233.128 116.81 233.194 116.81 233.194 116.81C233.194 116.81 233.128 117.141 233.128 117.537C233.128 118.859 234.384 119.719 235.441 119.719C236.301 119.719 236.234 119.058 237.226 118.066C238.482 116.876 252.231 106.366 252.231 99.8223ZM273.836 86.8004V86.536C273.77 85.7428 271.457 84.553 270.598 84.1564C270.201 83.9581 269.672 83.8259 269.077 83.8259C268.218 83.8259 267.16 84.0903 266.367 84.7513C262.004 88.3868 253.676 94.6003 253.676 101.871C253.676 111.787 268.879 111.126 269.804 114.364C269.804 116.744 260.22 119.983 259.823 120.644C259.559 120.975 259.427 121.305 259.427 121.636C259.427 122.561 260.418 123.354 261.806 123.42C262.798 123.42 273.638 117.736 273.638 115.025C273.638 110.927 269.87 110.266 265.838 108.68C261.476 107.027 257.113 105.705 257.113 101.871C257.113 99.8223 258.766 95.9884 261.74 93.3444C266.962 88.6512 267.689 87.2631 269.937 87.197C270.465 87.197 271.192 87.9902 272.448 87.9902C273.44 87.9902 273.836 87.4614 273.836 86.8004Z" fill="#FF8200"/>
  </g>
  <text style="fill: rgba(125, 125, 125, 0.81); font-family: Consolas; font-size: 92.4px; font-weight: lighter; white-space: pre;" x="16.773" y="210.495">BPTK-Py</text>
</svg>