<svg width="404" height="133" viewBox="0 0 404 133" fill="none" xmlns="http://www.w3.org/2000/svg">
<g clip-path="url(#clip0_4_28)">
<path d="M327.68 85.58H310.67V102.59H327.68V85.58Z" fill="#1D1D1B"/>
<path d="M327.13 -0.00174456L301.666 76.9967L378.664 102.461L404.129 25.463L327.13 -0.00174456Z" fill="#FF8200"/>
<path d="M21.48 58.64H15.54L15.78 48.74L5.58 49.1L4.8 58.64H-0.18V66.26H4.26V75.62C4.26 79.82 4.26 79.82 4.32 80.6C4.5 83.24 5.16 84.8 6.66 86.3C8.46 88.1 10.74 88.82 14.76 88.82C17.04 88.82 18.78 88.64 21.48 88.16V79.82C20.28 80.12 19.14 80.3 18.24 80.3C16.2 80.3 15.54 79.52 15.54 77.24V66.26H21.48V58.64ZM37.4831 88.46V74.78C37.4831 70.34 39.3431 68.3 43.2431 68.3C43.9631 68.3 44.4431 68.36 45.4631 68.6V58.22C44.7431 58.1 44.3831 58.1 43.9031 58.1C39.5831 58.1 37.4231 59.96 35.9831 64.82V58.64H26.2631V88.46H37.4831ZM79.1161 88.46C78.3361 86.24 78.2161 85.28 78.2161 82.64V70.76C78.2161 65.48 77.9161 63.92 76.4761 62.18C74.3161 59.54 69.8161 58.04 63.8161 58.04C58.8361 58.04 55.3561 58.94 52.4761 60.98C50.2561 62.54 49.1761 64.22 48.3361 67.4L58.9561 68.36C59.3161 66.2 60.8161 65.12 63.4561 65.12C66.0361 65.12 66.9961 66.02 66.9961 68.36V69.08C62.1961 69.32 58.2961 69.92 54.9361 71C50.3161 72.5 47.4961 76.04 47.4961 80.18C47.4961 85.52 51.6961 89.06 57.9961 89.06C62.3761 89.06 65.1961 87.62 67.5961 84.32C67.5961 85.82 67.6561 86.78 68.0161 88.46H79.1161ZM66.9961 75.92C66.9961 80.24 65.6761 81.98 62.4961 81.98C60.6361 81.98 59.5561 80.96 59.5561 79.28C59.5561 76.64 61.9561 75.08 66.9961 74.54V75.92ZM113.371 88.46V69.38C113.371 64.1 112.891 62.36 110.971 60.56C109.231 59 106.651 58.04 103.831 58.04C101.551 58.04 99.1509 58.7 97.7109 59.72C96.6309 60.5 96.0309 61.22 95.1309 62.84V58.64H84.2709V88.46H95.9709V70.52C95.9709 67.52 96.9909 66.08 99.2109 66.08C101.011 66.08 101.671 67.1 101.671 69.68V88.46H113.371ZM116.846 80C118.946 86.12 123.746 89.06 131.786 89.06C141.386 89.06 147.206 85.04 147.206 78.44C147.206 75.38 145.826 72.8 143.366 71.12C141.386 69.8 139.286 69.2 134.906 68.66C130.106 68.12 129.626 68 128.966 67.64C128.426 67.34 128.126 66.92 128.126 66.5C128.126 65.54 129.686 64.88 131.786 64.88C134.486 64.88 136.046 65.66 137.006 67.52L145.886 65.84C143.906 60.74 139.226 58.04 132.266 58.04C123.746 58.04 118.226 62.06 118.226 68.3C118.226 71.36 119.786 74.24 122.246 75.56C124.166 76.64 127.166 77.54 130.646 78.02C136.046 78.74 136.886 79.04 136.886 80.18C136.886 81.32 135.206 81.98 132.326 81.98C128.546 81.98 126.806 81.08 126.086 78.74L116.846 80ZM171.042 77.78C170.382 80.48 169.182 81.44 166.542 81.44C164.862 81.44 163.602 80.9 162.822 79.88C162.162 79.04 161.982 78.26 161.982 75.92H181.902C181.962 75.2 181.962 74.48 181.962 74.18C181.962 64.4 175.722 58.04 166.122 58.04C161.442 58.04 157.242 59.6 154.362 62.42C151.542 65.18 149.742 69.62 149.742 73.94C149.742 82.94 156.522 89.06 166.422 89.06C174.522 89.06 180.342 85.1 181.902 78.5L171.042 77.78ZM161.922 70.04C161.922 66.62 163.362 64.94 166.122 64.94C168.942 64.94 170.142 66.44 170.262 70.04H161.922ZM215.617 88.46V69.38C215.617 64.1 215.137 62.36 213.217 60.56C211.477 59 208.897 58.04 206.077 58.04C203.797 58.04 201.397 58.7 199.957 59.72C198.877 60.5 198.277 61.22 197.377 62.84V58.64H186.517V88.46H198.217V70.52C198.217 67.52 199.237 66.08 201.457 66.08C203.257 66.08 203.917 67.1 203.917 69.68V88.46H215.617ZM240.152 58.64H234.212L234.452 48.74L224.252 49.1L223.472 58.64H218.492V66.26H222.932V75.62C222.932 79.82 222.932 79.82 222.992 80.6C223.172 83.24 223.832 84.8 225.332 86.3C227.132 88.1 229.412 88.82 233.432 88.82C235.712 88.82 237.452 88.64 240.152 88.16V79.82C238.952 80.12 237.812 80.3 236.912 80.3C234.872 80.3 234.212 79.52 234.212 77.24V66.26H240.152V58.64ZM256.635 47.24H244.935V56.48H256.635V47.24ZM256.635 58.64H244.935V88.46H256.635V58.64ZM260.108 80C262.208 86.12 267.008 89.06 275.048 89.06C284.648 89.06 290.468 85.04 290.468 78.44C290.468 75.38 289.088 72.8 286.628 71.12C284.648 69.8 282.548 69.2 278.168 68.66C273.368 68.12 272.888 68 272.228 67.64C271.688 67.34 271.388 66.92 271.388 66.5C271.388 65.54 272.948 64.88 275.048 64.88C277.748 64.88 279.308 65.66 280.268 67.52L289.148 65.84C287.168 60.74 282.488 58.04 275.527 58.04C267.008 58.04 261.488 62.06 261.488 68.3C261.488 71.36 263.048 74.24 265.508 75.56C267.428 76.64 270.428 77.54 273.908 78.02C279.308 78.74 280.148 79.04 280.148 80.18C280.148 81.32 278.468 81.98 275.588 81.98C271.808 81.98 270.068 81.08 269.348 78.74L260.108 80Z" fill="#1D1D1B"/>
<path d="M220.32 78.608C220.32 77.6 220.104 77.096 219.744 76.664C219.024 75.872 218.448 75.584 217.944 75.584C217.296 75.584 216.864 76.016 216.36 76.448C215.424 77.24 215.208 83.432 214.344 92.792C213.48 101.576 211.968 117.056 211.968 125.624C211.968 128.864 212.256 131.168 212.832 131.528C213.48 132.032 214.056 132.176 214.56 132.176C216 132.176 216.288 130.088 216.288 128.504C216.288 126.056 216.072 123.464 216.072 121.16C216.072 115.4 216.432 108.488 217.296 101.72C219.096 86.6 220.32 81.128 220.32 78.608ZM237.623 121.88C237.623 121.88 232.799 125.912 229.271 125.912C227.471 125.912 226.823 124.904 226.823 123.32C226.823 119.72 229.847 115.832 233.447 115.832C235.823 115.832 237.623 121.88 237.623 121.88ZM244.823 112.376C244.823 106.76 243.383 101 238.415 97.904C237.263 97.184 235.895 96.896 234.383 96.896C230.207 96.896 225.527 99.344 225.527 101.792C225.599 103.088 226.823 103.592 227.615 103.592C227.975 103.592 228.191 103.52 228.191 103.232C228.335 102.224 231.143 100.28 234.023 100.28C239.711 100.28 241.223 108.344 241.223 112.52C241.223 116.408 240.07 119.072 240.07 119.072C238.991 115.76 237.191 112.232 233.231 112.232C227.687 112.232 223.438 118.784 223.438 123.608C223.438 127.064 225.527 129.296 229.127 129.296C233.591 129.296 238.703 125.696 238.703 125.696C238.703 125.696 238.919 126.92 239.351 127.352C239.711 127.784 240.359 127.928 240.863 127.928C241.223 127.928 241.583 127.856 241.727 127.64C242.087 127.424 244.823 120.008 244.823 112.376ZM270.681 108.56C270.681 115.112 255.561 125.408 255.561 125.408C255.561 125.408 254.913 121.88 254.913 116.12C254.913 115.04 254.913 113.816 254.985 112.592C255.201 107.768 256.425 102.872 256.425 102.872C257.145 102.8 257.937 102.728 258.729 102.728C263.409 102.728 268.953 104.24 270.321 107.048C270.537 107.552 270.681 108.056 270.681 108.56ZM274.785 108.2C274.785 107.624 274.641 106.976 274.425 106.472C271.257 99.416 261.105 98.912 258.081 98.912C257.505 98.912 257.145 98.912 257.145 98.912C258.513 91.424 259.665 89.48 259.665 85.016C259.665 81.632 258.153 79.256 256.857 79.256C255.489 79.256 255.057 80.192 255.057 81.056C255.057 82.28 255.633 83.72 255.633 84.584C255.633 90.848 253.185 99.704 253.185 99.704C252.105 100.208 251.097 101.144 251.097 101.936C251.313 103.664 252.249 103.952 252.249 103.952C251.457 109.64 251.241 117.344 251.241 121.88C251.241 124.04 251.241 125.48 251.313 125.624C251.817 126.632 253.329 126.704 253.833 126.704C253.977 126.704 254.049 126.704 254.049 126.704C254.049 126.704 253.977 127.064 253.977 127.496C253.977 128.936 255.345 129.872 256.497 129.872C257.433 129.872 257.361 129.152 258.441 128.072C259.809 126.776 274.785 115.328 274.785 108.2ZM298.319 94.016V93.728C298.247 92.864 295.727 91.568 294.791 91.136C294.359 90.92 293.783 90.776 293.135 90.776C292.199 90.776 291.047 91.064 290.183 91.784C285.431 95.744 276.359 102.512 276.359 110.432C276.359 121.232 292.919 120.512 293.927 124.04C293.927 126.632 283.487 130.16 283.055 130.88C282.767 131.24 282.623 131.6 282.623 131.96C282.623 132.968 283.703 133.832 285.215 133.904C286.295 133.904 298.103 127.712 298.103 124.76C298.103 120.296 293.999 119.576 289.607 117.848C284.855 116.048 280.103 114.608 280.103 110.432C280.103 108.2 281.903 104.024 285.143 101.144C290.831 96.032 291.623 94.52 294.07 94.448C294.647 94.448 295.439 95.312 296.807 95.312C297.887 95.312 298.319 94.736 298.319 94.016Z" fill="#FF8200"/>
</g>
<defs>
<clipPath id="clip0_4_28">
<rect width="404" height="133" fill="white"/>
</clipPath>
</defs>
</svg>
