<svg width="371" height="187" viewBox="0 0 371 187" fill="none" xmlns="http://www.w3.org/2000/svg">
<g clip-path="url(#clip0_1516_7)">
<path d="M300.832 78.5679H285.216V94.1842H300.832V78.5679Z" fill="#9A989A"/>
<path d="M300.328 -0.00194745L276.95 70.6877L347.639 94.0661L371.018 23.3764L300.328 -0.00194745Z" fill="#FF8200"/>
<path d="M19.7201 53.6232H14.2668L14.4871 44.5344L5.12281 44.8649L4.40672 53.6232H-0.165252V60.6189H3.91096V69.212C3.91096 73.0679 3.91096 73.0679 3.96605 73.784C4.1313 76.2077 4.73723 77.6399 6.11433 79.017C7.76685 80.6695 9.86004 81.3305 13.5507 81.3305C15.6439 81.3305 17.2413 81.1653 19.7201 80.7246V73.0679C18.6184 73.3433 17.5718 73.5086 16.7455 73.5086C14.8727 73.5086 14.2668 72.7925 14.2668 70.6993V60.6189H19.7201V53.6232ZM34.412 81V68.4408C34.412 64.3646 36.1196 62.4918 39.7001 62.4918C40.3611 62.4918 40.8018 62.5469 41.7382 62.7672V53.2377C41.0772 53.1275 40.7467 53.1275 40.306 53.1275C36.34 53.1275 34.3569 54.8351 33.0349 59.2969V53.6232H24.1113V81H34.412ZM72.6339 81C71.9178 78.9619 71.8076 78.0805 71.8076 75.6569V64.7502C71.8076 59.9028 71.5322 58.4706 70.2102 56.8732C68.2271 54.4495 64.0958 53.0724 58.5874 53.0724C54.0155 53.0724 50.8206 53.8987 48.1766 55.7715C46.1385 57.2037 45.1469 58.7461 44.3758 61.6655L54.1256 62.5469C54.4561 60.5638 55.8332 59.5723 58.2569 59.5723C60.6255 59.5723 61.5069 60.3986 61.5069 62.5469V63.2079C57.1002 63.4282 53.5197 63.979 50.435 64.9706C46.1935 66.3477 43.6046 69.5976 43.6046 73.3984C43.6046 78.3009 47.4605 81.5508 53.2443 81.5508C57.2654 81.5508 59.8544 80.2288 62.0577 77.1992C62.0577 78.5763 62.1128 79.4576 62.4433 81H72.6339ZM61.5069 69.4874C61.5069 73.4535 60.295 75.0509 57.3756 75.0509C55.668 75.0509 54.6765 74.1145 54.6765 72.5721C54.6765 70.1484 56.8798 68.7163 61.5069 68.2205V69.4874ZM104.082 81V63.4833C104.082 58.6359 103.641 57.0385 101.879 55.3859C100.281 53.9537 97.9127 53.0724 95.3237 53.0724C93.2305 53.0724 91.0272 53.6783 89.7052 54.6148C88.7137 55.3308 88.1628 55.9919 87.3366 57.4791V53.6232H77.3664V81H88.1077V64.5299C88.1077 61.7757 89.0442 60.4537 91.0823 60.4537C92.7348 60.4537 93.3407 61.3901 93.3407 63.7587V81H104.082ZM107.272 73.2332C109.2 78.8517 113.607 81.5508 120.988 81.5508C129.802 81.5508 135.145 77.8602 135.145 71.801C135.145 68.9917 133.878 66.6231 131.619 65.0807C129.802 63.8689 127.874 63.318 123.853 62.8223C119.446 62.3265 119.005 62.2164 118.399 61.8858C117.903 61.6104 117.628 61.2248 117.628 60.8393C117.628 59.9579 119.06 59.352 120.988 59.352C123.467 59.352 124.899 60.0681 125.78 61.7757L133.933 60.2333C132.115 55.5512 127.819 53.0724 121.429 53.0724C113.607 53.0724 108.539 56.763 108.539 62.4918C108.539 65.3011 109.971 67.9451 112.23 69.1569C113.992 70.1484 116.747 70.9747 119.942 71.4154C124.899 72.0764 125.67 72.3518 125.67 73.3984C125.67 74.445 124.128 75.0509 121.484 75.0509C118.014 75.0509 116.416 74.2247 115.755 72.0764L107.272 73.2332ZM157.028 71.195C156.422 73.6738 155.321 74.5552 152.897 74.5552C151.355 74.5552 150.198 74.0594 149.482 73.123C148.876 72.3518 148.71 71.6357 148.71 69.4874H166.998C167.053 68.8264 167.053 68.1654 167.053 67.89C167.053 58.9113 161.325 53.0724 152.511 53.0724C148.215 53.0724 144.359 54.5046 141.715 57.0935C139.126 59.6274 137.473 63.7036 137.473 67.6697C137.473 75.9323 143.698 81.5508 152.787 81.5508C160.223 81.5508 165.566 77.9153 166.998 71.8561L157.028 71.195ZM148.655 64.0892C148.655 60.9494 149.977 59.4071 152.511 59.4071C155.1 59.4071 156.202 60.7842 156.312 64.0892H148.655ZM197.951 81V63.4833C197.951 58.6359 197.51 57.0385 195.747 55.3859C194.15 53.9537 191.781 53.0724 189.192 53.0724C187.099 53.0724 184.896 53.6783 183.574 54.6148C182.582 55.3308 182.032 55.9919 181.205 57.4791V53.6232H171.235V81H181.976V64.5299C181.976 61.7757 182.913 60.4537 184.951 60.4537C186.604 60.4537 187.209 61.3901 187.209 63.7587V81H197.951ZM220.475 53.6232H215.022L215.242 44.5344L205.878 44.8649L205.162 53.6232H200.59V60.6189H204.666V69.212C204.666 73.0679 204.666 73.0679 204.721 73.784C204.887 76.2077 205.493 77.6399 206.87 79.017C208.522 80.6695 210.615 81.3305 214.306 81.3305C216.399 81.3305 217.997 81.1653 220.475 80.7246V73.0679C219.374 73.3433 218.327 73.5086 217.501 73.5086C215.628 73.5086 215.022 72.7925 215.022 70.6993V60.6189H220.475V53.6232ZM235.608 43.1573H224.867V51.6402H235.608V43.1573ZM235.608 53.6232H224.867V81H235.608V53.6232ZM238.796 73.2332C240.724 78.8517 245.131 81.5508 252.512 81.5508C261.325 81.5508 266.669 77.8602 266.669 71.801C266.669 68.9917 265.402 66.6231 263.143 65.0807C261.325 63.8689 259.398 63.318 255.376 62.8223C250.97 62.3265 250.529 62.2164 249.923 61.8858C249.427 61.6104 249.152 61.2248 249.152 60.8393C249.152 59.9579 250.584 59.352 252.512 59.352C254.991 59.352 256.423 60.0681 257.304 61.7757L265.457 60.2333C263.639 55.5512 259.342 53.0724 252.953 53.0724C245.131 53.0724 240.063 56.763 240.063 62.4918C240.063 65.3011 241.495 67.9451 243.754 69.1569C245.516 70.1484 248.271 70.9747 251.465 71.4154C256.423 72.0764 257.194 72.3518 257.194 73.3984C257.194 74.445 255.652 75.0509 253.008 75.0509C249.537 75.0509 247.94 74.2247 247.279 72.0764L238.796 73.2332Z" fill="#9A989A"/>
<path d="M202.229 72.6548C202.229 71.7294 202.03 71.2667 201.7 70.8701C201.039 70.143 200.51 69.8786 200.047 69.8786C199.452 69.8786 199.056 70.2752 198.593 70.6718C197.734 71.3989 197.535 77.0836 196.742 85.6767C195.949 93.741 194.561 107.953 194.561 115.819C194.561 118.793 194.825 120.908 195.354 121.239C195.949 121.702 196.478 121.834 196.941 121.834C198.263 121.834 198.527 119.917 198.527 118.463C198.527 116.215 198.329 113.836 198.329 111.72C198.329 106.432 198.659 100.087 199.452 93.8732C201.105 79.992 202.229 74.9684 202.229 72.6548ZM218.114 112.381C218.114 112.381 213.685 116.083 210.446 116.083C208.793 116.083 208.198 115.158 208.198 113.703C208.198 110.398 210.975 106.829 214.28 106.829C216.461 106.829 218.114 112.381 218.114 112.381ZM224.724 103.656C224.724 98.5003 223.402 93.2122 218.841 90.3699C217.783 89.7088 216.527 89.4444 215.139 89.4444C211.305 89.4444 207.009 91.6919 207.009 93.9393C207.075 95.1291 208.198 95.5918 208.925 95.5918C209.256 95.5918 209.454 95.5257 209.454 95.2613C209.586 94.3359 212.164 92.5512 214.808 92.5512C220.03 92.5512 221.419 99.9545 221.419 103.788C221.419 107.358 220.361 109.803 220.361 109.803C219.369 106.763 217.717 103.524 214.081 103.524C208.992 103.524 205.092 109.539 205.092 113.968C205.092 117.141 207.009 119.19 210.314 119.19C214.412 119.19 219.105 115.885 219.105 115.885C219.105 115.885 219.303 117.008 219.7 117.405C220.03 117.802 220.625 117.934 221.088 117.934C221.419 117.934 221.749 117.868 221.881 117.669C222.212 117.471 224.724 110.663 224.724 103.656ZM248.463 100.153C248.463 106.168 234.582 115.62 234.582 115.62C234.582 115.62 233.987 112.381 233.987 107.093C233.987 106.102 233.987 104.978 234.053 103.854C234.251 99.4257 235.375 94.9308 235.375 94.9308C236.036 94.8647 236.763 94.7986 237.49 94.7986C241.787 94.7986 246.877 96.1867 248.133 98.7647C248.331 99.2274 248.463 99.6901 248.463 100.153ZM252.231 99.8223C252.231 99.2935 252.099 98.6986 251.9 98.2359C248.992 91.758 239.672 91.2953 236.895 91.2953C236.367 91.2953 236.036 91.2953 236.036 91.2953C237.292 84.4208 238.35 82.6361 238.35 78.5378C238.35 75.4311 236.962 73.2497 235.772 73.2497C234.516 73.2497 234.119 74.1091 234.119 74.9023C234.119 76.026 234.648 77.348 234.648 78.1412C234.648 83.892 232.401 92.0224 232.401 92.0224C231.409 92.4851 230.484 93.3444 230.484 94.0715C230.682 95.6579 231.541 95.9223 231.541 95.9223C230.814 101.144 230.616 108.217 230.616 112.381C230.616 114.364 230.616 115.686 230.682 115.819C231.145 116.744 232.533 116.81 232.995 116.81C233.128 116.81 233.194 116.81 233.194 116.81C233.194 116.81 233.128 117.141 233.128 117.537C233.128 118.859 234.384 119.719 235.441 119.719C236.301 119.719 236.234 119.058 237.226 118.066C238.482 116.876 252.231 106.366 252.231 99.8223ZM273.836 86.8004V86.536C273.77 85.7428 271.457 84.553 270.598 84.1564C270.201 83.9581 269.672 83.8259 269.077 83.8259C268.218 83.8259 267.16 84.0903 266.367 84.7513C262.004 88.3868 253.676 94.6003 253.676 101.871C253.676 111.787 268.879 111.126 269.804 114.364C269.804 116.744 260.22 119.983 259.823 120.644C259.559 120.975 259.427 121.305 259.427 121.636C259.427 122.561 260.418 123.354 261.806 123.42C262.798 123.42 273.638 117.736 273.638 115.025C273.638 110.927 269.87 110.266 265.838 108.68C261.476 107.027 257.113 105.705 257.113 101.871C257.113 99.8223 258.766 95.9884 261.74 93.3444C266.962 88.6512 267.689 87.2631 269.937 87.197C270.465 87.197 271.192 87.9902 272.448 87.9902C273.44 87.9902 273.836 87.4614 273.836 86.8004Z" fill="#FF8200"/>
<path d="M0.862968 153.657V173H9.88197C12.289 173 13.884 172.565 15.073 171.55C16.175 170.593 16.842 169.172 16.842 167.693C16.842 166.33 16.262 165.025 15.276 164.126C14.609 163.517 14.029 163.256 12.811 162.937C15.189 162.212 16.32 160.82 16.32 158.645C16.32 157.137 15.711 155.832 14.522 154.904C13.391 153.976 12.173 153.657 9.88197 153.657H0.862968ZM5.38697 157.079H8.48997C10.172 157.079 10.52 157.137 11.013 157.601C11.448 157.949 11.68 158.529 11.68 159.138C11.68 159.834 11.361 160.501 10.839 160.878C10.404 161.197 9.91097 161.313 8.80897 161.313H5.38697V157.079ZM5.38697 164.764H9.06997C11.013 164.764 12.115 165.605 12.115 167.055C12.115 167.838 11.709 168.621 11.1 169.027C10.607 169.317 10.056 169.433 8.86697 169.433H5.38697V164.764ZM32.0486 158.703H27.8436V166.736C27.8436 168.099 27.8436 168.186 27.6116 168.65C27.2056 169.462 26.4226 169.955 25.5236 169.955C24.4216 169.955 23.9286 169.346 23.9286 168.041V158.703H19.8396V168.041C19.8396 170.129 20.0136 170.941 20.6226 171.84C21.2896 172.826 22.3336 173.29 23.8706 173.29C26.0166 173.29 27.3796 172.391 28.1336 170.564V173H32.0486V158.703ZM46.5201 162.154C45.4761 159.486 43.8521 158.413 40.8361 158.413C37.1531 158.413 34.7751 160.24 34.7751 163.111C34.7751 164.735 35.6161 166.127 37.0081 166.823C37.7041 167.142 39.7631 167.635 41.8511 167.896C42.9821 168.07 43.4461 168.389 43.4461 169.056C43.4461 169.897 42.4311 170.477 40.9231 170.477C39.1541 170.477 38.1391 169.839 37.7911 168.563L34.2241 169.056C34.5141 170.245 34.8621 170.854 35.6161 171.579C36.8631 172.768 38.3711 173.29 40.6911 173.29C44.6641 173.29 47.1291 171.376 47.1291 168.331C47.1291 166.736 46.4621 165.431 45.3021 164.764C44.4321 164.242 43.4171 164.01 40.9521 163.662C39.0671 163.43 38.5451 163.14 38.5451 162.328C38.5451 161.545 39.3571 161.052 40.6621 161.052C42.1701 161.052 43.0401 161.661 43.4461 162.995L46.5201 162.154ZM54.0211 158.703H49.8161V173H54.0211V158.703ZM54.0211 153.28H49.8161V157.485H54.0211V153.28ZM70.2219 173V163.836C70.2219 161.806 69.9319 160.646 69.2649 159.805C68.5399 158.906 67.3219 158.413 65.8719 158.413C63.8709 158.413 62.9139 159.022 61.6959 161.11V158.703H57.7809V173H61.9859V164.967C61.9859 162.85 62.7689 161.69 64.2189 161.69C64.9439 161.69 65.4949 162.038 65.7559 162.618C65.9879 163.111 66.0169 163.459 66.0169 164.967V173H70.2219ZM86.8339 166.562C86.8049 164.039 86.5149 162.85 85.6739 161.429C84.6009 159.573 82.4549 158.413 80.0769 158.413C75.9879 158.413 73.1749 161.516 73.1749 165.982C73.1749 170.361 75.9879 173.29 80.2219 173.29C82.3099 173.29 83.8469 172.681 85.0939 171.347C85.8769 170.506 86.2539 169.839 86.7469 168.331L82.9189 168.07C82.6289 169.52 81.7589 170.303 80.3669 170.303C78.7139 170.303 77.6119 169.085 77.6119 167.229C77.6119 167.113 77.6119 166.794 77.6409 166.562H86.8339ZM77.6409 164.097C77.8439 162.096 78.6849 161.168 80.2799 161.168C81.8169 161.168 82.5129 162.038 82.6869 164.097H77.6409ZM100.724 162.154C99.68 159.486 98.056 158.413 95.04 158.413C91.357 158.413 88.979 160.24 88.979 163.111C88.979 164.735 89.82 166.127 91.212 166.823C91.908 167.142 93.967 167.635 96.055 167.896C97.186 168.07 97.65 168.389 97.65 169.056C97.65 169.897 96.635 170.477 95.127 170.477C93.358 170.477 92.343 169.839 91.995 168.563L88.428 169.056C88.718 170.245 89.066 170.854 89.82 171.579C91.067 172.768 92.575 173.29 94.895 173.29C98.868 173.29 101.333 171.376 101.333 168.331C101.333 166.736 100.666 165.431 99.506 164.764C98.636 164.242 97.621 164.01 95.156 163.662C93.271 163.43 92.749 163.14 92.749 162.328C92.749 161.545 93.561 161.052 94.866 161.052C96.374 161.052 97.244 161.661 97.65 162.995L100.724 162.154ZM115.146 162.154C114.102 159.486 112.478 158.413 109.462 158.413C105.779 158.413 103.401 160.24 103.401 163.111C103.401 164.735 104.242 166.127 105.634 166.823C106.33 167.142 108.389 167.635 110.477 167.896C111.608 168.07 112.072 168.389 112.072 169.056C112.072 169.897 111.057 170.477 109.549 170.477C107.78 170.477 106.765 169.839 106.417 168.563L102.85 169.056C103.14 170.245 103.488 170.854 104.242 171.579C105.489 172.768 106.997 173.29 109.317 173.29C113.29 173.29 115.755 171.376 115.755 168.331C115.755 166.736 115.088 165.431 113.928 164.764C113.058 164.242 112.043 164.01 109.578 163.662C107.693 163.43 107.171 163.14 107.171 162.328C107.171 161.545 107.983 161.052 109.288 161.052C110.796 161.052 111.666 161.661 112.072 162.995L115.146 162.154ZM130.796 165.808H133.986C136.683 165.808 137.872 165.489 139.09 164.445C140.424 163.314 141.178 161.574 141.178 159.602C141.178 157.804 140.54 156.296 139.235 155.194C137.901 154.005 136.625 153.657 133.812 153.657H126.185V173H130.796V165.808ZM130.622 162.299V157.166H133.58C134.711 157.166 135.378 157.369 135.9 157.891C136.364 158.355 136.625 159.022 136.625 159.718C136.625 160.385 136.393 160.994 135.987 161.458C135.436 162.067 134.798 162.299 133.58 162.299H130.622ZM147.835 173V167.171C147.835 164.126 148.908 162.589 151.054 162.589C151.112 162.589 151.286 162.589 151.46 162.618V158.442C151.17 158.413 150.88 158.384 150.706 158.384C149.198 158.384 148.212 159.341 147.603 161.371V158.703H143.746V173H147.835ZM159.949 158.413C155.918 158.413 153.192 161.371 153.192 165.75C153.192 168.012 153.743 169.665 154.961 171.115C156.237 172.594 157.803 173.29 159.949 173.29C164.038 173.29 166.88 170.274 166.88 165.895C166.88 161.371 164.125 158.413 159.949 158.413ZM160.065 161.168C161.776 161.168 162.443 162.502 162.443 165.982C162.443 169.143 161.689 170.535 160.036 170.535C158.325 170.535 157.629 169.056 157.629 165.489C157.629 162.444 158.354 161.168 160.065 161.168ZM174.541 161.98H177.615V158.703H174.541V154.179L170.916 154.469L170.568 158.703H168.074V161.98H170.336V168.65C170.336 172.072 171.641 173.319 175.15 173.319C175.846 173.319 175.991 173.29 177.847 173V169.868C177.209 169.926 176.919 169.926 176.513 169.926C174.86 169.926 174.541 169.636 174.541 168.012V161.98ZM186.046 158.413C182.015 158.413 179.289 161.371 179.289 165.75C179.289 168.012 179.84 169.665 181.058 171.115C182.334 172.594 183.9 173.29 186.046 173.29C190.135 173.29 192.977 170.274 192.977 165.895C192.977 161.371 190.222 158.413 186.046 158.413ZM186.162 161.168C187.873 161.168 188.54 162.502 188.54 165.982C188.54 169.143 187.786 170.535 186.133 170.535C184.422 170.535 183.726 169.056 183.726 165.489C183.726 162.444 184.451 161.168 186.162 161.168ZM200.637 161.98H203.711V158.703H200.637V154.179L197.012 154.469L196.664 158.703H194.17V161.98H196.432V168.65C196.432 172.072 197.737 173.319 201.246 173.319C201.942 173.319 202.087 173.29 203.943 173V169.868C203.305 169.926 203.015 169.926 202.609 169.926C200.956 169.926 200.637 169.636 200.637 168.012V161.98ZM217.984 158.703H214.91L212.271 167.229L209.545 158.703H205.05L210.27 173C209.864 174.392 209.371 174.769 207.95 174.769C207.254 174.769 206.819 174.74 205.891 174.595V177.843C206.819 177.959 207.254 177.988 207.921 177.988C209.806 177.988 210.966 177.495 211.807 176.335C212.503 175.407 212.648 175.03 213.518 172.42L217.984 158.703ZM220.081 177.843H224.17V171.434C224.953 172.739 225.997 173.29 227.621 173.29C231.014 173.29 233.015 170.477 233.015 165.779C233.015 161.168 231.043 158.413 227.737 158.413C225.91 158.413 224.721 159.167 223.967 160.791V158.703H220.081V177.843ZM224.17 164.619C224.17 162.56 225.011 161.342 226.403 161.342C227.911 161.342 228.636 162.734 228.636 165.721C228.636 167.432 228.462 168.621 228.056 169.259C227.679 169.926 227.07 170.332 226.403 170.332C225.736 170.332 224.953 169.897 224.576 169.288C224.228 168.766 224.17 168.302 224.17 166.736V164.619ZM240.209 158.703H236.004V173H240.209V158.703ZM240.209 153.28H236.004V157.485H240.209V153.28ZM256.41 173V163.836C256.41 161.806 256.12 160.646 255.453 159.805C254.728 158.906 253.51 158.413 252.06 158.413C250.059 158.413 249.102 159.022 247.884 161.11V158.703H243.969V173H248.174V164.967C248.174 162.85 248.957 161.69 250.407 161.69C251.132 161.69 251.683 162.038 251.944 162.618C252.176 163.111 252.205 163.459 252.205 164.967V173H256.41ZM274.444 156.354C273.951 156.267 273.719 156.238 273.284 156.238C271.08 156.238 270.355 156.876 270.036 159.022C268.47 158.529 267.687 158.413 266.266 158.413C262.235 158.413 259.683 160.153 259.683 162.908C259.683 164.532 260.466 165.605 262.206 166.388C261.336 166.765 261.017 166.939 260.553 167.258C259.799 167.78 259.335 168.65 259.335 169.578C259.335 170.709 259.857 171.434 261.162 172.13C259.48 172.594 258.697 173.406 258.697 174.711C258.697 175.813 259.451 176.828 260.64 177.292C261.916 177.843 263.54 178.046 266.15 178.046C269.108 178.046 270.877 177.698 272.327 176.799C273.574 176.045 274.357 174.74 274.357 173.348C274.357 171.753 273.371 170.477 271.834 170.013C270.703 169.694 270.413 169.665 266.846 169.491C263.859 169.346 263.308 169.143 263.308 168.157C263.308 167.693 263.511 167.403 264.062 167.084C264.874 167.229 265.483 167.287 266.382 167.287C270.413 167.287 272.82 165.634 272.82 162.85C272.82 161.777 272.559 161.139 271.689 160.124C271.863 159.312 272.385 158.906 273.313 158.906C273.661 158.906 273.893 158.935 274.444 159.022V156.354ZM266.237 160.704C267.716 160.704 268.673 161.545 268.673 162.821C268.673 164.126 267.687 164.996 266.208 164.996C264.787 164.996 263.917 164.184 263.917 162.821C263.917 161.516 264.787 160.704 266.237 160.704ZM264.874 173C269.311 173 270.413 173.203 270.413 174.131C270.413 175.117 269.282 175.494 266.498 175.494C263.511 175.494 262.38 175.117 262.38 174.102C262.38 173.522 262.873 172.971 263.424 172.913C263.482 172.913 263.656 172.913 263.888 172.971L264.874 173ZM296.447 153.657H282.266V157.485H287.08V173H291.662V157.485H296.447V153.657ZM302.957 158.413C298.926 158.413 296.2 161.371 296.2 165.75C296.2 168.012 296.751 169.665 297.969 171.115C299.245 172.594 300.811 173.29 302.957 173.29C307.046 173.29 309.888 170.274 309.888 165.895C309.888 161.371 307.133 158.413 302.957 158.413ZM303.073 161.168C304.784 161.168 305.451 162.502 305.451 165.982C305.451 169.143 304.697 170.535 303.044 170.535C301.333 170.535 300.637 169.056 300.637 165.489C300.637 162.444 301.362 161.168 303.073 161.168ZM318.766 158.413C314.735 158.413 312.009 161.371 312.009 165.75C312.009 168.012 312.56 169.665 313.778 171.115C315.054 172.594 316.62 173.29 318.766 173.29C322.855 173.29 325.697 170.274 325.697 165.895C325.697 161.371 322.942 158.413 318.766 158.413ZM318.882 161.168C320.593 161.168 321.26 162.502 321.26 165.982C321.26 169.143 320.506 170.535 318.853 170.535C317.142 170.535 316.446 169.056 316.446 165.489C316.446 162.444 317.171 161.168 318.882 161.168ZM328.631 173H332.836V153.657H328.631V173ZM346.021 163.546L350.139 158.703H346.021L341.845 163.633C341.787 163.691 341.555 164.01 341.178 164.474C341.091 164.59 340.859 164.909 340.569 165.257V153.657H336.596V173H340.569V169.346L343.034 166.504L346.021 173H350.69L346.021 163.546ZM356.865 158.703H352.66V173H356.865V158.703ZM356.865 153.28H352.66V157.485H356.865V153.28ZM365.352 161.98H368.426V158.703H365.352V154.179L361.727 154.469L361.379 158.703H358.885V161.98H361.147V168.65C361.147 172.072 362.452 173.319 365.961 173.319C366.657 173.319 366.802 173.29 368.658 173V169.868C368.02 169.926 367.73 169.926 367.324 169.926C365.671 169.926 365.352 169.636 365.352 168.012V161.98Z" fill="black"/>
</g>
<defs>
<clipPath id="clip0_1516_7">
<rect width="371" height="187" fill="white"/>
</clipPath>
</defs>
</svg>
